<svg width="38" height="39" viewBox="0 0 38 39" fill="none" xmlns="http://www.w3.org/2000/svg">
<rect width="38" height="38" rx="19" transform="matrix(-1 0 0 1 38 0.361328)" fill="#2D2D2D"/>
<path d="M26.309 19.8652C26.3097 19.8675 26.3103 19.8696 26.3109 19.8717C26.318 19.8955 26.3227 19.9114 26.3227 19.9273L26.309 19.8652ZM26.309 19.8652C26.3226 19.8476 26.3358 19.8288 26.3485 19.8087L26.2851 19.7686L26.2115 19.7831C26.2166 19.8086 26.2216 19.8299 26.2263 19.848L26.309 19.8652ZM25.7301 21.3917L25.7301 21.3917L26.3102 21.1442L26.3852 21.1454C26.3852 21.1452 26.3852 21.145 26.3852 21.1448C26.3883 20.9417 26.3898 20.7386 26.3914 20.5365L26.3914 20.5343C26.393 20.3313 26.3945 20.1292 26.3977 19.9285L26.3977 19.9285V19.9273C26.3977 19.9002 26.3901 19.8746 26.3841 19.8546C26.3837 19.8532 26.3833 19.8518 26.3829 19.8505C26.376 19.8273 26.3674 19.7982 26.3587 19.754L26.3224 19.5697L26.2218 19.7284C26.0595 19.9846 25.8118 19.9846 25.5106 19.9846H25.5091H25.4341V20.0596C25.4341 20.141 25.4359 20.2191 25.4376 20.2949C25.4415 20.4629 25.4451 20.6195 25.4282 20.7764C25.4145 20.9037 25.4295 21.0191 25.4808 21.1237C25.532 21.2279 25.6161 21.3151 25.7301 21.3917Z" fill="#B9B9B9" stroke="#B9B9B9" stroke-width="0.15"/>
<path d="M25.8532 18.6859C25.8599 18.381 25.7658 18.0817 25.5833 17.8215C25.4356 17.6039 25.283 17.465 25.1069 17.465C24.9319 17.465 24.7759 17.6026 24.6222 17.8148L24.6222 17.8148L25.8532 18.6859C25.8532 18.6859 25.8532 18.6859 25.8532 18.6859ZM25.8532 18.6859C25.8501 18.8278 25.8501 18.9711 25.8501 19.1154V19.1159C25.8501 19.2592 25.8501 19.4035 25.8469 19.5466C25.8469 19.5472 25.8469 19.5477 25.8469 19.5483L25.7719 19.5467L25.8532 18.6859Z" fill="#B9B9B9" stroke="#B9B9B9" stroke-width="0.15"/>
<path d="M14.366 15.5578L14.366 15.5578L14.3665 15.5576C15.334 15.1487 16.3219 15.1986 17.3234 15.5171C17.6144 15.6239 17.9198 15.6997 18.2325 15.7427L18.2331 15.7428C18.9866 15.8399 19.7054 15.7046 20.4046 15.4969L20.4047 15.4969C21.6955 15.1105 22.9258 15.1999 24.0763 15.8553L24.077 15.8557C24.2591 15.9565 24.4487 16.0581 24.6451 16.1491L24.6451 16.1492L24.6469 16.15C24.9682 16.2886 25.3533 16.235 25.6606 16.0034L25.7331 15.9488L25.6658 15.8879C25.6119 15.8392 25.5584 15.7882 25.5042 15.7366C25.3823 15.6205 25.2568 15.5009 25.1156 15.3965L25.1155 15.3964C24.6172 15.0291 24.0256 14.7933 23.4144 14.6175L23.4139 14.6173C20.6659 13.8465 17.9055 13.8308 15.1279 14.4683L15.1277 14.4684C14.4153 14.6336 13.7378 14.8741 13.1284 15.239C12.8242 15.4212 12.5439 15.6345 12.3533 15.9234L12.3135 15.9838L12.3724 16.0258C12.7148 16.2698 13.1037 16.2884 13.4495 16.082C13.5419 16.0268 13.6294 15.9717 13.7147 15.918C13.9309 15.7818 14.1329 15.6545 14.366 15.5578Z" fill="#B9B9B9" stroke="#B9B9B9" stroke-width="0.15"/>
<path d="M19.2942 20.445H19.2192V20.52C19.2192 20.6231 19.2172 20.7271 19.2151 20.8314C19.21 21.0948 19.2048 21.3602 19.2321 21.6179C19.2723 21.9971 19.4362 22.2081 19.6735 22.4412C19.7973 22.5629 19.9351 22.6382 20.0831 22.6406C20.2323 22.6431 20.3747 22.5712 20.5061 22.4344L20.5061 22.4344L20.5067 22.4338C20.6235 22.3094 20.7218 22.173 20.7992 22.0274C20.9457 21.7761 20.9776 21.518 20.9792 21.2659C20.9799 21.1685 20.9759 21.0702 20.972 20.9737C20.9709 20.9459 20.9698 20.9182 20.9688 20.8907C20.9643 20.7668 20.9621 20.6456 20.9712 20.5257L20.9773 20.445H20.8964H19.2942Z" fill="#B9B9B9" stroke="#B9B9B9" stroke-width="0.15"/>
<path d="M14.137 16.1339L14.0964 16.0708C14.0797 16.0815 14.0629 16.0923 14.0461 16.1031C13.905 16.1939 13.7611 16.2865 13.6172 16.3707L13.6171 16.3707L13.6156 16.3717C13.4968 16.4452 13.3602 16.4969 13.2147 16.5227C13.0693 16.5485 12.9189 16.5477 12.7739 16.5205L12.7739 16.5205L12.7718 16.5201C12.2597 16.4386 11.8912 16.1961 11.647 15.8136C11.5969 15.7322 11.5285 15.6654 11.4416 15.6258C11.3545 15.5862 11.2541 15.5762 11.144 15.5998C11.0503 15.6149 10.9635 15.6577 10.9 15.7233C10.8364 15.7891 10.8001 15.8739 10.8012 15.9634C10.7897 16.2145 10.7939 16.4659 10.8139 16.7166L10.8139 16.7167C10.8208 16.8012 10.8414 16.8825 10.8645 16.9602C10.8745 16.9937 10.8845 17.0251 10.8944 17.056C10.9085 17.1005 10.9223 17.1439 10.9353 17.1909L10.9584 17.2746L11.0379 17.2395C11.0924 17.2155 11.1494 17.1955 11.2083 17.1799L11.2083 17.1799L11.2099 17.1795C11.3487 17.1395 11.4171 17.1318 11.4678 17.1459C11.5164 17.1595 11.5629 17.1972 11.644 17.2975C11.7175 17.3883 11.7648 17.4486 11.8048 17.4996C11.8514 17.5591 11.8882 17.606 11.9453 17.6741L12.0023 17.7422L12.0599 17.6745C12.3182 17.3709 12.5454 17.1171 12.9851 17.1557C13.3871 17.191 13.5625 17.4326 13.7602 17.705C13.7798 17.732 13.7997 17.7594 13.82 17.7869L13.8751 17.8613L13.9365 17.7921C13.9754 17.7483 14.0102 17.707 14.0434 17.6678C14.1108 17.5882 14.1713 17.5167 14.2446 17.4478L14.1933 17.3931M14.137 16.1339L14.0962 16.0709C15.0007 15.4852 16.0141 15.427 17.0089 15.7666L17.0093 15.7667C18.1639 16.1686 19.2803 16.1688 20.4298 15.8135L20.452 15.8852L20.4298 15.8135C21.348 15.5298 22.286 15.4635 23.2136 15.8151L23.2143 15.8153C23.5006 15.927 23.768 16.0711 24.0322 16.2134C24.0732 16.2355 24.1141 16.2575 24.1549 16.2794L24.1196 16.3455M14.137 16.1339C14.1203 16.1446 14.1035 16.1554 14.0867 16.1662C13.9458 16.2569 13.8004 16.3504 13.655 16.4355L16.9847 15.8376C16.0083 15.5042 15.0194 15.5624 14.137 16.1339ZM24.1196 16.3455L24.1547 16.2792C24.5866 16.5081 25.0086 16.5761 25.3835 16.4983C25.7577 16.4206 26.0924 16.1961 26.3486 15.8266L26.3489 15.8262C26.4146 15.7326 26.4922 15.6654 26.5819 15.6271C26.6718 15.5887 26.7684 15.5817 26.868 15.5998C26.9702 15.6183 27.0588 15.6656 27.121 15.7398C27.1834 15.8144 27.2149 15.911 27.2112 16.02L27.2112 16.0218C27.1923 16.3456 27.1672 16.6641 27.1358 16.9825L27.1352 16.9881L27.135 16.9881C27.1216 17.065 27.0924 17.1388 27.0492 17.2061L27.0148 17.2598L26.9563 17.2344C26.9056 17.2125 26.8527 17.1943 26.7981 17.18L26.7963 17.1795L26.7963 17.1795C26.6582 17.1397 26.59 17.1333 26.5396 17.1482C26.4904 17.1628 26.4436 17.2021 26.3622 17.3027C26.3622 17.3027 26.3622 17.3027 26.3622 17.3027L26.0681 17.6677L26.0086 17.7416L25.9504 17.6666C25.6498 17.2789 25.3324 17.1255 25.0381 17.1504C24.7415 17.1755 24.4416 17.3836 24.1823 17.7782L24.128 17.8608L24.063 17.7863C24.0295 17.7479 23.9992 17.7112 23.9698 17.6757C23.9177 17.6127 23.8685 17.5532 23.8096 17.4934L23.8091 17.4929C23.6069 17.2843 23.374 17.1682 23.1344 17.145C22.8951 17.1219 22.6421 17.1908 22.3983 17.3642C22.2782 17.4504 22.1706 17.5515 22.0645 17.6588C22.0254 17.6984 21.9859 17.7395 21.946 17.781C21.8795 17.8501 21.8119 17.9204 21.7433 17.9868L21.6807 18.0473L21.6301 17.9763C21.3365 17.5644 21.0119 17.1609 20.3638 17.156C19.7169 17.151 19.3928 17.5478 19.0677 18.0128L19.007 18.0996L18.9453 18.0136C18.6252 17.5679 18.3135 17.1609 17.66 17.156C17.0068 17.151 16.6763 17.5533 16.3578 18.0126L16.2937 18.105L16.2331 18.0103C16.1682 17.9091 16.094 17.8123 16.0109 17.7207C15.9842 17.6953 15.958 17.6699 15.9321 17.6447C15.809 17.5254 15.6919 17.4118 15.5498 17.3248L15.5497 17.3247C15.3208 17.184 15.0882 17.1283 14.8679 17.1497C14.6476 17.171 14.4342 17.27 14.2446 17.4478L14.1933 17.3931M24.1196 16.3455C25.0083 16.8164 25.8783 16.6365 26.4103 15.8693L23.187 15.8852C23.4688 15.9951 23.7317 16.1368 23.9962 16.2792C24.0373 16.3013 24.0784 16.3235 24.1196 16.3455ZM14.1933 17.3931C14.1168 17.465 14.0519 17.5417 13.9828 17.6233C13.9658 17.6434 13.9486 17.6637 13.9308 17.6844M14.1933 17.3931C14.5938 17.0175 15.1071 16.9646 15.589 17.2609C15.7388 17.3526 15.863 17.4731 15.9863 17.5928C16.0124 17.6181 16.0384 17.6433 16.0646 17.6683C16.1327 17.7431 16.1951 17.8214 16.2515 17.9028L13.9308 17.6844M13.9308 17.6844C13.9341 17.6889 13.9374 17.6933 13.9407 17.6978L13.8804 17.7423L13.8242 17.6926C13.8279 17.6885 13.8315 17.6844 13.8351 17.6803C13.8302 17.6736 13.8253 17.6668 13.8204 17.66C13.6242 17.389 13.4291 17.1194 12.9916 17.081C12.5406 17.0414 12.2925 17.289 12.0522 17.5681M13.9308 17.6844L12.0522 17.5681M11.9542 17.5672C11.9224 17.5281 11.896 17.4944 11.8648 17.4546C11.8252 17.404 11.778 17.3437 11.7023 17.2503C11.5396 17.0492 11.4645 17.0281 11.1891 17.1074C11.1512 17.1175 11.114 17.1292 11.0776 17.1426C11.0539 17.1514 11.0306 17.1608 11.0076 17.1709L11.9542 17.5672ZM11.9542 17.5672C11.9514 17.5706 11.9485 17.574 11.9456 17.5773L12.0027 17.6259M11.9542 17.5672L12.0027 17.6259M12.0027 17.6259L12.0602 17.5778C12.0575 17.5745 12.0548 17.5713 12.0522 17.5681M12.0027 17.6259L12.0522 17.5681M10.965 17.0307C10.9722 17.0531 10.9793 17.0756 10.9863 17.0984L12.76 16.5942C12.2281 16.5095 11.84 16.2556 11.5834 15.8534C11.4958 15.7106 11.3518 15.6312 11.1578 15.6736C11.0777 15.6861 11.0055 15.7222 10.9539 15.7754C10.9024 15.8287 10.8748 15.8957 10.8762 15.9646C10.8647 16.2132 10.8689 16.4623 10.8887 16.7106C10.8975 16.8181 10.9308 16.9229 10.965 17.0307Z" fill="#B9B9B9" stroke="#B9B9B9" stroke-width="0.15"/>
<path d="M22.3879 17.8282C21.8642 18.3767 21.8879 19.0165 21.9105 19.6284C21.9127 19.6903 21.915 19.7519 21.9167 19.8131L21.9187 19.886H21.9917H23.8818H23.9568V19.811C23.9568 19.6902 23.9561 19.5724 23.9554 19.4564L22.3879 17.8282ZM22.3879 17.8282C22.6153 17.5873 22.8435 17.4539 23.073 17.4663C23.3041 17.4788 23.5069 17.6371 23.6873 17.9066C23.8699 18.1743 23.9635 18.4802 23.9568 18.7914C23.9568 18.7914 23.9568 18.7915 23.9568 18.7915L22.3879 17.8282Z" fill="#B9B9B9" stroke="#B9B9B9" stroke-width="0.15"/>
<path d="M21.3785 20.5239L21.4162 20.5023L21.841 20.2594C21.8851 20.2328 21.935 20.2152 21.987 20.2075L21.998 20.2059V20.2067H23.0494H23.1152L23.1238 20.272C23.1259 20.2883 23.1288 20.3026 23.1321 20.3187C23.1329 20.323 23.1338 20.3274 23.1347 20.332C23.1387 20.3524 23.1432 20.377 23.1432 20.4034V20.4037C23.1432 20.7368 23.1432 21.0708 23.1369 21.4048M21.3785 20.5239L23.0619 21.4034M21.3785 20.5239V20.5675C21.3785 20.6547 21.3762 20.7464 21.3739 20.8409C21.3685 21.0645 21.3627 21.3038 21.385 21.5375C21.4174 21.8813 21.5857 22.2035 21.8592 22.453M21.3785 20.5239L21.8592 22.453M23.1369 21.4048L23.0619 21.4034M23.1369 21.4048C23.1369 21.4047 23.1369 21.4046 23.1369 21.4045L23.0619 21.4034M23.1369 21.4048C23.1314 21.7967 22.9568 22.1709 22.6503 22.4579M23.0619 21.4034C23.0568 21.7733 22.8921 22.1289 22.5988 22.4034M22.6503 22.4579C22.6504 22.4578 22.6505 22.4577 22.6506 22.4576L22.5988 22.4034M22.6503 22.4579C22.5241 22.5786 22.3936 22.6481 22.2537 22.6464C22.1144 22.6448 21.9846 22.5728 21.8592 22.453M22.6503 22.4579C22.6502 22.458 22.6501 22.4581 22.65 22.4582L22.5988 22.4034M22.5988 22.4034L21.8592 22.453M21.8592 22.453C21.8594 22.4532 21.8596 22.4534 21.8598 22.4536L21.9103 22.3981L21.8585 22.4523C21.8587 22.4525 21.8589 22.4528 21.8592 22.453Z" fill="#B9B9B9" stroke="#B9B9B9" stroke-width="0.15"/>
<path d="M24.7543 22.0395L24.7543 22.0395C24.6106 22.1525 24.4606 22.2123 24.31 22.1987C24.1587 22.1852 24.0228 22.099 23.9049 21.9537C23.6789 21.6753 23.5311 21.3625 23.5376 21.0063V20.2821V20.2022L23.6174 20.2073C23.7112 20.2132 23.8055 20.2116 23.8989 20.2022C23.899 20.2022 23.8992 20.2022 23.8993 20.2022L24.7543 22.0395ZM24.7543 22.0395L24.7548 22.0391L24.7543 22.0395ZM25.0395 19.9754V20.0546C25.0395 20.1985 25.0409 20.3414 25.0423 20.4835C25.046 20.8603 25.0497 21.2313 25.0269 21.5984C25.0269 21.5986 25.0269 21.5988 25.0268 21.5989L24.952 21.5943L25.0395 19.9754ZM25.0395 19.9754L24.9605 19.9797M25.0395 19.9754L24.9605 19.9797M24.9605 19.9797C24.8911 19.9835 24.8214 19.9807 24.7493 19.9776M24.9605 19.9797L24.7493 19.9776M24.7493 19.9776L24.7432 19.9773M24.7493 19.9776L24.7432 19.9773M24.7432 19.9773C24.6743 19.9744 24.6025 19.9713 24.5325 19.9751M24.7432 19.9773L24.5325 19.9751M24.5325 19.9751C24.3866 19.9829 24.2404 20.021 24.1167 20.1549L24.5325 19.9751Z" fill="#B9B9B9" stroke="#B9B9B9" stroke-width="0.15"/>
<path d="M26.3476 18.0864L26.2732 18.0775C26.2364 18.3848 26.2428 18.6974 26.2491 19.0046C26.2515 19.121 26.2539 19.2367 26.2539 19.3509V19.4259H26.3289H26.8734H26.9568L26.948 19.343C26.9257 19.1341 26.9318 18.9274 26.9381 18.7158C26.9404 18.6358 26.9428 18.5552 26.9437 18.4734C26.9468 18.1796 26.9298 17.8794 26.8116 17.5825L26.796 17.5433L26.7544 17.5362L26.6919 17.5257L26.646 17.5179L26.6186 17.5556C26.5911 17.5936 26.5586 17.6317 26.5236 17.6716C26.5158 17.6805 26.5077 17.6896 26.4996 17.6988C26.4724 17.7296 26.4441 17.7616 26.418 17.7934C26.3516 17.8743 26.2851 17.9698 26.2731 18.0781L26.3476 18.0864ZM26.3476 18.0864C26.3606 17.9693 26.4574 17.8598 26.5552 17.7492C26.5988 17.6998 26.6427 17.6502 26.6794 17.5996L26.7419 17.6102C26.885 17.9697 26.8741 18.3378 26.8632 18.7089C26.8576 18.8974 26.852 19.0866 26.8665 19.2759H26.8734V19.3509L26.7988 19.3589C26.7985 19.3562 26.7982 19.3536 26.798 19.3509H26.4039H26.3289C26.3289 19.2332 26.3265 19.1156 26.324 18.998C26.3178 18.6927 26.3115 18.3882 26.3476 18.0864Z" fill="#B9B9B9" stroke="#B9B9B9" stroke-width="0.15"/>
<path d="M21.5159 18.9423C21.5082 18.4865 21.2992 18.0524 20.9346 17.7243C20.7506 17.5523 20.5564 17.4584 20.3547 17.4592C20.153 17.4599 19.9589 17.5553 19.7749 17.7301C19.4145 18.062 19.2084 18.4969 19.2004 18.9528L19.2004 18.9528V18.9542V19.9012H19.1997L19.201 19.911L19.2198 20.0539L19.2284 20.1191H19.2942H21.4409H21.5159V20.0441C21.5159 19.9188 21.5166 19.7943 21.5173 19.6705C21.5187 19.4248 21.5201 19.182 21.5159 18.9423ZM21.5159 18.9423L21.4409 18.9436M21.5159 18.9423C21.5159 18.9423 21.5159 18.9423 21.5159 18.9423L21.4409 18.9436M21.4409 18.9436C21.4451 19.1825 21.4437 19.4237 21.4423 19.6688C21.4416 19.7929 21.4409 19.9179 21.4409 20.0441L20.8839 17.7796C21.2349 18.0952 21.4336 18.5104 21.4409 18.9436Z" fill="#B9B9B9" stroke="#B9B9B9" stroke-width="0.15"/>
<path d="M11.341 17.515L11.2593 17.4151L11.213 17.5356C11.0893 17.8576 11.0656 18.1698 11.0656 18.4719C11.0656 18.5736 11.0682 18.6728 11.0707 18.7707C11.0758 18.9679 11.0808 19.1597 11.0643 19.3551L11.0574 19.4364H11.139H11.6835H11.7585V19.3614C11.7585 19.2492 11.7553 19.1411 11.7522 19.0356C11.7455 18.8133 11.7393 18.603 11.7643 18.3914C11.7856 18.2113 11.7331 18.0584 11.6494 17.9182C11.5821 17.8057 11.4916 17.6966 11.4006 17.5871C11.3807 17.5631 11.3607 17.5391 11.341 17.515Z" fill="#B9B9B9" stroke="#B9B9B9" stroke-width="0.15"/>
<path d="M22.9988 24.7115C24.2496 24.7222 25.277 24.3296 26.0999 23.5207L26.1004 23.5202C26.3272 23.2929 26.5852 23.0887 26.869 22.912C27.0004 22.8314 27.0965 22.7437 27.1551 22.6369C27.2143 22.529 27.2308 22.4096 27.2172 22.2745C27.1914 22.0185 27.1071 21.6714 26.8595 21.4055L26.7896 21.3305L26.7392 21.4198C26.6238 21.6248 26.4592 21.7591 26.2116 21.8175C25.9678 21.875 25.7498 21.8097 25.5263 21.6872L25.4475 21.644L25.4191 21.7292C25.2903 22.1153 25.018 22.3627 24.5717 22.4683C24.1375 22.5711 23.777 22.3828 23.5272 22.0711L23.4674 21.9965L23.4092 22.0724C23.3576 22.1395 23.3111 22.2045 23.2663 22.2671C23.1747 22.3952 23.0901 22.5134 22.9836 22.6207L22.9831 22.6213C22.7633 22.8472 22.5127 22.9558 22.2651 22.957C22.0176 22.9582 21.7639 22.8521 21.5379 22.6313C21.4272 22.5169 21.3228 22.3973 21.2244 22.2726L21.1637 22.1956L21.1053 22.2744C20.8403 22.6317 20.592 22.958 20.0772 22.9531C19.5749 22.9483 19.3381 22.6334 19.0797 22.2896C19.0731 22.2809 19.0665 22.2721 19.0599 22.2634L18.9994 22.1829L18.9396 22.264L18.939 22.2649C18.6677 22.6329 18.4317 22.9531 17.9172 22.9531C17.4036 22.9531 17.1613 22.6234 16.9027 22.2714L16.9012 22.2694L16.8446 22.1924L16.7833 22.2656C16.7472 22.3087 16.7142 22.3498 16.6827 22.3892C16.617 22.4711 16.5572 22.5457 16.4874 22.6151L16.4874 22.6151C16.2514 22.85 15.9929 22.9608 15.7405 22.959C15.4886 22.9572 15.2319 22.843 14.9992 22.6065C14.9429 22.5431 14.8895 22.4827 14.8423 22.4178C14.7947 22.3525 14.6903 22.1813 14.6084 22.0428L14.5535 21.9501L14.4856 22.0336C14.3506 22.1996 14.2101 22.3356 14.0457 22.4172C13.8837 22.4978 13.6933 22.528 13.4526 22.4734C12.9652 22.3629 12.6698 22.0709 12.5703 21.6357L12.5487 21.5411L12.4626 21.5858C12.2136 21.7152 11.9961 21.752 11.8039 21.7156C11.6117 21.6792 11.4348 21.5675 11.2705 21.3807L11.2147 21.3172L11.1583 21.3801C10.8475 21.7268 10.7689 22.1085 10.8015 22.5051L10.8014 22.5051L10.8017 22.5075C10.8127 22.6036 10.864 22.6903 10.9418 22.7531L10.9418 22.7531L10.943 22.754C11.1495 22.9139 11.3555 23.0679 11.5605 23.2212C11.8025 23.4022 12.0432 23.5822 12.2819 23.7696L12.2819 23.7696L12.2828 23.7702C13.0575 24.3608 13.9369 24.7169 15.0071 24.7115M22.9988 24.7115C22.2701 24.7079 21.5449 24.6237 20.8419 24.4609L20.8416 24.4608C19.6243 24.1734 18.3363 24.177 17.1213 24.4713L17.1205 24.4715L17.1205 24.4715C16.4319 24.6311 15.721 24.7119 15.0071 24.7115M22.9988 24.7115C22.9987 24.7115 22.9987 24.7115 22.9987 24.7115L22.9993 24.6365L22.9989 24.7115C22.9989 24.7115 22.9988 24.7115 22.9988 24.7115ZM15.0071 24.7115C15.007 24.7115 15.007 24.7115 15.0069 24.7115L15.0069 24.6365L15.0073 24.7115C15.0073 24.7115 15.0072 24.7115 15.0071 24.7115Z" fill="#B9B9B9" stroke="#B9B9B9" stroke-width="0.15"/>
<path d="M14.49 17.6953L14.49 17.6953L14.4893 17.6961C14.2132 17.9885 14.0575 18.3519 14.0495 18.7301L14.0495 18.7302C14.0453 18.9396 14.0467 19.15 14.0481 19.3575C14.0488 19.4601 14.0495 19.5621 14.0495 19.6629C14.0495 19.691 14.053 19.7184 14.0559 19.7411C14.0561 19.7423 14.0562 19.7434 14.0564 19.7445C14.0595 19.7693 14.062 19.79 14.062 19.811V19.886H14.137H15.9958H16.0708V19.811C16.0708 19.699 16.0742 19.5861 16.0776 19.4732C16.0855 19.2076 16.0934 18.9417 16.0577 18.6847C16.0048 18.2706 15.7658 17.8931 15.3953 17.6287C15.2345 17.5095 15.0793 17.4473 14.9231 17.4591C14.7665 17.4709 14.6252 17.5559 14.49 17.6953Z" fill="#B9B9B9" stroke="#B9B9B9" stroke-width="0.15"/>
<path d="M28.0748 22.3686L28.0748 22.3689C28.0846 22.6127 28.0405 22.8235 27.9338 23.0046C27.8275 23.1851 27.6627 23.3298 27.4416 23.4481C27.1579 23.6104 26.9067 23.809 26.6969 24.0365L26.6948 24.0388L26.6947 24.0387C25.784 24.9486 24.5752 25.4203 23.1189 25.4363L23.1181 25.4363L22.9741 25.4363H22.9741C22.1922 25.4357 21.4139 25.346 20.6601 25.1698L20.6596 25.1697C20.122 25.0402 19.5655 24.975 19.0063 24.976H19.0062C18.4426 24.9768 17.8819 25.0437 17.3402 25.175C16.6243 25.3494 15.883 25.4374 15.1382 25.4363M28.0748 22.3686L15.1383 25.3613M28.0748 22.3686C28.0432 21.6624 27.7798 21.1036 27.254 20.6739M28.0748 22.3686L27.254 20.6739M15.1382 25.4363L15.1383 25.3613M15.1382 25.4363C15.1382 25.4363 15.1382 25.4363 15.1383 25.4363V25.3613M15.1382 25.4363C14.9428 25.4363 14.7474 25.431 14.5582 25.4203L14.5574 25.4203C13.5148 25.3504 12.5682 24.9738 11.6751 24.2777M15.1383 25.3613C14.9442 25.3613 14.7502 25.356 14.5625 25.3455C13.536 25.2767 12.6035 24.9063 11.721 24.2185M11.6751 24.2777C11.6751 24.2778 11.6752 24.2778 11.6752 24.2779L11.721 24.2185M11.6751 24.2777C11.675 24.2777 11.675 24.2777 11.6749 24.2776L11.721 24.2185M11.6751 24.2777C11.319 24.0032 10.8384 23.6391 10.3455 23.2856M11.721 24.2185C11.3643 23.9433 10.8823 23.5783 10.3879 23.2238M10.3879 23.2238L10.3468 23.2865C10.3464 23.2862 10.3459 23.2859 10.3455 23.2856M10.3879 23.2238C10.268 23.1452 10.1716 23.044 10.1064 22.9282C10.0412 22.8124 10.009 22.6853 10.0124 22.5571M10.3879 23.2238L10.3442 23.2847C10.3446 23.285 10.3451 23.2853 10.3455 23.2856M10.3455 23.2856C10.217 23.2011 10.1123 23.0916 10.041 22.965C9.9697 22.8383 9.93391 22.6985 9.93737 22.5568M10.0124 22.5571L9.9374 22.5585C9.93739 22.5579 9.93738 22.5574 9.93737 22.5568M10.0124 22.5571L9.93742 22.5551C9.9374 22.5557 9.93739 22.5563 9.93737 22.5568M10.0124 22.5571L10.6508 20.8904M9.93737 22.5568C9.9249 21.8775 10.085 21.3772 10.4618 20.9533L10.473 20.9392L10.4955 20.9107H10.5079C10.5373 20.877 10.5729 20.8483 10.6129 20.8257M10.6129 20.8257C10.6133 20.8255 10.6137 20.8253 10.614 20.8251L10.6508 20.8904M10.6129 20.8257C10.6126 20.8259 10.6123 20.826 10.612 20.8262L10.6508 20.8904M10.6129 20.8257C10.6884 20.7799 10.729 20.7321 10.751 20.6663C10.7747 20.5953 10.7793 20.4961 10.7639 20.3424L10.7636 20.3395L10.7637 20.3395C10.7583 20.2524 10.7574 20.1651 10.7609 20.078M10.6508 20.8904C10.826 20.7846 10.8698 20.647 10.8385 20.3349C10.8323 20.2326 10.8323 20.1302 10.8385 20.028M10.7609 20.078C10.7775 20.0848 10.7945 20.0915 10.8119 20.0981L10.8385 20.028M10.7609 20.078C10.7616 20.0598 10.7626 20.0416 10.7637 20.0234L10.8385 20.028M10.7609 20.078C10.5658 19.998 10.4269 19.9033 10.3388 19.7655C10.2438 19.617 10.2159 19.4309 10.219 19.191L10.2191 19.1883L10.2191 19.1883C10.2232 19.106 10.2218 19.0257 10.2205 18.9426C10.2198 18.8997 10.219 18.8561 10.219 18.8111V18.8097C10.219 18.5205 10.219 18.2227 10.2441 17.9191M10.8385 20.028C10.4067 19.864 10.2878 19.6629 10.294 19.192C10.2982 19.1074 10.2968 19.0227 10.2954 18.938C10.2947 18.8957 10.294 18.8534 10.294 18.8111C10.294 18.5201 10.294 18.2238 10.3191 17.9222M10.2441 17.9191V17.9222H10.3191M10.2441 17.9191C10.2442 17.918 10.2442 17.917 10.2443 17.916L10.3191 17.9222M10.2441 17.9191V17.9116V17.9007L10.2448 17.9008C10.2671 17.7479 10.24 17.5922 10.1655 17.4501M10.3191 17.9222V17.9116C10.3437 17.7422 10.3134 17.5702 10.2314 17.4142M10.1655 17.4501C10.1657 17.4504 10.1659 17.4507 10.1661 17.451L10.2314 17.4142M10.1655 17.4501C10.1654 17.4498 10.1652 17.4494 10.1651 17.4491L10.2314 17.4142M10.1655 17.4501C9.83955 16.8705 9.91955 16.2488 9.98174 15.7703M10.2314 17.4142C9.91851 16.8587 9.99362 16.2608 10.0562 15.7793M10.0562 15.7793L9.98167 15.771C9.98169 15.7708 9.98172 15.7705 9.98174 15.7703M10.0562 15.7793C10.1 15.3878 10.4129 15.0968 10.9074 14.9751C11.0195 14.9484 11.1352 14.9342 11.2516 14.9328C11.5403 14.9339 11.8186 15.0242 12.0339 15.1867M10.0562 15.7793L9.98183 15.7696C9.9818 15.7699 9.98177 15.7701 9.98174 15.7703M9.98174 15.7703C10.0305 15.3371 10.3768 15.0284 10.8895 14.9023L10.89 14.9021L10.89 14.9021C11.0076 14.8742 11.1288 14.8593 11.2507 14.8578L11.2519 14.8577C11.5341 14.8588 11.8082 14.9409 12.0296 15.0914M12.0296 15.0914C12.0145 15.1042 11.9995 15.1172 11.9845 15.1303L12.0339 15.1867M12.0296 15.0914C12.0464 15.1028 12.0629 15.1146 12.0791 15.1269L12.0339 15.1867M12.0296 15.0914C13.0719 14.2014 14.4111 13.846 15.4743 13.6369M12.0339 15.1867C13.0666 14.282 14.4123 13.9222 15.4887 13.7105M15.4887 13.7105L15.4742 13.637C15.4742 13.637 15.4743 13.6369 15.4743 13.6369M15.4887 13.7105C16.6522 13.4809 17.8427 13.3637 19.0374 13.3613L23.3121 13.8957L23.3306 13.823C23.3306 13.823 23.3306 13.823 23.3305 13.823C21.938 13.4682 20.4917 13.2874 19.0375 13.2863L19.0373 13.2863C17.8378 13.2887 16.6425 13.4064 15.4743 13.6369M15.4887 13.7105L15.4743 13.6369M26.3509 23.758L26.3511 23.7579C26.6029 23.5076 26.8469 23.2846 27.2008 23.0942C27.3639 23.0065 27.4674 22.9084 27.5299 22.7964C27.5924 22.6842 27.6179 22.5509 27.612 22.3855C27.5877 21.8166 27.3892 21.3307 26.8959 20.9442C26.8462 20.9054 26.8097 20.8528 26.7944 20.7925L26.7922 20.7842L26.7921 20.7755C26.7858 20.4625 26.7858 20.1549 26.7858 19.8375V19.7733L26.8493 19.7634C26.9972 19.7404 27.1181 19.6994 27.2005 19.6389C27.2794 19.5809 27.324 19.5046 27.324 19.3984C27.324 19.0217 27.3074 18.6441 27.2907 18.2654C27.2824 18.0762 27.274 17.8868 27.2678 17.6971L27.2677 17.6947C27.2677 17.6856 27.2671 17.6758 27.2663 17.6632C27.2656 17.6516 27.2646 17.637 27.2646 17.6226C27.2646 17.5958 27.2674 17.5531 27.2958 17.5166C27.6301 17.0761 27.6168 16.5863 27.6028 16.07L26.3509 23.758ZM26.3509 23.758C25.5095 24.5991 24.4216 25.0061 23.1109 25.0218L23.1108 25.0218C22.3222 25.0325 21.5359 24.9477 20.776 24.7699M26.3509 23.758L20.776 24.7699M20.776 24.7699C19.6126 24.4885 18.3792 24.4904 17.2171 24.7753L17.217 24.7753C16.3638 24.9855 15.4725 25.0637 14.5862 25.0061L20.776 24.7699ZM27.254 20.6739C27.2492 20.4816 27.2488 20.2889 27.2487 20.0916C27.4736 20.007 27.6089 19.8824 27.6876 19.7536C27.7713 19.6166 27.787 19.4814 27.787 19.3984C27.787 19.016 27.7744 18.6234 27.7556 18.247C27.7525 18.1559 27.7479 18.0649 27.7434 17.974L27.7431 17.968C27.7384 17.8751 27.7338 17.7822 27.7306 17.6882V17.6813C28.096 17.1536 28.0815 16.5756 28.0692 16.0872L28.0686 16.065C28.0686 16.0647 28.0686 16.0644 28.0686 16.0641L28.0686 16.0632L27.9936 16.065M27.254 20.6739L28.0623 15.9238L27.9874 15.9275C27.9874 15.9275 27.9936 16.0227 27.9936 16.065M27.9936 16.065L27.9941 16.0825C28.0065 16.5809 28.0206 17.1451 27.6556 17.6576L27.9936 16.065ZM25.977 15.0922C25.9604 15.1031 25.9441 15.1144 25.928 15.126L25.9721 15.1867L26.0212 15.13C26.0065 15.1174 25.9918 15.1047 25.977 15.0922ZM27.5204 15.6686C27.5695 15.754 27.5962 15.8465 27.5994 15.9401L14.5861 25.0061C13.5652 24.9385 12.7218 24.5437 11.98 23.9636L11.9793 23.9631C11.5347 23.6243 11.0834 23.2851 10.6257 22.9565L10.6257 22.9564L10.6225 22.9543C10.5485 22.9068 10.4906 22.8458 10.4524 22.7773C10.4143 22.7089 10.3967 22.6347 10.4002 22.5607L10.4004 22.5607L10.4003 22.5552C10.3881 22.0588 10.4735 21.6057 10.8227 21.2135C10.8298 21.207 10.8356 21.2005 10.8402 21.1951C10.8442 21.1903 10.8484 21.1849 10.8515 21.181C10.8523 21.18 10.853 21.179 10.8536 21.1783C10.8567 21.1743 10.8586 21.1721 10.8598 21.1708C11.0392 21.0644 11.1403 20.9302 11.1899 20.7773C11.2386 20.6275 11.2358 20.4655 11.2199 20.3069C11.2119 20.2082 11.2146 20.1104 11.2174 20.0103C11.2188 19.9588 11.2202 19.9066 11.2202 19.8534V19.7982L11.1675 19.7818C10.9261 19.7066 10.8108 19.6534 10.7498 19.5804C10.6919 19.5113 10.6726 19.411 10.6757 19.1984C10.6777 19.0651 10.6772 18.9341 10.6768 18.8045C10.6758 18.5175 10.6748 18.2371 10.7003 17.9521C10.7339 17.7185 10.6918 17.482 10.5795 17.2682L10.5795 17.2682L10.5784 17.2662C10.3231 16.8146 10.3743 16.3207 10.4373 15.8151C10.4693 15.5632 10.683 15.383 11.0129 15.3019C11.3321 15.2234 11.6084 15.3006 11.8482 15.4983C11.8785 15.5239 11.9044 15.5498 11.9333 15.5785C11.9502 15.5953 11.9681 15.6132 11.9885 15.6326L12.042 15.6835L12.0937 15.6308C12.9973 14.711 14.2427 14.3019 15.5719 14.0434L15.572 14.0434C18.1279 13.5428 20.6764 13.5798 23.1997 14.2224L23.2001 14.2225C23.9394 14.4063 24.6379 14.6733 25.2482 15.0797C25.4127 15.1903 25.5608 15.314 25.7138 15.4418C25.7846 15.5009 25.8565 15.561 25.9315 15.621L25.9812 15.6607L26.0285 15.6181L26.1224 15.5334L26.1225 15.5335L26.1249 15.5311C26.2676 15.3901 26.4724 15.3001 26.6963 15.2835C26.92 15.2668 27.1412 15.3252 27.3122 15.4439C27.4006 15.5063 27.4713 15.583 27.5204 15.6686Z" fill="#B9B9B9" stroke="#B9B9B9" stroke-width="0.15"/>
<path d="M18.7996 20.5216L18.8012 20.445H18.7246H17.1098H17.0348V20.52C17.0348 20.6177 17.0356 20.713 17.0363 20.8067C17.0376 20.9893 17.039 21.166 17.0349 21.3437C17.0281 21.6334 17.1606 22.0148 17.3821 22.3012C17.5465 22.5164 17.7224 22.6428 17.9167 22.642C18.1098 22.6412 18.29 22.5147 18.4632 22.3032C18.6981 22.0207 18.7782 21.7199 18.8017 21.4174C18.8134 21.267 18.8111 21.1154 18.8069 20.9662C18.8061 20.9393 18.8053 20.9125 18.8045 20.8858C18.8007 20.7631 18.797 20.6424 18.7996 20.5216Z" fill="#B9B9B9" stroke="#B9B9B9" stroke-width="0.15"/>
<path d="M15.4109 22.5099L15.4109 22.5099C15.5213 22.5976 15.6358 22.6517 15.7544 22.6525C15.8749 22.6534 15.9852 22.5991 16.0859 22.4995C16.2608 22.3301 16.4031 22.1377 16.5072 21.9294C16.6278 21.6914 16.6483 21.4498 16.6451 21.224C16.644 21.1454 16.6399 21.0668 16.636 20.9912C16.6343 20.9591 16.6327 20.9275 16.6313 20.8968C16.6266 20.7919 16.6249 20.6937 16.6338 20.6012L16.6374 20.5633L16.609 20.538C16.3522 20.3097 16.0735 20.2331 15.793 20.2104C15.6538 20.1992 15.5132 20.2011 15.3754 20.2044C15.3583 20.2048 15.3413 20.2052 15.3243 20.2056C15.2031 20.2086 15.0842 20.2115 14.966 20.207L14.8882 20.204V20.2819C14.8882 20.4237 14.8851 20.5651 14.882 20.7058C14.8753 21.0148 14.8686 21.3208 14.8947 21.6217L14.8946 21.6217L14.8949 21.6242C14.936 21.965 15.1207 22.279 15.4109 22.5099Z" fill="#B9B9B9" stroke="#B9B9B9" stroke-width="0.15"/>
<path d="M13.6352 18.4767L13.6353 18.4767L13.6346 18.4732C13.5772 18.1977 13.4579 17.9348 13.2841 17.6987C13.1781 17.5478 13.0505 17.4529 12.9059 17.4538C12.7615 17.4547 12.6326 17.5508 12.5236 17.7043C12.3142 17.9994 12.2191 18.1853 12.179 18.4506C12.1377 18.718 12.1455 18.9943 12.1533 19.2661C12.1563 19.3729 12.1593 19.4791 12.1593 19.5837V19.6587H12.2343H13.5737H13.6487V19.5837C13.6487 19.4692 13.6527 19.3578 13.6568 19.2459C13.6594 19.1744 13.662 19.1027 13.6635 19.0298C13.6675 18.8457 13.6644 18.6606 13.6352 18.4767Z" fill="#B9B9B9" stroke="#B9B9B9" stroke-width="0.15"/>
<path d="M16.5283 18.6722H16.5283L16.5282 18.6726C16.5022 18.9809 16.5089 19.2945 16.5156 19.6093C16.5186 19.7523 16.5217 19.8955 16.5217 20.0387V20.1137H16.5967H18.7121H18.7871V20.0387C18.7871 19.9031 18.7902 19.7659 18.7932 19.628C18.7999 19.3214 18.8067 19.0115 18.7806 18.7095C18.7406 18.2475 18.5172 17.9878 18.2183 17.7136C18.0607 17.5689 17.8736 17.4815 17.6746 17.4756C17.475 17.4697 17.2723 17.5461 17.0851 17.7128C16.7261 18.0326 16.5618 18.2975 16.5283 18.6722Z" fill="#B9B9B9" stroke="#B9B9B9" stroke-width="0.15"/>
<path d="M11.7398 19.7622L11.6274 19.6974V19.8271C11.6274 19.9411 11.627 20.0542 11.6266 20.1667C11.6254 20.502 11.6243 20.832 11.6336 21.1617C11.6343 21.2756 11.7258 21.3574 11.8124 21.3952C11.9007 21.4337 12.0227 21.4442 12.1123 21.3725C12.172 21.3246 12.2658 21.2481 12.3513 21.1607C12.4346 21.0755 12.52 20.9702 12.5505 20.8637C12.579 20.7644 12.5832 20.6257 12.5816 20.487C12.5809 20.4203 12.5789 20.355 12.5769 20.291C12.5745 20.214 12.5722 20.1389 12.5722 20.0652V19.9951L12.5023 19.9904C12.4542 19.9872 12.4042 19.9858 12.3575 19.9845C12.3284 19.9837 12.3007 19.9829 12.2754 19.9817C12.2052 19.9785 12.1431 19.9722 12.0857 19.956C12.03 19.9403 11.9807 19.9142 11.926 19.88C11.9081 19.8688 11.8887 19.8561 11.8681 19.8426C11.8289 19.8169 11.7854 19.7884 11.7398 19.7622Z" fill="#B9B9B9" stroke="#B9B9B9" stroke-width="0.15"/>
<path d="M13.2116 22.0056L13.2116 22.0056L13.213 22.0067C13.3425 22.1133 13.4966 22.1905 13.6558 22.1905C13.82 22.1905 13.9745 22.1085 14.0986 21.9278L14.0988 21.9275L14.2678 21.6788L14.2678 21.6788L14.2687 21.6776C14.4162 21.4508 14.4603 21.2165 14.4708 20.9887C14.476 20.8754 14.473 20.7624 14.47 20.6532L14.4699 20.6496C14.4669 20.5408 14.464 20.4359 14.4685 20.3331L14.4712 20.2714L14.4112 20.2569C14.3386 20.2394 14.2602 20.2268 14.1883 20.2153C14.1502 20.2092 14.1138 20.2033 14.0811 20.1972C13.9789 20.1781 13.9051 20.1553 13.8585 20.1179L13.8585 20.1179L13.8577 20.1173C13.7154 20.006 13.5707 19.9799 13.4328 19.977C13.379 19.9759 13.3244 19.9784 13.2725 19.9807C13.2597 19.9813 13.247 19.9819 13.2346 19.9824C13.1703 19.985 13.1094 19.9861 13.0492 19.98L12.9667 19.9717V20.0547C12.9667 20.2097 12.965 20.3636 12.9633 20.5167C12.9593 20.8719 12.9554 21.2224 12.973 21.5717L12.9728 21.5717L12.9735 21.5775C12.9947 21.741 13.0797 21.8914 13.2116 22.0056Z" fill="#B9B9B9" stroke="#B9B9B9" stroke-width="0.15"/>
</svg>
