<svg width="18" height="18" viewBox="0 0 18 18" fill="none" xmlns="http://www.w3.org/2000/svg">
<g clip-path="url(#clip0_261_3732)">
<path d="M17.7844 14.9348L17.3215 14.1605L16.6031 12.9472L14.5516 9.50687C14.3628 9.1876 14.0607 8.95109 13.7055 8.84435C13.6811 8.83304 13.6593 8.81672 13.6416 8.79645L13.4341 8.44523L13.2266 8.102C13.2186 8.09401 13.2186 8.09401 13.2186 8.08603L13.2345 8.07007C14.3361 6.84878 14.7432 5.4439 14.4478 3.87938C14.2402 2.79008 13.6597 1.80708 12.8061 1.09917C11.9526 0.391267 10.8792 0.00263026 9.77024 0C9.54853 5.30535e-05 9.32712 0.0160589 9.10771 0.0478936C7.60705 0.255432 6.42567 1.02971 5.6035 2.35477L5.58753 2.37073H5.57157C5.15908 2.20065 4.79456 1.93206 4.50993 1.58847C4.3795 1.43368 4.2292 1.2968 4.06292 1.18137C3.63652 0.877855 3.12556 0.715912 2.60217 0.718404C2.45521 0.717417 2.30841 0.728093 2.16314 0.750333C1.1494 0.901996 0.470903 1.46075 0.143631 2.40266C-0.0399613 2.96142 -0.00803223 3.53614 0.0318791 4.03104C0.124073 4.95154 0.270671 5.86578 0.470903 6.76896C0.790194 8.28559 1.11747 9.76231 1.42877 11.1592C1.64249 12.0552 1.72318 12.9777 1.66824 13.8971C1.61976 14.3433 1.74879 14.7906 2.02744 15.1424C2.14928 15.3105 2.30871 15.4479 2.49303 15.5435C2.67735 15.6391 2.88146 15.6904 3.08909 15.6931C3.44683 15.6872 3.78794 15.541 4.03897 15.286C4.19529 15.1244 4.33194 14.9449 4.44607 14.7512C4.72956 14.2718 4.93943 13.7524 5.06869 13.2106C5.17246 12.7956 5.25228 12.3725 5.3321 11.9654C5.36403 11.8217 5.38798 11.6781 5.41991 11.5344C5.52367 11.0235 5.67534 10.6244 5.91481 10.2812C5.92958 10.2551 5.95029 10.2328 5.97524 10.2162C6.0002 10.1995 6.02871 10.189 6.05849 10.1854C6.09271 10.1883 6.12531 10.2012 6.15227 10.2225C6.17922 10.2438 6.19935 10.2725 6.21015 10.3051C6.26603 10.4169 6.31392 10.5286 6.35383 10.6324C6.51348 11.0714 6.5454 11.5424 6.58532 12.0053V12.0931C6.63672 12.8321 6.77059 13.563 6.98443 14.2723C7.11214 14.6714 7.26381 15.0945 7.55117 15.4616C7.67595 15.6286 7.83711 15.765 8.02244 15.8604C8.20777 15.9559 8.41239 16.0078 8.62079 16.0124C8.83185 16.0083 9.03938 15.9576 9.22847 15.8637C9.41756 15.7698 9.5835 15.6353 9.71436 15.4696C9.95126 15.1781 10.0834 14.8155 10.0895 14.4399C10.1055 13.8333 10.1534 13.043 10.3849 12.2927C10.6164 11.5424 10.7999 10.9596 10.9995 10.2971L11.1751 9.73038C11.207 9.64257 11.231 9.55477 11.2629 9.46696L11.2949 9.52284C11.3906 9.6745 11.4864 9.83415 11.5742 9.99379C11.5743 10.0153 11.5716 10.0368 11.5662 10.0577C11.5169 10.2552 11.5071 10.4605 11.5372 10.6618C11.5674 10.8632 11.6369 11.0566 11.7419 11.231C12.3485 12.2368 12.9498 13.2452 13.5458 14.2563L14.2483 15.4297L14.4638 15.7969C14.6235 16.0763 14.7911 16.3636 14.9667 16.635C15.27 17.114 15.7011 17.3614 16.2518 17.3614H16.4274C16.8186 17.3295 17.1299 17.122 17.3933 16.9304C17.6971 16.7076 17.9059 16.3786 17.9784 16.0089C18.0509 15.6392 17.9816 15.2558 17.7844 14.9348ZM12.6279 8.66874L12.7317 8.85233L12.0691 9.24346L11.9654 9.06785L12.6279 8.66874ZM13.7294 4.82129C13.7215 7.01641 11.9175 8.79645 9.70638 8.79645H9.68243C8.63165 8.79434 7.62464 8.37544 6.88237 7.63167C6.1401 6.88791 5.72323 5.88005 5.72323 4.82927C5.73121 2.6102 7.52722 0.798226 9.73831 0.798226H9.75427C10.8136 0.808755 11.8258 1.23751 12.5704 1.99107C13.315 2.74463 13.7316 3.76192 13.7294 4.82129Z" fill="#B9B9B9"/>
<path d="M9.73832 1.10156C7.64696 1.10954 6.0106 2.76986 6.01858 4.86919C6.02657 6.96853 7.68688 8.50112 9.70639 8.50112H9.73034C10.2188 8.49903 10.7021 8.40074 11.1526 8.21187C11.6031 8.023 12.012 7.74725 12.3559 7.40036C12.6998 7.05346 12.9721 6.64223 13.1571 6.19012C13.3421 5.73802 13.4362 5.2539 13.4341 4.76542C13.4181 2.72994 11.7977 1.12551 9.73832 1.10156Z" fill="#B9B9B9"/>
</g>
<defs>
<clipPath id="clip0_261_3732">
<rect width="18" height="17.3614" fill="white"/>
</clipPath>
</defs>
</svg>
