<svg width="38" height="38" viewBox="0 0 38 38" fill="none" xmlns="http://www.w3.org/2000/svg">
<rect width="38" height="37.3614" rx="18.6807" transform="matrix(-1 0 0 1 38 0)" fill="#2D2D2D"/>
<g clip-path="url(#clip0_261_3727)">
<path d="M27.7844 24.9348L27.3215 24.1605L26.6031 22.9472L24.5516 19.5069C24.3628 19.1876 24.0607 18.9511 23.7055 18.8443C23.6811 18.833 23.6593 18.8167 23.6416 18.7965L23.4341 18.4452L23.2266 18.102C23.2186 18.094 23.2186 18.094 23.2186 18.086L23.2345 18.0701C24.3361 16.8488 24.7432 15.4439 24.4478 13.8794C24.2402 12.7901 23.6597 11.8071 22.8061 11.0992C21.9526 10.3913 20.8792 10.0026 19.7702 10C19.5485 10.0001 19.3271 10.0161 19.1077 10.0479C17.607 10.2554 16.4257 11.0297 15.6035 12.3548L15.5875 12.3707H15.5716C15.1591 12.2007 14.7946 11.9321 14.5099 11.5885C14.3795 11.4337 14.2292 11.2968 14.0629 11.1814C13.6365 10.8779 13.1256 10.7159 12.6022 10.7184C12.4552 10.7174 12.3084 10.7281 12.1631 10.7503C11.1494 10.902 10.4709 11.4608 10.1436 12.4027C9.96004 12.9614 9.99197 13.5361 10.0319 14.031C10.1241 14.9515 10.2707 15.8658 10.4709 16.769C10.7902 18.2856 11.1175 19.7623 11.4288 21.1592C11.6425 22.0552 11.7232 22.9777 11.6682 23.8971C11.6198 24.3433 11.7488 24.7906 12.0274 25.1424C12.1493 25.3105 12.3087 25.4479 12.493 25.5435C12.6773 25.6391 12.8815 25.6904 13.0891 25.6931C13.4468 25.6872 13.7879 25.541 14.039 25.286C14.1953 25.1244 14.3319 24.9449 14.4461 24.7512C14.7296 24.2718 14.9394 23.7524 15.0687 23.2106C15.1725 22.7956 15.2523 22.3725 15.3321 21.9654C15.364 21.8217 15.388 21.6781 15.4199 21.5344C15.5237 21.0235 15.6753 20.6244 15.9148 20.2812C15.9296 20.2551 15.9503 20.2328 15.9752 20.2162C16.0002 20.1995 16.0287 20.189 16.0585 20.1854C16.0927 20.1883 16.1253 20.2012 16.1523 20.2225C16.1792 20.2438 16.1993 20.2725 16.2101 20.3051C16.266 20.4169 16.3139 20.5286 16.3538 20.6324C16.5135 21.0714 16.5454 21.5424 16.5853 22.0053V22.0931C16.6367 22.8321 16.7706 23.563 16.9844 24.2723C17.1121 24.6714 17.2638 25.0945 17.5512 25.4616C17.6759 25.6286 17.8371 25.765 18.0224 25.8604C18.2078 25.9559 18.4124 26.0078 18.6208 26.0124C18.8319 26.0083 19.0394 25.9576 19.2285 25.8637C19.4176 25.7698 19.5835 25.6353 19.7144 25.4696C19.9513 25.1781 20.0834 24.8155 20.0895 24.4399C20.1055 23.8333 20.1534 23.043 20.3849 22.2927C20.6164 21.5424 20.7999 20.9596 20.9995 20.2971L21.1751 19.7304C21.207 19.6426 21.231 19.5548 21.2629 19.467L21.2949 19.5228C21.3906 19.6745 21.4864 19.8341 21.5742 19.9938C21.5743 20.0153 21.5716 20.0368 21.5662 20.0577C21.5169 20.2552 21.5071 20.4605 21.5372 20.6618C21.5674 20.8632 21.6369 21.0566 21.7419 21.231C22.3485 22.2368 22.9498 23.2452 23.5458 24.2563L24.2483 25.4297L24.4638 25.7969C24.6235 26.0763 24.7911 26.3636 24.9667 26.635C25.27 27.114 25.7011 27.3614 26.2518 27.3614H26.4274C26.8186 27.3295 27.1299 27.122 27.3933 26.9304C27.6971 26.7076 27.9059 26.3786 27.9784 26.0089C28.0509 25.6392 27.9816 25.2558 27.7844 24.9348ZM22.6279 18.6687L22.7317 18.8523L22.0691 19.2435L21.9654 19.0679L22.6279 18.6687ZM23.7294 14.8213C23.7215 17.0164 21.9175 18.7965 19.7064 18.7965H19.6824C18.6317 18.7943 17.6246 18.3754 16.8824 17.6317C16.1401 16.8879 15.7232 15.88 15.7232 14.8293C15.7312 12.6102 17.5272 10.7982 19.7383 10.7982H19.7543C20.8136 10.8088 21.8258 11.2375 22.5704 11.9911C23.315 12.7446 23.7316 13.7619 23.7294 14.8213Z" fill="#B9B9B9"/>
<path d="M19.7383 11.1016C17.647 11.1095 16.0106 12.7699 16.0186 14.8692C16.0266 16.9685 17.6869 18.5011 19.7064 18.5011H19.7303C20.2188 18.499 20.7021 18.4007 21.1526 18.2119C21.6031 18.023 22.012 17.7472 22.3559 17.4004C22.6998 17.0535 22.9721 16.6422 23.1571 16.1901C23.3421 15.738 23.4362 15.2539 23.4341 14.7654C23.4181 12.7299 21.7977 11.1255 19.7383 11.1016Z" fill="#B9B9B9"/>
</g>
<defs>
<clipPath id="clip0_261_3727">
<rect width="18" height="17.3614" fill="white" transform="translate(10 10)"/>
</clipPath>
</defs>
</svg>
