<svg width="54" height="54" viewBox="0 0 54 54" fill="none" xmlns="http://www.w3.org/2000/svg">
<g filter="url(#filter0_b_374_13717)">
<circle cx="27" cy="27" r="27" fill="white" fill-opacity="0.24"/>
</g>
<path d="M25.8917 30.4409L23.7334 32.5992C23.2784 33.0542 22.5551 33.0542 22.0884 32.6109C21.9601 32.4825 21.8317 32.3659 21.7034 32.2375C20.5017 31.0242 19.4167 29.7525 18.4484 28.4225C17.4917 27.0925 16.7217 25.7625 16.1617 24.4442C15.6134 23.1142 15.3334 21.8425 15.3334 20.6292C15.3334 19.8359 15.4734 19.0775 15.7534 18.3775C16.0334 17.6659 16.4767 17.0125 17.0951 16.4292C17.8417 15.6942 18.6584 15.3325 19.5217 15.3325C19.8484 15.3325 20.1751 15.4025 20.4667 15.5425C20.7701 15.6825 21.0384 15.8925 21.2484 16.1959L23.9551 20.0109C24.1651 20.3025 24.3167 20.5709 24.4217 20.8275C24.5267 21.0725 24.5851 21.3175 24.5851 21.5392C24.5851 21.8192 24.5034 22.0992 24.3401 22.3675C24.1884 22.6359 23.9667 22.9159 23.6867 23.1959L22.8001 24.1175C22.6717 24.2459 22.6134 24.3975 22.6134 24.5842C22.6134 24.6775 22.6251 24.7592 22.6484 24.8525C22.6834 24.9459 22.7184 25.0159 22.7417 25.0859C22.9517 25.4709 23.3134 25.9725 23.8267 26.5792C24.3517 27.1859 24.9117 27.8042 25.5184 28.4225C25.6351 28.5392 25.7634 28.6559 25.8801 28.7725C26.3467 29.2275 26.3584 29.9742 25.8917 30.4409Z" fill="white"/>
<path d="M38.6317 34.3846C38.6317 34.7113 38.5734 35.0496 38.4567 35.3763C38.4217 35.4696 38.3867 35.563 38.34 35.6563C38.1417 36.0763 37.885 36.473 37.5467 36.8463C36.975 37.4763 36.345 37.9313 35.6334 38.223C35.6217 38.223 35.61 38.2346 35.5984 38.2346C34.91 38.5146 34.1634 38.6663 33.3584 38.6663C32.1684 38.6663 30.8967 38.3863 29.555 37.8146C28.2134 37.243 26.8717 36.473 25.5417 35.5046C25.0867 35.1663 24.6317 34.828 24.2 34.4663L28.015 30.6513C28.3417 30.8963 28.6334 31.083 28.8784 31.2113C28.9367 31.2346 29.0067 31.2696 29.0884 31.3046C29.1817 31.3396 29.275 31.3513 29.38 31.3513C29.5784 31.3513 29.73 31.2813 29.8584 31.153L30.745 30.278C31.0367 29.9863 31.3167 29.7646 31.585 29.6246C31.8534 29.4613 32.1217 29.3796 32.4134 29.3796C32.635 29.3796 32.8684 29.4263 33.125 29.5313C33.3817 29.6363 33.65 29.788 33.9417 29.9863L37.8034 32.728C38.1067 32.938 38.3167 33.183 38.445 33.4746C38.5617 33.7663 38.6317 34.058 38.6317 34.3846Z" fill="white"/>
<defs>
<filter id="filter0_b_374_13717" x="-25.7143" y="-25.7143" width="105.429" height="105.429" filterUnits="userSpaceOnUse" color-interpolation-filters="sRGB">
<feFlood flood-opacity="0" result="BackgroundImageFix"/>
<feGaussianBlur in="BackgroundImageFix" stdDeviation="12.8571"/>
<feComposite in2="SourceAlpha" operator="in" result="effect1_backgroundBlur_374_13717"/>
<feBlend mode="normal" in="SourceGraphic" in2="effect1_backgroundBlur_374_13717" result="shape"/>
</filter>
</defs>
</svg>
