<svg width="54" height="54" viewBox="0 0 54 54" fill="none" xmlns="http://www.w3.org/2000/svg">
<g filter="url(#filter0_b_408_19451)">
<circle cx="27" cy="27" r="27" fill="white" fill-opacity="0.24"/>
</g>
<path fill-rule="evenodd" clip-rule="evenodd" d="M28.2678 37.9522L28.9002 36.8837C29.3908 36.0549 29.6361 35.6405 30.03 35.4114C30.424 35.1823 30.9201 35.1737 31.9121 35.1566C33.3767 35.1314 34.2953 35.0416 35.0657 34.7225C36.495 34.1305 37.6306 32.9949 38.2226 31.5656C38.6667 30.4936 38.6667 29.1346 38.6667 26.4166V25.2499C38.6667 21.4309 38.6667 19.5214 37.8071 18.1187C37.3261 17.3338 36.6662 16.6738 35.8813 16.1929C34.4785 15.3333 32.569 15.3333 28.75 15.3333H25.25C21.431 15.3333 19.5215 15.3333 18.1188 16.1929C17.3339 16.6738 16.6739 17.3338 16.1929 18.1187C15.3333 19.5214 15.3333 21.4309 15.3333 25.2499V26.4166C15.3333 29.1346 15.3333 30.4936 15.7774 31.5656C16.3694 32.9949 17.505 34.1305 18.9344 34.7225C19.7047 35.0416 20.6233 35.1314 22.0879 35.1566C23.0799 35.1737 23.576 35.1823 23.9699 35.4114C24.3639 35.6405 24.6092 36.0549 25.0998 36.8837L25.7322 37.9522C26.2959 38.9046 27.7041 38.9046 28.2678 37.9522ZM31.6667 26.9999C32.311 26.9999 32.8333 26.4776 32.8333 25.8333C32.8333 25.1889 32.311 24.6666 31.6667 24.6666C31.0223 24.6666 30.5 25.1889 30.5 25.8333C30.5 26.4776 31.0223 26.9999 31.6667 26.9999ZM28.1667 25.8333C28.1667 26.4776 27.6443 26.9999 27 26.9999C26.3557 26.9999 25.8333 26.4776 25.8333 25.8333C25.8333 25.1889 26.3557 24.6666 27 24.6666C27.6443 24.6666 28.1667 25.1889 28.1667 25.8333ZM22.3333 26.9999C22.9777 26.9999 23.5 26.4776 23.5 25.8333C23.5 25.1889 22.9777 24.6666 22.3333 24.6666C21.689 24.6666 21.1667 25.1889 21.1667 25.8333C21.1667 26.4776 21.689 26.9999 22.3333 26.9999Z" fill="white"/>
<defs>
<filter id="filter0_b_408_19451" x="-25.7143" y="-25.7143" width="105.429" height="105.429" filterUnits="userSpaceOnUse" color-interpolation-filters="sRGB">
<feFlood flood-opacity="0" result="BackgroundImageFix"/>
<feGaussianBlur in="BackgroundImageFix" stdDeviation="12.8571"/>
<feComposite in2="SourceAlpha" operator="in" result="effect1_backgroundBlur_408_19451"/>
<feBlend mode="normal" in="SourceGraphic" in2="effect1_backgroundBlur_408_19451" result="shape"/>
</filter>
</defs>
</svg>
