<svg width="54" height="54" viewBox="0 0 54 54" fill="none" xmlns="http://www.w3.org/2000/svg">
<g filter="url(#filter0_b_374_13720)">
<circle cx="27" cy="27" r="27" fill="white" fill-opacity="0.24"/>
</g>
<path d="M39.4747 26.2618C39.0497 19.0118 32.4622 13.4243 24.8747 14.6743C19.6497 15.5368 15.4622 19.7743 14.6497 24.9993C14.1747 28.0243 14.7997 30.8868 16.1622 33.2493L15.0497 37.3868C14.7997 38.3243 15.6622 39.1743 16.5872 38.9118L20.6622 37.7868C22.5122 38.8743 24.6747 39.4993 26.9872 39.4993C34.0372 39.4993 39.8872 33.2868 39.4747 26.2618ZM33.0997 31.6493C32.9872 31.8743 32.8497 32.0868 32.6747 32.2868C32.3622 32.6243 32.0247 32.8743 31.6497 33.0243C31.2747 33.1868 30.8622 33.2618 30.4247 33.2618C29.7872 33.2618 29.0997 33.1119 28.3872 32.7994C27.6622 32.4869 26.9497 32.0743 26.2372 31.5618C25.5122 31.0368 24.8372 30.4493 24.1872 29.8118C23.5372 29.1618 22.9622 28.4743 22.4372 27.7618C21.9247 27.0493 21.5122 26.3368 21.2122 25.6243C20.9122 24.9118 20.7622 24.2243 20.7622 23.5743C20.7622 23.1493 20.8372 22.7368 20.9872 22.3618C21.1372 21.9743 21.3747 21.6243 21.7122 21.3118C22.1122 20.9118 22.5497 20.7243 23.0122 20.7243C23.1872 20.7243 23.3622 20.7618 23.5247 20.8368C23.6872 20.9118 23.8372 21.0243 23.9497 21.1868L25.3997 23.2368C25.5122 23.3993 25.5997 23.5368 25.6497 23.6743C25.7122 23.8118 25.7372 23.9368 25.7372 24.0618C25.7372 24.2118 25.6872 24.3618 25.5997 24.5118C25.5122 24.6618 25.3997 24.8118 25.2497 24.9618L24.7747 25.4618C24.6997 25.5368 24.6747 25.6118 24.6747 25.7118C24.6747 25.7618 24.6872 25.8118 24.6997 25.8618C24.7247 25.9118 24.7372 25.9493 24.7497 25.9868C24.8622 26.1993 25.0622 26.4618 25.3372 26.7868C25.6247 27.1118 25.9247 27.4493 26.2497 27.7743C26.5872 28.1118 26.9122 28.4118 27.2497 28.6993C27.5747 28.9743 27.8497 29.1618 28.0622 29.2743C28.0997 29.2868 28.1372 29.3118 28.1747 29.3243C28.2247 29.3493 28.2747 29.3493 28.3372 29.3493C28.4497 29.3493 28.5247 29.3118 28.5997 29.2368L29.0747 28.7618C29.2372 28.5993 29.3872 28.4868 29.5247 28.4118C29.6747 28.3243 29.8122 28.2743 29.9747 28.2743C30.0997 28.2743 30.2247 28.2993 30.3622 28.3618C30.4997 28.4243 30.6497 28.4993 30.7997 28.6118L32.8747 30.0868C33.0372 30.1993 33.1497 30.3368 33.2247 30.4868C33.2872 30.6493 33.3247 30.7993 33.3247 30.9743C33.2497 31.1868 33.1997 31.4243 33.0997 31.6493Z" fill="white"/>
<defs>
<filter id="filter0_b_374_13720" x="-25.7143" y="-25.7143" width="105.429" height="105.429" filterUnits="userSpaceOnUse" color-interpolation-filters="sRGB">
<feFlood flood-opacity="0" result="BackgroundImageFix"/>
<feGaussianBlur in="BackgroundImageFix" stdDeviation="12.8571"/>
<feComposite in2="SourceAlpha" operator="in" result="effect1_backgroundBlur_374_13720"/>
<feBlend mode="normal" in="SourceGraphic" in2="effect1_backgroundBlur_374_13720" result="shape"/>
</filter>
</defs>
</svg>
