<svg width="80" height="80" viewBox="0 0 80 80" fill="none" xmlns="http://www.w3.org/2000/svg">
<path d="M40 80C62.0914 80 80 62.0914 80 40C80 17.9086 62.0914 0 40 0C17.9086 0 0 17.9086 0 40C0 62.0914 17.9086 80 40 80Z" fill="#161616"/>
<path d="M21 28.9247C21.0182 25.3877 22.0575 22.7805 24.4459 20.7749C26.8343 18.7694 30.3895 18.4048 33.2155 20.3921C33.9266 20.9026 34.6194 21.4495 35.3122 21.9783C36.005 22.507 37.1719 23.0357 38.3023 22.9628C38.9721 22.9414 39.6226 22.733 40.1802 22.3611C40.9095 21.8689 41.6205 21.3401 42.3134 20.8114C43.3891 19.991 44.5559 19.3346 45.9051 19.0976C47.9106 18.7694 49.6974 19.2799 51.2836 20.465C53.3073 21.96 54.4924 23.9838 54.9664 26.4269C55.0029 26.6457 54.9847 26.828 54.7659 26.9374C54.2554 27.2473 53.7267 27.5391 53.2344 27.8672C53.0885 27.9584 52.888 28.1407 52.9062 28.2501C52.9245 28.3595 53.0885 28.5965 53.2344 28.6877C53.7449 29.0159 54.2736 29.3258 54.8024 29.6357C54.8937 29.6856 54.9653 29.7653 55.0051 29.8615C55.0449 29.9577 55.0505 30.0646 55.0211 30.1645C54.6094 32.7624 54.0123 35.3275 53.2344 37.8402C52.3593 40.8303 51.393 43.8203 50.4813 46.8104C49.5716 49.8121 49.0028 52.9068 48.7858 56.0359C48.7324 56.9022 48.6043 57.7623 48.4029 58.6066C48.0929 59.974 47.2543 60.3933 45.9233 59.9193C45.3501 59.7289 44.873 59.3237 44.5924 58.7889C44.2479 58.1584 43.9434 57.5068 43.6808 56.8381C42.9879 55.1425 42.3498 53.4469 41.6935 51.7696C41.3905 50.9476 40.9042 50.2056 40.2714 49.5999C39.6799 49.0291 38.8909 48.7086 38.0689 48.7052C37.2469 48.7018 36.4554 49.0158 35.8592 49.5817C35.2079 50.2078 34.7089 50.975 34.4006 51.8242C33.6896 53.6292 33.015 55.4524 32.2857 57.2392C32.043 57.8491 31.7439 58.4351 31.3923 58.9895C30.8271 59.8464 29.9702 60.1563 28.9492 60.0469C28.7085 60.0385 28.4771 59.9522 28.2897 59.8009C28.1023 59.6497 27.969 59.4417 27.91 59.2083C27.6875 58.4758 27.5289 57.7255 27.4359 56.9657C27.1807 54.7049 27.0166 52.4077 26.5061 50.1834C25.868 47.4121 24.9928 44.7319 24.1359 42.0336C23.0238 38.5148 21.9845 34.9595 21.3099 31.3313C21.1276 30.3833 21.0547 29.417 21 28.9247ZM30.1708 39.3717C30.6448 39.3535 30.6813 39.08 30.736 38.8247C31.1371 36.8739 32.1581 35.3971 33.9995 34.5402C34.1636 34.4673 34.3641 34.2667 34.3641 34.1208C34.3641 33.975 34.1636 33.7744 33.9995 33.7015C32.8509 33.1728 31.9393 32.3888 31.3923 31.2584C31.1073 30.6098 30.8756 29.9391 30.6995 29.2529C30.6266 29.0341 30.5172 28.8518 30.2984 28.8882C30.0796 28.9247 30.0249 29.107 29.9155 29.2529C29.8061 29.3987 29.879 29.417 29.8608 29.5081C29.4232 31.4043 28.4022 32.8628 26.6155 33.7015C26.5263 33.7414 26.4463 33.7992 26.3804 33.8713C26.3145 33.9434 26.2642 34.0284 26.2326 34.1208C26.1597 34.3579 26.3967 34.4673 26.5973 34.5584C27.7981 35.0647 28.7669 36.0009 29.3139 37.1838C29.5691 37.749 29.6967 38.3872 29.9155 38.9706C29.9879 39.1119 30.0734 39.2462 30.1708 39.3717ZM22.5497 28.5418C22.6409 29.2164 22.7138 29.891 22.8232 30.5474C22.8564 30.6222 22.9041 30.6898 22.9636 30.7461C23.023 30.8024 23.0931 30.8464 23.1696 30.8755C23.279 30.912 23.4613 30.8026 23.5525 30.6932C23.5955 30.57 23.6018 30.437 23.5707 30.3103C23.2939 29.0706 23.3189 27.7826 23.6437 26.5545C23.8302 25.9214 24.0555 25.3003 24.3182 24.6948C24.4276 24.4396 24.4276 24.239 24.1906 24.1114C23.9536 23.9838 23.7531 24.0749 23.6254 24.312L23.4613 24.6401C22.9041 25.8682 22.5944 27.194 22.5497 28.5418ZM51.7576 24.4761C51.7029 24.312 51.6482 24.2026 51.6117 24.0932C50.7913 22.4523 49.4421 21.5407 47.7283 21.0484C47.473 20.9755 47.236 20.9937 47.1266 21.3037C47.0172 21.6136 47.1996 21.723 47.546 21.8324C49.0592 22.27 50.2626 23.0722 50.9371 24.549C50.9736 24.6219 51.0101 24.7131 51.0648 24.7313C51.1248 24.7663 51.1911 24.7892 51.2599 24.7986C51.3287 24.8079 51.3987 24.8037 51.4659 24.786C51.5935 24.7495 51.6664 24.5854 51.7576 24.4761Z" fill="white"/>
<path d="M57.7192 24.0566C58.4121 25.8981 59.5242 27.302 61.2198 28.2683C59.5425 29.2346 58.4121 30.6384 57.7192 32.4799C57.0264 30.6567 55.9143 29.2346 54.2004 28.2865C55.896 27.3202 57.0082 25.9163 57.7192 24.0566Z" fill="white"/>
<path d="M27.5273 34.1211C28.7962 33.3643 29.7726 32.2016 30.2986 30.821C30.8247 32.2016 31.8011 33.3643 33.0699 34.1211C31.802 34.8789 30.8259 36.0413 30.2986 37.4211C29.7152 36.0172 28.8583 34.905 27.5273 34.1211Z" fill="white"/>
</svg>
