<svg width="20" height="20" viewBox="0 0 20 20" fill="none" xmlns="http://www.w3.org/2000/svg">
<path d="M11.0497 1.56685C11.1049 1.22611 11.427 0.994965 11.7677 1.05013C11.7888 1.05417 11.8567 1.06685 11.8923 1.07477C11.9634 1.09061 12.0625 1.11499 12.1862 1.15101C12.4335 1.22304 12.779 1.34171 13.1937 1.53183C14.024 1.91246 15.1288 2.57829 16.2753 3.72479C17.4218 4.87129 18.0876 5.97614 18.4683 6.80637C18.6584 7.22105 18.777 7.56655 18.8491 7.81387C18.8851 7.93754 18.9095 8.03673 18.9253 8.10784C18.9332 8.14339 18.939 8.17194 18.9431 8.19304L18.9479 8.21903C19.003 8.55977 18.774 8.8952 18.4332 8.95037C18.0935 9.00538 17.7734 8.77535 17.7169 8.4362C17.7151 8.4271 17.7103 8.40263 17.7052 8.37956C17.6949 8.33341 17.6771 8.26022 17.649 8.16343C17.5926 7.96982 17.4946 7.68204 17.332 7.32731C17.0071 6.61872 16.423 5.64023 15.3914 4.60868C14.3599 3.57713 13.3814 2.99296 12.6728 2.6681C12.3181 2.50547 12.0303 2.40753 11.8367 2.35114C11.7399 2.32294 11.6182 2.29502 11.572 2.28474C11.2329 2.22822 10.9947 1.90662 11.0497 1.56685Z" fill="white"/>
<path fill-rule="evenodd" clip-rule="evenodd" d="M11.2383 4.44141C11.3331 4.10951 11.679 3.91733 12.0109 4.01215L11.8392 4.61311C12.0109 4.01215 12.0109 4.01215 12.0109 4.01215L12.0121 4.0125L12.0134 4.01287L12.0162 4.01368L12.0226 4.01561L12.0391 4.02074C12.0517 4.02476 12.0674 4.02999 12.0861 4.03663C12.1235 4.04991 12.173 4.0688 12.2336 4.0948C12.3551 4.14683 12.5209 4.22718 12.7247 4.34778C13.1326 4.58918 13.6894 4.99016 14.3435 5.6443C14.9977 6.29845 15.3987 6.85527 15.6401 7.26316C15.7607 7.46692 15.841 7.6328 15.893 7.75421C15.9191 7.81488 15.9379 7.86434 15.9512 7.90177C15.9579 7.92048 15.9631 7.93617 15.9671 7.94874L15.9722 7.96522L15.9742 7.97168L15.975 7.97446L15.9754 7.97574C15.9754 7.97574 15.9757 7.97694 15.3747 8.14864L15.9757 7.97694C16.0705 8.30884 15.8783 8.65476 15.5464 8.74959C15.2174 8.84362 14.8745 8.65548 14.7763 8.32877L14.7732 8.31978C14.7687 8.30726 14.7595 8.28261 14.7441 8.2466C14.7133 8.17466 14.6574 8.05697 14.5644 7.89981C14.3785 7.58586 14.043 7.11148 13.4597 6.52819C12.8764 5.94489 12.402 5.60931 12.088 5.4235C11.9309 5.33048 11.8132 5.27457 11.7412 5.24374C11.7052 5.22831 11.6806 5.21911 11.6681 5.21467L11.6591 5.21159C11.3324 5.11336 11.1442 4.77048 11.2383 4.44141Z" fill="white"/>
<path fill-rule="evenodd" clip-rule="evenodd" d="M4.17292 3.67249C5.57297 2.27243 7.93559 2.37886 8.91044 4.12563L9.45128 5.09474C10.0879 6.23542 9.8166 7.67466 8.88468 8.61796C8.87227 8.63497 8.80649 8.73075 8.7983 8.89809C8.78784 9.11169 8.8637 9.60567 9.62906 10.371C10.3942 11.1361 10.8881 11.2122 11.1018 11.2018C11.2692 11.1936 11.3651 11.1278 11.3821 11.1154C12.3254 10.1835 13.7647 9.91221 14.9053 10.5488L15.8745 11.0896C17.6212 12.0645 17.7277 14.4271 16.3276 15.8272C15.5787 16.5761 14.583 17.2415 13.4128 17.2858C11.6787 17.3516 8.79932 16.9037 5.94783 14.0523C3.09634 11.2008 2.64852 8.32141 2.71426 6.5873C2.75862 5.41713 3.42403 4.42137 4.17292 3.67249ZM7.81892 4.73479C7.31974 3.84034 5.97832 3.63485 5.0568 4.55637C4.41068 5.20249 3.99062 5.91567 3.96336 6.63465C3.90854 8.08077 4.26557 10.6022 6.83171 13.1684C9.39785 15.7345 11.9193 16.0915 13.3654 16.0367C14.0844 16.0095 14.7976 15.5894 15.4437 14.9433C16.3652 14.0218 16.1597 12.6804 15.2653 12.1812L14.2962 11.6403C13.6934 11.3039 12.8466 11.4187 12.2521 12.0131C12.1938 12.0714 11.8221 12.4182 11.1625 12.4503C10.4873 12.4832 9.67004 12.1798 8.74517 11.2549C7.82 10.3297 7.51673 9.51224 7.54979 8.83696C7.58209 8.17737 7.92894 7.80603 7.98698 7.74799C8.58141 7.15355 8.6962 6.30674 8.35976 5.7039L7.81892 4.73479Z" fill="white"/>
</svg>
