<svg width="659" height="61" viewBox="0 0 659 61" fill="none" xmlns="http://www.w3.org/2000/svg">
<mask id="path-1-outside-1_253_1763" maskUnits="userSpaceOnUse" x="-1" y="-1" width="661" height="63" fill="black">
<rect fill="white" x="-1" y="-1" width="661" height="63"/>
<path d="M34.3124 1.78L12.5004 60H0.610376L22.4224 1.78H34.3124ZM107.287 1.78V14.9H94.1672V60H80.2272V14.9H67.1072V1.78H107.287ZM149.991 14.9H129.491V24.248H145.891V37.368H129.491V46.88H149.991V60H115.551V1.78H149.991V14.9ZM156.587 40.566H170.527C170.527 45.404 173.561 47.7 177.497 47.7C181.187 47.7 182.827 45.896 182.827 44.092C182.827 41.304 179.711 40.074 173.643 36.384C160.031 28.102 157.817 23.346 157.817 16.622C157.817 7.274 165.689 0.959998 175.857 0.959998C187.665 0.959998 195.127 9.816 195.127 21.05H181.187C181.187 16.294 179.055 14.08 175.857 14.08C173.643 14.08 171.757 15.228 171.757 17.278C171.757 19.656 173.397 20.886 178.809 24.002C190.863 30.972 196.767 36.056 196.767 44.666C196.767 55.244 187.665 60.82 177.497 60.82C163.229 60.82 156.587 50.078 156.587 40.566ZM242.69 1.78V14.9H229.57V60H215.63V14.9H202.51V1.78H242.69ZM251.774 60V1.78H265.714V60H251.774ZM326.722 1.78H340.662V60H326.722V26.462L311.47 50.488H306.386L291.134 26.462V60H277.194V1.78H291.134L308.928 29.086L326.722 1.78ZM381.254 60.82C364.608 60.82 351.324 47.536 351.324 30.89C351.324 14.244 364.608 0.959998 381.254 0.959998C397.9 0.959998 411.184 14.244 411.184 30.89C411.184 47.536 397.9 60.82 381.254 60.82ZM381.254 47.7C390.848 47.7 397.244 40.074 397.244 30.89C397.244 21.706 390.848 14.08 381.254 14.08C371.66 14.08 365.264 21.706 365.264 30.89C365.264 40.074 371.66 47.7 381.254 47.7ZM460.964 1.78H474.904V60H460.964L435.79 24.986V60H421.85V1.78H435.79L460.964 36.794V1.78ZM484.788 60V1.78H498.728V60H484.788ZM550.347 60L546.411 49.094H525.255L521.319 60H506.887L527.879 1.78H543.787L564.779 60H550.347ZM530.011 35.974H541.655L535.833 19.738L530.011 35.974ZM586.907 46.88H610.687V60H572.967V1.78H586.907V46.88ZM618.048 40.566H631.988C631.988 45.404 635.022 47.7 638.958 47.7C642.648 47.7 644.288 45.896 644.288 44.092C644.288 41.304 641.172 40.074 635.104 36.384C621.492 28.102 619.278 23.346 619.278 16.622C619.278 7.274 627.15 0.959998 637.318 0.959998C649.126 0.959998 656.588 9.816 656.588 21.05H642.648C642.648 16.294 640.516 14.08 637.318 14.08C635.104 14.08 633.218 15.228 633.218 17.278C633.218 19.656 634.858 20.886 640.27 24.002C652.324 30.972 658.228 36.056 658.228 44.666C658.228 55.244 649.126 60.82 638.958 60.82C624.69 60.82 618.048 50.078 618.048 40.566Z"/>
</mask>
<path d="M34.3124 1.78L35.2488 2.13083L35.7549 0.779997H34.3124V1.78ZM12.5004 60V61H13.1936L13.4368 60.3508L12.5004 60ZM0.610376 60L-0.326061 59.6492L-0.832149 61H0.610376V60ZM22.4224 1.78V0.779997H21.7291L21.4859 1.42916L22.4224 1.78ZM33.3759 1.42916L11.5639 59.6492L13.4368 60.3508L35.2488 2.13083L33.3759 1.42916ZM12.5004 59H0.610376V61H12.5004V59ZM1.54681 60.3508L23.3588 2.13083L21.4859 1.42916L-0.326061 59.6492L1.54681 60.3508ZM22.4224 2.78H34.3124V0.779997H22.4224V2.78ZM107.287 1.78H108.287V0.779997H107.287V1.78ZM107.287 14.9V15.9H108.287V14.9H107.287ZM94.1673 14.9V13.9H93.1673V14.9H94.1673ZM94.1673 60V61H95.1673V60H94.1673ZM80.2272 60H79.2272V61H80.2272V60ZM80.2272 14.9H81.2272V13.9H80.2272V14.9ZM67.1072 14.9H66.1072V15.9H67.1072V14.9ZM67.1072 1.78V0.779997H66.1072V1.78H67.1072ZM106.287 1.78V14.9H108.287V1.78H106.287ZM107.287 13.9H94.1673V15.9H107.287V13.9ZM93.1673 14.9V60H95.1673V14.9H93.1673ZM94.1673 59H80.2272V61H94.1673V59ZM81.2272 60V14.9H79.2272V60H81.2272ZM80.2272 13.9H67.1072V15.9H80.2272V13.9ZM68.1072 14.9V1.78H66.1072V14.9H68.1072ZM67.1072 2.78H107.287V0.779997H67.1072V2.78ZM149.991 14.9V15.9H150.991V14.9H149.991ZM129.491 14.9V13.9H128.491V14.9H129.491ZM129.491 24.248H128.491V25.248H129.491V24.248ZM145.891 24.248H146.891V23.248H145.891V24.248ZM145.891 37.368V38.368H146.891V37.368H145.891ZM129.491 37.368V36.368H128.491V37.368H129.491ZM129.491 46.88H128.491V47.88H129.491V46.88ZM149.991 46.88H150.991V45.88H149.991V46.88ZM149.991 60V61H150.991V60H149.991ZM115.551 60H114.551V61H115.551V60ZM115.551 1.78V0.779997H114.551V1.78H115.551ZM149.991 1.78H150.991V0.779997H149.991V1.78ZM149.991 13.9H129.491V15.9H149.991V13.9ZM128.491 14.9V24.248H130.491V14.9H128.491ZM129.491 25.248H145.891V23.248H129.491V25.248ZM144.891 24.248V37.368H146.891V24.248H144.891ZM145.891 36.368H129.491V38.368H145.891V36.368ZM128.491 37.368V46.88H130.491V37.368H128.491ZM129.491 47.88H149.991V45.88H129.491V47.88ZM148.991 46.88V60H150.991V46.88H148.991ZM149.991 59H115.551V61H149.991V59ZM116.551 60V1.78H114.551V60H116.551ZM115.551 2.78H149.991V0.779997H115.551V2.78ZM148.991 1.78V14.9H150.991V1.78H148.991ZM156.587 40.566V39.566H155.587V40.566H156.587ZM170.527 40.566H171.527V39.566H170.527V40.566ZM173.643 36.384L173.123 37.2383L173.123 37.2384L173.643 36.384ZM195.127 21.05V22.05H196.127V21.05H195.127ZM181.187 21.05H180.187V22.05H181.187V21.05ZM178.809 24.002L179.309 23.1363L179.308 23.1354L178.809 24.002ZM156.587 41.566H170.527V39.566H156.587V41.566ZM169.527 40.566C169.527 43.2015 170.359 45.2703 171.85 46.6749C173.329 48.0693 175.34 48.7 177.497 48.7V46.7C175.717 46.7 174.243 46.1827 173.221 45.2196C172.211 44.2667 171.527 42.7685 171.527 40.566H169.527ZM177.497 48.7C179.496 48.7 181.065 48.2112 182.159 47.3624C183.264 46.5041 183.827 45.3152 183.827 44.092H181.827C181.827 44.6728 181.569 45.2879 180.932 45.7826C180.283 46.2868 179.187 46.7 177.497 46.7V48.7ZM183.827 44.092C183.827 42.2095 182.718 40.9449 181.098 39.7673C179.518 38.6192 177.12 37.3282 174.162 35.5296L173.123 37.2384C176.233 39.1298 178.427 40.2987 179.922 41.3852C181.377 42.4421 181.827 43.1865 181.827 44.092H183.827ZM174.162 35.5297C167.385 31.4062 163.566 28.229 161.431 25.3261C159.339 22.483 158.817 19.8423 158.817 16.622H156.817C156.817 20.1257 157.402 23.225 159.82 26.5114C162.194 29.738 166.288 33.0798 173.123 37.2383L174.162 35.5297ZM158.817 16.622C158.817 7.97441 166.08 1.96 175.857 1.96V-0.0400028C165.297 -0.0400028 156.817 6.57359 156.817 16.622H158.817ZM175.857 1.96C181.496 1.96 186.042 4.0677 189.185 7.4707C192.336 10.8825 194.127 15.6532 194.127 21.05H196.127C196.127 15.2128 194.186 9.93852 190.654 6.11379C187.114 2.2803 182.025 -0.0400028 175.857 -0.0400028V1.96ZM195.127 20.05H181.187V22.05H195.127V20.05ZM182.187 21.05C182.187 18.54 181.626 16.5406 180.497 15.1509C179.343 13.7307 177.703 13.08 175.857 13.08V15.08C177.208 15.08 178.233 15.5363 178.945 16.4121C179.681 17.3184 180.187 18.804 180.187 21.05H182.187ZM175.857 13.08C174.591 13.08 173.346 13.4063 172.389 14.101C171.405 14.8154 170.757 15.9048 170.757 17.278H172.757C172.757 16.6012 173.051 16.0916 173.564 15.7195C174.103 15.3277 174.908 15.08 175.857 15.08V13.08ZM170.757 17.278C170.757 17.9953 170.882 18.6699 171.195 19.325C171.505 19.972 171.971 20.5458 172.578 21.101C173.761 22.1833 175.626 23.3237 178.31 24.8686L179.308 23.1354C176.579 21.5643 174.918 20.5317 173.928 19.6255C173.448 19.1865 173.167 18.8121 173 18.4623C172.836 18.1206 172.757 17.7497 172.757 17.278H170.757ZM178.308 24.8677C184.329 28.3493 188.702 31.2998 191.574 34.3987C194.404 37.4516 195.767 40.6382 195.767 44.666H197.767C197.767 40.0838 196.177 36.4234 193.041 33.0393C189.948 29.7012 185.342 26.6247 179.309 23.1363L178.308 24.8677ZM195.767 44.666C195.767 49.6322 193.645 53.3817 190.337 55.9158C187.001 58.4707 182.411 59.82 177.497 59.82V61.82C182.75 61.82 187.795 60.3813 191.553 57.5037C195.337 54.6053 197.767 50.2778 197.767 44.666H195.767ZM177.497 59.82C170.636 59.82 165.685 57.2481 162.438 53.5956C159.173 49.9221 157.587 45.1021 157.587 40.566H155.587C155.587 45.5418 157.321 50.8489 160.944 54.9244C164.585 59.0209 170.089 61.82 177.497 61.82V59.82ZM242.69 1.78H243.69V0.779997H242.69V1.78ZM242.69 14.9V15.9H243.69V14.9H242.69ZM229.57 14.9V13.9H228.57V14.9H229.57ZM229.57 60V61H230.57V60H229.57ZM215.63 60H214.63V61H215.63V60ZM215.63 14.9H216.63V13.9H215.63V14.9ZM202.51 14.9H201.51V15.9H202.51V14.9ZM202.51 1.78V0.779997H201.51V1.78H202.51ZM241.69 1.78V14.9H243.69V1.78H241.69ZM242.69 13.9H229.57V15.9H242.69V13.9ZM228.57 14.9V60H230.57V14.9H228.57ZM229.57 59H215.63V61H229.57V59ZM216.63 60V14.9H214.63V60H216.63ZM215.63 13.9H202.51V15.9H215.63V13.9ZM203.51 14.9V1.78H201.51V14.9H203.51ZM202.51 2.78H242.69V0.779997H202.51V2.78ZM251.774 60H250.774V61H251.774V60ZM251.774 1.78V0.779997H250.774V1.78H251.774ZM265.714 1.78H266.714V0.779997H265.714V1.78ZM265.714 60V61H266.714V60H265.714ZM252.774 60V1.78H250.774V60H252.774ZM251.774 2.78H265.714V0.779997H251.774V2.78ZM264.714 1.78V60H266.714V1.78H264.714ZM265.714 59H251.774V61H265.714V59ZM326.722 1.78V0.779997H326.18L325.884 1.23404L326.722 1.78ZM340.662 1.78H341.662V0.779997H340.662V1.78ZM340.662 60V61H341.662V60H340.662ZM326.722 60H325.722V61H326.722V60ZM326.722 26.462H327.722V23.0209L325.878 25.9261L326.722 26.462ZM311.47 50.488V51.488H312.019L312.314 51.0239L311.47 50.488ZM306.386 50.488L305.542 51.0239L305.836 51.488H306.386V50.488ZM291.134 26.462L291.978 25.9261L290.134 23.0209V26.462H291.134ZM291.134 60V61H292.134V60H291.134ZM277.194 60H276.194V61H277.194V60ZM277.194 1.78V0.779997H276.194V1.78H277.194ZM291.134 1.78L291.972 1.23404L291.676 0.779997H291.134V1.78ZM308.928 29.086L308.09 29.632L308.928 30.9176L309.766 29.632L308.928 29.086ZM326.722 2.78H340.662V0.779997H326.722V2.78ZM339.662 1.78V60H341.662V1.78H339.662ZM340.662 59H326.722V61H340.662V59ZM327.722 60V26.462H325.722V60H327.722ZM325.878 25.9261L310.626 49.9521L312.314 51.0239L327.566 26.9979L325.878 25.9261ZM311.47 49.488H306.386V51.488H311.47V49.488ZM307.23 49.9521L291.978 25.9261L290.29 26.9979L305.542 51.0239L307.23 49.9521ZM290.134 26.462V60H292.134V26.462H290.134ZM291.134 59H277.194V61H291.134V59ZM278.194 60V1.78H276.194V60H278.194ZM277.194 2.78H291.134V0.779997H277.194V2.78ZM290.296 2.32596L308.09 29.632L309.766 28.54L291.972 1.23404L290.296 2.32596ZM309.766 29.632L327.56 2.32596L325.884 1.23404L308.09 28.54L309.766 29.632ZM381.254 59.82C365.16 59.82 352.324 46.9837 352.324 30.89H350.324C350.324 48.0883 364.055 61.82 381.254 61.82V59.82ZM352.324 30.89C352.324 14.7963 365.16 1.96 381.254 1.96V-0.0400028C364.055 -0.0400028 350.324 13.6917 350.324 30.89H352.324ZM381.254 1.96C397.347 1.96 410.184 14.7963 410.184 30.89H412.184C412.184 13.6917 398.452 -0.0400028 381.254 -0.0400028V1.96ZM410.184 30.89C410.184 46.9837 397.347 59.82 381.254 59.82V61.82C398.452 61.82 412.184 48.0883 412.184 30.89H410.184ZM381.254 48.7C391.481 48.7 398.244 40.542 398.244 30.89H396.244C396.244 39.606 390.215 46.7 381.254 46.7V48.7ZM398.244 30.89C398.244 21.238 391.481 13.08 381.254 13.08V15.08C390.215 15.08 396.244 22.174 396.244 30.89H398.244ZM381.254 13.08C371.027 13.08 364.264 21.238 364.264 30.89H366.264C366.264 22.174 372.293 15.08 381.254 15.08V13.08ZM364.264 30.89C364.264 40.542 371.027 48.7 381.254 48.7V46.7C372.293 46.7 366.264 39.606 366.264 30.89H364.264ZM460.964 1.78V0.779997H459.964V1.78H460.964ZM474.904 1.78H475.904V0.779997H474.904V1.78ZM474.904 60V61H475.904V60H474.904ZM460.964 60L460.152 60.5838L460.451 61H460.964V60ZM435.79 24.986L436.602 24.4022L434.79 21.8821V24.986H435.79ZM435.79 60V61H436.79V60H435.79ZM421.85 60H420.85V61H421.85V60ZM421.85 1.78V0.779997H420.85V1.78H421.85ZM435.79 1.78L436.602 1.19624L436.303 0.779997H435.79V1.78ZM460.964 36.794L460.152 37.3778L461.964 39.8979V36.794H460.964ZM460.964 2.78H474.904V0.779997H460.964V2.78ZM473.904 1.78V60H475.904V1.78H473.904ZM474.904 59H460.964V61H474.904V59ZM461.776 59.4162L436.602 24.4022L434.978 25.5698L460.152 60.5838L461.776 59.4162ZM434.79 24.986V60H436.79V24.986H434.79ZM435.79 59H421.85V61H435.79V59ZM422.85 60V1.78H420.85V60H422.85ZM421.85 2.78H435.79V0.779997H421.85V2.78ZM434.978 2.36375L460.152 37.3778L461.776 36.2102L436.602 1.19624L434.978 2.36375ZM461.964 36.794V1.78H459.964V36.794H461.964ZM484.788 60H483.788V61H484.788V60ZM484.788 1.78V0.779997H483.788V1.78H484.788ZM498.728 1.78H499.728V0.779997H498.728V1.78ZM498.728 60V61H499.728V60H498.728ZM485.788 60V1.78H483.788V60H485.788ZM484.788 2.78H498.728V0.779997H484.788V2.78ZM497.728 1.78V60H499.728V1.78H497.728ZM498.728 59H484.788V61H498.728V59ZM550.347 60L549.406 60.3395L549.644 61H550.347V60ZM546.411 49.094L547.351 48.7545L547.113 48.094H546.411V49.094ZM525.255 49.094V48.094H524.552L524.314 48.7545L525.255 49.094ZM521.319 60V61H522.021L522.259 60.3395L521.319 60ZM506.887 60L505.946 59.6608L505.463 61H506.887V60ZM527.879 1.78V0.779997H527.176L526.938 1.44081L527.879 1.78ZM543.787 1.78L544.727 1.44081L544.489 0.779997H543.787V1.78ZM564.779 60V61H566.202L565.719 59.6608L564.779 60ZM530.011 35.974L529.069 35.6365L528.59 36.974H530.011V35.974ZM541.655 35.974V36.974H543.076L542.596 35.6365L541.655 35.974ZM535.833 19.738L536.774 19.4005L535.833 16.7754L534.891 19.4005L535.833 19.738ZM551.287 59.6605L547.351 48.7545L545.47 49.4335L549.406 60.3395L551.287 59.6605ZM546.411 48.094H525.255V50.094H546.411V48.094ZM524.314 48.7545L520.378 59.6605L522.259 60.3395L526.195 49.4335L524.314 48.7545ZM521.319 59H506.887V61H521.319V59ZM507.827 60.3392L528.819 2.11919L526.938 1.44081L505.946 59.6608L507.827 60.3392ZM527.879 2.78H543.787V0.779997H527.879V2.78ZM542.846 2.11918L563.838 60.3392L565.719 59.6608L544.727 1.44081L542.846 2.11918ZM564.779 59H550.347V61H564.779V59ZM530.011 36.974H541.655V34.974H530.011V36.974ZM542.596 35.6365L536.774 19.4005L534.891 20.0755L540.713 36.3115L542.596 35.6365ZM534.891 19.4005L529.069 35.6365L530.952 36.3115L536.774 20.0755L534.891 19.4005ZM586.907 46.88H585.907V47.88H586.907V46.88ZM610.687 46.88H611.687V45.88H610.687V46.88ZM610.687 60V61H611.687V60H610.687ZM572.967 60H571.967V61H572.967V60ZM572.967 1.78V0.779997H571.967V1.78H572.967ZM586.907 1.78H587.907V0.779997H586.907V1.78ZM586.907 47.88H610.687V45.88H586.907V47.88ZM609.687 46.88V60H611.687V46.88H609.687ZM610.687 59H572.967V61H610.687V59ZM573.967 60V1.78H571.967V60H573.967ZM572.967 2.78H586.907V0.779997H572.967V2.78ZM585.907 1.78V46.88H587.907V1.78H585.907ZM618.048 40.566V39.566H617.048V40.566H618.048ZM631.988 40.566H632.988V39.566H631.988V40.566ZM635.104 36.384L634.584 37.2383L634.584 37.2384L635.104 36.384ZM656.588 21.05V22.05H657.588V21.05H656.588ZM642.648 21.05H641.648V22.05H642.648V21.05ZM640.27 24.002L640.771 23.1363L640.769 23.1354L640.27 24.002ZM618.048 41.566H631.988V39.566H618.048V41.566ZM630.988 40.566C630.988 43.2015 631.821 45.2703 633.311 46.6749C634.79 48.0693 636.801 48.7 638.958 48.7V46.7C637.179 46.7 635.705 46.1827 634.683 45.2196C633.672 44.2667 632.988 42.7685 632.988 40.566H630.988ZM638.958 48.7C640.958 48.7 642.527 48.2112 643.62 47.3624C644.725 46.5041 645.288 45.3152 645.288 44.092H643.288C643.288 44.6728 643.031 45.2879 642.393 45.7826C641.744 46.2868 640.648 46.7 638.958 46.7V48.7ZM645.288 44.092C645.288 42.2095 644.18 40.9449 642.559 39.7673C640.979 38.6192 638.581 37.3282 635.624 35.5296L634.584 37.2384C637.695 39.1298 639.888 40.2987 641.384 41.3852C642.838 42.4421 643.288 43.1865 643.288 44.092H645.288ZM635.624 35.5297C628.846 31.4062 625.028 28.229 622.892 25.3261C620.8 22.483 620.278 19.8423 620.278 16.622H618.278C618.278 20.1257 618.863 23.225 621.281 26.5114C623.655 29.738 627.749 33.0798 634.584 37.2383L635.624 35.5297ZM620.278 16.622C620.278 7.97441 627.541 1.96 637.318 1.96V-0.0400028C626.758 -0.0400028 618.278 6.57359 618.278 16.622H620.278ZM637.318 1.96C642.957 1.96 647.504 4.0677 650.646 7.4707C653.797 10.8825 655.588 15.6532 655.588 21.05H657.588C657.588 15.2128 655.648 9.93852 652.116 6.11379C648.575 2.2803 643.487 -0.0400028 637.318 -0.0400028V1.96ZM656.588 20.05H642.648V22.05H656.588V20.05ZM643.648 21.05C643.648 18.54 643.087 16.5406 641.958 15.1509C640.804 13.7307 639.165 13.08 637.318 13.08V15.08C638.669 15.08 639.695 15.5363 640.406 16.4121C641.143 17.3184 641.648 18.804 641.648 21.05H643.648ZM637.318 13.08C636.052 13.08 634.807 13.4063 633.85 14.101C632.866 14.8154 632.218 15.9048 632.218 17.278H634.218C634.218 16.6012 634.513 16.0916 635.025 15.7195C635.565 15.3277 636.37 15.08 637.318 15.08V13.08ZM632.218 17.278C632.218 17.9953 632.343 18.6699 632.657 19.325C632.966 19.972 633.433 20.5458 634.039 21.101C635.222 22.1833 637.088 23.3237 639.771 24.8686L640.769 23.1354C638.04 21.5643 636.38 20.5317 635.39 19.6255C634.91 19.1865 634.628 18.8121 634.461 18.4623C634.298 18.1206 634.218 17.7497 634.218 17.278H632.218ZM639.769 24.8677C645.791 28.3493 650.164 31.2998 653.036 34.3987C655.865 37.4516 657.228 40.6382 657.228 44.666H659.228C659.228 40.0838 657.639 36.4234 654.503 33.0393C651.409 29.7012 646.803 26.6247 640.771 23.1363L639.769 24.8677ZM657.228 44.666C657.228 49.6322 655.107 53.3817 651.798 55.9158C648.462 58.4707 643.873 59.82 638.958 59.82V61.82C644.211 61.82 649.257 60.3813 653.014 57.5037C656.798 54.6053 659.228 50.2778 659.228 44.666H657.228ZM638.958 59.82C632.098 59.82 627.146 57.2481 623.9 53.5956C620.635 49.9221 619.048 45.1021 619.048 40.566H617.048C617.048 45.5418 618.782 50.8489 622.405 54.9244C626.046 59.0209 631.55 61.82 638.958 61.82V59.82Z" fill="#605E60" mask="url(#path-1-outside-1_253_1763)"/>
</svg>
