<svg width="16" height="16" viewBox="0 0 16 16" fill="none" xmlns="http://www.w3.org/2000/svg">
<path d="M8.02414 1.27125C6.82753 1.27103 5.65269 1.58936 4.62174 2.19317C3.59073 2.79701 2.74126 3.66434 2.16172 4.70501C1.58217 5.74569 1.29372 6.92168 1.3264 8.11072C1.35907 9.29969 1.71165 10.4582 2.34743 11.4659C2.34746 11.4659 2.34749 11.466 2.34752 11.466L2.48821 11.6919L1.82723 14.0924L1.79274 14.2176L1.91844 14.1849L4.39803 13.539L4.61438 13.6572C5.65009 14.2676 6.83241 14.5887 8.0365 14.5866M8.02414 1.27125C8.90412 1.26663 9.7761 1.43756 10.5884 1.77392C11.4006 2.11023 12.1367 2.60509 12.7531 3.22922C13.3796 3.84401 13.8775 4.57594 14.2182 5.38286L14.2185 5.38351C14.5522 6.19532 14.7237 7.06396 14.7234 7.94093C14.725 8.81417 14.5531 9.67912 14.2176 10.4862C13.8821 11.2932 13.3895 12.0265 12.7682 12.6439C12.1469 13.2613 11.4091 13.7507 10.5971 14.0841C9.78517 14.4175 8.91499 14.5882 8.0365 14.5866M8.02414 1.27125C8.02407 1.27125 8.024 1.27125 8.02393 1.27125L8.02433 1.34625L8.02434 1.27125C8.02427 1.27125 8.02421 1.27125 8.02414 1.27125ZM8.0365 14.5866C8.03645 14.5866 8.03641 14.5866 8.03637 14.5866L8.0365 14.5116L8.03663 14.5866C8.03659 14.5866 8.03654 14.5866 8.0365 14.5866ZM11.6333 9.65465L11.633 9.65448L10.2862 9.01544C10.187 8.9847 10.1254 8.96758 10.0733 8.97308C10.0302 8.97763 9.98367 8.99957 9.92466 9.08486C9.82154 9.23391 9.5704 9.53004 9.40842 9.72104C9.35633 9.78246 9.31346 9.83301 9.2877 9.8643C9.2256 9.93973 9.15206 9.99361 9.0568 10.006C8.96546 10.0178 8.86785 9.98948 8.75998 9.93321C8.16969 9.69567 7.62422 9.36026 7.14685 8.94125L7.1454 8.93998L7.14541 8.93996C6.7041 8.53201 6.32602 8.06133 6.02349 7.54324L6.02298 7.54237L6.02299 7.54237C5.96038 7.43176 5.94807 7.33418 5.97741 7.2446C6.00478 7.16108 6.06543 7.0957 6.11996 7.04147M11.6333 9.65465L5.58902 4.26248M11.6333 9.65465C11.6428 9.65908 11.652 9.6634 11.661 9.6676C11.7519 9.71005 11.8191 9.74143 11.8714 9.77133C11.9279 9.80362 11.9602 9.83047 11.9817 9.8604L11.9817 9.86041C11.9818 9.86065 11.9853 9.86627 11.9893 9.88153C11.9931 9.89626 11.9965 9.91625 11.9987 9.94171C12.0031 9.9926 12.0026 10.0602 11.9953 10.1411C11.9806 10.3027 11.9393 10.5116 11.8621 10.7361C11.7916 10.9407 11.57 11.1499 11.3051 11.3189C11.0424 11.4865 10.7569 11.6022 10.5817 11.6303L10.581 11.6304C10.1738 11.6994 9.75585 11.6712 9.36176 11.548L9.36177 11.548L9.35999 11.5475C8.97662 11.438 8.60151 11.3017 8.23747 11.1397L8.23661 11.1393C6.36846 10.3356 5.10101 8.52227 4.88475 8.21287C4.8724 8.19521 4.86348 8.18245 4.85807 8.17506C4.85508 8.17097 4.85151 8.16613 4.8474 8.16056C4.78475 8.07556 4.59702 7.8209 4.41983 7.47571C4.23045 7.10678 4.05672 6.64124 4.05673 6.17436L4.05671 6.17333C4.0526 5.87487 4.11 5.57872 4.22539 5.3031C4.34078 5.02748 4.51173 4.77822 4.72775 4.57067L4.72802 4.57096L4.73302 4.56506C4.79203 4.49537 4.86537 4.439 4.94816 4.39973C5.03073 4.36057 5.12078 4.33934 5.2123 4.33748M11.6333 9.65465L5.21155 4.26248M6.11996 7.04147C6.12018 7.04125 6.1204 7.04103 6.12063 7.04081L6.1735 7.09401L6.11938 7.04208C6.11957 7.04188 6.11976 7.04168 6.11996 7.04147ZM6.11996 7.04147C6.22128 6.93584 6.3169 6.82496 6.40642 6.70929L6.40874 6.70628L6.40882 6.70635C6.48858 6.6134 6.5544 6.50951 6.60425 6.39789L6.60482 6.39663L6.60483 6.39663C6.62573 6.35207 6.63572 6.30326 6.63401 6.25417C6.63231 6.20508 6.61896 6.15706 6.59502 6.11402L6.66056 6.07756L6.59554 6.11495C6.58056 6.08889 6.54407 6.00616 6.49802 5.89876C6.4507 5.7884 6.39046 5.6452 6.32653 5.49241C6.28785 5.39997 6.24782 5.30404 6.20844 5.20967C6.11747 4.99166 6.02996 4.78196 5.97058 4.64284C5.8884 4.45036 5.81589 4.3853 5.76373 4.36042C5.73725 4.34779 5.711 4.34301 5.68191 4.3411C5.66824 4.34021 5.65487 4.33998 5.63981 4.33973L5.63505 4.33964C5.61999 4.33938 5.60284 4.33902 5.58551 4.33748M5.58551 4.33748H5.58902V4.26248M5.58551 4.33748C5.58421 4.33736 5.58291 4.33724 5.58161 4.33711L5.58902 4.26248M5.58551 4.33748H5.2123M5.58902 4.26248H5.21155M5.2123 4.33748C5.21253 4.33748 5.21276 4.33747 5.21299 4.33747L5.21155 4.26248M5.2123 4.33748H5.21155V4.26248M13.621 2.39129L13.6214 2.39173C14.3551 3.11976 14.9363 3.98496 15.3317 4.93736C15.727 5.88977 15.9287 6.91054 15.9249 7.94077V7.94081C15.9207 9.30024 15.5618 10.6354 14.8832 11.8159C14.2047 12.9964 13.2297 13.982 12.0535 14.6763C10.8772 15.3707 9.53975 15.7501 8.17179 15.7776C6.80383 15.805 5.4521 15.4795 4.24857 14.8328L4.22262 14.8188L4.19411 14.8263L0.106411 15.8947L1.1926 11.9055L1.20084 11.8753L1.18511 11.8482C0.360012 10.4266 0.00398632 8.7838 0.167027 7.15077C0.330067 5.51775 1.00399 3.97649 2.09413 2.74368C3.18428 1.51086 4.63586 0.648465 6.24484 0.277819C7.85383 -0.0928273 9.53925 0.04693 11.0642 0.677426L11.0642 0.677438C12.023 1.07344 12.8924 1.65618 13.621 2.39129Z" fill="white" stroke="black" stroke-width="0.15"/>
</svg>
