<svg width="40" height="40" viewBox="0 0 40 40" fill="none" xmlns="http://www.w3.org/2000/svg">
<path d="M20 1.2C22.5147 1.19614 25.0043 1.69951 27.32 2.68C31.8212 4.59452 35.4055 8.17877 37.32 12.68C38.2969 14.9968 38.8002 17.4857 38.8002 20C38.8002 22.5143 38.2969 25.0032 37.32 27.32C35.4055 31.8212 31.8212 35.4055 27.32 37.32C25.0032 38.2969 22.5143 38.8002 20 38.8002C17.4857 38.8002 14.9968 38.2969 12.68 37.32C8.17878 35.4055 4.59453 31.8212 2.68001 27.32C1.70311 25.0032 1.19982 22.5143 1.19982 20C1.19982 17.4857 1.70311 14.9968 2.68001 12.68C4.59453 8.17877 8.17878 4.59452 12.68 2.68C14.9957 1.69951 17.4853 1.19614 20 1.2ZM20 2.50273e-06C16.0444 2.50273e-06 12.1776 1.17298 8.8886 3.37061C5.59962 5.56824 3.03617 8.69181 1.52242 12.3463C0.00866565 16.0009 -0.387401 20.0222 0.384303 23.9018C1.15601 27.7814 3.06082 31.3451 5.85787 34.1421C8.65492 36.9392 12.2186 38.844 16.0982 39.6157C19.9778 40.3874 23.9991 39.9913 27.6537 38.4776C31.3082 36.9638 34.4318 34.4004 36.6294 31.1114C38.827 27.8224 40 23.9556 40 20C40.0013 17.3732 39.4849 14.7719 38.4803 12.3448C37.4756 9.91767 36.0025 7.71237 34.1451 5.85493C32.2876 3.9975 30.0823 2.52436 27.6552 1.51973C25.2281 0.515106 22.6268 -0.00131189 20 2.50273e-06Z" fill="white"/>
<path d="M21.1787 21.01H22.8487L23.5287 18.32H21.1787V16.98C21.1787 16.29 21.1787 15.63 22.5187 15.63H23.5287V13.38C22.891 13.3127 22.2501 13.2793 21.6087 13.28C19.7788 13.28 18.4887 14.4 18.4887 16.44V18.32H16.4688V21.01H18.4887V26.72H21.1787V21.01Z" fill="white"/>
</svg>
