<svg width="40" height="40" viewBox="0 0 40 40" fill="none" xmlns="http://www.w3.org/2000/svg">
<path d="M23.5912 15.61C23.4322 15.6114 23.2765 15.6564 23.1412 15.74C23.0076 15.8318 22.9035 15.9603 22.8412 16.11C22.7836 16.2568 22.7701 16.4171 22.8023 16.5715C22.8345 16.7258 22.911 16.8673 23.0225 16.9788C23.1339 17.0903 23.2755 17.1668 23.4298 17.199C23.5841 17.2312 23.7445 17.2176 23.8912 17.16C24.0409 17.0978 24.1694 16.9936 24.2612 16.86C24.3449 16.7247 24.3899 16.5691 24.3912 16.41C24.3926 16.3046 24.3728 16.2 24.3331 16.1023C24.2934 16.0046 24.2345 15.9159 24.1599 15.8413C24.0854 15.7668 23.9966 15.7079 23.899 15.6682C23.8013 15.6285 23.6967 15.6087 23.5912 15.61ZM26.6812 17.23C26.6633 16.6739 26.5587 16.1239 26.3712 15.6C26.1989 15.1524 25.933 14.7467 25.5912 14.41C25.2567 14.0682 24.8502 13.8051 24.4012 13.64C23.8792 13.4446 23.3285 13.3365 22.7712 13.32C22.0512 13.28 21.8312 13.28 20.0012 13.28C18.1712 13.28 17.9412 13.28 17.2312 13.32C16.674 13.3365 16.1233 13.4446 15.6012 13.64C15.1542 13.8089 14.7485 14.0714 14.4113 14.41C14.0694 14.7446 13.8063 15.1511 13.6412 15.6C13.4459 16.1221 13.3378 16.6728 13.3212 17.23C13.2812 17.94 13.2812 18.17 13.2812 20C13.2812 21.83 13.2812 22.05 13.3212 22.77C13.3378 23.3272 13.4459 23.8779 13.6412 24.4C13.8063 24.849 14.0694 25.2555 14.4113 25.59C14.7485 25.9286 15.1542 26.1912 15.6012 26.36C16.1233 26.5554 16.674 26.6635 17.2312 26.68C17.9412 26.72 18.1712 26.72 20.0012 26.72C21.8312 26.72 22.0512 26.72 22.7712 26.68C23.3285 26.6635 23.8792 26.5554 24.4012 26.36C24.8502 26.1949 25.2567 25.9319 25.5912 25.59C25.933 25.2534 26.1989 24.8477 26.3712 24.4C26.5587 23.8761 26.6633 23.3262 26.6812 22.77C26.6812 22.05 26.7212 21.83 26.7212 20C26.7212 18.17 26.7212 17.94 26.6812 17.23ZM25.4712 22.69C25.4587 23.116 25.3812 23.5375 25.2412 23.94C25.1265 24.2282 24.9536 24.4897 24.7334 24.7082C24.5132 24.9267 24.2503 25.0975 23.9612 25.21C23.5605 25.3565 23.1379 25.4343 22.7112 25.44C22.0412 25.47 21.7912 25.48 20.0312 25.48C18.2712 25.48 18.0112 25.48 17.3412 25.44C16.8996 25.4486 16.4599 25.381 16.0412 25.24C15.7625 25.122 15.5107 24.9485 15.3012 24.73C15.0796 24.5136 14.9088 24.2506 14.8012 23.96C14.6418 23.5545 14.5506 23.1254 14.5312 22.69C14.5312 22.01 14.4912 21.77 14.4912 20C14.4912 18.23 14.4912 17.99 14.5312 17.31C14.5413 16.8764 14.6224 16.4474 14.7712 16.04C14.8877 15.7554 15.0692 15.5019 15.3012 15.3C15.5047 15.0673 15.7575 14.8828 16.0412 14.76C16.4492 14.6144 16.8782 14.5367 17.3112 14.53C17.9912 14.53 18.2312 14.49 20.0012 14.49C21.7712 14.49 22.0112 14.49 22.6912 14.53C23.1172 14.5425 23.5387 14.6201 23.9412 14.76C24.242 14.8781 24.5121 15.0627 24.7312 15.3C24.9529 15.5068 25.1269 15.7593 25.2412 16.04C25.3868 16.4479 25.4645 16.877 25.4712 17.31C25.5012 17.99 25.5112 18.23 25.5112 20C25.5112 21.77 25.5012 22.01 25.4712 22.69ZM20.0012 16.55C19.3208 16.5568 18.657 16.7619 18.0912 17.14C17.5235 17.5192 17.0814 18.0588 16.8212 18.69C16.5593 19.3192 16.4931 20.0127 16.6312 20.68C16.731 21.1795 16.9405 21.6506 17.2445 22.0593C17.5485 22.4679 17.9394 22.804 18.3891 23.0432C18.8388 23.2824 19.336 23.4188 19.8448 23.4424C20.3536 23.4661 20.8613 23.3765 21.3312 23.18C21.9587 22.9179 22.4946 22.4762 22.8718 21.9104C23.249 21.3446 23.4506 20.68 23.4512 20C23.45 19.5474 23.3617 19.0993 23.1912 18.68C23.0187 18.2603 22.7637 17.8794 22.4412 17.56C22.1214 17.2388 21.7412 16.9842 21.3223 16.8108C20.9035 16.6374 20.4545 16.5488 20.0012 16.55ZM20.0012 22.24C19.5592 22.2402 19.1273 22.1079 18.7612 21.86C18.3942 21.6134 18.106 21.2662 17.9312 20.86C17.7619 20.4485 17.72 19.9956 17.8112 19.56C17.8975 19.1281 18.1098 18.7314 18.4212 18.42C18.7326 18.1085 19.1293 17.8963 19.5612 17.81C19.9968 17.7188 20.4497 17.7606 20.8612 17.93C21.2674 18.1048 21.6146 18.393 21.8612 18.76C22.1091 19.1261 22.2414 19.558 22.2412 20C22.2412 20.5941 22.0052 21.1639 21.5852 21.5839C21.1651 22.004 20.5953 22.24 20.0012 22.24Z" fill="white"/>
<path d="M20 1.2C22.5147 1.19614 25.0043 1.69951 27.32 2.68C31.8212 4.59452 35.4055 8.17877 37.32 12.68C38.2969 14.9968 38.8002 17.4857 38.8002 20C38.8002 22.5143 38.2969 25.0032 37.32 27.32C35.4055 31.8212 31.8212 35.4055 27.32 37.32C25.0032 38.2969 22.5143 38.8002 20 38.8002C17.4857 38.8002 14.9968 38.2969 12.68 37.32C8.17878 35.4055 4.59453 31.8212 2.68001 27.32C1.70311 25.0032 1.19982 22.5143 1.19982 20C1.19982 17.4857 1.70311 14.9968 2.68001 12.68C4.59453 8.17877 8.17878 4.59452 12.68 2.68C14.9957 1.69951 17.4853 1.19614 20 1.2ZM20 2.50273e-06C16.0444 2.50273e-06 12.1776 1.17298 8.8886 3.37061C5.59962 5.56824 3.03617 8.69181 1.52242 12.3463C0.00866565 16.0009 -0.387401 20.0222 0.384303 23.9018C1.15601 27.7814 3.06082 31.3451 5.85787 34.1421C8.65492 36.9392 12.2186 38.844 16.0982 39.6157C19.9778 40.3874 23.9991 39.9913 27.6537 38.4776C31.3082 36.9638 34.4318 34.4004 36.6294 31.1114C38.827 27.8224 40 23.9556 40 20C40.0013 17.3732 39.4849 14.7719 38.4803 12.3448C37.4756 9.91767 36.0025 7.71237 34.1451 5.85493C32.2876 3.9975 30.0823 2.52436 27.6552 1.51973C25.2281 0.515106 22.6268 -0.00131189 20 2.50273e-06Z" fill="white"/>
</svg>
