<svg width="40" height="40" viewBox="0 0 40 40" fill="none" xmlns="http://www.w3.org/2000/svg">
<path d="M23.3783 15.46C22.8766 14.887 22.5995 14.1516 22.5983 13.39H20.3283V22.5C20.3057 22.991 20.0985 23.4553 19.7483 23.8C19.5057 24.0337 19.2055 24.1991 18.8784 24.2794C18.5512 24.3597 18.2086 24.3521 17.8853 24.2572C17.5621 24.1623 17.2696 23.9837 17.0377 23.7393C16.8058 23.495 16.6427 23.1936 16.5648 22.8658C16.487 22.5381 16.4972 22.1955 16.5945 21.873C16.6918 21.5505 16.8726 21.2594 17.1187 21.0293C17.3648 20.7992 17.6673 20.6383 17.9957 20.5629C18.324 20.4875 18.6665 20.5003 18.9883 20.6V18.28C18.3971 18.2003 17.7958 18.2477 17.2244 18.4191C16.6531 18.5905 16.1249 18.8819 15.6753 19.2738C15.2256 19.6657 14.8648 20.1491 14.617 20.6917C14.3692 21.2343 14.24 21.8235 14.2383 22.42C14.2383 24.87 16.2683 26.61 18.4183 26.61C19.5278 26.6074 20.591 26.1648 21.3746 25.3793C22.1582 24.5938 22.5983 23.5295 22.5983 22.42V17.81C23.5195 18.4699 24.6251 18.8233 25.7583 18.82V16.55C25.3068 16.5483 24.861 16.4501 24.4505 16.2622C24.0401 16.0742 23.6745 15.8007 23.3783 15.46Z" fill="white"/>
<path d="M20 1.2C22.5147 1.19614 25.0043 1.69951 27.32 2.68C31.8212 4.59452 35.4055 8.17877 37.32 12.68C38.2969 14.9968 38.8002 17.4857 38.8002 20C38.8002 22.5143 38.2969 25.0032 37.32 27.32C35.4055 31.8212 31.8212 35.4055 27.32 37.32C25.0032 38.2969 22.5143 38.8002 20 38.8002C17.4857 38.8002 14.9968 38.2969 12.68 37.32C8.17878 35.4055 4.59453 31.8212 2.68001 27.32C1.70311 25.0032 1.19982 22.5143 1.19982 20C1.19982 17.4857 1.70311 14.9968 2.68001 12.68C4.59453 8.17877 8.17878 4.59452 12.68 2.68C14.9957 1.69951 17.4853 1.19614 20 1.2ZM20 2.50273e-06C16.0444 2.50273e-06 12.1776 1.17298 8.8886 3.37061C5.59962 5.56824 3.03617 8.69181 1.52242 12.3463C0.00866565 16.0009 -0.387401 20.0222 0.384303 23.9018C1.15601 27.7814 3.06082 31.3451 5.85787 34.1421C8.65492 36.9392 12.2186 38.844 16.0982 39.6157C19.9778 40.3874 23.9991 39.9913 27.6537 38.4776C31.3082 36.9638 34.4318 34.4004 36.6294 31.1114C38.827 27.8224 40 23.9556 40 20C40.0013 17.3732 39.4849 14.7719 38.4803 12.3448C37.4756 9.91767 36.0025 7.71237 34.1451 5.85493C32.2876 3.9975 30.0823 2.52436 27.6552 1.51973C25.2281 0.515106 22.6268 -0.00131189 20 2.50273e-06Z" fill="white"/>
</svg>
