<svg width="40" height="40" viewBox="0 0 40 40" fill="none" xmlns="http://www.w3.org/2000/svg">
<path d="M24.6597 15.32C24.0555 14.7066 23.3347 14.2204 22.5397 13.89C21.2755 13.364 19.8783 13.2474 18.5445 13.5566C17.2106 13.8658 16.0072 14.5853 15.1034 15.6138C14.1995 16.6423 13.6408 17.9282 13.5056 19.2908C13.3704 20.6533 13.6656 22.0239 14.3497 23.21L13.4297 26.61L16.8897 25.7C17.8874 26.2395 19.008 26.511 20.142 26.4881C21.276 26.4653 22.3848 26.1487 23.3599 25.5695C24.3351 24.9902 25.1434 24.168 25.706 23.1831C26.2686 22.1982 26.5661 21.0842 26.5697 19.95C26.5728 19.0904 26.4056 18.2386 26.0778 17.444C25.7499 16.6493 25.268 15.9274 24.6597 15.32ZM20.0297 25.38C19.0515 25.3817 18.091 25.1191 17.2497 24.62L17.0497 24.51L14.9897 25.05L15.5397 23.04L15.4097 22.83C14.8934 22.0066 14.6071 21.06 14.5806 20.0885C14.554 19.117 14.7882 18.1562 15.2588 17.3059C15.7294 16.4556 16.4192 15.7468 17.2564 15.2534C18.0937 14.7599 19.0478 14.4998 20.0197 14.5C20.7342 14.4962 21.4423 14.6359 22.1019 14.9107C22.7615 15.1855 23.3592 15.59 23.8597 16.1C24.3686 16.6024 24.773 17.2006 25.0497 17.86C25.3207 18.5234 25.46 19.2333 25.4597 19.95C25.461 20.6635 25.3215 21.3701 25.049 22.0295C24.7766 22.6889 24.3767 23.288 23.8722 23.7925C23.3677 24.297 22.7686 24.6969 22.1092 24.9694C21.4498 25.2418 20.7431 25.3813 20.0297 25.38ZM23.0097 21.31L21.8997 20.78C21.7397 20.73 21.6397 20.7 21.5297 20.86C21.4197 21.02 21.0997 21.39 21.0097 21.5C20.9197 21.61 20.8197 21.63 20.6497 21.54C20.1703 21.3462 19.7273 21.0723 19.3397 20.73C18.9817 20.397 18.6751 20.0129 18.4297 19.59C18.3397 19.43 18.4097 19.34 18.4997 19.25C18.5846 19.161 18.6647 19.0675 18.7397 18.97C18.8091 18.8887 18.8663 18.7977 18.9097 18.7C18.931 18.6543 18.9412 18.6042 18.9394 18.5538C18.9377 18.5034 18.9241 18.4541 18.8997 18.41C18.8597 18.34 18.5297 17.53 18.3897 17.2C18.2497 16.87 18.1197 16.92 18.0197 16.91H17.7097C17.6256 16.9116 17.5429 16.9312 17.467 16.9674C17.3911 17.0036 17.3238 17.0557 17.2697 17.12C17.0862 17.2974 16.941 17.5104 16.843 17.746C16.745 17.9817 16.6962 18.2348 16.6997 18.49C16.6997 19.29 17.2897 20.07 17.3697 20.18C17.4497 20.29 18.5297 21.94 20.1697 22.65C20.4713 22.7851 20.7821 22.8987 21.0997 22.99C21.4326 23.0947 21.7857 23.1187 22.1297 23.06C22.4397 23.01 23.0997 22.66 23.2297 22.28C23.3597 21.9 23.3697 21.57 23.3197 21.5C23.2697 21.43 23.1797 21.39 23.0097 21.31Z" fill="white"/>
<path d="M20 1.2C22.5147 1.19614 25.0043 1.69951 27.32 2.68C31.8212 4.59452 35.4055 8.17877 37.32 12.68C38.2969 14.9968 38.8002 17.4857 38.8002 20C38.8002 22.5143 38.2969 25.0032 37.32 27.32C35.4055 31.8212 31.8212 35.4055 27.32 37.32C25.0032 38.2969 22.5143 38.8002 20 38.8002C17.4857 38.8002 14.9968 38.2969 12.68 37.32C8.17878 35.4055 4.59453 31.8212 2.68001 27.32C1.70311 25.0032 1.19982 22.5143 1.19982 20C1.19982 17.4857 1.70311 14.9968 2.68001 12.68C4.59453 8.17877 8.17878 4.59452 12.68 2.68C14.9957 1.69951 17.4853 1.19614 20 1.2ZM20 2.50273e-06C16.0444 2.50273e-06 12.1776 1.17298 8.8886 3.37061C5.59962 5.56824 3.03617 8.69181 1.52242 12.3463C0.00866565 16.0009 -0.387401 20.0222 0.384303 23.9018C1.15601 27.7814 3.06082 31.3451 5.85787 34.1421C8.65492 36.9392 12.2186 38.844 16.0982 39.6157C19.9778 40.3874 23.9991 39.9913 27.6537 38.4776C31.3082 36.9638 34.4318 34.4004 36.6294 31.1114C38.827 27.8224 40 23.9556 40 20C40.0013 17.3732 39.4849 14.7719 38.4803 12.3448C37.4756 9.91767 36.0025 7.71237 34.1451 5.85493C32.2876 3.9975 30.0823 2.52436 27.6552 1.51973C25.2281 0.515106 22.6268 -0.00131189 20 2.50273e-06Z" fill="white"/>
</svg>
