<svg width="101" height="100" viewBox="0 0 101 100" fill="none" xmlns="http://www.w3.org/2000/svg">
<rect x="1.25" y="0.75" width="98.5" height="98.5" rx="49.25" fill="#161616"/>
<rect x="1.25" y="0.75" width="98.5" height="98.5" rx="49.25" stroke="#222222" stroke-width="1.5"/>
<path d="M50.501 48.545C51.306 48.05 52.0585 47.51 52.881 47.075C54.876 45.995 57.0985 45.71 59.391 46.01C61.2985 46.25 63.066 46.865 64.3435 48.185C65.918 49.8231 66.9567 51.7901 67.3535 53.885C68.0185 57.2 67.1085 60.23 65.0435 63.035C63.8987 64.5896 63.2473 66.3734 63.1535 68.21C63.0135 70.16 62.926 72.11 62.7335 74.045C62.5935 75.635 62.051 77.12 60.931 78.425C59.811 79.73 58.0085 80.285 56.4685 79.85C54.9285 79.415 54.1935 78.575 53.616 77.465C52.811 75.965 52.461 74.36 52.1635 72.725C51.936 71.435 51.551 70.175 51.1835 68.915C51.096 68.615 50.746 68.36 50.5185 68.09C50.2735 68.36 49.906 68.615 49.801 68.93C49.4275 70.0707 49.1238 71.2272 48.891 72.395C48.576 74.12 48.2785 75.845 47.421 77.435C46.7385 78.665 45.7585 79.64 44.131 79.94C42.5035 80.24 40.6485 79.325 39.721 78.02C38.5485 76.355 38.251 74.51 38.111 72.635C37.971 70.76 37.866 69.005 37.7085 67.19C37.551 65.375 36.816 64.205 35.8535 62.87C34.1385 60.515 33.246 57.965 33.456 55.175C33.6269 52.638 34.7294 50.2124 36.606 48.245C38.0935 46.7 40.176 46.085 42.451 45.935C45.1285 45.77 47.5085 46.46 49.556 47.945C49.8535 48.155 50.186 48.35 50.501 48.545ZM42.9585 50.645C42.0835 50.63 41.121 50.93 40.7185 51.365C39.8324 52.3216 39.2695 53.4682 39.091 54.68C39.0454 54.9952 39.1438 55.3133 39.3656 55.5678C39.5874 55.8222 39.9154 55.9932 40.281 56.045C41.016 56.15 41.681 55.7 41.8735 55.025C42.066 54.35 42.2235 54.05 42.416 53.57C42.4574 53.4127 42.5631 53.2733 42.7139 53.177C42.8648 53.0807 43.0509 53.0339 43.2385 53.045C43.5384 53.0179 43.8234 52.9192 44.061 52.76C44.516 52.46 44.656 51.875 44.4285 51.395C44.201 50.915 43.6935 50.645 42.9585 50.645Z" fill="white"/>
<path d="M50.4984 20L53.6834 28.385H63.9734L55.6434 33.575L58.8284 41.96L50.4984 36.77L42.1684 41.96L45.3534 33.575L37.0234 28.385H47.3134L50.4984 20Z" fill="white"/>
<path d="M72.5516 34.2202L74.5816 39.5752H81.1266L75.8241 42.8752L77.8541 48.2152L72.5516 44.9152L67.2491 48.2152L69.2791 42.8752L63.9766 39.5752H70.5216L72.5516 34.2202Z" fill="white"/>
<path d="M28.45 34.22L30.48 39.575H37.025L31.7225 42.875L33.7525 48.215L28.45 44.915L23.1475 48.215L25.1775 42.875L19.875 39.575H26.42L28.45 34.22Z" fill="white"/>
</svg>
