<svg width="100" height="100" viewBox="0 0 100 100" fill="none" xmlns="http://www.w3.org/2000/svg">
<rect x="0.75" y="0.75" width="98.5" height="98.5" rx="49.25" fill="#161616"/>
<rect x="0.75" y="0.75" width="98.5" height="98.5" rx="49.25" stroke="#222222" stroke-width="1.5"/>
<path d="M49.9038 36.0949C50.4288 35.7049 50.9388 35.2999 51.4788 34.9549C52.7838 34.1449 54.2388 33.9199 55.7538 34.1449C57.0138 34.3399 58.1688 34.8049 59.0088 35.8249C60.0481 37.0761 60.7319 38.5837 60.9888 40.1899C61.4238 42.7399 60.8388 45.0499 59.4738 47.2099C58.7149 48.4016 58.2853 49.7731 58.2288 51.1849C58.1388 52.6849 58.0788 54.1699 57.9588 55.6699C57.8538 56.8699 57.5088 58.0249 56.7738 59.0299C56.0388 60.0349 54.8388 60.4399 53.8338 60.1099C52.8288 59.7799 52.3338 59.1349 51.9438 58.2799C51.4188 57.1249 51.1938 55.8949 50.9988 54.6499C50.8356 53.6642 50.6203 52.6878 50.3538 51.7249C50.2938 51.4999 50.0688 51.3049 49.9188 51.0949C49.7538 51.3049 49.5138 51.4999 49.4538 51.7399C49.2008 52.6121 49.0005 53.4987 48.8538 54.3949C48.6438 55.7149 48.4488 57.0349 47.8788 58.2649C47.4438 59.2099 46.7838 59.9599 45.7188 60.1849C44.6538 60.4099 43.4238 59.7199 42.8238 58.7149C42.0588 57.4399 41.8488 56.0149 41.7588 54.5749C41.6688 53.1349 41.5938 51.7849 41.4888 50.4049C41.3838 49.0249 40.9038 48.1099 40.2738 47.0899C39.1488 45.2749 38.5638 43.3249 38.6988 41.1799C38.807 39.2349 39.532 37.3749 40.7688 35.8699C41.7438 34.6699 43.1088 34.2049 44.6088 34.0849C45.4525 34.0172 46.3012 34.1191 47.105 34.3844C47.9087 34.6498 48.6512 35.0732 49.2888 35.6299C49.4838 35.7949 49.6938 35.9449 49.9038 36.0949ZM44.9538 37.6999C44.3688 37.6999 43.7388 37.9249 43.4838 38.2549C42.89 38.9857 42.5155 39.8699 42.4038 40.8049C42.3733 41.0467 42.4375 41.291 42.5828 41.4866C42.7282 41.6823 42.9435 41.8142 43.1838 41.8549C43.6788 41.9299 44.1138 41.5849 44.2338 41.0749C44.3311 40.693 44.4513 40.3173 44.5938 39.9499C44.619 39.8282 44.6878 39.7198 44.7872 39.6453C44.8867 39.5707 45.0099 39.535 45.1338 39.5449C45.33 39.5269 45.5171 39.4541 45.6738 39.3349C45.8197 39.2077 45.9216 39.0376 45.9647 38.8489C46.0078 38.6603 45.99 38.4628 45.9138 38.2849C45.7638 37.9099 45.4338 37.6999 44.9538 37.6999Z" fill="white"/>
<path d="M62.0435 64.7L60.3785 65.675C58.7267 66.5925 56.9544 67.2741 55.1135 67.7C54.9983 67.7152 54.8881 67.757 54.7918 67.8221C54.6955 67.8871 54.6156 67.9737 54.5585 68.075C54.1385 68.75 53.1485 68.93 52.4735 68.495C52.1318 68.2761 51.8899 67.9316 51.8 67.5358C51.7102 67.1401 51.7797 66.7249 51.9935 66.38C52.2018 66.0394 52.536 65.7948 52.9236 65.6992C53.3112 65.6038 53.7209 65.6651 54.0635 65.87C54.149 65.9319 54.2482 65.9723 54.3526 65.988C54.457 66.0037 54.5636 65.994 54.6635 65.96C57.8067 65.2174 60.715 63.7023 63.1247 61.5519C65.5344 59.4015 67.3695 56.6837 68.4635 53.645C69.046 52.0515 69.4093 50.3863 69.5435 48.695C69.7355 46.4943 69.5478 44.277 68.9885 42.14C67.9085 38.075 65.7635 34.7 62.5085 32.03C61.8935 31.52 61.1285 31.19 60.4385 30.785C58.5335 29.72 56.7635 28.52 55.3685 26.81C53.9735 25.1 53.3135 23.27 53.3885 21.125C53.4185 20.27 53.7935 19.94 54.6335 20.015L55.2635 20.075C57.9335 20.525 60.1385 21.755 61.6535 24.065C62.5835 25.46 63.0335 27.05 63.2285 28.715C63.2735 29.165 63.2735 29.63 63.3335 30.08C63.3563 30.2522 63.4294 30.4139 63.5435 30.545L66.2135 33.11C66.2707 33.1796 66.3502 33.2273 66.4385 33.245C66.4385 32.78 66.4085 32.315 66.4385 31.865C66.6335 29.12 67.3685 26.6 69.2885 24.53C69.5929 24.1984 69.924 23.8923 70.2785 23.615C70.3826 23.5269 70.5063 23.465 70.6392 23.4344C70.7721 23.4038 70.9104 23.4055 71.0425 23.4393C71.1746 23.473 71.2967 23.5379 71.3987 23.6285C71.5006 23.7191 71.5794 23.8327 71.6285 23.96C72.7235 26.315 73.4735 28.76 73.3985 31.4C73.3235 34.04 72.3335 35.81 70.0385 36.935C69.7269 37.0805 69.4062 37.2057 69.0785 37.31C69.9637 39.038 70.6048 40.8806 70.9835 42.785C71.0435 42.695 71.1035 42.635 71.1335 42.575C71.8835 41.09 72.8585 39.755 74.1935 38.72C75.4051 37.7717 76.8622 37.1889 78.3935 37.04C78.9035 36.995 79.3985 37.355 79.3835 37.865C79.3385 40.685 78.8135 43.4 76.9985 45.68C75.6635 47.36 73.8635 48.14 71.7035 48.05H71.4485C71.2985 49.115 71.1935 50.18 70.9835 51.215C70.7735 52.25 70.4585 53.285 70.2035 54.305C70.7885 54.185 71.4035 54.035 72.0335 53.945C74.5012 53.5728 77.0235 53.8681 79.3385 54.8C79.9835 55.055 80.1935 55.67 79.7885 56.21C78.6035 57.845 77.1785 59.195 75.2585 59.9C74.1514 60.3069 72.9375 60.3175 71.8235 59.93C70.6278 59.5678 69.5642 58.8639 68.7635 57.905L68.5535 57.665C67.5763 59.3668 66.37 60.9264 64.9685 62.3C65.5385 62.465 66.0935 62.585 66.6335 62.765C69.2135 63.62 70.9535 65.36 71.9135 67.88C72.2585 68.81 72.4385 69.785 72.6485 70.745C72.8135 71.465 72.2885 71.99 71.5535 71.87C70.8185 71.75 69.9935 71.57 69.2285 71.345C67.6159 70.8805 66.1255 70.0662 64.8635 68.96C63.6103 67.8609 62.6644 66.4549 62.1185 64.88C62.0973 64.8185 62.0722 64.7583 62.0435 64.7Z" fill="white"/>
<path d="M37.9367 64.6851C37.5979 65.7115 37.091 66.6746 36.4367 67.5351C35.2517 69.1101 33.6917 70.1901 31.8767 70.9401C30.788 71.3997 29.6429 71.7125 28.4717 71.8701C27.6917 71.9751 27.1967 71.4951 27.3167 70.7301C27.6467 68.6601 28.3067 66.7251 29.7167 65.1351C31.1267 63.5451 32.8217 62.7351 34.8317 62.3751L35.0417 62.3301C33.6421 60.9659 32.4358 59.4165 31.4567 57.7251C31.0217 58.1151 30.6317 58.5651 30.1667 58.9101C27.8567 60.6351 25.3367 60.6801 22.9367 58.9851C21.9159 58.259 21.0193 57.3726 20.2817 56.3601C19.7867 55.7001 19.9517 55.0701 20.7167 54.7851C23.5765 53.6586 26.7257 53.4953 29.6867 54.3201L29.8667 54.3501C29.117 52.3291 28.6868 50.2036 28.5917 48.0501C27.5117 48.1101 26.5067 48.0051 25.5317 47.6001C23.8217 46.8801 22.6817 45.6051 21.9017 43.9701C21.0017 42.0951 20.6417 40.1151 20.5967 38.0601C20.5667 37.3551 21.0167 36.9801 21.7067 37.0551C24.4667 37.4001 26.4917 38.8851 28.0067 41.1351C28.3517 41.6451 28.6517 42.2001 28.9967 42.7851C29.3805 40.8849 30.0267 39.0473 30.9167 37.3251L30.2117 37.0401C28.1717 36.1701 27.0167 34.6251 26.6867 32.4651C26.3867 30.5751 26.6867 28.7301 27.2267 26.9301C27.5267 25.9551 27.9167 25.0101 28.3067 24.0651C28.5767 23.3751 29.2217 23.2251 29.8067 23.6901C31.4267 25.0251 32.4467 26.7351 33.0167 28.7301C33.4392 30.2114 33.6215 31.751 33.5567 33.2901L33.7667 33.1251L36.4367 30.5451C36.5557 30.4293 36.6301 30.2753 36.6467 30.1101C36.7067 28.4301 36.9917 26.7951 37.6817 25.2651C38.7317 22.9251 40.5017 21.3951 42.8717 20.5551C43.6367 20.2851 44.4467 20.1651 45.2417 20.0301C46.0367 19.8951 46.5767 20.2401 46.6067 21.2001C46.6507 22.8876 46.1742 24.5478 45.2417 25.9551C44.2517 27.4851 42.9167 28.6701 41.4017 29.6451C40.5317 30.2151 39.6317 30.7551 38.7017 31.2501C37.2917 32.0001 36.1967 33.0951 35.1617 34.2651C33.2293 36.475 31.8242 39.095 31.0524 41.9273C30.2807 44.7597 30.1625 47.7303 30.7067 50.6151C31.3622 54.1496 32.9872 57.4325 35.4002 60.0971C37.8132 62.7617 40.9193 64.7033 44.3717 65.7051L44.8667 65.8401C45.2267 65.9751 45.5267 65.9901 45.8867 65.7351C46.5467 65.2851 47.4917 65.5551 47.9267 66.2301C48.1467 66.5572 48.232 66.9566 48.1647 67.3451C48.0974 67.7336 47.8827 68.081 47.5655 68.3151C47.2482 68.5492 46.8529 68.6517 46.4619 68.6014C46.0709 68.5511 45.7143 68.3518 45.4667 68.0451C45.3401 67.8793 45.1598 67.7626 44.9567 67.7151C42.5177 67.1565 40.2003 66.1604 38.1167 64.7751L37.9367 64.6851Z" fill="white"/>
</svg>
