<svg width="60" height="60" viewBox="0 0 60 60" fill="none" xmlns="http://www.w3.org/2000/svg">
<path d="M29.9077 16.0949C30.4327 15.7049 30.9427 15.2999 31.4827 14.9549C32.7877 14.1449 34.2427 13.9199 35.7577 14.1449C37.0177 14.3399 38.1727 14.8049 39.0127 15.8249C40.052 17.0761 40.7358 18.5837 40.9927 20.1899C41.4277 22.7399 40.8427 25.0499 39.4777 27.2099C38.7188 28.4016 38.2892 29.7731 38.2327 31.1849C38.1427 32.6849 38.0827 34.1699 37.9627 35.6699C37.8577 36.8699 37.5127 38.0249 36.7777 39.0299C36.0427 40.0349 34.8427 40.4399 33.8377 40.1099C32.8327 39.7799 32.3377 39.1349 31.9477 38.2799C31.4227 37.1249 31.1977 35.8949 31.0027 34.6499C30.8395 33.6642 30.6242 32.6878 30.3577 31.7249C30.2977 31.4999 30.0727 31.3049 29.9227 31.0949C29.7577 31.3049 29.5177 31.4999 29.4577 31.7399C29.2047 32.6121 29.0044 33.4987 28.8577 34.3949C28.6477 35.7149 28.4527 37.0349 27.8827 38.2649C27.4477 39.2099 26.7877 39.9599 25.7227 40.1849C24.6577 40.4099 23.4277 39.7199 22.8277 38.7149C22.0627 37.4399 21.8527 36.0149 21.7627 34.5749C21.6727 33.1349 21.5977 31.7849 21.4927 30.4049C21.3877 29.0249 20.9077 28.1099 20.2777 27.0899C19.1527 25.2749 18.5677 23.3249 18.7027 21.1799C18.8109 19.2349 19.5359 17.3749 20.7727 15.8699C21.7477 14.6699 23.1127 14.2049 24.6127 14.0849C25.4564 14.0172 26.3051 14.1191 27.1089 14.3844C27.9126 14.6498 28.6551 15.0732 29.2927 15.6299C29.4877 15.7949 29.6977 15.9449 29.9077 16.0949ZM24.9577 17.6999C24.3727 17.6999 23.7427 17.9249 23.4877 18.2549C22.8939 18.9857 22.5194 19.8699 22.4077 20.8049C22.3772 21.0467 22.4414 21.291 22.5867 21.4866C22.7321 21.6823 22.9474 21.8142 23.1877 21.8549C23.6827 21.9299 24.1177 21.5849 24.2377 21.0749C24.335 20.693 24.4552 20.3173 24.5977 19.9499C24.6229 19.8282 24.6917 19.7198 24.7911 19.6453C24.8906 19.5707 25.0138 19.535 25.1377 19.5449C25.3339 19.5269 25.521 19.4541 25.6777 19.3349C25.8236 19.2077 25.9255 19.0376 25.9686 18.8489C26.0117 18.6603 25.9939 18.4628 25.9177 18.2849C25.7677 17.9099 25.4377 17.6999 24.9577 17.6999Z" fill="black"/>
<path d="M42.0435 44.7002L40.3785 45.6752C38.7267 46.5927 36.9544 47.2743 35.1135 47.7002C34.9983 47.7154 34.8881 47.7572 34.7918 47.8223C34.6955 47.8874 34.6156 47.974 34.5585 48.0752C34.1385 48.7502 33.1485 48.9302 32.4735 48.4952C32.1318 48.2764 31.8899 47.9318 31.8 47.5361C31.7102 47.1403 31.7797 46.7251 31.9935 46.3802C32.2018 46.0396 32.536 45.795 32.9236 45.6995C33.3112 45.604 33.7209 45.6653 34.0635 45.8702C34.149 45.9321 34.2482 45.9726 34.3526 45.9882C34.457 46.0039 34.5636 45.9943 34.6635 45.9602C37.8067 45.2177 40.715 43.7026 43.1247 41.5521C45.5344 39.4017 47.3695 36.684 48.4635 33.6452C49.046 32.0517 49.4093 30.3865 49.5435 28.6952C49.7355 26.4945 49.5478 24.2773 48.9885 22.1402C47.9085 18.0752 45.7635 14.7002 42.5085 12.0302C41.8935 11.5202 41.1285 11.1902 40.4385 10.7852C38.5335 9.72021 36.7635 8.52021 35.3685 6.81021C33.9735 5.10021 33.3135 3.27021 33.3885 1.12521C33.4185 0.270206 33.7935 -0.0597939 34.6335 0.0152061L35.2635 0.0752061C37.9335 0.525206 40.1385 1.75521 41.6535 4.06521C42.5835 5.46021 43.0335 7.05021 43.2285 8.71521C43.2735 9.16521 43.2735 9.63021 43.3335 10.0802C43.3563 10.2525 43.4294 10.4142 43.5435 10.5452L46.2135 13.1102C46.2707 13.1798 46.3502 13.2275 46.4385 13.2452C46.4385 12.7802 46.4085 12.3152 46.4385 11.8652C46.6335 9.12021 47.3685 6.60021 49.2885 4.53021C49.5929 4.19862 49.924 3.89259 50.2785 3.61521C50.3826 3.52712 50.5063 3.46521 50.6392 3.43465C50.7721 3.40408 50.9104 3.40576 51.0425 3.43952C51.1746 3.47329 51.2967 3.53817 51.3987 3.62874C51.5006 3.71932 51.5794 3.83297 51.6285 3.96021C52.7235 6.31521 53.4735 8.76021 53.3985 11.4002C53.3235 14.0402 52.3335 15.8102 50.0385 16.9352C49.7269 17.0807 49.4062 17.206 49.0785 17.3102C49.9637 19.0383 50.6048 20.8809 50.9835 22.7852C51.0435 22.6952 51.1035 22.6352 51.1335 22.5752C51.8835 21.0902 52.8585 19.7552 54.1935 18.7202C55.4051 17.772 56.8622 17.1892 58.3935 17.0402C58.9035 16.9952 59.3985 17.3552 59.3835 17.8652C59.3385 20.6852 58.8135 23.4002 56.9985 25.6802C55.6635 27.3602 53.8635 28.1402 51.7035 28.0502H51.4485C51.2985 29.1152 51.1935 30.1802 50.9835 31.2152C50.7735 32.2502 50.4585 33.2852 50.2035 34.3052C50.7885 34.1852 51.4035 34.0352 52.0335 33.9452C54.5012 33.5731 57.0235 33.8683 59.3385 34.8002C59.9835 35.0552 60.1935 35.6702 59.7885 36.2102C58.6035 37.8452 57.1785 39.1952 55.2585 39.9002C54.1514 40.3071 52.9375 40.3177 51.8235 39.9302C50.6278 39.5681 49.5642 38.8642 48.7635 37.9052L48.5535 37.6652C47.5763 39.367 46.37 40.9266 44.9685 42.3002C45.5385 42.4652 46.0935 42.5852 46.6335 42.7652C49.2135 43.6202 50.9535 45.3602 51.9135 47.8802C52.2585 48.8102 52.4385 49.7852 52.6485 50.7452C52.8135 51.4652 52.2885 51.9902 51.5535 51.8702C50.8185 51.7502 49.9935 51.5702 49.2285 51.3452C47.6159 50.8807 46.1255 50.0664 44.8635 48.9602C43.6103 47.8611 42.6644 46.4552 42.1185 44.8802C42.0973 44.8187 42.0722 44.7586 42.0435 44.7002Z" fill="black"/>
<path d="M17.9386 44.6851C17.5998 45.7115 17.0929 46.6746 16.4386 47.5351C15.2536 49.1101 13.6936 50.1901 11.8786 50.9401C10.7899 51.3997 9.64487 51.7125 8.47364 51.8701C7.69364 51.9751 7.19864 51.4951 7.31864 50.7301C7.64864 48.6601 8.30864 46.7251 9.71864 45.1351C11.1286 43.5451 12.8236 42.7351 14.8336 42.3751L15.0436 42.3301C13.644 40.9659 12.4378 39.4165 11.4586 37.7251C11.0236 38.1151 10.6336 38.5651 10.1686 38.9101C7.85864 40.6351 5.33864 40.6801 2.93864 38.9851C1.91782 38.259 1.02123 37.3726 0.283638 36.3601C-0.211362 35.7001 -0.0463615 35.0701 0.718638 34.7851C3.57848 33.6586 6.72765 33.4953 9.68864 34.3201L9.86864 34.3501C9.11891 32.3291 8.68874 30.2036 8.59364 28.0501C7.51364 28.1101 6.50864 28.0051 5.53364 27.6001C3.82364 26.8801 2.68364 25.6051 1.90364 23.9701C1.00364 22.0951 0.643638 20.1151 0.598638 18.0601C0.568638 17.3551 1.01864 16.9801 1.70864 17.0551C4.46864 17.4001 6.49364 18.8851 8.00864 21.1351C8.35364 21.6451 8.65364 22.2001 8.99864 22.7851C9.38244 20.8849 10.0286 19.0473 10.9186 17.3251L10.2136 17.0401C8.17364 16.1701 7.01864 14.6251 6.68864 12.4651C6.38864 10.5751 6.68864 8.73007 7.22864 6.93007C7.52864 5.95507 7.91864 5.01007 8.30864 4.06506C8.57864 3.37507 9.22364 3.22506 9.80864 3.69007C11.4286 5.02506 12.4486 6.73506 13.0186 8.73007C13.4411 10.2114 13.6234 11.751 13.5586 13.2901L13.7686 13.1251L16.4386 10.5451C16.5577 10.4293 16.632 10.2753 16.6486 10.1101C16.7086 8.43007 16.9936 6.79506 17.6836 5.26506C18.7336 2.92506 20.5036 1.39507 22.8736 0.555065C23.6386 0.285065 24.4486 0.165065 25.2436 0.030065C26.0386 -0.104935 26.5786 0.240065 26.6086 1.20007C26.6527 2.88763 26.1761 4.54783 25.2436 5.95507C24.2536 7.48507 22.9186 8.67007 21.4036 9.64507C20.5336 10.2151 19.6336 10.7551 18.7036 11.2501C17.2936 12.0001 16.1986 13.0951 15.1636 14.2651C13.2312 16.475 11.8261 19.095 11.0544 21.9273C10.2826 24.7597 10.1644 27.7303 10.7086 30.6151C11.3642 34.1496 12.9891 37.4325 15.4021 40.0971C17.8151 42.7617 20.9212 44.7033 24.3736 45.7051L24.8686 45.8401C25.2286 45.9751 25.5286 45.9901 25.8886 45.7351C26.5486 45.2851 27.4936 45.5551 27.9286 46.2301C28.1487 46.5572 28.2339 46.9566 28.1666 47.3451C28.0993 47.7336 27.8847 48.081 27.5674 48.3151C27.2502 48.5492 26.8548 48.6517 26.4638 48.6014C26.0728 48.5511 25.7163 48.3518 25.4686 48.0451C25.342 47.8793 25.1617 47.7626 24.9586 47.7151C22.5197 47.1565 20.2022 46.1604 18.1186 44.7751L17.9386 44.6851Z" fill="black"/>
</svg>
