<svg width="60" height="60" viewBox="0 0 60 60" fill="none" xmlns="http://www.w3.org/2000/svg">
<g clip-path="url(#clip0_915_46690)">
<path fill-rule="evenodd" clip-rule="evenodd" d="M41.91 38.2656C42.57 37.7706 43.455 37.7406 44.43 38.0556C46.26 38.6706 45.735 38.7306 47.61 38.0706C48.81 37.6506 49.905 37.7706 50.535 38.5206C51.165 39.2706 51.06 40.1106 50.955 40.9656C50.8077 42.1772 50.4147 43.3461 49.8 44.4006C50.1103 46.1846 50.0849 48.0109 49.725 49.7856C49.32 51.6306 48.51 52.2756 48.06 49.8006C48.0261 49.6072 48.0061 49.4117 48 49.2156C47.82 47.4456 47.67 45.6906 45.96 45.7056C44.4 46.0506 44.31 47.1906 44.19 48.9906C44.175 49.1106 44.145 49.5156 44.1 49.8006C43.695 52.2606 42.825 51.6906 42.45 49.8006C42.225 48.6606 42.105 46.8306 42.195 44.3856C41.685 43.2156 41.28 42.0156 41.145 40.8006C41.01 39.5856 41.025 38.9406 41.91 38.2656ZM25.2 27.4956C25.0923 27.4573 25.0024 27.3807 24.9476 27.2804C24.8927 27.1801 24.8768 27.063 24.9028 26.9517C24.9287 26.8404 24.9948 26.7425 25.0884 26.6768C25.182 26.6111 25.2965 26.5822 25.41 26.5956C27.0053 26.9956 28.6747 26.9956 30.27 26.5956C30.3872 26.568 30.5106 26.587 30.6141 26.6485C30.7176 26.7101 30.7932 26.8094 30.825 26.9256C30.8409 26.9847 30.8449 27.0463 30.8369 27.107C30.8289 27.1676 30.809 27.2261 30.7783 27.2791C30.7476 27.332 30.7068 27.3784 30.6582 27.4155C30.6096 27.4527 30.5541 27.4799 30.495 27.4956C29.6272 27.716 28.7353 27.8268 27.84 27.8256C26.9501 27.8202 26.0639 27.7095 25.2 27.4956ZM35.37 34.9956C34.59 34.2006 34.02 33.3456 33.435 32.5056L33.15 32.0856C31.755 33.1956 30.06 33.9006 27.84 33.8856C25.62 33.8706 23.67 32.9706 22.2 31.6356C22.11 31.5456 22.02 31.4706 21.945 31.3806C21.735 31.9806 21.465 32.6706 21.18 33.3306C20.9419 33.894 20.6558 34.436 20.325 34.9506C23.385 41.1606 32.445 41.3856 35.37 34.9956ZM27.225 3.52557H28.455C28.5624 3.52557 28.6654 3.56824 28.7414 3.64419C28.8173 3.72014 28.86 3.82315 28.86 3.93057V5.76057H30.69C30.8014 5.76057 30.9082 5.80482 30.987 5.88358C31.0657 5.96235 31.11 6.06917 31.11 6.18057V7.41057C31.11 7.46504 31.0991 7.51896 31.0778 7.5691C31.0565 7.61924 31.0253 7.66457 30.9861 7.70238C30.9469 7.74019 30.9005 7.7697 30.8496 7.78915C30.7987 7.8086 30.7444 7.81758 30.69 7.81557H28.86V9.64557C28.8601 9.75441 28.8179 9.85902 28.7423 9.93737C28.6668 10.0157 28.5638 10.0617 28.455 10.0656H27.225C27.1148 10.0618 27.0101 10.0164 26.9322 9.93841C26.8542 9.86044 26.8087 9.75577 26.805 9.64557V7.81557H24.99C24.9356 7.81758 24.8813 7.8086 24.8304 7.78915C24.7795 7.7697 24.7331 7.74019 24.6939 7.70238C24.6547 7.66457 24.6235 7.61924 24.6022 7.5691C24.5809 7.51896 24.57 7.46504 24.57 7.41057V6.18057C24.57 6.06917 24.6142 5.96235 24.693 5.88358C24.7718 5.80482 24.8786 5.76057 24.99 5.76057H26.805V3.93057C26.8089 3.82179 26.8548 3.71878 26.9332 3.64323C27.0115 3.56768 27.1162 3.5255 27.225 3.52557ZM46.05 30.6906C48.5482 30.6879 51.0013 31.3561 53.153 32.6254C55.3047 33.8947 57.0761 35.7186 58.2821 37.9065C59.488 40.0943 60.0843 42.5659 60.0087 45.0629C59.933 47.56 59.1882 49.9909 57.852 52.1018C56.5159 54.2126 54.6373 55.9259 52.4128 57.0627C50.1882 58.1995 47.6991 58.718 45.2056 58.5641C42.7122 58.4101 40.3058 57.5895 38.2379 56.1878C36.17 54.786 34.5164 52.8547 33.45 50.5956H3.045C1.14 50.4456 0.165 49.4556 0 47.7456C0.465 44.3556 0.57 43.6656 2.625 40.9656C3.34419 40.0394 4.24838 39.2731 5.28 38.7156C8.355 37.0056 16.44 36.4656 19.575 34.0806C19.7935 33.6925 19.9889 33.2918 20.16 32.8806C20.535 32.0256 20.88 31.1106 21.09 30.4656C20.175 29.4006 19.41 28.2006 18.66 27.0156L16.2 23.1006C15.315 21.7656 14.835 20.5356 14.82 19.5306C14.7964 19.0925 14.8787 18.6551 15.06 18.2556C15.2454 17.8597 15.5359 17.5225 15.9 17.2806C16.0856 17.154 16.2874 17.053 16.5 16.9806C16.3242 14.6399 16.2841 12.2909 16.38 9.94557C16.4305 9.40741 16.5309 8.87512 16.68 8.35557C20.52 -5.38443 38.97 -0.494434 39.78 10.8456L39.63 17.2206C39.948 17.304 40.2374 17.4723 40.4673 17.7074C40.6971 17.9426 40.8588 18.2357 40.935 18.5556C41.13 19.3356 40.92 20.4306 40.26 21.9156L40.215 21.9906L37.41 26.5956C36.375 28.2906 35.34 30.0006 33.975 31.3356L34.35 31.8606C34.791 32.547 35.2771 33.2034 35.805 33.8256C36.0415 34.0392 36.2976 34.23 36.57 34.3956C39.1506 32.0107 42.5361 30.6875 46.05 30.6906ZM54.15 36.5406C52.2762 34.6704 49.812 33.5076 47.1771 33.2504C44.5422 32.9931 41.8996 33.6573 39.6994 35.1298C37.4993 36.6022 35.8776 38.7919 35.1107 41.3258C34.3438 43.8597 34.4791 46.5811 35.4934 49.0265C36.5078 51.4718 38.3386 53.4899 40.6739 54.737C43.0092 55.984 45.7046 56.3829 48.301 55.8657C50.8974 55.3485 53.2342 53.9471 54.9133 51.9003C56.5925 49.8536 57.5101 47.288 57.51 44.6406C57.514 43.1352 57.2191 41.6441 56.6423 40.2536C56.0655 38.8631 55.2184 37.6011 54.15 36.5406ZM30.765 19.4256C30.669 19.3588 30.6028 19.2572 30.5804 19.1424C30.558 19.0276 30.5811 18.9086 30.645 18.8106C30.7095 18.7121 30.81 18.6428 30.925 18.6176C31.0399 18.5924 31.1602 18.6132 31.26 18.6756C31.5989 18.8614 31.9846 18.9448 32.37 18.9156C32.7691 18.9285 33.1639 18.8298 33.51 18.6306C33.5588 18.5977 33.6138 18.575 33.6716 18.564C33.7294 18.5529 33.7889 18.5538 33.8464 18.5664C33.9039 18.579 33.9582 18.6032 34.0061 18.6374C34.054 18.6716 34.0945 18.7152 34.125 18.7656C34.1874 18.8654 34.2082 18.9856 34.183 19.1006C34.1577 19.2156 34.0885 19.3161 33.99 19.3806C33.5039 19.6657 32.9485 19.811 32.385 19.8006C31.77 19.8156 31.155 19.6806 30.765 19.4256ZM37.335 16.8456C37.3111 16.3511 37.1386 15.8754 36.84 15.4806V15.4356C33.9 11.3256 19.365 9.45057 18.75 18.0756V18.1356L17.685 18.0456L17.76 18.3006L17.685 18.1356C17.3169 18.1392 16.9577 18.2485 16.65 18.4506C16.4925 18.5468 16.3671 18.6878 16.29 18.8556C16.2072 19.0656 16.1664 19.2898 16.17 19.5156C16.2 20.2656 16.59 21.2406 17.355 22.3656L19.815 26.2656C26.025 36.1356 31.68 33.3606 36.21 25.8756L39 21.3456C39.51 20.1606 39.705 19.3806 39.585 18.9156C39.465 18.4506 39.21 18.4956 38.7 18.4806H38.355L37.98 18.5106H37.935L37.335 16.8606V16.8456ZM21.81 19.4256C21.7176 19.357 21.655 19.2556 21.6351 19.1423C21.6151 19.029 21.6393 18.9124 21.7027 18.8164C21.7661 18.7204 21.8638 18.6523 21.9758 18.6261C22.0878 18.5999 22.2056 18.6176 22.305 18.6756C22.545 18.8556 22.965 18.9456 23.43 18.9456C23.8476 18.9527 24.2602 18.8547 24.63 18.6606C24.6785 18.6286 24.7332 18.607 24.7905 18.5973C24.8478 18.5875 24.9065 18.5897 24.9629 18.6038C25.0193 18.6179 25.0722 18.6436 25.1182 18.6792C25.1641 18.7148 25.2022 18.7595 25.23 18.8106C25.2859 18.9148 25.2999 19.0365 25.2693 19.1507C25.2386 19.265 25.1656 19.3633 25.065 19.4256C24.5601 19.689 23.9995 19.8279 23.43 19.8306C22.8 19.8306 22.2 19.6806 21.81 19.4256ZM21.63 17.4456C21.583 17.4799 21.5296 17.5044 21.473 17.5177C21.4164 17.531 21.3577 17.5328 21.3003 17.523C21.243 17.5132 21.1882 17.492 21.1392 17.4607C21.0902 17.4294 21.0479 17.3885 21.015 17.3406C20.9496 17.2444 20.924 17.1266 20.9436 17.0119C20.9632 16.8973 21.0264 16.7946 21.12 16.7256C21.7045 16.2842 22.4128 16.0376 23.145 16.0206C23.8916 16.0343 24.6153 16.2807 25.215 16.7256C25.3086 16.7946 25.3718 16.8973 25.3914 17.0119C25.411 17.1266 25.3854 17.2444 25.32 17.3406C25.2871 17.3885 25.2448 17.4294 25.1958 17.4607C25.1468 17.492 25.092 17.5132 25.0347 17.523C24.9773 17.5328 24.9186 17.531 24.862 17.5177C24.8054 17.5044 24.752 17.4799 24.705 17.4456C24.165 17.0856 23.655 16.9056 23.145 16.9056C22.5956 16.9206 22.0651 17.1097 21.63 17.4456ZM31.185 17.4456C31.138 17.4799 31.0846 17.5044 31.028 17.5177C30.9714 17.531 30.9126 17.5328 30.8553 17.523C30.798 17.5132 30.7432 17.492 30.6942 17.4607C30.6452 17.4294 30.6029 17.3885 30.57 17.3406C30.5046 17.2444 30.479 17.1266 30.4986 17.0119C30.5182 16.8973 30.5814 16.7946 30.675 16.7256C31.2595 16.2842 31.9678 16.0376 32.7 16.0206C33.4466 16.0343 34.1703 16.2807 34.77 16.7256C34.866 16.7924 34.9322 16.8939 34.9546 17.0087C34.977 17.1236 34.9538 17.2426 34.89 17.3406C34.8571 17.3885 34.8148 17.4294 34.7658 17.4607C34.7168 17.492 34.662 17.5132 34.6047 17.523C34.5473 17.5328 34.4886 17.531 34.432 17.5177C34.3754 17.5044 34.322 17.4799 34.275 17.4456C33.8154 17.1128 33.267 16.9248 32.7 16.9056C32.1511 16.9236 31.6215 17.1124 31.185 17.4456Z" fill="black"/>
</g>
<defs>
<clipPath id="clip0_915_46690">
<rect width="60" height="60" fill="white"/>
</clipPath>
</defs>
</svg>
