<svg width="70" height="60" viewBox="0 0 70 60" fill="none" xmlns="http://www.w3.org/2000/svg">
<path d="M35.001 28.545C35.806 28.05 36.5585 27.51 37.381 27.075C39.376 25.995 41.5985 25.71 43.891 26.01C45.7985 26.25 47.566 26.865 48.8435 28.185C50.418 29.8231 51.4567 31.7901 51.8535 33.885C52.5185 37.2 51.6085 40.23 49.5435 43.035C48.3987 44.5896 47.7473 46.3734 47.6535 48.21C47.5135 50.16 47.426 52.11 47.2335 54.045C47.0935 55.635 46.551 57.12 45.431 58.425C44.311 59.73 42.5085 60.285 40.9685 59.85C39.4285 59.415 38.6935 58.575 38.116 57.465C37.311 55.965 36.961 54.36 36.6635 52.725C36.436 51.435 36.051 50.175 35.6835 48.915C35.596 48.615 35.246 48.36 35.0185 48.09C34.7735 48.36 34.406 48.615 34.301 48.93C33.9275 50.0707 33.6238 51.2272 33.391 52.395C33.076 54.12 32.7785 55.845 31.921 57.435C31.2385 58.665 30.2585 59.64 28.631 59.94C27.0035 60.24 25.1485 59.325 24.221 58.02C23.0485 56.355 22.751 54.51 22.611 52.635C22.471 50.76 22.366 49.005 22.2085 47.19C22.051 45.375 21.316 44.205 20.3535 42.87C18.6385 40.515 17.746 37.965 17.956 35.175C18.1269 32.638 19.2294 30.2124 21.106 28.245C22.5935 26.7 24.676 26.085 26.951 25.935C29.6285 25.77 32.0085 26.46 34.056 27.945C34.3535 28.155 34.686 28.35 35.001 28.545ZM27.4585 30.645C26.5835 30.63 25.621 30.93 25.2185 31.365C24.3324 32.3216 23.7695 33.4682 23.591 34.68C23.5454 34.9952 23.6438 35.3133 23.8656 35.5678C24.0874 35.8222 24.4154 35.9932 24.781 36.045C25.516 36.15 26.181 35.7 26.3735 35.025C26.566 34.35 26.7235 34.05 26.916 33.57C26.9574 33.4127 27.0631 33.2733 27.2139 33.177C27.3648 33.0807 27.5509 33.0339 27.7385 33.045C28.0384 33.0179 28.3234 32.9192 28.561 32.76C29.016 32.46 29.156 31.875 28.9285 31.395C28.701 30.915 28.1935 30.645 27.4585 30.645Z" fill="black"/>
<path d="M35.0004 0L38.1854 8.385H48.4754L40.1454 13.575L43.3304 21.96L35.0004 16.77L26.6704 21.96L29.8554 13.575L21.5254 8.385H31.8154L35.0004 0Z" fill="black"/>
<path d="M57.0496 14.2202L59.0796 19.5752H65.6246L60.3221 22.8752L62.3521 28.2152L57.0496 24.9152L51.7471 28.2152L53.7771 22.8752L48.4746 19.5752H55.0196L57.0496 14.2202Z" fill="black"/>
<path d="M12.95 14.2202L14.98 19.5752H21.525L16.2225 22.8752L18.2525 28.2152L12.95 24.9152L7.6475 28.2152L9.6775 22.8752L4.375 19.5752H10.92L12.95 14.2202Z" fill="black"/>
</svg>
