<svg width="60" height="31" viewBox="0 0 60 31" fill="none" xmlns="http://www.w3.org/2000/svg">
<path d="M0 0.0772094H11.4983C13.52 0.074663 15.5223 0.471699 17.3908 1.24561C19.2594 2.01953 20.9574 3.15513 22.3879 4.5875C23.8183 6.01986 24.9531 7.72089 25.7274 9.5933C26.5016 11.4657 26.9001 13.4728 26.9001 15.4997C26.9001 19.59 25.2795 23.5128 22.3947 26.4051C19.5099 29.2973 15.5973 30.9222 11.5176 30.9222H0V0.0772094Z" fill="white"/>
<path d="M44.1954 31C52.7336 31 59.6552 24.0604 59.6552 15.5C59.6552 6.93959 52.7336 0 44.1954 0C35.6572 0 28.7355 6.93959 28.7355 15.5C28.7355 24.0604 35.6572 31 44.1954 31Z" fill="white"/>
</svg>
