<svg width="100" height="100" viewBox="0 0 100 100" fill="none" xmlns="http://www.w3.org/2000/svg">
<rect width="100" height="100" rx="50" fill="url(#paint0_linear_1712_10187)" style=""/>
<g clip-path="url(#clip0_1712_10187)">
<path d="M15.9993 33.6644H14.0065C13.8797 33.6644 13.8254 33.7369 13.8254 33.8637V38.9543C13.8224 38.9788 13.8251 39.0036 13.8332 39.0269C13.8413 39.0502 13.8545 39.0714 13.872 39.0888C13.8894 39.1063 13.9106 39.1195 13.9339 39.1276C13.9572 39.1357 13.982 39.1383 14.0065 39.1354H14.3326C14.3571 39.1383 14.3819 39.1357 14.4052 39.1276C14.4285 39.1195 14.4497 39.1063 14.4672 39.0888C14.4846 39.0714 14.4978 39.0502 14.5059 39.0269C14.514 39.0036 14.5167 38.9788 14.5138 38.9543V37.3782H16.0174C17.358 37.3782 18.0464 36.5811 18.0464 35.5485C18.0464 34.5159 17.4123 33.6644 15.9993 33.6644ZM16.0536 36.7985H14.5138V34.2622H15.9993C16.9051 34.2622 17.3399 34.9144 17.3399 35.5485C17.3452 35.7172 17.3153 35.8851 17.2521 36.0416C17.1888 36.1981 17.0937 36.3397 16.9726 36.4573C16.8516 36.575 16.7073 36.6661 16.5491 36.7248C16.3908 36.7835 16.2221 36.8086 16.0536 36.7985ZM19.4956 37.2876H20.9087L22.1587 39.0267C22.1829 39.0616 22.2155 39.0898 22.2535 39.1088C22.2915 39.1278 22.3336 39.137 22.3761 39.1354H22.7928C22.9377 39.1354 22.992 39.0448 22.9014 38.918L21.6696 37.2514C22.4848 37.0521 23.0101 36.4362 23.0101 35.4941C23.0204 35.2535 22.9806 35.0133 22.8931 34.7889C22.8057 34.5645 22.6727 34.3606 22.5023 34.1903C22.332 34.02 22.1282 33.8869 21.9038 33.7995C21.6793 33.7121 21.4392 33.6723 21.1985 33.6825H18.9884C18.8616 33.6825 18.8072 33.7369 18.8072 33.8637V38.9543C18.8043 38.9788 18.807 39.0036 18.8151 39.0269C18.8232 39.0502 18.8364 39.0714 18.8539 39.0888C18.8713 39.1063 18.8925 39.1195 18.9158 39.1276C18.9391 39.1357 18.9639 39.1383 18.9884 39.1354H19.3145C19.339 39.1383 19.3638 39.1357 19.3871 39.1276C19.4104 39.1195 19.4316 39.1063 19.449 39.0888C19.4665 39.0714 19.4797 39.0502 19.4878 39.0269C19.4959 39.0036 19.4986 38.9788 19.4956 38.9543V37.2876ZM19.4956 36.6898V34.2622H21.1261C22.0862 34.2622 22.3217 35.0775 22.3217 35.4941C22.3217 36.3275 21.7964 36.6898 21.0717 36.6898H19.4956ZM24.7855 33.6644H24.4413C24.4159 33.6643 24.3908 33.6695 24.3675 33.6797C24.3443 33.6899 24.3234 33.7049 24.3063 33.7237C24.2893 33.7425 24.2763 33.7647 24.2684 33.7888C24.2604 33.8129 24.2576 33.8384 24.2601 33.8637V38.9543C24.2572 38.9788 24.2599 39.0036 24.268 39.0269C24.2761 39.0502 24.2893 39.0714 24.3068 39.0888C24.3242 39.1063 24.3454 39.1195 24.3687 39.1276C24.392 39.1357 24.4168 39.1383 24.4413 39.1354H24.7855C24.81 39.1383 24.8348 39.1357 24.8581 39.1276C24.8814 39.1195 24.9026 39.1063 24.92 39.0888C24.9375 39.0714 24.9507 39.0502 24.9588 39.0269C24.9669 39.0036 24.9696 38.9788 24.9667 38.9543V33.8637C24.9692 33.8384 24.9664 33.8129 24.9584 33.7888C24.9505 33.7647 24.9375 33.7425 24.9205 33.7237C24.9034 33.7049 24.8825 33.6899 24.8593 33.6797C24.836 33.6695 24.8109 33.6643 24.7855 33.6644ZM28.3906 39.1354C28.4449 39.1354 28.4812 39.1173 28.5355 39.0086L30.8362 33.8818C30.8906 33.755 30.8362 33.6644 30.6913 33.6644H30.3109C30.2638 33.6617 30.2172 33.6744 30.178 33.7006C30.1388 33.7267 30.1091 33.7649 30.0935 33.8093L28.3906 37.668L26.7058 33.8093C26.6902 33.7649 26.6605 33.7267 26.6213 33.7006C26.5821 33.6744 26.5354 33.6617 26.4884 33.6644H26.0899C25.963 33.6644 25.8906 33.755 25.963 33.8818L28.2638 39.0086C28.3 39.1173 28.3362 39.1354 28.3906 39.1354ZM31.2529 38.9905L31.6696 38.1028H34.6225L35.0391 38.9905C35.0601 39.0349 35.0936 39.0722 35.1354 39.0979C35.1772 39.1236 35.2256 39.1366 35.2746 39.1354H35.6732C35.8 39.1354 35.8543 39.0267 35.8 38.8999L33.3 33.7912C33.2456 33.7006 33.2094 33.6644 33.1551 33.6644C33.1007 33.6644 33.0464 33.7006 33.0101 33.7912L30.5101 38.8999C30.4377 39.0267 30.492 39.1354 30.637 39.1354H31.0174C31.0665 39.1366 31.1148 39.1236 31.1566 39.0979C31.1984 39.0722 31.2319 39.0349 31.2529 38.9905ZM33.1551 34.9688L34.3326 37.505H31.9775L33.1551 34.9688ZM39.387 33.6644H35.7456C35.7203 33.6643 35.6951 33.6695 35.6719 33.6797C35.6486 33.6899 35.6278 33.7049 35.6107 33.7237C35.5936 33.7425 35.5807 33.7647 35.5727 33.7888C35.5648 33.8129 35.5619 33.8384 35.5645 33.8637V34.063C35.5616 34.0875 35.5643 34.1123 35.5723 34.1356C35.5804 34.1589 35.5937 34.1801 35.6111 34.1975C35.6285 34.2149 35.6497 34.2282 35.673 34.2363C35.6963 34.2444 35.7212 34.247 35.7456 34.2441H37.2312V38.9362C37.2312 39.063 37.2855 39.1354 37.4123 39.1354H37.7384C37.7638 39.1356 37.7889 39.1303 37.8122 39.1201C37.8354 39.1099 37.8563 39.0949 37.8734 39.0761C37.8904 39.0573 37.9034 39.0352 37.9113 39.0111C37.9193 38.9869 37.9221 38.9614 37.9196 38.9362V34.2441H39.387C39.5138 34.2441 39.5681 34.1898 39.5681 34.063V33.8637C39.5681 33.7369 39.5138 33.6644 39.387 33.6644ZM43.9703 33.6644H40.3833C40.365 33.6642 40.3469 33.668 40.3302 33.6755C40.3135 33.6829 40.2986 33.6939 40.2866 33.7077C40.2745 33.7215 40.2656 33.7377 40.2604 33.7552C40.2552 33.7728 40.2539 33.7912 40.2565 33.8093V38.9905C40.2539 39.0086 40.2552 39.0271 40.2604 39.0446C40.2656 39.0621 40.2745 39.0784 40.2866 39.0921C40.2986 39.1059 40.3135 39.1169 40.3302 39.1244C40.3469 39.1318 40.365 39.1356 40.3833 39.1354H43.9703C43.99 39.1385 44.0102 39.1369 44.0292 39.1307C44.0482 39.1245 44.0655 39.1139 44.0796 39.0998C44.0937 39.0857 44.1043 39.0684 44.1105 39.0494C44.1167 39.0304 44.1183 39.0102 44.1152 38.9905V38.6644C44.1154 38.6461 44.1116 38.628 44.1042 38.6113C44.0967 38.5946 44.0857 38.5797 44.0719 38.5677C44.0581 38.5556 44.0419 38.5467 44.0244 38.5415C44.0068 38.5363 43.9884 38.535 43.9703 38.5376H40.963V36.726H43.608C43.6416 36.726 43.6739 36.7126 43.6976 36.6889C43.7214 36.6651 43.7348 36.6328 43.7348 36.5992V36.2731C43.7374 36.255 43.7361 36.2365 43.7309 36.219C43.7257 36.2015 43.7168 36.1852 43.7047 36.1715C43.6927 36.1577 43.6778 36.1467 43.6611 36.1392C43.6444 36.1318 43.6263 36.128 43.608 36.1282H40.963V34.2622H43.9703C43.99 34.2653 44.0102 34.2637 44.0292 34.2575C44.0482 34.2513 44.0655 34.2408 44.0796 34.2266C44.0937 34.2125 44.1043 34.1952 44.1105 34.1762C44.1167 34.1572 44.1183 34.137 44.1152 34.1173V33.8093C44.1152 33.7188 44.0609 33.6825 43.9703 33.6825V33.6644Z" fill="white" style="fill:white;fill-opacity:1;"/>
<path d="M15.9995 33.7195H14.0068L13.8981 33.7557C13.885 33.7704 13.875 33.7876 13.8688 33.8063C13.8625 33.825 13.8602 33.8448 13.8619 33.8644V38.955C13.8631 38.9884 13.8759 39.0204 13.8981 39.0455C13.9162 39.0818 13.9524 39.0818 14.0068 39.0818H14.3329C14.3872 39.0818 14.4234 39.0818 14.4416 39.0455C14.4547 39.0308 14.4646 39.0136 14.4709 38.9949C14.4771 38.9762 14.4795 38.9565 14.4778 38.9369V37.3245H16.0177C16.6517 37.3245 17.1408 37.1615 17.4669 36.8535C17.6433 36.6868 17.7815 36.4839 17.8722 36.2588C17.9629 36.0337 18.0038 35.7916 17.9923 35.5492C18.0043 35.3013 17.9638 35.0537 17.8732 34.8226C17.7827 34.5915 17.6442 34.3823 17.4669 34.2086C17.1408 33.9006 16.6517 33.7195 15.9995 33.7195ZM14.0068 33.6289H15.9995C16.6698 33.6289 17.1771 33.81 17.5213 34.1361C17.715 34.3152 17.8672 34.5345 17.9673 34.7786C18.0675 35.0226 18.1131 35.2856 18.101 35.5492C18.1078 35.8067 18.0596 36.0627 17.9597 36.3001C17.8597 36.5375 17.7102 36.7509 17.5213 36.926C17.1001 37.2754 16.5644 37.4561 16.0177 37.4332H14.5684V38.9369C14.5728 38.9707 14.5685 39.0052 14.5558 39.0369C14.5431 39.0686 14.5225 39.0966 14.4959 39.118C14.4739 39.1377 14.448 39.1526 14.42 39.162C14.392 39.1713 14.3623 39.1749 14.3329 39.1724H14.0068C13.9422 39.1737 13.8788 39.1547 13.8256 39.118C13.8045 39.0932 13.7888 39.0643 13.7795 39.0331C13.7701 39.0019 13.7673 38.9692 13.7713 38.9369V33.8644C13.7671 33.7994 13.7864 33.7352 13.8256 33.6832C13.8788 33.6466 13.9422 33.6275 14.0068 33.6289ZM16.0539 36.8354H14.4778V34.2086H15.9995C16.3661 34.1955 16.7234 34.3254 16.9959 34.5709C17.1243 34.6991 17.2257 34.8517 17.2941 35.0197C17.3626 35.1877 17.3967 35.3678 17.3945 35.5492C17.3963 35.7235 17.3636 35.8965 17.2983 36.0582C17.233 36.2198 17.1364 36.367 17.014 36.4912C16.8847 36.6093 16.7333 36.7005 16.5685 36.7596C16.4037 36.8187 16.2287 36.8444 16.0539 36.8354ZM14.5684 36.7448H16.0539C16.2162 36.7537 16.3787 36.7293 16.5313 36.6733C16.684 36.6172 16.8236 36.5306 16.9416 36.4187C17.0577 36.3059 17.1497 36.1706 17.212 36.0211C17.2743 35.8717 17.3055 35.7111 17.3039 35.5492C17.3049 35.3803 17.2718 35.213 17.2064 35.0573C17.141 34.9017 17.0448 34.7608 16.9234 34.6434C16.8028 34.5236 16.6579 34.431 16.4986 34.3716C16.3393 34.3123 16.1692 34.2876 15.9995 34.2992H14.5684V36.7448ZM19.4959 37.234H20.9271L22.1952 38.9912L22.2858 39.0637H22.8836C22.8836 39.0589 22.8855 39.0543 22.8889 39.0509C22.8923 39.0475 22.8969 39.0455 22.9017 39.0455C22.8945 39.0136 22.8823 38.983 22.8655 38.955L21.5974 37.234H21.6517C22.04 37.1613 22.3881 36.9485 22.63 36.6361C22.8611 36.3087 22.9759 35.9133 22.9561 35.5129C22.9618 35.2798 22.9216 35.0478 22.8377 34.8302C22.7537 34.6126 22.6278 34.4137 22.4669 34.2448C22.3016 34.0766 22.1041 33.9435 21.8863 33.8532C21.6684 33.7629 21.4346 33.7175 21.1988 33.7195H18.9887L18.88 33.7557C18.8619 33.7738 18.8619 33.81 18.8619 33.8644V38.9369C18.8619 38.9912 18.8619 39.0274 18.88 39.0455L18.9887 39.0818H19.3148L19.4234 39.0455C19.4366 39.0308 19.4465 39.0136 19.4528 38.9949C19.459 38.9762 19.4613 38.9565 19.4597 38.9369V37.234H19.4959ZM20.8908 37.3427H19.5503V38.9369C19.5542 38.9692 19.5514 39.0019 19.5421 39.0331C19.5327 39.0643 19.517 39.0932 19.4959 39.118C19.4427 39.1547 19.3793 39.1737 19.3148 39.1724H18.9887C18.9592 39.1749 18.9296 39.1713 18.9015 39.162C18.8735 39.1526 18.8477 39.1377 18.8256 39.118C18.799 39.0966 18.7784 39.0686 18.7657 39.0369C18.753 39.0052 18.7487 38.9707 18.7532 38.9369V33.8644C18.7503 33.8306 18.7553 33.7967 18.7679 33.7652C18.7805 33.7338 18.8003 33.7057 18.8256 33.6832C18.8477 33.6636 18.8735 33.6486 18.9015 33.6393C18.9296 33.6299 18.9592 33.6264 18.9887 33.6289H21.1988C21.4464 33.6191 21.6934 33.6607 21.9241 33.7511C22.1549 33.8415 22.3644 33.9788 22.5394 34.1542C22.7108 34.3284 22.8457 34.5352 22.9359 34.7623C23.0261 34.9894 23.0699 35.2324 23.0648 35.4767C23.0752 35.8982 22.948 36.3116 22.7024 36.6542C22.4607 36.9617 22.1225 37.1787 21.7423 37.2702L22.9379 38.8825C22.9689 38.925 22.9876 38.9751 22.9923 39.0274C22.9927 39.0528 22.9864 39.0777 22.9742 39.0999C22.9561 39.118 22.9561 39.1361 22.9379 39.1361C22.8962 39.1665 22.8442 39.1795 22.793 39.1724H22.2314C22.1908 39.1408 22.1543 39.1043 22.1227 39.0637L20.8727 37.3608L20.8908 37.3427ZM19.4597 36.6905V34.2086H21.1263C21.2901 34.201 21.4537 34.2277 21.6065 34.287C21.7594 34.3463 21.8982 34.4368 22.014 34.5528C22.244 34.8059 22.3729 35.1347 22.3763 35.4767C22.388 35.6463 22.3633 35.8165 22.3039 35.9758C22.2446 36.1351 22.1519 36.2799 22.0321 36.4006C21.9026 36.5172 21.7506 36.6062 21.5856 36.6623C21.4205 36.7183 21.2458 36.7403 21.072 36.7267H19.4597V36.6905ZM19.5503 34.2992V36.6361H21.072C21.3997 36.657 21.7231 36.5534 21.9778 36.3463C22.1827 36.1045 22.2865 35.7931 22.2677 35.4767C22.2693 35.1567 22.1533 34.8472 21.9416 34.6071C21.8343 34.5023 21.7065 34.4209 21.5662 34.3679C21.4259 34.3149 21.2761 34.2915 21.1263 34.2992H19.5503ZM24.7858 33.7195H24.4416L24.351 33.7557C24.3148 33.7738 24.3148 33.81 24.3148 33.8644V38.955C24.3148 38.9912 24.3148 39.0274 24.351 39.0455C24.3872 39.0637 24.4053 39.0818 24.4416 39.0818H24.7858C24.822 39.0818 24.8582 39.0818 24.8763 39.0455C24.8945 39.0093 24.9126 38.9912 24.9126 38.9369V33.8644C24.9126 33.81 24.9126 33.7738 24.8763 33.7557L24.7858 33.7195ZM24.4416 33.6289H24.7858C24.8152 33.6264 24.8449 33.6299 24.8729 33.6393C24.9009 33.6486 24.9268 33.6636 24.9488 33.6832C24.988 33.7352 25.0073 33.7994 25.0032 33.8644V38.9369C25.0071 38.9692 25.0043 39.0019 24.995 39.0331C24.9856 39.0643 24.9699 39.0932 24.9488 39.118C24.9268 39.1377 24.9009 39.1526 24.8729 39.162C24.8449 39.1713 24.8152 39.1749 24.7858 39.1724H24.4416C24.4121 39.1749 24.3825 39.1713 24.3544 39.162C24.3264 39.1526 24.3006 39.1377 24.2785 39.118C24.2574 39.0932 24.2417 39.0643 24.2324 39.0331C24.223 39.0019 24.2202 38.9692 24.2242 38.9369V33.8644C24.22 33.7994 24.2393 33.7352 24.2785 33.6832C24.3006 33.6636 24.3264 33.6486 24.3544 33.6393C24.3825 33.6299 24.4121 33.6264 24.4416 33.6289ZM28.3908 39.0818H28.4452L28.4814 39.0093L30.8003 33.8644C30.8003 33.8463 30.8184 33.81 30.8184 33.7919C30.8184 33.7738 30.8003 33.7738 30.8003 33.7557H30.2024L30.1481 33.8463L28.3908 37.7774L26.6698 33.8282C26.6562 33.7908 26.6308 33.759 26.5974 33.7376H25.9995V33.7738C25.9968 33.7993 26.0032 33.825 26.0176 33.8463L28.3003 38.9912C28.3184 39.0274 28.3365 39.0637 28.3546 39.0637L28.3908 39.0818ZM28.4995 39.1361C28.4855 39.1503 28.4684 39.1609 28.4495 39.1672C28.4306 39.1735 28.4105 39.1753 28.3908 39.1724C28.3546 39.1724 28.3184 39.1724 28.3003 39.1361C28.2813 39.124 28.2651 39.1081 28.2527 39.0894C28.2402 39.0706 28.2317 39.0496 28.2278 39.0274L25.909 33.9006C25.8944 33.8663 25.8882 33.8291 25.8908 33.7919C25.8853 33.7605 25.8917 33.7282 25.909 33.7013L25.9814 33.647H26.4887C26.5611 33.647 26.6155 33.647 26.6517 33.6832L26.7604 33.81L28.3908 37.56L30.0575 33.7919C30.077 33.7378 30.1157 33.6927 30.1662 33.6651C30.208 33.6347 30.2599 33.6217 30.3111 33.6289H30.8184L30.8908 33.6832C30.8987 33.713 30.9047 33.7433 30.909 33.7738C30.9053 33.8123 30.8929 33.8495 30.8727 33.8825L28.572 39.0274C28.557 39.069 28.5322 39.1063 28.4995 39.1361ZM31.2169 38.9731L31.6517 38.0492H34.659L35.0937 38.9731L35.1662 39.0637H35.764C35.7821 39.0455 35.7821 39.0455 35.7821 39.0274C35.785 38.9961 35.7787 38.9647 35.764 38.9369L33.264 33.81C33.2459 33.7557 33.2278 33.7376 33.2097 33.7376H33.101C33.0829 33.7376 33.0829 33.7557 33.0648 33.81L30.5466 38.9187C30.5466 38.955 30.5285 38.9731 30.5285 39.0093C30.5297 39.0233 30.5362 39.0363 30.5466 39.0455H31.1445L31.2169 38.955V38.9731ZM31.7061 38.1398L31.2894 39.0093C31.2699 39.0634 31.2312 39.1086 31.1807 39.1361L31.0358 39.1724H30.5285C30.5104 39.1542 30.4742 39.1361 30.4742 39.118C30.4554 39.0844 30.4431 39.0475 30.4379 39.0093C30.4417 38.9651 30.454 38.922 30.4742 38.8825L32.9742 33.7557L33.0466 33.647H33.264C33.2821 33.6832 33.3184 33.7013 33.3365 33.7557L35.8546 38.8825C35.8695 38.923 35.8756 38.9662 35.8727 39.0093C35.8739 39.0405 35.8677 39.0715 35.8546 39.0999L35.7821 39.1542H35.2749L35.1119 39.118L35.0032 38.9912L34.6046 38.1398H31.7061ZM33.2097 34.9513L34.4234 37.5419H31.9053L33.1734 34.8608L33.2097 34.9513ZM34.2604 37.4513L33.1553 35.0782L32.0503 37.4513H34.2604ZM39.3872 33.7195H35.7459L35.6553 33.7557C35.6191 33.7738 35.6191 33.81 35.6191 33.8644V34.0637C35.6191 34.118 35.6191 34.1542 35.6553 34.1724L35.7459 34.2086H37.2677V38.9369C37.266 38.9565 37.2683 38.9762 37.2746 38.9949C37.2808 39.0136 37.2908 39.0308 37.3039 39.0455L37.4126 39.0818H37.7387L37.8474 39.0455C37.8655 39.0274 37.8655 38.9912 37.8655 38.9369V34.2086H39.3872L39.4959 34.1724C39.509 34.1577 39.519 34.1404 39.5252 34.1217C39.5315 34.1031 39.5338 34.0833 39.5321 34.0637V33.8463C39.5309 33.8128 39.5181 33.7808 39.4959 33.7557C39.4778 33.7195 39.4416 33.7195 39.3872 33.7195ZM35.7459 33.6289H39.3872C39.4518 33.6275 39.5152 33.6466 39.5684 33.6832C39.5895 33.708 39.6052 33.7369 39.6145 33.7681C39.6239 33.7993 39.6267 33.8321 39.6227 33.8644V34.0637C39.6241 34.1283 39.605 34.1916 39.5684 34.2448C39.5164 34.284 39.4522 34.3033 39.3872 34.2992H37.9742V38.9369C37.977 38.9706 37.972 39.0046 37.9594 39.036C37.9468 39.0675 37.9271 39.0956 37.9017 39.118C37.8797 39.1377 37.8538 39.1526 37.8258 39.162C37.7978 39.1713 37.7681 39.1749 37.7387 39.1724H37.4126C37.3831 39.1749 37.3535 39.1713 37.3255 39.162C37.2974 39.1526 37.2716 39.1377 37.2495 39.118C37.2242 39.0956 37.2044 39.0675 37.1918 39.036C37.1793 39.0046 37.1742 38.9706 37.1771 38.9369V34.2992H35.7459C35.7165 34.3017 35.6868 34.2981 35.6588 34.2888C35.6308 34.2794 35.6049 34.2645 35.5829 34.2448C35.5408 34.1932 35.5155 34.13 35.5104 34.0637V33.8644C35.5088 33.8308 35.5145 33.7972 35.527 33.766C35.5395 33.7347 35.5585 33.7065 35.5829 33.6832C35.6049 33.6636 35.6308 33.6486 35.6588 33.6393C35.6868 33.6299 35.7165 33.6264 35.7459 33.6289ZM43.9705 33.7195H40.3292C40.3111 33.7376 40.3111 33.7557 40.3111 33.7919V38.9912C40.3111 39.0274 40.3111 39.0455 40.3292 39.0637H44.043C44.043 39.0455 44.0611 39.0274 44.0611 38.9912V38.6651C44.058 38.6462 44.0519 38.6278 44.043 38.6108C44.0346 38.5995 44.0236 38.5904 44.0111 38.5841C43.9985 38.5778 43.9846 38.5745 43.9705 38.5745H40.909V36.6724H43.6082C43.6263 36.6724 43.6626 36.6724 43.6626 36.6542C43.6626 36.6361 43.6988 36.618 43.6988 36.5999V36.2738C43.6988 36.2376 43.6807 36.2195 43.6807 36.2013H40.909V34.2086H44.043C44.0611 34.1905 44.0611 34.1724 44.0611 34.1361V33.81C44.0611 33.7738 44.0611 33.7557 44.043 33.7376L43.9705 33.7195ZM40.3836 33.6289H43.9705L44.0974 33.6651C44.1156 33.6844 44.1298 33.7072 44.1392 33.7321C44.1485 33.757 44.1528 33.7835 44.1517 33.81V34.118C44.1525 34.1418 44.148 34.1655 44.1386 34.1875C44.1292 34.2094 44.1151 34.2289 44.0974 34.2448C44.0824 34.2637 44.063 34.2786 44.0408 34.2881C44.0187 34.2975 43.9945 34.3014 43.9705 34.2992H40.9995V36.0927H43.6082L43.735 36.1289C43.7533 36.1482 43.7675 36.171 43.7769 36.1959C43.7862 36.2207 43.7905 36.2472 43.7894 36.2738V36.5999C43.7894 36.6479 43.7703 36.694 43.7363 36.728C43.7024 36.762 43.6563 36.7811 43.6082 36.7811H40.9995V38.484H43.9705C43.9945 38.4818 44.0187 38.4856 44.0408 38.4951C44.063 38.5046 44.0824 38.5194 44.0974 38.5383C44.1151 38.5542 44.1292 38.5738 44.1386 38.5957C44.148 38.6176 44.1525 38.6413 44.1517 38.6651V38.9912C44.1517 39.0392 44.1326 39.0853 44.0986 39.1193C44.0647 39.1533 44.0186 39.1724 43.9705 39.1724H40.3836C40.3598 39.1731 40.3361 39.1687 40.3142 39.1593C40.2922 39.1499 40.2727 39.1358 40.2568 39.118C40.2379 39.1031 40.223 39.0836 40.2136 39.0615C40.2041 39.0393 40.2002 39.0152 40.2024 38.9912V33.81C40.2014 33.7835 40.2056 33.757 40.215 33.7321C40.2243 33.7072 40.2385 33.6844 40.2568 33.6651L40.3836 33.6289Z" fill="white" style="fill:white;fill-opacity:1;"/>
<path d="M45.8012 39.1362H47.6852C49.2976 39.1362 50.3483 38.2304 50.3483 36.4007C50.3483 34.571 49.2794 33.6652 47.6852 33.6652H45.8012C45.6925 33.6652 45.6562 33.7195 45.6562 33.8282V38.9913C45.6562 39.0818 45.6925 39.1362 45.8012 39.1362ZM46.1091 38.7376V34.0818H47.5947C48.428 34.0818 49.8954 34.3898 49.8954 36.4188C49.8954 38.4478 48.428 38.7376 47.5947 38.7376H46.1091ZM51.5439 39.1362H54.986C55.0057 39.1393 55.0259 39.1377 55.0449 39.1315C55.0639 39.1253 55.0811 39.1147 55.0953 39.1006C55.1094 39.0865 55.12 39.0692 55.1262 39.0502C55.1324 39.0312 55.134 39.011 55.1309 38.9913V38.8826C55.1309 38.7739 55.0765 38.7376 54.986 38.7376H51.8519V36.6543H54.5874C54.6961 36.6543 54.7505 36.6 54.7505 36.5094V36.4007C54.7505 36.3101 54.6961 36.2558 54.5874 36.2558H51.8519V34.0818H54.986C55.0765 34.0818 55.1309 34.0275 55.1309 33.9188V33.8101C55.134 33.7904 55.1324 33.7702 55.1262 33.7512C55.12 33.7322 55.1094 33.7149 55.0953 33.7008C55.0811 33.6867 55.0639 33.6761 55.0449 33.6699C55.0259 33.6637 55.0057 33.6621 54.986 33.6652H51.5439C51.5242 33.6621 51.504 33.6637 51.485 33.6699C51.466 33.6761 51.4487 33.6867 51.4346 33.7008C51.4205 33.7149 51.4099 33.7322 51.4037 33.7512C51.3975 33.7702 51.3959 33.7904 51.399 33.8101V38.9732C51.399 39.0818 51.4534 39.1362 51.5439 39.1362ZM56.2903 39.1362H56.4352C56.5439 39.1362 56.5983 39.0818 56.5983 38.9913V34.6978L60.5476 39.0456C60.6019 39.1 60.6381 39.1362 60.6925 39.1362C60.7468 39.1362 60.7649 39.0818 60.7649 39.0456V33.8282C60.7649 33.7195 60.7287 33.6652 60.62 33.6652H60.457C60.3664 33.6652 60.312 33.7195 60.312 33.8282V38.0855L56.3628 33.7558C56.3084 33.7014 56.2722 33.6652 56.2178 33.6652C56.1635 33.6652 56.1454 33.7014 56.1454 33.7558V38.9913C56.1454 39.0818 56.1816 39.1362 56.2903 39.1362ZM63.6273 39.1362H63.7903C63.81 39.1393 63.8302 39.1377 63.8492 39.1315C63.8682 39.1253 63.8855 39.1147 63.8996 39.1006C63.9138 39.0865 63.9243 39.0692 63.9305 39.0502C63.9367 39.0312 63.9383 39.011 63.9352 38.9913V34.0818H65.5113C65.5334 34.0848 65.5559 34.0827 65.5771 34.0755C65.5982 34.0684 65.6174 34.0565 65.6332 34.0407C65.649 34.0249 65.6609 34.0057 65.6681 33.9846C65.6752 33.9634 65.6774 33.9409 65.6744 33.9188V33.8282C65.6774 33.8061 65.6752 33.7836 65.6681 33.7625C65.6609 33.7413 65.649 33.7221 65.6332 33.7063C65.6174 33.6905 65.5982 33.6786 65.5771 33.6715C65.5559 33.6643 65.5334 33.6622 65.5113 33.6652H61.9244C61.8157 33.6652 61.7794 33.7195 61.7794 33.8282V33.9188C61.7794 34.0275 61.8157 34.0818 61.9244 34.0818H63.4823V38.9913C63.4792 39.011 63.4809 39.0312 63.487 39.0502C63.4932 39.0692 63.5038 39.0865 63.5179 39.1006C63.5321 39.1147 63.5493 39.1253 63.5683 39.1315C63.5873 39.1377 63.6075 39.1393 63.6273 39.1362ZM66.7251 39.1362H66.87C66.9787 39.1362 67.0149 39.0818 67.0149 38.9913V33.8282C67.0149 33.7195 66.9787 33.6652 66.87 33.6652H66.7251C66.703 33.6622 66.6805 33.6643 66.6593 33.6715C66.6382 33.6786 66.619 33.6905 66.6032 33.7063C66.5874 33.7221 66.5755 33.7413 66.5683 33.7625C66.5612 33.7836 66.5591 33.8061 66.562 33.8282V38.9913C66.562 39.0818 66.6164 39.1362 66.7251 39.1362ZM70.312 39.2449C71.4534 39.2449 72.2505 38.7376 72.2505 37.7232C72.2505 36.7087 71.1816 36.3282 70.5476 36.2014C69.9135 36.0746 68.591 35.9478 68.591 35.1145C68.591 34.2811 69.4787 33.9732 70.0222 33.9732C70.5282 33.9797 71.0229 34.1237 71.4534 34.3898C71.4897 34.4103 71.5324 34.416 71.5729 34.4059C71.6133 34.3958 71.6483 34.3706 71.6707 34.3355L71.7251 34.2268C71.7794 34.1362 71.7613 34.0637 71.6889 34.0275C71.2004 33.7226 70.6342 33.5654 70.0584 33.5746C69.2251 33.5746 68.1381 33.955 68.1381 35.1326C68.1381 36.3101 69.5149 36.455 70.1309 36.5818C70.7468 36.7087 71.7976 36.9261 71.7976 37.7232C71.7976 38.5203 71.2541 38.8463 70.2758 38.8463C69.6681 38.8473 69.0744 38.6641 68.5729 38.321C68.5557 38.3082 68.5359 38.2994 68.5149 38.2952C68.4938 38.291 68.4722 38.2915 68.4514 38.2967C68.4306 38.3019 68.4112 38.3117 68.3946 38.3253C68.378 38.3389 68.3647 38.356 68.3555 38.3753L68.2831 38.484C68.2703 38.5012 68.2615 38.5211 68.2573 38.5421C68.2531 38.5631 68.2536 38.5848 68.2588 38.6056C68.264 38.6264 68.2738 38.6457 68.2874 38.6623C68.3009 38.6789 68.318 38.6922 68.3374 38.7014C68.9233 39.0831 69.6134 39.273 70.312 39.2449ZM74.2976 39.1362H74.4606C74.4803 39.1393 74.5005 39.1377 74.5195 39.1315C74.5385 39.1253 74.5558 39.1147 74.5699 39.1006C74.584 39.0865 74.5946 39.0692 74.6008 39.0502C74.607 39.0312 74.6086 39.011 74.6055 38.9913V34.0818H76.1997C76.2903 34.0818 76.3447 34.0275 76.3447 33.9188V33.8282C76.3447 33.7195 76.2903 33.6652 76.1997 33.6652H72.5947C72.5041 33.6652 72.4497 33.7195 72.4497 33.8282V33.9188C72.4497 34.0275 72.5041 34.0818 72.5947 34.0818H74.1526V38.9913C74.1495 39.011 74.1511 39.0312 74.1573 39.0502C74.1635 39.0692 74.1741 39.0865 74.1882 39.1006C74.2024 39.1147 74.2196 39.1253 74.2386 39.1315C74.2576 39.1377 74.2778 39.1393 74.2976 39.1362ZM77.4678 39.1362H77.6309C77.6506 39.1393 77.6708 39.1377 77.6898 39.1315C77.7088 39.1253 77.7261 39.1147 77.7402 39.1006C77.7543 39.0865 77.7649 39.0692 77.7711 39.0502C77.7773 39.0312 77.7789 39.011 77.7758 38.9913V37.1978H79.4062L80.7287 39.0456C80.7493 39.0743 80.7765 39.0975 80.8081 39.1133C80.8397 39.1291 80.8746 39.1369 80.9099 39.1362H81.1273C81.2541 39.1362 81.2903 39.0456 81.2178 38.955L79.9497 37.1797C80.9099 37.0347 81.4352 36.3463 81.4352 35.4405C81.4352 34.5347 80.7106 33.6652 79.6961 33.6652H77.4678C77.3773 33.6652 77.3229 33.7195 77.3229 33.8282V38.9913C77.3198 39.011 77.3214 39.0312 77.3276 39.0502C77.3338 39.0692 77.3444 39.0865 77.3585 39.1006C77.3727 39.1147 77.3899 39.1253 77.4089 39.1315C77.4279 39.1377 77.4481 39.1393 77.4678 39.1362ZM77.7758 36.7811V34.0818H79.6418C80.7287 34.0818 80.9823 34.9695 80.9823 35.4405C80.9823 36.3826 80.2758 36.7811 79.6418 36.7811H77.7758ZM83.9715 39.1362H84.1345C84.1542 39.1393 84.1744 39.1377 84.1934 39.1315C84.2124 39.1253 84.2297 39.1147 84.2438 39.1006C84.258 39.0865 84.2685 39.0692 84.2747 39.0502C84.2809 39.0312 84.2825 39.011 84.2794 38.9913V37.071L86.2178 33.8463C86.2352 33.8292 86.2463 33.8068 86.2494 33.7826C86.2524 33.7584 86.2473 33.7339 86.2347 33.713C86.2222 33.6921 86.203 33.676 86.1802 33.6674C86.1574 33.6587 86.1324 33.6579 86.1091 33.6652H85.9099C85.8729 33.6664 85.8369 33.677 85.8052 33.696C85.7735 33.7151 85.7472 33.7419 85.7287 33.7739L84.062 36.5637L82.4135 33.7739C82.395 33.7419 82.3687 33.7151 82.337 33.696C82.3053 33.677 82.2693 33.6664 82.2323 33.6652H82.0331C81.9244 33.6652 81.87 33.7558 81.9425 33.8463L83.8265 37.071V38.9913C83.8234 39.011 83.8251 39.0312 83.8312 39.0502C83.8374 39.0692 83.848 39.0865 83.8622 39.1006C83.8763 39.1147 83.8935 39.1253 83.9125 39.1315C83.9315 39.1377 83.9517 39.1393 83.9715 39.1362Z" fill="white" style="fill:white;fill-opacity:1;"/>
<path d="M20.328 46.4191L20.5635 45.948H22.2121L22.4476 46.4191C22.459 46.4476 22.4792 46.4717 22.5053 46.488C22.5313 46.5043 22.5619 46.5118 22.5925 46.5096H23.0454C23.1541 46.5096 23.1903 46.4372 23.136 46.3466L21.4874 43.0676C21.4512 42.9951 21.415 42.9951 21.3968 42.9951C21.3787 42.9951 21.3244 42.9951 21.3063 43.0676L19.6396 46.3466C19.6302 46.3629 19.6252 46.3813 19.625 46.4001C19.6248 46.4189 19.6296 46.4374 19.6387 46.4538C19.6478 46.4702 19.661 46.484 19.6771 46.4938C19.6931 46.5036 19.7114 46.509 19.7302 46.5096H20.1831C20.2156 46.509 20.2474 46.5004 20.2758 46.4846C20.3043 46.4688 20.3284 46.4463 20.3461 46.4191H20.328ZM21.3787 44.2633L21.886 45.3683H20.8896L21.3968 44.2633H21.3787ZM29.4041 43.1038L28.7338 44.9336L27.9005 43.0676C27.8642 42.9951 27.8461 42.9951 27.828 42.9951C27.8099 42.9951 27.7737 42.9951 27.7555 43.0676L26.9041 44.9154L26.2519 43.1038C26.2437 43.072 26.2249 43.0438 26.1985 43.0241C26.1722 43.0043 26.1399 42.9941 26.107 42.9951H25.6722C25.5635 42.9951 25.5273 43.0495 25.5635 43.1401L26.7592 46.4372C26.7954 46.5096 26.8135 46.5096 26.8316 46.5096C26.8497 46.5096 26.886 46.5096 26.9041 46.4372L27.828 44.3901L28.7338 46.4372L28.8063 46.5096C28.8425 46.5096 28.8606 46.5096 28.8787 46.4372L30.0925 43.1401C30.1287 43.0495 30.0925 42.9951 30.0019 42.9951H29.549C29.5161 42.9941 29.4838 43.0043 29.4575 43.0241C29.4311 43.0438 29.4123 43.072 29.4041 43.1038ZM33.1903 46.4191L33.4258 45.948H35.0744L35.2918 46.4191C35.3095 46.4463 35.3336 46.4688 35.362 46.4846C35.3905 46.5004 35.4223 46.509 35.4548 46.5096H35.9077C35.9983 46.5096 36.0345 46.4372 35.9983 46.3466L34.3316 43.0676C34.3135 42.9951 34.2773 42.9951 34.241 42.9951C34.2048 42.9951 34.1867 42.9951 34.1505 43.0676L32.5019 46.3466C32.4476 46.4372 32.4838 46.5096 32.5925 46.5096H33.0454C33.076 46.5118 33.1066 46.5043 33.1326 46.488C33.1587 46.4717 33.1789 46.4476 33.1903 46.4191ZM34.241 44.2633L34.7483 45.3683H33.7519L34.241 44.2633ZM39.7845 45.3864H40.4548L41.2157 46.4191C41.2334 46.4463 41.2575 46.4688 41.286 46.4846C41.3144 46.5004 41.3462 46.509 41.3787 46.5096H41.886C41.9947 46.5096 42.0309 46.4372 41.9584 46.3466L41.1976 45.3321C41.6505 45.2053 41.9222 44.7343 41.9222 44.2089C41.9326 44.0484 41.909 43.8874 41.8528 43.7367C41.7967 43.5859 41.7093 43.4487 41.5964 43.3341C41.4835 43.2195 41.3476 43.13 41.1977 43.0716C41.0478 43.0132 40.8872 42.9871 40.7266 42.9951H39.2592C39.1686 42.9951 39.1323 43.0314 39.1323 43.122V46.3828C39.1291 46.4002 39.1301 46.4181 39.1354 46.4349C39.1406 46.4518 39.1498 46.4672 39.1623 46.4797C39.1748 46.4921 39.1902 46.5014 39.207 46.5066C39.2239 46.5118 39.2418 46.5129 39.2592 46.5096H39.6577C39.6758 46.5123 39.6943 46.5109 39.7118 46.5057C39.7294 46.5005 39.7456 46.4916 39.7593 46.4796C39.7731 46.4675 39.7841 46.4526 39.7916 46.4359C39.7991 46.4192 39.8028 46.4011 39.8026 46.3828V45.3864H39.7845ZM39.7845 44.8067V43.593H40.5635C41.0526 43.593 41.27 43.8647 41.27 44.1908C41.27 44.5169 41.1251 44.8067 40.5635 44.8067H39.7845ZM45.4005 46.5096H46.6505C47.7918 46.5096 48.4077 45.8212 48.4077 44.7524C48.4077 43.6836 47.7737 42.9951 46.6505 42.9951H45.4005C45.3099 42.9951 45.2555 43.0314 45.2555 43.122V46.3828C45.2554 46.4011 45.2591 46.4192 45.2666 46.4359C45.2741 46.4526 45.2851 46.4675 45.2988 46.4796C45.3126 46.4916 45.3288 46.5005 45.3464 46.5057C45.3639 46.5109 45.3824 46.5123 45.4005 46.5096ZM45.9439 45.9118V43.593H46.6505C47.1396 43.593 47.7374 43.7741 47.7374 44.7524C47.7374 45.7307 47.1396 45.9118 46.6505 45.9118H45.9439ZM51.8316 45.6763L51.6867 45.8937C51.6724 45.9127 51.662 45.9344 51.6561 45.9574C51.6502 45.9805 51.6489 46.0045 51.6523 46.028C51.6557 46.0516 51.6636 46.0742 51.6757 46.0947C51.6879 46.1152 51.7039 46.133 51.7229 46.1473C52.1147 46.4397 52.5929 46.5927 53.0816 46.5821C53.8787 46.5821 54.4222 46.2198 54.4222 45.4951C54.4222 44.7705 53.5345 44.4988 53.0997 44.4082C52.665 44.3176 52.2845 44.2451 52.2845 43.9191C52.2845 43.593 52.6106 43.5567 52.8824 43.5567C53.1885 43.5693 53.487 43.6564 53.7519 43.8104C53.7695 43.8242 53.7897 43.8342 53.8113 43.8399C53.8329 43.8456 53.8555 43.8468 53.8775 43.8434C53.8996 43.84 53.9208 43.8321 53.9397 43.8202C53.9586 43.8083 53.9748 43.7926 53.9874 43.7741L54.1686 43.5205C54.1821 43.5045 54.1919 43.4857 54.1974 43.4655C54.2029 43.4453 54.204 43.4241 54.2006 43.4035C54.1971 43.3828 54.1892 43.3631 54.1775 43.3458C54.1657 43.3285 54.1503 43.3139 54.1324 43.3031C53.7922 43.0525 53.377 42.9248 52.9548 42.9408C52.357 42.9408 51.6142 43.1944 51.6142 43.9915C51.6142 44.7886 52.5381 44.9698 52.9548 45.0422C53.3715 45.1147 53.7519 45.2053 53.7519 45.5314C53.7519 45.8575 53.5889 45.948 53.0816 45.948C52.7222 45.9223 52.3742 45.8104 52.0671 45.622C52.0281 45.6004 51.9824 45.5941 51.939 45.6041C51.8955 45.6141 51.8573 45.6398 51.8316 45.6763ZM61.2881 45.9118H59.857L60.636 45.2778C61.107 44.8792 61.3787 44.5712 61.3787 44.0278C61.3787 43.4843 60.9983 42.9408 60.165 42.9408C59.9066 42.941 59.6547 43.0212 59.4438 43.1705C59.233 43.3197 59.0735 43.5306 58.9874 43.7741C58.9512 43.8647 58.9693 43.9372 59.078 43.9553L59.4041 44.0459C59.4473 44.0579 59.4935 44.0535 59.5337 44.0334C59.5739 44.0133 59.6052 43.979 59.6215 43.9372C59.6636 43.818 59.7424 43.7152 59.8465 43.6436C59.9507 43.572 60.0748 43.5352 60.2012 43.5386C60.2676 43.5334 60.3343 43.5424 60.397 43.5649C60.4597 43.5874 60.5168 43.6229 60.5648 43.6692C60.6127 43.7154 60.6503 43.7712 60.6751 43.833C60.6998 43.8949 60.7112 43.9612 60.7084 44.0278C60.7084 44.2451 60.6722 44.4444 60.2374 44.7886L59.0599 45.785C59.018 45.8222 58.992 45.8741 58.9874 45.9299V46.3828C58.9872 46.4011 58.991 46.4192 58.9985 46.4359C59.006 46.4526 59.017 46.4675 59.0307 46.4796C59.0445 46.4916 59.0607 46.5005 59.0782 46.5057C59.0958 46.5109 59.1142 46.5123 59.1324 46.5096H61.2881C61.3063 46.5123 61.3247 46.5109 61.3423 46.5057C61.3598 46.5005 61.376 46.4916 61.3898 46.4796C61.4035 46.4675 61.4145 46.4526 61.422 46.4359C61.4295 46.4192 61.4333 46.4011 61.4331 46.3828V46.0386C61.4333 46.0203 61.4295 46.0022 61.422 45.9855C61.4145 45.9688 61.4035 45.9539 61.3898 45.9419C61.376 45.9298 61.3598 45.9209 61.3423 45.9157C61.3247 45.9105 61.3063 45.9092 61.2881 45.9118ZM66.1976 46.5821C67.1758 46.5821 67.7737 45.6944 67.7737 44.7524C67.7737 43.8104 67.1034 42.9408 66.1976 42.9408C65.2918 42.9408 64.6215 43.6836 64.6215 44.7524C64.6215 45.8212 65.2012 46.5821 66.1976 46.5821ZM66.1976 43.5567C66.8316 43.5567 67.0852 44.1727 67.0852 44.7524C67.0852 45.3321 66.6324 45.948 66.1976 45.948C65.7628 45.948 65.3099 45.314 65.3099 44.7524C65.3099 43.9191 65.7809 43.5567 66.1976 43.5567ZM73.3171 45.9118H71.9041L72.665 45.2778C73.136 44.8792 73.4077 44.5712 73.4077 44.0278C73.4077 43.4843 73.0273 42.9408 72.1939 42.9408C71.9356 42.941 71.6837 43.0212 71.4728 43.1705C71.262 43.3197 71.1025 43.5306 71.0164 43.7741C71.0077 43.7917 71.0031 43.8111 71.0032 43.8307C71.0032 43.8504 71.0078 43.8697 71.0165 43.8873C71.0253 43.9049 71.0381 43.9201 71.0538 43.9319C71.0695 43.9437 71.0877 43.9517 71.107 43.9553L71.4331 44.0459C71.4763 44.0579 71.5225 44.0535 71.5627 44.0334C71.6029 44.0133 71.6341 43.979 71.6505 43.9372C71.697 43.8209 71.7768 43.7211 71.88 43.6501C71.9831 43.5792 72.105 43.5404 72.2302 43.5386C72.2972 43.5303 72.3653 43.537 72.4294 43.5583C72.4935 43.5797 72.552 43.6151 72.6006 43.662C72.6493 43.7089 72.6868 43.7661 72.7105 43.8294C72.7341 43.8927 72.7433 43.9604 72.7374 44.0278C72.7374 44.2451 72.7012 44.4444 72.2664 44.7886L71.107 45.785C71.0833 45.8007 71.0642 45.8224 71.0515 45.8478C71.0388 45.8732 71.0329 45.9015 71.0345 45.9299V46.3828C71.0313 46.4002 71.0323 46.4181 71.0375 46.4349C71.0428 46.4518 71.052 46.4672 71.0645 46.4797C71.077 46.4921 71.0923 46.5014 71.1092 46.5066C71.1261 46.5118 71.144 46.5129 71.1613 46.5096H73.3352C73.3689 46.5096 73.4011 46.4963 73.4249 46.4725C73.4487 46.4487 73.4621 46.4165 73.4621 46.3828V46.0386C73.4621 46.005 73.4487 45.9727 73.4249 45.949C73.4011 45.9252 73.3689 45.9118 73.3352 45.9118H73.3171ZM79.0961 45.9118H77.665L78.4258 45.2778C78.8968 44.8792 79.1686 44.5712 79.1686 44.0278C79.1686 43.4843 78.7881 42.9408 77.9548 42.9408C77.6965 42.941 77.4446 43.0212 77.2337 43.1705C77.0228 43.3197 76.8634 43.5306 76.7773 43.7741C76.7683 43.793 76.7641 43.8138 76.7651 43.8347C76.7661 43.8556 76.7723 43.8759 76.783 43.8939C76.7938 43.9118 76.8088 43.9268 76.8268 43.9375C76.8448 43.9482 76.8651 43.9543 76.886 43.9553L77.1939 44.0459C77.3026 44.064 77.3932 44.0278 77.4113 43.9372C77.459 43.8181 77.5416 43.7162 77.6483 43.645C77.7551 43.5739 77.8809 43.5368 78.0092 43.5386C78.0748 43.5331 78.1408 43.542 78.2027 43.5646C78.2645 43.5873 78.3207 43.6231 78.3672 43.6697C78.4138 43.7163 78.4496 43.7724 78.4723 43.8343C78.4949 43.8961 78.5038 43.9621 78.4983 44.0278C78.4983 44.2451 78.4621 44.4444 78.0454 44.7886L76.8679 45.785C76.8442 45.8007 76.8251 45.8224 76.8123 45.8478C76.7996 45.8732 76.7938 45.9015 76.7954 45.9299V46.3828C76.7921 46.4002 76.7932 46.4181 76.7984 46.4349C76.8036 46.4518 76.8129 46.4672 76.8254 46.4797C76.8379 46.4921 76.8532 46.5014 76.8701 46.5066C76.887 46.5118 76.9048 46.5129 76.9222 46.5096H79.0961C79.1298 46.5096 79.162 46.4963 79.1858 46.4725C79.2096 46.4487 79.2229 46.4165 79.2229 46.3828V46.0386C79.2229 46.005 79.2096 45.9727 79.1858 45.949C79.162 45.9252 79.1298 45.9118 79.0961 45.9118Z" fill="white" style="fill:white;fill-opacity:1;"/>
<path d="M27.4297 49.0996H71.1978V49.4257H27.4297V49.0996Z" fill="white" style="fill:white;fill-opacity:1;"/>
<path d="M34.4408 66.0741V64.7516L33.4988 63.3386C33.4828 63.3115 33.473 63.2813 33.4698 63.25C33.4667 63.2187 33.4704 63.1871 33.4806 63.1574L33.5531 63.0849L33.6618 63.0487H33.9517L34.0422 63.0849C34.0785 63.0849 34.0966 63.1031 34.1147 63.1393L34.7669 64.0994L35.4191 63.1393C35.4253 63.1247 35.4353 63.112 35.448 63.1024C35.4607 63.0929 35.4757 63.0868 35.4915 63.0849L35.5821 63.0487H35.8901C35.9248 63.0493 35.9586 63.0598 35.9876 63.0791C36.0165 63.0984 36.0392 63.1256 36.0531 63.1574C36.0703 63.1843 36.0768 63.2166 36.0712 63.248C36.074 63.2793 36.0678 63.3108 36.0531 63.3386L35.093 64.7335V66.0741C35.093 66.0922 35.0749 66.1103 35.0749 66.1465L35.0386 66.2009C35.0302 66.2121 35.0192 66.2213 35.0067 66.2276C34.9941 66.2338 34.9802 66.2371 34.9662 66.2371H34.5495L34.4951 66.2009C34.4839 66.1924 34.4748 66.1815 34.4685 66.1689C34.4622 66.1564 34.4589 66.1425 34.4589 66.1284C34.4524 66.1211 34.4474 66.1125 34.4443 66.1031C34.4411 66.0938 34.44 66.0839 34.4408 66.0741ZM36.4335 65.8205C36.2962 65.6612 36.1805 65.4846 36.0893 65.2951C36.0167 65.0916 35.9799 64.8771 35.9806 64.661C35.9784 64.4449 36.0152 64.23 36.0893 64.027C36.1716 63.8326 36.2882 63.6546 36.4335 63.5016C36.5796 63.3433 36.759 63.2195 36.9589 63.1393C37.1453 63.0503 37.3502 63.0068 37.5567 63.0125C37.7692 63.0053 37.9803 63.0488 38.1727 63.1393C38.3725 63.2195 38.552 63.3433 38.698 63.5016C38.8493 63.6498 38.9668 63.8291 39.0422 64.027C39.1164 64.23 39.1532 64.4449 39.1509 64.661C39.1592 64.875 39.1232 65.0884 39.0453 65.2879C38.9674 65.4874 38.8492 65.6687 38.698 65.8205C38.5473 65.9733 38.3691 66.0962 38.1727 66.1828C37.9763 66.2584 37.7671 66.2953 37.5567 66.2915C37.3523 66.2939 37.1494 66.257 36.9589 66.1828C36.7625 66.0962 36.5843 65.9733 36.4335 65.8205ZM36.8864 63.9545C36.7934 64.0445 36.7248 64.1567 36.6872 64.2806C36.5903 64.525 36.5903 64.7971 36.6872 65.0415C36.7331 65.1614 36.8006 65.272 36.8864 65.3676C36.9801 65.4519 37.0835 65.5249 37.1944 65.5849C37.3144 65.6368 37.4443 65.6615 37.5749 65.6574C37.8273 65.6509 38.0675 65.5471 38.2451 65.3676C38.3299 65.2676 38.4029 65.1582 38.4625 65.0415C38.5594 64.7971 38.5594 64.525 38.4625 64.2806C38.4116 64.159 38.3378 64.0483 38.2451 63.9545C38.1599 63.8555 38.055 63.7753 37.9372 63.719C37.821 63.6759 37.6987 63.6515 37.5749 63.6465C37.4508 63.6495 37.3282 63.674 37.2125 63.719C37.089 63.7745 36.978 63.8547 36.8864 63.9545ZM39.4951 65.0415V63.1755L39.5495 63.1031L39.6038 63.0668H39.948C39.9719 63.0661 39.9956 63.0705 40.0175 63.0799C40.0394 63.0893 40.059 63.1034 40.0749 63.1212L40.1292 63.1936V65.0234C40.1297 65.1166 40.1481 65.2089 40.1835 65.2951C40.2015 65.37 40.239 65.4387 40.2922 65.4944C40.3437 65.5538 40.4079 65.601 40.48 65.6323C40.5521 65.6637 40.6303 65.6784 40.7089 65.6755C40.7906 65.6766 40.8714 65.658 40.9444 65.6212C41.0151 65.596 41.0777 65.5522 41.1256 65.4944C41.1782 65.4351 41.221 65.3679 41.2524 65.2951C41.2757 65.2064 41.2879 65.1151 41.2886 65.0234V63.2661C41.2876 63.2395 41.2918 63.213 41.3011 63.1881C41.3105 63.1633 41.3247 63.1405 41.343 63.1212L41.4154 63.0849H41.7596C41.785 63.0863 41.8096 63.0936 41.8316 63.1062C41.8536 63.1188 41.8724 63.1363 41.8864 63.1574C41.9046 63.1574 41.9227 63.1936 41.9227 63.2118C41.9227 63.2299 41.9408 63.248 41.9408 63.2842V65.0777C41.937 65.2445 41.9064 65.4097 41.8502 65.5668C41.7939 65.7157 41.7076 65.8513 41.5966 65.9654C41.485 66.0838 41.349 66.1765 41.198 66.2371C41.0457 66.3109 40.8782 66.3482 40.7089 66.3458C40.5452 66.3485 40.3827 66.3159 40.2327 66.2503C40.0827 66.1846 39.9485 66.0875 39.8393 65.9654C39.7226 65.8524 39.6302 65.7168 39.5676 65.5668C39.5169 65.4088 39.4925 65.2436 39.4951 65.0777V65.0415ZM42.4843 66.0741V63.1936C42.4835 63.1698 42.488 63.1461 42.4974 63.1242C42.5068 63.1023 42.5208 63.0827 42.5386 63.0668L42.593 63.0306H42.8285L44.4589 64.9871V63.2661C44.4589 63.2299 44.4589 63.2118 44.477 63.1936C44.477 63.1796 44.4803 63.1657 44.4866 63.1531C44.4929 63.1406 44.502 63.1296 44.5133 63.1212L44.5676 63.0849H44.9118C44.9592 63.0874 45.0042 63.1067 45.0386 63.1393C45.0499 63.1477 45.059 63.1587 45.0653 63.1712C45.0716 63.1838 45.0749 63.1977 45.0749 63.2118C45.093 63.2299 45.093 63.248 45.093 63.2842V66.1465C45.093 66.1828 45.093 66.2009 45.0749 66.219L45.0386 66.2733L44.9843 66.3277H44.7488L43.1183 64.3168V66.0922C43.1187 66.1175 43.1125 66.1425 43.1002 66.1647L43.064 66.219L43.0096 66.2552H42.6654C42.6416 66.256 42.6179 66.2515 42.596 66.2421C42.5741 66.2327 42.5545 66.2187 42.5386 66.2009L42.5024 66.1465C42.4901 66.1244 42.4839 66.0994 42.4843 66.0741ZM45.9263 65.8205C45.7731 65.6738 45.6554 65.4941 45.5821 65.2951C45.4949 65.0953 45.4516 64.879 45.4553 64.661C45.4515 64.446 45.4913 64.2324 45.5723 64.0332C45.6532 63.8339 45.7736 63.6531 45.9263 63.5016C46.0693 63.3479 46.2418 63.2247 46.4335 63.1393C46.6271 63.0524 46.8374 63.0092 47.0495 63.0125C47.242 63.0115 47.4328 63.0485 47.6111 63.1212C47.7974 63.1923 47.9693 63.2967 48.1183 63.4291H48.1364C48.1542 63.445 48.1683 63.4646 48.1777 63.4865C48.1871 63.5084 48.1916 63.5321 48.1908 63.556C48.1895 63.609 48.1704 63.6601 48.1364 63.7009L47.9553 63.882C47.9395 63.9057 47.9179 63.9248 47.8925 63.9376C47.867 63.9503 47.8387 63.9561 47.8104 63.9545C47.763 63.9521 47.718 63.9328 47.6835 63.9002C47.5974 63.8112 47.492 63.7431 47.3756 63.7009C47.2813 63.6495 47.1749 63.6245 47.0676 63.6284C46.9438 63.6334 46.8215 63.6578 46.7053 63.7009C46.5974 63.7569 46.4994 63.8304 46.4154 63.9183C46.3307 64.0182 46.2577 64.1277 46.198 64.2444C46.1622 64.368 46.1439 64.4961 46.1437 64.6248C46.1412 64.7537 46.1595 64.8822 46.198 65.0052C46.249 65.1268 46.3228 65.2375 46.4154 65.3313C46.4896 65.4297 46.5901 65.5051 46.7053 65.5487C46.8189 65.6003 46.9429 65.6251 47.0676 65.6212H47.2488L47.4118 65.5849L47.5749 65.5306V65.2226H47.2125L47.1401 65.1864C47.122 65.1683 47.1038 65.1502 47.1038 65.132C47.0916 65.1099 47.0853 65.0849 47.0857 65.0596V64.806C47.0857 64.6791 47.1582 64.6248 47.285 64.6248H48.1002L48.1546 64.6791L48.1908 64.7335C48.2052 64.7548 48.2116 64.7804 48.2089 64.806V65.8386C48.2117 65.8699 48.2054 65.9013 48.1908 65.9291L48.1364 66.0016L47.9915 66.0741L47.8466 66.1465L47.6111 66.219L47.3393 66.2733H47.0495C46.8393 66.2742 46.6307 66.2374 46.4335 66.1647C46.2427 66.0776 46.0705 65.9546 45.9263 65.8023V65.8205ZM49.5495 66.0741V63.248C49.5484 63.2214 49.5527 63.1949 49.562 63.17C49.5714 63.1451 49.5856 63.1224 49.6038 63.1031L49.6582 63.0668H50.6727C50.8792 63.0612 51.0841 63.1046 51.2705 63.1936C51.4587 63.2677 51.6264 63.3857 51.7596 63.5378C51.9128 63.6845 52.0305 63.8642 52.1038 64.0632C52.1843 64.2524 52.2273 64.4554 52.2306 64.661C52.2237 65.0874 52.0554 65.4952 51.7596 65.8023C51.6264 65.9544 51.4587 66.0724 51.2705 66.1465C51.0841 66.2356 50.8792 66.279 50.6727 66.2733H49.6582L49.5857 66.2371C49.5656 66.1976 49.5533 66.1545 49.5495 66.1103V66.0741ZM50.1835 65.6393H50.6183C50.7422 65.6344 50.8644 65.6099 50.9806 65.5668C51.098 65.5178 51.2031 65.4435 51.2886 65.3494C51.3754 65.2614 51.4432 65.1566 51.4879 65.0415C51.5262 64.9122 51.5446 64.7778 51.5422 64.6429C51.5448 64.514 51.5264 64.3855 51.4879 64.2625C51.4365 64.1508 51.3694 64.0471 51.2886 63.9545C51.1981 63.8662 51.0942 63.7928 50.9806 63.7371C50.8635 63.6999 50.7412 63.6816 50.6183 63.6828H50.1835V65.6393ZM52.593 66.0741V63.248C52.5919 63.2214 52.5962 63.1949 52.6055 63.17C52.6148 63.1451 52.6291 63.1224 52.6473 63.1031L52.7198 63.0668H54.4227C54.4492 63.0658 54.4757 63.07 54.5006 63.0794C54.5255 63.0887 54.5483 63.1029 54.5676 63.1212C54.5857 63.1393 54.5857 63.1574 54.6038 63.1936C54.6038 63.2118 54.622 63.2299 54.622 63.2661V63.5741L54.5857 63.6284L54.5133 63.6828H53.2633V64.3349H54.314L54.3864 64.3893L54.4227 64.4436C54.4227 64.4618 54.4408 64.4799 54.4408 64.5161V64.8241L54.4046 64.8784L54.3321 64.9328H53.2814V65.6393H54.4589C54.4855 65.6382 54.512 65.6425 54.5369 65.6518C54.5618 65.6612 54.5845 65.6754 54.6038 65.6936C54.622 65.7118 54.622 65.748 54.6401 65.7661C54.6582 65.7842 54.6582 65.8023 54.6582 65.8386V66.0741C54.6582 66.0922 54.6401 66.1103 54.6401 66.1465L54.6038 66.2009C54.5954 66.2121 54.5845 66.2213 54.5719 66.2276C54.5593 66.2338 54.5454 66.2371 54.5314 66.2371H52.7198L52.6473 66.2009C52.6295 66.185 52.6155 66.1654 52.6061 66.1435C52.5967 66.1216 52.5922 66.0979 52.593 66.0741ZM55.0205 66.0741V63.1936C55.0178 63.1681 55.0242 63.1424 55.0386 63.1212L55.0749 63.0668L55.1292 63.0306H55.3647L56.9951 64.9871V63.1936C57.0133 63.1574 57.0133 63.1393 57.0314 63.1212L57.1038 63.0849H57.4299C57.4565 63.0839 57.483 63.0881 57.5079 63.0975C57.5328 63.1068 57.5555 63.121 57.5749 63.1393L57.6111 63.2118C57.6111 63.2299 57.6292 63.248 57.6292 63.2842V66.1828L57.593 66.2371L57.5205 66.2915H57.3031L55.6727 64.2987V66.0741C55.6735 66.0839 55.6723 66.0938 55.6692 66.1031C55.6661 66.1125 55.6611 66.1211 55.6546 66.1284C55.6546 66.1425 55.6513 66.1564 55.645 66.1689C55.6387 66.1815 55.6296 66.1924 55.6183 66.2009L55.564 66.2371H55.2198C55.196 66.2379 55.1723 66.2334 55.1503 66.224C55.1284 66.2146 55.1088 66.2005 55.093 66.1828L55.0567 66.1284C55.0502 66.1211 55.0452 66.1125 55.0421 66.1031C55.039 66.0938 55.0378 66.0839 55.0386 66.0741H55.0205ZM58.6075 66.0741V63.6647H57.9734L57.9009 63.6103L57.8647 63.556V63.248C57.8647 63.2118 57.8828 63.1936 57.8828 63.1755L57.9191 63.1031L57.9915 63.0668H59.8212C59.8478 63.0658 59.8743 63.07 59.8992 63.0794C59.9241 63.0887 59.9468 63.1029 59.9662 63.1212C59.9843 63.1393 59.9843 63.1755 60.0024 63.1936C60.0205 63.2118 60.0205 63.2299 60.0205 63.2661V63.5741L59.9843 63.6284L59.9118 63.6828H59.2415V66.0922C59.2419 66.1175 59.2357 66.1425 59.2234 66.1647V66.219L59.1509 66.2552H58.8067C58.7802 66.2563 58.7537 66.252 58.7288 66.2427C58.7039 66.2334 58.6811 66.2192 58.6618 66.2009L58.6256 66.1465V66.0741H58.6075ZM60.2198 66.0741V63.248C60.219 63.2242 60.2235 63.2005 60.2329 63.1785C60.2423 63.1566 60.2564 63.1371 60.2741 63.1212L60.3285 63.0668H60.6727C60.7011 63.0652 60.7294 63.0711 60.7548 63.0838C60.7802 63.0965 60.8019 63.1156 60.8176 63.1393L60.8538 63.1936C60.8538 63.2118 60.872 63.2299 60.872 63.2661V66.0922C60.8695 66.1396 60.8502 66.1846 60.8176 66.219C60.7983 66.2373 60.7755 66.2515 60.7506 66.2608C60.7257 66.2702 60.6992 66.2744 60.6727 66.2733H60.4009C60.3771 66.2741 60.3534 66.2696 60.3315 66.2602C60.3096 66.2509 60.29 66.2368 60.2741 66.219C60.2629 66.2106 60.2537 66.1996 60.2475 66.187C60.2412 66.1745 60.2379 66.1606 60.2379 66.1465C60.2286 66.1372 60.222 66.1256 60.2188 66.1128C60.2156 66.1001 60.2159 66.0867 60.2198 66.0741ZM61.3249 65.9291C61.3026 65.9163 61.2842 65.8978 61.2715 65.8755C61.2587 65.8533 61.2522 65.828 61.2524 65.8023C61.2415 65.7534 61.2479 65.7022 61.2705 65.6574L61.4154 65.44C61.4276 65.4226 61.4439 65.4085 61.4628 65.399C61.4818 65.3895 61.5029 65.3849 61.5241 65.3857C61.573 65.3731 61.6248 65.3796 61.6691 65.4038H61.6872C61.7809 65.4882 61.8843 65.5611 61.9951 65.6212L62.2669 65.6755C62.3649 65.6755 62.4602 65.6437 62.5386 65.5849C62.5676 65.5606 62.5908 65.5301 62.6065 65.4956C62.6222 65.4611 62.6299 65.4235 62.6292 65.3857C62.6254 65.3415 62.6131 65.2984 62.593 65.2589L62.5205 65.1502C62.3837 65.0425 62.2309 64.9569 62.0676 64.8965C61.9513 64.851 61.8416 64.7901 61.7415 64.7154C61.6463 64.6637 61.5606 64.5964 61.4879 64.5161C61.4047 64.4358 61.3425 64.3362 61.3067 64.2262C61.2695 64.1216 61.2511 64.0112 61.2524 63.9002C61.2484 63.7929 61.2735 63.6865 61.3249 63.5922L61.3792 63.4473L61.4879 63.3023C61.5273 63.2509 61.5766 63.2078 61.6328 63.1755L61.814 63.0668L62.0314 63.0125H62.2669C62.415 63.0099 62.5624 63.0345 62.7017 63.0849C62.8387 63.1296 62.9674 63.1969 63.0821 63.2842C63.1364 63.3205 63.1727 63.3567 63.1727 63.411C63.1802 63.4391 63.1808 63.4686 63.1745 63.497C63.1682 63.5254 63.1551 63.5518 63.1364 63.5741L63.0459 63.7371C62.9553 63.8639 62.8647 63.882 62.756 63.8096L62.448 63.6647L62.2488 63.6103L62.0857 63.6465C62.0438 63.65 62.0049 63.6694 61.977 63.7009L61.9046 63.7915C61.9046 63.8277 61.8864 63.8639 61.8864 63.9002C61.8901 63.9387 61.9025 63.9759 61.9227 64.0089L61.9951 64.1176C62.1 64.2138 62.2232 64.2878 62.3575 64.3349L62.7379 64.5161C62.8409 64.5797 62.9379 64.6525 63.0278 64.7335C63.1159 64.8132 63.1842 64.9125 63.227 65.0234C63.2749 65.1382 63.2995 65.2613 63.2995 65.3857C63.2995 65.51 63.2749 65.6332 63.227 65.748C63.171 65.8559 63.0975 65.9538 63.0096 66.0378C62.9058 66.1215 62.7897 66.1887 62.6654 66.2371C62.5361 66.2755 62.4017 66.2938 62.2669 66.2915C62.1069 66.2942 61.9476 66.2696 61.7959 66.219L61.6147 66.1465L61.4698 66.056L61.3792 66.0016L61.3249 65.9291ZM64.0422 66.0741V63.6647H63.4082L63.3538 63.6103C63.3361 63.5944 63.322 63.5748 63.3126 63.5529C63.3032 63.531 63.2987 63.5073 63.2995 63.4835V63.248C63.2984 63.2214 63.3027 63.1949 63.312 63.17C63.3214 63.1451 63.3356 63.1224 63.3538 63.1031L63.4082 63.0668H65.256C65.2798 63.0661 65.3035 63.0705 65.3254 63.0799C65.3474 63.0893 65.3669 63.1034 65.3828 63.1212C65.3941 63.1296 65.4032 63.1406 65.4095 63.1531C65.4158 63.1657 65.4191 63.1796 65.4191 63.1936C65.4372 63.2118 65.4372 63.2299 65.4372 63.2661V63.5016C65.4376 63.5269 65.4313 63.5519 65.4191 63.5741L65.3828 63.6284L65.3285 63.6828H64.6944V66.0922C64.6953 66.102 64.6941 66.1119 64.691 66.1212C64.6878 66.1306 64.6829 66.1392 64.6763 66.1465L64.6401 66.2009L64.5857 66.2371H64.2415C64.215 66.2382 64.1885 66.2339 64.1636 66.2246C64.1387 66.2153 64.1159 66.201 64.0966 66.1828C64.0853 66.1743 64.0762 66.1634 64.0699 66.1508C64.0636 66.1382 64.0604 66.1244 64.0604 66.1103C64.051 66.1002 64.0447 66.0876 64.0422 66.0741Z" fill="white" style="fill:white;fill-opacity:1;"/>
<path d="M36.0523 55.0602V51.4189C36.0515 51.4091 36.0527 51.3992 36.0558 51.3899C36.0589 51.3805 36.0639 51.3719 36.0705 51.3646C36.0775 51.352 36.0882 51.3418 36.1011 51.3354C36.1141 51.3289 36.1286 51.3265 36.1429 51.3283H36.5596C36.5958 51.3646 36.5958 51.3827 36.5958 51.4008V52.9588H38.5342V51.4189C38.5342 51.4008 38.5342 51.3827 38.5705 51.3465H38.9871C39.0014 51.3446 39.016 51.347 39.0289 51.3535C39.0418 51.36 39.0525 51.3701 39.0596 51.3827C39.0661 51.39 39.0711 51.3986 39.0742 51.408C39.0774 51.4173 39.0785 51.4272 39.0777 51.437V55.0783C39.0777 55.1146 39.0777 55.1327 39.0596 55.1508L38.9871 55.187H38.6429C38.6289 55.187 38.615 55.1838 38.6024 55.1775C38.5898 55.1712 38.5789 55.1621 38.5705 55.1508C38.5342 55.1327 38.5342 55.1146 38.5342 55.0783V53.5023H36.5958V55.0783C36.5958 55.1146 36.5958 55.1327 36.5596 55.1508L36.5052 55.187H36.1429L36.0705 55.1508C36.0523 55.1146 36.0523 55.0965 36.0523 55.0602ZM25.7262 58.8465C25.5422 58.6609 25.3976 58.4401 25.3011 58.1973C25.2046 57.9545 25.1582 57.6946 25.1647 57.4334C25.1586 57.1749 25.2052 56.9179 25.3018 56.6781C25.3983 56.4383 25.5428 56.2206 25.7262 56.0385C25.8965 55.8532 26.1039 55.7059 26.3349 55.606C26.5658 55.5061 26.8152 55.4559 27.0668 55.4588C27.5447 55.4569 28.0051 55.6385 28.3531 55.966C28.3646 55.9762 28.3739 55.9888 28.3802 56.0028C28.3866 56.0169 28.3899 56.0321 28.3899 56.0475C28.3899 56.063 28.3866 56.0782 28.3802 56.0923C28.3739 56.1063 28.3646 56.1189 28.3531 56.1291L28.1176 56.3646C28.0813 56.4189 28.0451 56.4189 27.9907 56.3646C27.7385 56.1331 27.4091 56.004 27.0668 56.0023C26.8894 56.0019 26.7139 56.0389 26.5516 56.1106C26.3893 56.1824 26.2439 56.2874 26.1248 56.4189C25.8732 56.6962 25.7371 57.0591 25.7444 57.4334C25.7381 57.8021 25.8743 58.1591 26.1248 58.4298C26.2444 58.5655 26.3925 58.6731 26.5584 58.7452C26.7244 58.8172 26.9041 58.8518 27.0849 58.8465C27.4203 58.837 27.7414 58.7086 27.9907 58.4841C28.0077 58.4675 28.0304 58.4582 28.0541 58.4582C28.0779 58.4582 28.1006 58.4675 28.1176 58.4841L28.3531 58.7378C28.3643 58.7462 28.3734 58.7571 28.3797 58.7697C28.386 58.7823 28.3893 58.7962 28.3893 58.8102L28.3531 58.8827C28.1876 59.0557 27.9876 59.192 27.766 59.2825C27.5443 59.373 27.3061 59.4158 27.0668 59.408C26.8164 59.4143 26.5675 59.3675 26.3364 59.2707C26.1054 59.1739 25.8974 59.0293 25.7262 58.8465ZM31.2516 58.8465C30.8916 58.4653 30.6964 57.9576 30.7081 57.4334C30.6972 56.9148 30.8927 56.413 31.2516 56.0385C31.4258 55.856 31.6353 55.7107 31.8673 55.6115C32.0992 55.5122 32.3489 55.461 32.6013 55.461C32.8536 55.461 33.1033 55.5122 33.3352 55.6115C33.5672 55.7107 33.7767 55.856 33.9509 56.0385C34.3147 56.4112 34.5166 56.9126 34.5125 57.4334C34.5174 57.9598 34.3158 58.4671 33.9509 58.8465C33.7741 59.0245 33.5638 59.1657 33.3322 59.2622C33.1006 59.3586 32.8521 59.4082 32.6013 59.4082C32.3504 59.4082 32.1019 59.3586 31.8703 59.2622C31.6387 59.1657 31.4284 59.0245 31.2516 58.8465ZM31.632 56.437C31.376 56.7092 31.2335 57.0688 31.2335 57.4425C31.2335 57.8161 31.376 58.1757 31.632 58.4479C31.7572 58.5789 31.9076 58.6831 32.0742 58.7544C32.2408 58.8256 32.4201 58.8623 32.6013 58.8623C32.7824 58.8623 32.9617 58.8256 33.1283 58.7544C33.2949 58.6831 33.4453 58.5789 33.5705 58.4479C33.8265 58.1757 33.969 57.8161 33.969 57.4425C33.969 57.0688 33.8265 56.7092 33.5705 56.437C33.4481 56.3012 33.2987 56.1927 33.1317 56.1183C32.9647 56.044 32.784 56.0056 32.6013 56.0056C32.4185 56.0056 32.2378 56.044 32.0708 56.1183C31.9038 56.1927 31.7544 56.3012 31.632 56.437ZM36.8857 59.2269L37.5378 55.5494C37.556 55.495 37.5922 55.4588 37.6284 55.4588H37.719C37.7379 55.4572 37.7568 55.4616 37.773 55.4714C37.7893 55.4811 37.8021 55.4957 37.8096 55.5131L38.9147 58.3211H38.9328L40.0378 55.5131C40.0454 55.4957 40.0581 55.4811 40.0744 55.4714C40.0906 55.4616 40.1095 55.4572 40.1284 55.4588H40.219C40.2552 55.4588 40.2915 55.495 40.3096 55.5494L40.9618 59.2269C40.9799 59.3175 40.9436 59.3537 40.8712 59.3537H40.527C40.5151 59.3563 40.5027 59.3565 40.4907 59.3543C40.4788 59.352 40.4673 59.3474 40.4572 59.3406C40.447 59.3339 40.4384 59.3251 40.4317 59.3149C40.425 59.3047 40.4204 59.2932 40.4183 59.2812L40.0197 56.8356H40.0016L39.0596 59.3537C39.0521 59.3711 39.0393 59.3857 39.023 59.3954C39.0068 59.4052 38.9879 59.4096 38.969 59.408H38.8784C38.8595 59.4096 38.8406 59.4052 38.8244 59.3954C38.8081 59.3857 38.7954 59.3711 38.7878 59.3537L37.8277 56.8356H37.8096L37.4292 59.2812L37.3929 59.3356H36.9763C36.9038 59.3356 36.8676 59.2994 36.8857 59.2088V59.2269ZM43.3531 59.2269L44.0052 55.5494C44.0096 55.5238 44.0229 55.5006 44.0428 55.484C44.0628 55.4673 44.088 55.4584 44.1139 55.4588H44.1864C44.2407 55.4588 44.277 55.4769 44.277 55.5131L45.382 58.3211H45.4183L46.5052 55.5131C46.5128 55.4957 46.5255 55.4811 46.5418 55.4714C46.558 55.4616 46.5769 55.4572 46.5958 55.4588H46.6864C46.7407 55.4588 46.7589 55.495 46.777 55.5494L47.4291 59.2269C47.4473 59.3175 47.411 59.3537 47.3386 59.3537H46.9944C46.9825 59.3563 46.9701 59.3565 46.9581 59.3543C46.9461 59.352 46.9347 59.3474 46.9246 59.3406C46.9144 59.3339 46.9058 59.3251 46.8991 59.3149C46.8924 59.3047 46.8878 59.2932 46.8857 59.2812L46.5052 56.8356H46.4871L45.527 59.3537C45.5195 59.3711 45.5067 59.3857 45.4904 59.3954C45.4742 59.4052 45.4553 59.4096 45.4364 59.408H45.3458C45.3269 59.4096 45.308 59.4052 45.2918 59.3954C45.2755 59.3857 45.2628 59.3711 45.2552 59.3537L44.2951 56.8356H44.277L43.8965 59.2812L43.8603 59.3356H43.4618C43.3893 59.3356 43.3531 59.2994 43.3531 59.2088V59.2269ZM50.0922 59.245V55.6218C50.0922 55.5856 50.0922 55.5675 50.1103 55.5494L50.1828 55.5131H52.3023L52.3748 55.5494C52.3861 55.5578 52.3952 55.5687 52.4015 55.5813C52.4078 55.5939 52.411 55.6078 52.411 55.6218V55.9298L52.3748 56.0023C52.3664 56.0135 52.3554 56.0226 52.3428 56.0289C52.3303 56.0352 52.3164 56.0385 52.3023 56.0385H50.6357V57.1436H52.0487L52.1031 57.1798C52.1156 57.1869 52.1258 57.1976 52.1323 57.2105C52.1387 57.2234 52.1412 57.2379 52.1393 57.2523V57.5602C52.1393 57.5965 52.1393 57.6146 52.1212 57.6327L52.0487 57.6689H50.6357V58.8465H52.3023L52.3748 58.8827C52.3861 58.8911 52.3952 58.9021 52.4015 58.9146C52.4078 58.9272 52.411 58.9411 52.411 58.9552V59.2631L52.3748 59.3356H50.1103C50.0959 59.3143 50.0895 59.2887 50.0922 59.2631V59.245ZM55.0741 59.245V55.5494L55.1103 55.495L55.1828 55.4588H55.3096L57.6103 58.2124V55.6218C57.6103 55.6078 57.6136 55.5939 57.6199 55.5813C57.6262 55.5687 57.6353 55.5578 57.6465 55.5494L57.719 55.5131H58.0451L58.1176 55.5494C58.1288 55.5578 58.1379 55.5687 58.1442 55.5813C58.1505 55.5939 58.1538 55.6078 58.1538 55.6218V59.3175L58.1176 59.3899H57.9183L55.6176 56.582V59.245C55.6176 59.2812 55.5994 59.2994 55.5813 59.3356H55.1828C55.1465 59.3356 55.1284 59.3356 55.1103 59.2994C55.0919 59.2864 55.079 59.267 55.0741 59.245ZM61.0523 59.245V55.6218C61.0523 55.6078 61.0556 55.5939 61.0619 55.5813C61.0682 55.5687 61.0773 55.5578 61.0886 55.5494L61.1429 55.5131H62.3567C62.6044 55.5071 62.8505 55.5541 63.0786 55.651C63.3067 55.7478 63.5114 55.8923 63.6791 56.0747C64.027 56.4416 64.2209 56.9279 64.2209 57.4334C64.2209 57.939 64.027 58.4253 63.6791 58.7921C63.5114 58.9745 63.3067 59.119 63.0786 59.2159C62.8505 59.3127 62.6044 59.3597 62.3567 59.3537H61.0886C61.0705 59.2994 61.0523 59.2812 61.0523 59.245ZM61.5958 58.8283H62.2842C62.4663 58.8361 62.648 58.8045 62.8168 58.7358C62.9856 58.667 63.1377 58.5626 63.2625 58.4298C63.5057 58.1549 63.64 57.8005 63.64 57.4334C63.64 57.0663 63.5057 56.7119 63.2625 56.437C63.1362 56.3061 62.984 56.2029 62.8155 56.1343C62.647 56.0657 62.4661 56.033 62.2842 56.0385H61.5958V58.8283ZM66.8676 59.245V55.6218C66.8676 55.5856 66.8676 55.5675 66.8857 55.5494L66.9581 55.5131H69.0777L69.1502 55.5494C69.1614 55.5578 69.1705 55.5687 69.1768 55.5813C69.1831 55.5939 69.1864 55.6078 69.1864 55.6218V55.9298C69.1815 55.9569 69.1689 55.982 69.1502 56.0023L69.0777 56.0385H67.411V57.1436H68.8241L68.8784 57.1798C68.891 57.1869 68.9012 57.1976 68.9076 57.2105C68.9141 57.2234 68.9165 57.2379 68.9147 57.2523V57.5602C68.9147 57.5965 68.9147 57.6146 68.8965 57.6327L68.8241 57.6689H67.411V58.8465H69.0777L69.1502 58.8827C69.1614 58.8911 69.1705 58.9021 69.1768 58.9146C69.1831 58.9272 69.1864 58.9411 69.1864 58.9552V59.2631L69.1502 59.3356H66.8857C66.8713 59.3143 66.8648 59.2887 66.8676 59.2631V59.245ZM71.8494 59.245V55.6218C71.8494 55.6078 71.8527 55.5939 71.859 55.5813C71.8653 55.5687 71.8744 55.5578 71.8857 55.5494L71.94 55.5131H73.1719C73.4168 55.5085 73.6598 55.5563 73.8847 55.6531C74.1096 55.75 74.3113 55.8937 74.4763 56.0747C74.8241 56.4416 75.018 56.9279 75.018 57.4334C75.018 57.939 74.8241 58.4253 74.4763 58.7921C74.3113 58.9731 74.1096 59.1169 73.8847 59.2137C73.6598 59.3106 73.4168 59.3583 73.1719 59.3537H71.8857C71.8676 59.2994 71.8494 59.2812 71.8494 59.245ZM72.3929 58.8283H73.0813C73.2635 58.8361 73.4451 58.8045 73.6139 58.7358C73.7827 58.667 73.9348 58.5626 74.0596 58.4298C74.3028 58.1549 74.4371 57.8005 74.4371 57.4334C74.4371 57.0663 74.3028 56.7119 74.0596 56.437C73.9348 56.3042 73.7827 56.1998 73.6139 56.131C73.4451 56.0623 73.2635 56.0307 73.0813 56.0385H72.3929V58.8283ZM42.0306 55.0602V51.437C42.0306 51.423 42.0339 51.4091 42.0402 51.3965C42.0464 51.3839 42.0556 51.373 42.0668 51.3646C42.0849 51.3283 42.1031 51.3283 42.1393 51.3283H42.4835C42.5197 51.3283 42.5378 51.3283 42.556 51.3646C42.5672 51.373 42.5763 51.3839 42.5826 51.3965C42.5889 51.4091 42.5922 51.423 42.5922 51.437V55.0602C42.5922 55.0743 42.5889 55.0882 42.5826 55.1007C42.5763 55.1133 42.5672 55.1242 42.556 55.1327L42.4835 55.1689H42.1393L42.0668 55.1327C42.0556 55.1242 42.0464 55.1133 42.0402 55.1007C42.0339 55.0882 42.0306 55.0743 42.0306 55.0602ZM45.8349 54.6436C45.4741 54.2688 45.2724 53.7689 45.2724 53.2486C45.2724 52.7284 45.4741 52.2284 45.8349 51.8537C46.003 51.6656 46.2099 51.5164 46.4414 51.4163C46.6729 51.3162 46.9234 51.2676 47.1755 51.274C47.6534 51.2721 48.1138 51.4537 48.4618 51.7812C48.5161 51.8356 48.5161 51.8899 48.4618 51.9262C48.4226 51.9722 48.3863 52.0206 48.3531 52.0711L48.2263 52.1979C48.19 52.2341 48.1538 52.2341 48.0994 52.1798C47.8501 51.9553 47.529 51.8269 47.1936 51.8175C47.0162 51.8172 46.8407 51.8541 46.6784 51.9258C46.5161 51.9976 46.3707 52.1026 46.2516 52.2341C46.0071 52.512 45.8721 52.8694 45.8721 53.2396C45.8721 53.6097 46.0071 53.9672 46.2516 54.245C46.3707 54.3765 46.5161 54.4815 46.6784 54.5533C46.8407 54.6251 47.0162 54.662 47.1936 54.6617H47.3748L47.5378 54.6254L47.6647 54.5892L47.7915 54.553L47.882 54.5167H47.9907V53.8646H47.4654L47.3929 53.8283C47.3748 53.8102 47.3748 53.7921 47.3748 53.7559V53.4479C47.3748 53.3754 47.3929 53.3392 47.4654 53.3392H48.4255C48.4618 53.3392 48.4799 53.3392 48.498 53.3754C48.5161 53.4117 48.5161 53.4117 48.5161 53.4479C48.5161 53.4841 48.5342 53.8102 48.5342 54.1001V54.7704C48.5358 54.7893 48.5314 54.8081 48.5216 54.8244C48.5119 54.8406 48.4973 54.8534 48.4799 54.8609L48.3168 54.9515L47.8639 55.1146C47.6411 55.1845 47.4091 55.2211 47.1755 55.2233C46.9239 55.2261 46.6745 55.1759 46.4436 55.0761C46.2126 54.9762 46.0052 54.8288 45.8349 54.6436ZM51.2878 55.0602V51.437C51.2878 51.423 51.2911 51.4091 51.2974 51.3965C51.3037 51.3839 51.3128 51.373 51.3241 51.3646C51.3422 51.3283 51.3603 51.3283 51.3965 51.3283H51.8132C51.8313 51.3646 51.8494 51.3827 51.8494 51.4189V52.9588H53.7878V51.437C53.785 51.4057 53.7913 51.3743 53.806 51.3465H54.2226C54.2589 51.3465 54.277 51.3465 54.2951 51.3827C54.3063 51.3911 54.3155 51.4021 54.3218 51.4146C54.3281 51.4272 54.3313 51.4411 54.3313 51.4551V55.0783C54.3276 55.1059 54.315 55.1314 54.2953 55.151C54.2757 55.1707 54.2501 55.1833 54.2226 55.187H53.8784L53.806 55.1508C53.7878 55.1327 53.7878 55.1146 53.7878 55.0783V53.5023H51.8494V55.0783C51.8457 55.1059 51.8331 55.1314 51.8134 55.151C51.7938 55.1707 51.7683 55.1833 51.7407 55.187H51.3965C51.369 55.1833 51.3435 55.1707 51.3238 55.151C51.3042 55.1314 51.2916 55.1059 51.2878 55.0783V55.0602ZM57.2842 55.0602V51.437C57.2842 51.4008 57.3023 51.3827 57.3205 51.3465H57.7371C57.7514 51.3446 57.766 51.347 57.7789 51.3535C57.7918 51.36 57.8025 51.3701 57.8096 51.3827C57.8277 51.4008 57.8277 51.4189 57.8277 51.4551V54.6798H59.3313C59.3676 54.6979 59.3676 54.7341 59.3676 54.7704V55.0602C59.3676 55.0965 59.3676 55.1146 59.3313 55.1327C59.3229 55.1439 59.3119 55.1531 59.2994 55.1594C59.2868 55.1656 59.2729 55.1689 59.2589 55.1689H57.3929C57.3654 55.1652 57.3399 55.1526 57.3202 55.1329C57.3006 55.1133 57.2879 55.0877 57.2842 55.0602ZM62.3023 55.0602V53.3211L61.0705 51.4914C61.0609 51.4749 61.0559 51.4561 61.0559 51.437C61.0559 51.418 61.0609 51.3992 61.0705 51.3827C61.078 51.3653 61.0908 51.3507 61.107 51.3409C61.1232 51.3312 61.1422 51.3268 61.161 51.3283H61.5415C61.5604 51.3268 61.5793 51.3312 61.5955 51.3409C61.6118 51.3507 61.6245 51.3653 61.6321 51.3827L62.5922 52.7776L63.5523 51.3827C63.5586 51.3681 63.5686 51.3553 63.5813 51.3458C63.594 51.3363 63.609 51.3302 63.6248 51.3283H64.0234C64.0422 51.3268 64.0611 51.3312 64.0774 51.3409C64.0936 51.3507 64.1064 51.3653 64.1139 51.3827C64.1235 51.3992 64.1285 51.418 64.1285 51.437C64.1285 51.4561 64.1235 51.4749 64.1139 51.4914L62.8639 53.3211V55.0602C62.8602 55.0877 62.8476 55.1133 62.8279 55.1329C62.8083 55.1526 62.7828 55.1652 62.7552 55.1689H62.411C62.3835 55.1652 62.358 55.1526 62.3383 55.1329C62.3187 55.1133 62.3061 55.0877 62.3023 55.0602Z" fill="white" style="fill:white;fill-opacity:1;"/>
</g>
<defs>
<linearGradient id="paint0_linear_1712_10187" x1="50" y1="0" x2="50" y2="100" gradientUnits="userSpaceOnUse">
<stop stop-color="#262626" style="stop-color:#262626;stop-color:color(display-p3 0.1498 0.1493 0.1493);stop-opacity:1;"/>
<stop offset="1" stop-color="#111111" style="stop-color:#111111;stop-color:color(display-p3 0.0676 0.0676 0.0676);stop-opacity:1;"/>
</linearGradient>
<clipPath id="clip0_1712_10187">
<rect width="72.4638" height="32.7355" fill="white" style="fill:white;fill-opacity:1;" transform="translate(13.7695 33.5742)"/>
</clipPath>
</defs>
</svg>
