<svg width="100" height="100" viewBox="0 0 100 100" fill="none" xmlns="http://www.w3.org/2000/svg">
<rect width="100" height="100" rx="50" fill="url(#paint0_linear_1712_10163)" style=""/>
<g clip-path="url(#clip0_1712_10163)">
<path d="M31.7921 32.0582C31.7921 31.8022 31.9201 31.7382 32.5441 31.7382C33.8562 31.7222 34.5762 33.1623 34.5762 35.7864C34.5762 39.3385 33.6322 40.0105 32.5441 40.0105C31.9201 40.0105 31.7921 39.8505 31.7921 39.5145V32.0582ZM29.168 31.2422V31.6582C29.856 31.6902 29.968 31.7702 29.968 32.4422V39.3065C29.968 39.9785 29.904 40.0585 29.168 40.0905V40.5066H32.2401C33.8082 40.5066 36.5763 40.3146 36.5763 35.6904C36.5763 34.1703 36.3203 33.0823 35.6962 32.3142C35.0722 31.5462 34.1762 31.2422 32.7681 31.2422H29.168Z" fill="white" style="fill:white;fill-opacity:1;"/>
<path d="M41.201 37.0981C41.601 37.0981 41.793 37.0021 41.793 36.5701C41.793 35.5141 41.505 33.834 39.4249 33.834C37.3448 33.834 36.8008 35.402 36.8008 37.2421C36.8008 39.0822 37.3608 40.6983 39.3929 40.6823C40.6729 40.6823 41.345 39.8822 41.729 38.6662L41.425 38.4582C41.073 39.3862 40.5769 39.6902 39.9369 39.6902C38.9129 39.6902 38.5449 38.6022 38.5449 37.0981H41.201ZM38.5449 36.5861C38.5449 35.4821 38.7369 34.33 39.3769 34.33C40.0169 34.33 40.0969 35.338 40.0969 36.1701C40.0969 36.5221 40.0169 36.5861 39.7769 36.5861H38.5449Z" fill="white" style="fill:white;fill-opacity:1;"/>
<path d="M47.3458 35.8981C47.3458 34.65 46.8498 33.834 45.7457 33.834C45.1537 33.834 44.6577 34.218 43.9377 34.73L43.7937 33.85L41.6656 34.234V34.634L42.0176 34.698C42.1616 34.73 42.2576 34.842 42.2576 35.386V39.4982C42.2576 40.0102 42.1936 40.0582 41.6016 40.1062V40.5063H44.4657V40.1062C44.1457 40.0582 43.9377 40.0902 43.9377 39.5462V36.1541C43.9297 35.8894 43.962 35.625 44.0337 35.37C44.1617 35.034 44.4177 34.746 44.8497 34.746C45.2817 34.746 45.6657 35.178 45.6657 35.9301V39.5782C45.6657 40.1062 45.4417 40.0582 45.1217 40.1062V40.5063H48.0018V40.1062C47.4098 40.0582 47.3458 40.0422 47.3458 39.5142V35.8981Z" fill="white" style="fill:white;fill-opacity:1;"/>
<path d="M50.7535 34.5702V33.9941H49.6975V32.3301H49.0735L48.0974 33.9941H47.4414V34.5702H48.0334V38.9383C48.0334 40.1704 48.6895 40.6824 49.2975 40.6824C49.9055 40.6824 50.2895 40.4904 50.9135 39.9464L50.8335 39.6264C50.6773 39.6987 50.5092 39.742 50.3375 39.7544C49.9535 39.7544 49.6975 39.3864 49.6975 38.5383V34.5702H50.7535Z" fill="white" style="fill:white;fill-opacity:1;"/>
<path d="M52.4674 31.0352C51.9074 31.0352 51.6034 31.5472 51.6034 32.1232C51.6034 32.6992 51.9074 33.2432 52.4674 33.2432C53.0274 33.2432 53.3634 32.7152 53.3634 32.1232C53.3634 31.5312 53.0594 31.0352 52.4834 31.0352H52.4674ZM51.6834 39.4675C51.6834 39.9955 51.6034 40.0755 51.0273 40.1075V40.5075H54.0195V40.1075C53.4274 40.0595 53.3634 39.9955 53.3634 39.4675V33.8993L53.2834 33.8353L51.0913 34.2193V34.6353L51.4434 34.6993C51.6034 34.7313 51.6834 34.8433 51.6834 35.3873V39.4675Z" fill="white" style="fill:white;fill-opacity:1;"/>
<path d="M57.7161 36.0752V34.2991C57.2444 33.9809 56.6848 33.8186 56.116 33.8351C54.8519 33.8351 54.0519 34.6352 54.0519 35.9792C54.0519 36.9553 54.5159 37.5793 55.556 38.0913C56.18 38.4273 56.628 38.7793 56.628 39.3714C56.628 39.9634 56.34 40.2034 55.924 40.2034C55.252 40.2034 54.6119 39.1473 54.3399 38.0593H54.0039L54.1319 40.0594C54.4999 40.5074 55.3 40.6834 55.876 40.6834C57.14 40.6834 58.0681 39.9474 58.0681 38.4593C58.0681 37.3393 57.5401 36.8112 56.564 36.3312C55.908 36.0112 55.444 35.7072 55.444 35.1472C55.444 34.5872 55.668 34.3311 56.116 34.3311C56.564 34.3311 57.188 35.0672 57.396 36.0752H57.7161Z" fill="white" style="fill:white;fill-opacity:1;"/>
<path d="M61.3125 34.5702V33.9941H60.2565V32.3301H59.6164L58.6404 33.9941H57.9844V34.5702H58.5924V38.9383C58.5924 40.1704 59.2324 40.6824 59.8565 40.6824C60.4805 40.6824 60.8325 40.4904 61.4725 39.9464L61.3765 39.6264C61.2265 39.7004 61.0634 39.7439 60.8965 39.7544C60.5125 39.7544 60.2565 39.3864 60.2565 38.5383V34.5702H61.3125Z" fill="white" style="fill:white;fill-opacity:1;"/>
<path d="M63.8595 36.3461C63.8595 35.6901 63.9395 35.37 64.1955 35.37C64.4516 35.37 64.5156 35.5141 64.7396 35.7221C64.9636 35.9301 64.9956 35.9941 65.2196 35.9941C65.7316 35.9941 66.0196 35.338 66.0196 34.81C66.0196 34.282 65.6996 33.834 65.2356 33.834C64.7716 33.834 64.4516 34.234 63.8115 35.114L63.6835 33.85L61.5874 34.234V34.634L61.9395 34.698C62.0995 34.73 62.1795 34.858 62.1795 35.386V39.4662C62.1795 40.0102 62.0995 40.0582 61.5234 40.1062V40.5063H64.7396V40.1062C63.9395 40.0422 63.8595 40.0102 63.8595 39.4662V36.3461Z" fill="white" style="fill:white;fill-opacity:1;"/>
<path d="M70.0193 33.9941V34.4262L70.5633 34.5062C70.7234 34.5222 70.7714 34.6182 70.7234 34.9062C70.4513 36.1542 70.0993 37.5943 69.7793 38.7783H69.7633C69.4273 37.7063 68.8993 36.1382 68.5793 34.9382C68.4993 34.6822 68.5313 34.5382 68.6913 34.5062L69.0913 34.4262V33.9941H66.0352V34.4262C66.4992 34.5062 66.5952 34.4742 66.7872 35.0342C67.3312 36.5862 68.1152 38.8583 68.7393 40.7784C68.8193 41.0504 68.9473 41.5785 68.8673 41.8025C68.7393 42.2665 68.5953 42.4105 68.3873 42.4105C68.2261 42.3781 68.0799 42.2938 67.9712 42.1705C67.7472 41.9625 67.6832 41.8985 67.4912 41.8985C67.2992 41.8985 66.7712 42.4905 66.7712 43.0025C66.7691 43.1139 66.7889 43.2246 66.8296 43.3283C66.8702 43.432 66.9309 43.5267 67.0082 43.6069C67.0855 43.6871 67.1778 43.7514 67.2799 43.7959C67.382 43.8405 67.4919 43.8645 67.6032 43.8665C68.3873 43.8665 68.8513 43.3385 69.4273 41.4344C70.0033 39.5304 70.6913 37.0823 71.2514 35.3382C71.4914 34.5862 71.5074 34.4742 72.1314 34.4262V33.9941H70.0193Z" fill="white" style="fill:white;fill-opacity:1;"/>
<path d="M31.3133 42.6668L31.8093 44.0588H30.7372L31.3133 42.6668ZM33.3933 45.4509H33.2173C33.0893 45.4509 33.0253 45.4029 32.9613 45.2109L31.8573 42.1867C31.8573 42.1387 31.8413 42.1067 31.8413 42.0747C31.8413 42.0427 31.9693 41.9307 31.9693 41.8667C31.9693 41.8027 31.9373 41.8027 31.8893 41.8027H31.8093L31.4253 41.8827L29.9852 45.3069C29.9372 45.4029 29.9052 45.4509 29.7932 45.4509H29.6172V45.6429H30.8012V45.4509H30.5132C30.3372 45.4509 30.2732 45.4189 30.2732 45.3069C30.2985 45.1964 30.3361 45.089 30.3852 44.9869L30.6572 44.2828H31.9053L32.2573 45.3229C32.27 45.3417 32.2757 45.3643 32.2733 45.3869C32.2733 45.4349 32.2413 45.4509 32.1613 45.4509H31.9053V45.6429H33.3933V45.4509ZM32.8493 41.9307V42.1227H33.0093C33.2013 42.1227 33.2493 42.2188 33.3293 42.4428L34.6254 45.5629C34.6574 45.6429 34.6734 45.6749 34.7054 45.6749C34.7374 45.6749 34.7694 45.6429 34.8014 45.5629L35.7614 43.1468L36.7535 45.5789C36.7855 45.6429 36.8175 45.6909 36.8335 45.6909C36.8495 45.6909 36.8975 45.6589 36.9295 45.5949L38.2735 42.3148C38.3215 42.1867 38.3215 42.1227 38.4655 42.1227H38.6416V41.9307H37.5375V42.1227H37.7615C37.9215 42.1227 37.9855 42.1547 37.9855 42.2668C37.9728 42.3764 37.9459 42.484 37.9055 42.5868L37.1055 44.5868V44.6348C37.0895 44.6348 37.0895 44.6188 37.0735 44.5868L36.1295 42.2668C36.1074 42.2336 36.0963 42.1945 36.0975 42.1547C36.0975 42.1387 36.1295 42.1227 36.1775 42.1227H36.5135V41.9307H34.9774V42.1227H35.1374C35.2814 42.1227 35.3294 42.1547 35.3934 42.2988L35.6334 42.8428L34.9774 44.5388L34.9454 44.5708V44.5388L33.9854 42.2508C33.9742 42.2408 33.9654 42.2284 33.9599 42.2145C33.9543 42.2007 33.9521 42.1857 33.9534 42.1707C33.9534 42.1547 33.9854 42.1227 34.0494 42.1227H34.3374V41.9307H32.8493ZM39.6016 42.6668L40.0976 44.0588H39.0256L39.6016 42.6668ZM41.6657 45.4509H41.4897C41.3617 45.4509 41.2977 45.4029 41.2337 45.2109L40.1456 42.1867C40.1295 42.1512 40.1188 42.1134 40.1136 42.0747C40.1136 41.9467 40.2416 41.9307 40.2416 41.8667C40.2416 41.8027 40.2096 41.8027 40.1616 41.8027H40.0976L39.7136 41.8827L38.2575 45.3069C38.2255 45.4029 38.1775 45.4509 38.0815 45.4509H37.9055V45.6429H39.0736V45.4509H38.7856C38.6256 45.4509 38.5616 45.4189 38.5616 45.3069C38.5864 45.1982 38.6184 45.0913 38.6576 44.9869L38.9296 44.2828H40.1936L40.5456 45.3229V45.3869C40.5456 45.4349 40.5136 45.4509 40.4336 45.4509H40.1776V45.6429H41.6497L41.6657 45.4509ZM41.7777 41.9307V42.1067H41.9537C42.2257 42.1067 42.2417 42.2828 42.2417 42.8748V45.2429C42.2417 45.4029 42.2417 45.4509 42.1137 45.4509H41.8897V45.6429H43.3938V45.4509H43.1537C42.8977 45.4509 42.8817 45.2909 42.8817 44.6829V43.9628H43.2977C43.578 44.4764 43.8878 44.9733 44.2258 45.4509C44.3538 45.6269 44.4178 45.6429 44.5618 45.6429H45.2818V45.4509H45.1698C44.9458 45.4509 44.8818 45.2909 44.6258 44.9389C44.3698 44.5868 44.0658 44.1548 43.8738 43.8508C44.4018 43.7388 44.7058 43.4028 44.7058 42.9708C44.7058 42.5388 44.2258 41.9307 43.3137 41.9307H41.7777ZM42.8817 43.7548V42.2348C42.8817 42.1547 42.9297 42.1387 43.0417 42.1387C43.6498 42.1387 44.0338 42.5068 44.0338 43.0348C44.0338 43.5628 43.7138 43.7708 43.1537 43.7708L42.8817 43.7548ZM46.5139 42.1387H46.7059C47.6339 42.1387 48.29 42.8428 48.29 43.8988C48.29 44.9549 47.7779 45.4189 46.8179 45.4189H46.6739C46.3859 45.4189 46.3859 45.3069 46.3859 44.7469V42.3628C46.3859 42.1868 46.3859 42.1387 46.5139 42.1387ZM45.3778 45.6429H46.8179C47.4899 45.6429 47.9699 45.5469 48.402 45.1469C48.5926 44.9592 48.7434 44.7348 48.8451 44.4873C48.9469 44.2399 48.9975 43.9744 48.994 43.7068C48.994 42.6028 48.2419 41.9307 46.8499 41.9307H45.2658V42.1227H45.4418C45.7138 42.1227 45.7298 42.2828 45.7298 42.8908V45.2589C45.7298 45.4189 45.7138 45.4509 45.6018 45.4509H45.3778V45.6589V45.6429ZM51.5861 41.9307C51.3645 41.8558 51.132 41.818 50.8981 41.8187C50.034 41.8187 49.474 42.3148 49.474 42.9868C49.4761 43.1152 49.5057 43.2416 49.5609 43.3576C49.6161 43.4735 49.6956 43.5763 49.794 43.6588C49.986 43.8188 50.29 43.9308 50.6901 44.1068C51.0901 44.2828 51.2981 44.5068 51.2981 44.8429C51.2981 45.1789 50.9621 45.5149 50.45 45.5149C49.938 45.5149 49.746 45.3869 49.57 45.0989C49.394 44.8109 49.474 44.9229 49.41 44.9229C49.346 44.9229 49.33 44.9549 49.33 45.0189V45.0509L49.41 45.5629C49.7156 45.6851 50.041 45.7502 50.37 45.7549C51.2821 45.7549 51.8741 45.1789 51.8741 44.5388C51.8741 43.8988 51.5061 43.6908 50.7861 43.3868C50.066 43.0828 49.986 42.9708 49.986 42.6508C49.986 42.3308 50.306 42.0427 50.7381 42.0427C51.1701 42.0427 51.2661 42.1387 51.3941 42.3468C51.5221 42.5548 51.4741 42.4748 51.5541 42.4748C51.6341 42.4748 51.6021 42.4588 51.6021 42.3948V41.9307H51.5861ZM54.4662 45.1149C55.4582 44.2828 56.0343 43.7228 56.0343 42.9548C56.0343 42.1867 55.6023 41.8187 54.9142 41.8187C54.5016 41.817 54.1049 41.978 53.8102 42.2668L53.9062 42.3948C54.1153 42.2558 54.3592 42.1782 54.6102 42.1707C55.1062 42.1707 55.4262 42.5068 55.4262 43.0668C55.4262 43.6268 55.0262 44.2348 54.4022 44.9229C54.0502 45.3069 53.7942 45.4669 53.7942 45.5789C53.7942 45.6909 53.8422 45.6429 53.9222 45.6429H56.1943L56.4343 45.0349L56.4663 44.9549C56.4667 44.9361 56.4605 44.9179 56.4488 44.9033C56.4371 44.8887 56.4206 44.8786 56.4023 44.8749C56.3223 44.8749 56.2743 45.0349 56.0023 45.0669C55.4917 45.1134 54.9787 45.1295 54.4662 45.1149ZM56.9783 43.9628C56.9783 45.0989 57.4583 45.7549 58.1784 45.7549C58.8984 45.7549 59.6184 44.9389 59.6184 43.5948C59.6184 42.4908 59.0904 41.8027 58.3864 41.8027C58.1937 41.8143 58.0064 41.8711 57.8396 41.9683C57.6728 42.0656 57.5313 42.2007 57.4263 42.3628C57.1128 42.8359 56.956 43.3957 56.9783 43.9628ZM58.2104 42.0587C58.6584 42.0587 59.0424 42.8108 59.0424 44.1068C59.0424 45.0029 58.7384 45.4989 58.3704 45.4989C58.0023 45.4989 57.5543 44.7629 57.5543 43.4508C57.5543 42.5548 57.8423 42.0587 58.2104 42.0587ZM60.6905 45.1149C61.6825 44.2828 62.2585 43.7228 62.2585 42.9548C62.2585 42.1867 61.8265 41.8187 61.1225 41.8187C60.9206 41.8182 60.7206 41.8576 60.5339 41.9344C60.3472 42.0113 60.1774 42.1242 60.0344 42.2668L60.1304 42.3948C60.3388 42.2542 60.5832 42.1764 60.8345 42.1707C61.3145 42.1707 61.6345 42.5068 61.6345 43.0668C61.6345 43.6268 61.2345 44.2348 60.6105 44.9229C60.2584 45.3069 60.0184 45.4669 60.0184 45.5789C60.0184 45.6909 60.0664 45.6429 60.1464 45.6429H62.4185L62.6585 45.0349C62.6691 45.0095 62.6745 44.9823 62.6745 44.9549C62.6745 44.9069 62.6585 44.8749 62.6105 44.8749C62.5625 44.8749 62.4825 45.0349 62.2105 45.0669C61.7053 45.1141 61.1977 45.1301 60.6905 45.1149ZM63.7946 45.1149C64.7866 44.2828 65.3627 43.7228 65.3627 42.9548C65.3627 42.1867 64.9306 41.8187 64.2426 41.8187C63.83 41.817 63.4333 41.978 63.1386 42.2668L63.2346 42.3948C63.4437 42.2558 63.6876 42.1782 63.9386 42.1707C64.4346 42.1707 64.7546 42.5068 64.7546 43.0668C64.7546 43.6268 64.3546 44.2348 63.7306 44.9229C63.3626 45.3069 63.1226 45.4669 63.1226 45.5789C63.1226 45.6909 63.1706 45.6429 63.2506 45.6429H65.5227L65.7627 45.0349L65.7947 44.9549C65.7947 44.9336 65.7862 44.9133 65.7712 44.8983C65.7562 44.8833 65.7359 44.8749 65.7147 44.8749C65.6507 44.8749 65.6027 45.0349 65.3307 45.0669C64.82 45.1134 64.3071 45.1295 63.7946 45.1149Z" fill="white" style="fill:white;fill-opacity:1;"/>
<path d="M33.7126 52.2828V51.0827H28.8164V57.483H30.3205V55.1629H33.3126V53.9628H30.3205V52.2828H33.7126ZM34.7206 57.483H36.2247V51.0827H34.7206V57.483ZM42.209 51.0827V54.9709L38.9928 51.0827H37.7608V57.483H39.2328V53.5948L42.465 57.483H43.681V51.0827H42.209ZM50.0493 57.483H51.6173L48.7372 51.0827H47.2492L44.369 57.483H45.9051L46.4811 56.1229H49.4732L50.0493 57.483ZM46.9611 54.9869L47.9852 52.5388L49.0092 54.9869H46.9611ZM52.3054 57.483H57.0416V56.2829H53.7934V51.0827H52.3054V57.483ZM57.8736 57.483H59.3777V51.0827H57.8736V57.483ZM63.0418 57.595C64.8819 57.595 65.7779 56.6829 65.7779 55.6109C65.7779 53.2588 62.0178 54.0748 62.0178 52.9068C62.0178 52.4908 62.3538 52.1708 63.2498 52.1708C63.8796 52.1814 64.4963 52.3521 65.0419 52.6668L65.5059 51.5467C64.8979 51.1627 64.0658 50.9707 63.2498 50.9707C61.4257 50.9707 60.5297 51.8827 60.5297 52.9708C60.5297 55.3549 64.2899 54.5228 64.2899 55.7229C64.2899 56.1229 63.9378 56.4109 63.0418 56.4109C62.2809 56.4064 61.5392 56.1722 60.9137 55.7389L60.4017 56.8589C60.9777 57.291 62.0178 57.595 63.0418 57.595ZM68.05 57.483H69.5541V52.2988H71.6182V51.0827H65.9859V52.2988H68.05V57.483Z" fill="white" style="fill:white;fill-opacity:1;"/>
<path d="M36.7385 29.5137L36.5785 29.9937C36.5677 30.0133 36.5622 30.0353 36.5625 30.0577C36.5621 30.0764 36.5683 30.0947 36.58 30.1093C36.5917 30.1239 36.6082 30.134 36.6265 30.1377C36.7225 30.1377 36.7545 29.9937 36.8825 29.9137C37.0105 29.8337 37.4106 29.7217 37.8906 29.7217V32.7458C37.8906 32.8898 37.8906 32.9378 37.7626 32.9378H37.3465V33.1138H39.1066V32.9378H38.7866C38.5306 32.9378 38.5306 32.7778 38.5306 32.1858V29.7217C38.9946 29.7217 39.3146 29.7697 39.5226 29.8977C39.7306 30.0257 39.6986 30.1377 39.7786 30.1377C39.797 30.134 39.8134 30.1239 39.8251 30.1093C39.8368 30.0947 39.843 30.0764 39.8427 30.0577C39.843 30.0353 39.8375 30.0133 39.8267 29.9937L39.6826 29.5137H36.7385ZM39.9547 29.5137V29.6897H40.1147C40.3707 29.6897 40.3867 29.8497 40.3867 30.4417V32.7458C40.3867 32.8898 40.3867 32.9378 40.2587 32.9378H40.0507V33.1138H41.5067V32.9378H41.2987C41.0427 32.9378 41.0267 32.7778 41.0267 32.1858V31.2737H42.6108V32.7458C42.6108 32.8898 42.6108 32.9378 42.4828 32.9378H42.2747V33.1138H43.7148V32.9378H43.5068C43.2508 32.9378 43.2508 32.7778 43.2508 32.1858V29.8657C43.2508 29.7377 43.2508 29.6897 43.3628 29.6897H43.5708V29.5137H42.1467V29.6897H42.3388C42.5948 29.6897 42.6108 29.8657 42.6108 30.4417V31.0337H41.0267V29.8337C41.0267 29.7377 41.0427 29.6897 41.1387 29.6897H41.3627V29.5137H39.9547ZM44.0348 29.5137V29.6897H44.1948C44.4508 29.6897 44.4668 29.8497 44.4668 30.4417V32.7938C44.4668 32.9058 44.4668 32.9378 44.3548 32.9378H44.1468V33.1138H46.7869L46.9309 32.6338V32.5538C46.9309 32.5411 46.9259 32.5289 46.9169 32.5199C46.9079 32.5109 46.8957 32.5058 46.8829 32.5058C46.7709 32.5058 46.7069 32.6978 46.4989 32.7778C46.2385 32.8773 45.9616 32.9261 45.6829 32.9218H45.3789C45.1229 32.9218 45.1069 32.7778 45.1069 32.1698V31.2257H45.7309C46.1309 31.2257 46.2589 31.2417 46.2589 31.4178V31.5938H46.4349V30.6177H46.2589V30.7777C46.2589 31.0017 46.1149 31.0177 45.5869 31.0177H45.1069V29.8497C45.1069 29.7537 45.1229 29.7217 45.2349 29.7217H45.5869C46.0509 29.7217 46.3389 29.7857 46.4669 29.8657C46.5949 29.9457 46.5789 30.0897 46.6589 30.0897C46.7389 30.0897 46.7069 30.0577 46.7229 29.9937L46.7869 29.5137H44.0348Z" fill="white" style="fill:white;fill-opacity:1;"/>
<path fill-rule="evenodd" clip-rule="evenodd" d="M34.6406 58.4277H35.1046L50.0173 84.4128L64.8979 58.4277H65.3779L50.0173 85.2768L34.8646 58.8438L34.6406 58.4277Z" fill="white" style="fill:white;fill-opacity:1;"/>
<path fill-rule="evenodd" clip-rule="evenodd" d="M39.4102 58.4434H40.6262L50.0186 74.796L59.379 58.4434H60.611L50.0186 76.9241L39.9222 59.3554L39.4102 58.4434Z" fill="white" style="fill:white;fill-opacity:1;"/>
<path fill-rule="evenodd" clip-rule="evenodd" d="M19.8242 24.1543L21.6323 25.2903H78.3386L80.1947 24.2023H20.6883L19.8242 24.1543Z" fill="white" style="fill:white;fill-opacity:1;"/>
<path fill-rule="evenodd" clip-rule="evenodd" d="M21.6163 27.4344L28.4646 39.4029H29.2966V38.6509L21.6323 25.2903L19.8242 24.1543L21.6163 27.4344Z" fill="white" style="fill:white;fill-opacity:1;"/>
<path fill-rule="evenodd" clip-rule="evenodd" d="M70.1289 41.7078L80.1933 24.2031L78.3372 25.2912L71.329 37.4837L70.1289 41.7078Z" fill="white" style="fill:white;fill-opacity:1;"/>
<path fill-rule="evenodd" clip-rule="evenodd" d="M29.5352 41.2109H30.7352L31.0392 41.739L30.5432 42.987L29.5352 41.2109Z" fill="white" style="fill:white;fill-opacity:1;"/>
<path fill-rule="evenodd" clip-rule="evenodd" d="M32.2578 45.9473H33.4259L35.794 50.1074H34.6099L32.2578 45.9473Z" fill="white" style="fill:white;fill-opacity:1;"/>
<path fill-rule="evenodd" clip-rule="evenodd" d="M68.7527 44.1543L65.3606 50.0905H64.1445L67.3287 44.4423C67.8225 44.5206 68.3281 44.4183 68.7527 44.1543Z" fill="white" style="fill:white;fill-opacity:1;"/>
<path fill-rule="evenodd" clip-rule="evenodd" d="M24.5288 32.5059H19.8086L29.857 50.0746H30.353L20.5446 32.9379H24.7688L24.5288 32.5059Z" fill="white" style="fill:white;fill-opacity:1;"/>
</g>
<defs>
<linearGradient id="paint0_linear_1712_10163" x1="50" y1="0" x2="50" y2="100" gradientUnits="userSpaceOnUse">
<stop stop-color="#262626" style="stop-color:#262626;stop-color:color(display-p3 0.1498 0.1493 0.1493);stop-opacity:1;"/>
<stop offset="1" stop-color="#111111" style="stop-color:#111111;stop-color:color(display-p3 0.0676 0.0676 0.0676);stop-opacity:1;"/>
</linearGradient>
<clipPath id="clip0_1712_10163">
<rect width="60.3865" height="61.1225" fill="white" style="fill:white;fill-opacity:1;" transform="translate(19.8086 24.1543)"/>
</clipPath>
</defs>
</svg>
