<svg width="100" height="100" viewBox="0 0 100 100" fill="none" xmlns="http://www.w3.org/2000/svg">
<rect width="100" height="100" rx="50" fill="url(#paint0_linear_1712_11274)" style=""/>
<g clip-path="url(#clip0_1712_11274)">
<path fill-rule="evenodd" clip-rule="evenodd" d="M35.1211 60.584H35.5715L50.1401 85.6363L64.6775 60.584H65.159L50.1401 86.475L35.3385 60.9878L35.1211 60.584Z" fill="black" style="fill:black;fill-opacity:1;"/>
<path fill-rule="evenodd" clip-rule="evenodd" d="M39.7812 60.584H40.9616L50.1408 76.3485L59.2888 60.584H60.4847L50.1408 78.4297L40.2783 61.4848L39.7812 60.584Z" fill="black" style="fill:black;fill-opacity:1;"/>
<path d="M34.6738 32.7829C34.6738 32.5499 34.7825 32.5033 35.3261 32.5033C36.4599 32.5033 37.0967 33.7303 37.0967 35.9824C37.0967 39.011 36.258 39.6012 35.3261 39.6012C34.7825 39.6012 34.6738 39.4614 34.6738 39.1819V32.7829ZM32.3906 32.084V32.4412C32.9964 32.4723 33.0895 32.5344 33.0895 33.1091V38.9955C33.0895 39.5702 33.0274 39.6323 32.3906 39.6634V40.0206H35.062C36.4288 40.0206 38.8207 39.8497 38.8207 35.8892C38.8207 34.5846 38.6032 33.6527 38.0596 33.0003C37.516 32.348 36.755 32.084 35.528 32.084H32.3906Z" fill="black" style="fill:black;fill-opacity:1;"/>
<path d="M42.8403 37.1004C43.182 37.1004 43.3528 37.0227 43.3528 36.6499C43.3528 35.7336 43.1043 34.3047 41.2871 34.3047C39.4699 34.3047 39.0195 35.6404 39.0195 37.2246C39.0195 38.8088 39.5165 40.1756 41.2716 40.1601C42.3743 40.1601 42.9645 39.4922 43.2907 38.4361L43.0422 38.2652C42.7316 39.0573 42.2967 39.3214 41.7531 39.3214C40.8522 39.3214 40.5416 38.3895 40.5416 37.1004H42.8403ZM40.5416 36.6655C40.5416 35.7181 40.6969 34.724 41.2561 34.724C41.8152 34.724 41.8929 35.5938 41.8929 36.3083C41.8929 36.6033 41.7997 36.6655 41.5978 36.6655H40.5416Z" fill="black" style="fill:black;fill-opacity:1;"/>
<path d="M48.1692 36.0597C48.1692 35.0036 47.7499 34.3047 46.7869 34.3047C46.2744 34.3047 45.8395 34.6308 45.2182 35.0813L45.094 34.3047L43.2457 34.6464V34.9881L43.5408 35.0502C43.6806 35.0657 43.7583 35.1745 43.7583 35.6249V39.1505C43.7583 39.6009 43.6961 39.632 43.1836 39.6786V40.0203H45.6686V39.6786C45.4046 39.632 45.2182 39.6631 45.2182 39.1971V36.2927C45.2066 36.0673 45.2328 35.8416 45.2959 35.6249C45.342 35.4702 45.436 35.3342 45.5644 35.2365C45.6928 35.1388 45.849 35.0844 46.0103 35.0813C46.4763 35.0813 46.7092 35.454 46.7092 36.1063V39.2282C46.7092 39.6786 46.5229 39.632 46.2433 39.6786V40.0203H48.7439V39.6786C48.2313 39.632 48.1692 39.6165 48.1692 39.166V36.0597Z" fill="black" style="fill:black;fill-opacity:1;"/>
<path d="M51.135 34.9415V34.4445H50.2186V33.0156H49.6595L48.8208 34.4445H48.2461V34.9415H48.7742V38.6846C48.7742 39.7252 49.3333 40.1601 49.8614 40.1601C50.3894 40.1601 50.7156 40.0048 51.2747 39.5389L51.1971 39.2593C51.0663 39.3241 50.9235 39.3611 50.7777 39.368C50.436 39.368 50.2186 39.0574 50.2186 38.3429V34.9415H51.135Z" fill="black" style="fill:black;fill-opacity:1;"/>
<path d="M52.6252 31.8965C52.1282 31.8965 51.8642 32.3469 51.8642 32.8284C51.8642 33.3099 52.1282 33.7913 52.6252 33.7913C53.1222 33.7913 53.4018 33.3409 53.4018 32.8284C53.4018 32.3158 53.1222 31.8965 52.6252 31.8965ZM51.9263 39.1342C51.9263 39.5846 51.8642 39.6467 51.3672 39.6778V40.0195H53.9609V39.6778C53.4484 39.6312 53.3863 39.5846 53.3863 39.1342V34.366L53.3242 34.3194L51.4138 34.6456V34.9873L51.7244 35.0494C51.8642 35.0804 51.9263 35.1736 51.9263 35.624V39.1342Z" fill="black" style="fill:black;fill-opacity:1;"/>
<path d="M57.1603 36.2298V34.6921C56.7559 34.4245 56.2783 34.2888 55.7936 34.3039C54.6908 34.3039 53.9919 34.9872 53.9919 36.1366C53.9919 36.9753 54.3802 37.5033 55.2966 37.9538C55.8402 38.2333 56.2284 38.5284 56.2284 39.041C56.2284 39.5535 55.9799 39.7554 55.6072 39.7554C55.2344 39.7554 54.4734 38.8546 54.2404 37.9227H53.9453L54.0696 39.6312C54.3802 40.0195 55.0791 40.1592 55.5761 40.1592C56.6789 40.1592 57.471 39.538 57.471 38.2644C57.471 37.317 57.0206 36.851 56.1663 36.4472C55.6072 36.1676 55.2034 35.9036 55.2034 35.4221C55.2034 34.9406 55.3897 34.7232 55.7936 34.7232C56.1974 34.7232 56.7099 35.36 56.8963 36.2298H57.1603Z" fill="black" style="fill:black;fill-opacity:1;"/>
<path d="M60.299 34.9415V34.4445H59.3827V33.0156H58.8391L57.9848 34.4445H57.4102V34.9415H57.9382V38.6846C57.9382 39.7252 58.4974 40.1601 59.0254 40.1601C59.5535 40.1601 59.8952 40.0048 60.4388 39.5389L60.3611 39.2593C60.2304 39.3241 60.0876 39.3611 59.9418 39.368C59.6001 39.368 59.3827 39.0574 59.3827 38.3429V34.9415H60.299Z" fill="black" style="fill:black;fill-opacity:1;"/>
<path d="M62.5034 36.448C62.5034 35.8889 62.5655 35.6249 62.7985 35.6249C63.0314 35.6249 63.078 35.7336 63.2644 35.92C63.3134 35.9867 63.3762 36.0421 63.4486 36.0823C63.521 36.1225 63.6012 36.1466 63.6838 36.1529C64.1342 36.1529 64.3672 35.5938 64.3672 35.1279C64.3672 34.6619 64.1031 34.3047 63.6993 34.3047C63.2955 34.3047 63.0159 34.6464 62.4568 35.3919L62.3481 34.3047L60.5309 34.6464V34.9881L60.8415 35.0502C60.9658 35.0657 61.0434 35.1745 61.0434 35.6249V39.1195C61.0434 39.6009 60.9813 39.632 60.4688 39.6631V40.0203H63.2644V39.6631C62.5655 39.6165 62.5034 39.6009 62.5034 39.1195V36.448Z" fill="black" style="fill:black;fill-opacity:1;"/>
<path d="M67.8464 34.4434V34.8006L68.3279 34.8782C68.4677 34.8938 68.5143 34.9714 68.4677 35.2199C68.2192 36.2916 67.9241 37.5341 67.6445 38.5281H67.629C67.3339 37.6118 66.8835 36.2761 66.6039 35.251C66.5418 35.018 66.5573 34.9093 66.6971 34.8782L67.0543 34.8006V34.4434H64.3984V34.8006C64.8023 34.8782 64.8799 34.8627 65.0508 35.3287C65.5322 36.6644 66.2001 38.6058 66.7437 40.2521C66.8058 40.4851 66.9301 40.9355 66.8524 41.1219C66.7748 41.3083 66.6194 41.65 66.4331 41.65C66.2954 41.6229 66.1701 41.552 66.0758 41.4481C65.8739 41.2617 65.8273 41.2151 65.6565 41.2151C65.4856 41.2151 65.0352 41.7121 65.0352 42.1625C65.0352 42.3576 65.1116 42.5449 65.2481 42.6843C65.3845 42.8236 65.5702 42.904 65.7652 42.908C66.4331 42.908 66.8369 42.4421 67.3339 40.8113C67.8309 39.1805 68.4366 37.0837 68.9181 35.5927C69.1355 34.9559 69.1511 34.8627 69.6791 34.8006V34.4434H67.8464Z" fill="black" style="fill:black;fill-opacity:1;"/>
<path d="M35.745 44.0889V43.9492C35.4965 43.9492 35.4343 43.9026 35.3567 43.7317C35.1237 43.1104 34.6112 41.5418 34.3627 40.7497H33.7414C33.4463 41.6505 32.8872 43.2968 32.7008 43.7162C32.6076 43.887 32.5765 43.9336 32.3125 43.9492V44.1045H33.3842V43.9492L33.0891 43.9181C32.9804 43.9181 32.9804 43.856 32.9959 43.7628C33.0114 43.6696 33.1512 43.2192 33.2444 42.893H34.2229C34.3005 43.1104 34.4248 43.4987 34.5024 43.7472C34.5801 43.9957 34.518 43.9026 34.4248 43.9181L34.1297 43.9492V44.1045H35.745V44.0889ZM34.1452 42.6911H33.322C33.4152 42.3805 33.6482 41.6194 33.7259 41.3865H33.7414C33.8346 41.6971 34.0676 42.4115 34.1452 42.6911ZM39.0998 40.7807V40.9205L39.3949 40.9516C39.4881 40.9671 39.4881 41.0292 39.4725 41.1379C39.3327 41.8679 39.1464 42.6134 38.9444 43.359H38.9289C38.7581 42.7843 38.3543 41.4796 38.1989 40.8429H37.6398C37.5777 41.1535 37.2049 43.0017 37.1273 43.3279H37.1117C36.972 42.8154 36.6303 41.4796 36.5526 41.1224C36.5371 41.0292 36.5215 40.9671 36.6303 40.9516L36.8477 40.9205V40.7807H35.3567V40.9205C35.5896 40.936 35.6518 40.9826 35.6984 41.1379C35.9935 42.1009 36.273 43.157 36.5215 44.1045H37.1428C37.1428 44.1511 37.6709 41.7747 37.6553 41.8213H37.6709C37.7641 42.163 38.1834 43.6385 38.3077 44.1045H38.9444C39.1619 43.2658 39.5191 41.9767 39.7676 41.1845C39.8297 40.9671 39.8763 40.9516 40.1404 40.9205V40.7807H39.0998ZM43.0758 44.1045V43.9492C42.8273 43.9492 42.7652 43.9026 42.7031 43.7317C42.4701 43.1104 41.9576 41.5418 41.6935 40.7497H41.0878C40.7927 41.6505 40.218 43.2968 40.0317 43.7162C39.954 43.887 39.9074 43.9336 39.6589 43.9492V44.1045H40.715V43.9492L40.4199 43.9181C40.3112 43.9181 40.3112 43.856 40.3423 43.7628C40.4065 43.4678 40.4895 43.1773 40.5908 42.893H41.5537C41.6314 43.1104 41.7557 43.4987 41.8333 43.7472C41.911 43.9957 41.8488 43.9026 41.7557 43.9181L41.4606 43.9492V44.1045H43.0758ZM41.4916 42.7066H40.6529C40.7461 42.3805 40.9946 41.6194 41.0567 41.3865H41.0723C41.181 41.6971 41.3984 42.4115 41.4916 42.7066ZM44.3339 42.5358H44.5047C44.7843 42.5358 44.9085 42.5979 44.9862 42.9551C45.0136 43.1762 45.0604 43.3945 45.126 43.6075C45.2502 43.9647 45.4677 44.1045 46.0113 44.1045H46.384V43.9492C46.0734 43.9336 46.0268 43.7472 45.9181 43.2502C45.8094 42.7532 45.6385 42.5358 45.126 42.4115V42.3805C45.6541 42.3183 45.9647 42.0388 45.9647 41.5884C45.9647 40.8584 45.4211 40.7807 44.862 40.7807H43.1535V40.9205C43.4796 40.936 43.5107 40.9671 43.5107 41.2001V43.6696C43.5107 43.9026 43.4796 43.9336 43.1535 43.9492V44.0889H44.7066V43.9492C44.3805 43.9336 44.3339 43.9026 44.3339 43.6696V42.5358ZM44.3339 41.1069C44.3339 40.9826 44.3494 40.9516 44.5979 40.9516C44.8464 40.9516 45.1105 41.1845 45.1105 41.6505C45.1105 42.1164 45.0328 42.3494 44.5047 42.3494H44.3339V41.1224V41.1069ZM47.611 41.0758C47.611 40.9671 47.6732 40.9516 47.9527 40.9516C48.5584 40.9516 48.8846 41.4641 48.8846 42.4115C48.8846 43.6696 48.4497 43.9181 47.9527 43.9181C47.4557 43.9181 47.611 43.856 47.611 43.7472V41.0758ZM46.4306 40.7807V40.9205C46.7413 40.936 46.7879 40.9671 46.7879 41.2001V43.6696C46.7879 43.9026 46.7568 43.9336 46.4306 43.9492V44.1045H47.8285C48.5274 44.1045 49.7854 44.0268 49.7854 42.3649C49.7854 41.8213 49.6612 41.433 49.3816 41.1535C49.1021 40.8739 48.6982 40.7807 48.0614 40.7807H46.4306ZM52.3171 41.7126V40.905C52.039 40.7603 51.7297 40.6856 51.4162 40.6875C50.562 40.6875 50.2203 41.1224 50.2203 41.6971C50.2203 42.2717 50.6552 42.5513 51.1522 42.7843C51.6492 43.0173 51.7735 43.1726 51.7735 43.4832C51.7735 43.7938 51.6182 43.9957 51.2454 43.9957C50.8726 43.9957 50.5154 43.623 50.3135 43.0173H50.1737L50.2514 43.9026C50.5154 44.1355 50.9503 44.1821 51.2454 44.1821C52.2239 44.1821 52.5035 43.6385 52.5035 43.126C52.5035 42.6134 52.053 42.2873 51.6337 42.1009C51.2143 41.9145 50.9037 41.7592 50.9037 41.3709C50.8991 41.3045 50.9088 41.2378 50.9322 41.1754C50.9555 41.113 50.992 41.0564 51.0391 41.0093C51.0862 40.9622 51.1428 40.9257 51.2052 40.9024C51.2676 40.879 51.3343 40.8693 51.4007 40.8739C51.7269 40.8739 52.0375 41.1379 52.1773 41.7126H52.3171ZM56.2155 43.157L56.0757 43.126C55.8893 43.4677 55.8117 43.4987 55.6719 43.4987H54.1964C54.2896 43.3434 54.6313 43.1105 55.1904 42.8464C55.7495 42.5824 56.0446 42.3028 56.0446 41.8058C56.0446 41.3088 55.5787 40.8584 54.9264 40.8584C54.274 40.8584 53.777 41.2467 53.777 41.6505C53.785 41.7425 53.8282 41.8279 53.8977 41.8887C53.9672 41.9495 54.0575 41.981 54.1498 41.9767C54.2051 41.9812 54.26 41.9644 54.3033 41.9297C54.3466 41.8951 54.375 41.8452 54.3828 41.7903C54.476 41.2777 54.5847 41.0448 54.8487 41.0448C55.1127 41.0448 55.2059 41.3088 55.2059 41.635C55.2059 41.9611 55.1904 42.3183 54.6468 42.7843C54.1032 43.2502 53.746 43.7317 53.746 44.0579L53.777 44.1045H56.0136L56.2155 43.157ZM57.5978 41.0448C57.9861 41.0448 57.9861 41.9456 57.9861 42.5047C57.9861 43.0639 57.9705 43.9802 57.6133 43.9802C57.2561 43.9802 57.2095 43.0949 57.2095 42.5047C57.2095 41.9145 57.2095 41.0448 57.5978 41.0448ZM57.5978 40.8584C56.6659 40.8584 56.3863 41.635 56.3863 42.5047C56.3863 43.3745 56.6659 44.1511 57.5978 44.1511C58.5297 44.1511 58.8092 43.3745 58.8092 42.5047C58.8092 41.635 58.5141 40.8584 57.6133 40.8584H57.5978ZM61.4962 43.157L61.3564 43.126C61.17 43.4677 61.0924 43.4987 60.9526 43.4987H59.4771C59.5703 43.3434 59.912 43.1105 60.4711 42.8464C61.0302 42.5824 61.3253 42.3028 61.3253 41.8058C61.3253 41.3088 60.8594 40.8584 60.2071 40.8584C59.5548 40.8584 59.0577 41.2467 59.0577 41.6505C59.0657 41.7425 59.1089 41.8279 59.1784 41.8887C59.2479 41.9495 59.3383 41.981 59.4305 41.9767C59.457 41.9788 59.4837 41.9756 59.509 41.9674C59.5343 41.9592 59.5578 41.946 59.578 41.9287C59.5982 41.9114 59.6148 41.8902 59.6268 41.8665C59.6388 41.8427 59.646 41.8168 59.6479 41.7903C59.7567 41.2777 59.8654 41.0448 60.1294 41.0448C60.3935 41.0448 60.4866 41.3088 60.4866 41.635C60.4866 41.9611 60.4556 42.3183 59.9275 42.7843C59.3994 43.2502 59.0267 43.7317 59.0267 44.0579L59.0577 44.1045H61.2787L61.4962 43.157ZM62.1796 42.396C62.1771 42.419 62.1799 42.4423 62.1876 42.4642C62.1953 42.486 62.2078 42.5058 62.2242 42.5222C62.2406 42.5386 62.2604 42.5511 62.2823 42.5588C62.3041 42.5666 62.3274 42.5693 62.3504 42.5668C62.4591 42.5668 62.5679 42.5047 62.7542 42.5047C62.9406 42.5047 63.1891 42.5824 63.1891 43.2036C63.1891 43.8249 63.0959 43.9802 62.8008 43.9802C62.5057 43.9802 62.4281 43.856 62.2728 43.4055C62.2417 43.2968 62.1796 43.2192 62.0709 43.2192C61.972 43.2192 61.8772 43.2584 61.8073 43.3283C61.7374 43.3983 61.6981 43.4931 61.6981 43.5919C61.6981 43.7628 61.9 44.1511 62.8008 44.1511C63.7017 44.1511 64.0434 43.7938 64.0434 43.1881C64.0434 42.5824 63.3755 42.4271 63.1115 42.3805V42.3339C63.4376 42.2562 63.9036 42.1475 63.9036 41.6505C63.9036 41.1535 63.2978 40.8584 62.8008 40.8584C62.3038 40.8584 61.7602 41.1535 61.7602 41.4952C61.7681 41.5789 61.8081 41.6564 61.8718 41.7114C61.9354 41.7664 62.0179 41.7947 62.1019 41.7903C62.2106 41.7903 62.2572 41.7281 62.2883 41.6194C62.4125 41.2467 62.5057 41.0448 62.7387 41.0448C62.9717 41.0448 63.0804 41.433 63.0804 41.635C63.0804 41.8369 63.0493 42.2873 62.7542 42.2873C62.4591 42.2873 62.4591 42.2252 62.3349 42.2252C62.2106 42.2252 62.1796 42.2717 62.1796 42.396Z" fill="black" style="fill:black;fill-opacity:1;"/>
<path d="M38.96 30.6543L38.8202 31.0581C38.8097 31.0771 38.8044 31.0985 38.8047 31.1202C38.8047 31.1367 38.8112 31.1525 38.8229 31.1642C38.8345 31.1758 38.8504 31.1824 38.8668 31.1824C38.9445 31.1824 38.9755 31.0581 39.0843 30.996C39.193 30.9339 39.5502 30.8251 39.9696 30.8251V33.4344C39.9696 33.5742 39.9696 33.6053 39.8608 33.6053H39.5036V33.7606H41.0257V33.6053H40.7617C40.5442 33.6053 40.5287 33.481 40.5287 32.9685V30.8251C40.9325 30.8251 41.2121 30.8717 41.3985 30.9805C41.5848 31.0892 41.5538 31.1824 41.6314 31.1824C41.7091 31.1824 41.678 31.1668 41.678 31.1202C41.6784 31.0985 41.673 31.0771 41.6625 31.0581L41.5382 30.6543H38.96ZM41.7712 30.6543V30.8096H41.9265C42.144 30.8096 42.1595 30.9494 42.1595 31.4464V33.4344C42.1595 33.5742 42.1595 33.6053 42.0508 33.6053H41.8644V33.7606H43.138V33.6053H42.9516C42.7342 33.6053 42.7186 33.481 42.7186 32.9685V32.1609H44.1009V33.4344C44.1009 33.5742 44.1009 33.6053 43.9922 33.6053H43.8058V33.7606H45.0639V33.6053H44.8931C44.6756 33.6053 44.6601 33.481 44.6601 32.9685V30.9494C44.6601 30.8407 44.6601 30.8096 44.7688 30.8096H44.9552V30.6543H43.6971V30.8096H43.868C44.1009 30.8096 44.1009 30.9494 44.1009 31.4464V31.9745H42.7186V30.9339C42.7186 30.8407 42.7342 30.8096 42.8274 30.8096H43.0137V30.6543H41.7712ZM45.3435 30.6543V30.8096H45.4988C45.7162 30.8096 45.7318 30.9339 45.7318 31.4464V33.481C45.7318 33.5742 45.7318 33.6053 45.623 33.6053H45.4367V33.7606H47.7664L47.8906 33.3412V33.2791C47.8906 33.2668 47.8857 33.2549 47.877 33.2462C47.8682 33.2374 47.8564 33.2325 47.844 33.2325C47.7508 33.2325 47.6887 33.4034 47.5179 33.4655C47.2903 33.5537 47.0474 33.5959 46.8034 33.5898H46.5239C46.3064 33.5898 46.2909 33.4655 46.2909 32.953V32.1298H46.8345C47.1917 32.1298 47.3004 32.1453 47.3004 32.2851V32.456H47.4557V31.6017H47.3004V31.7415C47.3004 31.9279 47.1762 31.9589 46.7102 31.9589H46.2909V30.9339C46.2909 30.8562 46.3064 30.8251 46.4151 30.8251H46.7102C47.1141 30.8251 47.3781 30.8873 47.4713 30.9494C47.5645 31.0115 47.58 31.1358 47.6421 31.1358C47.7043 31.1358 47.6887 31.1202 47.7043 31.0581L47.7664 30.6543H45.3435Z" fill="black" style="fill:black;fill-opacity:1;"/>
<path fill-rule="evenodd" clip-rule="evenodd" d="M19.8086 26.0879L21.6102 27.2062H78.3313L80.1951 26.1345H20.6628L19.8086 26.0879Z" fill="black" style="fill:black;fill-opacity:1;"/>
<path fill-rule="evenodd" clip-rule="evenodd" d="M21.5947 29.334L32.6531 48.1426L33.9267 48.1116L21.6102 27.2062L19.8086 26.0879L21.5947 29.334Z" fill="black" style="fill:black;fill-opacity:1;"/>
<path fill-rule="evenodd" clip-rule="evenodd" d="M67.6165 48.1118L80.197 26.1348L78.3332 27.2064L66.2031 48.1274L67.6165 48.1118Z" fill="black" style="fill:black;fill-opacity:1;"/>
<path d="M40.9763 52.0568V53.6876C40.9763 53.9982 40.9452 54.0293 40.4793 54.0448V54.2467H42.6537V54.0448C42.1877 54.0293 42.1411 53.9827 42.1411 53.6876V50.457C42.1411 50.1619 42.1877 50.1153 42.6537 50.0998V49.9134H40.4793V50.0998C40.9297 50.1153 40.9763 50.1619 40.9763 50.457V51.8083H39.3455V50.457C39.3455 50.1464 39.4076 50.1153 39.8891 50.0998V49.9134H37.6836V50.0998C38.1495 50.1153 38.1961 50.1464 38.1961 50.457V53.6876C38.1961 53.9982 38.1495 54.0293 37.6836 54.0448V54.2467H39.8891V54.0448C39.3921 54.0293 39.3455 53.9827 39.3455 53.6876V52.0568H40.9763ZM44.6417 50.4725C44.6417 50.1464 44.7038 50.1153 45.1542 50.0998V49.9134H42.9798V50.0998C43.4458 50.1153 43.4924 50.1464 43.4924 50.4725V53.6876C43.4924 53.9982 43.4458 54.0293 42.9798 54.0448V54.2467H45.1542V54.0448C44.7038 54.0293 44.6417 53.9982 44.6417 53.6876V50.4725ZM49.7516 52.7712C49.7516 52.4761 49.8137 52.445 50.1088 52.414V52.2276H48.012V52.414C48.4935 52.445 48.5556 52.4761 48.5556 52.7867V53.8429C48.5556 53.9516 48.5556 54.0293 48.4625 54.0603C48.3492 54.1064 48.2274 54.1275 48.1052 54.1224C46.8938 54.1224 46.8316 52.4606 46.8316 52.0412C46.8316 51.6219 46.9559 50.0221 48.1363 50.0221C48.9284 50.0221 49.2235 50.6434 49.472 51.2336H49.6894V50.0998C49.2235 49.8668 48.6333 49.8047 48.1052 49.8047C45.8687 49.8047 45.5581 51.3112 45.5581 52.1034C45.5581 53.1595 45.9464 53.7031 46.4589 54.0293C46.9714 54.3554 47.6548 54.3554 48.0742 54.3554C48.6468 54.3469 49.2139 54.2419 49.7516 54.0448V52.7712ZM53.6966 52.0568V53.6876C53.6966 53.9982 53.6655 54.0293 53.184 54.0448V54.2467H55.374V54.0448C54.908 54.0293 54.8614 53.9827 54.8614 53.6876V50.457C54.8614 50.1619 54.8925 50.1153 55.374 50.0998V49.9134H53.184V50.0998C53.65 50.1153 53.6966 50.1619 53.6966 50.457V51.8083H52.0658V50.457C52.0658 50.1464 52.1279 50.1153 52.5938 50.0998V49.9134H50.4039V50.0998C50.8698 50.1153 50.9164 50.1464 50.9164 50.457V53.6876C50.9164 53.9982 50.8698 54.0293 50.4039 54.0448V54.2467H52.5938V54.0448C52.0968 54.0293 52.0658 53.9827 52.0658 53.6876V52.0568H53.6966ZM57.362 50.4725C57.362 50.1619 57.4086 50.1153 57.9522 50.0998V49.9134H55.6846V50.0998C56.1661 50.1153 56.2127 50.1619 56.2127 50.4725V53.6876C56.2127 53.9982 56.1661 54.0293 55.6846 54.0448V54.2467H59.35L59.4277 52.9731H59.2103C58.9618 53.5633 58.853 53.9982 58.0609 53.9982C57.5329 53.9982 57.362 53.9361 57.362 53.5478V50.4725ZM62.4719 54.2467V54.0448C61.8817 54.0293 61.8351 53.9982 61.8351 53.6876V52.5848C61.8356 52.4214 61.8784 52.2609 61.9593 52.1189C62.2389 51.5753 62.5651 50.954 62.8912 50.4259C63.0465 50.193 63.1553 50.1464 63.5125 50.1153V49.9134H62.0059V50.1153L62.3631 50.1464C62.4874 50.1619 62.534 50.2396 62.4719 50.3949C62.4097 50.5502 61.9749 51.5287 61.6798 52.1034H61.6642C61.4313 51.6995 60.9653 50.8608 60.7013 50.3483C60.6547 50.2551 60.6236 50.1619 60.7945 50.1464L61.1517 50.1153V49.9134H58.9307V50.1153C59.2879 50.1308 59.3345 50.193 59.5054 50.4725C59.6762 50.7521 60.2819 51.7461 60.5304 52.2121C60.6156 52.3417 60.664 52.492 60.6702 52.647V53.6876C60.6702 53.9982 60.6081 54.0293 60.0334 54.0448V54.2467H62.4719Z" fill="black" style="fill:black;fill-opacity:1;"/>
<path d="M31.3621 57.9739C31.0515 58.7504 30.7564 59.2474 29.9798 59.2474C28.7684 59.2474 28.5975 57.9894 28.5975 57.1507C28.5975 56.6847 28.6441 55.1627 29.9022 55.1627C30.8185 55.1627 31.0826 55.8926 31.2689 56.3431H31.4864V55.2248C31.0515 54.9763 30.2749 54.9297 29.9643 54.9297C28.9082 54.9297 28.2869 55.1937 27.8675 55.5975C27.4482 56.0014 27.2773 56.6071 27.2773 57.2594C27.2773 58.6107 27.9607 59.4804 29.84 59.4804C30.3215 59.4804 31.0515 59.4183 31.5019 59.1853L31.5796 57.9739H31.3621ZM34.4995 55.1627C35.4935 55.1627 35.5712 56.4207 35.5712 57.2128C35.5712 58.0049 35.4935 59.263 34.4995 59.263C33.5055 59.263 33.4123 58.0671 33.4123 57.2128C33.4123 56.3586 33.5055 55.1627 34.484 55.1627H34.4995ZM34.4995 54.9297C32.8532 54.9297 32.0921 55.7839 32.0921 57.2128C32.0921 58.6417 32.8532 59.4804 34.4995 59.4804C36.1458 59.4804 36.8913 58.6417 36.8913 57.2128C36.8913 55.7839 36.1303 54.9297 34.4995 54.9297ZM38.926 59.3872V59.1853C38.4911 59.1387 38.2892 59.2164 38.2271 58.7349C38.197 58.4252 38.1866 58.114 38.196 57.803V55.6907H38.2115C38.6619 56.7158 39.3298 58.3621 39.7336 59.3872H40.1374C40.4015 58.6417 41.147 56.6847 41.5353 55.6752H41.5663V58.8126C41.5663 59.1387 41.4887 59.1543 41.0383 59.1853V59.3872H43.2437V59.1853C42.7622 59.1698 42.7157 59.1387 42.7157 58.8126V55.6131C42.7157 55.2869 42.7622 55.2558 43.2437 55.2403V55.0539H41.5042C41.178 55.8616 40.7587 56.9643 40.4015 57.8185H40.3704C40.153 57.3371 39.4074 55.7529 39.1123 55.0539H37.3107V55.2403C37.7922 55.2558 37.8698 55.2869 37.8698 55.5975V57.803C37.8754 58.1143 37.8598 58.4257 37.8232 58.7349C37.7922 59.1853 37.6834 59.1232 37.233 59.1853V59.3872H38.926ZM45.1852 59.3872V59.1853C44.7503 59.1387 44.5484 59.2164 44.4862 58.7349C44.4707 58.5175 44.4552 58.2379 44.4552 57.803V55.6907H44.4707C44.9211 56.7158 45.589 58.3621 46.0083 59.3872H46.3966C46.6607 58.6417 47.4062 56.6847 47.7945 55.6752H47.8255V58.8126C47.8255 59.1387 47.7634 59.1543 47.2974 59.1853V59.3872H49.5185V59.1853C49.0214 59.1698 48.9749 59.1387 48.9749 58.8126V55.6131C48.9749 55.2869 49.0214 55.2558 49.5185 55.2403V55.0539H47.7789C47.4372 55.8616 47.0179 56.9643 46.6607 57.8185H46.6296C46.4122 57.3371 45.6666 55.7529 45.3715 55.0539H43.5699V55.2403C44.0514 55.2558 44.129 55.2869 44.129 55.5975V57.803C44.129 58.2224 44.1135 58.5175 44.098 58.7349C44.0514 59.1853 43.9426 59.1232 43.5078 59.1853V59.3872H45.1852ZM50.3882 58.8126C50.3882 59.1387 50.3261 59.1698 49.8446 59.1853V59.3872H53.7896L53.9139 58.0671H53.6964C53.4324 58.7038 53.246 59.1232 52.4073 59.1232C51.5686 59.1232 51.5686 59.0766 51.5686 58.6883V57.2749H52.1743C52.6558 57.2749 52.7335 57.3992 52.8733 57.8962H53.0907V56.4052H52.8733C52.7335 56.9177 52.6403 56.9954 52.1743 56.9954H51.5686V55.5199C51.5686 55.349 51.6307 55.3024 51.8171 55.3024H52.2986C53.013 55.3024 53.1994 55.5975 53.4324 56.2188H53.6498V55.0539H49.8291V55.2403C50.3106 55.2714 50.3882 55.2869 50.3882 55.6131V58.8126ZM58.4957 59.3872V56.6382C58.4957 56.2033 58.5112 55.9082 58.5267 55.6752C58.5423 55.4422 58.651 55.2869 59.0703 55.2403V55.0539H57.4085V55.2403C57.8589 55.2714 58.0763 55.1937 58.1229 55.6752C58.1593 55.9948 58.1748 56.3165 58.1695 56.6382V58.0049H58.1384C57.424 57.042 56.6163 56.0324 55.9019 55.0539H54.2711V55.2403C54.7681 55.2869 54.8147 55.318 54.8147 55.582V57.7875C54.8147 58.2534 54.7992 58.5175 54.7836 58.7349C54.7681 58.9523 54.6438 59.1387 54.209 59.1853V59.3872H55.8864V59.1853C55.4515 59.1387 55.234 59.2164 55.1875 58.7349C55.157 58.4253 55.1467 58.114 55.1564 57.803V55.9082H55.1719C56.0261 57.0575 56.9114 58.269 57.7191 59.3872H58.4957ZM61.0273 55.4267C61.0273 55.3024 61.1205 55.2714 61.5243 55.2714C62.3941 55.2714 62.86 55.9392 62.86 57.1818C62.86 58.8281 62.2388 59.1543 61.5243 59.1543C61.1049 59.1543 61.0273 59.0766 61.0273 58.9213V55.4267ZM59.3033 55.0539V55.2403C59.7537 55.2558 59.8314 55.2869 59.8314 55.6131V58.8126C59.8314 59.1232 59.7848 59.1698 59.3033 59.1853V59.3872H61.3224C62.363 59.3872 64.1802 59.294 64.1802 57.1352C64.1802 56.4207 64.0093 55.9082 63.6055 55.5509C63.2017 55.1937 62.6115 55.0539 61.6796 55.0539H59.3033ZM65.1431 58.8126C65.1431 59.1387 65.0965 59.1698 64.6151 59.1853V59.3872H68.5601L68.6843 58.0671H68.4669C68.2028 58.7038 68.0165 59.1232 67.1778 59.1232C66.3391 59.1232 66.3391 59.0766 66.3391 58.6883V57.2749H66.9448C67.4263 57.2749 67.5039 57.3992 67.6282 57.8962H67.8611V56.4052H67.6282C67.5039 56.9177 67.4107 56.9954 66.9448 56.9954H66.3391V55.5199C66.3391 55.349 66.4012 55.3024 66.5876 55.3024H67.069C67.7835 55.3024 67.9699 55.5975 68.1873 56.2188H68.4203V55.0539H64.5995V55.2403C65.081 55.2714 65.1431 55.2869 65.1431 55.6131V58.8126ZM70.7811 55.4267C70.7811 55.3024 70.8743 55.2869 71.2781 55.2869C72.1323 55.2714 72.6138 55.9392 72.6138 57.1818C72.6138 58.8281 71.9925 59.1543 71.2781 59.1543C70.8587 59.1543 70.7811 59.0766 70.7811 58.9213V55.4267ZM69.0571 55.0539V55.2403C69.5075 55.2558 69.5851 55.2869 69.5851 55.6131V58.8281C69.5851 59.1387 69.5386 59.1698 69.0571 59.1853V59.3872H71.0762C72.1168 59.3872 73.934 59.294 73.934 57.1352C73.934 56.4207 73.7631 55.9082 73.3438 55.5509C72.9244 55.1937 72.3498 55.0539 71.4334 55.0539H69.0571Z" fill="black" style="fill:black;fill-opacity:1;"/>
<path fill-rule="evenodd" clip-rule="evenodd" d="M75.2863 34.4121H79.9924L72.0713 48.0643H71.5898L79.2624 34.847H75.0378L75.2863 34.4121Z" fill="black" style="fill:black;fill-opacity:1;"/>
<path fill-rule="evenodd" clip-rule="evenodd" d="M30.2461 62.7734H70.1155V72.2477H30.2461V62.7734Z" fill="black" style="fill:black;fill-opacity:1;"/>
<path fill-rule="evenodd" clip-rule="evenodd" d="M70.0227 66.8262C70.0227 66.8262 72.4456 67.6027 73.7192 68.3949L71.7312 71.7807L74.1851 78.304C74.1851 78.304 69.8519 74.3434 61.4648 74.7938L70.0227 72.2467V66.8262Z" fill="black" style="fill:black;fill-opacity:1;"/>
<path fill-rule="evenodd" clip-rule="evenodd" d="M70.0227 72.248L61.4648 74.7952V72.248H70.0227Z" fill="black" style="fill:black;fill-opacity:1;"/>
<path d="M41.7539 66.3462H41.3191L40.8065 67.2315L40.2784 66.3462H39.8125L40.558 67.6353V68.3497H41.0084V67.6353L41.7539 66.3462ZM42.4529 68.3653C42.6088 68.3622 42.7604 68.3132 42.8886 68.2243C43.0168 68.1354 43.1159 68.0106 43.1735 67.8657C43.2311 67.7207 43.2446 67.5619 43.2123 67.4093C43.18 67.2567 43.1033 67.117 42.992 67.0078C42.8806 66.8986 42.7394 66.8246 42.5862 66.7953C42.433 66.766 42.2746 66.7826 42.1307 66.8429C41.9869 66.9033 41.8641 67.0048 41.7777 67.1347C41.6913 67.2646 41.6452 67.4172 41.6452 67.5731C41.643 67.6791 41.6625 67.7844 41.7025 67.8825C41.7425 67.9806 41.8022 68.0695 41.8779 68.1437C41.9535 68.2179 42.0436 68.2759 42.1424 68.314C42.2413 68.3521 42.347 68.3695 42.4529 68.3653ZM42.4529 68.008C42.399 68.0063 42.3461 67.9933 42.2976 67.97C42.249 67.9467 42.2058 67.9135 42.1707 67.8726C42.1357 67.8317 42.1095 67.784 42.0939 67.7324C42.0783 67.6809 42.0736 67.6266 42.0801 67.5731C42.0686 67.5168 42.0699 67.4585 42.0837 67.4027C42.0975 67.3468 42.1236 67.2947 42.16 67.2502C42.1964 67.2056 42.2423 67.1697 42.2943 67.145C42.3463 67.1204 42.4031 67.1076 42.4606 67.1076C42.5182 67.1076 42.575 67.1204 42.627 67.145C42.679 67.1697 42.7248 67.2056 42.7613 67.2502C42.7977 67.2947 42.8237 67.3468 42.8376 67.4027C42.8514 67.4585 42.8526 67.5168 42.8411 67.5731C42.8454 67.6274 42.8386 67.682 42.8211 67.7336C42.8037 67.7852 42.776 67.8328 42.7398 67.8734C42.7035 67.914 42.6594 67.9469 42.6101 67.97C42.5608 67.9932 42.5073 68.0061 42.4529 68.008ZM44.6428 66.8121V67.5731C44.6428 67.8527 44.4875 67.977 44.2856 67.977C44.0837 67.977 43.9905 67.8682 43.9905 67.6197V66.8121H43.5556V67.6819C43.5556 68.1478 43.8196 68.3653 44.1924 68.3653C44.2803 68.3695 44.3681 68.3536 44.4489 68.3186C44.5297 68.2836 44.6013 68.2304 44.6583 68.1633V68.3497H45.0621V66.8121H44.6428ZM46.3823 66.7966C46.2895 66.7898 46.1964 66.8045 46.1102 66.8395C46.0241 66.8745 45.9471 66.9289 45.8853 66.9985V66.8121H45.466V68.3497H45.9008V67.5887C45.9008 67.3091 46.0562 67.1693 46.2581 67.1693C46.46 67.1693 46.5687 67.2936 46.5687 67.5421V68.3497H46.9881V67.4644C46.9881 66.9985 46.724 66.7966 46.3823 66.7966ZM48.5257 66.8121V67.014C48.4681 66.9386 48.3923 66.879 48.3053 66.841C48.2184 66.8029 48.1232 66.7877 48.0287 66.7966C47.9309 66.7923 47.8334 66.8081 47.742 66.8431C47.6507 66.8781 47.5675 66.9314 47.4976 66.9999C47.4277 67.0683 47.3726 67.1504 47.3357 67.241C47.2988 67.3316 47.2809 67.4288 47.2832 67.5266C47.281 67.625 47.2989 67.7229 47.3356 67.8143C47.3723 67.9057 47.4271 67.9888 47.4968 68.0584C47.5664 68.1281 47.6495 68.1829 47.7409 68.2196C47.8323 68.2563 47.9302 68.2742 48.0287 68.2721C48.1175 68.2763 48.2062 68.262 48.2891 68.2299C48.3721 68.1978 48.4473 68.1486 48.5101 68.0857V68.1478C48.5101 68.4274 48.3704 68.5672 48.0753 68.5672C47.886 68.5652 47.7018 68.5056 47.5472 68.3963L47.3763 68.7069C47.5895 68.857 47.8458 68.9334 48.1063 68.9244C48.6344 68.9244 48.945 68.6604 48.945 68.0857V66.8121H48.5257ZM48.1219 67.9148C48.0703 67.917 48.0188 67.9085 47.9707 67.8898C47.9226 67.871 47.8789 67.8425 47.8424 67.806C47.8059 67.7695 47.7774 67.7258 47.7586 67.6777C47.7399 67.6296 47.7314 67.5781 47.7336 67.5266C47.7336 67.4236 47.7745 67.3248 47.8473 67.252C47.9201 67.1792 48.0189 67.1383 48.1219 67.1383C48.2248 67.1383 48.3236 67.1792 48.3964 67.252C48.4692 67.3248 48.5101 67.4236 48.5101 67.5266C48.5123 67.5781 48.5038 67.6296 48.4851 67.6777C48.4663 67.7258 48.4378 67.7695 48.4013 67.806C48.3648 67.8425 48.3211 67.871 48.273 67.8898C48.2249 67.9085 48.1734 67.917 48.1219 67.9148ZM50.1565 68.3497H51.0418C51.663 68.3497 52.0979 67.9459 52.0979 67.3557C52.0979 66.7655 51.663 66.3462 51.0418 66.3462H50.1565V68.3497ZM50.6069 67.9614V66.7344H51.0107C51.0947 66.7277 51.1792 66.7389 51.2585 66.7676C51.3378 66.7962 51.41 66.8414 51.4704 66.9003C51.5307 66.9591 51.5777 67.0302 51.6083 67.1088C51.6388 67.1874 51.6522 67.2715 51.6475 67.3557C51.6475 67.7285 51.399 67.9614 51.0107 67.9614H50.6069ZM53.8685 67.5887C53.8775 67.483 53.8638 67.3767 53.8283 67.2767C53.7929 67.1767 53.7365 67.0855 53.663 67.0091C53.5895 66.9326 53.5006 66.8727 53.4021 66.8334C53.3036 66.7941 53.1979 66.7762 53.0919 66.781C52.9873 66.7789 52.8834 66.798 52.7863 66.837C52.6893 66.8761 52.6011 66.9344 52.5271 67.0083C52.4531 67.0823 52.3949 67.1705 52.3558 67.2675C52.3168 67.3646 52.2977 67.4685 52.2998 67.5731C52.2998 68.0391 52.6415 68.3653 53.1541 68.3653C53.2697 68.3739 53.3858 68.356 53.4935 68.3129C53.6011 68.2699 53.6975 68.2028 53.7753 68.1168L53.5423 67.8682C53.4411 67.9617 53.3073 68.0118 53.1696 68.008C53.0717 68.0181 52.9735 67.9921 52.8934 67.9349C52.8133 67.8777 52.7569 67.7933 52.7347 67.6974H53.8685V67.5887ZM53.1075 67.1227C53.1971 67.1224 53.2835 67.1557 53.3497 67.2161C53.4159 67.2766 53.4569 67.3596 53.4647 67.4489H52.7347C52.7426 67.3569 52.7859 67.2715 52.8554 67.2107C52.9249 67.1499 53.0152 67.1184 53.1075 67.1227ZM55.0644 66.7966C54.9719 66.792 54.8795 66.8078 54.7936 66.8426C54.7078 66.8775 54.6306 66.9307 54.5674 66.9985V66.8121H54.1636V68.3497H54.5985V67.5887C54.5985 67.3091 54.7383 67.1693 54.9557 67.1693C55.1732 67.1693 55.2508 67.2936 55.2508 67.5421V68.3497H55.6857V67.4644C55.6857 66.9985 55.4217 66.7966 55.0644 66.7966ZM56.9282 67.9614C56.8712 67.993 56.807 68.009 56.7418 68.008C56.7153 68.0109 56.6884 68.0076 56.6634 67.9982C56.6383 67.9888 56.6159 67.9737 56.5977 67.9541C56.5796 67.9344 56.5663 67.9108 56.559 67.8851C56.5517 67.8594 56.5504 67.8324 56.5555 67.8061V67.1849H56.9282V66.8432H56.5555V66.4704H56.1361V66.8432H55.9031V67.1849H56.1361V67.8217C56.1289 67.8948 56.1379 67.9687 56.1627 68.038C56.1874 68.1072 56.2273 68.1701 56.2793 68.2221C56.3313 68.2741 56.3941 68.3139 56.4634 68.3387C56.5326 68.3634 56.6065 68.3725 56.6797 68.3653C56.8054 68.3701 56.9297 68.3377 57.0369 68.2721L56.9282 67.9614ZM57.5029 66.5947C57.5688 66.5947 57.632 66.5685 57.6786 66.5219C57.7252 66.4753 57.7514 66.4121 57.7514 66.3462C57.7514 66.2803 57.7252 66.217 57.6786 66.1704C57.632 66.1238 57.5688 66.0977 57.5029 66.0977C57.437 66.0977 57.3738 66.1238 57.3272 66.1704C57.2806 66.217 57.2544 66.2803 57.2544 66.3462C57.2544 66.4121 57.2806 66.4753 57.3272 66.5219C57.3738 66.5685 57.437 66.5947 57.5029 66.5947ZM57.2854 68.3497H57.7203V66.8121H57.2854V68.3497ZM58.6211 68.3653C59.056 68.3653 59.3201 68.1633 59.3201 67.8838C59.3201 67.2781 58.4192 67.5266 58.4192 67.2625C58.4192 66.9985 58.4969 67.1227 58.6988 67.1227C58.8526 67.1219 59.0035 67.165 59.1337 67.247L59.2735 66.9208C59.0939 66.8362 58.8973 66.7937 58.6988 66.7966C58.2639 66.7966 57.9999 66.9985 57.9999 67.2781C57.9999 67.8993 58.9007 67.6353 58.9007 67.8993C58.9007 68.1633 58.8386 68.0391 58.6367 68.0391C58.4497 68.0372 58.2668 67.9835 58.1086 67.8838L57.9688 68.2099C58.1682 68.3198 58.3937 68.3735 58.6211 68.3653ZM60.4383 67.9614C60.3813 67.993 60.3171 68.009 60.252 68.008C60.2254 68.0109 60.1985 68.0076 60.1735 67.9982C60.1485 67.9888 60.126 67.9737 60.1078 67.9541C60.0897 67.9344 60.0765 67.9108 60.0691 67.8851C60.0618 67.8594 60.0606 67.8324 60.0656 67.8061V67.1849H60.4383V66.8432H60.0656V66.4704H59.6462V66.8432H59.4133V67.1849H59.6462V67.8217C59.639 67.8948 59.6481 67.9687 59.6728 68.038C59.6976 68.1072 59.7374 68.1701 59.7894 68.2221C59.8414 68.2741 59.9043 68.3139 59.9735 68.3387C60.0428 68.3634 60.1166 68.3725 60.1898 68.3653C60.3155 68.3701 60.4398 68.3377 60.5471 68.2721L60.4383 67.9614Z" fill="black" style="fill:black;fill-opacity:1;"/>
</g>
<defs>
<linearGradient id="paint0_linear_1712_11274" x1="50" y1="0" x2="50" y2="100" gradientUnits="userSpaceOnUse">
<stop stop-color="white" style="stop-color:white;stop-opacity:1;"/>
<stop offset="1" stop-color="#D8D8D8" style="stop-color:#D8D8D8;stop-color:color(display-p3 0.8475 0.8475 0.8475);stop-opacity:1;"/>
</linearGradient>
<clipPath id="clip0_1712_11274">
<rect width="60.3865" height="60.3865" fill="white" style="fill:white;fill-opacity:1;" transform="translate(19.8086 26.0879)"/>
</clipPath>
</defs>
</svg>
