<svg width="100" height="100" viewBox="0 0 100 100" fill="none" xmlns="http://www.w3.org/2000/svg">
<rect width="100" height="100" rx="50" fill="url(#paint0_linear_1712_11325)" style=""/>
<g clip-path="url(#clip0_1712_11325)">
<path d="M15.9993 37.7725H14.0065C13.8797 37.7725 13.8254 37.845 13.8254 37.9718V43.0805C13.8224 43.105 13.8251 43.1298 13.8332 43.1531C13.8413 43.1764 13.8545 43.1976 13.872 43.215C13.8894 43.2325 13.9106 43.2457 13.9339 43.2538C13.9572 43.2619 13.982 43.2645 14.0065 43.2616H14.3326C14.3571 43.2645 14.3819 43.2619 14.4052 43.2538C14.4285 43.2457 14.4497 43.2325 14.4672 43.215C14.4846 43.1976 14.4978 43.1764 14.5059 43.1531C14.514 43.1298 14.5167 43.105 14.5138 43.0805V41.5044H16.0174C17.358 41.5044 18.0464 40.7073 18.0464 39.6566C18.0464 38.6058 17.4123 37.7725 15.9993 37.7725ZM16.0536 40.9066H14.5138V38.3703H15.9993C16.9051 38.3703 17.3399 39.0225 17.3399 39.6566C17.3399 40.2906 16.9232 40.9066 16.0536 40.9066ZM19.4956 41.4138H20.9087L22.1587 43.1529C22.1829 43.1878 22.2155 43.216 22.2535 43.235C22.2915 43.254 22.3336 43.2632 22.3761 43.2616H22.7928C22.9377 43.2616 22.992 43.171 22.9014 43.0442L21.6696 41.3595C22.4848 41.1783 23.0101 40.5624 23.0101 39.6022C23.0202 39.3608 22.9804 39.1199 22.8932 38.8945C22.8059 38.6691 22.6732 38.4642 22.5032 38.2925C22.3331 38.1208 22.1295 37.986 21.9051 37.8965C21.6806 37.807 21.4401 37.7648 21.1985 37.7725H18.9884C18.8616 37.7725 18.8072 37.845 18.8072 37.9718V43.0805C18.8043 43.105 18.807 43.1298 18.8151 43.1531C18.8232 43.1764 18.8364 43.1976 18.8539 43.215C18.8713 43.2325 18.8925 43.2457 18.9158 43.2538C18.9391 43.2619 18.9639 43.2645 18.9884 43.2616H19.3145C19.339 43.2645 19.3638 43.2619 19.3871 43.2538C19.4104 43.2457 19.4316 43.2325 19.449 43.215C19.4665 43.1976 19.4797 43.1764 19.4878 43.1531C19.4959 43.1298 19.4986 43.105 19.4956 43.0805V41.4138ZM19.4956 40.7979V38.3703H21.1261C22.0862 38.3703 22.3217 39.1855 22.3217 39.6022C22.3217 40.4537 21.7964 40.7979 21.0717 40.7979H19.4956ZM24.7674 37.7725H24.4413C24.4159 37.7724 24.3908 37.7776 24.3675 37.7878C24.3443 37.798 24.3234 37.813 24.3063 37.8318C24.2893 37.8506 24.2763 37.8728 24.2684 37.8969C24.2604 37.921 24.2576 37.9465 24.2601 37.9718V43.0805C24.2572 43.105 24.2599 43.1298 24.268 43.1531C24.2761 43.1764 24.2893 43.1976 24.3068 43.215C24.3242 43.2325 24.3454 43.2457 24.3687 43.2538C24.392 43.2619 24.4168 43.2645 24.4413 43.2616H24.7674C24.7927 43.2642 24.8182 43.2614 24.8423 43.2534C24.8664 43.2454 24.8886 43.2325 24.9074 43.2154C24.9262 43.1983 24.9411 43.1775 24.9514 43.1542C24.9616 43.131 24.9668 43.1059 24.9667 43.0805V37.9718C24.9695 37.9449 24.9663 37.9177 24.9573 37.8923C24.9483 37.8668 24.9337 37.8437 24.9146 37.8245C24.8955 37.8054 24.8724 37.7908 24.8469 37.7818C24.8214 37.7728 24.7943 37.7696 24.7674 37.7725ZM28.3906 43.2616C28.4449 43.2616 28.4812 43.2435 28.5355 43.1348L30.8362 37.9899C30.8906 37.8631 30.8362 37.7725 30.6913 37.7725H30.3109C30.2644 37.7725 30.2189 37.7863 30.1802 37.8121C30.1415 37.8378 30.1114 37.8745 30.0935 37.9174L28.3906 41.7942L26.7058 37.9174C26.6902 37.873 26.6605 37.8348 26.6213 37.8087C26.5821 37.7825 26.5354 37.7698 26.4884 37.7725H26.0899C25.963 37.7725 25.8906 37.8631 25.963 37.9899L28.2638 43.1348C28.3 43.2435 28.3362 43.2616 28.3906 43.2616ZM31.2529 43.1167L31.6696 42.2109H34.6225L35.0572 43.1167C35.0729 43.1612 35.1025 43.1993 35.1417 43.2255C35.1809 43.2516 35.2276 43.2643 35.2746 43.2616H35.6732C35.8 43.2616 35.8543 43.171 35.8 43.0442L33.3 37.8993C33.2457 37.8087 33.2094 37.7725 33.1551 37.7725C33.1007 37.7725 33.0645 37.8087 33.0101 37.8993L30.5101 43.0442C30.4558 43.171 30.5101 43.2616 30.637 43.2616H31.0355C31.082 43.2616 31.1275 43.2479 31.1661 43.2221C31.2048 43.1963 31.235 43.1596 31.2529 43.1167ZM33.1551 39.095L34.3326 41.6312H31.9775L33.1551 39.095ZM39.387 37.7725H35.7457C35.7203 37.7724 35.6951 37.7776 35.6719 37.7878C35.6486 37.798 35.6278 37.813 35.6107 37.8318C35.5936 37.8506 35.5807 37.8728 35.5727 37.8969C35.5648 37.921 35.562 37.9465 35.5645 37.9718V38.171C35.562 38.1963 35.5648 38.2218 35.5727 38.2459C35.5807 38.2701 35.5936 38.2922 35.6107 38.311C35.6278 38.3298 35.6486 38.3448 35.6719 38.355C35.6951 38.3652 35.7203 38.3705 35.7457 38.3703H37.2312V43.0805C37.2282 43.105 37.2309 43.1298 37.239 43.1531C37.2471 43.1764 37.2603 43.1976 37.2778 43.215C37.2952 43.2325 37.3164 43.2457 37.3397 43.2538C37.363 43.2619 37.3878 43.2645 37.4123 43.2616H37.7384C37.7629 43.2645 37.7877 43.2619 37.811 43.2538C37.8343 43.2457 37.8555 43.2325 37.8729 43.215C37.8904 43.1976 37.9036 43.1764 37.9117 43.1531C37.9198 43.1298 37.9225 43.105 37.9196 43.0805V38.3703H39.387C39.5138 38.3703 39.5681 38.2979 39.5681 38.171V37.9718C39.5681 37.845 39.5138 37.7725 39.387 37.7725ZM43.9703 37.7725H40.3833C40.365 37.7723 40.3469 37.7761 40.3302 37.7836C40.3135 37.791 40.2986 37.802 40.2866 37.8158C40.2745 37.8296 40.2656 37.8458 40.2604 37.8633C40.2552 37.8809 40.2539 37.8993 40.2565 37.9174V43.1348C40.2565 43.1684 40.2699 43.2007 40.2937 43.2245C40.3174 43.2483 40.3497 43.2616 40.3833 43.2616H43.9703C43.9876 43.2649 44.0055 43.2638 44.0224 43.2586C44.0393 43.2534 44.0546 43.2441 44.0671 43.2316C44.0796 43.2192 44.0889 43.2038 44.0941 43.1869C44.0993 43.1701 44.1003 43.1522 44.0971 43.1348V42.7906C44.1003 42.7733 44.0993 42.7554 44.0941 42.7385C44.0889 42.7216 44.0796 42.7063 44.0671 42.6938C44.0546 42.6813 44.0393 42.672 44.0224 42.6668C44.0055 42.6616 43.9876 42.6606 43.9703 42.6638H40.963V40.8522H43.608C43.6263 40.8524 43.6444 40.8486 43.6611 40.8411C43.6778 40.8337 43.6927 40.8227 43.7047 40.8089C43.7168 40.7951 43.7257 40.7789 43.7309 40.7614C43.7361 40.7438 43.7374 40.7254 43.7348 40.7073V40.3812C43.7348 40.3476 43.7214 40.3153 43.6976 40.2915C43.6739 40.2677 43.6416 40.2544 43.608 40.2544H40.963V38.3703H43.9703C44.0609 38.3703 44.0971 38.316 44.0971 38.2254V37.9174C44.0971 37.8268 44.0609 37.7725 43.9703 37.7725Z" fill="black" style="fill:black;fill-opacity:1;"/>
<path d="M15.9986 37.8267H14.0058L13.8971 37.8629C13.884 37.8776 13.874 37.8949 13.8678 37.9135C13.8616 37.9322 13.8592 37.952 13.8609 37.9716V43.0803C13.8621 43.1138 13.8749 43.1458 13.8971 43.1709C13.9152 43.2071 13.9515 43.2071 14.0058 43.2071H14.3319C14.3863 43.2071 14.4044 43.2071 14.4406 43.1709C14.4628 43.1458 14.4756 43.1138 14.4768 43.0803V41.4499H16.0167C16.5408 41.4729 17.0555 41.3056 17.466 40.9789C17.6391 40.8059 17.7751 40.5994 17.8654 40.372C17.9558 40.1445 17.9986 39.901 17.9913 39.6564C18.0034 39.4085 17.9628 39.1609 17.8723 38.9298C17.7817 38.6988 17.6432 38.4895 17.466 38.3158C17.1399 38.0079 16.6507 37.8267 15.9986 37.8267ZM14.0058 37.7361H15.9986C16.6689 37.7361 17.1761 37.9173 17.5203 38.2434C17.7164 38.4245 17.8701 38.6467 17.9703 38.8941C18.0705 39.1415 18.1148 39.408 18.1 39.6745C18.1068 39.932 18.0587 40.188 17.9587 40.4255C17.8587 40.6629 17.7093 40.8763 17.5203 41.0513C17.1761 41.3593 16.6689 41.5405 16.0167 41.5405H14.5674V43.0803C14.5704 43.1114 14.5653 43.1428 14.5526 43.1714C14.5399 43.2 14.5201 43.2248 14.4949 43.2434C14.4522 43.288 14.3937 43.314 14.3319 43.3158H14.0058C13.9394 43.3107 13.8762 43.2854 13.8247 43.2434C13.805 43.2213 13.79 43.1955 13.7807 43.1674C13.7713 43.1394 13.7678 43.1098 13.7703 43.0803V37.9716C13.769 37.907 13.788 37.8437 13.8247 37.7905C13.8778 37.7538 13.9412 37.7348 14.0058 37.7361ZM16.0529 40.9608H14.4768V38.3158H15.9986C16.3651 38.3027 16.7224 38.4326 16.9949 38.6781C17.1239 38.8097 17.2255 38.9655 17.2939 39.1365C17.3623 39.3075 17.3961 39.4904 17.3935 39.6745C17.397 39.8464 17.3651 40.0172 17.2996 40.1761C17.2342 40.3351 17.1366 40.4789 17.0131 40.5984C16.8852 40.7198 16.7345 40.8143 16.5696 40.8765C16.4047 40.9387 16.229 40.9674 16.0529 40.9608ZM14.5674 40.8702H16.0529C16.2151 40.877 16.377 40.8517 16.5293 40.7957C16.6816 40.7397 16.8214 40.6542 16.9406 40.5441C17.0573 40.4279 17.1494 40.2894 17.2117 40.1369C17.2739 39.9845 17.3049 39.8211 17.3029 39.6564C17.304 39.4876 17.2708 39.3202 17.2054 39.1646C17.14 39.0089 17.0438 38.8681 16.9225 38.7506C16.6694 38.5227 16.3391 38.3996 15.9986 38.4064H14.5674V40.8702ZM19.4949 41.3593H20.9261L22.1942 43.1166L22.2667 43.189H22.8826C22.8874 43.189 22.892 43.1871 22.8954 43.1837C22.8988 43.1803 22.9007 43.1757 22.9007 43.1709L22.8645 43.0803L21.5783 41.3593H21.6507C22.0307 41.278 22.3703 41.0666 22.6109 40.7615C22.8447 40.4345 22.9656 40.0402 22.9551 39.6383C22.9651 39.3965 22.927 39.1551 22.843 38.9281C22.7591 38.701 22.6309 38.493 22.466 38.3158C22.2977 38.1542 22.0988 38.0277 21.8811 37.9437C21.6634 37.8597 21.4311 37.8199 21.1978 37.8267H18.9877L18.879 37.8629C18.8659 37.8776 18.8559 37.8949 18.8497 37.9135C18.8435 37.9322 18.8411 37.952 18.8428 37.9716V43.0803C18.844 43.1138 18.8568 43.1458 18.879 43.1709C18.8971 43.2071 18.9334 43.2071 18.9877 43.2071H19.3138C19.3681 43.2071 19.4044 43.2071 19.4225 43.1709C19.4447 43.1458 19.4575 43.1138 19.4587 43.0803V41.3593H19.4949ZM20.8718 41.4499H19.5493V43.0803C19.5523 43.1114 19.5472 43.1428 19.5345 43.1714C19.5218 43.2 19.502 43.2248 19.4768 43.2434C19.4341 43.288 19.3755 43.314 19.3138 43.3158H18.9877C18.9213 43.3107 18.8581 43.2854 18.8065 43.2434C18.7869 43.2213 18.7719 43.1955 18.7626 43.1674C18.7532 43.1394 18.7497 43.1098 18.7522 43.0803V37.9716C18.7509 37.907 18.7699 37.8437 18.8065 37.7905C18.8597 37.7538 18.9231 37.7348 18.9877 37.7361H21.1978C21.4455 37.7263 21.6924 37.7679 21.9232 37.8584C22.1539 37.9488 22.3634 38.086 22.5384 38.2615C22.7072 38.4405 22.8389 38.6511 22.9259 38.8811C23.013 39.1112 23.0537 39.3562 23.0457 39.6021C23.0589 40.0239 22.9314 40.4381 22.6834 40.7796C22.4524 41.0902 22.1185 41.3086 21.7413 41.3955L22.937 43.0079C22.9679 43.0503 22.9867 43.1004 22.9913 43.1528C22.9913 43.1709 22.9732 43.2071 22.9732 43.2252C22.9732 43.2434 22.9551 43.2615 22.9189 43.2615C22.8826 43.2615 22.8464 43.3158 22.7739 43.3158H22.3754L22.2305 43.2796C22.1856 43.2531 22.1482 43.2157 22.1218 43.1709L20.8718 41.468V41.4499ZM19.4587 40.7977V38.3158H21.1254C21.2864 38.3085 21.4472 38.3354 21.597 38.3948C21.7469 38.4541 21.8825 38.5445 21.9949 38.66C22.2372 38.9141 22.3733 39.251 22.3754 39.6021C22.387 39.7717 22.3623 39.9418 22.3029 40.1011C22.2436 40.2605 22.1509 40.4053 22.0312 40.526C21.7643 40.7529 21.4209 40.8695 21.071 40.8521H19.4587V40.7977ZM19.5493 38.4064V40.7615H21.071C21.2322 40.7738 21.3942 40.7529 21.5469 40.6999C21.6996 40.6469 21.8398 40.563 21.9587 40.4535C22.0673 40.3414 22.1508 40.2075 22.2039 40.0608C22.257 39.914 22.2784 39.7577 22.2667 39.6021C22.2701 39.2817 22.1538 38.9716 21.9406 38.7325C21.8342 38.6253 21.707 38.5411 21.5668 38.485C21.4266 38.4289 21.2763 38.4022 21.1254 38.4064H19.5493ZM24.7667 37.8267H24.4406L24.35 37.8629C24.3138 37.881 24.3138 37.9173 24.3138 37.9716V43.0803C24.3138 43.1166 24.3138 43.1528 24.35 43.1709C24.3863 43.189 24.4044 43.2071 24.4406 43.2071H24.7667C24.821 43.2071 24.8573 43.2071 24.8754 43.1709C24.8976 43.1458 24.9104 43.1138 24.9116 43.0803V37.9716C24.9133 37.952 24.9109 37.9322 24.9047 37.9135C24.8985 37.8949 24.8885 37.8776 24.8754 37.8629L24.7667 37.8267ZM24.4406 37.7361H24.7667C24.799 37.7322 24.8318 37.735 24.863 37.7443C24.8941 37.7537 24.923 37.7694 24.9478 37.7905C24.9845 37.8437 25.0035 37.907 25.0022 37.9716V43.0803C25.0047 43.1098 25.0012 43.1394 24.9918 43.1674C24.9825 43.1955 24.9675 43.2213 24.9478 43.2434C24.8985 43.2891 24.834 43.3149 24.7667 43.3158H24.4406C24.3795 43.3116 24.3221 43.2854 24.2788 43.2421C24.2355 43.1989 24.2093 43.1414 24.2051 43.0803V37.9716C24.2102 37.9053 24.2355 37.842 24.2776 37.7905C24.2996 37.7708 24.3254 37.7558 24.3535 37.7465C24.3815 37.7372 24.4112 37.7336 24.4406 37.7361ZM28.3899 43.2071H28.4261C28.452 43.1824 28.4708 43.1511 28.4805 43.1166L30.7812 37.9716C30.7956 37.9504 30.802 37.9247 30.7993 37.8992V37.8629H30.2015L30.129 37.9535L28.3899 41.9028L26.6689 37.9354L26.5964 37.8448H25.9805V37.881C25.9777 37.9066 25.9842 37.9323 25.9986 37.9535L28.2993 43.1166C28.3089 43.1511 28.3277 43.1824 28.3536 43.2071H28.3899ZM28.4986 43.2796L28.3899 43.3158L28.2993 43.2796C28.2631 43.2615 28.2449 43.2252 28.2087 43.1528L25.908 38.0079C25.8934 37.9736 25.8872 37.9363 25.8899 37.8992C25.8871 37.8679 25.8933 37.8364 25.908 37.8086L25.9805 37.7542H26.4877L26.6507 37.7905L26.7594 37.9173L28.3899 41.6854L30.0565 37.8992C30.076 37.8502 30.1071 37.8067 30.1471 37.7724L30.3102 37.7361H30.7993L30.8718 37.7905C30.8899 37.8267 30.908 37.8448 30.908 37.881C30.9044 37.9196 30.892 37.9567 30.8718 37.9897L28.571 43.1528C28.5598 43.2012 28.5346 43.2453 28.4986 43.2796ZM31.216 43.0984L31.6326 42.1745H34.658L35.0928 43.0984C35.1063 43.1358 35.1318 43.1676 35.1652 43.189H35.7268L35.7631 43.1528C35.7812 43.1528 35.7812 43.1347 35.7812 43.1166C35.7812 43.0984 35.7631 43.0622 35.7631 43.0441L33.2449 37.9173L33.2087 37.8448H33.1C33.0819 37.8448 33.0638 37.881 33.0457 37.9173L30.5457 43.0622C30.5457 43.0803 30.5276 43.1166 30.5276 43.1347C30.5276 43.1528 30.5276 43.1709 30.5457 43.1709C30.5638 43.1709 30.5638 43.189 30.5638 43.2071H31.1254C31.164 43.1867 31.1956 43.1552 31.216 43.1166V43.0984ZM31.7051 42.2651L31.2884 43.1347C31.2806 43.1624 31.2668 43.1881 31.248 43.21C31.2292 43.2319 31.2059 43.2495 31.1797 43.2615C31.1604 43.2797 31.1376 43.294 31.1128 43.3033C31.0879 43.3126 31.0614 43.3169 31.0348 43.3158H30.6363L30.5276 43.2796C30.4913 43.2796 30.4732 43.2434 30.4551 43.2252C30.4404 43.1974 30.4342 43.166 30.437 43.1347C30.4354 43.0917 30.4416 43.0487 30.4551 43.0079L32.9732 37.8629C32.9868 37.8256 33.0122 37.7938 33.0457 37.7724C33.077 37.7488 33.1152 37.7361 33.1544 37.7361C33.1936 37.7361 33.2317 37.7488 33.2631 37.7724L33.3355 37.8629L35.8355 43.0079C35.8537 43.0481 35.8659 43.0909 35.8718 43.1347C35.8718 43.1709 35.8536 43.189 35.8355 43.2252L35.7812 43.2796L35.6544 43.3158H35.2739C35.2445 43.3183 35.2148 43.3148 35.1868 43.3055C35.1588 43.2961 35.1329 43.2811 35.1109 43.2615C35.0565 43.2434 35.0384 43.189 35.0022 43.1347L34.6036 42.2651H31.7051ZM33.2087 39.0767L34.4044 41.6854H31.8863L33.1544 38.9861L33.2087 39.0767ZM34.2594 41.5767L33.1544 39.2035L32.0493 41.5767H34.2594ZM39.3863 37.8267H35.7449L35.6363 37.8629C35.6231 37.8776 35.6132 37.8949 35.6069 37.9135C35.6007 37.9322 35.5984 37.952 35.6 37.9716V38.1709C35.5984 38.1905 35.6007 38.2103 35.6069 38.229C35.6132 38.2477 35.6231 38.2649 35.6363 38.2796L35.7449 38.3158H37.2667V43.0803C37.2679 43.1138 37.2807 43.1458 37.3029 43.1709C37.321 43.2071 37.3573 43.2071 37.4116 43.2071H37.7377C37.7739 43.2071 37.8102 43.2071 37.8283 43.1709C37.8464 43.1347 37.8645 43.1166 37.8645 43.0803V38.3158H39.3863L39.4949 38.2796C39.5081 38.2649 39.518 38.2477 39.5243 38.229C39.5305 38.2103 39.5328 38.1905 39.5312 38.1709V37.9716C39.5328 37.952 39.5305 37.9322 39.5243 37.9135C39.518 37.8949 39.5081 37.8776 39.4949 37.8629L39.3863 37.8267ZM35.7449 37.7361H39.3863C39.4508 37.7348 39.5142 37.7538 39.5674 37.7905C39.6041 37.8437 39.6231 37.907 39.6218 37.9716V38.1709C39.6259 38.2358 39.6066 38.3001 39.5674 38.3521C39.5142 38.3887 39.4508 38.4077 39.3863 38.4064H37.9732V43.0803C37.9714 43.1421 37.9453 43.2006 37.9007 43.2434C37.8787 43.263 37.8529 43.278 37.8248 43.2873C37.7968 43.2967 37.7671 43.3002 37.7377 43.2977H37.4116C37.3822 43.3002 37.3525 43.2967 37.3245 43.2873C37.2965 43.278 37.2706 43.263 37.2486 43.2434C37.2235 43.2248 37.2036 43.2 37.1909 43.1714C37.1782 43.1428 37.1731 43.1114 37.1761 43.0803V38.4064H35.7449C35.7155 38.4089 35.6859 38.4054 35.6578 38.396C35.6298 38.3867 35.604 38.3717 35.5819 38.3521C35.5565 38.3296 35.5368 38.3015 35.5242 38.2701C35.5116 38.2386 35.5066 38.2047 35.5094 38.1709V37.9716C35.5079 37.938 35.5135 37.9044 35.526 37.8732C35.5385 37.8419 35.5576 37.8137 35.5819 37.7905C35.604 37.7708 35.6298 37.7558 35.6578 37.7465C35.6859 37.7372 35.7155 37.7336 35.7449 37.7361ZM43.9696 37.8267H40.3283C40.317 37.8351 40.3079 37.8461 40.3016 37.8587C40.2953 37.8712 40.292 37.8851 40.292 37.8992V43.1347L40.3283 43.189H44.0421V42.7905C44.0421 42.7724 44.0239 42.7542 44.0239 42.7361H40.908V40.7977H43.6616L43.6978 40.7434V40.381C43.6978 40.3629 43.6797 40.3267 43.6616 40.3267L43.6073 40.2905H40.908V38.3158H44.0421C44.0421 38.2977 44.0602 38.2796 44.0602 38.2434V37.9173C44.0602 37.881 44.0421 37.8629 44.0421 37.8448L43.9696 37.8267ZM40.3826 37.7361H43.9696C43.9934 37.7354 44.0171 37.7398 44.039 37.7492C44.0609 37.7586 44.0805 37.7727 44.0964 37.7905C44.1153 37.8054 44.1301 37.8248 44.1396 37.847C44.1491 37.8691 44.1529 37.8933 44.1507 37.9173V38.2252C44.1518 38.2518 44.1476 38.2783 44.1382 38.3032C44.1289 38.3281 44.1147 38.3509 44.0964 38.3702L43.9696 38.4064H40.9986V40.1999H43.6073C43.6553 40.1999 43.7014 40.219 43.7354 40.2529C43.7693 40.2869 43.7884 40.333 43.7884 40.381V40.7252C43.7884 40.7733 43.7693 40.8194 43.7354 40.8533C43.7014 40.8873 43.6553 40.9064 43.6073 40.9064H40.9986V42.6093H43.9696C43.9934 42.6085 44.0171 42.613 44.039 42.6224C44.0609 42.6318 44.0805 42.6459 44.0964 42.6637C44.1147 42.683 44.1289 42.7057 44.1382 42.7306C44.1476 42.7555 44.1518 42.782 44.1507 42.8086V43.1347C44.1507 43.1827 44.1317 43.2288 44.0977 43.2628C44.0637 43.2967 44.0176 43.3158 43.9696 43.3158H40.3826C40.3346 43.3158 40.2885 43.2967 40.2545 43.2628C40.2206 43.2288 40.2015 43.1827 40.2015 43.1347V37.9173C40.2007 37.8935 40.2052 37.8698 40.2146 37.8478C40.224 37.8259 40.238 37.8063 40.2558 37.7905C40.2717 37.7727 40.2913 37.7586 40.3132 37.7492C40.3351 37.7398 40.3588 37.7354 40.3826 37.7361Z" fill="black" style="fill:black;fill-opacity:1;"/>
<path d="M45.8012 43.2617H47.6852C49.2976 43.2617 50.3483 42.3559 50.3483 40.5262C50.3483 38.6965 49.2794 37.7726 47.6852 37.7726H45.8012C45.6925 37.7726 45.6562 37.827 45.6562 37.9356V43.1168C45.6562 43.2074 45.6925 43.2617 45.8012 43.2617ZM46.1091 42.8632V38.1893H47.5947C48.428 38.1893 49.8954 38.4972 49.8954 40.5262C49.8954 42.5552 48.428 42.8632 47.5947 42.8632H46.1091ZM51.5439 43.2617H54.986C55.0057 43.2648 55.0259 43.2632 55.0449 43.257C55.0639 43.2508 55.0811 43.2403 55.0953 43.2261C55.1094 43.212 55.12 43.1947 55.1262 43.1757C55.1324 43.1567 55.134 43.1365 55.1309 43.1168V43.0081C55.134 42.9884 55.1324 42.9682 55.1262 42.9492C55.12 42.9302 55.1094 42.9129 55.0953 42.8988C55.0811 42.8847 55.0639 42.8741 55.0449 42.8679C55.0259 42.8617 55.0057 42.8601 54.986 42.8632H51.8519V40.7799H54.5874C54.6961 40.7799 54.7323 40.7255 54.7323 40.6168V40.5262C54.7323 40.4175 54.6961 40.3632 54.5874 40.3632H51.8519V38.1893H54.986C55.0057 38.1924 55.0259 38.1908 55.0449 38.1846C55.0639 38.1784 55.0811 38.1678 55.0953 38.1537C55.1094 38.1395 55.12 38.1223 55.1262 38.1033C55.1324 38.0843 55.134 38.0641 55.1309 38.0443V37.9356C55.1309 37.827 55.0765 37.7726 54.986 37.7726H51.5439C51.4534 37.7726 51.399 37.827 51.399 37.9356V43.1168C51.3959 43.1365 51.3975 43.1567 51.4037 43.1757C51.4099 43.1947 51.4205 43.212 51.4346 43.2261C51.4487 43.2403 51.466 43.2508 51.485 43.257C51.504 43.2632 51.5242 43.2648 51.5439 43.2617ZM56.2903 43.2617H56.4352C56.5439 43.2617 56.5983 43.2074 56.5983 43.1168V38.8052L60.5476 43.1712C60.6019 43.2255 60.62 43.2617 60.6925 43.2617C60.7649 43.2617 60.7649 43.2074 60.7649 43.1712V37.9356C60.7649 37.827 60.7106 37.7726 60.62 37.7726H60.457C60.3664 37.7726 60.312 37.827 60.312 37.9356V42.211L56.3447 37.8632C56.3084 37.8088 56.2722 37.7726 56.2178 37.7726C56.1635 37.7726 56.1454 37.8088 56.1454 37.8632V43.1168C56.1454 43.2074 56.1816 43.2617 56.2903 43.2617ZM63.6273 43.2617H63.7903C63.81 43.2648 63.8302 43.2632 63.8492 43.257C63.8682 43.2508 63.8855 43.2403 63.8996 43.2261C63.9138 43.212 63.9243 43.1947 63.9305 43.1757C63.9367 43.1567 63.9383 43.1365 63.9352 43.1168V38.1893H65.5113C65.6019 38.1893 65.6562 38.1349 65.6562 38.0262V37.9356C65.6562 37.827 65.6019 37.7726 65.5113 37.7726H61.9244C61.9022 37.7696 61.8797 37.7718 61.8586 37.7789C61.8375 37.786 61.8182 37.798 61.8025 37.8137C61.7867 37.8295 61.7748 37.8487 61.7676 37.8699C61.7605 37.891 61.7583 37.9135 61.7613 37.9356V38.0262C61.7583 38.0483 61.7605 38.0708 61.7676 38.092C61.7748 38.1131 61.7867 38.1324 61.8025 38.1481C61.8182 38.1639 61.8375 38.1758 61.8586 38.183C61.8797 38.1901 61.9022 38.1923 61.9244 38.1893H63.4823V43.1168C63.4792 43.1365 63.4809 43.1567 63.487 43.1757C63.4932 43.1947 63.5038 43.212 63.5179 43.2261C63.5321 43.2403 63.5493 43.2508 63.5683 43.257C63.5873 43.2632 63.6075 43.2648 63.6273 43.2617ZM66.707 43.2617H66.87C66.8898 43.2648 66.9099 43.2632 66.9289 43.257C66.9479 43.2508 66.9652 43.2403 66.9793 43.2261C66.9935 43.212 67.0041 43.1947 67.0102 43.1757C67.0164 43.1567 67.018 43.1365 67.0149 43.1168V37.9356C67.0149 37.827 66.9606 37.7726 66.87 37.7726H66.707C66.6164 37.7726 66.562 37.827 66.562 37.9356V43.1168C66.559 43.1365 66.5606 43.1567 66.5668 43.1757C66.5729 43.1947 66.5835 43.212 66.5977 43.2261C66.6118 43.2403 66.6291 43.2508 66.648 43.257C66.667 43.2632 66.6872 43.2648 66.707 43.2617ZM70.312 43.3885C71.4534 43.3885 72.2505 42.8632 72.2505 41.8487C72.2505 40.8342 71.1816 40.4356 70.5476 40.327C69.9135 40.2183 68.591 40.0733 68.591 39.2219C68.591 38.3704 69.4787 38.0806 70.0222 38.0806C70.5282 38.0871 71.0229 38.2311 71.4534 38.4972C71.4897 38.5177 71.5324 38.5234 71.5729 38.5133C71.6133 38.5032 71.6483 38.478 71.6707 38.4429L71.7251 38.3342C71.7794 38.2436 71.7613 38.1712 71.6889 38.1349C71.2004 37.8301 70.6342 37.6728 70.0584 37.682C69.207 37.682 68.1381 38.0806 68.1381 39.24C68.1381 40.3994 69.5149 40.5806 70.1309 40.6893C70.7468 40.798 71.7976 41.0516 71.7976 41.8306C71.7976 42.6096 71.2541 42.9719 70.2758 42.9719C69.6681 42.9728 69.0744 42.7897 68.5729 42.4465C68.5557 42.4337 68.5359 42.4249 68.5149 42.4207C68.4938 42.4166 68.4722 42.4171 68.4514 42.4223C68.4306 42.4275 68.4112 42.4372 68.3946 42.4508C68.378 42.4644 68.3647 42.4815 68.3555 42.5009L68.2831 42.6096C68.2703 42.6268 68.2615 42.6466 68.2573 42.6676C68.2531 42.6886 68.2536 42.7103 68.2588 42.7311C68.264 42.7519 68.2738 42.7713 68.2874 42.7879C68.3009 42.8044 68.318 42.8178 68.3374 42.827C68.9222 43.2128 69.6117 43.4089 70.312 43.3885ZM74.2976 43.2617H74.4606C74.4803 43.2648 74.5005 43.2632 74.5195 43.257C74.5385 43.2508 74.5558 43.2403 74.5699 43.2261C74.584 43.212 74.5946 43.1947 74.6008 43.1757C74.607 43.1567 74.6086 43.1365 74.6055 43.1168V38.1893H76.1816C76.2037 38.1923 76.2262 38.1901 76.2474 38.183C76.2685 38.1758 76.2877 38.1639 76.3035 38.1481C76.3193 38.1324 76.3312 38.1131 76.3384 38.092C76.3455 38.0708 76.3476 38.0483 76.3447 38.0262V37.9356C76.3476 37.9135 76.3455 37.891 76.3384 37.8699C76.3312 37.8487 76.3193 37.8295 76.3035 37.8137C76.2877 37.798 76.2685 37.786 76.2474 37.7789C76.2262 37.7718 76.2037 37.7696 76.1816 37.7726H72.5947C72.5041 37.7726 72.4497 37.827 72.4497 37.9356V38.0262C72.4497 38.1349 72.5041 38.1893 72.5947 38.1893H74.1526V43.1168C74.1495 43.1365 74.1511 43.1567 74.1573 43.1757C74.1635 43.1947 74.1741 43.212 74.1882 43.2261C74.2024 43.2403 74.2196 43.2508 74.2386 43.257C74.2576 43.2632 74.2778 43.2648 74.2976 43.2617ZM77.4678 43.2617H77.6309C77.6506 43.2648 77.6708 43.2632 77.6898 43.257C77.7088 43.2508 77.7261 43.2403 77.7402 43.2261C77.7543 43.212 77.7649 43.1947 77.7711 43.1757C77.7773 43.1567 77.7789 43.1365 77.7758 43.1168V41.3052H79.4062L80.7287 43.1712C80.7493 43.1998 80.7765 43.2231 80.8081 43.2388C80.8397 43.2546 80.8746 43.2625 80.9099 43.2617H81.1273C81.2541 43.2617 81.2903 43.1712 81.2178 43.0806L79.9497 41.3052C80.9099 41.1422 81.4352 40.4719 81.4352 39.548C81.4352 38.6241 80.7106 37.7726 79.6961 37.7726H77.4678C77.3773 37.7726 77.3229 37.827 77.3229 37.9356V43.1168C77.3198 43.1365 77.3214 43.1567 77.3276 43.1757C77.3338 43.1947 77.3444 43.212 77.3585 43.2261C77.3727 43.2403 77.3899 43.2508 77.4089 43.257C77.4279 43.2632 77.4481 43.2648 77.4678 43.2617ZM77.7758 40.8885V38.1893H79.6418C80.7287 38.1893 80.9823 39.077 80.9823 39.548C80.9823 40.5081 80.2758 40.8885 79.6418 40.8885H77.7758ZM83.9715 43.2617H84.1345C84.1542 43.2648 84.1744 43.2632 84.1934 43.257C84.2124 43.2508 84.2297 43.2403 84.2438 43.2261C84.258 43.212 84.2685 43.1947 84.2747 43.1757C84.2809 43.1567 84.2825 43.1365 84.2794 43.1168V41.1784L86.2178 37.9538C86.2352 37.9367 86.2463 37.9142 86.2494 37.89C86.2524 37.8658 86.2473 37.8413 86.2347 37.8204C86.2222 37.7995 86.203 37.7835 86.1802 37.7748C86.1574 37.7661 86.1324 37.7653 86.1091 37.7726H85.9099C85.8721 37.7695 85.8343 37.7783 85.8018 37.7978C85.7693 37.8173 85.7437 37.8465 85.7287 37.8813L84.062 40.6893L82.4135 37.8813C82.3985 37.8465 82.3729 37.8173 82.3404 37.7978C82.3079 37.7783 82.2701 37.7695 82.2323 37.7726H82.0331C81.9244 37.7726 81.87 37.8632 81.9425 37.9538L83.8265 41.1784V43.1168C83.8234 43.1365 83.8251 43.1567 83.8312 43.1757C83.8374 43.1947 83.848 43.212 83.8622 43.2261C83.8763 43.2403 83.8935 43.2508 83.9125 43.257C83.9315 43.2632 83.9517 43.2648 83.9715 43.2617Z" fill="black" style="fill:black;fill-opacity:1;"/>
<path d="M20.3267 50.5629L20.5622 50.11H22.2107L22.4281 50.5629C22.442 50.5947 22.4648 50.6219 22.4937 50.6412C22.5226 50.6605 22.5564 50.671 22.5911 50.6716H23.044C23.1346 50.6716 23.1709 50.5991 23.1346 50.5086L21.468 47.2115C21.4498 47.139 21.4136 47.1209 21.3774 47.1209C21.3411 47.1209 21.323 47.139 21.2868 47.2115L19.6383 50.5086C19.5839 50.5991 19.6201 50.6716 19.7288 50.6716H20.1817C20.2146 50.6726 20.2469 50.6624 20.2733 50.6427C20.2996 50.6229 20.3184 50.5948 20.3267 50.5629ZM21.3774 48.4252L21.8846 49.5303H20.8882L21.3774 48.4252ZM29.4027 47.2477L28.7325 49.0774L27.8991 47.1933C27.8629 47.139 27.8448 47.139 27.8267 47.139C27.8078 47.1374 27.7889 47.1418 27.7726 47.1516C27.7564 47.1613 27.7436 47.1759 27.7361 47.1933L26.9027 49.0774L26.2506 47.2477C26.2424 47.2158 26.2235 47.1877 26.1972 47.1679C26.1708 47.1481 26.1386 47.1379 26.1056 47.139H25.6527C25.5622 47.139 25.5259 47.1933 25.5622 47.2839L26.7578 50.581C26.7759 50.6535 26.8122 50.6716 26.8303 50.6716C26.8484 50.6716 26.8846 50.6535 26.9027 50.5991L27.8267 48.5339L28.7325 50.581C28.7506 50.6535 28.7868 50.6716 28.8049 50.6716C28.823 50.6716 28.8593 50.6535 28.8774 50.581L30.0911 47.2839C30.1274 47.1933 30.0911 47.139 30.0006 47.139H29.5477C29.5148 47.1379 29.4825 47.1481 29.4561 47.1679C29.4298 47.1877 29.411 47.2158 29.4027 47.2477ZM33.189 50.5629L33.4064 50.11H35.073L35.2904 50.5629C35.3051 50.5929 35.3286 50.6176 35.3577 50.6338C35.3869 50.65 35.4203 50.6569 35.4535 50.6535H35.9064C35.9969 50.6535 36.0332 50.5991 35.9969 50.5086L34.3303 47.2115C34.294 47.139 34.2759 47.1209 34.2397 47.1209C34.2035 47.1209 34.1854 47.139 34.1491 47.2115L32.4825 50.5086C32.4462 50.5991 32.4825 50.6535 32.5911 50.6535H33.044C33.1165 50.6535 33.1709 50.6354 33.189 50.5629ZM34.2397 48.4071L34.7469 49.5122H33.7325L34.2397 48.4071ZM39.7832 49.5303H40.4535L41.2143 50.581C41.233 50.6061 41.2577 50.626 41.2863 50.6387C41.3149 50.6514 41.3463 50.6565 41.3774 50.6535H41.8846C41.9933 50.6535 42.0296 50.581 41.9571 50.5086L41.1962 49.4759C41.631 49.3491 41.9209 48.8781 41.9209 48.3528C41.9286 48.1913 41.9025 48.03 41.8443 47.8792C41.786 47.7285 41.6969 47.5915 41.5826 47.4772C41.4683 47.3629 41.3314 47.2738 41.1806 47.2156C41.0298 47.1573 40.8685 47.1312 40.7071 47.139H39.2578C39.1672 47.139 39.131 47.1752 39.131 47.2658V50.5267C39.131 50.6173 39.1672 50.6535 39.2578 50.6535H39.6564C39.7469 50.6535 39.7832 50.6173 39.7832 50.5267V49.5303ZM39.7832 48.9506V47.7368H40.5622C41.0513 47.7368 41.2506 48.0086 41.2506 48.3346C41.2506 48.6607 41.1238 48.9506 40.5622 48.9506H39.7832ZM45.3991 50.6535H46.6491C47.7904 50.6535 48.4064 49.9651 48.4064 48.8962C48.4064 47.8274 47.7723 47.139 46.6491 47.139H45.3991C45.3085 47.139 45.2542 47.1752 45.2542 47.2658V50.5267C45.2542 50.6173 45.3085 50.6535 45.3991 50.6535ZM45.9426 50.0557V47.7368H46.6491C47.1383 47.7368 47.7361 47.918 47.7361 48.8962C47.7361 49.8745 47.1383 50.0557 46.6491 50.0557H45.9426ZM51.8303 49.8202L51.6854 50.0375C51.6711 50.0566 51.6607 50.0782 51.6548 50.1013C51.6489 50.1243 51.6476 50.1483 51.6509 50.1719C51.6543 50.1954 51.6623 50.2181 51.6744 50.2385C51.6865 50.259 51.7025 50.2769 51.7216 50.2912C52.1133 50.5835 52.5916 50.7366 53.0803 50.7259C53.8774 50.7259 54.4209 50.3817 54.4209 49.6571C54.4209 48.9325 53.5151 48.6426 53.0984 48.552C52.6817 48.4615 52.2832 48.389 52.2832 48.0629C52.2832 47.7368 52.6093 47.7006 52.881 47.7006C53.1872 47.7132 53.4856 47.8002 53.7506 47.9542C53.7681 47.968 53.7883 47.9781 53.81 47.9838C53.8316 47.9894 53.8541 47.9906 53.8762 47.9872C53.8983 47.9838 53.9194 47.9759 53.9383 47.964C53.9572 47.9521 53.9735 47.9364 53.9861 47.918L54.1672 47.6644C54.1907 47.6274 54.1999 47.5831 54.1933 47.5398C54.1866 47.4965 54.1645 47.4571 54.131 47.4288C53.7839 47.1943 53.3722 47.0739 52.9535 47.0846C52.3556 47.0846 51.6129 47.3383 51.6129 48.1354C51.6129 48.9325 52.5368 49.1136 52.9535 49.2042C53.3701 49.2948 53.7506 49.3491 53.7506 49.6933C53.7506 50.0375 53.5875 50.11 53.0803 50.11C52.7209 50.0843 52.3729 49.9724 52.0658 49.7839C52.0267 49.7624 51.9811 49.756 51.9376 49.7661C51.8942 49.7761 51.856 49.8018 51.8303 49.8383V49.8202ZM61.2868 50.0557H59.8556L60.6346 49.4397C61.1056 49.0412 61.3774 48.7151 61.3774 48.1716C61.3774 47.6281 60.9969 47.0846 60.1636 47.0846C59.9053 47.0848 59.6534 47.1651 59.4425 47.3143C59.2316 47.4635 59.0722 47.6744 58.9861 47.918C58.9498 48.0086 58.968 48.081 59.0767 48.0991L59.4027 48.1897C59.446 48.2018 59.4922 48.1973 59.5324 48.1772C59.5725 48.1572 59.6038 48.1229 59.6201 48.081C59.6622 47.9618 59.741 47.8591 59.8452 47.7874C59.9493 47.7158 60.0735 47.6791 60.1998 47.6825C60.2662 47.6773 60.333 47.6862 60.3956 47.7087C60.4583 47.7312 60.5155 47.7668 60.5634 47.813C60.6114 47.8592 60.649 47.9151 60.6737 47.9769C60.6985 48.0387 60.7099 48.1051 60.7071 48.1716C60.7071 48.4071 60.6709 48.5883 60.2361 48.9506L59.0585 49.9288C59.0346 49.9485 59.0156 49.9735 59.003 50.0018C58.9905 50.0301 58.9847 50.061 58.9861 50.0919V50.5267C58.9835 50.5448 58.9848 50.5632 58.99 50.5808C58.9952 50.5983 59.0041 50.6145 59.0161 50.6283C59.0282 50.6421 59.0431 50.6531 59.0598 50.6605C59.0765 50.668 59.0946 50.6718 59.1129 50.6716H61.2868C61.3774 50.6716 61.4136 50.6173 61.4136 50.5267V50.2006C61.4136 50.11 61.3774 50.0738 61.2868 50.0738V50.0557ZM66.1962 50.7259C67.1745 50.7441 67.7723 49.8383 67.7723 48.8962C67.7723 47.9542 67.102 47.0846 66.1962 47.0846C65.2904 47.0846 64.6201 47.8274 64.6201 48.8962C64.6201 49.9651 65.1998 50.7259 66.1962 50.7259ZM66.1962 47.7006C66.8303 47.7006 67.0839 48.3165 67.0839 48.8962C67.0839 49.4759 66.631 50.11 66.1962 50.11C65.7614 50.11 65.3085 49.4578 65.3085 48.8962C65.3085 48.3346 65.7796 47.7006 66.1962 47.7006ZM73.3158 50.0557H71.9027L72.6636 49.4397C73.1346 49.0412 73.4064 48.7151 73.4064 48.1716C73.4064 47.6281 73.0259 47.0846 72.1926 47.0846C71.9343 47.0848 71.6824 47.1651 71.4715 47.3143C71.2606 47.4635 71.1012 47.6744 71.0151 47.918C71.0063 47.9356 71.0018 47.9549 71.0018 47.9746C71.0018 47.9942 71.0064 48.0136 71.0152 48.0311C71.024 48.0487 71.0367 48.064 71.0524 48.0758C71.0681 48.0876 71.0863 48.0956 71.1056 48.0991L71.4317 48.1897C71.475 48.2018 71.5212 48.1973 71.5614 48.1772C71.6015 48.1572 71.6328 48.1229 71.6491 48.081C71.6912 47.9618 71.77 47.8591 71.8741 47.7874C71.9783 47.7158 72.1025 47.6791 72.2288 47.6825C72.2952 47.6773 72.3619 47.6862 72.4246 47.7087C72.4873 47.7312 72.5445 47.7668 72.5924 47.813C72.6404 47.8592 72.6779 47.9151 72.7027 47.9769C72.7275 48.0387 72.7388 48.1051 72.7361 48.1716C72.7361 48.4071 72.6998 48.5883 72.2651 48.9506L71.0875 49.9288C71.0457 49.9735 71.0202 50.0309 71.0151 50.0919V50.5267C71.0124 50.5448 71.0138 50.5632 71.019 50.5808C71.0242 50.5983 71.0331 50.6145 71.0451 50.6283C71.0572 50.6421 71.0721 50.6531 71.0888 50.6605C71.1055 50.668 71.1236 50.6718 71.1419 50.6716H73.3158C73.4064 50.6716 73.4426 50.6173 73.4426 50.5267V50.2006C73.4426 50.11 73.4064 50.0738 73.3158 50.0738V50.0557ZM79.0948 50.0557H77.6636L78.4245 49.4397C78.8955 49.0412 79.1672 48.7151 79.1672 48.1716C79.1672 47.6281 78.7868 47.0846 77.9535 47.0846C77.6951 47.0848 77.4432 47.1651 77.2324 47.3143C77.0215 47.4635 76.862 47.6744 76.7759 47.918C76.7669 47.9369 76.7628 47.9577 76.7638 47.9786C76.7648 47.9995 76.7709 48.0198 76.7817 48.0377C76.7925 48.0556 76.8075 48.0706 76.8254 48.0813C76.8434 48.0921 76.8637 48.0982 76.8846 48.0991L77.1926 48.1897C77.2359 48.2018 77.2821 48.1973 77.3222 48.1772C77.3624 48.1572 77.3937 48.1229 77.41 48.081C77.4565 47.9648 77.5363 47.8649 77.6395 47.794C77.7427 47.723 77.8645 47.6842 77.9897 47.6825C78.0567 47.6741 78.1248 47.6808 78.1889 47.7022C78.253 47.7235 78.3115 47.759 78.3602 47.8059C78.4088 47.8528 78.4463 47.91 78.47 47.9732C78.4937 48.0365 78.5029 48.1043 78.4969 48.1716C78.4969 48.4071 78.4607 48.5883 78.0259 48.9506L76.8484 49.9288C76.8066 49.9735 76.781 50.0309 76.7759 50.0919V50.5267C76.7728 50.5464 76.7744 50.5666 76.7806 50.5856C76.7868 50.6046 76.7974 50.6219 76.8115 50.636C76.8257 50.6501 76.8429 50.6607 76.8619 50.6669C76.8809 50.6731 76.9011 50.6747 76.9209 50.6716H79.0767C79.0964 50.6747 79.1166 50.6731 79.1356 50.6669C79.1546 50.6607 79.1718 50.6501 79.186 50.636C79.2001 50.6219 79.2107 50.6046 79.2169 50.5856C79.2231 50.5666 79.2247 50.5464 79.2216 50.5267V50.2006C79.2216 50.11 79.1672 50.0738 79.0767 50.0738L79.0948 50.0557Z" fill="black" style="fill:black;fill-opacity:1;"/>
<path d="M29.4767 57.7369V57.2659C29.4792 57.243 29.4769 57.2199 29.4699 57.1979C29.4628 57.176 29.4512 57.1558 29.4358 57.1387C29.4204 57.1216 29.4016 57.108 29.3805 57.0987C29.3594 57.0894 29.3366 57.0846 29.3136 57.0848H26.5781C26.4694 57.0848 26.4151 57.1572 26.4151 57.2659V61.8311C26.4125 61.854 26.4148 61.8772 26.4219 61.8991C26.4289 61.921 26.4405 61.9412 26.4559 61.9583C26.4713 61.9754 26.4902 61.9891 26.5112 61.9984C26.5323 62.0077 26.5551 62.0124 26.5781 62.0123H27.0672C27.1578 62.0123 27.2122 61.9398 27.2122 61.8311V60.0739H29.06C29.083 60.074 29.1058 60.0693 29.1269 60.06C29.1479 60.0507 29.1668 60.037 29.1822 60.0199C29.1976 60.0028 29.2092 59.9826 29.2162 59.9607C29.2233 59.9388 29.2256 59.9156 29.223 59.8927V59.4217C29.2256 59.3988 29.2233 59.3757 29.2162 59.3537C29.2092 59.3318 29.1976 59.3116 29.1822 59.2945C29.1668 59.2774 29.1479 59.2638 29.1269 59.2545C29.1058 59.2452 29.083 59.2404 29.06 59.2406H27.2122V57.9181H29.3136C29.3366 57.9182 29.3594 57.9135 29.3805 57.9042C29.4016 57.8949 29.4204 57.8812 29.4358 57.8641C29.4512 57.847 29.4628 57.8268 29.4699 57.8049C29.4769 57.783 29.4792 57.7598 29.4767 57.7369ZM33.8064 57.0848H33.3172C33.2267 57.0848 33.1723 57.1572 33.1723 57.2659V61.8311C33.1723 61.9398 33.2267 62.0123 33.3172 62.0123H33.8064C33.897 62.0123 33.9513 61.9398 33.9513 61.8311V57.2659C33.9513 57.1572 33.897 57.0848 33.8064 57.0848ZM37.9187 61.8311C37.9187 61.9398 37.973 62.0123 38.0636 62.0123H38.5528C38.6433 62.0123 38.6977 61.9398 38.6977 61.8311V59.0594L41.3607 61.9217C41.4151 61.9942 41.4332 62.0123 41.4694 62.0123C41.5057 62.0123 41.5238 61.9942 41.5238 61.9398V57.2659C41.5238 57.1572 41.4694 57.0848 41.3607 57.0848H40.8716C40.781 57.0848 40.7267 57.1572 40.7267 57.2659V60.092L38.0817 57.1753C38.0274 57.1029 37.9912 57.0848 37.973 57.0848C37.9549 57.0848 37.9187 57.1029 37.9187 57.1572V61.8311ZM45.9259 61.8674L46.1796 61.2333H48.1361L48.3897 61.8674C48.4441 61.9579 48.4984 62.0123 48.5709 62.0123H49.1143C49.223 62.0123 49.2774 61.9036 49.223 61.7949L47.2665 57.1935C47.2303 57.0848 47.1941 57.0848 47.1578 57.0848C47.1216 57.0848 47.0854 57.0848 47.0491 57.1935L45.0926 61.7949C45.0383 61.9036 45.0745 62.0123 45.2013 62.0123H45.7267C45.769 62.0132 45.8104 61.9991 45.8435 61.9726C45.8766 61.9462 45.8994 61.9089 45.9078 61.8674H45.9259ZM47.1578 58.8782L47.7375 60.4181H46.56L47.1578 58.8782ZM53.4622 61.179V57.2659C53.4647 57.243 53.4624 57.2199 53.4554 57.1979C53.4483 57.176 53.4367 57.1558 53.4213 57.1387C53.4059 57.1216 53.3871 57.108 53.366 57.0987C53.3449 57.0894 53.3222 57.0846 53.2991 57.0848H52.81C52.7194 57.0848 52.6651 57.1572 52.6651 57.2659V61.8311C52.6651 61.9398 52.7194 62.0123 52.81 62.0123H55.4912C55.5999 62.0123 55.6542 61.9398 55.6542 61.8311V61.3601C55.6568 61.3372 55.6544 61.3141 55.6474 61.2922C55.6404 61.2702 55.6288 61.25 55.6134 61.2329C55.598 61.2158 55.5791 61.2022 55.558 61.1929C55.537 61.1836 55.5142 61.1788 55.4912 61.179H53.4622ZM59.839 57.0848H59.3499C59.2593 57.0848 59.2049 57.1572 59.2049 57.2659V61.8311C59.2049 61.9398 59.2593 62.0123 59.3499 62.0123H59.839C59.9296 62.0123 59.9839 61.9398 59.9839 61.8311V57.2659C59.9839 57.1572 59.9296 57.0848 59.839 57.0848ZM64.0781 60.8348L63.9151 61.1427C63.8773 61.199 63.8619 61.2674 63.872 61.3344C63.8821 61.4015 63.9168 61.4623 63.9694 61.505C64.4058 61.8993 64.9756 62.113 65.5636 62.1029C66.5056 62.1029 67.1397 61.6137 67.1397 60.5993C67.1397 59.2949 66.0709 59.1862 65.5817 59.0594C65.0926 58.9326 64.6216 58.842 64.6216 58.3891C64.6216 57.9362 65.002 57.8819 65.31 57.8819C65.6838 57.8909 66.0451 58.0177 66.3426 58.2442C66.3861 58.2721 66.4388 58.2821 66.4895 58.272C66.5402 58.2618 66.585 58.2324 66.6143 58.1898L66.8317 57.8275C66.8619 57.7784 66.8731 57.72 66.8631 57.6632C66.853 57.6064 66.8226 57.5553 66.7774 57.5195C66.3997 57.1815 65.9073 57.0001 65.4006 57.0123C64.6941 57.0123 63.8245 57.3565 63.8245 58.4797C63.8245 59.6029 64.9114 59.8565 65.4006 59.9652C65.8897 60.0739 66.3426 60.1826 66.3426 60.6536C66.3426 61.1246 66.1433 61.2333 65.5455 61.2333C64.9477 61.2333 64.6578 60.9797 64.368 60.7804C64.3459 60.7609 64.3195 60.7471 64.2909 60.7401C64.2623 60.7331 64.2325 60.7332 64.204 60.7403C64.1754 60.7474 64.149 60.7614 64.1271 60.781C64.1052 60.8006 64.0884 60.8253 64.0781 60.8529V60.8348ZM73.2991 57.0848H70.4368C70.3462 57.0848 70.2919 57.1572 70.2919 57.2659V57.7369C70.2919 57.8456 70.3462 57.9181 70.4368 57.9181H71.4694V61.8311C71.4669 61.854 71.4692 61.8772 71.4762 61.8991C71.4833 61.921 71.4949 61.9412 71.5103 61.9583C71.5257 61.9754 71.5445 61.9891 71.5656 61.9984C71.5866 62.0077 71.6094 62.0124 71.6325 62.0123H72.1216C72.2122 62.0123 72.2665 61.9398 72.2665 61.8311V57.9181H73.2991C73.3222 57.9182 73.3449 57.9135 73.366 57.9042C73.3871 57.8949 73.4059 57.8812 73.4213 57.8641C73.4367 57.847 73.4483 57.8268 73.4554 57.8049C73.4624 57.783 73.4647 57.7598 73.4622 57.7369V57.2659C73.4647 57.243 73.4624 57.2199 73.4554 57.1979C73.4483 57.176 73.4367 57.1558 73.4213 57.1387C73.4059 57.1216 73.3871 57.108 73.366 57.0987C73.3449 57.0894 73.3222 57.0846 73.2991 57.0848Z" fill="black" style="fill:black;fill-opacity:1;"/>
<path d="M27.4297 53.2617H71.1978V53.5878H27.4297V53.2617Z" fill="black" style="fill:black;fill-opacity:1;"/>
</g>
<defs>
<linearGradient id="paint0_linear_1712_11325" x1="50" y1="0" x2="50" y2="100" gradientUnits="userSpaceOnUse">
<stop stop-color="white" style="stop-color:white;stop-opacity:1;"/>
<stop offset="1" stop-color="#D8D8D8" style="stop-color:#D8D8D8;stop-color:color(display-p3 0.8475 0.8475 0.8475);stop-opacity:1;"/>
</linearGradient>
<clipPath id="clip0_1712_11325">
<rect width="72.4638" height="24.4203" fill="white" style="fill:white;fill-opacity:1;" transform="translate(13.7695 37.6816)"/>
</clipPath>
</defs>
</svg>
