<svg width="100" height="100" viewBox="0 0 100 100" fill="none" xmlns="http://www.w3.org/2000/svg">
<rect width="100" height="100" rx="50" fill="url(#paint0_linear_1712_11108)" style=""/>
<g clip-path="url(#clip0_1712_11108)">
<path d="M31.9658 43.4029C31.7728 43.6953 31.5104 43.9354 31.202 44.1017C30.8935 44.268 30.5487 44.3553 30.1983 44.3558C28.8151 44.3558 27.7853 43.1416 27.7853 40.6825C27.7853 39.1609 28.231 37.4703 29.5989 37.4703C30.9668 37.4703 31.6123 38.9918 31.8582 40.3904H31.9504V37.3934H31.8582C31.8582 37.6086 31.7814 37.7469 31.5662 37.7469C31.351 37.7469 30.7055 37.378 29.5989 37.378C27.4779 37.378 25.6797 38.7152 25.6797 41.0974C25.6797 42.8957 26.6787 44.1406 28.0005 44.6324H26.5711V44.7093C27.3089 44.7246 27.4779 44.9552 27.6316 45.4316L26.5711 48.859C26.356 49.5967 25.8027 51.2259 24.942 51.2413V51.3181H27.5548V51.2413C26.2176 51.2259 26.4021 49.7351 26.6941 48.7514L26.8171 48.3672H28.5231L29.0456 50.0732C29.353 51.0876 29.0917 51.2259 28.3694 51.2413V51.3181H31.6584V51.2413C31.3357 51.2259 31.059 51.0722 30.7824 50.1961L29.1532 44.8783H29.3684C30.5979 44.8783 31.5201 44.3096 32.0119 43.4797L31.9658 43.4029ZM27.4318 60.9394C27.4318 60.9394 27.9083 58.2497 33.2722 57.5888C38.6361 56.9279 42.1096 57.1431 42.1096 57.1431L50.6089 57.5888C50.6089 57.5888 62.6586 58.4495 64.7949 58.1575C66.9313 57.8655 74.8926 58.4342 75.8763 51.7023C75.8763 51.7023 76.3681 55.1912 71.665 57.5274C66.962 59.8635 60.1533 59.4793 60.1533 59.4793C60.1533 59.4793 54.605 59.2641 51.07 58.9721C45.4448 58.4956 40.419 58.096 34.7938 58.1729C32.1502 58.2036 28.7997 58.5417 27.4318 60.9394ZM35.9465 29.7548C35.9465 29.555 36.0541 29.5089 36.5152 29.5089C37.4834 29.5089 38.0367 30.5694 38.0367 32.5213C38.0367 35.1648 37.3144 35.672 36.5152 35.672C36.0387 35.672 35.9465 35.5491 35.9465 35.3032V29.7548ZM33.9946 29.14V29.4474C34.5171 29.4781 34.594 29.5396 34.594 30.0314V35.1495C34.594 35.6413 34.5479 35.7028 33.9946 35.7181V36.0409H36.2846C37.4527 36.0409 39.5276 35.8872 39.5276 32.4598C39.5276 31.3225 39.3278 30.5079 38.8667 29.9392C38.4056 29.3706 37.7293 29.14 36.6842 29.14H33.9946ZM42.9703 33.5049C43.2623 33.5049 43.4007 33.4281 43.4007 33.1053C43.4007 32.3215 43.2009 31.0612 41.6332 31.0612C40.0655 31.0612 39.6813 32.2293 39.6813 33.6125C39.6813 34.9958 40.1116 36.1639 41.6178 36.1639C42.5707 36.1639 43.0779 35.5798 43.3546 34.6576L43.1394 34.5193C42.8627 35.1956 42.5092 35.4261 42.0328 35.4261C41.2643 35.4261 40.9877 34.6115 40.9877 33.5049H42.9703ZM40.9877 33.1207C40.9877 32.2908 41.126 31.4301 41.6024 31.4301C42.0789 31.4301 42.1404 32.1832 42.1404 32.8133C42.1404 33.0746 42.0789 33.1207 41.8945 33.1207H40.9877ZM47.535 32.5981C47.535 31.676 47.1662 31.0612 46.3516 31.0612C45.9059 31.0612 45.537 31.3532 44.9991 31.7375L44.9069 31.0766L43.3084 31.3686V31.6606L43.5697 31.7067C43.6773 31.7375 43.7542 31.8143 43.7542 32.2139V35.2724C43.7542 35.672 43.6927 35.7028 43.2623 35.7335V36.0255H45.3987V35.7335C45.1528 35.7028 44.9991 35.7181 44.9991 35.3185V32.7979C44.9957 32.6005 45.0216 32.4037 45.0759 32.2139C45.1132 32.08 45.1937 31.9622 45.3049 31.8788C45.4161 31.7954 45.5517 31.7511 45.6907 31.7528C46.0903 31.7528 46.2901 32.0602 46.2901 32.6289V35.3339C46.2901 35.7335 46.121 35.7028 45.8905 35.7335V36.0255H48.0269V35.7335C47.5811 35.7028 47.535 35.6874 47.535 35.2878V32.5981ZM50.0864 31.6299V31.1995H49.3025V29.9546H48.8261L48.0883 31.1995H47.5965V31.6299H48.0576V34.8728C48.0576 35.7796 48.534 36.1639 48.9951 36.1639C49.4562 36.1639 49.7329 36.0255 50.1939 35.6106L50.1325 35.38C50.0159 35.4321 49.891 35.4633 49.7636 35.4722C49.487 35.4722 49.2872 35.1956 49.2872 34.5808V31.6299H50.0864ZM51.362 28.9863C50.9317 28.9863 50.7011 29.3706 50.7011 29.8009C50.7011 30.2313 50.9317 30.6309 51.362 30.6309C51.7924 30.6309 52.0229 30.2313 52.0229 29.8009C52.0229 29.3706 51.7924 28.9863 51.362 28.9863ZM50.7626 35.2571C50.7626 35.6567 50.7011 35.7028 50.2862 35.7335V36.0409H52.4994V35.7335C52.069 35.7028 52.0075 35.6567 52.0075 35.2571V31.1227L51.9614 31.0766L50.3169 31.3532V31.6606L50.5782 31.7221C50.7011 31.7375 50.7626 31.8297 50.7626 32.2293V35.2571ZM55.2505 32.7365V31.4147C54.9037 31.1739 54.4891 31.05 54.067 31.0612C53.1295 31.0612 52.5301 31.6606 52.5301 32.6596C52.5301 33.382 52.8682 33.8431 53.6521 34.2427C54.1132 34.4732 54.4513 34.7499 54.4513 35.1802C54.4513 35.6106 54.2361 35.8104 53.9133 35.8104C53.5906 35.8104 52.9451 35.0111 52.7453 34.2119H52.484L52.5916 35.7028C52.8682 36.0409 53.4676 36.1639 53.898 36.1639C54.8355 36.1639 55.5118 35.6106 55.5118 34.5193C55.5118 33.674 55.1275 33.2898 54.4052 32.9209C53.9133 32.6904 53.5752 32.4598 53.5752 32.0448C53.5752 31.6299 53.7289 31.4301 54.067 31.4301C54.4052 31.4301 54.8663 31.9834 55.02 32.7365H55.2505ZM57.9401 31.6299V31.1995H57.1563V29.9546H56.6798L55.9575 31.1995H55.4657V31.6299H55.9114V34.8728C55.9114 35.7796 56.4032 36.1639 56.8489 36.1639C57.2946 36.1639 57.5866 36.0255 58.0631 35.6106L58.0016 35.38C57.885 35.4321 57.7602 35.4633 57.6328 35.4722C57.3407 35.4722 57.1563 35.1956 57.1563 34.5808V31.6299H57.9401ZM59.8306 32.9363C59.8306 32.4598 59.8921 32.2139 60.0919 32.2139C60.2917 32.2139 60.3224 32.3215 60.4915 32.4752C60.5328 32.5317 60.5857 32.5788 60.6466 32.6133C60.7076 32.6477 60.7752 32.6688 60.845 32.675C61.2292 32.675 61.4444 32.1985 61.4444 31.7989C61.4444 31.3993 61.2138 31.0612 60.8603 31.0612C60.5068 31.0612 60.2763 31.3686 59.7998 32.0295L59.7076 31.0766L58.1399 31.3686V31.6606L58.4012 31.7221C58.5242 31.7375 58.5857 31.8297 58.5857 32.2139V35.2571C58.5857 35.672 58.5242 35.7028 58.0938 35.7335V36.0255H60.4915V35.7335C59.8921 35.6874 59.8306 35.672 59.8306 35.2571V32.9363ZM64.426 31.1995V31.5069L64.8256 31.5684C64.9486 31.5838 64.9947 31.6606 64.9486 31.8604C64.7488 32.7979 64.4875 33.8738 64.2416 34.7499H64.2262C63.9803 33.9507 63.5961 32.7826 63.3502 31.8911C63.3041 31.6913 63.3194 31.5991 63.427 31.5684L63.7344 31.5069V31.1995H61.4597V31.5069C61.7979 31.5684 61.8747 31.553 62.0284 31.9526C62.428 33.1207 63.0121 34.8113 63.4731 36.2407C63.5346 36.4405 63.6268 36.8401 63.5653 36.9938C63.5039 37.1475 63.3655 37.4395 63.2118 37.4395C63.0916 37.4243 62.9817 37.3638 62.9045 37.2704C62.7354 37.1168 62.6739 37.0553 62.5356 37.0553C62.3973 37.0553 61.9977 37.501 61.9977 37.8852C61.9976 38.0538 62.0635 38.2157 62.1813 38.3363C62.299 38.457 62.4593 38.5267 62.6278 38.5307C63.2119 38.5307 63.55 38.1311 63.9803 36.7171C64.4107 35.3032 64.9332 33.4742 65.3482 32.1832C65.5173 31.6299 65.5326 31.553 65.9937 31.5069V31.1995H64.426ZM64.1801 53.9309C64.1801 54.0231 64.2262 54.0539 64.3031 54.0539C64.3799 54.0539 64.4721 54.0078 64.6105 54.0078C64.7488 54.0078 64.9486 54.0692 64.9486 54.5611C64.9486 55.0529 64.8718 55.1605 64.6412 55.1605C64.4107 55.1605 64.3646 55.0682 64.2416 54.6994C64.2313 54.6629 64.209 54.6309 64.1784 54.6086C64.1477 54.5863 64.1104 54.575 64.0725 54.5764C64.0362 54.5764 64.0002 54.5836 63.9667 54.5975C63.9331 54.6114 63.9026 54.6318 63.8769 54.6575C63.8512 54.6831 63.8308 54.7136 63.8169 54.7472C63.803 54.7808 63.7959 54.8167 63.7959 54.8531C63.7959 54.9914 63.9496 55.2988 64.6412 55.2988C65.3328 55.2988 65.5941 55.0068 65.5941 54.5457C65.5941 54.0846 65.0869 53.9463 64.8871 53.9155V53.8694C65.133 53.8233 65.4865 53.7311 65.4865 53.3469C65.4865 52.9626 65.0254 52.7321 64.6412 52.7321C64.257 52.7321 63.842 52.9626 63.842 53.2239C63.842 53.4852 64.0111 53.4545 64.1033 53.4545C64.1955 53.4545 64.2262 53.4083 64.257 53.3315C64.2877 53.2547 64.426 52.8704 64.5951 52.8704C64.7642 52.8704 64.8564 53.1778 64.8564 53.3315C64.8564 53.4852 64.841 53.8387 64.6105 53.8387C64.3799 53.8387 64.3953 53.7926 64.2877 53.7926C64.2722 53.7924 64.2568 53.7956 64.2427 53.802C64.2285 53.8083 64.2159 53.8176 64.2056 53.8293C64.1954 53.841 64.1878 53.8548 64.1834 53.8696C64.179 53.8845 64.1779 53.9002 64.1801 53.9155V53.9309ZM55.8806 54.5149H55.773C55.6347 54.7762 55.5732 54.807 55.4657 54.807H54.3283C54.3898 54.684 54.6665 54.4996 55.0814 54.2998C55.4964 54.1 55.7423 53.8694 55.7423 53.4852C55.7423 53.101 55.3888 52.7475 54.8816 52.7475C54.3744 52.7475 54.0056 53.0549 54.0056 53.3622C54.0132 53.4302 54.0456 53.4929 54.0967 53.5383C54.1478 53.5837 54.2139 53.6086 54.2822 53.6082C54.3744 53.6082 54.4513 53.5774 54.4666 53.4698C54.5435 53.0702 54.6203 52.8858 54.8201 52.8858C55.0199 52.8858 55.0968 53.101 55.0968 53.3469C55.0968 53.5928 55.0814 53.8848 54.6665 54.2383C54.2515 54.5918 53.9748 54.976 53.9748 55.2373L54.0056 55.268H55.7116L55.8806 54.5303V54.5149ZM45.122 52.8704C45.4141 52.8704 45.4141 53.5774 45.4141 54.0078C45.4141 54.4381 45.4141 55.1605 45.122 55.1605C44.83 55.1605 44.8146 54.4842 44.8146 54.0078C44.8146 53.5313 44.8146 52.8704 45.1067 52.8704H45.122ZM45.122 52.7321C44.3997 52.7321 44.1845 53.3315 44.1845 54.0078C44.1845 54.684 44.3997 55.2988 45.122 55.2988C45.8444 55.2988 46.0596 54.684 46.0596 54.0078C46.0596 53.3315 45.829 52.7321 45.122 52.7321ZM36.2846 54.5149H36.1924C36.0387 54.7762 35.9772 54.807 35.8696 54.807H34.7477C34.8092 54.684 35.0704 54.4996 35.5008 54.2998C35.9311 54.1 36.1617 53.8694 36.1617 53.4852C36.1617 53.101 35.7928 52.7475 35.301 52.7475C34.8092 52.7475 34.4249 53.0549 34.4249 53.3622C34.4269 53.3966 34.4356 53.4302 34.4506 53.4611C34.4655 53.4921 34.4865 53.5198 34.5122 53.5426C34.5379 53.5655 34.5678 53.583 34.6003 53.5943C34.6328 53.6055 34.6672 53.6102 34.7016 53.6082C34.7218 53.6103 34.7422 53.6084 34.7617 53.6026C34.7811 53.5967 34.7992 53.5871 34.8149 53.5743C34.8307 53.5614 34.8437 53.5455 34.8532 53.5276C34.8628 53.5097 34.8687 53.49 34.8706 53.4698C34.9475 53.0702 35.0397 52.8858 35.2395 52.8858C35.4393 52.8858 35.5161 53.101 35.5161 53.3469C35.5161 53.5928 35.5008 53.8848 35.0858 54.2383C34.6708 54.5918 34.3942 54.976 34.3942 55.2373V55.268H36.1156L36.2692 54.5303L36.2846 54.5149ZM75.907 51.395H75.9838C75.9838 51.2413 76.03 51.0415 76.2451 51.0415C76.4603 51.0415 77.1058 51.4411 77.9204 51.4411C79.3344 51.4411 80.1951 50.5035 80.1951 49.3047C80.1951 48.1059 79.5188 47.5526 78.1663 46.8302C77.6745 46.5228 76.9368 46.0925 76.9368 45.4162C76.9368 44.74 77.4439 44.617 77.905 44.617C78.8272 44.617 79.4727 45.5085 79.6725 46.6151H79.7494V44.5248H79.6725C79.6725 44.6939 79.5957 44.8168 79.4112 44.8168C79.2268 44.8168 78.6889 44.5248 77.9972 44.5248C76.7523 44.5248 75.9224 45.324 75.9224 46.4614C75.9224 47.5987 76.5679 47.9829 77.7513 48.736C78.32 49.1356 79.0116 49.566 79.0116 50.3345C79.0116 51.1029 78.6428 51.3335 77.9972 51.3335C76.7523 51.3335 75.9838 49.9349 75.8455 48.6746H75.784L75.907 51.3796V51.395ZM69.5748 51.3181H72.1569C73.617 51.3181 75.323 50.1654 75.323 47.8754C75.323 45.9542 74.1088 44.9705 72.8639 44.7093H74.3239V41.6661H74.2317C74.201 42.8649 73.2327 44.617 71.5728 44.617H71.2808V38.4539C71.2808 37.8391 71.5728 37.6086 72.3874 37.5778V37.501H68.3145V37.5778C69.1445 37.6086 69.4211 37.8391 69.4211 38.4539V43.7717C69.4211 44.3865 69.1445 44.6324 68.3145 44.6324V44.7093H69.0983C69.7131 44.7554 69.9129 44.9859 69.9129 45.5238V50.442C69.9129 50.8878 69.7592 51.1183 69.3596 51.2105C69.2423 51.1703 69.1367 51.1016 69.0522 51.0107C68.6373 50.5957 68.3606 49.6736 67.8073 49.0127C67.6137 48.78 67.3719 48.5922 67.0985 48.4622C66.8252 48.3321 66.5269 48.263 66.2243 48.2596C66.0398 48.2442 66.1013 48.2289 66.2243 48.2135C67.6075 48.1213 68.5604 47.3835 68.5604 46.3538C68.5604 45.5853 68.0225 44.9244 66.9774 44.7093H68.6834V44.6324C68.2991 44.617 68.084 44.4172 67.669 43.4951L64.9332 37.4856H64.8103C64.257 39.0072 63.6268 40.498 63.0121 42.0042C62.7047 42.7881 61.9516 44.617 60.9679 44.6324V44.7093H63.0121C63.6115 44.7554 63.8113 44.9705 63.8113 45.5085V50.442C63.8113 50.9492 63.6268 51.1798 63.0889 51.2413C62.8122 51.1798 62.5663 50.98 62.3358 50.1808L60.6759 44.6324H60.0611C60.623 44.4016 61.0967 43.9979 61.4136 43.4797L61.3675 43.4029C61.1702 43.6946 60.9047 43.9339 60.594 44.0999C60.2834 44.266 59.9369 44.3538 59.5847 44.3558C58.2168 44.3558 57.1717 43.1416 57.1717 40.6825C57.1717 39.1609 57.6174 37.4703 58.9853 37.4703C60.3531 37.4703 60.9987 38.9918 61.2599 40.3904H61.3368V37.3934H61.2599C61.2599 37.6086 61.1831 37.7469 60.9679 37.7469C60.7527 37.7469 60.1072 37.378 59.0006 37.378C56.8643 37.378 55.0814 38.6998 55.0814 41.0974C55.0814 42.8957 56.0804 44.1406 57.4022 44.6324H56.0497V44.7093C57.0641 44.7246 56.9104 46.0925 56.5415 47.0915L55.7269 49.5199L54.5742 45.6468C54.2976 44.8322 54.4974 44.7246 54.897 44.7093H54.9738V44.6324H54.7894C53.9748 44.617 53.6982 44.3711 53.6982 43.7563V38.4539C53.6982 37.8391 53.9748 37.5932 54.8048 37.5778V37.501H50.7165V37.5778C51.5465 37.5932 51.8231 37.8237 51.8231 38.4539V43.7563C51.8231 44.3711 51.5465 44.6017 50.7319 44.6324H49.4408V40.498C49.4408 39.1148 49.7482 37.5778 50.9009 37.5778V37.501H47.7348V37.5778C49.1181 37.5778 49.3333 39.2992 49.3333 40.8515V42.5575C49.3333 42.6497 49.2872 42.6651 49.2257 42.6036L45.8598 37.501H42.8013V37.5778C43.6158 37.5932 44.0154 38.1004 44.3689 38.623V41.3587C44.3689 42.742 44.3536 44.617 42.8935 44.6324V44.7093H44.7071C45.3218 44.7554 45.4755 44.9859 45.6139 45.4316L44.5841 48.859C44.3843 49.5967 43.8464 51.2259 43.0011 51.2413V51.3181H45.537V51.2413C44.246 51.2259 44.415 49.7351 44.7071 48.7514L44.83 48.3672H46.4745L46.9817 50.0732C47.2738 51.0876 47.0278 51.2259 46.3362 51.2413V51.3181H49.5331V51.2413C49.2103 51.2259 48.949 51.0722 48.6724 50.1961L47.0125 44.6324H46.0596C44.6763 44.617 44.4612 42.1426 44.4612 40.5902V38.7767C44.4765 38.8074 44.4765 38.8228 44.4919 38.8381L48.3342 44.7093H48.4879C48.9644 44.7554 49.1796 45.0166 49.3486 45.5085L51.2083 51.3796H51.6387L53.191 47.03L53.2525 46.8763L54.6972 51.3796H55.1122L56.6798 46.9839C56.895 46.3845 57.4637 45.1703 58.017 44.8015C58.26 44.8498 58.507 44.8755 58.7547 44.8783H58.9392C59.1162 45.0148 59.2366 45.2118 59.2773 45.4316L58.2475 48.859C58.0477 49.5967 57.4944 51.2259 56.6645 51.2413V51.3181H59.2004V51.2413C57.9094 51.2259 58.0785 49.7351 58.3705 48.7514L58.4934 48.3672H60.138L60.6452 50.0732C60.9372 51.0876 60.6913 51.2259 59.9996 51.2413V51.3181H66.3318V51.2413C65.6402 51.2259 65.3943 51.0107 65.3943 50.442V44.7093H65.6402C66.5317 44.7093 66.9159 45.5392 66.9159 46.3692C66.9159 47.1991 66.4702 48.1674 65.7632 48.1827V48.275C66.4855 48.275 66.6392 50.4882 67.2386 51.3181H69.5748ZM71.496 51.2413V44.7246H72.1261C73.2635 44.7246 73.617 46.2001 73.617 47.8754C73.617 49.5506 73.2635 51.2413 72.1107 51.2413H71.496ZM64.9179 44.6324H63.9496C62.428 44.6017 62.72 42.9264 63.1504 41.8966L63.3348 41.4817H65.256L65.671 43.3875C65.9169 44.4941 65.7324 44.617 64.9179 44.6324ZM58.5088 48.275L59.308 45.5699L60.1072 48.275H58.5088ZM51.9614 44.7093C52.4379 44.7554 52.6531 45.0166 52.8068 45.5085L53.2064 46.7073C53.1602 46.8456 53.1141 46.9839 53.068 47.0915L52.2381 49.5199L51.1007 45.6622C50.8548 44.8937 51.0085 44.74 51.3313 44.7093H51.9614ZM44.8454 48.275L45.6446 45.5699L46.4438 48.275H44.8454ZM36.2385 51.3181H41.6024V48.859H41.5256C41.5102 49.9041 40.6188 51.2259 39.2048 51.2259H38.8359V48.0752H39.1741C39.835 48.0752 40.4651 48.5823 40.4805 49.2125H40.5573V46.7995H40.4805C40.4651 47.4604 39.8503 47.9676 39.1741 47.9676H38.8359V44.7246H39.2048C40.6034 44.7246 41.3258 46.0464 41.3412 47.0608H41.4334V44.7093H42.8474V44.6478C42.0174 44.617 41.7408 44.3865 41.7408 43.7717V38.4539C41.7408 37.8391 42.0174 37.6086 42.8474 37.5778V37.501H38.7591V37.5778C39.589 37.6086 39.8657 37.8391 39.8657 38.4539V43.7717C39.8657 44.3865 39.589 44.617 38.7745 44.6478H38.4363V41.6661H38.3441C38.3288 42.8649 37.3451 44.617 35.7006 44.617H35.6698V44.5248H35.6084C35.6084 44.5556 35.593 44.5863 35.593 44.617H35.4086V38.4539C35.4086 37.8391 35.6852 37.6086 36.5152 37.5778V37.501H32.4423V37.5778C33.2568 37.6086 33.5335 37.8391 33.5335 38.4539V43.7717C33.5335 44.3865 33.2568 44.6324 32.4423 44.6478V44.7093H32.8726C32.5269 44.8548 32.2333 45.1015 32.0303 45.4169C31.8273 45.7324 31.7245 46.1018 31.7353 46.4767C31.7353 47.568 32.3962 47.9829 33.6257 48.736C34.2097 49.1356 34.9167 49.566 34.9167 50.3345C34.9167 51.1029 34.5325 51.3335 33.8716 51.3335C32.596 51.3335 31.7967 49.9349 31.6584 48.6746H31.5816L31.7199 51.395H31.7967C31.7967 51.2413 31.8429 51.0415 32.0734 51.0415C32.3039 51.0415 32.9495 51.4411 33.7948 51.4411C35.2395 51.4411 36.1309 50.5035 36.1309 49.3047C36.1309 48.1059 35.4393 47.5526 34.0561 46.8302C33.5489 46.5228 32.7804 46.0925 32.7804 45.4162C32.7757 45.2654 32.8174 45.1167 32.8998 44.9903C32.9823 44.8639 33.1015 44.7658 33.2415 44.7093H34.3173C34.9782 44.9859 35.4393 45.739 35.6084 46.6151H35.6698V44.7093H36.3768C36.9916 44.7554 37.2068 44.9859 37.2068 45.5238V50.442C37.2068 51.0107 36.9609 51.2259 36.2385 51.2566V51.3181ZM35.5623 44.7093C35.5373 44.7465 35.5026 44.7762 35.462 44.7952C35.4213 44.8141 35.3763 44.8216 35.3317 44.8168C35.1836 44.8033 35.0384 44.7671 34.9014 44.7093H35.5623ZM26.8478 48.275L27.6777 45.5699L28.4923 48.275H26.8478ZM25.2955 50.1039C25.1326 50.3711 24.905 50.5929 24.6336 50.7487C24.3623 50.9045 24.056 50.9894 23.7432 50.9953C22.5444 50.9953 21.6376 49.8734 21.6376 47.5833C21.6376 46.1693 22.0218 44.617 23.2206 44.617C24.4194 44.617 24.9727 46.0157 25.2033 47.3221H25.2801V44.5402H25.2033C25.2033 44.74 25.1264 44.8629 24.942 44.8629C24.7575 44.8629 24.1889 44.5248 23.236 44.5248C21.3763 44.5248 19.8086 45.7544 19.8086 47.9676C19.8086 50.1808 21.3455 51.4718 23.0208 51.4718C24.0967 51.4718 24.8959 50.9492 25.3262 50.1808L25.2955 50.1039ZM63.3655 41.3895L64.5183 38.5307L65.2099 41.3895H63.3655Z" fill="white" style="fill:white;fill-opacity:1;"/>
<path d="M26.1873 70.6989H21.9453V70.5914C22.0811 70.5926 22.2154 70.5628 22.338 70.5042C22.4605 70.4456 22.568 70.3597 22.6523 70.2532C22.8517 70.0299 22.9565 69.7378 22.9443 69.4387V63.1372C22.9565 62.838 22.8517 62.5459 22.6523 62.3226C22.5658 62.2186 22.4579 62.1345 22.3358 62.0761C22.2138 62.0178 22.0806 61.9865 21.9453 61.9845V61.8923H28.9384V64.5358H28.8308C28.7169 64.0894 28.5129 63.671 28.2314 63.3063C27.9595 62.929 27.6145 62.6102 27.217 62.3687C26.8608 62.1202 26.4372 61.9861 26.0028 61.9845H24.9424V66.7029H26.0951C26.5582 66.7191 27.018 66.6187 27.4322 66.4109C27.8164 66.2111 28.0009 65.9805 28.0009 65.7039H28.0931V67.8095H28.0009C28.0009 67.5328 27.8164 67.3023 27.4322 67.1025C27.018 66.8947 26.5582 66.7943 26.0951 66.8105H24.9424V69.4387C24.9397 69.5933 24.9715 69.7465 25.0353 69.8874C25.0991 70.0282 25.1933 70.1532 25.3112 70.2532C25.547 70.4774 25.862 70.599 26.1873 70.5914V70.6989ZM33.4878 70.6989H29.4917V70.5914C29.6275 70.5926 29.7618 70.5628 29.8843 70.5042C30.0069 70.4456 30.1144 70.3597 30.1987 70.2532C30.3981 70.0299 30.5029 69.7378 30.4907 69.4387V63.1372C30.5029 62.838 30.3981 62.5459 30.1987 62.3226C30.1122 62.2186 30.0043 62.1345 29.8822 62.0761C29.7602 62.0178 29.627 61.9865 29.4917 61.9845V61.8923H33.4878V61.9845C33.3525 61.9865 33.2193 62.0178 33.0972 62.0761C32.9752 62.1345 32.8672 62.2186 32.7808 62.3226C32.5813 62.5459 32.4766 62.838 32.4887 63.1372V69.4387C32.4766 69.7378 32.5813 70.0299 32.7808 70.2532C32.8651 70.3597 32.9726 70.4456 33.0951 70.5042C33.2176 70.5628 33.3519 70.5926 33.4878 70.5914V70.6989ZM41.0341 70.6989H40.0812L34.8864 63.2909V68.4243C34.8703 68.9518 34.9699 69.4764 35.1784 69.9612C35.3782 70.3762 35.6087 70.5914 35.8854 70.5914V70.6989H33.7798V70.5914C34.0564 70.5914 34.3023 70.3916 34.4868 69.9612C34.6952 69.4764 34.7949 68.9518 34.7788 68.4243V64.2745C34.7776 63.9023 34.7363 63.5313 34.6558 63.1679C34.5856 62.866 34.4606 62.5795 34.287 62.3226C34.2383 62.2289 34.1658 62.1497 34.0768 62.093C33.9877 62.0364 33.8852 62.0042 33.7798 61.9999V61.8923H36.4694L40.9266 68.1937V64.1516C40.9335 63.6298 40.8342 63.1121 40.6345 62.63C40.4347 62.1997 40.2042 61.9845 39.9275 61.9845V61.8923H42.0332V61.9845C41.7565 61.9845 41.526 62.1997 41.3262 62.63C41.119 63.1098 41.0193 63.6291 41.0341 64.1516V70.6989ZM50.8552 70.6989H46.7055V70.5914C46.7909 70.5945 46.8755 70.573 46.9491 70.5294C47.0227 70.4858 47.0821 70.4219 47.1204 70.3455C47.2198 70.1452 47.2673 69.9233 47.2588 69.6999C47.2444 69.273 47.156 68.8517 46.9975 68.455L46.8899 68.1784H43.6162C43.5084 68.4391 43.416 68.706 43.3396 68.9776C43.2778 69.2134 43.2468 69.4562 43.2473 69.6999C43.2367 69.9235 43.2844 70.1459 43.3857 70.3455C43.4239 70.4219 43.4834 70.4858 43.557 70.5294C43.6306 70.573 43.7152 70.5945 43.8006 70.5914V70.6989H41.5874V70.5914C41.7152 70.5889 41.841 70.5604 41.9573 70.5075C42.0736 70.4546 42.1779 70.3786 42.2637 70.284C42.5165 70.0542 42.7294 69.7842 42.8938 69.4848C43.0984 69.1471 43.2733 68.7923 43.4164 68.4243L45.9524 61.8923H46.4442L48.9801 68.4243C49.1221 68.7955 49.3024 69.1509 49.5181 69.4848C49.6885 69.7844 49.9065 70.0543 50.1636 70.284C50.3449 70.4732 50.5933 70.5836 50.8552 70.5914V70.6989ZM46.8592 68.0708L45.2607 63.9518L43.6623 68.0708H46.8592ZM58.0635 70.6989H51.0704V70.5914C51.2058 70.5904 51.3394 70.5596 51.4616 70.5011C51.5838 70.4427 51.6916 70.3581 51.7774 70.2532C51.9702 70.0261 52.074 69.7366 52.0694 69.4387V63.1372C52.074 62.8392 51.9702 62.5498 51.7774 62.3226C51.6909 62.2186 51.5829 62.1345 51.4609 62.0761C51.3389 62.0178 51.2056 61.9865 51.0704 61.9845V61.8923H55.0511V61.9845C54.918 61.9867 54.7871 62.0181 54.6676 62.0765C54.5481 62.1349 54.4429 62.219 54.3594 62.3226C54.16 62.5459 54.0553 62.838 54.0674 63.1372V70.5914H55.1279C55.5594 70.5861 55.9805 70.4581 56.3421 70.2225C56.7337 69.9671 57.0772 69.6445 57.3565 69.2696C57.6257 68.903 57.8286 68.4921 57.9559 68.0554H58.0635V70.6989ZM62.5052 70.6989H58.5092V70.5914C58.6452 70.5938 58.7799 70.5644 58.9026 70.5058C59.0253 70.4471 59.1327 70.3606 59.2162 70.2532C59.4156 70.0299 59.5203 69.7378 59.5082 69.4387V63.1372C59.5203 62.838 59.4156 62.5459 59.2162 62.3226C59.1304 62.2178 59.0226 62.1331 58.9004 62.0747C58.7782 62.0163 58.6446 61.9855 58.5092 61.9845V61.8923H62.5052V61.9845C62.372 61.9856 62.2407 62.0165 62.121 62.075C62.0013 62.1335 61.8963 62.2181 61.8136 62.3226C61.6142 62.5459 61.5094 62.838 61.5216 63.1372V69.4387C61.5094 69.7378 61.6142 70.0299 61.8136 70.2532C61.8939 70.3603 61.9984 70.4468 62.1187 70.5056C62.2389 70.5644 62.3714 70.5938 62.5052 70.5914V70.6989ZM66.4705 70.7912C66.2074 70.7899 65.945 70.7642 65.6867 70.7143C65.2512 70.6033 64.8248 70.4594 64.411 70.284C64.1941 70.1742 63.9603 70.1015 63.7194 70.0688C63.631 70.0654 63.5442 70.0925 63.4735 70.1456C63.4227 70.2089 63.386 70.2822 63.3659 70.3608C63.3359 70.434 63.3202 70.5123 63.3198 70.5914H63.1968V68.0554H63.3198C63.4619 68.5124 63.7033 68.9323 64.0268 69.285C64.3579 69.6866 64.7588 70.025 65.2102 70.284C65.5839 70.5342 66.021 70.6728 66.4705 70.6836C67.0085 70.6836 67.4081 70.576 67.6847 70.3608C67.8207 70.2568 67.9295 70.1213 68.0018 69.9661C68.074 69.8109 68.1076 69.6404 68.0997 69.4694C68.0964 69.1681 67.9938 68.8764 67.8077 68.6394C67.5909 68.3886 67.343 68.1665 67.0699 67.9786C66.7626 67.7788 66.4552 67.579 66.117 67.3945L65.2717 66.9027C64.7409 66.6113 64.2413 66.2663 63.7809 65.8729C63.5676 65.6745 63.3975 65.4343 63.2811 65.1672C63.1648 64.9001 63.1047 64.6119 63.1046 64.3206C63.0975 63.8611 63.2316 63.4104 63.4889 63.0296C63.7584 62.6352 64.1304 62.3217 64.5647 62.1228C65.0902 61.8842 65.6631 61.7686 66.24 61.7847C66.4991 61.7822 66.7573 61.8132 67.0085 61.8769C67.3792 61.9664 67.736 62.106 68.069 62.2919C68.2381 62.4118 68.4328 62.4907 68.6376 62.5224C68.6806 62.5261 68.7238 62.5196 68.7638 62.5036C68.8039 62.4876 68.8396 62.4625 68.8682 62.4302C68.9269 62.3701 68.9692 62.2961 68.9911 62.215C69.0155 62.146 69.0259 62.0729 69.0219 61.9999H69.1602V64.5358H69.0219C68.9014 64.0852 68.7038 63.6588 68.4378 63.2755C68.1702 62.8924 67.8373 62.5595 67.4542 62.2919C67.1036 62.0303 66.6774 61.89 66.24 61.8923C65.9273 61.8796 65.6161 61.9428 65.3332 62.0767C65.1082 62.1967 64.9217 62.3778 64.7953 62.5993C64.6838 62.8182 64.6258 63.0605 64.6262 63.3063C64.6228 63.587 64.709 63.8616 64.8721 64.0901C65.0507 64.3316 65.2753 64.5353 65.533 64.6895C66.1321 65.0736 66.7531 65.4226 67.3927 65.7346C67.6847 65.8729 67.9614 66.0266 68.2534 66.1957C68.5201 66.3447 68.7677 66.5253 68.9911 66.7336C69.2282 66.9385 69.4163 67.194 69.5413 67.4813C69.6664 67.7686 69.7252 68.0804 69.7135 68.3935C69.7203 68.8272 69.603 69.2539 69.3754 69.6231C69.1254 70.0085 68.7594 70.3045 68.3302 70.4684C67.8538 70.6836 67.2236 70.7912 66.4552 70.7912H66.4705ZM76.0611 70.6989H72.065V70.5914C72.2008 70.5926 72.3351 70.5628 72.4577 70.5042C72.5802 70.4456 72.6877 70.3597 72.772 70.2532C72.9714 70.0299 73.0762 69.7378 73.064 69.4387V61.9845C72.6174 61.9853 72.1803 62.1132 71.8037 62.3533C71.4131 62.5974 71.0695 62.9098 70.7893 63.2755C70.4983 63.65 70.2841 64.0783 70.1592 64.5358H70.067V61.8923H78.0591V64.5358H77.9515C77.832 64.0792 77.623 63.6508 77.3367 63.2755C77.0552 62.9055 76.7057 62.5925 76.307 62.3533C75.9304 62.1132 75.4933 61.9853 75.0467 61.9845V69.4387C75.0403 69.7396 75.1505 70.0315 75.3541 70.2532C75.4368 70.3577 75.5418 70.4423 75.6615 70.5008C75.7812 70.5593 75.9125 70.5903 76.0457 70.5914V70.6989H76.0611Z" fill="white" style="fill:white;fill-opacity:1;"/>
</g>
<defs>
<linearGradient id="paint0_linear_1712_11108" x1="50" y1="0" x2="50" y2="100" gradientUnits="userSpaceOnUse">
<stop stop-color="#262626" style="stop-color:#262626;stop-color:color(display-p3 0.1498 0.1493 0.1493);stop-opacity:1;"/>
<stop offset="1" stop-color="#111111" style="stop-color:#111111;stop-color:color(display-p3 0.0676 0.0676 0.0676);stop-opacity:1;"/>
</linearGradient>
<clipPath id="clip0_1712_11108">
<rect width="60.3865" height="41.8048" fill="white" style="fill:white;fill-opacity:1;" transform="translate(19.8086 28.9863)"/>
</clipPath>
</defs>
</svg>
