<svg width="100" height="100" viewBox="0 0 100 100" fill="none" xmlns="http://www.w3.org/2000/svg">
<rect width="100" height="100" rx="50" fill="url(#paint0_linear_1712_11305)" style=""/>
<g clip-path="url(#clip0_1712_11305)">
<path fill-rule="evenodd" clip-rule="evenodd" d="M59.3135 71.5248C59.2984 71.5699 59.2834 71.5699 59.178 71.6603L58.4102 72.398C58.0488 72.7292 57.7477 72.955 57.4015 73.2712L55.2787 74.8821C54.1194 75.695 51.9214 77.0651 50.0094 77.0651C47.465 77.0801 44.3938 74.7466 42.6022 73.2862C41.9671 72.7657 41.3591 72.2129 40.7805 71.6301C40.7052 71.5699 40.7052 71.5699 40.6902 71.5097H38.447C38.5985 71.645 38.7348 71.7964 38.8534 71.9614L39.1395 72.2775C39.6213 72.8195 40.1331 73.3464 40.63 73.8433C41.1268 74.3401 41.473 74.596 41.9247 75.0025L42.4215 75.409C42.9334 75.8155 43.4453 76.237 43.9873 76.6134C45.6584 77.7576 47.7661 79.1577 49.9341 79.1879C51.8611 79.2029 53.7581 78.1039 55.2335 77.1253C55.7303 76.8091 56.182 76.4629 56.6487 76.1166L57.3412 75.5746C58.0267 75.0521 58.6802 74.489 59.2984 73.8884C59.7952 73.3916 60.6534 72.5636 61.09 72.0216C61.2214 71.8441 61.3675 71.6779 61.5266 71.5248H59.3135ZM33.1023 62.1755C32.8765 61.784 32.3797 61.1065 32.0936 60.685C31.1301 59.2397 30.0461 57.5535 29.2181 56.063L28.3148 54.4371C27.2158 52.4197 26.0264 49.8452 25.0779 47.6622C23.8283 44.8319 22.5788 41.3089 22.0067 38.2527C21.5399 35.6783 21.1335 31.8844 22.4131 29.5809C23.4821 27.6388 26.463 26.4043 28.4352 25.5913C29.5945 25.1246 30.9043 24.6729 32.1388 24.2965C37.6189 22.6104 43.7916 22.0533 50.0094 22.0533C56.2272 22.0533 62.4901 22.6104 67.8648 24.2965C70.078 24.9891 71.3125 25.501 73.3449 26.3591C74.4891 26.8559 76.3108 27.9249 77.0937 28.8733C77.2748 29.1085 77.4407 29.3549 77.5905 29.611C78.2228 30.68 78.4487 32.2909 78.4336 33.7663C78.3433 38.7044 76.7926 43.3715 74.8956 47.7225C73.7063 50.4173 72.2309 53.5488 70.7554 56.0932C69.4456 58.3364 68.4219 59.9172 66.9916 61.9948L66.8712 62.1755L68.7531 62.1454C69.7016 60.8506 71.8996 57.2223 72.6072 55.8673C72.9083 55.2952 73.1944 54.7834 73.4804 54.2113C74.3386 52.5251 75.1817 50.8238 75.9194 49.0925C77.5152 45.404 79.0659 41.7305 79.7434 37.7258C80.18 35.1062 80.6467 31.2219 79.3068 28.8131C78.6745 27.699 77.7561 26.9914 76.642 26.329C75.0311 25.3655 73.1191 24.5826 71.2974 23.9352C67.8197 22.7007 64.7032 21.978 60.8943 21.4361C57.0853 20.8941 53.6527 20.7736 49.8437 20.7736C46.1636 20.7465 42.4861 20.9779 38.8384 21.4662C36.0277 21.8228 33.2559 22.4377 30.558 23.3029C28.2245 24.0707 25.4844 25.0192 23.4218 26.2688C22.6361 26.7313 21.9169 27.2986 21.284 27.955C20.2 29.1142 19.8086 30.9961 19.8086 32.7425C19.8236 39.3367 22.1873 45.0426 24.8069 50.7486C26.1228 53.6085 27.6058 56.3884 29.2482 59.0741C29.5644 59.601 29.8956 60.1129 30.2268 60.6248C30.3774 60.8657 31.1903 62.0099 31.2355 62.1755H33.1023Z" fill="black" style="fill:black;fill-opacity:1;"/>
<path d="M30.1954 31.4779C30.1954 31.2069 30.3459 31.1466 30.9933 31.1466C32.3934 31.1316 33.1612 32.6371 33.1612 35.3621C33.1612 39.0657 32.1525 39.7733 31.0084 39.7733C30.3309 39.7733 30.1954 39.5926 30.1954 39.2463V31.4779ZM27.4102 30.6348V31.0563C28.1479 31.1015 28.2683 31.1768 28.2683 31.8843V39.0356C28.2683 39.7281 28.193 39.8184 27.4102 39.8486V40.2852H30.6771C32.3483 40.2852 35.284 40.0744 35.284 35.2718C35.284 33.6759 34.998 32.5468 34.3356 31.7489C33.6731 30.9509 32.7397 30.6348 31.2492 30.6348H27.4102Z" fill="black" style="fill:black;fill-opacity:1;"/>
<path d="M40.1939 36.7326C40.6154 36.7326 40.8112 36.6422 40.8112 36.1755C40.8112 35.0765 40.5101 33.3301 38.2969 33.3301C36.0838 33.3301 35.5117 34.956 35.5117 36.8831C35.5117 38.8102 36.1139 40.4813 38.2668 40.4663C39.6218 40.4663 40.3444 39.6382 40.7509 38.3585L40.4348 38.1477C40.0433 39.1113 39.5315 39.4274 38.854 39.4274C37.7549 39.4274 37.3786 38.2983 37.3786 36.7326H40.1939ZM37.3786 36.1906C37.3786 35.0464 37.5743 33.842 38.2518 33.842C38.9293 33.842 39.0196 34.8958 39.0196 35.769C39.0196 36.1303 38.9293 36.1906 38.6733 36.1906H37.3786Z" fill="black" style="fill:black;fill-opacity:1;"/>
<path d="M46.6989 35.4679C46.6989 34.1732 46.187 33.3301 44.9977 33.3301C44.3804 33.3301 43.8384 33.7366 43.0857 34.2635L42.9502 33.3451L40.6768 33.7516V34.1581L41.0532 34.2334C41.2038 34.2635 41.3092 34.3839 41.3092 34.941V39.2317C41.3092 39.7737 41.2339 39.8189 40.6016 39.864V40.2856H43.6578V39.864C43.3115 39.8189 43.0857 39.849 43.0857 39.2919V35.754C43.0744 35.474 43.11 35.1941 43.1911 34.9259C43.3266 34.5797 43.5976 34.2786 44.0643 34.2786C44.531 34.2786 44.9224 34.7152 44.9224 35.5131V39.307C44.9224 39.8791 44.6815 39.8189 44.3503 39.864V40.2856H47.3915V39.864C46.7742 39.8189 46.6989 39.8038 46.6989 39.2468V35.4679Z" fill="black" style="fill:black;fill-opacity:1;"/>
<path d="M50.3237 34.0972V33.495H49.2096V31.7637H48.5321L47.4933 33.495H46.8008V34.0972H47.4331V38.6439C47.4331 39.9236 48.1256 40.4656 48.773 40.4656C49.4204 40.4656 49.8118 40.2699 50.4893 39.6978L50.399 39.3515C50.2349 39.4335 50.0553 39.4797 49.872 39.487C49.4656 39.487 49.2096 39.1106 49.2096 38.2374V34.0972H50.3237Z" fill="black" style="fill:black;fill-opacity:1;"/>
<path d="M52.1489 30.4082C51.5467 30.4082 51.2155 30.9351 51.2155 31.5373C51.2155 32.1396 51.5467 32.6966 52.1489 32.6966C52.7511 32.6966 53.0974 32.1546 53.0974 31.5373C53.0974 30.9201 52.7511 30.4082 52.1489 30.4082ZM51.3058 39.2004C51.3058 39.7575 51.2155 39.8328 50.6133 39.8629V40.2844H53.7749V39.8629C53.1576 39.8177 53.0823 39.7575 53.0823 39.2004V33.3891L53.0071 33.3289L50.6735 33.7354V34.157L51.0499 34.2322C51.2155 34.2623 51.3058 34.3828 51.3058 34.9398V39.2004Z" fill="black" style="fill:black;fill-opacity:1;"/>
<path d="M57.6872 35.6636V33.8118C57.2205 33.4505 56.5882 33.3301 56.001 33.3301C54.6611 33.3301 53.818 34.1581 53.818 35.5582C53.818 36.582 54.2998 37.2294 55.3988 37.7714C56.0613 38.1026 56.543 38.479 56.543 39.0962C56.543 39.7135 56.2419 39.9544 55.7903 39.9544C55.0827 39.9544 54.4052 38.8553 54.1191 37.7262H53.7578L53.8933 39.8189C54.2847 40.2856 55.1429 40.4663 55.7602 40.4663C57.085 40.4663 58.0636 39.6984 58.0636 38.1477C58.0636 36.9885 57.5066 36.4315 56.4828 35.9346C55.7752 35.5884 55.2934 35.2873 55.2934 34.7001C55.2934 34.1129 55.5193 33.842 56.001 33.842C56.4828 33.842 57.1452 34.6248 57.356 35.6636H57.6872Z" fill="black" style="fill:black;fill-opacity:1;"/>
<path d="M61.5268 34.0972V33.495H60.4127V31.7637H59.7353L58.6964 33.495H58.0039V34.0972H58.6362V38.6439C58.6362 39.9236 59.3288 40.4656 59.9761 40.4656C60.6235 40.4656 61.015 40.2699 61.6924 39.6978L61.6021 39.3515C61.438 39.4335 61.2584 39.4797 61.0752 39.487C60.6687 39.487 60.4127 39.1106 60.4127 38.2374V34.0972H61.5268Z" fill="black" style="fill:black;fill-opacity:1;"/>
<path d="M64.2224 35.9497C64.2224 35.2722 64.2977 34.9259 64.5837 34.9259C64.8698 34.9259 64.9149 35.0765 65.1558 35.3023C65.3967 35.5281 65.4268 35.5733 65.6677 35.5733C66.2097 35.5733 66.5108 34.8958 66.5108 34.3388C66.5108 33.7817 66.1796 33.3301 65.6827 33.3301C65.1859 33.3301 64.8397 33.7516 64.1622 34.6549L64.0417 33.3451L61.8136 33.7516V34.1581L62.1749 34.2334C62.3555 34.2635 62.4308 34.399 62.4308 34.941V39.2016C62.4308 39.7737 62.3555 39.8189 61.7383 39.864V40.2856H65.1558V39.864C64.2977 39.8038 64.2224 39.7737 64.2224 39.2016V35.9497Z" fill="black" style="fill:black;fill-opacity:1;"/>
<path d="M70.7545 33.4961V33.9478L71.3266 34.023C71.4922 34.0381 71.5524 34.1435 71.4922 34.4446C71.2062 35.7544 70.8298 37.2599 70.4986 38.4794H70.4685C70.1222 37.3502 69.5652 35.7393 69.2189 34.4897C69.1436 34.2037 69.1737 34.0531 69.3393 34.023L69.7759 33.9478V33.4961H66.5391V33.9478C67.0208 34.023 67.1262 34.008 67.3219 34.5801C67.9091 36.191 68.7371 38.5697 69.3845 40.557C69.4748 40.843 69.6103 41.4001 69.535 41.6259C69.3845 42.1077 69.249 42.2582 69.0081 42.2582C68.8452 42.2256 68.6973 42.1411 68.5866 42.0173C68.3457 41.8066 68.2704 41.7313 68.0596 41.7313C67.8489 41.7313 67.3069 42.3486 67.3069 42.8905C67.3068 43.1275 67.3999 43.355 67.5661 43.524C67.7323 43.693 67.9582 43.7899 68.1951 43.7939C69.0232 43.7939 69.5049 43.2218 70.1222 41.2495C70.7395 39.2773 71.4772 36.7029 72.0643 34.8962C72.3203 34.1134 72.3353 34.008 72.9827 33.9478V33.4961H70.7545Z" fill="black" style="fill:black;fill-opacity:1;"/>
<path d="M29.1109 42.3032L29.5927 43.613H28.5689L29.1109 42.3032ZM31.0831 44.9078H30.9175C30.7971 44.9078 30.7369 44.8777 30.6767 44.697L29.6378 41.8516C29.6227 41.8181 29.6126 41.7826 29.6077 41.7462C29.6077 41.6257 29.7282 41.6107 29.7282 41.5505C29.7282 41.4902 29.6981 41.4902 29.6529 41.4902H29.5776L29.2163 41.5655L27.8463 44.7873C27.8011 44.8777 27.771 44.9078 27.6807 44.9078H27.5V45.1035H28.6291V44.9078H28.3431C28.1925 44.9078 28.1323 44.8927 28.1323 44.7873C28.146 44.6827 28.1765 44.5811 28.2227 44.4862L28.4786 43.8238H29.683L30.0142 44.7873C30.0177 44.8127 30.0228 44.8378 30.0293 44.8626C30.0293 44.9078 29.9992 44.9078 29.9239 44.9078H29.683V45.1035H31.0831V44.9078ZM30.9928 41.6107V41.7913H31.1283C31.309 41.7913 31.3541 41.8817 31.4445 42.0924L32.6639 45.0282C32.694 45.1035 32.7091 45.1336 32.7392 45.1336C32.7693 45.1336 32.7994 45.1035 32.8295 45.0132L33.7479 42.7549L34.6964 45.0433C34.7114 45.1035 34.7416 45.1336 34.7566 45.1336C34.7782 45.1339 34.7991 45.1265 34.8157 45.1127C34.8323 45.0989 34.8434 45.0796 34.8469 45.0583L36.1266 41.972C36.1718 41.8516 36.1718 41.7913 36.3224 41.7913H36.4729V41.6107H35.419V41.7913H35.6449C35.7954 41.7913 35.8556 41.8214 35.8556 41.9268C35.8436 42.03 35.8183 42.1312 35.7804 42.2279L35.0276 44.1098L34.9975 44.155C34.9824 44.155 34.9824 44.14 34.9824 44.1098L34.0791 41.9268C34.0584 41.8957 34.0479 41.8588 34.049 41.8214C34.049 41.8064 34.0791 41.7913 34.1243 41.7913H34.4405V41.6107H32.9952V41.7913H33.1457C33.2013 41.782 33.2585 41.7938 33.3058 41.8244C33.3532 41.8551 33.3874 41.9024 33.4016 41.9569L33.6275 42.4688L32.9952 44.0496V44.0948C32.9801 44.0948 32.9801 44.0797 32.965 44.0496L32.0467 41.9118C32.0358 41.8882 32.0307 41.8624 32.0316 41.8365C32.0316 41.8214 32.0617 41.7913 32.122 41.7913H32.3929V41.6107H30.9928ZM37.7978 42.3032L38.2795 43.613H37.2558L37.7978 42.3032ZM39.77 44.9078H39.6044C39.484 44.9078 39.4237 44.8777 39.3635 44.697L38.3247 41.8516C38.3096 41.8181 38.2994 41.7826 38.2946 41.7462C38.2946 41.6257 38.415 41.6107 38.415 41.5505C38.415 41.4902 38.3849 41.4902 38.3398 41.4902H38.2645L37.9032 41.5655L36.5331 44.7873C36.488 44.8777 36.4579 44.9078 36.3675 44.9078H36.1869V45.1035H37.316V44.9078H37.03C36.8794 44.9078 36.8192 44.8927 36.8192 44.7873C36.8329 44.6827 36.8634 44.5811 36.9095 44.4862L37.1654 43.8238H38.3699L38.7011 44.7873C38.7046 44.8127 38.7096 44.8378 38.7161 44.8626C38.7161 44.9078 38.686 44.9078 38.6107 44.9078H38.3699V45.1035H39.77V44.9078ZM40.2819 41.6107V41.7913H40.4475C40.7034 41.7913 40.7185 41.9419 40.7185 42.4989V44.7271C40.7185 44.8777 40.7185 44.9078 40.598 44.9078H40.3873V45.1035H41.8175V44.9078H41.5917C41.3357 44.9078 41.3207 44.7723 41.3207 44.2002V43.5227H41.7272C41.9908 44.006 42.2824 44.4735 42.6004 44.9228C42.7208 45.0884 42.7961 45.1035 42.9165 45.1035H43.6091V44.9078H43.5037C43.2929 44.9078 43.2176 44.7723 42.9768 44.4411C42.7359 44.1098 42.4498 43.7033 42.2692 43.4173C42.766 43.3119 43.052 42.9958 43.052 42.5893C43.052 42.1828 42.6004 41.6107 41.7422 41.6107H40.2819ZM41.3207 43.327V41.8967C41.3207 41.8214 41.3659 41.8064 41.4712 41.8064C42.0584 41.8064 42.4348 42.1527 42.4348 42.6495C42.4348 43.1463 42.1186 43.342 41.5766 43.342L41.3207 43.327ZM45.1899 41.8064H45.3705C46.2437 41.8064 46.8761 42.4688 46.8761 43.4625C46.8761 44.4561 46.3792 44.8927 45.4759 44.8927H45.3404C45.0694 44.8927 45.0694 44.7873 45.0694 44.2604V42.0172C45.0694 41.8516 45.0694 41.8064 45.1899 41.8064ZM44.1059 45.1035H45.4759C46.1233 45.1035 46.5599 45.0132 46.9814 44.6368C47.1602 44.4596 47.3016 44.2485 47.3972 44.0157C47.4929 43.783 47.5409 43.5334 47.5385 43.2818C47.5385 42.243 46.8158 41.6107 45.506 41.6107H44.0005V41.8064H44.1661C44.4221 41.8064 44.4371 41.9419 44.4371 42.514V44.7422C44.4371 44.8927 44.4371 44.9228 44.3167 44.9228H44.1059V45.1185V45.1035ZM50.414 41.6107C50.2003 41.5402 49.9766 41.5046 49.7516 41.5053C48.9386 41.5053 48.3966 41.972 48.3966 42.6043C48.4014 42.7261 48.4321 42.8455 48.4866 42.9545C48.5411 43.0636 48.6182 43.1597 48.7128 43.2366C48.8935 43.3872 49.1795 43.4926 49.5709 43.6582C49.9624 43.8238 50.143 44.0346 50.143 44.3507C50.143 44.6669 49.8118 44.983 49.3301 44.983C48.8483 44.983 48.6676 44.8626 48.502 44.5916C48.3364 44.3206 48.3966 44.426 48.3515 44.426C48.3063 44.426 48.2762 44.4561 48.2762 44.5163C48.2762 44.5766 48.2913 44.5314 48.2913 44.5464L48.3515 45.0282C48.6408 45.135 48.9464 45.191 49.2548 45.1938C50.128 45.1938 50.685 44.6669 50.685 44.0647C50.685 43.4625 50.3388 43.2667 49.6462 42.9807C48.9537 42.6947 48.9085 42.5893 48.9085 42.3032C48.9085 42.0172 49.2096 41.7161 49.6161 41.7161C50.0226 41.7161 50.1129 41.8064 50.2334 42.0021C50.3538 42.1978 50.3087 42.1376 50.3839 42.1376C50.4592 42.1376 50.4291 42.1075 50.4291 42.0473V41.6107H50.414ZM53.5606 44.6067C54.5091 43.8238 55.051 43.2969 55.051 42.5742C55.051 41.8516 54.6446 41.5053 53.9821 41.5053C53.5939 41.5037 53.2206 41.6551 52.9433 41.9268L53.0336 42.0473C53.2304 41.9165 53.4599 41.8435 53.6961 41.8365C54.1628 41.8365 54.4639 42.1527 54.4639 42.6796C54.4639 43.2065 54.0875 43.7786 53.5004 44.426C53.1541 44.7873 52.9283 44.9379 52.9283 45.0433C52.9283 45.1487 52.9734 45.1035 53.0487 45.1035H55.2016L55.4274 44.5314L55.4575 44.4561C55.4579 44.4385 55.4521 44.4213 55.4411 44.4076C55.4301 44.3938 55.4146 44.3844 55.3973 44.3808C55.3371 44.3808 55.2769 44.5314 55.0209 44.5615C54.5355 44.6055 54.0478 44.6206 53.5606 44.6067ZM56.3608 43.5227C56.3608 44.5916 56.8125 45.1938 57.505 45.1938C58.1976 45.1938 58.86 44.4411 58.86 43.1764C58.86 41.9118 58.3632 41.5053 57.7008 41.5053C57.5179 41.511 57.3391 41.5604 57.1793 41.6495C57.0195 41.7386 56.8834 41.8646 56.7824 42.0172C56.4892 42.4632 56.3419 42.9893 56.3608 43.5227ZM57.5201 41.7311C57.9416 41.7311 58.318 42.4387 58.318 43.6582C58.318 44.5013 58.032 44.968 57.6857 44.968C57.3394 44.968 56.9028 44.2754 56.9028 43.0409C56.9028 42.1978 57.1738 41.7311 57.5201 41.7311ZM60.2903 44.6067C61.2387 43.8238 61.7807 43.2969 61.7807 42.5742C61.7807 41.8516 61.3742 41.5053 60.7118 41.5053C60.5194 41.5037 60.3286 41.5401 60.1503 41.6124C59.9721 41.6848 59.8098 41.7916 59.673 41.9268L59.7633 42.0473C59.9594 41.915 60.1893 41.8419 60.4258 41.8365C60.8925 41.8365 61.1936 42.1527 61.1936 42.6796C61.1936 43.2065 60.8172 43.7786 60.23 44.426C59.8838 44.7873 59.6579 44.9379 59.6579 45.0433C59.6579 45.1487 59.688 45.1035 59.7784 45.1035H61.9313L62.1571 44.5314L62.1872 44.4561C62.1872 44.4361 62.1793 44.417 62.1652 44.4029C62.1511 44.3888 62.1319 44.3808 62.1119 44.3808C62.0517 44.3808 62.0066 44.5314 61.7506 44.5615C61.2652 44.6055 60.7775 44.6206 60.2903 44.6067ZM63.0905 43.5227C63.0905 44.5916 63.5422 45.1938 64.2347 45.1938C64.9273 45.1938 65.5897 44.4411 65.5897 43.1764C65.5897 41.9118 65.0778 41.5053 64.4304 41.5053C64.2476 41.511 64.0688 41.5604 63.909 41.6495C63.7492 41.7386 63.6131 41.8646 63.5121 42.0172C63.226 42.4086 63.0905 42.9054 63.0905 43.5227ZM64.2498 41.7311C64.6713 41.7311 65.0326 42.4387 65.0326 43.6582C65.0326 44.5013 64.7617 44.968 64.4154 44.968C64.0691 44.968 63.6325 44.2754 63.6325 43.0409C63.6325 42.1978 63.9035 41.7311 64.2498 41.7311Z" fill="black" style="fill:black;fill-opacity:1;"/>
<path d="M35.4502 28.8887L35.2695 29.3855V29.4608C35.2695 29.5059 35.2846 29.536 35.3298 29.536C35.3749 29.536 35.4502 29.3855 35.6007 29.2952C35.7513 29.2048 36.1728 29.0994 36.6697 29.0994V32.2761C36.6697 32.4417 36.6697 32.4718 36.5492 32.4718H36.0976V32.6675H37.9795V32.4718H37.6483C37.3622 32.4718 37.3622 32.3213 37.3622 31.704V29.0994C37.859 29.0994 38.2053 29.1597 38.4311 29.2952C38.657 29.4307 38.6118 29.536 38.7021 29.536C38.7221 29.536 38.7412 29.5281 38.7553 29.514C38.7695 29.4999 38.7774 29.4807 38.7774 29.4608C38.7714 29.4342 38.7613 29.4088 38.7473 29.3855L38.5967 28.8887H35.4502ZM38.8828 28.8887V29.0693H39.0634C39.3344 29.0693 39.3495 29.2349 39.3495 29.8522V32.2761C39.3495 32.4417 39.3495 32.4718 39.214 32.4718H39.0032V32.6675H40.5539V32.4718H40.313C40.042 32.4718 40.027 32.3213 40.027 31.704V30.7254H41.7282V32.2761C41.7282 32.4417 41.7282 32.4718 41.5927 32.4718H41.3669V32.6675H42.9025V32.4718H42.6918C42.4208 32.4718 42.4057 32.3213 42.4057 31.704V29.25C42.4057 29.1145 42.4208 29.0693 42.5412 29.0693H42.767V28.8887H41.2314V29.0693H41.4422C41.7132 29.0693 41.7282 29.25 41.7282 29.8522V30.4845H40.027V29.2199C40.027 29.1145 40.042 29.0693 40.1625 29.0693H40.3883V28.8887H38.8828ZM43.2488 28.8887V29.0693H43.4295C43.7005 29.0693 43.7306 29.2349 43.7306 29.8522V32.3213C43.7306 32.4417 43.7155 32.4869 43.5951 32.4869H43.3692V32.6675H46.1996L46.3502 32.1557C46.361 32.1321 46.3662 32.1063 46.3652 32.0804C46.3652 32.0644 46.3589 32.0491 46.3476 32.0378C46.3363 32.0265 46.321 32.0202 46.305 32.0202C46.1846 32.0202 46.1093 32.2309 45.8985 32.3213C45.6168 32.4136 45.3218 32.4594 45.0253 32.4568H44.6941C44.4231 32.4568 44.408 32.3213 44.408 31.6889V30.6802H45.0705C45.5071 30.6802 45.6426 30.6953 45.6426 30.876V31.0717H45.8232V30.0329H45.6426V30.1985C45.6426 30.4394 45.477 30.4695 44.9199 30.4695H44.408V29.2349C44.408 29.1296 44.408 29.0994 44.5435 29.0994H44.9199C45.4167 29.0994 45.7329 29.1597 45.8533 29.25C45.9738 29.3403 45.9738 29.4758 46.0491 29.4758C46.1243 29.4758 46.1093 29.4457 46.1243 29.3855L46.1996 28.8887H43.2488Z" fill="black" style="fill:black;fill-opacity:1;"/>
<path d="M32.3341 57.4183L30.7383 50.7188H32.1535L33.1622 55.3256L34.3967 50.7188H36.0227L37.197 55.4009L38.2358 50.7188H39.6058L37.9798 57.4183H36.5195L35.1796 52.4049L33.8397 57.4183H32.3341ZM40.2833 57.4183V50.7188H41.6533V57.4183H40.2833ZM42.9481 57.4183V50.7188H44.2729L47.0581 55.2052V50.7188H48.3228V57.4183H46.9528L44.2127 53.0222V57.4183H42.9481ZM49.7681 57.4183V50.7188H51.108L53.8782 55.2052V50.7188H55.1578V57.4183H53.7878L51.0478 53.0222V57.4183H49.7681ZM56.6031 57.4183V50.7188H61.6015V51.8479H57.9732V53.3384H61.3455V54.4675H57.9732V56.2892H61.737V57.4183H56.6031ZM62.8962 57.4183V50.7188H65.7718C66.4944 50.7188 67.0214 50.779 67.3526 50.8994C67.6813 51.0169 67.9583 51.246 68.1354 51.5468C68.3381 51.8604 68.443 52.2273 68.4365 52.6007C68.4517 53.0597 68.29 53.507 67.9849 53.8502C67.6988 54.1664 67.2472 54.3772 66.66 54.4675C66.9299 54.6122 67.1741 54.8004 67.3827 55.0245C67.6711 55.3652 67.9328 55.7276 68.1656 56.1085L68.9785 57.4183H67.3526L66.374 55.958C66.1568 55.6149 65.9153 55.2879 65.6513 54.9794C65.5349 54.8595 65.397 54.7625 65.2448 54.6933C65.0186 54.6362 64.7855 54.6109 64.5523 54.6181H64.2662V57.4183H62.8962ZM64.2662 53.5491H65.2749C65.9374 53.5491 66.3439 53.5341 66.5095 53.4739C66.6635 53.4234 66.796 53.3227 66.8859 53.1878C66.9911 53.0441 67.0442 52.8689 67.0364 52.691C67.0433 52.4873 66.9734 52.2885 66.8407 52.1339C66.7076 51.9883 66.5252 51.8971 66.3288 51.878C66.2234 51.8629 65.8922 51.8479 65.3352 51.8479H64.2662V53.5491Z" fill="black" style="fill:black;fill-opacity:1;"/>
<path fill-rule="evenodd" clip-rule="evenodd" d="M26.1172 62.1152H73.8874V71.6904H26.1172V62.1152Z" fill="black" style="fill:black;fill-opacity:1;"/>
<path fill-rule="evenodd" clip-rule="evenodd" d="M26.1311 66.2109C26.1311 66.2109 23.2255 66.9938 21.6899 67.8068L24.0686 71.2093L21.1328 77.8035C21.1328 77.8035 26.3269 73.8138 36.3837 74.2655L26.1161 71.691L26.1311 66.2109Z" fill="black" style="fill:black;fill-opacity:1;"/>
<path fill-rule="evenodd" clip-rule="evenodd" d="M26.1172 71.6895L36.3848 74.2639V71.6895H26.1172Z" fill="black" style="fill:black;fill-opacity:1;"/>
<path d="M32.2121 66.3909C32.362 66.32 32.4876 66.2065 32.5733 66.0646C32.659 65.9227 32.701 65.7586 32.6939 65.593C32.6939 65.0059 32.2423 64.6596 31.4594 64.6596H30.1797V68.2879H31.5347C32.3777 68.2879 32.8445 67.8965 32.8445 67.2491C32.8445 66.8275 32.6186 66.5415 32.2121 66.3909ZM31.4744 65.2317C31.8207 65.2317 32.0164 65.3973 32.0164 65.6683C32.0164 65.9393 31.8057 66.1501 31.4594 66.1501H30.8572V65.2317H31.4744ZM31.5347 67.7158H30.8572V66.692H31.5347C31.9261 66.692 32.167 66.8727 32.167 67.2039C32.167 67.5351 31.9411 67.7158 31.5347 67.7158ZM34.1844 65.9092C33.4316 65.9092 33.0552 66.421 33.0552 67.0985C33.0552 67.776 33.5822 68.3632 34.2446 68.3632C34.5821 68.364 34.9123 68.2645 35.1931 68.0771L34.9974 67.6255C34.7996 67.7541 34.5707 67.8269 34.3349 67.8362C34.1823 67.845 34.0321 67.7955 33.9147 67.6977C33.7973 67.5998 33.7215 67.461 33.7026 67.3093H35.2232C35.2684 66.5114 35.0275 65.9092 34.1844 65.9092ZM34.1693 66.4512C34.4704 66.4512 34.5758 66.6619 34.6059 66.9028H33.7026C33.7478 66.6318 33.8983 66.4512 34.1693 66.4512ZM35.6146 67.7309L35.4791 68.1976C35.7591 68.3004 36.0541 68.3564 36.3523 68.3632C36.9395 68.3632 37.3761 68.0922 37.3761 67.5652C37.3761 66.7071 36.1416 67.0233 36.1416 66.6318C36.1416 66.4813 36.277 66.406 36.533 66.406C36.7484 66.4161 36.9613 66.4567 37.1653 66.5264L37.2857 66.0597C37.0276 65.9556 36.7511 65.9044 36.4728 65.9092C35.9759 65.9092 35.4942 66.1501 35.4942 66.6619C35.4942 67.5502 36.7287 67.219 36.7287 67.6255C36.7287 67.776 36.5631 67.8663 36.3072 67.8663C36.0711 67.8536 35.8381 67.808 35.6146 67.7309ZM39.1225 67.6857C38.9991 67.741 38.8662 67.7717 38.731 67.776C38.5052 67.776 38.3848 67.6556 38.3848 67.3996V66.4813H39.0322V65.9844H38.3848V65.2769H37.7525V65.9844H37.3911V66.4813H37.7525V67.4599C37.7525 68.0922 38.0686 68.3481 38.5956 68.3481C38.8233 68.3486 39.0487 68.3025 39.258 68.2126L39.1225 67.6857ZM43.6993 64.6596H42.9766L42.0583 66.3909L41.1399 64.6596H40.4323L41.727 67.0082V68.2879H42.4045V67.0082L43.6993 64.6596ZM44.3015 68.3481C44.994 68.3481 45.4457 67.8814 45.4457 67.1437C45.4457 66.406 44.994 65.9092 44.3015 65.9092C43.6089 65.9092 43.1573 66.3909 43.1573 67.1437C43.1573 67.8965 43.6089 68.3481 44.3015 68.3481ZM44.3015 67.7911C43.9703 67.7911 43.7444 67.5351 43.7444 67.1437C43.7444 66.7523 43.9703 66.4662 44.3015 66.4662C44.6327 66.4662 44.8585 66.7372 44.8585 67.1437C44.8585 67.5502 44.6327 67.7911 44.3015 67.7911ZM47.2222 65.9844V67.5954C47.1732 67.656 47.1112 67.7051 47.041 67.7389C46.9707 67.7728 46.8937 67.7906 46.8157 67.7911C46.4995 67.7911 46.4092 67.5954 46.4092 67.3394V65.9844H45.7769V67.3996C45.7769 68.0621 46.1533 68.3632 46.62 68.3632C46.7549 68.3624 46.8879 68.3323 47.0101 68.2752C47.1323 68.218 47.2406 68.135 47.3276 68.032V68.2879H47.8545V65.9844H47.2222ZM49.6461 65.9092C49.508 65.9126 49.3722 65.9453 49.2477 66.0049C49.1231 66.0646 49.0126 66.15 48.9234 66.2554V65.9844H48.3814V68.2879H49.0138V66.7222C49.06 66.6481 49.1243 66.5871 49.2007 66.545C49.2772 66.5028 49.3631 66.4809 49.4504 66.4813C49.7665 66.4813 49.8569 66.677 49.8569 66.9329V68.2879H50.4892V66.8727C50.4892 66.2103 50.1128 65.9092 49.6461 65.9092ZM53.2744 65.9694L52.4915 66.0296C52.3174 65.9476 52.1269 65.9064 51.9345 65.9092C51.3172 65.9092 50.8957 66.2554 50.8957 66.8125C50.8886 66.9434 50.9121 67.0741 50.9643 67.1944C51.0166 67.3146 51.0962 67.4209 51.1968 67.505C51.1069 67.5549 51.0308 67.6265 50.9756 67.7133C50.9204 67.8001 50.8877 67.8993 50.8806 68.0018C50.8759 68.067 50.8842 68.1325 50.9048 68.1945C50.9255 68.2565 50.9582 68.3138 51.001 68.3632C50.9063 68.4214 50.8286 68.5035 50.7757 68.6013C50.7229 68.6991 50.6967 68.8091 50.6999 68.9202C50.6999 69.3267 51.0613 69.7482 51.8743 69.7482C52.6872 69.7482 53.1991 69.3418 53.1991 68.7546C53.1991 67.6405 51.4828 68.3933 51.4828 67.8814C51.4861 67.8436 51.4988 67.8072 51.5199 67.7756C51.541 67.7441 51.5696 67.7183 51.6033 67.7007C51.7117 67.7264 51.8232 67.7366 51.9345 67.7309C52.5216 67.7309 52.9432 67.3846 52.9432 66.8125C52.9442 66.7104 52.9289 66.6087 52.898 66.5114H53.2744V65.9694ZM51.9194 67.2641C51.859 67.2686 51.7982 67.26 51.7414 67.2389C51.6846 67.2178 51.6329 67.1847 51.5901 67.1418C51.5472 67.099 51.5141 67.0473 51.493 66.9905C51.4719 66.9337 51.4633 66.8729 51.4678 66.8125C51.4652 66.7538 51.4754 66.6953 51.4976 66.641C51.5199 66.5866 51.5536 66.5378 51.5965 66.4977C51.6394 66.4576 51.6905 66.4274 51.7463 66.4089C51.802 66.3905 51.8611 66.3844 51.9194 66.3909C51.9778 66.3844 52.0368 66.3905 52.0926 66.4089C52.1483 66.4274 52.1994 66.4576 52.2423 66.4977C52.2852 66.5378 52.319 66.5866 52.3412 66.641C52.3634 66.6953 52.3736 66.7538 52.3711 66.8125C52.3756 66.8729 52.367 66.9337 52.3459 66.9905C52.3248 67.0473 52.2916 67.099 52.2488 67.1418C52.2059 67.1847 52.1543 67.2178 52.0974 67.2389C52.0406 67.26 51.9799 67.2686 51.9194 67.2641ZM52.5517 68.8449C52.5517 69.0407 52.3259 69.2213 51.9345 69.2213C51.543 69.2213 51.3172 69.1009 51.3172 68.8299C51.316 68.7786 51.3261 68.7277 51.347 68.6808C51.3678 68.634 51.3988 68.5923 51.4377 68.5589C51.9194 68.6342 52.5517 68.4987 52.5517 68.8449ZM55.6832 64.6596H54.7498V68.2879H55.6832C56.978 68.2879 57.6404 67.6556 57.6404 66.406C57.6404 65.1564 56.978 64.6596 55.6832 64.6596ZM55.6832 67.7158H55.4273V65.2317H55.6832C56.5263 65.2317 56.9629 65.6382 56.9629 66.406C56.9629 67.1738 56.5263 67.7158 55.6832 67.7158ZM59.0857 65.9092C58.3329 65.9092 57.9566 66.421 57.9566 67.0985C57.9566 67.776 58.4835 68.3632 59.1459 68.3632C59.4835 68.364 59.8136 68.2645 60.0944 68.0771L59.8987 67.6255C59.7009 67.7541 59.472 67.8269 59.2363 67.8362C59.0837 67.845 58.9334 67.7955 58.816 67.6977C58.6986 67.5998 58.6228 67.461 58.6039 67.3093H60.1245C60.1697 66.5114 59.9288 65.9092 59.0857 65.9092ZM59.0706 66.4512C59.3717 66.4512 59.4771 66.6619 59.5072 66.9028H58.6039C58.6491 66.6318 58.7997 66.4512 59.0706 66.4512ZM61.7806 65.9092C61.64 65.9105 61.5013 65.9421 61.374 66.0019C61.2467 66.0616 61.1337 66.1481 61.0429 66.2554V65.9844H60.5009V68.2879H61.1332V66.7222C61.1818 66.6469 61.2488 66.5853 61.3278 66.5432C61.4069 66.501 61.4953 66.4797 61.5849 66.4813C61.901 66.4813 61.9914 66.677 61.9914 66.9329V68.2879H62.6237V66.8727C62.6237 66.2103 62.2473 65.9092 61.7806 65.9092ZM64.626 67.6857C64.5027 67.741 64.3697 67.7717 64.2346 67.776C64.1846 67.7811 64.134 67.7747 64.0868 67.7574C64.0397 67.74 63.997 67.7121 63.9622 67.6759C63.9274 67.6396 63.9013 67.5959 63.8859 67.548C63.8705 67.5002 63.8661 67.4494 63.8733 67.3996V66.4813H64.5357V65.9844H63.8733V65.2769H63.256V65.9844H62.8947V66.4813H63.256V67.4599C63.256 68.0922 63.5722 68.3481 64.0991 68.3481C64.3268 68.3486 64.5522 68.3025 64.7615 68.2126L64.626 67.6857ZM65.3336 65.4123C65.385 65.4147 65.4362 65.406 65.4839 65.387C65.5317 65.3679 65.5748 65.3389 65.6104 65.3018C65.646 65.2648 65.6733 65.2206 65.6905 65.1721C65.7077 65.1237 65.7143 65.0721 65.71 65.0209C65.71 64.9211 65.6703 64.8254 65.5998 64.7548C65.5292 64.6842 65.4334 64.6445 65.3336 64.6445C65.2338 64.6445 65.1381 64.6842 65.0675 64.7548C64.9969 64.8254 64.9572 64.9211 64.9572 65.0209C64.9529 65.0721 64.9595 65.1237 64.9767 65.1721C64.9939 65.2206 65.0212 65.2648 65.0568 65.3018C65.0924 65.3389 65.1356 65.3679 65.1833 65.387C65.231 65.406 65.2823 65.4147 65.3336 65.4123ZM65.6498 65.9844H65.0175V68.2879H65.6498V65.9844ZM66.1918 67.7309L66.0412 68.1976C66.3263 68.3007 66.6263 68.3567 66.9295 68.3632C67.5016 68.3632 67.9382 68.0922 67.9382 67.5652C67.9382 66.7071 66.7187 67.0233 66.7187 66.6318C66.7187 66.4813 66.8391 66.406 67.1101 66.406C67.3252 66.4189 67.5377 66.4594 67.7425 66.5264L67.8478 66.0597C67.5948 65.956 67.3233 65.9048 67.0499 65.9092C66.538 65.9092 66.0563 66.1501 66.0563 66.6619C66.0563 67.5502 67.2908 67.219 67.2908 67.6255C67.2908 67.776 67.1252 67.8663 66.8843 67.8663C66.648 67.8563 66.4145 67.8106 66.1918 67.7309ZM69.6846 67.6857C69.5664 67.7406 69.4384 67.7713 69.3082 67.776C69.2582 67.7811 69.2076 67.7747 69.1605 67.7574C69.1133 67.74 69.0706 67.7121 69.0358 67.6759C69.001 67.6396 68.9749 67.5959 68.9595 67.548C68.9441 67.5002 68.9398 67.4494 68.9469 67.3996V66.4813H69.5942V65.9844H68.9469V65.2769H68.3146V65.9844H67.9683V66.4813H68.3146V67.4599C68.3146 68.0922 68.6307 68.3481 69.1576 68.3481C69.3855 68.3499 69.6112 68.3037 69.8201 68.2126L69.6846 67.6857Z" fill="black" style="fill:black;fill-opacity:1;"/>
</g>
<defs>
<linearGradient id="paint0_linear_1712_11305" x1="50" y1="0" x2="50" y2="100" gradientUnits="userSpaceOnUse">
<stop stop-color="white" style="stop-color:white;stop-opacity:1;"/>
<stop offset="1" stop-color="#D8D8D8" style="stop-color:#D8D8D8;stop-color:color(display-p3 0.8475 0.8475 0.8475);stop-opacity:1;"/>
</linearGradient>
<clipPath id="clip0_1712_11305">
<rect width="60.3865" height="58.4142" fill="white" style="fill:white;fill-opacity:1;" transform="translate(19.8086 20.7734)"/>
</clipPath>
</defs>
</svg>
