<svg width="60" height="60" viewBox="0 0 60 60" fill="none" xmlns="http://www.w3.org/2000/svg">
<rect width="60" height="60" rx="30" fill="white"/>
<path d="M35.752 12H36.9824L37.2485 12.0831C40.5409 12.5986 42.9021 14.3279 44.1492 17.4374C44.3986 18.0693 44.4818 18.751 44.648 19.4162V20.6467C44.5815 21.1122 44.5316 21.5612 44.4485 22.0268C43.9829 24.5875 43.0351 26.9654 41.8711 29.26C41.761 29.5146 41.5768 29.73 41.3425 29.8783C41.1082 30.0266 40.8346 30.1009 40.5575 30.0915H38.3293C37.7806 30.0748 37.5146 29.8587 37.4647 29.3099C37.3815 28.4453 37.2818 27.564 37.2485 26.6827C37.0988 23.939 35.2531 21.927 32.4928 21.7275C30.9797 21.6111 29.4499 21.661 27.9201 21.6443C27.6457 21.6598 27.3731 21.6987 27.1053 21.7607C24.4614 22.2596 23.1644 24.4878 22.7487 26.5497C22.5492 27.4975 22.4328 28.4619 22.2499 29.4097C22.1335 29.9418 21.9173 30.0748 21.4185 30.0915H19.4397C19.1354 30.1075 18.8342 30.0235 18.582 29.8524C18.3298 29.6813 18.1405 29.4324 18.043 29.1436L17.594 28.0794C16.9122 26.4499 16.1806 24.8203 15.5654 23.1575C15.2661 22.376 15.1829 21.5446 15 20.7298V19.333C15.0333 19.1169 15.0831 18.9007 15.1164 18.7012C15.7649 15.7081 17.5774 13.7127 20.3709 12.5986C21.0859 12.2993 21.8841 12.1995 22.649 12H23.8961C24.3066 12.0742 24.712 12.1742 25.1099 12.2993C25.9912 12.6818 26.8559 13.0808 27.7039 13.5298C29.1007 14.2614 30.4642 14.3113 31.861 13.563C32.2767 13.3303 32.6758 13.1141 33.1081 12.9145C33.5404 12.715 34.3053 12.4157 34.9206 12.1829C35.1935 12.1044 35.4712 12.0433 35.752 12Z" fill="#161616"/>
<path d="M23.8961 47.9999C23.1145 47.7006 22.6656 47.102 22.333 46.4036C21.618 44.957 21.2688 43.4105 21.0194 41.8309C20.5871 39.1704 20.188 36.5099 19.8055 33.8327C19.7224 33.3006 19.7058 32.7519 19.6559 32.1533H20.321C21.2688 32.1366 22.2333 32.1533 23.1977 32.1034C24.1621 32.0535 24.4781 31.5713 24.4947 30.6734C24.5113 29.7754 24.4781 28.6115 24.5612 27.5972C24.7275 25.4189 26.4734 23.8724 28.6351 23.8724C29.7492 23.8724 30.8965 23.8226 31.994 23.9556C32.847 24.0625 33.6392 24.4538 34.2426 25.0662C34.8459 25.6787 35.2254 26.4765 35.3196 27.3311C35.4526 28.3953 35.4028 29.4928 35.4194 30.5736C35.436 31.6544 35.8517 32.0535 36.8162 32.1034C37.7806 32.1533 38.8614 32.1366 39.8924 32.1366H40.2249C40.0753 33.1676 39.909 34.1653 39.776 35.163C39.4933 37.1085 39.2439 39.054 38.9612 40.9828C38.6785 42.9117 38.3626 44.4415 37.6476 46.0544C37.5689 46.242 37.4801 46.4252 37.3815 46.6032C37.0323 47.2184 36.6 47.7339 35.9182 47.9833H35.3363C34.987 47.8206 34.6796 47.5802 34.4375 47.2804C34.1955 46.9807 34.0251 46.6296 33.9395 46.254C33.721 45.3393 33.5599 44.4118 33.4573 43.4771C33.3409 42.3297 33.3908 41.1824 33.2744 40.035C33.158 38.8877 32.7921 37.6073 31.9774 36.6263C30.8633 35.2461 28.9843 35.2295 27.8702 36.6096C27.5872 36.9439 27.3573 37.3196 27.1884 37.7237C26.4901 39.2535 26.3903 40.8831 26.357 42.5459C26.3623 43.4084 26.3012 44.2701 26.1741 45.1233C25.9746 46.2706 25.6753 47.4013 24.4614 47.9833L23.8961 47.9999Z" fill="#161616"/>
</svg>
