<svg width="38" height="38" viewBox="0 0 38 38" fill="none" xmlns="http://www.w3.org/2000/svg">
<rect width="38" height="38" rx="19" transform="matrix(-1 0 0 1 38 0)" fill="#2D2D2D"/>
<path d="M21.964 10H22.5792L22.7122 10.0416C24.3584 10.2993 25.539 11.164 26.1626 12.7187C26.2873 13.0346 26.3289 13.3755 26.412 13.7081V14.3233C26.3787 14.5561 26.3538 14.7806 26.3122 15.0134C26.0794 16.2938 25.6055 17.4827 25.0235 18.63C24.9685 18.7573 24.8764 18.865 24.7592 18.9392C24.6421 19.0133 24.5053 19.0504 24.3667 19.0457H23.2526C22.9783 19.0374 22.8453 18.9293 22.8203 18.655C22.7787 18.2226 22.7289 17.782 22.7122 17.3413C22.6374 15.9695 21.7145 14.9635 20.3344 14.8637C19.5778 14.8055 18.8129 14.8305 18.048 14.8222C17.9108 14.8299 17.7745 14.8494 17.6406 14.8804C16.3187 15.1298 15.6702 16.2439 15.4623 17.2748C15.3626 17.7487 15.3044 18.2309 15.2129 18.7048C15.1547 18.9709 15.0466 19.0374 14.7972 19.0457H13.8078C13.6557 19.0537 13.5051 19.0118 13.379 18.9262C13.2529 18.8406 13.1582 18.7162 13.1095 18.5718L12.885 18.0397C12.5441 17.2249 12.1783 16.4102 11.8707 15.5788C11.721 15.188 11.6794 14.7723 11.588 14.3649V13.6665C11.6046 13.5584 11.6296 13.4503 11.6462 13.3506C11.9704 11.854 12.8767 10.8564 14.2734 10.2993C14.6309 10.1497 15.03 10.0998 15.4125 10H16.036C16.2413 10.0371 16.444 10.0871 16.6429 10.1497C17.0836 10.3409 17.5159 10.5404 17.9399 10.7649C18.6383 11.1307 19.3201 11.1557 20.0185 10.7815C20.2263 10.6651 20.4259 10.557 20.642 10.4573C20.8582 10.3575 21.2406 10.2079 21.5483 10.0915C21.6847 10.0522 21.8236 10.0216 21.964 10Z" fill="#B9B9B9"/>
<path d="M16.036 28C15.6452 27.8503 15.4207 27.551 15.2544 27.2018C14.8969 26.4785 14.7223 25.7053 14.5976 24.9154C14.3815 23.5852 14.1819 22.2549 13.9907 20.9164C13.9491 20.6503 13.9408 20.3759 13.9159 20.0766H14.2484C14.7223 20.0683 15.2045 20.0766 15.6868 20.0517C16.169 20.0268 16.3269 19.7856 16.3353 19.3367C16.3436 18.8877 16.3269 18.3057 16.3685 17.7986C16.4517 16.7094 17.3246 15.9362 18.4055 15.9362C18.9625 15.9362 19.5362 15.9113 20.0849 15.9778C20.5114 16.0313 20.9075 16.2269 21.2092 16.5331C21.5109 16.8393 21.7006 17.2383 21.7477 17.6656C21.8142 18.1977 21.7893 18.7464 21.7976 19.2868C21.8059 19.8272 22.0138 20.0268 22.496 20.0517C22.9782 20.0766 23.5186 20.0683 24.0341 20.0683H24.2004C24.1256 20.5838 24.0424 21.0826 23.9759 21.5815C23.8346 22.5542 23.7099 23.527 23.5685 24.4914C23.4272 25.4559 23.2692 26.2207 22.9117 27.0272C22.8724 27.121 22.828 27.2126 22.7787 27.3016C22.6041 27.6092 22.3879 27.8669 22.047 27.9916H21.756C21.5814 27.9103 21.4277 27.7901 21.3067 27.6402C21.1857 27.4904 21.1005 27.3148 21.0577 27.127C20.9484 26.6696 20.8679 26.2059 20.8166 25.7385C20.7584 25.1649 20.7833 24.5912 20.7251 24.0175C20.6669 23.4438 20.484 22.8037 20.0766 22.3131C19.5196 21.6231 18.5801 21.6147 18.023 22.3048C17.8815 22.4719 17.7666 22.6598 17.6821 22.8619C17.333 23.6268 17.2831 24.4415 17.2664 25.2729C17.2691 25.7042 17.2385 26.1351 17.175 26.5616C17.0752 27.1353 16.9256 27.7007 16.3186 27.9916L16.036 28Z" fill="#B9B9B9"/>
</svg>
