<svg width="38" height="38" viewBox="0 0 38 38" fill="none" xmlns="http://www.w3.org/2000/svg">
<rect width="38" height="38" rx="19" transform="matrix(-1 0 0 1 38 0)" fill="white"/>
<g clip-path="url(#clip0_116_4517)">
<g clip-path="url(#clip1_116_4517)">
<path d="M12.7649 17.1955C12.5768 16.2456 12.9248 15.4699 13.7806 14.892C14.1014 14.6614 14.4478 14.4573 14.815 14.2825C15.0784 14.1401 15.3699 14.0293 15.6426 13.9105L15.8683 13.8234C15.7194 13.3507 15.7259 12.8527 15.8871 12.3828H15.8401L15.116 12.6915C13.8652 13.2773 13.0094 13.8234 12.3135 14.4646C11.768 14.9791 11.4671 15.4541 11.3636 15.9686C11.2602 16.4831 11.3072 16.9105 11.4765 17.5438C11.7492 18.5411 12.2947 19.3089 13.1411 19.9026C13.2735 19.9938 13.4188 20.0708 13.5737 20.1322H13.6019C13.6382 20.0968 13.6625 20.054 13.6725 20.008C13.6824 19.9621 13.6775 19.9148 13.6583 19.8709C13.2341 19.0125 12.9342 18.1142 12.7649 17.1955Z" fill="#161616"/>
<path d="M21.1818 17.4565L20.8621 17.4724L20.3448 17.5436C20.062 17.5927 19.7763 17.6297 19.489 17.6544C19.3726 17.661 19.2612 17.6969 19.1693 17.7573L19.1975 17.7811L19.6583 18.1056C19.8182 18.2164 19.8934 18.3352 19.8746 18.4618C19.8558 18.5885 19.6489 18.7468 19.5831 18.7784L18.1724 19.4513C18.0788 19.507 17.9673 19.5373 17.8526 19.5383C17.5799 19.5383 17.4765 19.3167 17.4389 19.2296L17.2602 18.8655C17.0345 18.3985 16.8182 17.9315 16.6019 17.4645C15.3887 17.5832 14.5611 18.3827 14.5705 19.4038C14.5852 19.9269 14.6962 20.4449 14.8997 20.9394C15.2288 21.7151 15.5768 22.4988 15.9153 23.2587C16.0282 23.4961 16.1316 23.7415 16.2445 23.9869L16.3856 24.3035C16.6865 24.9684 17.0063 25.6571 17.0251 26.417C17.026 26.4882 17.0439 26.5586 17.0779 26.6239C17.1118 26.6891 17.161 26.748 17.2226 26.7969C17.2418 26.8152 17.2688 26.8266 17.2978 26.8286C17.2978 26.8127 17.3072 26.7969 17.3072 26.7811L17.3354 26.227C17.3448 25.9579 17.3542 25.6729 17.3918 25.3879C17.4185 24.9391 17.5803 24.5033 17.8621 24.1215C17.9831 23.9588 18.1507 23.8243 18.3495 23.7303C18.5483 23.6362 18.772 23.5857 19 23.5832C19.2276 23.5864 19.4506 23.6382 19.648 23.7337C19.8454 23.8292 20.0107 23.9654 20.1285 24.1294C20.2946 24.3726 20.4211 24.6335 20.5047 24.9051C20.6928 25.5225 20.6928 26.1558 20.6834 26.7098V26.8602C20.7186 26.8436 20.7504 26.8222 20.7774 26.7969C20.9089 26.6725 20.9824 26.5122 20.9843 26.3457C20.9921 26.2932 20.9953 26.2403 20.9937 26.1874C20.994 26.0645 21.013 25.9421 21.0501 25.8233C21.1912 25.38 21.3605 24.8813 21.558 24.4064L22.2163 22.9579C22.4702 22.4117 22.7241 21.8339 22.9686 21.2718C23.279 20.5436 23.4294 19.9262 23.42 19.3404C23.4176 18.8414 23.181 18.3635 22.7617 18.0106C22.3425 17.6578 21.7747 17.4586 21.1818 17.4565Z" fill="#161616"/>
<path d="M18.6896 15.1293C18.7897 15.1372 18.8905 15.1372 18.9906 15.1293H19C19.6065 15.0982 20.1761 14.8738 20.5929 14.5017C21.0098 14.1296 21.2425 13.6378 21.2437 13.1264C21.2449 12.615 21.0145 12.1224 20.5994 11.7489C20.1843 11.3754 19.6157 11.1491 19.0094 11.1161H19C18.3677 11.0814 17.745 11.2596 17.2688 11.6114C16.7926 11.9632 16.502 12.4599 16.4608 12.9921C16.4196 13.5242 16.6313 14.0484 17.0493 14.4492C17.4673 14.85 18.0574 15.0946 18.6896 15.1293ZM18.9906 11.6227C19.462 11.6206 19.9151 11.7762 20.2502 12.0552C20.5853 12.3343 20.7749 12.714 20.7774 13.1108C20.7799 13.5076 20.595 13.8889 20.2635 14.171C19.9319 14.453 19.4808 14.6126 19.0094 14.6147H18.9906C18.5217 14.6147 18.072 14.458 17.7404 14.1789C17.4088 13.8998 17.2226 13.5213 17.2226 13.1266C17.2225 12.7305 17.4082 12.3503 17.7392 12.0687C18.0703 11.7871 18.5199 11.6268 18.9906 11.6227Z" fill="#161616"/>
<path d="M19 13.9026C19.2428 13.8973 19.4745 13.8154 19.6489 13.6731C19.7799 13.565 19.8696 13.4266 19.9066 13.2753C19.9436 13.1241 19.9261 12.9671 19.8564 12.8243C19.7867 12.6815 19.668 12.5594 19.5155 12.4737C19.3629 12.388 19.1834 12.3426 19 12.3433H18.9906C18.7459 12.3672 18.5221 12.471 18.3673 12.6323C18.2125 12.7937 18.1392 12.9997 18.163 13.2061C18.1841 13.3861 18.2793 13.5543 18.4322 13.6815C18.585 13.8087 18.7859 13.8869 19 13.9026Z" fill="#161616"/>
<path d="M24.0125 15.7153C23.6672 15.3886 23.2567 15.1154 22.7994 14.9079L22 14.5675L21.8025 14.4805C21.1254 15.3828 20.1849 15.8419 19 15.8419C17.815 15.8419 16.8652 15.3828 16.1881 14.4805L15.9436 14.5834C15.6426 14.7179 15.3323 14.8446 15.0407 14.9871C14.616 15.1877 14.2396 15.4535 13.931 15.7707C13.6852 16.0217 13.558 16.3402 13.5737 16.6652C13.6081 17.1743 13.709 17.6786 13.8746 18.1691L13.9498 18.3749C14.173 17.9003 14.5584 17.4921 15.0572 17.2018C15.5561 16.9116 16.146 16.7523 16.7523 16.7443H16.7805C17.0815 16.7443 17.2037 16.8156 17.326 17.0609L18.0878 18.6678L18.7084 18.367L18.2758 18.0583C18.2235 18.0238 18.1799 17.9808 18.1476 17.9318C18.1153 17.8829 18.0949 17.829 18.0878 17.7733C18.0891 17.7171 18.1049 17.6618 18.1341 17.6112C18.1633 17.5607 18.2053 17.516 18.257 17.4805L18.3511 17.4092L18.4639 17.3222C18.5853 17.2011 18.7364 17.1037 18.907 17.0368C19.0775 16.9698 19.2632 16.9348 19.4514 16.9343C19.717 16.9182 19.981 16.8864 20.2414 16.8393L20.7586 16.7602L21.1818 16.7364C21.7999 16.7362 22.4039 16.8923 22.9153 17.1844C23.4267 17.4766 23.8221 17.8914 24.0501 18.3749C24.2473 17.8344 24.3703 17.2767 24.4169 16.7127C24.4344 16.532 24.4075 16.3502 24.3379 16.1786C24.2683 16.007 24.1576 15.8493 24.0125 15.7153Z" fill="#161616"/>
<path d="M26.9185 13.9658C26.6248 13.6632 26.3007 13.3825 25.9498 13.1267C24.8495 12.3035 23.5141 11.6307 21.7273 11.0054H21.7179C21.652 10.942 21.5768 10.8866 21.5016 10.8233C20.7767 10.2688 19.8214 9.97691 18.8427 10.011C17.864 10.0451 16.9407 10.4023 16.2727 11.0054C15.43 11.2941 14.6156 11.6381 13.837 12.0344C12.652 12.636 11.7868 13.2375 11.1097 13.9341C10.4326 14.6307 10.0564 15.3748 10.0094 16.1346C9.93765 17.2357 10.2307 18.3318 10.8558 19.3009C11.3542 20.0529 11.9655 20.6149 12.7273 21.0185L12.7649 21.0344C13.0227 21.1765 13.3221 21.2559 13.6301 21.2639H13.6677C13.6677 21.2798 13.7523 21.5093 13.7523 21.5093C13.8652 21.8339 13.978 22.1426 14.1755 22.6017C14.373 23.0608 14.674 23.7019 14.9185 24.2164L15.3981 25.2534C15.5748 25.6185 15.6735 26.0071 15.6896 26.4011C15.697 26.7845 15.8558 27.1549 16.1411 27.4539H16.1599C16.3576 27.6451 16.6012 27.7988 16.8746 27.9051C17.0318 27.9628 17.2015 27.9924 17.373 27.9922H17.3918C17.6897 27.9869 17.9756 27.8923 18.198 27.7255C18.4204 27.5586 18.5647 27.3304 18.605 27.0819C18.6285 26.9403 18.6379 26.7973 18.6332 26.6544V26.6307C18.6332 26.1953 18.6426 25.6887 18.7555 25.2296C18.8213 24.9684 18.8777 24.818 18.9906 24.7151V24.6993L19.0094 24.7151C19.0561 24.7687 19.094 24.8272 19.1222 24.8893C19.216 25.1718 19.2821 25.4604 19.3197 25.7521C19.3385 25.9183 19.348 26.1003 19.348 26.2903C19.3556 26.3561 19.3587 26.4221 19.3574 26.4882V26.8919C19.395 27.4697 19.7523 27.7389 20.0533 27.8655C20.2313 27.9496 20.4322 27.9933 20.6364 27.9922H20.6552C20.9534 27.9862 21.2423 27.9033 21.4827 27.7547C21.6535 27.6428 21.8026 27.5093 21.9248 27.3589C22.1686 27.0787 22.3003 26.7405 22.3009 26.3932C22.3103 25.9816 22.4608 25.57 22.6113 25.2217C22.7617 24.8734 23.0345 24.2639 23.2884 23.7415C23.6969 22.9293 24.0548 22.0997 24.3605 21.256H24.3887C24.6484 21.2529 24.9021 21.19 25.1222 21.074C25.577 20.8635 25.9845 20.5876 26.326 20.2587C27.2664 19.3563 27.8119 18.2639 27.9718 16.9262C28.0438 16.3984 27.9876 15.8638 27.8065 15.3549C27.6255 14.846 27.3233 14.3734 26.9185 13.9658ZM27.5016 16.8866C27.3511 18.1531 26.8432 19.1742 25.9686 20.0054C25.6637 20.3035 25.2973 20.5529 24.8871 20.7415C24.7351 20.8226 24.5593 20.8665 24.3793 20.8682C24.2573 20.8662 24.1378 20.839 24.0313 20.789C23.7304 21.7626 23.2884 22.6967 22.8558 23.599C22.6207 24.0819 22.3856 24.5885 22.1693 25.0951C22.0094 25.4671 21.8401 25.9183 21.8307 26.3932C21.8307 26.6611 21.7285 26.9219 21.5392 27.1373C21.4432 27.255 21.3258 27.3592 21.1912 27.446C21.0352 27.5481 20.8434 27.6038 20.6458 27.6043C20.5143 27.6064 20.3844 27.5791 20.2696 27.5251C19.9874 27.4064 19.8464 27.1848 19.8276 26.8761V26.4882C19.8182 26.227 19.8182 25.9658 19.79 25.7125C19.7406 25.4003 19.6683 25.091 19.5737 24.7864C19.5294 24.6706 19.4592 24.5632 19.3668 24.4697C19.3266 24.4188 19.2721 24.377 19.2081 24.348C19.1441 24.319 19.0726 24.3037 19 24.3035C18.926 24.3038 18.8533 24.319 18.7878 24.348C18.7223 24.3769 18.6661 24.4187 18.6238 24.4697C18.4451 24.6518 18.3605 24.8734 18.2947 25.1584C18.1724 25.6571 18.163 26.1874 18.163 26.6386V26.6703C18.1724 26.7922 18.1629 26.9146 18.1348 27.0344C18.1121 27.1898 18.0235 27.333 17.8852 27.4378C17.747 27.5425 17.5684 27.6017 17.3824 27.6043C17.2723 27.6058 17.1632 27.5868 17.0627 27.5489C16.8496 27.4685 16.6601 27.3496 16.5078 27.2006C16.2837 26.9738 16.1606 26.6882 16.1599 26.3932C16.1402 25.9503 16.0288 25.5137 15.8307 25.103L15.3511 24.074C15.1066 23.5515 14.8527 23.0054 14.6175 22.4671C14.3824 21.9288 14.279 21.6122 14.1285 21.1927C14.0815 21.0581 14.0251 20.9236 13.978 20.789C13.8699 20.8428 13.7462 20.8702 13.6207 20.8682C13.3668 20.8682 13.1505 20.7653 12.9812 20.6861C12.2947 20.322 11.7304 19.8075 11.2696 19.1109C10.6863 18.2074 10.4128 17.1852 10.4796 16.1584C10.5172 15.4856 10.837 14.8444 11.4765 14.1874C12.116 13.5304 12.9342 12.9526 14.0815 12.3589C14.8497 11.9736 15.6514 11.6376 16.4796 11.3536C16.5272 11.3395 16.5694 11.3149 16.6019 11.2824C17.1835 10.7505 17.9913 10.4338 18.8492 10.4012C19.7071 10.3685 20.5456 10.6227 21.1818 11.1083L21.3981 11.2903C21.4424 11.3239 21.4933 11.3507 21.5486 11.3695C23.2602 11.9711 24.5674 12.6201 25.6395 13.4196C25.9695 13.6643 26.2746 13.9317 26.5517 14.2191C26.9176 14.5858 27.1906 15.0116 27.3539 15.4703C27.5173 15.929 27.5675 16.411 27.5016 16.8866Z" fill="#161616"/>
<path d="M22.3856 12.4697L22.1129 12.3589C22.2821 12.8328 22.2919 13.337 22.1411 13.8154L22.2727 13.8787C22.4984 13.9657 22.7053 14.0449 22.9122 14.1399C23.5047 14.4011 24.2571 14.789 24.8025 15.4064C25.1599 15.818 25.3198 16.2375 25.2633 16.665V16.7995C25.2193 17.234 25.1376 17.6653 25.0188 18.0898C24.8871 18.533 24.7085 18.9763 24.5298 19.3958C24.464 19.5621 24.3887 19.7283 24.3229 19.9024C24.3167 19.9912 24.3503 20.0788 24.4169 20.1478H24.4263L24.511 20.1003L24.6803 19.9895C24.9135 19.8484 25.1307 19.6894 25.3292 19.5146C26.0251 18.8734 26.4671 18.0581 26.6176 17.1003C26.6928 16.6175 26.721 16.2138 26.6082 15.818C26.4389 15.2797 26.0909 14.789 25.489 14.2745C24.7085 13.6095 23.7492 13.0555 22.3856 12.4697Z" fill="#161616"/>
</g>
</g>
<defs>
<clipPath id="clip0_116_4517">
<rect width="18" height="18" fill="white" transform="matrix(-1 0 0 1 28 10)"/>
</clipPath>
<clipPath id="clip1_116_4517">
<rect width="18" height="18" fill="white" transform="translate(10 10)"/>
</clipPath>
</defs>
</svg>
