<svg width="21" height="20" viewBox="0 0 21 20" fill="none" xmlns="http://www.w3.org/2000/svg">
<path d="M18.8096 15.2743C18.8096 15.5743 18.743 15.8827 18.6013 16.1827C18.4596 16.4827 18.2763 16.766 18.0346 17.0327C17.6263 17.4827 17.1763 17.8077 16.668 18.016C16.168 18.2243 15.6263 18.3327 15.043 18.3327C14.193 18.3327 13.2846 18.1327 12.3263 17.7243C11.368 17.316 10.4096 16.766 9.45964 16.0743C8.5013 15.3743 7.59297 14.5993 6.7263 13.741C5.86797 12.8743 5.09297 11.966 4.4013 11.016C3.71797 10.066 3.16797 9.11601 2.76797 8.17435C2.36797 7.22435 2.16797 6.31601 2.16797 5.44935C2.16797 4.88268 2.26797 4.34102 2.46797 3.84102C2.66797 3.33268 2.98464 2.86602 3.4263 2.44935C3.95964 1.92435 4.54297 1.66602 5.15964 1.66602C5.39297 1.66602 5.6263 1.71602 5.83464 1.81602C6.0513 1.91602 6.24297 2.06602 6.39297 2.28268L8.3263 5.00768C8.4763 5.21602 8.58464 5.40768 8.65964 5.59102C8.73464 5.76601 8.7763 5.94102 8.7763 6.09935C8.7763 6.29935 8.71797 6.49935 8.6013 6.69101C8.49297 6.88268 8.33464 7.08268 8.13464 7.28268L7.5013 7.94101C7.40964 8.03268 7.36797 8.14101 7.36797 8.27435C7.36797 8.34101 7.3763 8.39935 7.39297 8.46601C7.41797 8.53268 7.44297 8.58268 7.45964 8.63268C7.60964 8.90768 7.86797 9.26601 8.23464 9.69935C8.60964 10.1327 9.00964 10.5743 9.44297 11.016C9.89297 11.4577 10.3263 11.866 10.768 12.241C11.2013 12.6077 11.5596 12.8577 11.843 13.0077C11.8846 13.0243 11.9346 13.0493 11.993 13.0743C12.0596 13.0993 12.1263 13.1077 12.2013 13.1077C12.343 13.1077 12.4513 13.0577 12.543 12.966L13.1763 12.341C13.3846 12.1327 13.5846 11.9743 13.7763 11.8743C13.968 11.7577 14.1596 11.6993 14.368 11.6993C14.5263 11.6993 14.693 11.7327 14.8763 11.8077C15.0596 11.8827 15.2513 11.991 15.4596 12.1327L18.218 14.091C18.4346 14.241 18.5846 14.416 18.6763 14.6243C18.7596 14.8327 18.8096 15.041 18.8096 15.2743Z" stroke="white" stroke-width="1.2" stroke-miterlimit="10"/>
<path d="M15.9167 7.4987C15.9167 6.9987 15.525 6.23203 14.9417 5.60703C14.4083 5.03203 13.7 4.58203 13 4.58203" stroke="white" stroke-width="1.2" stroke-linecap="round" stroke-linejoin="round"/>
<path d="M18.8333 7.49935C18.8333 4.27435 16.225 1.66602 13 1.66602" stroke="white" stroke-width="1.2" stroke-linecap="round" stroke-linejoin="round"/>
</svg>
