<svg width="445" height="250" viewBox="0 0 445 250" fill="none" xmlns="http://www.w3.org/2000/svg">
<circle cx="320" cy="125" r="124.5" fill="#100E10" stroke="#605E60"/>
<circle cx="255" cy="125" r="124.5" fill="#100E10" stroke="#605E60"/>
<circle cx="190" cy="125" r="124.5" fill="#100E10" stroke="#605E60"/>
<circle cx="125" cy="125" r="124.5" fill="#100E10" stroke="#605E60"/>
<path d="M82.818 99.144C82.818 103.464 76.41 103.248 76.41 105.426H82.818V108H73.62V105.426C73.62 101.322 80.1 101.538 80.1 99.054C80.1 98.262 79.488 97.596 78.408 97.596C77.22 97.596 76.338 98.226 76.338 99.18H73.62C73.62 96.876 75.762 95.04 78.444 95.04C80.91 95.04 82.818 96.624 82.818 99.144ZM90.0908 95.04C92.6468 95.04 95.1668 96.606 95.1668 99.792V103.428C95.1668 106.596 92.6468 108.18 90.0908 108.18C87.5348 108.18 85.0148 106.596 85.0148 103.428V99.792C85.0148 96.606 87.5348 95.04 90.0908 95.04ZM90.0908 105.606C91.3328 105.606 92.4308 104.832 92.4308 103.428V99.792C92.4308 98.388 91.3328 97.596 90.0908 97.596C88.8308 97.596 87.7328 98.388 87.7328 99.792V103.428C87.7328 104.832 88.8308 105.606 90.0908 105.606ZM102.281 95.04C104.837 95.04 107.357 96.606 107.357 99.792V103.428C107.357 106.596 104.837 108.18 102.281 108.18C99.7249 108.18 97.2049 106.596 97.2049 103.428V99.792C97.2049 96.606 99.7249 95.04 102.281 95.04ZM102.281 105.606C103.523 105.606 104.621 104.832 104.621 103.428V99.792C104.621 98.388 103.523 97.596 102.281 97.596C101.021 97.596 99.9229 98.388 99.9229 99.792V103.428C99.9229 104.832 101.021 105.606 102.281 105.606ZM118.375 101.628V104.202H115.765V106.812H113.191V104.202H110.617V101.628H113.191V99.054H115.765V101.628H118.375ZM83.754 123C83.448 122.622 82.278 121.596 80.37 121.596C78.192 121.596 76.338 123.18 76.338 125.61C76.338 128.04 78.192 129.606 80.37 129.606C82.278 129.606 83.448 128.598 83.754 128.22V130.938C83.322 131.316 82.08 132.18 80.028 132.18C76.464 132.18 73.62 129.354 73.62 125.61C73.62 121.866 76.464 119.04 80.028 119.04C82.08 119.04 83.322 119.904 83.754 120.282V123ZM91.7996 132.18C88.1456 132.18 85.2476 129.246 85.2476 125.61C85.2476 121.956 88.1456 119.04 91.7996 119.04C95.4356 119.04 98.3336 121.956 98.3336 125.61C98.3336 129.246 95.4356 132.18 91.7996 132.18ZM91.7996 129.606C94.0496 129.606 95.6156 127.788 95.6156 125.61C95.6156 123.414 94.0496 121.596 91.7996 121.596C89.5316 121.596 87.9656 123.414 87.9656 125.61C87.9656 127.788 89.5316 129.606 91.7996 129.606ZM111.673 119.22H114.391V132H111.673V124.08L108.055 129.804H107.029L103.411 124.08V132H100.693V119.22H103.411L107.533 125.646L111.673 119.22ZM121.407 119.22C123.891 119.22 126.159 120.876 126.159 123.702C126.159 126.51 123.891 128.166 121.407 128.166H119.211V132H116.475V119.22H121.407ZM121.407 125.61C122.577 125.61 123.441 124.926 123.441 123.702C123.441 122.478 122.577 121.776 121.407 121.776H119.211V125.61H121.407ZM130.794 129.426H136.014V132H128.076V119.22H130.794V129.426ZM144.984 121.776H140.304V124.26H144.012V126.834H140.304V129.426H144.984V132H137.568V119.22H144.984V121.776ZM155.233 119.22V121.776H152.281V132H149.563V121.776H146.629V119.22H155.233ZM164.161 121.776H159.481V124.26H163.189V126.834H159.481V129.426H164.161V132H156.745V119.22H164.161V121.776ZM170.537 119.22C174.173 119.22 176.747 122.028 176.747 125.61C176.747 129.192 174.173 132 170.537 132H165.929V119.22H170.537ZM170.537 129.426C172.427 129.426 174.029 128.202 174.029 125.61C174.029 123.018 172.427 121.776 170.537 121.776H168.665V129.426H170.537ZM73.674 151.896H76.392C76.41 153.066 77.202 153.606 78.156 153.606C79.11 153.606 79.578 153.138 79.578 152.598C79.578 151.824 78.786 151.464 77.4 150.654C74.574 148.98 73.944 147.972 73.944 146.406C73.944 144.408 75.636 143.04 77.832 143.04C80.316 143.04 81.9 144.894 81.918 147.252H79.2C79.182 146.172 78.624 145.596 77.832 145.596C77.184 145.596 76.662 145.956 76.662 146.532C76.662 147.234 77.166 147.54 78.408 148.242C80.964 149.682 82.314 150.78 82.314 152.706C82.314 154.956 80.37 156.18 78.156 156.18C75.186 156.18 73.692 153.984 73.674 151.896ZM95.229 143.22H97.947V156H95.229V148.08L91.611 153.804H90.585L86.967 148.08V156H84.249V143.22H86.967L91.089 149.646L95.229 143.22ZM100.193 156V143.22H102.911V156H100.193ZM107.74 153.426H112.96V156H105.022V143.22H107.74V153.426ZM121.931 145.776H117.251V148.26H120.959V150.834H117.251V153.426H121.931V156H114.515V143.22H121.931V145.776Z" fill="white"/>
</svg>
