<svg width="40" height="40" viewBox="0 0 40 40" fill="none" xmlns="http://www.w3.org/2000/svg">
<path d="M31.7513 8.18408C30.2233 6.64063 28.4033 5.41686 26.3974 4.58417C24.3915 3.75147 22.2398 3.32652 20.068 3.33408C10.968 3.33408 3.5513 10.7507 3.5513 19.8507C3.5513 22.7674 4.31797 25.6007 5.7513 28.1007L3.41797 36.6674L12.168 34.3674C14.5846 35.6841 17.3013 36.3841 20.068 36.3841C29.168 36.3841 36.5846 28.9674 36.5846 19.8674C36.5846 15.4507 34.868 11.3007 31.7513 8.18408ZM20.068 33.5841C17.6013 33.5841 15.1846 32.9174 13.068 31.6674L12.568 31.3674L7.36797 32.7341L8.7513 27.6674L8.41797 27.1508C7.04755 24.9624 6.31987 22.4328 6.31797 19.8507C6.31797 12.2841 12.4846 6.11742 20.0513 6.11742C23.718 6.11742 27.168 7.55075 29.7513 10.1508C31.0304 11.424 32.0441 12.9385 32.7336 14.6065C33.4231 16.2744 33.7747 18.0626 33.768 19.8674C33.8013 27.4341 27.6346 33.5841 20.068 33.5841ZM27.6013 23.3174C27.1846 23.1174 25.1513 22.1174 24.7846 21.9674C24.4013 21.8341 24.1346 21.7674 23.8513 22.1674C23.568 22.5841 22.7846 23.5174 22.5513 23.7841C22.318 24.0674 22.068 24.1007 21.6513 23.8841C21.2346 23.6841 19.9013 23.2341 18.3346 21.8341C17.1013 20.7341 16.2846 19.3841 16.0346 18.9674C15.8013 18.5507 16.0013 18.3341 16.218 18.1174C16.4013 17.9341 16.6346 17.6341 16.8346 17.4007C17.0346 17.1674 17.118 16.9841 17.2513 16.7174C17.3846 16.4341 17.318 16.2008 17.218 16.0008C17.118 15.8008 16.2846 13.7674 15.9513 12.9341C15.618 12.1341 15.268 12.2341 15.018 12.2174H14.218C13.9346 12.2174 13.5013 12.3174 13.118 12.7341C12.7513 13.1508 11.6846 14.1508 11.6846 16.1841C11.6846 18.2174 13.168 20.1841 13.368 20.4508C13.568 20.7341 16.2846 24.9007 20.418 26.6841C21.4013 27.1174 22.168 27.3674 22.768 27.5508C23.7513 27.8674 24.6513 27.8174 25.368 27.7174C26.168 27.6007 27.818 26.7174 28.1513 25.7507C28.5013 24.7841 28.5013 23.9674 28.3846 23.7841C28.268 23.6007 28.018 23.5174 27.6013 23.3174Z" fill="white"/>
</svg>
