<svg width="28" height="28" viewBox="0 0 28 28" fill="none" xmlns="http://www.w3.org/2000/svg">
<path fill-rule="evenodd" clip-rule="evenodd" d="M25.6673 14C25.6673 20.4434 20.444 25.6667 14.0007 25.6667C7.55733 25.6667 2.33398 20.4434 2.33398 14C2.33398 7.55672 7.55733 2.33337 14.0007 2.33337C20.444 2.33337 25.6673 7.55672 25.6673 14ZM18.7027 10.4647C19.0444 10.8064 19.0444 11.3604 18.7027 11.7021L12.8694 17.5354C12.5277 17.8771 11.9736 17.8771 11.6319 17.5354L9.2986 15.2021C8.95689 14.8604 8.95689 14.3064 9.2986 13.9647C9.64031 13.6229 10.1943 13.6229 10.536 13.9647L12.2507 15.6793L14.858 13.072L17.4653 10.4647C17.807 10.1229 18.361 10.1229 18.7027 10.4647Z" fill="white"/>
</svg>
