<svg width="38" height="38" viewBox="0 0 38 38" fill="none" xmlns="http://www.w3.org/2000/svg">
<rect width="38" height="38" rx="19" transform="matrix(-1 0 0 1 38 0)" fill="white"/>
<g clip-path="url(#clip0_116_4459)">
<path d="M24.8858 14.2354L24.8556 14.2633C24.8249 14.288 24.7892 14.307 24.7505 14.319C24.7118 14.331 24.6709 14.3359 24.6302 14.3333C24.5895 14.3307 24.5497 14.3207 24.5132 14.3039C24.4767 14.2871 24.4441 14.2638 24.4174 14.2354L23.0498 12.8561C23.0086 12.813 22.9817 12.7599 22.9723 12.7031C22.9629 12.6463 22.9715 12.5882 22.9969 12.5357C23.0223 12.4848 23.0627 12.4415 23.1135 12.4108C23.1642 12.38 23.2233 12.3629 23.284 12.3615H23.6996V12.1386C23.5181 12.0888 23.3299 12.063 23.1405 12.062C22.6947 12.062 22.1809 12.1874 21.6143 12.4451C21.7345 13.1343 22.1167 13.7615 22.6925 14.2145C23.2684 14.6676 24.0003 14.917 24.7574 14.918C24.9787 14.919 25.1994 14.8956 25.4147 14.8484C25.3781 14.5263 25.315 14.2073 25.2258 13.8941L24.8858 14.2354Z" fill="#161616"/>
<path d="M24.2209 16.8334C22.7929 16.8334 21.4934 16.0671 20.836 14.9387C20.8435 15.0007 20.8282 15.0632 20.7926 15.1162C20.757 15.1693 20.7031 15.2098 20.6396 15.2312C19.9953 15.4674 19.308 15.588 18.6147 15.5865C17.9238 15.5872 17.2392 15.4667 16.5973 15.2312H16.5822C16.5076 15.202 16.4484 15.1469 16.4174 15.0779C16.3863 15.0089 16.3858 14.9314 16.416 14.862C16.4376 14.8057 16.4774 14.7567 16.5301 14.7219C16.5828 14.687 16.6458 14.6678 16.7106 14.667L16.824 14.6879C17.9748 15.1056 19.2545 15.1056 20.4053 14.6879L20.5187 14.667C20.5969 14.6682 20.672 14.6954 20.7302 14.7436C20.6237 14.527 20.5427 14.3004 20.4885 14.0679L20.2618 14.1933L20.2089 14.2212C19.1824 14.5836 18.0469 14.5836 17.0204 14.2212L16.9675 14.1933C16.0533 13.6569 15.2675 13.3853 14.6177 13.3853C13.7111 13.3853 13.0537 13.9216 12.5928 15.0223C12.0639 16.7707 12.2604 18.4704 13.1671 19.9402L13.2048 20.0099C13.4164 20.3442 13.5146 20.5253 13.4315 20.999C12.9555 23.66 13.8017 25.6453 16.0231 27.0664H16.0457C16.0457 27.0664 16.076 27.0664 16.076 27.0315V23.5904C16.0684 23.5046 16.0684 23.4184 16.076 23.3326C16.113 22.7128 16.4157 22.1319 16.9173 21.7178C17.4189 21.3037 18.0784 21.0902 18.7507 21.1244C19.423 21.1586 20.053 21.4376 20.5022 21.9001C20.9513 22.3625 21.1829 22.9705 21.1458 23.5904V27.0246L21.1609 27.0455C21.1609 27.0524 21.176 27.0594 21.1911 27.0594H21.2062C23.4276 25.6383 24.2738 23.6531 23.7978 20.9921C23.7147 20.5044 23.8205 20.3233 24.0094 20.0168L24.0623 19.9332C24.661 18.9728 24.9592 17.878 24.9236 16.7707C24.6921 16.8123 24.4568 16.8333 24.2209 16.8334Z" fill="#161616"/>
<path d="M25.2939 12.9466H25.2863C25.2021 12.9466 25.1214 12.9158 25.0619 12.8609C25.0024 12.8061 24.969 12.7316 24.969 12.6541V10.9404H24.3343V12.6541C24.3343 12.7316 24.3009 12.8061 24.2413 12.8609C24.1818 12.9158 24.1011 12.9466 24.017 12.9466H24.0094L24.6516 13.6014L25.2939 12.9466Z" fill="#161616"/>
<path d="M26.6466 12.3893C26.5916 12.2796 26.5045 12.1862 26.395 12.1197C26.2855 12.0532 26.1581 12.0163 26.027 12.0132H25.9892V10.6478C25.9913 10.479 25.921 10.3163 25.7937 10.195C25.6664 10.0737 25.4923 10.0037 25.3092 10H24.0172C23.8329 10 23.6561 10.0675 23.5257 10.1877C23.3953 10.3079 23.3221 10.4709 23.3221 10.6409V11.1285H23.1559C22.4985 11.1285 21.7505 11.3235 20.9496 11.7067C20.8274 11.766 20.7265 11.8568 20.6594 11.9682C20.5923 12.0796 20.5619 12.2065 20.5719 12.3336C20.5925 12.5454 20.6329 12.7552 20.6928 12.9605C20.5948 12.968 20.4996 12.9941 20.4132 13.0372C20.1966 13.1361 19.9871 13.2478 19.7861 13.3715C19.417 13.4908 19.0287 13.552 18.6376 13.5526H18.5847C18.1986 13.5519 17.8153 13.4907 17.4514 13.3715C16.3936 12.7515 15.4416 12.445 14.618 12.445C13.6811 12.445 12.4042 12.8351 11.6411 14.695L11.6185 14.7577V14.7786C11.014 16.7639 11.2407 18.7074 12.2758 20.4002L12.2909 20.4141L12.3438 20.4837C12.4571 20.6718 12.4571 20.6788 12.4345 20.839C11.8905 23.8483 12.9105 26.2028 15.4567 27.8328C15.63 27.9429 15.8357 28.0012 16.046 28C16.2177 28.0012 16.3871 27.9629 16.5387 27.8888C16.6904 27.8146 16.8197 27.7068 16.9149 27.5751C17.0343 27.4153 17.0976 27.2257 17.0963 27.0317V23.5906C17.0963 23.2192 17.2563 22.8631 17.5411 22.6005C17.8259 22.3379 18.2122 22.1904 18.615 22.1904C19.0177 22.1904 19.404 22.3379 19.6888 22.6005C19.9736 22.8631 20.1336 23.2192 20.1336 23.5906V27.0317C20.1336 27.2885 20.2443 27.5348 20.4412 27.7164C20.6382 27.898 20.9053 28 21.1839 28H21.1914C21.4029 28.001 21.6093 27.94 21.7808 27.8259C24.327 26.2028 25.3395 23.8553 24.7955 20.832C24.7652 20.6858 24.7652 20.6858 24.8786 20.4977V20.4837L24.9315 20.4002C25.7003 19.173 26.0431 17.7581 25.9137 16.346C25.9044 16.2521 25.8733 16.1612 25.8225 16.0795C25.7716 15.9977 25.7022 15.927 25.619 15.8723C25.5676 15.8399 25.5117 15.8142 25.4528 15.7957C25.619 15.7678 25.7852 15.733 25.9439 15.6912C26.098 15.6499 26.2318 15.5607 26.3227 15.4389C26.4136 15.317 26.4559 15.1698 26.4426 15.0224C26.3978 14.4995 26.2992 13.9817 26.1479 13.476L26.5257 13.0859C26.6167 12.993 26.6765 12.8777 26.698 12.7541C26.7195 12.6305 26.7016 12.5038 26.6466 12.3893ZM25.5435 16.3738C25.6634 17.715 25.3394 19.0582 24.6141 20.226L24.5612 20.3096C24.4026 20.5743 24.3723 20.6161 24.4252 20.8947C24.939 23.7647 23.9794 26.0008 21.5692 27.5402C21.4581 27.6112 21.3266 27.65 21.1914 27.6517H21.1839C21.0956 27.6517 21.0081 27.6357 20.9265 27.6045C20.8449 27.5734 20.7708 27.5277 20.7084 27.4701C20.6459 27.4125 20.5964 27.3442 20.5626 27.269C20.5288 27.1938 20.5114 27.1132 20.5114 27.0317V23.5906C20.5114 23.1268 20.3116 22.6821 19.956 22.3542C19.6003 22.0263 19.1179 21.8421 18.615 21.8421C18.112 21.8421 17.6296 22.0263 17.274 22.3542C16.9183 22.6821 16.7185 23.1268 16.7185 23.5906V27.0317C16.719 27.1446 16.6861 27.2555 16.6233 27.3524C16.5605 27.4493 16.4701 27.5285 16.3621 27.5816C16.254 27.6346 16.1322 27.6595 16.01 27.6534C15.8877 27.6474 15.7696 27.6106 15.6683 27.5472C13.258 26.0008 12.2909 23.7647 12.8047 20.8947C12.85 20.6091 12.8274 20.5673 12.6611 20.2957L12.6082 20.226C11.6185 18.6169 11.3993 16.757 11.9887 14.8483V14.8204C12.5402 13.476 13.4242 12.7933 14.6105 12.7933C15.3736 12.7933 16.2727 13.0929 17.2776 13.678C17.7057 13.8236 18.1587 13.8967 18.615 13.894C19.0711 13.8952 19.5238 13.8221 19.9523 13.678C20.1568 13.5535 20.3687 13.4396 20.587 13.3367C20.6311 13.3145 20.6803 13.3026 20.7305 13.3019C20.7831 13.3028 20.8348 13.3147 20.8816 13.3367C20.9288 13.36 20.9687 13.394 20.9978 13.4354C21.0268 13.4768 21.0441 13.5243 21.0479 13.5735C21.1914 15.0642 22.5892 16.2415 24.2212 16.2415C24.531 16.2419 24.8392 16.1996 25.1355 16.1161L25.2261 16.1022C25.2914 16.1027 25.3549 16.1222 25.4075 16.1579C25.446 16.1824 25.4782 16.2145 25.5017 16.2518C25.5252 16.2892 25.5395 16.3308 25.5435 16.3738ZM26.2537 12.856L25.7248 13.3924L25.7701 13.5039C25.9275 14.0086 26.0287 14.5267 26.0724 15.0503C26.0788 15.1177 26.0598 15.185 26.0184 15.2409C25.9771 15.2968 25.9161 15.3378 25.8457 15.3568C25.6038 15.4216 25.3559 15.4659 25.1052 15.4892C24.0957 15.5724 23.0915 15.2834 22.3126 14.6854C21.5337 14.0875 21.0436 13.2292 20.9496 12.2988C20.9464 12.2409 20.9609 12.1833 20.9917 12.1328C21.0225 12.0822 21.0681 12.0407 21.1234 12.0132C21.8639 11.6579 22.5514 11.4698 23.1559 11.4698C23.3388 11.4711 23.5211 11.4898 23.6999 11.5255V10.6478C23.6989 10.6088 23.7063 10.57 23.7218 10.5337C23.7373 10.4974 23.7606 10.4643 23.7901 10.4364C23.8197 10.4085 23.855 10.3864 23.894 10.3712C23.933 10.3561 23.9749 10.3483 24.0172 10.3483H25.3017C25.3434 10.3492 25.3844 10.3577 25.4226 10.3732C25.4607 10.3888 25.4951 10.4111 25.5239 10.4389C25.5527 10.4667 25.5752 10.4995 25.5902 10.5353C25.6052 10.5712 25.6125 10.6094 25.6115 10.6478V12.3615H26.0195C26.0802 12.3628 26.1393 12.3799 26.19 12.4107C26.2408 12.4414 26.2812 12.4847 26.3066 12.5356C26.332 12.5881 26.3406 12.6462 26.3312 12.703C26.3218 12.7598 26.2949 12.8129 26.2537 12.856Z" fill="#161616"/>
</g>
<defs>
<clipPath id="clip0_116_4459">
<rect width="15.4286" height="18" fill="white" transform="translate(11.2857 10)"/>
</clipPath>
</defs>
</svg>
