<svg width="38" height="38" viewBox="0 0 38 38" fill="none" xmlns="http://www.w3.org/2000/svg">
<rect x="-0.40625" y="0.40625" width="37.1875" height="37.1875" rx="18.5938" transform="matrix(-1 0 0 1 37.1875 0)" fill="white"/>
<rect x="-0.40625" y="0.40625" width="37.1875" height="37.1875" rx="18.5938" transform="matrix(-1 0 0 1 37.1875 0)" stroke="#5C5C5C" stroke-width="0.8125"/>
<g clip-path="url(#clip0_116_4493)">
<g clip-path="url(#clip1_116_4493)">
<path d="M21.5046 22.0236C21.4521 22.1814 21.4387 22.3537 21.4659 22.5202C21.4932 22.6867 21.56 22.8405 21.6586 22.9636C21.7178 23.0407 21.7888 23.146 21.777 23.2722C21.7684 23.326 21.7509 23.3773 21.7255 23.4231C21.7001 23.4688 21.6673 23.5082 21.629 23.5388L21.5105 23.644C21.3198 23.8219 21.1201 23.9859 20.9125 24.135C20.1819 24.6878 19.3044 24.9002 18.4494 24.7313C17.727 24.598 17.0579 24.2192 16.4066 23.5739C16.3059 23.4757 16.229 23.3915 16.223 23.2722C16.2171 23.153 16.2763 23.0548 16.3652 22.9355C16.4819 22.7762 16.5466 22.5726 16.5477 22.3616C16.5488 22.1506 16.4862 21.9461 16.3711 21.7851C16.2991 21.6858 16.2102 21.6056 16.1101 21.55C16.0101 21.4944 15.9013 21.4645 15.7908 21.4624C15.67 21.463 15.5514 21.5018 15.4474 21.5746L13.9138 22.7391C13.8747 22.7667 13.841 22.8037 13.8147 22.8478C13.7884 22.8918 13.7703 22.9419 13.7613 22.9948C13.7524 23.0477 13.7529 23.1022 13.7629 23.1548C13.7728 23.2074 13.792 23.257 13.8191 23.3003C14.4704 24.3946 15.1691 25.2294 15.9625 25.8677C16.9217 26.6323 17.9342 27.0251 18.9645 27.0322C19.872 27.0319 20.7638 26.7514 21.552 26.2184C22.5408 25.5661 23.3994 24.605 24.1809 23.2933C24.2063 23.2523 24.2246 23.2058 24.2348 23.1565C24.2449 23.1071 24.2468 23.0559 24.2402 23.0057C24.228 22.9472 24.2059 22.8922 24.1754 22.844C24.1449 22.7958 24.1065 22.7553 24.0625 22.7251L22.5823 21.6027L22.4757 21.5326C22.3847 21.4892 22.2874 21.4675 22.1894 21.4687C22.0913 21.4699 21.9944 21.494 21.9042 21.5396C21.814 21.5852 21.7323 21.6514 21.6638 21.7345C21.5952 21.8175 21.5411 21.9158 21.5046 22.0236Z" fill="#161616"/>
<path d="M18.7335 24.149V19.7788L18.6388 19.7928L18.1829 19.87C17.4664 20.0243 16.8803 20.4663 16.2704 20.9573C16.438 21.0384 16.5893 21.1603 16.7148 21.3149C16.8402 21.4695 16.9369 21.6536 16.9987 21.8552C17.0628 22.0789 17.0834 22.317 17.0588 22.5514C17.0342 22.7859 16.965 23.0108 16.8566 23.2091C17.4605 23.7702 18.0763 24.0859 18.7335 24.149Z" fill="#161616"/>
<path d="M12.4632 15.3525H12.4277L11.5336 15.6892L11.1724 15.8225C10.8527 15.9418 10.752 16.1663 10.8527 16.5451L11.5987 19.372C11.6638 19.6246 11.8059 19.7578 11.9954 19.7578C12.0516 19.7589 12.1075 19.7494 12.1612 19.7298L12.7474 19.5123C12.9961 19.4211 13.2388 19.3229 13.4875 19.2387L13.5112 19.2247V19.2107C13.5231 19.0423 13.5349 18.874 13.5467 18.7547V18.6565C13.5467 17.4009 13.1678 16.2364 12.4809 15.3736C12.4869 15.3666 12.4691 15.3525 12.4632 15.3525Z" fill="#161616"/>
<path d="M21.0073 21.8412C21.0661 21.6363 21.1632 21.4497 21.2914 21.2955C21.4195 21.1412 21.5754 21.0232 21.7474 20.9503C21.0073 20.2909 19.9415 19.7788 19.2783 19.7788H19.2665V24.149C19.9237 24.0789 20.5454 23.7702 21.1494 23.202C21.0353 23.0054 20.9628 22.779 20.938 22.5422C20.9133 22.3053 20.937 22.0649 21.0073 21.8412Z" fill="#161616"/>
<path d="M13.7777 15.0786C13.7608 15.0396 13.7354 15.0067 13.7042 14.9833C13.6729 14.9598 13.637 14.9467 13.6 14.9453H13.5527C13.3928 14.9944 13.2329 15.0575 13.0612 15.1207L13.0139 15.1417C13.8014 16.2781 14.1448 17.5478 14.056 19.0209L14.281 18.9438L15.1928 18.593C15.2169 18.5817 15.2388 18.5647 15.2571 18.543C15.2755 18.5213 15.2899 18.4953 15.2994 18.4667C15.3111 18.4278 15.3155 18.3864 15.3124 18.3452C15.3094 18.304 15.2989 18.2642 15.2816 18.2282L13.7777 15.0786Z" fill="#161616"/>
<path d="M15.9921 20.4312L16.3947 20.1225C17.1289 19.5403 17.9164 19.2176 18.7395 19.1685V16.7344C18.5855 16.7133 18.4197 16.6923 18.2599 16.6572C17.5849 16.5029 16.9395 16.1732 16.2171 15.619C15.3408 14.9456 14.5177 14.0828 13.6237 12.9113C13.3158 12.4974 13.0138 12.0695 12.7177 11.6487L12.5283 11.3821C12.3625 11.1506 12.1908 11.0243 11.9835 10.9822H11.9599L11.8651 10.9682C11.851 10.965 11.8364 10.9673 11.8235 10.9749C11.8107 10.9826 11.8003 10.995 11.7941 11.0103C11.7763 11.0524 11.7645 11.0945 11.8474 11.2137L11.8651 11.2488H11.871C12.4572 12.2309 12.7592 13.227 12.8006 14.3073V14.5808L12.8717 14.5528L13.3099 14.3914C13.4036 14.3552 13.5014 14.3363 13.6 14.3353C13.8724 14.3353 14.1033 14.5037 14.2572 14.8334L14.6539 15.6681L14.8552 16.082L15.1217 16.6432L15.7256 17.8988C15.7812 18.0124 15.8158 18.1387 15.827 18.2693C15.8382 18.4 15.8259 18.5319 15.7908 18.6564C15.7305 18.8506 15.6155 19.0142 15.4651 19.1194C15.6407 19.266 15.7815 19.4637 15.8738 19.6934C15.9661 19.9232 16.0068 20.1773 15.9921 20.4312Z" fill="#161616"/>
<path d="M23.7606 14.7913C23.8228 14.6498 23.9175 14.532 24.0338 14.4513C24.1501 14.3707 24.2831 14.3305 24.4178 14.3354H24.4829C24.5556 14.344 24.6272 14.3628 24.6961 14.3915L24.7375 14.4055L25.1698 14.5669H25.1935C25.1871 13.7413 25.3475 12.926 25.6612 12.1888C25.7737 11.9223 25.9099 11.6697 26.0402 11.4242L26.1823 11.1577C26.2237 11.0735 26.2178 11.0384 26.2 11.0033C26.1823 10.9683 26.1823 10.9683 26.129 10.9683H26.0994C25.9881 10.9716 25.8789 11.0042 25.7796 11.0637C25.6803 11.1231 25.5933 11.2079 25.525 11.312L25.1935 11.775L24.9448 12.1257C23.9974 13.4655 23.1448 14.4476 22.2625 15.2192C21.4987 15.8927 20.8119 16.3135 20.1132 16.538C19.9026 16.6052 19.6891 16.659 19.4737 16.6994L19.2665 16.7485V19.1545L19.2842 19.1686C19.8704 19.2036 20.3619 19.3439 20.7823 19.5965C21.0961 19.7789 21.3981 19.9963 21.6882 20.2068L22.002 20.4312C21.9874 20.1757 22.0288 19.92 22.1222 19.6889C22.2156 19.4578 22.3577 19.2593 22.5349 19.1125C22.3814 19.0098 22.2638 18.8457 22.2033 18.6495C22.1679 18.5228 22.157 18.3883 22.1713 18.256C22.1857 18.1237 22.225 17.9968 22.2862 17.8849C22.7066 16.987 23.1625 16.04 23.7606 14.7913Z" fill="#161616"/>
<path d="M27.0939 14.9104L26.786 14.7981L26.0044 14.5175C26.0145 13.9851 26.1006 13.4586 26.259 12.9602C26.4074 12.5176 26.6045 12.1001 26.8452 11.7186C26.9497 11.5561 27.0135 11.362 27.0292 11.1585C27.0449 10.9551 27.0119 10.7505 26.934 10.5682C26.8637 10.3989 26.755 10.2561 26.6202 10.1557C26.4853 10.0554 26.3295 10.0014 26.1702 10H26.1228C25.9744 10.0069 25.8273 10.0352 25.6847 10.0842C25.2524 10.2175 24.9741 10.5612 24.7551 10.8839C24.163 11.7467 23.3636 12.862 22.4163 13.8301C21.7057 14.5526 21.0722 15.0507 20.4268 15.3874C19.9235 15.6469 19.4557 15.7732 18.9939 15.7732C18.8253 15.7713 18.6571 15.7549 18.4906 15.7241C17.9755 15.6118 17.4485 15.3663 16.886 14.9595C16.0393 14.3632 15.234 13.5495 14.3518 12.4061C14.0676 12.0343 13.7774 11.6345 13.511 11.2557L13.0965 10.6804C12.9491 10.4697 12.7647 10.2996 12.556 10.1821C12.3474 10.0646 12.1196 10.0024 11.8886 10H11.8531C11.73 10.0003 11.6082 10.0303 11.4952 10.0882C11.3822 10.1461 11.2803 10.2306 11.1959 10.3367C11.1166 10.4381 11.0558 10.5576 11.0171 10.6879C10.9784 10.8182 10.9626 10.9565 10.9709 11.0943V11.1083C10.9951 11.3401 11.0662 11.5615 11.1781 11.7537C11.711 12.6376 11.9774 13.5425 11.9893 14.5035L11.409 14.721L10.9235 14.8963C10.5741 15.0366 10.2899 15.2962 10.136 15.6399C9.98204 15.9836 9.95836 16.3975 10.0709 16.8394C10.361 17.9197 10.5919 18.8106 10.811 19.6454C10.9945 20.3118 11.4445 20.7256 11.9952 20.7256C12.1428 20.7266 12.2892 20.6957 12.4274 20.6345L13.0432 20.41L14.6064 19.8348C14.65 19.8159 14.6961 19.8064 14.7426 19.8067C14.8398 19.8053 14.9348 19.8418 15.0129 19.9105C15.0909 19.9793 15.1478 20.0765 15.1747 20.1873C15.2016 20.298 15.1971 20.4162 15.1618 20.5236C15.1265 20.631 15.0624 20.7217 14.9794 20.7818L14.1268 21.4271L13.4814 21.9182C13.2131 22.1208 13.0236 22.4412 12.9544 22.809V22.8231C12.926 22.999 12.9282 23.1799 12.9608 23.3547C12.9934 23.5296 13.0557 23.6948 13.1439 23.8402C13.8307 25.0117 14.5945 25.9306 15.4827 26.6461C16.5722 27.523 17.7209 27.993 18.8163 28H18.8222C20.0478 28 21.0899 27.6703 22.1084 26.9548C23.1268 26.2393 24.0031 25.2502 24.8084 23.9174C24.9077 23.7632 24.9795 23.5866 25.0192 23.3985C25.0589 23.2103 25.0657 23.0145 25.0393 22.8231V22.809C25.0012 22.6196 24.9319 22.4408 24.8353 22.2831C24.7388 22.1255 24.617 21.9919 24.4768 21.8901L24.0919 21.6025L23.032 20.7958C22.9368 20.7283 22.866 20.6215 22.8332 20.4959C22.8005 20.3703 22.808 20.2348 22.8544 20.1154C22.8898 20.0279 22.9452 19.9539 23.0143 19.9019C23.0833 19.8498 23.1633 19.8217 23.2452 19.8207H23.257C23.3113 19.8197 23.3653 19.8292 23.4169 19.8488L25.5781 20.6555C25.7162 20.7061 25.8599 20.7321 26.0044 20.7327C26.5551 20.7327 27.0051 20.3258 27.1827 19.6664L27.5557 18.2354C27.6801 17.7654 27.8103 17.2884 27.9347 16.8114C28.1538 15.9626 27.8044 15.1839 27.0939 14.9104ZM27.6505 16.6991C27.4018 17.6532 27.1472 18.6002 26.8985 19.5542C26.7623 20.0663 26.4248 20.3749 26.0044 20.3749C25.8898 20.375 25.7759 20.3537 25.6669 20.3118L23.5057 19.5051C23.4249 19.4773 23.3412 19.4632 23.257 19.463C23.1167 19.46 22.9787 19.5056 22.8599 19.594C22.7411 19.6825 22.6466 19.81 22.588 19.961C22.5103 20.1585 22.497 20.3831 22.5505 20.5915C22.6041 20.8 22.7207 20.9776 22.8781 21.0904L23.932 21.8901L24.3228 22.1847C24.5366 22.3407 24.6898 22.5902 24.7491 22.8792C24.7697 23.0242 24.7645 23.1727 24.7339 23.3152C24.7033 23.4577 24.648 23.5911 24.5715 23.7069C23.7899 25.0047 22.9314 25.9727 21.9603 26.6532C20.9893 27.3336 19.9945 27.6493 18.8222 27.6493H18.8163C17.7801 27.6422 16.6847 27.1933 15.6485 26.3585C14.8018 25.6711 14.0616 24.7872 13.3866 23.6368C13.3206 23.53 13.2739 23.4082 13.2494 23.2791C13.225 23.1499 13.2233 23.0162 13.2445 22.8862C13.2968 22.6086 13.4393 22.3666 13.6413 22.2128L14.2866 21.7217L15.1393 21.0764C15.2393 21 15.3226 20.8966 15.3823 20.7746C15.442 20.6527 15.4764 20.5157 15.4827 20.3749C15.4857 20.2349 15.461 20.096 15.4107 19.9694C15.3603 19.8427 15.2856 19.7317 15.1926 19.6454C15.0668 19.5246 14.9103 19.4579 14.7485 19.456C14.6702 19.4562 14.5923 19.4704 14.5176 19.4981L12.9544 20.0733L12.3327 20.3048C12.2227 20.3523 12.1064 20.3761 11.9893 20.3749C11.5689 20.3749 11.2373 20.0592 11.0952 19.5401C10.8524 18.6072 10.6038 17.6672 10.3551 16.7342C10.2663 16.3905 10.2781 16.0678 10.3965 15.8083C10.5309 15.5305 10.7521 15.3265 11.0123 15.2401L11.4978 15.0647L12.2616 14.7771H12.2794C12.2791 14.7733 12.2795 14.7695 12.2805 14.7658C12.2816 14.7622 12.2832 14.7589 12.2853 14.756C12.3149 13.6337 12.0366 12.5885 11.4209 11.5643C11.337 11.4202 11.2842 11.2541 11.2669 11.0803C11.2609 10.9896 11.271 10.8985 11.2965 10.8127C11.322 10.7269 11.3623 10.6484 11.4149 10.5822C11.4712 10.509 11.5398 10.4506 11.6163 10.4107C11.6928 10.3709 11.7755 10.3504 11.859 10.3507H11.8886C12.0764 10.3546 12.2612 10.406 12.4308 10.5016C12.6003 10.5972 12.7506 10.7347 12.8715 10.9049L13.286 11.4801C13.5584 11.8659 13.8426 12.2658 14.1327 12.6446C15.0268 13.802 15.8498 14.6368 16.732 15.2611C17.3241 15.682 17.8807 15.9486 18.4373 16.0678C18.6213 16.1042 18.8074 16.123 18.9939 16.1239C19.4913 16.1239 20.0005 15.9906 20.5452 15.7101C21.2202 15.3593 21.8774 14.8472 22.6116 14.0966C23.5709 13.1146 24.382 11.9852 24.986 11.1013C25.1873 10.8067 25.4182 10.5261 25.7616 10.4209C25.8832 10.3799 26.0084 10.3564 26.1347 10.3507H26.1524C26.2594 10.3475 26.3648 10.3809 26.4562 10.4468C26.5476 10.5127 26.6209 10.6085 26.6676 10.7225C26.7223 10.8464 26.7458 10.9864 26.7353 11.1257C26.7248 11.2649 26.6807 11.3977 26.6084 11.5082C26.3523 11.9154 26.1432 12.3613 25.9866 12.834C25.7975 13.4205 25.7031 14.044 25.7084 14.6719C25.7084 14.7701 25.7202 14.7771 25.7853 14.8051L26.7031 15.1348L27.0051 15.2471C27.5616 15.4575 27.8222 16.0398 27.6505 16.6991Z" fill="#161616"/>
<path d="M26.8573 15.8434L26.5079 15.7101L25.5665 15.3594H25.5369C25.5369 15.3594 25.525 15.3594 25.5073 15.3804C24.8145 16.2783 24.4652 17.3376 24.4415 18.6353C24.4474 18.6704 24.4474 18.7125 24.4533 18.7545C24.4592 18.7966 24.477 19.0492 24.4888 19.2175L24.5125 19.2315L25.2645 19.5121L25.8329 19.7226C25.8885 19.7427 25.9465 19.7522 26.0046 19.7506C26.1941 19.7506 26.3303 19.6174 26.4013 19.3648C26.65 18.4108 26.9046 17.4568 27.1592 16.5028C27.2421 16.1941 27.1296 15.9416 26.8573 15.8434Z" fill="#161616"/>
<path d="M24.9862 15.142H24.9507L24.5243 14.9807L24.4059 14.9526C24.3467 14.9526 24.2757 14.9737 24.1987 15.128L22.7421 18.1724C22.7195 18.2147 22.7042 18.262 22.6971 18.3113C22.69 18.3607 22.6912 18.4112 22.7007 18.46C22.7205 18.5023 22.7476 18.5392 22.7802 18.5682C22.8129 18.5972 22.8503 18.6177 22.8901 18.6284L23.8375 18.9862L23.9441 19.0212C23.8553 17.5762 24.2046 16.2714 24.9862 15.142Z" fill="#161616"/>
</g>
</g>
<defs>
<clipPath id="clip0_116_4493">
<rect width="18" height="18" fill="white" transform="matrix(-1 0 0 1 28 10)"/>
</clipPath>
<clipPath id="clip1_116_4493">
<rect width="18" height="18" fill="white" transform="translate(10 10)"/>
</clipPath>
</defs>
</svg>
