<svg width="38" height="38" viewBox="0 0 38 38" fill="none" xmlns="http://www.w3.org/2000/svg">
<rect width="38" height="38" rx="19" transform="matrix(-1 0 0 1 38 0)" fill="#2D2D2D"/>
<path d="M10.1942 14.3458C10.2022 12.797 10.6573 11.6554 11.7031 10.7772C12.7489 9.89902 14.3057 9.73935 15.5432 10.6096C15.8545 10.8331 16.1579 11.0726 16.4613 11.3041C16.7647 11.5356 17.2756 11.7672 17.7706 11.7352C18.0639 11.7259 18.3487 11.6346 18.5929 11.4718C18.9122 11.2562 19.2236 11.0247 19.527 10.7932C19.998 10.4339 20.5089 10.1465 21.0997 10.0427C21.9779 9.89902 22.7603 10.1226 23.4548 10.6415C24.341 11.2961 24.8599 12.1823 25.0675 13.2521C25.0835 13.3479 25.0755 13.4277 24.9797 13.4756C24.7562 13.6114 24.5246 13.7391 24.3091 13.8828C24.2452 13.9227 24.1574 14.0026 24.1654 14.0505C24.1734 14.0984 24.2452 14.2021 24.3091 14.2421C24.5326 14.3858 24.7641 14.5215 24.9957 14.6572C25.0357 14.6791 25.067 14.7139 25.0844 14.7561C25.1019 14.7982 25.1043 14.845 25.0915 14.8887C24.9112 16.0263 24.6497 17.1495 24.3091 18.2498C23.9259 19.5591 23.5027 20.8684 23.1036 22.1777C22.7052 23.4921 22.4561 24.8472 22.3611 26.2173C22.3377 26.5967 22.2816 26.9733 22.1934 27.343C22.0577 27.9418 21.6905 28.1254 21.1077 27.9178C20.8567 27.8345 20.6478 27.6571 20.5249 27.4229C20.3741 27.1468 20.2407 26.8615 20.1257 26.5686C19.8223 25.8262 19.5429 25.0837 19.2555 24.3492C19.1229 23.9893 18.9099 23.6644 18.6328 23.3992C18.3738 23.1492 18.0283 23.0089 17.6684 23.0074C17.3085 23.0059 16.9618 23.1434 16.7008 23.3912C16.4156 23.6654 16.1971 24.0013 16.0621 24.3731C15.7507 25.1635 15.4554 25.9619 15.136 26.7443C15.0297 27.0113 14.8988 27.2679 14.7448 27.5107C14.4973 27.8859 14.1221 28.0216 13.675 27.9737C13.5696 27.97 13.4683 27.9322 13.3862 27.866C13.3042 27.7998 13.2458 27.7087 13.22 27.6065C13.1226 27.2858 13.0531 26.9572 13.0124 26.6245C12.9006 25.6345 12.8288 24.6286 12.6052 23.6546C12.3258 22.4411 11.9426 21.2676 11.5674 20.086C11.0804 18.5452 10.6253 16.9884 10.3299 15.3997C10.2501 14.9845 10.2182 14.5614 10.1942 14.3458ZM14.2099 18.9204C14.4175 18.9124 14.4335 18.7927 14.4574 18.6809C14.6331 17.8267 15.0801 17.18 15.8865 16.8048C15.9583 16.7728 16.0461 16.685 16.0461 16.6212C16.0461 16.5573 15.9583 16.4695 15.8865 16.4375C15.3835 16.206 14.9843 15.8627 14.7448 15.3677C14.62 15.0837 14.5185 14.79 14.4414 14.4896C14.4095 14.3937 14.3616 14.3139 14.2658 14.3299C14.17 14.3458 14.1461 14.4257 14.0982 14.4896C14.0503 14.5534 14.0822 14.5614 14.0742 14.6013C13.8826 15.4316 13.4355 16.0703 12.6531 16.4375C12.6141 16.455 12.579 16.4803 12.5502 16.5119C12.5213 16.5435 12.4993 16.5807 12.4855 16.6212C12.4536 16.7249 12.5573 16.7728 12.6452 16.8128C13.171 17.0345 13.5952 17.4444 13.8347 17.9624C13.9465 18.2099 14.0024 18.4893 14.0982 18.7448C14.1299 18.8067 14.1673 18.8655 14.2099 18.9204ZM10.8728 14.1782C10.9127 14.4736 10.9447 14.769 10.9926 15.0564C11.0071 15.0892 11.028 15.1187 11.054 15.1434C11.0801 15.1681 11.1107 15.1873 11.1443 15.2001C11.1922 15.2161 11.272 15.1681 11.3119 15.1202C11.3307 15.0663 11.3335 15.0081 11.3199 14.9526C11.1987 14.4097 11.2096 13.8457 11.3518 13.308C11.4335 13.0308 11.5322 12.7588 11.6472 12.4937C11.6951 12.3819 11.6951 12.2941 11.5913 12.2382C11.4875 12.1823 11.3997 12.2222 11.3438 12.326L11.272 12.4697C11.028 13.0075 10.8924 13.588 10.8728 14.1782ZM23.6624 12.3979C23.6385 12.326 23.6145 12.2781 23.5986 12.2302C23.2393 11.5117 22.6485 11.1125 21.8981 10.897C21.7863 10.865 21.6825 10.873 21.6346 11.0087C21.5867 11.1445 21.6665 11.1924 21.8182 11.2403C22.4809 11.4319 23.0078 11.7831 23.3032 12.4298C23.3191 12.4617 23.3351 12.5017 23.359 12.5096C23.3853 12.525 23.4143 12.535 23.4445 12.5391C23.4746 12.5432 23.5053 12.5413 23.5347 12.5336C23.5906 12.5176 23.6225 12.4458 23.6624 12.3979Z" fill="#B9B9B9"/>
<path d="M26.273 12.2144C26.5764 13.0207 27.0634 13.6354 27.8058 14.0585C27.0714 14.4817 26.5764 15.0964 26.273 15.9027C25.9696 15.1044 25.4826 14.4817 24.7322 14.0665C25.4746 13.6434 25.9616 13.0287 26.273 12.2144Z" fill="#B9B9B9"/>
<path d="M13.0522 16.6208C13.6078 16.2894 14.0354 15.7803 14.2657 15.1758C14.4961 15.7803 14.9236 16.2894 15.4792 16.6208C14.924 16.9527 14.4966 17.4616 14.2657 18.0658C14.0103 17.4511 13.635 16.9641 13.0522 16.6208Z" fill="#B9B9B9"/>
</svg>
