<svg width="80" height="80" viewBox="0 0 80 80" fill="none" xmlns="http://www.w3.org/2000/svg">
<path d="M40 80C62.0914 80 80 62.0914 80 40C80 17.9086 62.0914 0 40 0C17.9086 0 0 17.9086 0 40C0 62.0914 17.9086 80 40 80Z" fill="#100E10"/>
<path fill-rule="evenodd" clip-rule="evenodd" d="M52.3405 33.6801C50.2738 33.6784 48.2824 32.9038 46.7577 31.5086C45.233 30.1135 44.2852 28.1985 44.1005 26.1401C43.6005 26.4001 43.1005 26.7001 42.5805 27.0201C40.3333 27.8805 37.8476 27.8805 35.6005 27.0201C29.9605 23.4401 26.1405 24.2601 24.1605 29.5601C22.9005 33.9801 23.1805 38.6001 25.5605 42.7601C26.0605 43.6401 26.2604 43.9001 26.0804 44.9801C24.9338 52.0601 27.0871 57.4934 32.5405 61.2801C32.667 61.3629 32.8135 61.41 32.9645 61.4165C33.1156 61.4229 33.2656 61.3885 33.3987 61.3168C33.5318 61.2451 33.6431 61.1389 33.7209 61.0092C33.7986 60.8795 33.8399 60.7313 33.8405 60.5801V51.7601C33.8405 50.3703 34.3925 49.0375 35.3752 48.0548C36.3579 47.0721 37.6907 46.5201 39.0805 46.5201C40.4702 46.5201 41.803 47.0721 42.7857 48.0548C43.7684 49.0375 44.3205 50.3703 44.3205 51.7601V60.5801C44.3185 60.7345 44.3591 60.8864 44.4379 61.0192C44.5166 61.152 44.6304 61.2605 44.7668 61.3329C44.9032 61.4052 45.057 61.4386 45.2111 61.4292C45.3652 61.4199 45.5138 61.3683 45.6405 61.2801C51.0938 57.4801 53.2405 52.0467 52.0805 44.9801C51.9005 43.9001 52.1205 43.6401 52.6205 42.7601C54.2465 39.8938 54.9713 36.6043 54.7005 33.3201C53.9352 33.5529 53.1403 33.6741 52.3405 33.6801ZM43.7805 30.1201C40.7568 31.2926 37.4041 31.2926 34.3805 30.1201C34.2529 30.0667 34.1507 29.9664 34.0949 29.8399C34.039 29.7134 34.0339 29.5703 34.0805 29.4401C34.1341 29.3074 34.2366 29.2003 34.3668 29.1408C34.4969 29.0812 34.645 29.0738 34.7805 29.1201C37.5498 30.2131 40.6311 30.2131 43.4005 29.1201C43.5359 29.0738 43.684 29.0812 43.8141 29.1408C43.9443 29.2003 44.0468 29.3074 44.1005 29.4401C44.1459 29.5728 44.1379 29.718 44.0782 29.8449C44.0184 29.9718 43.9117 30.0705 43.7805 30.1201Z" fill="white"/>
<path fill-rule="evenodd" clip-rule="evenodd" d="M55.0233 25.4601L56.5833 23.7401H54.8633V18.5801H51.8433V21.8601C50.1233 21.1001 47.9633 21.4001 45.3633 22.7601C45.4754 23.9795 45.8566 25.1588 46.4794 26.2132C47.1022 27.2675 47.9511 28.1706 48.965 28.8573C49.9788 29.5441 51.1324 29.9974 52.3425 30.1846C53.5527 30.3719 54.7893 30.2883 55.9633 29.9401C55.8765 28.6589 55.6484 27.3912 55.2833 26.1601C55.2033 25.9201 55.1033 25.6801 55.0233 25.4601ZM53.6033 29.2001C51.9309 29.2032 50.3096 28.6241 49.0177 27.5621C47.7257 26.5001 46.8438 25.0215 46.5233 23.3801C48.0033 22.6801 49.8033 22.1801 51.3233 22.8001L51.8433 23.0801V23.7401H50.1433L53.3633 27.2801L54.2033 26.3401C54.2417 26.3867 54.269 26.4414 54.2833 26.5001C54.5245 27.3529 54.705 28.2217 54.8233 29.1001C54.4209 29.1738 54.0123 29.2073 53.6033 29.2001Z" fill="white"/>
</svg>
