<svg width="60" height="60" viewBox="0 0 60 60" fill="none" xmlns="http://www.w3.org/2000/svg">
<rect width="60" height="60" rx="30" fill="white"/>
<path d="M12.3 20.6917C12.316 17.5941 13.2261 15.3108 15.3178 13.5544C17.4094 11.798 20.523 11.4787 22.9979 13.2191C23.6206 13.6662 24.2274 14.1452 24.8341 14.6082C25.4409 15.0713 26.4628 15.5343 27.4527 15.4705C28.0393 15.4517 28.609 15.2692 29.0973 14.9436C29.736 14.5124 30.3587 14.0494 30.9655 13.5864C31.9075 12.8678 32.9294 12.293 34.111 12.0855C35.8673 11.798 37.4321 12.2451 38.8213 13.283C40.5936 14.5923 41.6315 16.3646 42.0466 18.5042C42.0785 18.6958 42.0626 18.8555 41.871 18.9513C41.4239 19.2227 40.9608 19.4782 40.5297 19.7656C40.402 19.8454 40.2264 20.0051 40.2423 20.1009C40.2583 20.1967 40.402 20.4043 40.5297 20.4841C40.9768 20.7715 41.4398 21.043 41.9029 21.3144C41.9829 21.3581 42.0456 21.4279 42.0804 21.5121C42.1153 21.5964 42.1202 21.69 42.0945 21.7775C41.7339 24.0526 41.2109 26.2991 40.5297 28.4996C39.7633 31.1182 38.9171 33.7368 38.1187 36.3554C37.3219 38.9842 36.8238 41.6944 36.6338 44.4347C36.587 45.1934 36.4748 45.9466 36.2985 46.686C36.027 47.8836 35.2925 48.2508 34.1269 47.8357C33.6249 47.669 33.2071 47.3141 32.9613 46.8457C32.6597 46.2935 32.393 45.7229 32.163 45.1372C31.5562 43.6523 30.9974 42.1674 30.4226 40.6984C30.1573 39.9786 29.7313 39.3288 29.1772 38.7983C28.6592 38.2984 27.9682 38.0178 27.2483 38.0148C26.5285 38.0118 25.8352 38.2868 25.3131 38.7824C24.7428 39.3307 24.3058 40.0026 24.0358 40.7463C23.4131 42.327 22.8223 43.9237 22.1836 45.4885C21.971 46.0227 21.7091 46.5358 21.4012 47.0214C20.9062 47.7718 20.1558 48.0432 19.2616 47.9474C19.0509 47.9401 18.8482 47.8645 18.684 47.732C18.5199 47.5996 18.4032 47.4174 18.3515 47.213C18.1567 46.5715 18.0178 45.9144 17.9364 45.249C17.7128 43.2691 17.5691 41.2572 17.122 39.3093C16.5632 36.8823 15.7968 34.5351 15.0463 32.172C14.0723 29.0904 13.1622 25.9768 12.5714 22.7993C12.4118 21.9691 12.3479 21.1228 12.3 20.6917ZM20.3314 29.8408C20.7466 29.8248 20.7785 29.5853 20.8264 29.3618C21.1777 27.6533 22.0718 26.36 23.6845 25.6095C23.8282 25.5457 24.0038 25.37 24.0038 25.2423C24.0038 25.1146 23.8282 24.9389 23.6845 24.8751C22.6786 24.412 21.8802 23.7254 21.4012 22.7355C21.1516 22.1675 20.9486 21.5801 20.7945 20.9791C20.7306 20.7875 20.6348 20.6278 20.4432 20.6598C20.2516 20.6917 20.2037 20.8514 20.1079 20.9791C20.0121 21.1068 20.0759 21.1228 20.06 21.2026C19.6768 22.8632 18.7826 24.1406 17.2178 24.8751C17.1397 24.91 17.0696 24.9606 17.0119 25.0238C16.9542 25.0869 16.9102 25.1613 16.8825 25.2423C16.8187 25.4499 17.0262 25.5457 17.2019 25.6255C18.2536 26.0689 19.1019 26.8888 19.581 27.9248C19.8045 28.4197 19.9163 28.9786 20.1079 29.4895C20.1713 29.6133 20.2461 29.7309 20.3314 29.8408ZM13.6572 20.3564C13.737 20.9472 13.8009 21.5379 13.8967 22.1128C13.9258 22.1783 13.9675 22.2375 14.0196 22.2868C14.0717 22.3362 14.133 22.3747 14.2001 22.4002C14.2959 22.4321 14.4555 22.3363 14.5354 22.2405C14.573 22.1326 14.5786 22.0162 14.5513 21.9052C14.3089 20.8195 14.3308 19.6914 14.6152 18.616C14.7786 18.0615 14.9759 17.5176 15.206 16.9873C15.3018 16.7638 15.3018 16.5882 15.0942 16.4764C14.8866 16.3646 14.711 16.4445 14.5992 16.652L14.4555 16.9394C13.9675 18.0149 13.6963 19.176 13.6572 20.3564ZM39.2364 16.7957C39.1885 16.652 39.1406 16.5562 39.1087 16.4604C38.3901 15.0234 37.2086 14.225 35.7077 13.7939C35.4841 13.7301 35.2766 13.746 35.1808 14.0175C35.085 14.2889 35.2446 14.3847 35.548 14.4805C36.8733 14.8637 37.9271 15.5663 38.5179 16.8596C38.5498 16.9235 38.5817 17.0033 38.6297 17.0193C38.6822 17.0499 38.7402 17.07 38.8005 17.0782C38.8608 17.0864 38.9221 17.0827 38.9809 17.0672C39.0927 17.0352 39.1566 16.8915 39.2364 16.7957Z" fill="#161616"/>
<path d="M44.4576 16.4285C45.0643 18.0411 46.0383 19.2706 47.5232 20.1169C46.0543 20.9631 45.0643 22.1926 44.4576 23.8052C43.8508 22.2085 42.8768 20.9631 41.3759 20.1328C42.8609 19.2866 43.8348 18.0571 44.4576 16.4285Z" fill="#161616"/>
<path d="M18.0162 25.2422C19.1274 24.5795 19.9825 23.5612 20.4432 22.3522C20.9039 23.5612 21.759 24.5795 22.8702 25.2422C21.7598 25.9059 20.9049 26.9239 20.4432 28.1322C19.9322 26.9028 19.1818 25.9288 18.0162 25.2422Z" fill="#161616"/>
</svg>
