<svg width="38" height="38" viewBox="0 0 38 38" fill="none" xmlns="http://www.w3.org/2000/svg">
<rect x="-0.40625" y="0.40625" width="37.1875" height="37.1875" rx="18.5938" transform="matrix(-1 0 0 1 37.1875 0)" fill="white"/>
<rect x="-0.40625" y="0.40625" width="37.1875" height="37.1875" rx="18.5938" transform="matrix(-1 0 0 1 37.1875 0)" stroke="#5C5C5C" stroke-width="0.8125"/>
<g clip-path="url(#clip0_116_4451)">
<path d="M24.3974 11.5509C23.6858 11.1509 22.8441 11.0176 21.8375 11.0176H21.7854C21.262 11.02 20.7408 11.0719 20.2322 11.172C20.1888 11.179 20.1628 11.2 20.1628 11.2281C20.1572 11.2421 20.1587 11.2572 20.1668 11.2703C20.1749 11.2835 20.189 11.2935 20.2061 11.2983L20.9524 11.6211C21.0345 11.6577 21.0989 11.7156 21.1353 11.7855C21.1716 11.8554 21.1777 11.9332 21.1526 12.0062C21.1275 12.0793 21.0727 12.1433 20.997 12.1881C20.9213 12.2328 20.8292 12.2555 20.7355 12.2527C20.6751 12.2517 20.6157 12.2397 20.5619 12.2176L18.8264 11.4737L18.5835 11.3825C18.1149 11.2141 17.4467 11.0878 16.7612 11.0386L15.4943 11.0527H15.4856C14.748 11.1228 14.1059 11.2913 13.6286 11.5509C12.9171 11.9509 12.596 12.4632 12.5613 13.2562V13.4386C12.6914 14.772 12.865 15.2 13.2468 15.9369C13.2989 16.0281 13.3683 16.1334 13.4464 16.2456L13.4637 16.2737L13.5505 16.393C13.559 16.4036 13.5706 16.4123 13.5842 16.4184C13.5978 16.4245 13.613 16.4279 13.6286 16.4281H15.798C15.8913 16.4315 15.9837 16.4127 16.0639 16.3741C16.1441 16.3354 16.2086 16.2785 16.2492 16.2106C16.2492 16.2035 16.2579 16.1965 16.2579 16.1825V15.579C16.2402 15.3394 16.3364 15.1034 16.5269 14.9193C16.6657 14.786 16.9347 14.6316 17.412 14.6316H20.6053C21.0826 14.6316 21.3516 14.793 21.4991 14.9193C21.7681 15.1649 21.7681 15.4807 21.7681 15.572V16.1825C21.7681 16.1965 21.7768 16.2035 21.7768 16.2106C21.8174 16.2785 21.8818 16.3354 21.962 16.3741C22.0422 16.4127 22.1347 16.4315 22.228 16.4281H24.4668C24.4774 16.4315 24.4891 16.4319 24.5001 16.4294C24.5111 16.4269 24.5207 16.4215 24.5275 16.4141C24.5883 16.372 24.7271 16.2527 24.8746 15.9579C25.3606 14.9685 25.3866 14.6456 25.4734 13.4386C25.4822 13.411 25.4822 13.382 25.4734 13.3544V13.2421C25.4387 12.4562 25.1089 11.9509 24.3974 11.5509Z" fill="#161616"/>
<path d="M25.0829 10.7158C24.2499 10.2526 23.0871 10 21.8115 10H21.7768C20.8259 9.99834 19.8834 10.1436 19 10.4281C18.4099 10.2176 17.6637 10.0842 16.8306 10.0211H16.7525L15.4509 10.0351H15.3554C14.3922 10.1263 13.5505 10.3649 12.9084 10.7158C11.8671 11.2983 11.3378 12.1193 11.2857 13.2281V13.5228C11.4419 15.0176 11.6502 15.5298 12.0754 16.3439C12.1361 16.4562 12.2055 16.5614 12.2749 16.6667V16.6807L12.3357 16.7649C12.4051 16.8632 12.4745 16.9614 12.5353 17.0667C12.6054 17.1842 12.715 17.2834 12.8516 17.3529C12.9882 17.4224 13.1462 17.4594 13.3076 17.4597H15.7286C14.9563 17.5719 14.3402 17.8456 13.889 18.2667C12.5613 19.4807 13.1514 21.4597 13.377 22.0772V22.0983L13.4117 22.1474V22.1895L13.429 22.2035C13.6286 22.5895 13.6199 22.8632 13.5939 23.7544V23.9579C13.5505 25.3614 14.0365 26.379 14.4443 26.9965C14.8522 27.614 15.2166 27.993 16.1451 27.993C17.0736 27.993 17.5682 27.3544 17.6289 26.7649C17.655 26.5404 17.6637 26.3298 17.6637 26.0983C17.6634 25.5205 17.7687 24.9459 17.976 24.393C18.0848 24.0365 18.248 23.6923 18.462 23.3684C18.5848 23.2509 18.7478 23.1655 18.9306 23.1228C19.0607 23.1228 19.1909 23.2842 19.243 23.3544C19.4692 23.6686 19.6332 24.0096 19.7289 24.3649C19.8504 24.814 19.9285 25.3614 19.9805 25.7263L19.9979 25.8526C20.0326 26.0491 20.05 26.2176 20.0847 26.3509C20.345 27.4877 21.0392 28 21.5685 28C22.4276 28 22.7834 27.6912 23.2693 26.9965C23.7553 26.3018 24.0503 25.193 24.1197 24.014C24.1805 23.0246 24.328 22.6877 24.5796 22.1825C24.6065 22.1484 24.6243 22.1102 24.6317 22.0702C25.1263 20.6597 24.9875 19.3614 24.2585 18.5965C23.5296 17.8316 22.4102 17.5088 20.8743 17.5088H20.5967C20.4442 17.5095 20.2947 17.5431 20.1635 17.6059C20.0324 17.6688 19.9243 17.7588 19.8504 17.8667V16.4H18.1496V17.5298H18.0889C17.6089 17.4516 17.1206 17.4117 16.631 17.4105L16.2579 17.4246C16.5518 17.3649 16.8207 17.2431 17.0372 17.0717C17.2537 16.9003 17.41 16.6854 17.4901 16.4491C17.5101 16.3943 17.5218 16.3378 17.5248 16.2807V15.8877H17.5769L17.5422 15.6562H20.5012V16.2456C20.4983 16.3021 20.5041 16.3587 20.5186 16.414V16.4421C20.8049 17.2421 21.716 17.4526 22.2107 17.4526H24.5189C24.8052 17.4526 25.5081 17.3474 26.0114 16.3439C26.5147 15.3404 26.5928 14.8491 26.7056 13.5018V13.2211C26.6622 12.1193 26.1329 11.2983 25.0829 10.7158ZM16.631 17.7474C17.0914 17.7496 17.5505 17.7872 18.0021 17.8597L18.0541 17.8737L18.4707 17.979H18.4967L18.5488 17.9649C18.5601 17.9588 18.5693 17.9504 18.5754 17.9406C18.5814 17.9307 18.5842 17.9198 18.5835 17.9088V16.7509H19.4165V19.7895C19.4178 19.8037 19.4232 19.8174 19.4323 19.8296C19.4413 19.8417 19.4537 19.8521 19.4686 19.8597H19.5033C19.5147 19.86 19.5261 19.8582 19.5365 19.8546C19.547 19.851 19.5564 19.8455 19.564 19.8386L20.1194 19.3965L20.7095 19.8737L19.295 21.0105C19.2563 21.0419 19.2104 21.0669 19.1597 21.0839C19.1091 21.1009 19.0548 21.1096 19 21.1096C18.9452 21.1096 18.8909 21.1009 18.8403 21.0839C18.7896 21.0669 18.7437 21.0419 18.705 21.0105L17.2905 19.8737L17.8806 19.3965L18.436 19.8386C18.4436 19.8455 18.4529 19.851 18.4634 19.8546C18.4739 19.8582 18.4853 19.86 18.4967 19.8597H18.5314C18.5473 19.8531 18.5607 19.843 18.5699 19.8306C18.5791 19.8182 18.5838 19.804 18.5835 19.7895V18.7719C18.583 18.7567 18.5771 18.7419 18.5662 18.7294C18.5554 18.7169 18.5403 18.7073 18.5227 18.7018L17.8285 18.5193H17.8199C17.4256 18.455 17.0245 18.4221 16.6224 18.4211C15.8067 18.4211 15.2079 18.5965 14.8348 18.9404C14.0365 19.6772 14.3315 21.1228 14.5918 21.7825C14.8522 22.4421 14.8955 22.8632 14.8695 23.8667V23.986C14.8348 25.2351 15.286 26.0912 15.5637 26.4912C15.8414 26.8912 15.9108 26.9755 16.1538 26.9755C16.3967 26.9755 16.3707 26.7369 16.3707 26.6737C16.3953 26.4825 16.4069 26.2904 16.4054 26.0983V26.0842C16.4068 25.4211 16.5266 24.7617 16.7612 24.1263C16.9087 23.7193 17.0649 23.2702 17.3947 22.8351C17.7244 22.4 18.2537 22.0983 18.9132 22.0983H18.9566C19.2777 22.1053 19.8851 22.2035 20.345 22.8421C20.6404 23.2473 20.8542 23.6879 20.9785 24.1474C21.0984 24.6252 21.1882 25.1077 21.2475 25.593V25.607C21.2822 25.8526 21.3082 26.0421 21.3342 26.1614C21.4297 26.5614 21.5685 26.793 21.6727 26.9123C21.678 26.9215 21.6867 26.9291 21.6975 26.9341C21.7084 26.9391 21.7209 26.9413 21.7334 26.9404H21.7421C21.7515 26.9415 21.7611 26.9408 21.7702 26.9384C21.7792 26.9359 21.7874 26.9318 21.7941 26.9263C21.8896 26.8772 21.985 26.7649 22.176 26.4912C22.5404 25.9579 22.8094 24.9684 22.8615 23.9579C22.9309 22.814 23.1131 22.3719 23.4255 21.7825C23.8334 20.6176 23.7813 19.7544 23.2693 19.2281C22.7573 18.7018 21.664 18.5333 20.8743 18.5333H20.5967C20.4862 18.5333 20.3802 18.4979 20.3021 18.4347C20.224 18.3715 20.1801 18.2858 20.1801 18.1965C20.1823 18.1077 20.2269 18.0231 20.3046 17.9603C20.3822 17.8975 20.4869 17.8615 20.5967 17.8597H20.8743C22.2627 17.8597 23.3214 18.1895 23.9201 18.814C24.5189 19.4386 24.7098 20.5965 24.2152 21.993C24.2152 22.007 24.2065 22.014 24.1978 22.0281C23.9288 22.5544 23.7553 22.9333 23.6945 24C23.6338 25.0667 23.3387 26.1895 22.8962 26.8281C22.4536 27.4667 22.2193 27.6491 21.5772 27.6491C21.2648 27.6491 20.7355 27.2211 20.5186 26.2877C20.4838 26.1404 20.4578 25.9298 20.4231 25.6842C20.3624 25.2632 20.2843 24.7369 20.1628 24.2877C20.0574 23.8974 19.8758 23.5231 19.6248 23.179C19.4339 22.9123 19.1996 22.7719 18.9392 22.7719C18.6789 22.7719 18.2624 22.9825 18.1062 23.186C17.8372 23.5439 17.6897 23.9439 17.5682 24.2948C17.3502 24.8797 17.2391 25.4873 17.2385 26.0983C17.2385 26.2948 17.2298 26.4983 17.2038 26.7298C17.1604 27.1719 16.8133 27.6421 16.1538 27.6421C15.4943 27.6421 15.2426 27.4035 14.8348 26.8211C14.5224 26.3579 13.9931 25.3755 14.0365 23.9649V23.8456C14.0625 22.8562 14.0799 22.5193 13.8195 22.0351C13.8199 22.0313 13.8194 22.0275 13.8179 22.0239C13.8164 22.0202 13.814 22.0169 13.8109 22.014C13.7761 21.9158 12.8824 19.7193 14.21 18.4983C14.748 18 15.5637 17.7474 16.631 17.7474ZM26.2804 13.4877C26.1763 14.786 26.1329 15.1649 25.6122 16.2176C25.2044 17.0456 24.6751 17.1088 24.5276 17.1088H22.2193C21.8462 17.1088 21.1607 16.9474 20.9437 16.3509C20.9366 16.3209 20.9336 16.2902 20.9351 16.2597V15.5298C20.9363 15.4722 20.9151 15.4157 20.8743 15.3684C20.7978 15.3206 20.7017 15.298 20.6053 15.3053H17.412C17.3166 15.3053 17.1951 15.3193 17.143 15.3684C17.1009 15.4176 17.0824 15.4775 17.0909 15.5369H17.0823C17.0823 15.5509 17.0909 15.5579 17.0909 15.5719V16.2597C17.0894 16.2905 17.0836 16.3211 17.0736 16.3509C16.8567 16.9474 16.1711 17.1088 15.798 17.1088H13.3076C13.2275 17.1084 13.1492 17.0898 13.0816 17.055C13.0141 17.0203 12.9601 16.9708 12.9258 16.9123C12.8621 16.7988 12.7896 16.6886 12.7088 16.5825V16.5684C12.6222 16.4505 12.5439 16.3287 12.4745 16.2035C12.058 15.4176 11.8671 14.9263 11.7196 13.4948V13.2421C11.763 12.2386 12.2229 11.5228 13.1514 11.0035C13.7414 10.6807 14.5224 10.4702 15.4075 10.386H15.4509L16.7612 10.3719H16.7959C17.6029 10.4281 18.3492 10.5684 18.9132 10.779L18.9653 10.793H19.0347L19.0868 10.779C19.8157 10.5123 20.8223 10.3509 21.7768 10.3509H21.8115C23.0003 10.3509 24.0763 10.5825 24.8399 11.0035C25.7771 11.5228 26.237 12.2316 26.2804 13.2351V13.4877Z" fill="#161616"/>
</g>
<defs>
<clipPath id="clip0_116_4451">
<rect width="15.4286" height="18" fill="white" transform="translate(11.2857 10)"/>
</clipPath>
</defs>
</svg>
