<svg width="38" height="38" viewBox="0 0 38 38" fill="none" xmlns="http://www.w3.org/2000/svg">
<rect width="38" height="38" rx="19" transform="matrix(-1 0 0 1 38 0)" fill="#2D2D2D"/>
<path d="M25.1389 13.2521C25.0512 14.6041 25.0146 14.9988 24.5761 16.095C24.2326 16.9574 23.7868 17.0231 23.6626 17.0231H21.704C21.3898 17.0231 20.8124 16.8551 20.6297 16.2339C20.6237 16.2026 20.6212 16.1707 20.6224 16.1389V15.3788C20.623 15.3189 20.6051 15.2602 20.5713 15.2107C20.5055 15.1641 20.4248 15.1433 20.3447 15.1523H17.6553C17.5749 15.1523 17.4726 15.1669 17.4287 15.218C17.3931 15.2663 17.3774 15.3265 17.3849 15.3861H17.3776C17.3776 15.4007 17.3849 15.4153 17.3849 15.43V16.1462C17.3831 16.1782 17.3782 16.21 17.3703 16.2412C17.1876 16.8624 16.6102 17.0305 16.3033 17.0305H14.1985C14.1311 17.0301 14.0652 17.0107 14.0083 16.9745C13.9514 16.9383 13.9059 16.8867 13.877 16.8258C13.8185 16.7016 13.7527 16.5773 13.6943 16.475C13.6213 16.3522 13.5554 16.2253 13.497 16.095C13.1462 15.2765 12.9854 14.7576 12.8611 13.2741V13.011C12.8977 11.9586 13.285 11.2205 14.067 10.6797C14.5639 10.3435 15.2217 10.1169 15.9671 10.0365H16.0037L17.1072 10.0219H17.1364C17.8161 10.0731 18.4446 10.2266 18.9196 10.4458L18.9635 10.4604H19.0219L19.0658 10.4385C19.6797 10.1681 20.5201 10 21.3313 10H21.3605C22.3618 10 23.268 10.2412 23.9184 10.6724C24.7004 11.2205 25.0877 11.9586 25.1242 13.0037V13.2667L25.1389 13.2521Z" fill="#B9B9B9"/>
<path d="M23.3849 22.1023C23.3835 22.1178 23.3785 22.1328 23.3703 22.1461C23.1438 22.6943 22.9976 23.0889 22.9465 24.1924C22.8953 25.296 22.6468 26.4799 22.2741 27.1376C21.9014 27.7954 21.7114 28 21.1633 28C20.9002 28 20.4544 27.5615 20.2717 26.5822C20.2424 26.436 20.2205 26.2168 20.1913 25.961C20.1401 25.5225 20.0743 24.9744 19.972 24.5067C19.8814 24.1007 19.7286 23.7112 19.5189 23.352C19.3581 23.0743 19.1608 22.9281 18.9416 22.9208C18.7223 22.9135 18.3715 23.1474 18.24 23.3593C18.0061 23.732 17.8892 24.1413 17.7869 24.5067C17.6054 25.1188 17.5119 25.7537 17.5092 26.3922C17.5092 26.5968 17.5019 26.8014 17.48 27.0499C17.4434 27.5103 17.1511 28 16.5957 28C16.0402 28 15.8283 27.7515 15.4848 27.1376C15.2217 26.6626 14.7759 25.6321 14.8125 24.1705V24.0463C14.8344 23.0085 14.849 22.665 14.6298 22.1535V22.1388C14.6005 22.0365 13.8478 19.7491 14.9659 18.4701C15.419 17.9513 16.106 17.6882 17.0049 17.6882C17.3929 17.6932 17.7795 17.7348 18.1596 17.8124H18.2035L18.5542 17.9293H18.5762C18.5841 17.9305 18.5922 17.9298 18.5998 17.9273C18.6075 17.9247 18.6144 17.9204 18.62 17.9147C18.6419 17.9074 18.6493 17.8782 18.6493 17.8563V16.6577H19.3508V17.922L20.5713 17.8051C21.7406 17.8051 22.6322 18.1486 23.1365 18.799C23.6407 19.4494 23.8015 20.648 23.3849 22.1023Z" fill="#B9B9B9"/>
</svg>
