<svg width="60" height="60" viewBox="0 0 60 60" fill="none" xmlns="http://www.w3.org/2000/svg">
<rect width="60" height="60" rx="30" fill="white"/>
<path d="M41.5554 18.7042C41.38 21.4082 41.3069 22.1975 40.43 24.39C39.743 26.1147 38.8514 26.2462 38.6029 26.2462H34.6857C34.0572 26.2462 32.9026 25.9101 32.5371 24.6677C32.525 24.6051 32.5201 24.5413 32.5225 24.4777V22.9576C32.5237 22.8377 32.488 22.7203 32.4202 22.6214C32.2886 22.5282 32.1274 22.4866 31.9671 22.5045H26.5883C26.4275 22.5045 26.2229 22.5337 26.1352 22.636C26.0639 22.7326 26.0325 22.853 26.0475 22.9722H26.0329C26.0329 23.0014 26.0475 23.0306 26.0475 23.0599V24.4923C26.0438 24.5564 26.034 24.62 26.0183 24.6823C25.6529 25.9247 24.4982 26.2609 23.8843 26.2609H19.6748C19.5399 26.2601 19.408 26.2213 19.2943 26.1489C19.1805 26.0765 19.0895 25.9734 19.0317 25.8516C18.9147 25.6031 18.7832 25.3546 18.6663 25.15C18.5203 24.9044 18.3886 24.6506 18.2716 24.39C17.57 22.7529 17.2485 21.7152 17 18.7481V18.2219C17.0731 16.1171 17.8477 14.6409 19.4117 13.5593C20.4056 12.8869 21.7211 12.4338 23.2119 12.273H23.285L25.4921 12.2438H25.5505C26.9099 12.3461 28.1669 12.6531 29.1169 13.0915L29.2046 13.1208H29.3216L29.4093 13.0769C30.637 12.5361 32.3179 12.2 33.9403 12.2H33.9988C36.0012 12.2 37.8136 12.6823 39.1145 13.5447C40.6784 14.6409 41.4531 16.1171 41.5262 18.2073V18.7334L41.5554 18.7042Z" fill="#161616"/>
<path d="M38.0475 36.4045C38.0446 36.4356 38.0346 36.4656 38.0183 36.4922C37.5652 37.5885 37.2728 38.3777 37.1705 40.5848C37.0682 42.7919 36.5713 45.1597 35.8258 46.4752C35.0804 47.7907 34.7004 48.1999 33.6041 48.1999C33.078 48.1999 32.1864 47.3229 31.821 45.3643C31.7625 45.072 31.7186 44.6335 31.6602 44.122C31.5579 43.245 31.4263 42.1488 31.2217 41.2133C31.0405 40.4014 30.7348 39.6224 30.3155 38.9039C29.9939 38.3485 29.5993 38.0562 29.1608 38.0416C28.7223 38.027 28.0207 38.4947 27.7576 38.9185C27.2899 39.664 27.056 40.4825 26.8514 41.2133C26.4883 42.4376 26.3013 43.7073 26.296 44.9843C26.296 45.3936 26.2814 45.8028 26.2375 46.2998C26.1644 47.2206 25.5798 48.1999 24.4689 48.1999C23.3581 48.1999 22.9342 47.703 22.2473 46.4752C21.7211 45.5251 20.8295 43.4642 20.9026 40.541V40.2925C20.9464 38.217 20.9756 37.53 20.5372 36.5069V36.4776C20.4787 36.273 18.9732 31.6981 21.2095 29.1402C22.1157 28.1025 23.4897 27.5763 25.2875 27.5763C26.0634 27.5863 26.8366 27.6695 27.5968 27.8248H27.6845L28.3861 28.0586H28.43C28.4459 28.061 28.4621 28.0596 28.4773 28.0545C28.4925 28.0494 28.5064 28.0408 28.5177 28.0294C28.5615 28.0148 28.5761 27.9563 28.5761 27.9125V25.5154H29.9793V28.044L32.4202 27.8101C34.7588 27.8101 36.542 28.4971 37.5506 29.798C38.5591 31.0988 38.8806 33.4959 38.0475 36.4045Z" fill="#161616"/>
</svg>
