<svg width="60" height="60" viewBox="0 0 60 60" fill="none" xmlns="http://www.w3.org/2000/svg">
<rect width="60" height="60" rx="30" fill="#353434"/>
<path d="M33.0369 17.4174L36.59 15.5379L35.4571 19.2326L35.4185 19.9921L38.1863 19.5673L40.1816 23.2748L38.4309 24.0987L39.7954 25.5406L43.1425 23.5709L44.1467 27.0596L43.5416 28.4371L46.3995 28.7975L46.7471 28.2697L46.8243 28.141C48.0473 25.7594 48.3434 23.262 47.5839 20.6744C47.365 19.9535 47.0432 19.2712 46.76 18.5632C46.6035 18.121 46.3822 17.7045 46.1034 17.3273C45.1379 15.9885 43.5931 15.1002 42.074 14.4952C41.5462 14.2892 41.0313 14.1218 40.5292 13.9802L39.8598 13.8515C39.538 13.8257 39.2161 13.8 38.8943 13.8C37.1412 13.8167 35.4265 14.3155 33.938 15.2418C33.7427 15.3515 33.5536 15.4718 33.3716 15.6023H33.3587C32.9094 15.9149 32.4795 16.2545 32.0714 16.6193L31.9941 16.6708L33.0369 17.4174Z" fill="white"/>
<path d="M42.589 28.9649L43.4644 27.021L42.7564 24.5364L39.6796 26.3516L37.3624 23.8927L39.2934 22.9916L37.8387 20.2753L34.7362 20.7516L34.8264 19.1167L35.5215 16.8381L32.9983 18.1641L31.4793 17.1084C30.3335 18.0868 29.677 18.7305 29.677 18.7305C29.5808 18.4967 29.4554 18.2761 29.3037 18.0739C28.4553 17.0827 27.4716 16.216 26.3814 15.4993C24.4375 14.2377 22.3263 13.5811 20.009 13.8772C16.8293 14.2892 14.5636 16.0528 13.0831 18.8206L13.0059 18.9493C12.1176 20.3783 12.0404 21.0348 12.0018 22.0003C12.0009 22.0394 12.0052 22.0783 12.0146 22.1162C12.0146 23.056 11.9632 24.0086 12.0533 24.9484C12.2592 26.7378 13.0831 28.2954 13.9843 29.8145C14.6408 30.8959 15.3617 31.9386 16.0183 33.0071C16.7907 34.3073 17.473 35.6591 17.679 37.1781C17.8463 38.3239 17.8721 39.4953 17.9622 40.6668C18.078 42.2116 18.4642 43.6921 19.404 44.9665C20.9359 47.052 23.7681 46.9748 25.197 44.8249C25.503 44.3847 25.7457 43.9037 25.9179 43.396C26.4071 41.8254 26.8062 40.242 27.3083 38.6843C27.5657 37.899 27.8618 37.1009 28.2995 36.4057C29.1492 35.1184 30.7455 35.1441 31.6209 36.4057C31.9055 36.812 32.1269 37.259 32.2774 37.7317C32.6379 38.8645 32.9468 39.9974 33.2558 41.1431C33.5648 42.2889 33.9381 43.6792 34.6848 44.7992C35.4314 45.9192 36.7188 46.6272 38.2378 46.4084C39.3707 46.2539 40.1431 45.5458 40.7353 44.619C41.5849 43.2672 41.8939 41.7739 41.9711 40.2034C42.0226 39.2121 42.1127 38.2209 42.2157 37.2296C42.4217 35.2214 44.7775 31.3207 46.0134 29.3897L42.589 28.9649Z" fill="white"/>
</svg>
