<svg width="38" height="38" viewBox="0 0 38 38" fill="none" xmlns="http://www.w3.org/2000/svg">
<rect width="38" height="38" rx="19" transform="matrix(-1 0 0 1 38 0)" fill="#2D2D2D"/>
<path d="M20.5184 12.6373L22.295 11.6976L21.7285 13.5449L21.7092 13.9247L23.0931 13.7123L24.0908 15.566L23.2154 15.978L23.8977 16.6989L25.5713 15.7141L26.0733 17.4584L25.7708 18.1472L27.1998 18.3274L27.3736 18.0635L27.4122 17.9991C28.0237 16.8083 28.1717 15.5596 27.7919 14.2658C27.6825 13.9054 27.5216 13.5642 27.38 13.2102C27.3018 12.9891 27.1911 12.7809 27.0517 12.5923C26.569 11.9229 25.7966 11.4787 25.037 11.1762C24.7731 11.0732 24.5156 10.9895 24.2646 10.9187L23.9299 10.8544C23.769 10.8415 23.6081 10.8286 23.4472 10.8286C22.5706 10.8369 21.7133 11.0864 20.969 11.5495C20.8714 11.6043 20.7768 11.6645 20.6858 11.7298H20.6794C20.4547 11.8861 20.2397 12.0559 20.0357 12.2383L19.9971 12.264L20.5184 12.6373Z" fill="#B9B9B9"/>
<path d="M25.2945 18.4111L25.7322 17.4391L25.3782 16.1968L23.8398 17.1044L22.6812 15.875L23.6467 15.4244L22.9194 14.0663L21.3681 14.3044L21.4132 13.487L21.7608 12.3477L20.4992 13.0107L19.7396 12.4828C19.1668 12.972 18.8385 13.2939 18.8385 13.2939C18.7904 13.177 18.7277 13.0667 18.6518 12.9656C18.2277 12.47 17.7358 12.0366 17.1907 11.6783C16.2188 11.0475 15.1631 10.7192 14.0045 10.8672C12.4147 11.0732 11.2818 11.955 10.5416 13.3389L10.503 13.4033C10.0588 14.1178 10.0202 14.446 10.0009 14.9288C10.0004 14.9483 10.0026 14.9678 10.0073 14.9867C10.0073 15.4566 9.98158 15.9329 10.0266 16.4028C10.1296 17.2975 10.5416 18.0763 10.9921 18.8359C11.3204 19.3766 11.6809 19.8979 12.0091 20.4322C12.3953 21.0823 12.7365 21.7582 12.8395 22.5177C12.9232 23.0906 12.936 23.6763 12.9811 24.262C13.039 25.0344 13.2321 25.7747 13.702 26.4119C14.468 27.4547 15.884 27.416 16.5985 26.3411C16.7515 26.121 16.8729 25.8805 16.959 25.6266C17.2036 24.8413 17.4031 24.0496 17.6541 23.2708C17.7829 22.8781 17.9309 22.4791 18.1498 22.1315C18.5746 21.4878 19.3728 21.5007 19.8104 22.1315C19.9528 22.3346 20.0635 22.5581 20.1387 22.7945C20.3189 23.3609 20.4734 23.9273 20.6279 24.5002C20.7824 25.0731 20.9691 25.7682 21.3424 26.3282C21.7157 26.8882 22.3594 27.2422 23.1189 27.1328C23.6854 27.0556 24.0716 26.7016 24.3676 26.2381C24.7925 25.5623 24.947 24.8156 24.9856 24.0303C25.0113 23.5347 25.0564 23.0391 25.1079 22.5434C25.2109 21.5393 26.3888 19.589 27.0067 18.6235L25.2945 18.4111Z" fill="#B9B9B9"/>
</svg>
