<svg width="60" height="60" viewBox="0 0 60 60" fill="none" xmlns="http://www.w3.org/2000/svg">
<rect width="60" height="60" rx="30" fill="#353434"/>
<path d="M12.3 20.6917C12.316 17.5941 13.2261 15.3108 15.3178 13.5544C17.4095 11.798 20.5231 11.4787 22.998 13.2191C23.6207 13.6662 24.2274 14.1452 24.8342 14.6082C25.4409 15.0713 26.4628 15.5343 27.4528 15.4705C28.0394 15.4517 28.6091 15.2692 29.0974 14.9436C29.7361 14.5124 30.3588 14.0494 30.9655 13.5864C31.9076 12.8678 32.9295 12.293 34.111 12.0855C35.8674 11.798 37.4322 12.2451 38.8213 13.283C40.5937 14.5923 41.6315 16.3646 42.0467 18.5042C42.0786 18.6958 42.0626 18.8555 41.871 18.9513C41.4239 19.2227 40.9609 19.4782 40.5298 19.7656C40.4021 19.8454 40.2264 20.0051 40.2424 20.1009C40.2584 20.1967 40.4021 20.4043 40.5298 20.4841C40.9769 20.7715 41.4399 21.043 41.903 21.3144C41.983 21.3581 42.0456 21.4279 42.0805 21.5121C42.1153 21.5964 42.1203 21.69 42.0946 21.7775C41.7339 24.0526 41.211 26.2991 40.5298 28.4996C39.7634 31.1182 38.9171 33.7368 38.1188 36.3554C37.322 38.9842 36.8239 41.6944 36.6338 44.4347C36.5871 45.1934 36.4749 45.9466 36.2985 46.686C36.0271 47.8836 35.2926 48.2508 34.127 47.8357C33.625 47.669 33.2072 47.3141 32.9614 46.8457C32.6597 46.2935 32.3931 45.7229 32.1631 45.1372C31.5563 43.6523 30.9975 42.1674 30.4226 40.6984C30.1573 39.9786 29.7314 39.3288 29.1772 38.7983C28.6592 38.2984 27.9683 38.0178 27.2484 38.0148C26.5285 38.0118 25.8353 38.2868 25.3132 38.7824C24.7428 39.3307 24.3058 40.0026 24.0358 40.7463C23.4131 42.327 22.8223 43.9237 22.1837 45.4885C21.9711 46.0227 21.7092 46.5358 21.4013 47.0214C20.9063 47.7718 20.1558 48.0432 19.2617 47.9474C19.0509 47.9401 18.8482 47.8645 18.6841 47.732C18.52 47.5996 18.4033 47.4174 18.3516 47.213C18.1567 46.5715 18.0178 45.9144 17.9364 45.249C17.7129 43.2691 17.5692 41.2572 17.1221 39.3093C16.5633 36.8823 15.7968 34.5351 15.0464 32.172C14.0724 29.0904 13.1623 25.9768 12.5715 22.7993C12.4118 21.9691 12.3479 21.1228 12.3 20.6917ZM20.3315 29.8408C20.7466 29.8248 20.7786 29.5853 20.8265 29.3618C21.1777 27.6533 22.0719 26.36 23.6846 25.6095C23.8283 25.5457 24.0039 25.37 24.0039 25.2423C24.0039 25.1146 23.8283 24.9389 23.6846 24.8751C22.6786 24.412 21.8803 23.7254 21.4013 22.7355C21.1516 22.1675 20.9487 21.5801 20.7945 20.9791C20.7306 20.7875 20.6348 20.6278 20.4432 20.6598C20.2516 20.6917 20.2037 20.8514 20.1079 20.9791C20.0121 21.1068 20.076 21.1228 20.06 21.2026C19.6768 22.8632 18.7827 24.1406 17.2179 24.8751C17.1398 24.91 17.0697 24.9606 17.012 25.0238C16.9543 25.0869 16.9103 25.1613 16.8826 25.2423C16.8187 25.4499 17.0263 25.5457 17.2019 25.6255C18.2536 26.0689 19.102 26.8888 19.581 27.9248C19.8046 28.4197 19.9163 28.9786 20.1079 29.4895C20.1714 29.6133 20.2462 29.7309 20.3315 29.8408ZM13.6572 20.3564C13.7371 20.9472 13.801 21.5379 13.8968 22.1128C13.9258 22.1783 13.9676 22.2375 14.0197 22.2868C14.0718 22.3362 14.1331 22.3747 14.2001 22.4002C14.2959 22.4321 14.4556 22.3363 14.5354 22.2405C14.5731 22.1326 14.5786 22.0162 14.5514 21.9052C14.309 20.8195 14.3309 19.6914 14.6153 18.616C14.7787 18.0615 14.976 17.5176 15.2061 16.9873C15.3019 16.7638 15.3019 16.5882 15.0943 16.4764C14.8867 16.3646 14.7111 16.4445 14.5993 16.652L14.4556 16.9394C13.9676 18.0149 13.6963 19.176 13.6572 20.3564ZM39.2365 16.7957C39.1886 16.652 39.1407 16.5562 39.1087 16.4604C38.3902 15.0234 37.2086 14.225 35.7077 13.7939C35.4842 13.7301 35.2766 13.746 35.1808 14.0175C35.085 14.2889 35.2447 14.3847 35.5481 14.4805C36.8733 14.8637 37.9272 15.5663 38.5179 16.8596C38.5499 16.9235 38.5818 17.0033 38.6297 17.0193C38.6822 17.0499 38.7403 17.07 38.8006 17.0782C38.8609 17.0864 38.9222 17.0827 38.981 17.0672C39.0928 17.0352 39.1566 16.8915 39.2365 16.7957Z" fill="white"/>
<path d="M44.4576 16.4285C45.0644 18.0411 46.0384 19.2706 47.5233 20.1169C46.0543 20.9631 45.0644 22.1926 44.4576 23.8052C43.8509 22.2085 42.8769 20.9631 41.376 20.1328C42.8609 19.2866 43.8349 18.0571 44.4576 16.4285Z" fill="white"/>
<path d="M18.0161 25.2422C19.1273 24.5795 19.9824 23.5612 20.4431 22.3522C20.9038 23.5612 21.7589 24.5795 22.8701 25.2422C21.7597 25.9059 20.9049 26.9239 20.4431 28.1322C19.9322 26.9028 19.1817 25.9288 18.0161 25.2422Z" fill="white"/>
</svg>
