<svg width="35" height="34" viewBox="0 0 35 34" fill="none" xmlns="http://www.w3.org/2000/svg">
<g clip-path="url(#clip0_173_5699)">
<path d="M28.6734 11.2329C27.011 6.7861 21.9373 5.44173 18.4395 8.02705C17.7295 8.54412 17.2446 8.50965 16.4827 7.97535C15.7342 7.41747 14.8712 7.03089 13.9552 6.8432C13.0393 6.65551 12.093 6.67132 11.184 6.88951C8.0151 7.63064 5.83325 10.5262 5.83325 14.3869C5.85001 15.2748 6.04563 16.1502 6.40851 16.9614C6.77139 17.7726 7.29415 18.503 7.94583 19.1095C9.01944 20.1608 9.48698 21.3501 9.48698 22.8323C9.48698 25.4694 10.5606 27.6755 12.4654 29.4852C12.9849 29.9678 13.5736 30.1919 14.2489 29.8816C14.9243 29.5714 15.1148 29.0199 15.1667 28.3132C15.2706 26.8654 15.3918 25.4177 15.6169 24.0043C15.7476 23.0128 16.1158 22.067 16.6905 21.2467C17.2446 20.4538 17.7815 20.4366 18.3183 21.2467C18.6182 21.7375 18.8676 22.2572 19.0629 22.7979C19.6862 24.5731 19.8421 26.4345 19.8421 28.3132C19.8421 29.0371 20.0845 29.5886 20.7598 29.8816C21.4352 30.1747 22.0239 29.9678 22.5434 29.4852C24.5175 27.6238 25.5391 25.3487 25.5391 22.6427C25.5242 22.011 25.6412 21.3831 25.8826 20.7986C26.124 20.2142 26.4847 19.6859 26.9417 19.2474C29.2102 16.955 29.7816 14.2146 28.6734 11.2329ZM12.6212 10.4573C10.9935 10.5779 9.90256 11.6637 9.74672 13.3011C9.7294 13.6458 9.64282 13.9733 9.26186 14.025C9.01938 14.0326 8.78343 13.9461 8.60385 13.7837C8.48264 13.6631 8.48264 13.4045 8.43069 13.1977C8.56922 11.0605 10.4221 9.23354 12.5519 9.19906C13.0541 9.18183 13.3312 9.38866 13.3485 9.78507C13.3658 10.1815 13.1061 10.4228 12.6212 10.4573Z" fill="white"/>
<path d="M34.0101 29.1922C33.6637 29.106 33.3001 29.0371 32.9538 28.9337C32.5824 28.8407 32.2425 28.6513 31.9688 28.3848C31.695 28.1184 31.4971 27.7844 31.3953 27.4169C31.2914 27.055 31.2222 26.6931 31.1183 26.3311C31.0934 26.1805 31.0151 26.0437 30.8975 25.9456C30.7799 25.8476 30.6309 25.7948 30.4776 25.7968C30.3308 25.7953 30.1884 25.8469 30.0769 25.942C29.9655 26.0371 29.8925 26.1692 29.8715 26.3139L29.6117 27.3308C29.5194 27.713 29.3238 28.0628 29.0461 28.3423C28.7683 28.6219 28.419 28.8204 28.036 28.9164C27.6896 29.0198 27.3087 29.0543 26.9797 29.2094C26.747 29.3384 26.5687 29.5464 26.4775 29.7954C26.3909 30.1229 26.6507 30.3642 26.9797 30.4504L27.9494 30.6745C28.3599 30.768 28.7347 30.9769 29.0294 31.2764C29.3241 31.5758 29.5262 31.9531 29.6117 32.3635C29.6776 32.7035 29.7703 33.0377 29.8888 33.3632C29.9927 33.57 30.2178 33.7251 30.4949 34.0009C30.7546 33.7251 30.9797 33.5528 31.0836 33.3287C31.1986 33.0152 31.2855 32.6922 31.3434 32.3635C31.4383 31.9414 31.654 31.5557 31.9643 31.2529C32.2747 30.9502 32.6664 30.7433 33.0923 30.6572L34.0101 30.4332C34.1504 30.4 34.2753 30.3207 34.3648 30.2081C34.4542 30.0955 34.5028 29.9562 34.5028 29.8127C34.5028 29.6692 34.4542 29.5298 34.3648 29.4172C34.2753 29.3046 34.1504 29.2253 34.0101 29.1922ZM30.4776 30.7434L29.5079 29.8127L30.5122 28.8647L31.43 29.7782L30.4776 30.7434Z" fill="white"/>
<path d="M8.06807 3.35525L7.09835 3.11395C6.68602 3.02882 6.30692 2.82765 6.00609 2.53434C5.70527 2.24102 5.49538 1.86791 5.40137 1.45935C5.33549 1.11941 5.24285 0.78516 5.12431 0.459687C5.06685 0.344697 4.9908 0.239888 4.89919 0.149449C4.84816 0.100534 4.78791 0.0621572 4.72191 0.0365309C4.65591 0.0109045 4.58546 -0.00146428 4.51463 0.000137945C4.4438 0.00174017 4.37399 0.0172813 4.30923 0.0458658C4.24446 0.0744503 4.18603 0.115512 4.13728 0.166685C4.04719 0.258408 3.97133 0.362967 3.91217 0.476924C3.7972 0.802191 3.71031 1.13662 3.65243 1.47658C3.55936 1.86779 3.35985 2.22593 3.07577 2.51172C2.7917 2.79751 2.43404 2.99991 2.04202 3.09672L1.07231 3.33801C0.725982 3.42419 0.483555 3.61378 0.500872 3.99296C0.518188 4.37214 0.725982 4.52726 1.05499 4.61344L1.97275 4.8375C2.89051 5.06156 3.44463 5.64757 3.66974 6.54382L3.91217 7.509C3.99875 7.81924 4.24118 8.0433 4.55287 7.97436C4.79703 7.88986 5.00078 7.71779 5.12431 7.49177C5.28015 7.18153 5.31478 6.80235 5.41868 6.45764C5.50718 6.06615 5.70549 5.7077 5.99057 5.42396C6.27564 5.14021 6.63577 4.94282 7.02909 4.85474C7.37542 4.75132 7.73906 4.73409 8.03343 4.57897C8.27151 4.44841 8.45097 4.23283 8.5356 3.97573C8.60487 3.68272 8.37976 3.44143 8.06807 3.35525ZM4.51824 4.92368L3.58316 3.99296L4.53555 3.04501L5.47063 3.99296L4.51824 4.92368Z" fill="white"/>
<path d="M31.9643 21.2288C31.9643 20.9774 32.0646 20.7363 32.2432 20.5585C32.4218 20.3808 32.6641 20.2809 32.9167 20.2809C33.1695 20.2851 33.4111 20.3859 33.5916 20.5623C33.772 20.7387 33.8775 20.9773 33.8864 21.2288C33.8864 21.357 33.8607 21.484 33.8109 21.6022C33.7611 21.7205 33.6881 21.8276 33.5963 21.9175C33.5044 22.0073 33.3954 22.0781 33.2758 22.1256C33.1561 22.173 33.0281 22.1963 32.8993 22.194C32.7743 22.1918 32.6509 22.165 32.5362 22.1153C32.4215 22.0656 32.3178 21.9939 32.2309 21.9042C32.1441 21.8146 32.0759 21.7088 32.0301 21.5929C31.9843 21.4771 31.962 21.3533 31.9643 21.2288Z" fill="white"/>
<path d="M15.5138 3.95928C15.3881 3.95937 15.2636 3.9342 15.1478 3.88529C15.0321 3.83637 14.9274 3.76472 14.8401 3.67461C14.7528 3.5845 14.6847 3.47779 14.6398 3.36086C14.5949 3.24393 14.5741 3.11919 14.5788 2.99409C14.5832 2.74407 14.685 2.50551 14.8626 2.32869C15.0403 2.15186 15.28 2.05057 15.5312 2.04614C15.6608 2.04839 15.7887 2.07603 15.9076 2.12748C16.0265 2.17894 16.134 2.2532 16.2241 2.34603C16.3141 2.43886 16.3849 2.54844 16.4324 2.66851C16.4799 2.78858 16.5032 2.91678 16.5009 3.0458C16.4964 3.17031 16.4673 3.29273 16.4153 3.40605C16.3632 3.51936 16.2893 3.62136 16.1976 3.7062C16.1059 3.79104 15.9984 3.85706 15.881 3.90049C15.7637 3.94391 15.6389 3.96389 15.5138 3.95928Z" fill="white"/>
<path d="M5.5046 24.6926C5.25033 24.6972 5.00439 24.6023 4.81976 24.4282C4.63514 24.2541 4.52662 24.0148 4.51758 23.7618C4.51758 23.5013 4.62157 23.2514 4.80667 23.0672C4.99177 22.8829 5.24283 22.7794 5.5046 22.7794C5.75877 22.7839 6.001 22.8876 6.17912 23.0681C6.35725 23.2487 6.45704 23.4916 6.457 23.7446C6.457 23.996 6.35665 24.2371 6.17805 24.4149C5.99944 24.5927 5.75719 24.6926 5.5046 24.6926Z" fill="white"/>
</g>
<defs>
<clipPath id="clip0_173_5699">
<rect width="34" height="34" fill="white" transform="translate(0.5 0.00012207)"/>
</clipPath>
</defs>
</svg>
