<svg width="34" height="34" viewBox="0 0 34 34" fill="none" xmlns="http://www.w3.org/2000/svg">
<g clip-path="url(#clip0_1712_10220)">
<path d="M28.1721 11.2325C26.5098 6.78573 21.4361 5.44136 17.9382 8.02669C17.2283 8.54375 16.7434 8.50928 15.9815 7.97498C15.233 7.4171 14.3699 7.03053 13.454 6.84283C12.5381 6.65514 11.5918 6.67095 10.6827 6.88914C7.51388 7.63027 5.33203 10.5258 5.33203 14.3866C5.34879 15.2744 5.5444 16.1498 5.90729 16.961C6.27017 17.7722 6.79293 18.5027 7.44461 19.1091C8.51822 20.1605 8.98575 21.3497 8.98575 22.832C8.98575 25.469 10.0594 27.6751 11.9641 29.4849C12.4836 29.9675 13.0724 30.1915 13.7477 29.8813C14.4231 29.571 14.6135 29.0195 14.6655 28.3129C14.7694 26.8651 14.8906 25.4173 15.1157 24.004C15.2464 23.0124 15.6146 22.0666 16.1893 21.2463C16.7434 20.4535 17.2802 20.4362 17.817 21.2463C18.117 21.7372 18.3664 22.2568 18.5616 22.7975C19.185 24.5728 19.3409 26.4342 19.3409 28.3129C19.3409 29.0367 19.5833 29.5883 20.2586 29.8813C20.934 30.1743 21.5227 29.9675 22.0422 29.4849C24.0162 27.6234 25.0379 25.3483 25.0379 22.6424C25.023 22.0106 25.14 21.3827 25.3814 20.7982C25.6228 20.2138 25.9835 19.6856 26.4405 19.247C28.7089 16.9547 29.2804 14.2142 28.1721 11.2325ZM12.12 10.4569C10.4923 10.5775 9.40134 11.6634 9.2455 13.3007C9.22818 13.6455 9.1416 13.9729 8.76064 14.0246C8.51816 14.0322 8.28221 13.9457 8.10263 13.7833C7.98141 13.6627 7.98141 13.4042 7.92947 13.1973C8.068 11.0601 9.92083 9.23317 12.0507 9.1987C12.5529 9.18146 12.83 9.38829 12.8473 9.78471C12.8646 10.1811 12.6048 10.4224 12.12 10.4569Z" fill="black" style="fill:black;fill-opacity:1;"/>
<path d="M33.5103 29.1923C33.164 29.1061 32.8004 29.0372 32.454 28.9338C32.0827 28.8408 31.7428 28.6514 31.469 28.3849C31.1952 28.1185 30.9973 27.7845 30.8956 27.4171C30.7917 27.0551 30.7224 26.6932 30.6185 26.3312C30.5936 26.1806 30.5153 26.0438 30.3977 25.9458C30.2802 25.8477 30.1312 25.7949 29.9778 25.7969C29.831 25.7954 29.6886 25.847 29.5772 25.9421C29.4657 26.0372 29.3927 26.1694 29.3717 26.314L29.112 27.3309C29.0197 27.7131 28.8241 28.063 28.5463 28.3425C28.2685 28.622 27.9192 28.8205 27.5362 28.9166C27.1899 29.02 26.8089 29.0544 26.4799 29.2096C26.2472 29.3385 26.069 29.5465 25.9778 29.7956C25.8912 30.123 26.1509 30.3643 26.4799 30.4505L27.4496 30.6746C27.8601 30.7681 28.235 30.9771 28.5297 31.2765C28.8243 31.5759 29.0265 31.9532 29.112 32.3636C29.1779 32.7036 29.2705 33.0378 29.3891 33.3633C29.493 33.5701 29.7181 33.7253 29.9951 34.001C30.2549 33.7253 30.48 33.5529 30.5839 33.3288C30.6988 33.0153 30.7857 32.6924 30.8436 32.3636C30.9386 31.9416 31.1542 31.5558 31.4646 31.2531C31.7749 30.9503 32.1667 30.7434 32.5926 30.6573L33.5103 30.4333C33.6506 30.4001 33.7756 30.3209 33.865 30.2083C33.9544 30.0957 34.0031 29.9563 34.0031 29.8128C34.0031 29.6693 33.9544 29.5299 33.865 29.4173C33.7756 29.3047 33.6506 29.2255 33.5103 29.1923ZM29.9778 30.7435L29.0081 29.8128L30.0124 28.8648L30.9302 29.7783L29.9778 30.7435Z" fill="black" style="fill:black;fill-opacity:1;"/>
<path d="M7.56807 3.35525L6.59835 3.11395C6.18602 3.02882 5.80692 2.82765 5.50609 2.53434C5.20527 2.24102 4.99538 1.86791 4.90137 1.45935C4.83549 1.11941 4.74285 0.78516 4.62431 0.459687C4.56685 0.344697 4.4908 0.239888 4.39919 0.149449C4.34816 0.100534 4.28791 0.0621572 4.22191 0.0365309C4.15591 0.0109045 4.08546 -0.00146428 4.01463 0.000137945C3.9438 0.00174017 3.87399 0.0172813 3.80923 0.0458658C3.74446 0.0744503 3.68603 0.115512 3.63728 0.166685C3.54719 0.258408 3.47133 0.362967 3.41217 0.476924C3.2972 0.802191 3.21031 1.13662 3.15243 1.47658C3.05936 1.86779 2.85985 2.22593 2.57577 2.51172C2.2917 2.79751 1.93404 2.99991 1.54202 3.09672L0.572307 3.33801C0.225982 3.42419 -0.0164446 3.61378 0.000871675 3.99296C0.0181879 4.37214 0.225982 4.52726 0.554991 4.61344L1.47275 4.8375C2.39051 5.06156 2.94463 5.64757 3.16974 6.54382L3.41217 7.509C3.49875 7.81924 3.74118 8.0433 4.05287 7.97436C4.29703 7.88986 4.50078 7.71779 4.62431 7.49177C4.78015 7.18153 4.81478 6.80235 4.91868 6.45764C5.00718 6.06615 5.20549 5.7077 5.49057 5.42396C5.77564 5.14021 6.13577 4.94282 6.52909 4.85474C6.87542 4.75132 7.23906 4.73409 7.53343 4.57897C7.77151 4.44841 7.95097 4.23283 8.0356 3.97573C8.10487 3.68272 7.87976 3.44143 7.56807 3.35525ZM4.01824 4.92368L3.08316 3.99296L4.03555 3.04501L4.97063 3.99296L4.01824 4.92368Z" fill="black" style="fill:black;fill-opacity:1;"/>
<path d="M31.465 21.2292C31.465 20.9778 31.5653 20.7367 31.744 20.5589C31.9226 20.3811 32.1648 20.2813 32.4174 20.2812C32.6703 20.2855 32.9119 20.3862 33.0923 20.5626C33.2727 20.739 33.3783 20.9776 33.3871 21.2292C33.3871 21.3574 33.3615 21.4843 33.3117 21.6026C33.2619 21.7208 33.1889 21.828 33.097 21.9179C33.0051 22.0077 32.8962 22.0784 32.7765 22.1259C32.6568 22.1734 32.5289 22.1967 32.4001 22.1944C32.275 22.1921 32.1516 22.1654 32.0369 22.1157C31.9222 22.066 31.8185 21.9942 31.7317 21.9046C31.6448 21.815 31.5766 21.7092 31.5308 21.5933C31.4851 21.4774 31.4627 21.3537 31.465 21.2292Z" fill="black" style="fill:black;fill-opacity:1;"/>
<path d="M15.0138 3.96001C14.8881 3.9601 14.7636 3.93493 14.6478 3.88602C14.5321 3.83711 14.4274 3.76545 14.3401 3.67534C14.2528 3.58523 14.1847 3.47852 14.1398 3.36159C14.0949 3.24466 14.0741 3.11992 14.0788 2.99483C14.0832 2.7448 14.185 2.50624 14.3626 2.32942C14.5403 2.15259 14.78 2.0513 15.0312 2.04688C15.1608 2.04912 15.2887 2.07676 15.4076 2.12821C15.5265 2.17967 15.634 2.25393 15.7241 2.34676C15.8141 2.43959 15.8849 2.54917 15.9324 2.66924C15.9799 2.78931 16.0032 2.91751 16.0009 3.04653C15.9964 3.17105 15.9673 3.29346 15.9153 3.40678C15.8632 3.5201 15.7893 3.62209 15.6976 3.70693C15.6059 3.79177 15.4984 3.85779 15.381 3.90122C15.2637 3.94464 15.1389 3.96462 15.0138 3.96001Z" fill="black" style="fill:black;fill-opacity:1;"/>
<path d="M5.00265 24.6924C4.74838 24.6971 4.50243 24.6022 4.31781 24.4281C4.13319 24.254 4.02466 24.0147 4.01562 23.7617C4.01563 23.5012 4.11962 23.2513 4.30472 23.067C4.48982 22.8828 4.74087 22.7793 5.00265 22.7793C5.25682 22.7838 5.49904 22.8875 5.67717 23.068C5.8553 23.2485 5.95508 23.4915 5.95504 23.7445C5.95504 23.9959 5.8547 24.237 5.67609 24.4148C5.49748 24.5926 5.25524 24.6924 5.00265 24.6924Z" fill="black" style="fill:black;fill-opacity:1;"/>
</g>
<defs>
<clipPath id="clip0_1712_10220">
<rect width="34" height="34" fill="white" style="fill:white;fill-opacity:1;"/>
</clipPath>
</defs>
</svg>
