<svg width="38" height="38" viewBox="0 0 38 38" fill="none" xmlns="http://www.w3.org/2000/svg">
<rect width="38" height="38" rx="19" transform="matrix(-1 0 0 1 38 0)" fill="#2D2D2D"/>
<path d="M21.6425 18.5842C23.3806 18.4062 25.0976 18.0611 26.7695 17.5537C26.6979 17.7416 26.6156 17.9252 26.5229 18.1037C26.5148 18.1239 26.5042 18.143 26.4913 18.1606C26.4913 18.1606 24.5885 20.9549 24.462 22.1687C24.4178 22.6112 24.3798 23.0537 24.3609 23.4962C24.3229 24.198 24.1839 24.8681 23.8045 25.4687C23.5453 25.8796 23.1976 26.1957 22.6919 26.2715C22.0155 26.3664 21.4844 26.1198 21.1051 25.5508C20.7258 24.9819 20.6247 24.4824 20.4666 23.9135C20.3086 23.3445 20.1885 22.8957 20.0304 22.3962C19.9636 22.1836 19.8633 21.983 19.7333 21.802C19.3413 21.2393 18.6333 21.2267 18.254 21.802C18.0644 22.1214 17.9157 22.4633 17.8114 22.8198C17.5902 23.5152 17.4132 24.2233 17.1919 24.9187C17.1139 25.1451 17.0055 25.36 16.8695 25.5572C16.231 26.5244 14.9603 26.5497 14.2775 25.6204C13.8603 25.0514 13.6896 24.3939 13.639 23.7049C13.5948 23.1865 13.5821 22.6618 13.5126 22.1434C13.4178 21.4669 13.1143 20.8664 12.7666 20.2847C12.4758 19.8043 12.1534 19.3428 11.8626 18.856C11.6145 18.4609 11.4029 18.0441 11.2304 17.6106C13.0203 18.1463 14.8617 18.4917 16.7241 18.6411V20.2974H21.6425V18.5842Z" fill="#B9B9B9"/>
<path d="M27.035 16.1313C25.2481 16.4576 23.4431 16.675 21.6298 16.7825V15.8405H16.7178V16.7951C14.7878 16.6907 12.8664 16.4648 10.9649 16.1187C10.9649 15.8911 10.9712 15.6509 10.9712 15.4233C10.9666 15.4047 10.9645 15.3855 10.9649 15.3664C10.9839 14.9365 11.0155 14.6457 11.4138 14.0072L11.4454 13.9503C12.1092 12.7049 13.1206 11.921 14.5367 11.7376C15.5735 11.6049 16.5155 11.8957 17.3816 12.4583C17.8674 12.7814 18.3076 13.1684 18.6902 13.6089C18.7581 13.699 18.8154 13.7965 18.8609 13.8997C18.8609 13.8997 19.2465 13.5141 19.9229 12.9641C20.1081 12.8016 20.3023 12.6496 20.5046 12.5089H20.5109C20.588 12.4469 20.6706 12.3919 20.7574 12.3445C21.4233 11.934 22.1879 11.7112 22.9701 11.6997C23.1155 11.6997 23.2609 11.7124 23.4063 11.725C23.5517 11.7376 23.5643 11.7566 23.7034 11.7819C23.9371 11.8476 24.1671 11.9256 24.3925 12.0158C25.0752 12.2813 25.7643 12.6796 26.1942 13.2738C26.317 13.4446 26.4149 13.6319 26.485 13.8302C26.6115 14.1399 26.7569 14.4497 26.8517 14.7721C26.9831 15.2129 27.0449 15.6715 27.035 16.1313Z" fill="#B9B9B9"/>
<path d="M30 15.9102C27.1248 16.6297 24.1857 17.0638 21.2253 17.2061V16.2452H19.5626V17.2567H18.7851V16.2452H17.1224V17.2188C14.0463 17.0801 10.9911 16.6418 8 15.9102C8 15.9102 11.5908 17.8952 17.1224 18.2619V19.8929H18.7851V18.3188C19.0443 18.3251 19.2971 18.3188 19.5626 18.3125V19.8929H21.2253V18.2176C23.9121 17.9774 26.877 17.301 30 15.9102Z" fill="#B9B9B9"/>
</svg>
