<svg width="60" height="60" viewBox="0 0 60 60" fill="none" xmlns="http://www.w3.org/2000/svg">
<rect width="60" height="60" rx="30" fill="#353434"/>
<path d="M35.4048 29.0819C38.9601 28.7179 42.472 28.012 45.8919 26.9742C45.7455 27.3585 45.5771 27.7341 45.3876 28.0992C45.371 28.1405 45.3493 28.1796 45.3229 28.2156C45.3229 28.2156 41.4307 33.9311 41.1721 36.4138C41.0816 37.319 41.004 38.2242 40.9652 39.1294C40.8876 40.5647 40.6031 41.9354 39.8272 43.1638C39.2971 44.0044 38.5859 44.6509 37.5514 44.8061C36.1678 45 35.0816 44.4957 34.3057 43.3319C33.5298 42.1681 33.3229 41.1466 32.9997 39.9828C32.6764 38.819 32.4307 37.9009 32.1074 36.8794C31.9709 36.4444 31.7657 36.0341 31.4997 35.6638C30.6979 34.513 29.2497 34.4871 28.4738 35.6638C28.086 36.3171 27.7819 37.0166 27.5686 37.7457C27.116 39.1681 26.754 40.6164 26.3014 42.0388C26.1419 42.5021 25.92 42.9415 25.6419 43.3449C24.3359 45.3233 21.7367 45.375 20.3402 43.4742C19.4867 42.3104 19.1376 40.9656 19.0341 39.5561C18.9436 38.4957 18.9178 37.4225 18.7755 36.3621C18.5816 34.9785 17.9609 33.75 17.2497 32.5604C16.6548 31.5776 15.9954 30.6337 15.4005 29.638C14.893 28.8299 14.4602 27.9772 14.1074 27.0906C17.7686 28.1864 21.5351 28.8929 25.3445 29.1983V32.5863H35.4048V29.0819Z" fill="white"/>
<path d="M46.4353 24.0647C42.7803 24.732 39.0881 25.1768 35.3792 25.3966V23.4698H25.3318V25.4224C21.3842 25.2089 17.454 24.7468 13.5646 24.0388C13.5646 23.5733 13.5775 23.0819 13.5775 22.6164C13.568 22.5783 13.5637 22.5392 13.5646 22.5C13.6034 21.6207 13.668 21.0259 14.4827 19.7198L14.5473 19.6034C15.9051 17.056 17.9741 15.4526 20.8706 15.0776C22.9913 14.806 24.918 15.4009 26.6896 16.5517C27.6834 17.2125 28.5837 18.0041 29.3663 18.9052C29.5052 19.0894 29.6223 19.289 29.7154 19.5C29.7154 19.5 30.5042 18.7112 31.8878 17.5862C32.2666 17.2538 32.6638 16.943 33.0775 16.6552H33.0904C33.2483 16.5284 33.417 16.4159 33.5947 16.319C34.9568 15.4792 36.5206 15.0234 38.1206 15C38.418 15 38.7154 15.0259 39.0128 15.0517C39.3103 15.0776 39.3361 15.1164 39.6206 15.1681C40.0986 15.3024 40.5691 15.4621 41.0301 15.6466C42.4266 16.1897 43.8361 17.0043 44.7154 18.2198C44.9666 18.569 45.1669 18.9522 45.3103 19.3578C45.5689 19.9914 45.8663 20.625 46.0603 21.2845C46.329 22.1861 46.4555 23.1241 46.4353 24.0647Z" fill="white"/>
<path d="M52.5 23.6121C46.619 25.0839 40.6071 25.9718 34.5517 26.263V24.2974H31.1509V26.3664H29.5603V24.2974H26.1595V26.2888C19.8674 26.0051 13.6181 25.1086 7.5 23.6121C7.5 23.6121 14.8448 27.6724 26.1595 28.4224V31.7586H29.5603V28.5388C30.0905 28.5517 30.6078 28.5388 31.1509 28.5259V31.7586H34.5517V28.3319C40.0474 27.8405 46.1121 26.4569 52.5 23.6121Z" fill="white"/>
</svg>
