<svg width="38" height="38" viewBox="0 0 38 38" fill="none" xmlns="http://www.w3.org/2000/svg">
<rect width="38" height="38" rx="19" transform="matrix(-1 0 0 1 38 0)" fill="#2D2D2D"/>
<path d="M20.5432 25.7559C20.5236 25.1495 20.4747 24.5431 20.2693 23.9563C20.1579 23.5967 19.9353 23.2817 19.6336 23.0565C19.4247 22.908 19.1704 22.8375 18.9148 22.8571C18.6593 22.8768 18.4187 22.9854 18.235 23.1641C17.922 23.4478 17.7656 23.8194 17.658 24.2106C17.5218 24.7306 17.4625 25.2677 17.4819 25.8048C17.4819 26.3134 17.4526 26.8122 17.2765 27.2914C17.218 27.4687 17.1286 27.6342 17.0125 27.7804C16.8071 28.0445 16.5137 28.0738 16.279 27.8489C16.1087 27.6767 15.9668 27.4786 15.8584 27.2621C15.5846 26.7144 15.4672 26.108 15.3596 25.5114C15.2375 24.781 15.1786 24.0415 15.1836 23.3011C15.1738 22.3719 14.8804 21.5015 14.4989 20.6702C14.2447 20.0931 13.9708 19.5356 13.7361 18.9586C13.5014 18.3816 13.3547 17.8241 13.4525 17.2177C13.6383 16.0539 14.362 15.3203 15.4281 14.9096C15.8084 14.7461 16.2221 14.6751 16.6352 14.7023C17.0483 14.7295 17.449 14.8541 17.8047 15.066C18.0388 15.1862 18.2805 15.2907 18.5284 15.379C18.6855 15.4428 18.8537 15.4748 19.0233 15.4732C19.1929 15.4715 19.3604 15.4362 19.5162 15.3692C19.7349 15.2907 19.9474 15.1959 20.1519 15.0856C21.1691 14.5086 22.1667 14.5966 23.1252 15.1736C24.0836 15.7507 24.6411 16.6211 24.5726 17.8045C24.5335 18.6359 24.2792 19.3987 23.8978 20.1322L23.3012 21.3254C22.9803 22.0074 22.8165 22.7527 22.822 23.5064C22.8276 24.6307 22.6594 25.7491 22.3232 26.822C22.2575 27.0128 22.1791 27.1991 22.0884 27.3794C22.0361 27.4882 21.9703 27.59 21.8928 27.6826C21.5505 28.1227 21.1398 28.0934 20.8659 27.6044C20.5921 27.1154 20.5823 26.7926 20.5432 26.3623C20.5334 26.1667 20.5432 25.9613 20.5432 25.7559ZM18.8218 17.1786C19.1348 17.1297 19.4575 17.1101 19.751 17.0123C20.0708 16.8997 20.3815 16.7624 20.6801 16.6016C20.7049 16.5905 20.727 16.5741 20.7447 16.5536C20.7625 16.5331 20.7756 16.509 20.7831 16.4829C20.7905 16.4568 20.7922 16.4294 20.7879 16.4025C20.7836 16.3757 20.7735 16.3502 20.7583 16.3277C20.6899 16.2103 20.5823 16.2006 20.4649 16.269L20.3671 16.3277C19.922 16.5907 19.4172 16.7359 18.9004 16.7496C18.3836 16.7633 17.8719 16.645 17.4135 16.4059C17.2472 16.3277 17.0712 16.3962 17.0907 16.5527C17.1017 16.5982 17.1222 16.6409 17.1509 16.678C17.1795 16.7151 17.2157 16.7457 17.257 16.7678C17.7409 17.0211 18.2759 17.1615 18.8218 17.1786Z" fill="#B9B9B9"/>
<path d="M18.9983 14.9586C19.1799 14.9586 19.354 14.8865 19.4824 14.7581C19.6108 14.6297 19.6829 14.4556 19.6829 14.274V13.4622C19.6829 13.1982 19.7612 13.1199 20.0252 13.1199H20.7685L18.9983 10C18.4115 11.0465 17.8247 12.0636 17.2281 13.1199H17.9225C18.255 13.1199 18.3137 13.1786 18.3137 13.5111V14.274C18.3137 14.4556 18.3858 14.6297 18.5142 14.7581C18.6426 14.8865 18.8167 14.9586 18.9983 14.9586Z" fill="#B9B9B9"/>
</svg>
