<svg width="38" height="38" viewBox="0 0 38 38" fill="none" xmlns="http://www.w3.org/2000/svg">
<rect x="-0.40625" y="0.40625" width="37.1875" height="37.1875" rx="18.5938" transform="matrix(-1 0 0 1 37.1875 0)" fill="white"/>
<rect x="-0.40625" y="0.40625" width="37.1875" height="37.1875" rx="18.5938" transform="matrix(-1 0 0 1 37.1875 0)" stroke="#5C5C5C" stroke-width="0.8125"/>
<g clip-path="url(#clip0_116_4431)">
<g clip-path="url(#clip1_116_4431)">
<path d="M20.8127 12.075C20.872 11.9562 20.9475 11.8547 21.0349 11.776C20.9458 11.6966 20.8701 11.5916 20.8127 11.4683C20.7559 11.5894 20.6826 11.6939 20.5968 11.776C20.6809 11.8573 20.754 11.9585 20.8127 12.075Z" fill="#161616"/>
<path d="M19.8794 12.5765L20.1143 12.7611L20.2413 13.0777C20.2965 13.2211 20.3788 13.3411 20.4795 13.4247C20.5801 13.5083 20.6953 13.5525 20.8127 13.5525H20.8254C20.9406 13.5491 21.0533 13.5044 21.1523 13.4227C21.2514 13.341 21.3334 13.2252 21.3905 13.0865L21.5238 12.7523L21.7651 12.5677H21.7778C21.8765 12.4775 21.9591 12.3571 22.019 12.2159C22.0601 12.1121 22.0857 11.9979 22.0945 11.8801C22.1032 11.7623 22.0948 11.6433 22.0698 11.53C22.0214 11.3039 21.9124 11.112 21.7651 10.9936L21.5238 10.8178L21.3905 10.4836C21.3311 10.3285 21.2407 10.2003 21.1302 10.1143H21.1175C21.0236 10.0442 20.9193 10.0051 20.8127 10C20.6957 10.0029 20.5811 10.0473 20.48 10.1289C20.3789 10.2105 20.2945 10.3265 20.2349 10.466L20.1079 10.7914L19.8794 10.9673C19.7707 11.0488 19.6806 11.1706 19.619 11.319H19.6127C19.5301 11.5321 19.5118 11.7819 19.5619 12.0137C19.5834 12.133 19.6228 12.2448 19.6775 12.3417C19.7322 12.4387 19.801 12.5186 19.8794 12.5765ZM19.8921 11.5476C19.9254 11.4694 19.9738 11.4055 20.0317 11.363L20.273 11.1783C20.3186 11.1371 20.3575 11.0832 20.3873 11.02L20.5143 10.6859C20.5452 10.6117 20.5896 10.5499 20.6431 10.5067C20.6965 10.4635 20.7572 10.4404 20.819 10.4397C20.8742 10.4403 20.9285 10.4583 20.9778 10.4924C21.0362 10.5381 21.0845 10.605 21.1175 10.6859L21.2508 11.02C21.2706 11.0902 21.3093 11.147 21.3587 11.1783L21.6063 11.363C21.6824 11.4266 21.7389 11.5268 21.7651 11.6444C21.789 11.7618 21.7799 11.8875 21.7397 11.9961C21.7073 12.0747 21.6615 12.1411 21.6063 12.1895L21.3587 12.3742C21.3138 12.4099 21.2766 12.4615 21.2508 12.5237L21.1175 12.8666C21.0871 12.9396 21.0437 13.0005 20.9914 13.0436C20.9392 13.0868 20.8798 13.1106 20.819 13.1128C20.7578 13.1133 20.6977 13.0906 20.6451 13.0472C20.5925 13.0038 20.5495 12.9414 20.5206 12.8666L20.3873 12.5237C20.3574 12.4631 20.3184 12.4121 20.273 12.3742L20.0317 12.1895C19.9918 12.1607 19.9566 12.1209 19.9282 12.0725C19.8998 12.0241 19.8789 11.9682 19.8667 11.9082C19.8517 11.8491 19.8463 11.7863 19.8507 11.724C19.8551 11.6618 19.8692 11.6016 19.8921 11.5476Z" fill="#161616"/>
<path d="M23.9302 24.9665L23.581 24.7027H23.5683C23.5435 24.6856 23.5234 24.6579 23.5111 24.6236H23.5048L23.3079 24.1223C23.2478 23.9744 23.1601 23.8515 23.054 23.7665C22.9479 23.6814 22.8273 23.6373 22.7048 23.6387H22.6984C22.576 23.6379 22.4557 23.6833 22.3506 23.77C22.2454 23.8568 22.1593 23.9816 22.1016 24.1311L21.9111 24.6148C21.8926 24.6583 21.8663 24.6946 21.8349 24.7203L21.473 24.9929C21.3669 25.0829 21.2777 25.2064 21.2127 25.3534V25.371C21.1691 25.4806 21.1415 25.6011 21.1317 25.7255C21.1218 25.8499 21.1298 25.9758 21.1551 26.0959C21.1805 26.2161 21.2228 26.328 21.2795 26.4255C21.3362 26.5229 21.4063 26.6038 21.4857 26.6636L21.8349 26.9274C21.8697 26.9539 21.8983 26.9936 21.9175 27.0417L22.1016 27.5078C22.1587 27.6612 22.2451 27.79 22.3515 27.88C22.4579 27.9699 22.5801 28.0176 22.7048 28.0178H22.7111C22.8356 28.0163 22.9576 27.9691 23.0647 27.881C23.1717 27.793 23.2601 27.6672 23.3206 27.5166L23.5111 27.0241C23.5284 26.9814 23.5551 26.9475 23.5873 26.9274L23.9429 26.6548C24.0525 26.5643 24.1442 26.4374 24.2095 26.2855C24.2962 26.0623 24.3161 25.8009 24.2651 25.5575C24.214 25.3141 24.096 25.1082 23.9365 24.9841L23.9302 24.9665ZM23.9238 26.0569C23.8888 26.1408 23.8384 26.2106 23.7778 26.2591L23.4286 26.5229C23.3405 26.5835 23.2691 26.6823 23.2254 26.8043L23.0349 27.2879C23.0018 27.3692 22.9539 27.4372 22.896 27.485C22.8381 27.5328 22.7722 27.5588 22.7048 27.5605C22.6379 27.561 22.5722 27.5357 22.515 27.4876C22.4579 27.4395 22.4115 27.3704 22.381 27.2879L22.1905 26.8043C22.139 26.6875 22.0669 26.5907 21.981 26.5229L21.6381 26.2591H21.6317C21.5891 26.2269 21.5515 26.1834 21.5211 26.131C21.4906 26.0786 21.468 26.0184 21.4544 25.9539C21.4408 25.8893 21.4366 25.8217 21.442 25.7548C21.4473 25.688 21.4622 25.6233 21.4857 25.5644C21.523 25.4776 21.5754 25.4051 21.6381 25.3534L21.981 25.0896C22.0696 25.0271 22.1426 24.929 22.1905 24.8082L22.381 24.3246C22.4118 24.2431 22.4584 24.1752 22.5156 24.1286C22.5729 24.082 22.6384 24.0585 22.7048 24.0608C22.7717 24.0607 22.8374 24.0851 22.8954 24.1314C22.9533 24.1777 23.0015 24.2443 23.0349 24.3246L23.2254 24.8082C23.2691 24.9302 23.3405 25.029 23.4286 25.0896L23.7778 25.3534C23.8207 25.3858 23.8585 25.4297 23.889 25.4825C23.9195 25.5354 23.9421 25.5961 23.9556 25.6612C23.9801 25.794 23.9688 25.9347 23.9238 26.0569Z" fill="#161616"/>
<path d="M22.7492 25.1597L22.7048 25.0542L22.6603 25.1597C22.5652 25.4086 22.4195 25.6134 22.2413 25.7489L22.1587 25.8104L22.2413 25.872C22.4193 26.0039 22.5651 26.2058 22.6603 26.4523L22.7048 26.5579L22.7492 26.4523C22.8444 26.2058 22.9902 26.0039 23.1682 25.872L23.2508 25.8104L23.1682 25.7489C22.99 25.6134 22.8444 25.4086 22.7492 25.1597Z" fill="#161616"/>
<path d="M13.073 19.488C13.0297 19.1505 12.9157 18.8381 12.7452 18.5895C12.5748 18.341 12.3554 18.1672 12.1143 18.0899L11.9683 18.0723C11.7778 18.0723 11.6444 18.169 11.5619 18.3624C11.327 18.9164 11.4286 21.0268 11.5365 21.3874C11.5492 21.4137 11.7016 21.5808 12.1143 21.7127C12.3388 21.7893 12.5688 21.8306 12.8 21.8358C12.8937 21.8368 12.9873 21.825 13.0794 21.8006C13.0106 21.0329 13.0085 20.2565 13.073 19.488Z" fill="#161616"/>
<path d="M15.6317 20.2881H15.5682C15.3363 20.2876 15.1122 20.4044 14.9381 20.6165C14.7639 20.8286 14.6516 21.1214 14.6222 21.44C14.4444 22.8645 14.5333 24.6848 14.5524 25.0365C14.5492 25.1753 14.582 25.311 14.6449 25.4191C14.7078 25.5272 14.7966 25.6005 14.8952 25.6257C15.3962 25.7485 15.9039 25.8103 16.4127 25.8103C16.6349 25.8103 16.8635 25.7927 17.092 25.7751H17.1047C17.2107 25.772 17.3122 25.7157 17.3905 25.6169C17.4984 25.2475 17.5238 23.5328 17.2698 22.0468C17.0793 20.9036 16.2793 20.2881 15.6317 20.2881Z" fill="#161616"/>
<path d="M12.8127 24.3242C12.7551 24.4449 12.6792 24.5469 12.5905 24.6232C12.6781 24.7051 12.7535 24.8096 12.8127 24.931C12.8696 24.8125 12.943 24.7108 13.0285 24.632C12.9428 24.5499 12.8695 24.4453 12.8127 24.3242Z" fill="#161616"/>
<path d="M23.7079 18.0811C23.616 18.0821 23.5245 18.0969 23.4349 18.125C22.9143 18.2745 22.3682 18.8373 22.3174 19.7518C22.3566 20.5923 22.3545 21.4354 22.3111 22.2755C22.3121 22.3022 22.31 22.3289 22.3047 22.3546C22.4702 22.4161 22.6415 22.4428 22.8127 22.4338C23.034 22.4336 23.2549 22.4071 23.473 22.3546C24.0825 22.2227 24.3428 21.9853 24.3619 21.9238C24.4889 21.5105 24.4825 19.1099 24.2032 18.3712C24.1333 18.1866 23.9492 18.0811 23.7079 18.0811Z" fill="#161616"/>
<path d="M27.1873 13.4907C26.7302 12.8136 25.9682 12.4707 24.9206 12.4707C23.2127 12.4707 21.1111 13.3764 19.8286 14.1414C19.5681 14.2983 19.2872 14.3792 19.0032 14.3792C18.7192 14.3792 18.4382 14.2983 18.1778 14.1414C16.8952 13.3764 14.7936 12.4707 13.0857 12.4707C12.0444 12.4707 11.2825 12.8136 10.8127 13.4907C9.82856 14.9328 9.72697 17.4126 10.5587 19.5581C10.546 20.4287 10.6286 21.4487 10.7492 21.8356C10.9778 22.6182 11.8794 22.9084 12.4635 22.9876C12.3674 23.0692 12.2886 23.1844 12.2349 23.3217L12.1079 23.6383L11.8603 23.8317C11.7565 23.9199 11.6711 24.0442 11.6127 24.1922C11.5704 24.297 11.5436 24.4124 11.5338 24.5316C11.524 24.6509 11.5314 24.7717 11.5555 24.8869C11.6064 25.1165 11.7204 25.3092 11.873 25.4233L12.1079 25.5992L12.2349 25.9245C12.2901 26.068 12.3725 26.1879 12.4731 26.2716C12.5738 26.3552 12.689 26.3994 12.8063 26.3994H12.8127C12.9309 26.3991 13.0468 26.3549 13.1484 26.2713C13.2501 26.1878 13.3337 26.0681 13.3905 25.9245L13.5174 25.5992L13.7206 25.4409C13.7741 25.7815 13.899 26.0926 14.0798 26.3351C14.2605 26.5776 14.489 26.7407 14.7365 26.8039C15.2751 26.937 15.8211 27.0047 16.3682 27.0061H16.4254C16.7111 27.0061 16.946 26.9973 17.1619 26.9709C17.3778 26.9446 17.9175 26.883 18.1651 26.1444C18.3048 25.7311 18.3555 25.0452 18.3175 24.0428H18.5016C18.6727 24.0239 18.8402 23.9644 18.9968 23.8669H19.0095C19.1578 23.9636 19.3165 24.026 19.4794 24.0516H19.5111C19.7079 24.0691 19.9238 24.0779 20.1524 24.0779H20.2032C20.6905 24.0762 21.1769 24.0173 21.6571 23.9021C21.8551 23.8507 22.0394 23.7261 22.1905 23.5415C22.3053 23.5779 22.4221 23.6014 22.5397 23.6119H22.8C23.3079 23.6119 24.2476 23.4712 24.7809 22.9612C24.854 22.9844 24.9283 22.9991 25.0032 23.0051H25.1936C25.6698 23.0051 26.9651 22.7941 27.2635 21.8356V21.818C27.3714 21.4399 27.454 20.4023 27.4476 19.5494C28.2667 17.439 28.1651 14.9065 27.1873 13.4907ZM13.7333 24.8517C13.7025 24.9296 13.6562 24.9937 13.6 25.0364L13.3587 25.2211C13.3089 25.2546 13.2687 25.3104 13.2444 25.3794L13.1111 25.7135C13.0807 25.7865 13.0373 25.8474 12.9851 25.8905C12.9328 25.9336 12.8735 25.9574 12.8127 25.9597C12.7515 25.9601 12.6914 25.9374 12.6388 25.8941C12.5862 25.8507 12.5431 25.7882 12.5143 25.7135L12.3809 25.3794C12.3567 25.3104 12.3165 25.2546 12.2667 25.2211L12.0254 25.0364C11.9855 25.0076 11.9502 24.9677 11.9218 24.9193C11.8935 24.871 11.8725 24.815 11.8603 24.755C11.8481 24.6965 11.8446 24.6351 11.85 24.5746C11.8555 24.5142 11.8698 24.4559 11.8921 24.4033C11.9228 24.323 11.9689 24.2561 12.0254 24.2098L12.2667 24.0252C12.3134 23.9897 12.3527 23.9382 12.3809 23.8757L12.5143 23.5327C12.5434 23.459 12.5867 23.3978 12.6394 23.3559C12.692 23.314 12.752 23.2931 12.8127 23.2953C12.8699 23.2949 12.9264 23.313 12.9778 23.3481C13.034 23.3908 13.0803 23.4549 13.1111 23.5327L13.2444 23.8757C13.2708 23.9403 13.3106 23.9924 13.3587 24.0252L13.6 24.2098C13.6788 24.271 13.737 24.3726 13.7619 24.4928C13.7869 24.613 13.7766 24.742 13.7333 24.8517ZM27.1301 19.4438C27.1492 20.3671 27.054 21.3696 26.9714 21.6598C26.7809 22.2753 25.7968 22.5655 25.1936 22.5655H25.0222C24.9165 22.557 24.812 22.5304 24.7111 22.4863C24.3175 22.9876 23.3651 23.1722 22.8 23.1722H22.5587C22.4021 23.1641 22.2475 23.1195 22.1016 23.0403C21.9755 23.2569 21.7975 23.4035 21.6 23.4536C21.1324 23.566 20.6587 23.6219 20.1841 23.6207H20.1524C19.9365 23.6207 19.727 23.6119 19.5301 23.5943C19.4349 23.5767 19.1682 23.5327 18.9841 23.3041C18.9559 23.3667 18.9165 23.4181 18.8698 23.4536C18.7451 23.5301 18.6121 23.5776 18.4762 23.5943L18.2286 23.6119H18.2095C18.1581 23.6123 18.1078 23.5917 18.0648 23.5526C18.0219 23.5134 17.9883 23.4576 17.9682 23.3921C18.0444 24.5264 18.0381 25.4937 17.8794 25.9597C17.7206 26.4258 17.3651 26.5049 17.1365 26.5313C16.9079 26.5577 16.673 26.5665 16.4254 26.5665H16.3873C15.853 26.5679 15.3196 26.5032 14.7936 26.373C14.5761 26.3179 14.3792 26.1596 14.2367 25.9254C14.0942 25.6911 14.015 25.3955 14.0127 25.0892C13.9746 24.3857 13.9682 23.6734 13.9809 22.9612C13.7313 22.8768 13.4989 22.7144 13.3016 22.4863C13.1995 22.5375 13.0925 22.5671 12.9841 22.5743H12.819C12.2095 22.5743 11.2254 22.2841 11.0413 21.6686C10.9524 21.3784 10.8571 20.3759 10.8825 19.4526C10.0825 17.4741 10.146 15.1087 11.0476 13.7897C11.4476 13.2093 12.1333 12.9104 13.0857 12.9104C14.7428 12.9104 16.7936 13.7897 18.0508 14.5459C18.3518 14.7245 18.6758 14.8165 19.0032 14.8165C19.3306 14.8165 19.6546 14.7245 19.9555 14.5459C21.2127 13.7897 23.2698 12.9104 24.9206 12.9104C25.8794 12.9104 26.5651 13.2093 26.9587 13.7897C27.8667 15.1087 27.9301 17.4741 27.1301 19.4438Z" fill="#161616"/>
<path d="M20.9143 18.0899H20.8508C20.5279 18.0945 20.2151 18.2458 19.9604 18.5207C19.7058 18.7955 19.5234 19.1787 19.4413 19.6111C19.2254 20.9037 19.2444 22.3986 19.3333 22.7152C19.3966 22.7914 19.4781 22.8321 19.5619 22.8295H19.5746C19.7714 22.8559 19.9746 22.8647 20.1714 22.8647C20.6165 22.8662 21.0608 22.8102 21.4984 22.6976C21.5791 22.6803 21.6524 22.6222 21.704 22.5345C21.7556 22.4468 21.7819 22.3357 21.7778 22.2227C21.8032 21.7919 21.8667 20.2706 21.7143 19.0659C21.6909 18.7955 21.5964 18.5465 21.4488 18.3664C21.3012 18.1864 21.1109 18.0879 20.9143 18.0899Z" fill="#161616"/>
<path d="M26.5651 14.3001C26.2793 13.878 25.7079 13.6582 24.9206 13.6582C23.6063 13.6582 21.7841 14.2649 20.1714 15.2322C19.8024 15.4523 19.4049 15.566 19.0032 15.5664C18.6013 15.5667 18.2037 15.453 17.8349 15.2322C16.2222 14.2649 14.4063 13.6582 13.0857 13.6582C12.2984 13.6582 11.727 13.878 11.4412 14.3001C10.8444 15.1707 10.7111 16.6919 11.0476 18.1252C11.058 18.0743 11.0752 18.0266 11.0984 17.9845C11.1857 17.7766 11.3121 17.6054 11.4642 17.4892C11.6163 17.3731 11.7883 17.3163 11.9619 17.325C12.0471 17.328 12.1319 17.3398 12.2159 17.3602C12.6282 17.4859 12.9963 17.8061 13.2571 18.2659C13.2759 18.1802 13.3015 18.0977 13.3333 18.0197C13.4984 17.5888 13.8412 17.3426 14.292 17.3338H14.2984C14.6038 17.3416 14.9042 17.4435 15.1777 17.6321C15.4511 17.8207 15.6908 18.0913 15.8793 18.4242C15.9175 18.3082 15.9621 18.1965 16.0127 18.0901C16.0383 18.0444 16.071 18.0072 16.1084 17.9814C16.1457 17.9555 16.1868 17.9415 16.2286 17.9406C16.2777 17.9416 16.3257 17.9611 16.3676 17.9968C16.4094 18.0325 16.4435 18.0832 16.4662 18.1436C16.489 18.2039 16.4996 18.2716 16.4969 18.3396C16.4941 18.4076 16.4782 18.4732 16.4508 18.5297C16.3671 18.688 16.3126 18.8721 16.292 19.0661V19.1013C16.2792 19.1867 16.2458 19.2636 16.1974 19.3195C16.149 19.3754 16.0884 19.4069 16.0254 19.4091H15.9809C15.9181 19.3935 15.8617 19.3466 15.8222 19.2772H15.7905C15.7413 19.2789 15.6927 19.2617 15.6501 19.2276C15.6075 19.1934 15.5726 19.1436 15.5492 19.0837C15.4182 18.7847 15.235 18.5361 15.0164 18.3609C14.7978 18.1857 14.5509 18.0896 14.2984 18.0813H14.292C14.0508 18.0813 13.8793 18.1868 13.8095 18.3714C13.5238 19.1101 13.5174 21.5107 13.6444 21.924C13.6571 21.9591 13.7651 22.0734 14.0127 22.179C14.0317 21.8624 14.0571 21.581 14.0889 21.3172C14.1405 20.8261 14.3175 20.3769 14.5877 20.051C14.8579 19.7252 15.2036 19.5442 15.5619 19.541H15.7587C15.7929 19.4778 15.8426 19.4341 15.8984 19.4179H15.9619C16.0156 19.4183 16.068 19.4411 16.1122 19.4835C16.1564 19.5259 16.1903 19.5858 16.2095 19.6553C16.5938 19.795 16.9439 20.0752 17.2231 20.4666C17.5024 20.858 17.7005 21.3461 17.7968 21.88C17.8666 22.3002 17.9175 22.7261 17.9492 23.155C17.963 23.075 17.9952 23.0033 18.041 22.951C18.0869 22.8986 18.1438 22.8684 18.2032 22.8648L18.4317 22.8385C18.5025 22.8371 18.572 22.813 18.6349 22.7681H18.6476C18.6806 22.7432 18.7179 22.731 18.7555 22.7329H18.7873C18.6984 22.0998 18.7174 20.9039 18.8635 19.8136H18.8127C18.7539 19.813 18.6968 19.7862 18.6499 19.7371C18.603 19.6879 18.5688 19.6192 18.5524 19.541C18.5134 19.3408 18.4512 19.1508 18.3682 18.9782H18.3619C18.3415 18.9379 18.3271 18.8925 18.3196 18.8444C18.3121 18.7964 18.3116 18.7468 18.3181 18.6984C18.3246 18.6501 18.338 18.6041 18.3575 18.563C18.377 18.522 18.4022 18.4867 18.4317 18.4594C18.4759 18.4143 18.5292 18.3896 18.5841 18.389C18.6282 18.3892 18.6716 18.4046 18.7104 18.4338C18.7492 18.4629 18.7822 18.505 18.8063 18.5561C18.8843 18.7164 18.9502 18.8873 19.0032 19.0661C19.327 17.9318 20.146 17.3426 20.8635 17.3426H20.9143C21.1708 17.3433 21.4218 17.4455 21.6377 17.6371C21.8537 17.8287 22.0256 18.1018 22.1333 18.4242C22.4258 17.8931 22.8478 17.5274 23.3206 17.3954C23.4479 17.357 23.5777 17.3364 23.7079 17.3338C24.1587 17.3338 24.5143 17.5888 24.6793 18.0197L24.7555 18.2659C25.0126 17.8044 25.3791 17.4836 25.7905 17.3602C25.8743 17.3394 25.9592 17.3276 26.0444 17.325C26.2185 17.3194 26.3905 17.3774 26.5432 17.4932C26.6959 17.6089 26.8239 17.7784 26.9143 17.9845C26.9329 18.0289 26.9478 18.0761 26.9587 18.1252C27.2952 16.6919 27.1619 15.1707 26.5651 14.3001ZM17.1936 18.0901H17.1428C17.0127 18.0908 16.8837 18.1235 16.7619 18.1868C16.7308 18.2106 16.6958 18.2227 16.6603 18.222C16.6071 18.2235 16.5548 18.2024 16.5106 18.1615C16.4663 18.1206 16.4321 18.0619 16.4127 17.9933C16.3975 17.9481 16.3891 17.899 16.3881 17.8491C16.387 17.7993 16.3932 17.7496 16.4063 17.7031C16.4378 17.6155 16.489 17.5444 16.5524 17.5009C16.7398 17.3952 16.9404 17.3415 17.1428 17.3426H17.2C17.2702 17.3471 17.3364 17.389 17.3849 17.4594C17.4334 17.5298 17.4604 17.6234 17.4603 17.7207C17.4603 17.8187 17.4322 17.9126 17.3822 17.9819C17.3322 18.0511 17.2644 18.0901 17.1936 18.0901ZM18.419 18.4418C18.3985 18.482 18.3721 18.5158 18.3415 18.541C18.311 18.5661 18.2769 18.5821 18.2416 18.588C18.2063 18.5938 18.1705 18.5892 18.1365 18.5746C18.1026 18.5601 18.0712 18.5358 18.0444 18.5033C17.9196 18.3781 17.7829 18.2775 17.6381 18.2044H17.6254C17.5915 18.1883 17.5608 18.1617 17.5355 18.1267C17.5101 18.0916 17.491 18.049 17.4793 18.0021C17.4644 17.9584 17.456 17.9108 17.455 17.8623C17.4539 17.8139 17.46 17.7657 17.473 17.7207C17.4933 17.6505 17.5284 17.5904 17.5737 17.548C17.6189 17.5057 17.6723 17.4832 17.727 17.4833C17.7596 17.4835 17.792 17.4925 17.8222 17.5097C18.0188 17.6069 18.203 17.7464 18.3682 17.923C18.4248 17.9839 18.4632 18.0716 18.4762 18.1692C18.4827 18.2668 18.4623 18.3642 18.419 18.4418Z" fill="#161616"/>
<path d="M26.0381 18.0723L25.892 18.0899C25.6513 18.1683 25.4323 18.3424 25.262 18.5907C25.0917 18.8391 24.9775 19.151 24.9333 19.488C25.0032 20.2558 25.0032 21.0328 24.9333 21.8006C25.0253 21.8258 25.1189 21.8376 25.2127 21.8358C25.4438 21.8295 25.6737 21.7882 25.8984 21.7127C26.2984 21.5896 26.4508 21.4225 26.4698 21.3874C26.5778 21.018 26.6794 18.9164 26.4444 18.3624C26.3682 18.169 26.2286 18.0723 26.0381 18.0723Z" fill="#161616"/>
</g>
</g>
<defs>
<clipPath id="clip0_116_4431">
<rect width="18" height="18" fill="white" transform="matrix(-1 0 0 1 28 10)"/>
</clipPath>
<clipPath id="clip1_116_4431">
<rect width="18" height="18" fill="white" transform="translate(10 10)"/>
</clipPath>
</defs>
</svg>
