<svg width="60" height="60" viewBox="0 0 60 60" fill="none" xmlns="http://www.w3.org/2000/svg">
<rect width="60" height="60" rx="30" fill="#353434"/>
<path d="M33.8254 45.0135C33.7819 43.666 33.6733 42.3185 33.2169 41.0145C32.9693 40.2153 32.4747 39.5153 31.8042 39.0149C31.34 38.6849 30.7748 38.5281 30.2069 38.5717C29.639 38.6154 29.1044 38.8569 28.6962 39.254C28.0007 39.8843 27.653 40.7102 27.4139 41.5795C27.1113 42.735 26.9795 43.9285 27.0227 45.1222C27.0227 46.2523 26.9575 47.3608 26.5663 48.4257C26.4362 48.8197 26.2376 49.1876 25.9795 49.5124C25.523 50.0993 24.871 50.1645 24.3494 49.6646C23.9711 49.2818 23.6557 48.8417 23.4148 48.3605C22.8063 47.1434 22.5455 45.7959 22.3064 44.4702C22.0351 42.8472 21.9042 41.2038 21.9152 39.5583C21.8935 37.4936 21.2415 35.5592 20.3938 33.7118C19.8287 32.4295 19.2202 31.1907 18.6986 29.9084C18.177 28.6261 17.851 27.3873 18.0683 26.0398C18.4812 23.4534 20.0896 21.8234 22.4586 20.9105C23.3038 20.5473 24.223 20.3894 25.141 20.4499C26.059 20.5103 26.9496 20.7874 27.7399 21.2583C28.2601 21.5253 28.7974 21.7576 29.3482 21.9538C29.6973 22.0956 30.0712 22.1667 30.448 22.163C30.8248 22.1592 31.1971 22.0807 31.5434 21.932C32.0293 21.7575 32.5015 21.5468 32.9561 21.3017C35.2164 20.0194 37.4333 20.2151 39.5632 21.4974C41.6931 22.7797 42.9319 24.714 42.7798 27.3438C42.6929 29.1912 42.1278 30.8864 41.2802 32.5165L39.9544 35.168C39.2412 36.6835 38.8773 38.3398 38.8894 40.0147C38.902 42.5131 38.5281 44.9984 37.781 47.3825C37.635 47.8066 37.4607 48.2205 37.2594 48.6213C37.143 48.8631 36.9969 49.0894 36.8247 49.2951C36.064 50.2731 35.1512 50.2079 34.5426 49.1212C33.9341 48.0345 33.9124 47.3173 33.8254 46.361C33.8037 45.9263 33.8254 45.4699 33.8254 45.0135ZM30.0002 25.9528C30.6957 25.8441 31.4129 25.8007 32.065 25.5833C32.7758 25.333 33.4661 25.0278 34.1297 24.6705C34.1848 24.6459 34.2338 24.6096 34.2734 24.564C34.3129 24.5185 34.342 24.4648 34.3586 24.4068C34.3752 24.3488 34.3788 24.2879 34.3693 24.2283C34.3598 24.1687 34.3374 24.1119 34.3036 24.062C34.1514 23.8012 33.9124 23.7794 33.6515 23.9316L33.4342 24.062C32.4451 24.6464 31.3234 24.969 30.1749 24.9994C29.0265 25.0298 27.8892 24.767 26.8705 24.2358C26.5011 24.062 26.1099 24.2141 26.1533 24.5618C26.1777 24.6631 26.2233 24.758 26.287 24.8404C26.3506 24.9228 26.431 24.9908 26.5228 25.04C27.5982 25.6028 28.7871 25.9149 30.0002 25.9528Z" fill="white"/>
<path d="M30.3924 21.0191C30.7959 21.0191 31.1829 20.8588 31.4682 20.5735C31.7535 20.2882 31.9138 19.9012 31.9138 19.4977V17.6938C31.9138 17.107 32.0877 16.9331 32.6745 16.9331H34.3263L30.3924 10C29.0884 12.3255 27.7843 14.5859 26.4586 16.9331H28.0017C28.7406 16.9331 28.871 17.0635 28.871 17.8025V19.4977C28.871 19.9012 29.0313 20.2882 29.3166 20.5735C29.6019 20.8588 29.9889 21.0191 30.3924 21.0191Z" fill="white"/>
</svg>
