<svg width="38" height="38" viewBox="0 0 38 38" fill="none" xmlns="http://www.w3.org/2000/svg">
<rect x="-0.40625" y="0.40625" width="37.1875" height="37.1875" rx="18.5938" transform="matrix(-1 0 0 1 37.1875 0)" fill="white"/>
<rect x="-0.40625" y="0.40625" width="37.1875" height="37.1875" rx="18.5938" transform="matrix(-1 0 0 1 37.1875 0)" stroke="#5C5C5C" stroke-width="0.8125"/>
<g clip-path="url(#clip0_116_4556)">
<path d="M12.9512 21.2501C12.5774 21.2505 12.2044 21.2027 11.8375 21.1076C11.8529 21.2026 11.8631 21.2976 11.8785 21.3927C11.9196 21.7049 11.9606 21.9968 11.9966 22.2887C12.0325 22.5805 12.0376 22.6891 12.053 22.8792C12.0684 23.0692 12.0941 23.3611 12.1249 23.5987C12.2019 24.1689 12.2943 24.7526 12.3969 25.3431C12.4207 25.4635 12.4588 25.578 12.5098 25.6825C12.5098 25.6961 12.515 25.7029 12.5201 25.7165C12.5252 25.73 12.5252 25.7029 12.5252 25.6893C12.5355 25.5699 12.5406 25.4498 12.5406 25.3296C12.5047 24.2571 12.5612 23.4358 12.7203 22.6756C12.8435 22.1054 13.1514 21.766 13.5466 21.766H13.5569C13.9521 21.7728 14.2549 22.1122 14.3678 22.6823C14.3781 22.7163 14.3832 22.757 14.3935 22.7909C14.4302 22.9455 14.4543 23.1048 14.4654 23.2661C14.4859 23.6937 14.5013 24.1281 14.5167 24.549C14.5269 24.8205 14.5321 25.0988 14.5475 25.3703C14.5509 25.484 14.5595 25.5973 14.5731 25.7097C14.6032 25.6617 14.6259 25.6063 14.6399 25.5468L14.6707 25.4178C14.7427 25.1524 14.7993 24.8801 14.84 24.6033C14.9581 23.6801 15.071 22.7434 15.1788 21.8407C15.2147 21.5488 15.2506 21.2569 15.2814 20.9583C15.2856 20.9478 15.2874 20.936 15.2866 20.9243L14.8965 20.999C14.26 21.1212 13.6031 21.2501 12.9512 21.2501Z" fill="#161616"/>
<path d="M14.8298 20.4423L15.1274 20.3812C15.0517 20.3136 14.9729 20.2524 14.8913 20.1979C14.7911 20.1437 14.7007 20.0618 14.6264 19.9576C14.552 19.8534 14.4953 19.7294 14.4602 19.5938C14.3524 19.2477 14.2344 18.8879 14.065 18.596C14.0063 18.4855 13.9289 18.3948 13.8388 18.3311C13.7488 18.2674 13.6487 18.2326 13.5466 18.2295C13.4346 18.2346 13.3251 18.2755 13.2277 18.3488C13.1302 18.4221 13.0477 18.5256 12.9872 18.6503C12.8729 18.8698 12.783 19.1098 12.7203 19.363C12.6176 19.8314 12.4226 20.1165 12.1146 20.2522C12.0616 20.275 12.0128 20.312 11.9713 20.3611C11.9297 20.4102 11.8964 20.4702 11.8734 20.5373C12.2341 20.6414 12.6026 20.6915 12.9718 20.6867C13.5928 20.6867 14.219 20.5645 14.8298 20.4423Z" fill="#161616"/>
<path d="M22.2104 16.234C22.2463 16.4309 22.3131 16.5191 22.4516 16.5463L22.8417 16.6345C23.1599 16.7092 23.4884 16.7906 23.8118 16.8246C23.9812 16.8449 24.1557 16.8585 24.3302 16.8585C24.9388 16.8526 25.5443 16.7431 26.1317 16.5327C26.184 16.52 26.2322 16.4867 26.2697 16.4369C26.3073 16.3872 26.3326 16.3236 26.3422 16.2544C26.4023 15.9499 26.4813 15.6525 26.5783 15.3652C26.7733 14.7747 26.8554 14.2316 26.8246 13.7022C26.7784 12.7723 26.3524 12.1953 25.7108 12.1953H25.6236C25.3817 12.2292 25.1417 12.2836 24.905 12.3582L24.6946 12.4193C24.7679 12.4678 24.8487 12.4934 24.9307 12.494C24.9744 12.4955 25.0179 12.4863 25.059 12.4668H25.1001C25.1617 12.4668 25.29 12.5211 25.3105 12.6297C25.3182 12.6914 25.3142 12.7547 25.299 12.8139C25.2838 12.8731 25.2578 12.9264 25.2232 12.9691C25.1571 13.0306 25.0783 13.0638 24.9974 13.0641H24.9512C24.7718 13.0382 24.5958 12.9811 24.4277 12.8945C24.2942 12.8198 24.1608 12.7248 24.0325 12.6365C23.9042 12.5483 23.8374 12.5008 23.7348 12.4397C23.5178 12.2959 23.2794 12.2171 23.0368 12.2089C22.3387 12.2089 21.8203 12.9012 21.7536 13.933C21.728 14.3674 21.7947 14.8018 21.9743 15.3448C22.0758 15.6298 22.1549 15.9277 22.2104 16.234Z" fill="#161616"/>
<path d="M16.6518 16.234C16.6877 16.4309 16.7545 16.5191 16.8879 16.5463L17.2883 16.6345C17.6065 16.7092 17.9298 16.7906 18.2532 16.8246C18.4226 16.8449 18.6022 16.8585 18.7767 16.8585C19.3836 16.8521 19.9873 16.7426 20.5731 16.5327C20.6254 16.52 20.6736 16.4867 20.7112 16.4369C20.7487 16.3872 20.774 16.3236 20.7836 16.2544C20.8454 15.9432 20.9261 15.639 21.0248 15.3448C21.2506 14.6525 21.3173 14.0552 21.2455 13.4578C21.148 12.718 20.7887 12.27 20.2292 12.1953H20.0701C19.8032 12.1953 19.5312 12.2768 19.2027 12.4465C19.2572 12.4811 19.3168 12.4997 19.3772 12.5008L19.485 12.4804H19.5261C19.5777 12.4855 19.6274 12.5089 19.6698 12.5483L19.7262 12.589L19.8032 12.6365L19.7622 12.7315C19.7506 12.7544 19.7419 12.7796 19.7365 12.8062C19.7057 12.8945 19.68 12.9895 19.6082 13.0098C19.5169 13.0357 19.4242 13.0516 19.331 13.0574C19.279 13.0584 19.2271 13.0492 19.1771 13.0302C19.02 12.9682 18.8672 12.8887 18.7203 12.7926L18.5868 12.718L18.3456 12.5619C18.1979 12.4643 18.0453 12.3803 17.8888 12.3107C17.7528 12.2517 17.611 12.2197 17.4679 12.2157C16.8315 12.2157 16.3285 12.813 16.2155 13.709C16.154 14.2181 16.2155 14.7407 16.4157 15.3448C16.5127 15.6322 16.5917 15.9296 16.6518 16.234Z" fill="#161616"/>
<path d="M15.1069 16.5731C15.1543 16.5592 15.1962 16.523 15.225 16.4713L15.2763 16.2541C15.4046 15.7179 15.5381 15.168 15.6356 14.6182C15.7295 14.1058 15.7008 13.5674 15.5534 13.0774C15.42 12.6362 15.2147 12.3919 14.9273 12.324C14.8496 12.3026 14.7705 12.2913 14.6912 12.29C14.4191 12.29 14.1574 12.4054 13.9418 12.5276C13.9875 12.56 14.0388 12.5764 14.0907 12.5751C14.1201 12.5777 14.1497 12.5731 14.1779 12.5615H14.2138C14.2669 12.5676 14.3181 12.5909 14.3627 12.6294L14.414 12.6702L14.491 12.7109L14.4499 12.8127C14.4448 12.8331 14.4345 12.8602 14.4294 12.8874C14.4243 12.9145 14.373 13.0571 14.3062 13.091C14.2295 13.1205 14.1501 13.1365 14.0701 13.1385C14.0252 13.1385 13.9804 13.1316 13.9367 13.1181C13.7746 13.051 13.6181 12.9623 13.4696 12.8534L13.4594 12.8398L13.2438 12.6769C13.1565 12.6091 13.0795 12.5412 12.9923 12.4869C12.8297 12.3778 12.651 12.3175 12.4688 12.3104C12.0787 12.3104 11.7605 12.6159 11.5706 13.1724C11.3499 13.8444 11.355 14.5572 11.5962 15.426C11.6829 15.7326 11.7566 16.0453 11.8169 16.3627C11.8426 16.4984 11.8785 16.5595 11.9709 16.5867C12.4768 16.7626 12.9978 16.8516 13.5209 16.8514C14.0565 16.8504 14.5897 16.7568 15.1069 16.5731Z" fill="#161616"/>
<path d="M24.284 21.2026H24.1711C23.7091 21.2026 23.2369 21.128 22.7853 21.0533L22.2155 20.9718C22.2566 21.2501 22.2925 21.5216 22.3285 21.7999C22.426 22.5059 22.5235 23.2322 22.6364 23.9449C22.7185 24.4811 22.8469 25.0106 22.9649 25.5196C22.9947 25.6024 23.0346 25.678 23.083 25.7436L23.1086 25.7911C23.1145 25.7646 23.118 25.7373 23.1189 25.7097C23.1342 25.5929 23.1445 25.4751 23.1497 25.3567C23.124 24.549 23.1291 23.5987 23.355 22.6756C23.4987 22.1054 23.8477 21.766 24.2942 21.766C24.7408 21.766 25.0949 22.1122 25.2181 22.6756C25.2951 23.0082 25.3721 23.3543 25.3926 23.7073C25.4132 24.0603 25.4183 24.4268 25.4234 24.7798C25.4234 24.9902 25.4234 25.2142 25.4285 25.4314C25.4347 25.5347 25.4485 25.637 25.4696 25.7368C25.4707 25.7534 25.4742 25.7695 25.4799 25.7844L25.5107 25.7368C25.5595 25.6616 25.5993 25.5769 25.6287 25.4857C25.7454 25.0604 25.8397 24.6249 25.911 24.1824C26.0393 23.3476 26.1574 22.4991 26.2703 21.671L26.3627 20.999C26.3669 20.9517 26.3687 20.9041 26.3678 20.8564L25.7827 20.9786C25.2694 21.0872 24.7818 21.189 24.284 21.2026Z" fill="#161616"/>
<path d="M26.0445 20.2862L25.8443 20.1708C25.7468 20.1259 25.6575 20.0544 25.5824 19.9608C25.5072 19.8673 25.4478 19.7538 25.408 19.6278C25.29 19.2884 25.1771 18.9829 25.0231 18.725C24.937 18.5744 24.8263 18.4516 24.6991 18.3658C24.572 18.28 24.4318 18.2334 24.2891 18.2295C23.976 18.2295 23.6886 18.4467 23.4987 18.8336C23.4106 18.9941 23.3398 19.17 23.2883 19.3563C23.2456 19.5757 23.1585 19.7757 23.0365 19.9347C22.9144 20.0937 22.7619 20.2058 22.5954 20.259C22.5236 20.2929 22.4561 20.341 22.3952 20.4016C22.9302 20.5509 23.4755 20.626 24.0222 20.6256C24.7044 20.6248 25.3838 20.5108 26.0445 20.2862Z" fill="#161616"/>
<path d="M27.9227 20.2184C27.8611 20.103 27.7431 19.9604 27.5121 19.9265L27.045 19.8858L26.7628 19.8586C26.5794 19.6125 26.3515 19.4326 26.1007 19.336H26.0904C26.075 19.3292 26.0596 19.3224 26.0237 19.2274V19.207L26.0134 19.1934C26.0083 19.1731 25.9929 19.1459 25.9826 19.1188L25.9518 19.0373L25.9313 18.983C25.8081 18.6708 25.6849 18.3517 25.495 18.0667C25.4037 17.9288 25.3003 17.8057 25.187 17.7001C25.5687 17.6458 25.9463 17.5505 26.3162 17.415C26.696 17.2861 26.9321 16.9738 27.0091 16.4851C27.0564 16.2309 27.1217 15.9832 27.2042 15.7452C27.4279 15.1108 27.5352 14.4154 27.5172 13.7157C27.4659 12.4328 26.8962 11.5233 26.0339 11.3468C25.8967 11.3141 25.7576 11.2982 25.6182 11.2993C25.2544 11.3004 24.8946 11.3998 24.5609 11.5911C24.4505 11.665 24.3301 11.7089 24.2067 11.7201C24.129 11.7196 24.0535 11.6863 23.9912 11.6251L23.9809 11.6115C23.9181 11.5559 23.8487 11.5146 23.7756 11.4893H23.7551C23.5192 11.3788 23.2713 11.3192 23.0211 11.3128C22.744 11.3092 22.4698 11.3886 22.2192 11.5449C21.9685 11.7012 21.7479 11.9305 21.5737 12.2156C21.2863 11.6997 20.8757 11.3875 20.3624 11.3128C20.2635 11.2993 20.1642 11.2925 20.0647 11.2925H20.0596C19.662 11.2978 19.2693 11.4086 18.9048 11.6183H18.8945C18.8147 11.6726 18.7274 11.705 18.6379 11.7133C18.5878 11.7084 18.5397 11.6849 18.4993 11.6454L18.489 11.6319H18.4839C18.4026 11.5656 18.3144 11.5153 18.2221 11.4825L18.1811 11.469C17.9512 11.3661 17.7103 11.3134 17.4676 11.3128C17.1831 11.3099 16.9018 11.3934 16.6455 11.557C16.3892 11.7206 16.1647 11.9599 15.9894 12.2563C15.8586 11.9938 15.6802 11.7786 15.4704 11.6304C15.2606 11.4822 15.0262 11.4057 14.7884 11.4079H14.619C14.2598 11.4554 13.921 11.6115 13.5669 11.7744H13.5515C13.53 11.7851 13.5076 11.792 13.4847 11.7948L13.4591 11.7812H13.4539C13.1563 11.5434 12.8162 11.4145 12.4685 11.4079C11.7448 11.4079 11.1289 12.0391 10.8723 13.0641C10.6567 13.9126 10.6875 14.8018 10.9749 15.7928C11.0485 16.0442 11.1069 16.3029 11.1494 16.5666C11.211 17.0281 11.4317 17.3336 11.7807 17.4558C12.096 17.565 12.4167 17.6444 12.7405 17.6933C12.5695 17.8649 12.4278 18.0824 12.3248 18.3314V18.345C12.2561 18.5216 12.1945 18.7029 12.14 18.888V18.9016C12.1092 19.0169 12.0681 19.1323 12.0271 19.2477V19.2613C12.0178 19.2937 12.0018 19.3219 11.9809 19.3428C11.7397 19.4785 11.4676 19.6889 11.2931 20.0826L11.2367 20.069L10.5592 19.9604H10.4822C10.1691 19.9604 10.01 20.1641 9.99971 20.5646C9.99458 20.7275 10.0356 21.1212 10.4565 21.1958H10.477C10.7285 21.2298 10.9441 21.2637 11.1597 21.3112C11.1905 21.542 11.2161 21.7796 11.2469 21.99L11.288 22.3429C11.3239 22.6212 11.3598 22.9131 11.4009 23.1982C11.5138 24.0467 11.6319 24.8612 11.7499 25.6214V25.635H11.7551C11.8072 25.8998 11.9037 26.1457 12.0374 26.3545C12.1451 26.5242 12.2837 26.7007 12.5506 26.7007C12.8175 26.7007 13.0433 26.4631 13.1409 26.1034V26.083C13.1919 25.8515 13.2178 25.6115 13.2178 25.3703C13.223 25.1667 13.223 24.963 13.223 24.7594V24.5897C13.223 24.3453 13.2281 24.1146 13.2435 23.8227C13.2723 23.473 13.3255 23.1276 13.4026 22.7909H13.4078C13.4135 22.755 13.4284 22.7227 13.4498 22.6993C13.4712 22.6758 13.498 22.6627 13.5258 22.662H13.5412C13.5874 22.662 13.6336 22.6688 13.69 22.8249L13.7157 22.9538L13.726 22.9878C13.8902 23.7955 13.8902 24.6168 13.8697 25.2413C13.8602 25.4802 13.874 25.7198 13.9107 25.954C13.9723 26.3545 14.1674 26.626 14.4394 26.6871H14.5575C14.6824 26.686 14.8044 26.6374 14.9091 26.5471C15.0137 26.4569 15.0966 26.3288 15.1477 26.178L15.158 26.1577V26.1305C15.2728 25.8631 15.3575 25.575 15.4095 25.2753C15.5994 23.9177 15.7636 22.5805 15.9073 21.3927L15.9279 21.2026L16.1742 21.223H16.1845C16.4319 21.2299 16.6787 21.2571 16.9236 21.3044C17.5609 21.4525 18.2064 21.5297 18.8534 21.5352H18.8586C19.389 21.5343 19.9182 21.4684 20.4394 21.3384C20.7499 21.2693 21.0639 21.2308 21.3787 21.223L21.5583 21.2094C21.5994 21.4809 21.6302 21.7388 21.6815 22.0918C21.7482 22.5805 21.8201 23.0828 21.8765 23.4629C22.0151 24.3318 22.1332 24.997 22.2563 25.6079C22.3289 25.9008 22.4539 26.1663 22.6208 26.3817C22.6823 26.4752 22.7579 26.5507 22.8427 26.6033C22.9276 26.6559 23.0198 26.6844 23.1135 26.6871H23.1186C23.4009 26.6871 23.6421 26.4428 23.7448 26.0491H23.7499C23.8069 25.8007 23.8312 25.5413 23.8218 25.282C23.8064 24.5286 23.8064 23.7277 23.9912 22.9946C24.0681 22.6484 24.2324 22.6484 24.2888 22.6484C24.3453 22.6484 24.4942 22.6484 24.5814 23.0081C24.761 23.748 24.7662 24.515 24.7456 25.1056C24.7353 25.3252 24.7405 25.5456 24.761 25.764C24.8021 26.2459 25.0023 26.5717 25.3102 26.6667H25.3256L25.4642 26.6871H25.4745C25.7362 26.6871 25.9569 26.4971 26.1263 26.1373C26.2342 25.9096 26.3172 25.6628 26.3727 25.4042C26.5061 24.644 26.6139 23.9652 26.7114 23.2729C26.7936 22.6959 26.8705 22.1325 26.9527 21.5081L27.0091 21.1076L27.3427 21.1483L27.3941 21.1619L27.5172 21.1822H27.5326C27.6321 21.1835 27.7291 21.1408 27.8081 21.0608C27.8872 20.9809 27.9438 20.8683 27.9689 20.741C27.9908 20.6548 27.998 20.5632 27.99 20.4729C27.982 20.3825 27.959 20.2956 27.9227 20.2184ZM11.8474 17.13C11.5959 17.0417 11.4471 16.8381 11.4009 16.4987C11.3563 16.2157 11.2928 15.9386 11.211 15.6706C10.9492 14.761 10.9184 13.9397 11.1135 13.1727C11.3393 12.2835 11.8474 11.7473 12.4685 11.7473C12.7696 11.7519 13.064 11.8645 13.3205 12.0731C13.3696 12.1149 13.4264 12.1384 13.4847 12.141C13.5413 12.1388 13.597 12.1227 13.649 12.0934C13.9877 11.9373 14.3111 11.788 14.6447 11.7473H14.7884C15.2965 11.7473 15.702 12.1206 15.9279 12.8062C15.9429 12.8404 15.955 12.8769 15.9638 12.9148C16.2974 12.1002 16.8261 11.6522 17.4676 11.6522C17.6843 11.6522 17.8995 11.7003 18.1041 11.7948L18.1605 11.8151C18.2245 11.8349 18.2853 11.8693 18.3402 11.917C18.4268 12.0066 18.5331 12.0566 18.643 12.0595C18.7696 12.0479 18.8934 12.0042 19.0074 11.9305C19.3398 11.7402 19.6974 11.6387 20.0596 11.6319C20.1505 11.6319 20.2413 11.6387 20.3316 11.6522C20.8911 11.7337 21.2965 12.1206 21.5326 12.7994L21.548 12.8537C21.8971 12.0663 22.4052 11.6522 23.0211 11.6522C23.2426 11.6554 23.4624 11.7035 23.6729 11.7948L23.7089 11.8083C23.7511 11.8209 23.7911 11.844 23.8269 11.8762C23.9346 11.9849 24.0661 12.0445 24.2016 12.0459C24.3248 12.0459 24.4685 11.9984 24.6584 11.8898C24.9592 11.7146 25.2844 11.6245 25.6131 11.6251C25.7386 11.6251 25.8639 11.6388 25.9877 11.6658C26.7268 11.8219 27.2093 12.6093 27.2555 13.7225C27.2715 14.3681 27.173 15.0096 26.9681 15.5959C26.8757 15.8548 26.8035 16.1255 26.7525 16.4037C26.696 16.7702 26.5369 16.9806 26.2444 17.0824C25.6316 17.3007 25.0004 17.4147 24.3658 17.4218C24.2133 17.4229 24.0609 17.4139 23.909 17.3947C23.483 17.3539 23.057 17.2521 22.6413 17.1571L22.359 17.096C22.0562 17.0281 21.8765 16.7906 21.7944 16.3697C21.7328 16.0689 21.6557 15.7741 21.5634 15.4873C21.5429 15.4126 21.5224 15.338 21.4967 15.2633C21.4762 15.3448 21.4505 15.4262 21.43 15.5009C21.3383 15.7956 21.2595 16.097 21.1939 16.4037C21.122 16.777 20.9527 17.001 20.6806 17.0756L20.6036 17.096C20.2341 17.1978 19.8492 17.3064 19.4693 17.3607C19.2104 17.4016 18.9499 17.422 18.6892 17.4218C18.0555 17.4173 17.4246 17.3102 16.8107 17.1028C16.4822 16.9942 16.3077 16.7702 16.2358 16.3697C16.1791 16.0722 16.1036 15.7816 16.01 15.5009L15.9484 15.2905C15.9279 15.3719 15.9125 15.4466 15.8919 15.5213C15.8059 15.8396 15.7323 16.1636 15.6712 16.4919C15.6096 16.8381 15.4659 17.0417 15.2196 17.1232C14.6649 17.3153 14.094 17.4134 13.5207 17.415C12.956 17.4156 12.3936 17.3198 11.8474 17.13ZM18.5249 18.1074C18.5198 18.0056 18.5095 17.8766 18.5711 17.7884C18.5915 17.7601 18.6163 17.7382 18.6438 17.7241C18.6713 17.71 18.7008 17.7041 18.7303 17.7069H18.7405C18.7707 17.7041 18.801 17.7099 18.8294 17.7239C18.8577 17.738 18.8834 17.76 18.9048 17.7884C18.9663 17.8766 18.9561 18.0056 18.951 18.1074C18.9467 18.1364 18.945 18.1661 18.9458 18.1956C18.951 18.4739 18.951 18.7522 18.951 19.0237V19.1799C18.9805 19.1204 19.0189 19.0696 19.0639 19.0305C19.0993 19.0088 19.1378 18.9973 19.1768 18.9966H19.3821V19.1731C19.3872 19.2477 19.3924 19.3428 19.3513 19.4038C19.2106 19.6284 19.0561 19.8373 18.8894 20.0283C18.8517 20.0741 18.8019 20.0985 18.7508 20.0962C18.6887 20.0978 18.6278 20.0741 18.5763 20.0283C18.4153 19.8505 18.2675 19.6527 18.1349 19.4378C18.0887 19.3699 18.0938 19.2681 18.0989 19.1866V18.983L18.1913 18.9966H18.2478C18.3083 18.988 18.3693 19.0047 18.4223 19.0441C18.4601 19.0792 18.4946 19.1202 18.5249 19.1663V19.0169C18.5249 18.7454 18.5249 18.4671 18.5301 18.1888C18.5309 18.1615 18.5292 18.1342 18.5249 18.1074ZM27.7328 20.6392C27.702 20.775 27.6404 20.8429 27.5429 20.8429L27.4454 20.8293L27.3992 20.8157C27.2452 20.7886 27.081 20.775 26.927 20.7614L26.8038 20.7478L26.7114 21.4538C26.6293 22.0647 26.5523 22.6348 26.4702 23.2118C26.3624 23.9788 26.2495 24.6644 26.1314 25.3296C26.0853 25.5558 26.0125 25.7712 25.9159 25.9676C25.7927 26.2323 25.6541 26.3613 25.4796 26.3613L25.3718 26.3477C25.0793 26.2595 25.0331 25.8658 25.0228 25.7368C25.0023 25.5389 24.9971 25.3388 25.0074 25.1395C25.0279 24.4675 25.0177 23.6869 24.8329 22.9199C24.7662 22.6484 24.6225 22.3226 24.294 22.3226C23.9655 22.3226 23.8115 22.6416 23.7499 22.9131C23.5549 23.7005 23.5549 24.5354 23.5703 25.316C23.578 25.5362 23.5572 25.7566 23.5087 25.9676C23.442 26.2188 23.2983 26.3749 23.1237 26.3749C23.0641 26.3725 23.0055 26.3538 22.9516 26.3199C22.8977 26.286 22.8497 26.2377 22.8107 26.178C22.672 25.9984 22.5681 25.7772 22.5078 25.5332C22.3795 24.9019 22.2615 24.2232 22.1332 23.4086C22.0664 22.9538 21.9997 22.4923 21.9381 22.0443C21.8765 21.5963 21.8355 21.2976 21.779 20.9311C21.7624 20.903 21.7387 20.8838 21.7123 20.8768L21.3787 20.8972C21.05 20.9039 20.7222 20.9447 20.3983 21.0193C19.8908 21.1471 19.3752 21.2107 18.8586 21.2094C18.2254 21.2025 17.5937 21.1276 16.9698 20.9854C16.713 20.9355 16.4542 20.906 16.1947 20.8972L15.8047 20.8632H15.779C15.7379 20.8632 15.7174 20.8632 15.702 20.9922C15.548 22.2479 15.3684 23.7344 15.1631 25.2277C15.122 25.506 15.0245 25.764 14.927 26.0083L14.9167 26.0491C14.8851 26.142 14.834 26.2208 14.7693 26.2762C14.7047 26.3316 14.6293 26.3611 14.5523 26.3613H14.4856C14.3675 26.3341 14.2136 26.2323 14.1622 25.8929C14.1297 25.6878 14.1176 25.4778 14.1263 25.2685C14.1468 24.6101 14.1468 23.748 13.9723 22.8995L13.9621 22.8588L13.9313 22.7163C13.844 22.4583 13.726 22.3362 13.5463 22.3294H13.5361C13.4508 22.3306 13.3682 22.3693 13.3013 22.4393C13.2344 22.5093 13.187 22.6067 13.1665 22.7163C13.0947 23.0625 13.0177 23.4358 12.9971 23.8091C12.9766 24.1824 12.9766 24.4539 12.9715 24.773C12.9715 24.9698 12.9715 25.1802 12.9663 25.3771C12.9672 25.5884 12.9447 25.7988 12.8996 26.0015C12.838 26.2323 12.7046 26.3749 12.5506 26.3749C12.3966 26.3749 12.3248 26.2934 12.2324 26.1509C12.1246 25.9779 12.0459 25.7766 12.0014 25.5603C11.8731 24.7458 11.7551 23.9177 11.6524 23.1439C11.6062 22.8113 11.5652 22.4787 11.5241 22.1529C11.483 21.8271 11.4368 21.4402 11.3855 21.0872C11.3789 21.0693 11.3696 21.0534 11.3581 21.0405C11.3466 21.0277 11.3332 21.0181 11.3188 21.0125C11.0827 20.9582 10.8363 20.9107 10.5027 20.8632C10.4308 20.8496 10.2512 20.8293 10.2563 20.5713C10.2615 20.3134 10.3436 20.2998 10.4822 20.2998H10.5284L11.1905 20.4084L11.2623 20.422L11.4163 20.4492H11.4317C11.5498 20.008 11.8115 19.7975 12.0835 19.6414C12.156 19.5842 12.2133 19.4989 12.2478 19.3971C12.2941 19.2734 12.3352 19.1465 12.371 19.0169C12.4223 18.8473 12.4788 18.6708 12.5455 18.5011C12.7713 17.9784 13.146 17.6662 13.5412 17.6662C13.9364 17.6662 14.2598 17.9377 14.4959 18.406C14.5897 18.5988 14.6688 18.8035 14.732 19.0169C14.7782 19.1459 14.8192 19.2817 14.8705 19.4106C14.9099 19.5102 14.9683 19.5945 15.0399 19.655C15.2811 19.8111 15.4916 19.9672 15.6148 20.293L15.6404 20.3134C15.7631 20.2942 15.8865 20.2851 16.01 20.2863C16.4514 20.2863 16.8825 20.3813 17.3034 20.4763L17.5754 20.5306C17.9693 20.612 18.3675 20.6529 18.7662 20.6528C19.3469 20.6473 19.926 20.57 20.4959 20.422C20.8048 20.3363 21.1194 20.2908 21.4351 20.2863C21.5672 20.2874 21.6992 20.2988 21.8303 20.3202C21.8564 20.3192 21.8816 20.3073 21.9022 20.2863C22.036 19.9999 22.2469 19.7913 22.4924 19.7025C22.6875 19.6278 22.8004 19.4785 22.8723 19.2138C22.9439 18.9507 23.0423 18.7018 23.1648 18.4739C23.288 18.2281 23.4549 18.026 23.6509 17.8852C23.8468 17.7444 24.0659 17.6692 24.2888 17.6662C24.4805 17.6655 24.6699 17.7204 24.8438 17.8271C25.0176 17.9339 25.1716 18.0898 25.2948 18.2839C25.4745 18.5554 25.5977 18.8812 25.7208 19.1934C25.7465 19.2545 25.767 19.3156 25.7927 19.3699C25.8543 19.5328 25.9159 19.6143 26.0185 19.655C26.229 19.75 26.4651 19.8926 26.6344 20.1844L26.7371 20.198L27.0245 20.2252L27.4865 20.2659C27.5942 20.2795 27.6661 20.327 27.7072 20.4084C27.7252 20.4413 27.737 20.4795 27.7415 20.5196C27.7459 20.5598 27.743 20.6009 27.7328 20.6392Z" fill="#161616"/>
</g>
<defs>
<clipPath id="clip0_116_4556">
<rect width="18" height="15.4286" fill="white" transform="translate(10 11.2856)"/>
</clipPath>
</defs>
</svg>
