<svg width="60" height="60" viewBox="0 0 60 60" fill="none" xmlns="http://www.w3.org/2000/svg">
<rect width="60" height="60" rx="30" fill="#353434"/>
<path d="M33.0369 17.6174L36.59 15.7379L35.4571 19.4326L35.4185 20.1921L38.1863 19.7673L40.1816 23.4748L38.4309 24.2987L39.7954 25.7406L43.1425 23.7709L44.1467 27.2596L43.5416 28.6371L46.3995 28.9975L46.7471 28.4697L46.8243 28.341C48.0473 25.9594 48.3434 23.462 47.5839 20.8744C47.365 20.1535 47.0432 19.4712 46.76 18.7632C46.6035 18.321 46.3822 17.9045 46.1034 17.5273C45.1379 16.1885 43.5931 15.3002 42.074 14.6952C41.5462 14.4892 41.0313 14.3218 40.5292 14.1802L39.8598 14.0515C39.538 14.0257 39.2161 14 38.8943 14C37.1412 14.0167 35.4265 14.5155 33.938 15.4418C33.7427 15.5515 33.5536 15.6718 33.3716 15.8023H33.3587C32.9094 16.1149 32.4795 16.4545 32.0714 16.8193L31.9941 16.8708L33.0369 17.6174Z" fill="white"/>
<path d="M42.589 29.1649L43.4644 27.221L42.7564 24.7364L39.6796 26.5516L37.3624 24.0927L39.2934 23.1916L37.8387 20.4753L34.7362 20.9516L34.8264 19.3167L35.5215 17.0381L32.9983 18.3641L31.4793 17.3085C30.3335 18.2868 29.677 18.9305 29.677 18.9305C29.5808 18.6967 29.4554 18.4761 29.3037 18.274C28.4553 17.2827 27.4716 16.416 26.3814 15.6993C24.4375 14.4377 22.3263 13.7811 20.009 14.0772C16.8293 14.4892 14.5636 16.2528 13.0831 19.0206L13.0059 19.1494C12.1176 20.5783 12.0404 21.2348 12.0018 22.2004C12.0009 22.2394 12.0052 22.2783 12.0146 22.3162C12.0146 23.256 11.9632 24.2086 12.0533 25.1484C12.2592 26.9378 13.0831 28.4955 13.9843 30.0145C14.6408 31.0959 15.3617 32.1386 16.0183 33.2071C16.7907 34.5074 17.473 35.8591 17.679 37.3781C17.8463 38.5239 17.8721 39.6953 17.9622 40.8668C18.078 42.4116 18.4642 43.8921 19.404 45.1666C20.9359 47.252 23.7681 47.1748 25.197 45.0249C25.503 44.5847 25.7457 44.1037 25.9179 43.596C26.4071 42.0254 26.8062 40.442 27.3083 38.8843C27.5657 38.099 27.8618 37.3009 28.2995 36.6057C29.1492 35.3184 30.7455 35.3441 31.6209 36.6057C31.9055 37.012 32.1269 37.459 32.2774 37.9317C32.6379 39.0645 32.9468 40.1974 33.2558 41.3431C33.5648 42.4889 33.9381 43.8792 34.6848 44.9992C35.4314 46.1192 36.7188 46.8272 38.2378 46.6084C39.3707 46.4539 40.1431 45.7459 40.7353 44.819C41.5849 43.4673 41.8939 41.9739 41.9711 40.4034C42.0226 39.4121 42.1127 38.4209 42.2157 37.4296C42.4217 35.4214 44.7775 31.5207 46.0134 29.5897L42.589 29.1649Z" fill="white"/>
</svg>
