<svg width="109" height="59" viewBox="0 0 109 59" fill="none" xmlns="http://www.w3.org/2000/svg">
<path d="M7.06818 18H1.41761V0.545454H7.24716C8.95739 0.545454 10.4261 0.894886 11.6534 1.59375C12.8807 2.28693 13.821 3.28409 14.4744 4.58523C15.1335 5.88068 15.4631 7.43466 15.4631 9.24716C15.4631 11.0653 15.1307 12.6278 14.4659 13.9347C13.8068 15.2415 12.8523 16.2472 11.6023 16.9517C10.3523 17.6506 8.84091 18 7.06818 18ZM4.05114 15.6989H6.9233C8.25284 15.6989 9.35795 15.4489 10.2386 14.9489C11.1193 14.4432 11.7784 13.7131 12.2159 12.7585C12.6534 11.7983 12.8722 10.6278 12.8722 9.24716C12.8722 7.87784 12.6534 6.71591 12.2159 5.76136C11.7841 4.80682 11.1392 4.08239 10.2812 3.58807C9.4233 3.09375 8.35795 2.84659 7.08523 2.84659H4.05114V15.6989ZM24.1754 18.2642C22.8857 18.2642 21.7749 17.9886 20.843 17.4375C19.9169 16.8807 19.201 16.0994 18.6953 15.0938C18.1953 14.0824 17.9453 12.8977 17.9453 11.5398C17.9453 10.1989 18.1953 9.01705 18.6953 7.99432C19.201 6.97159 19.9055 6.1733 20.8089 5.59943C21.718 5.02557 22.7805 4.73864 23.9964 4.73864C24.7351 4.73864 25.451 4.8608 26.1442 5.10511C26.8374 5.34943 27.4595 5.73295 28.0107 6.25568C28.5618 6.77841 28.9964 7.45739 29.3146 8.29261C29.6328 9.12216 29.7919 10.1307 29.7919 11.3182V12.2216H19.3857V10.3125H27.2947C27.2947 9.64205 27.1584 9.0483 26.8857 8.53125C26.6129 8.00852 26.2294 7.59659 25.7351 7.29545C25.2464 6.99432 24.6726 6.84375 24.0135 6.84375C23.2976 6.84375 22.6726 7.01989 22.1385 7.37216C21.6101 7.71875 21.201 8.1733 20.9112 8.7358C20.6271 9.29261 20.4851 9.89773 20.4851 10.5511V12.0426C20.4851 12.9176 20.6385 13.6619 20.9453 14.2756C21.2578 14.8892 21.6925 15.358 22.2493 15.6818C22.8061 16 23.4567 16.1591 24.201 16.1591C24.6839 16.1591 25.1243 16.0909 25.522 15.9545C25.9197 15.8125 26.2635 15.6023 26.5533 15.3239C26.843 15.0455 27.0646 14.7017 27.218 14.2926L29.63 14.7273C29.4368 15.4375 29.0902 16.0597 28.5902 16.5938C28.0959 17.1222 27.4737 17.5341 26.7237 17.8295C25.9794 18.1193 25.13 18.2642 24.1754 18.2642ZM35.1676 10.2273V18H32.6193V4.90909H35.0653V7.03977H35.2273C35.5284 6.34659 36 5.78977 36.642 5.36932C37.2898 4.94886 38.1051 4.73864 39.0881 4.73864C39.9801 4.73864 40.7614 4.92614 41.4318 5.30114C42.1023 5.67045 42.6222 6.22159 42.9915 6.95455C43.3608 7.6875 43.5455 8.59375 43.5455 9.6733V18H40.9972V9.98011C40.9972 9.03125 40.75 8.28977 40.2557 7.75568C39.7614 7.21591 39.0824 6.94602 38.2188 6.94602C37.6278 6.94602 37.1023 7.07386 36.642 7.32955C36.1875 7.58523 35.8267 7.96023 35.5597 8.45455C35.2983 8.94318 35.1676 9.53409 35.1676 10.2273ZM53.0739 4.90909V6.95455H45.9233V4.90909H53.0739ZM47.8409 1.77273H50.3892V14.1562C50.3892 14.6506 50.4631 15.0227 50.6108 15.2727C50.7585 15.517 50.9489 15.6847 51.1818 15.7756C51.4205 15.8608 51.679 15.9034 51.9574 15.9034C52.1619 15.9034 52.3409 15.8892 52.4943 15.8608C52.6477 15.8324 52.767 15.8097 52.8523 15.7926L53.3125 17.8977C53.1648 17.9545 52.9545 18.0114 52.6818 18.0682C52.4091 18.1307 52.0682 18.1648 51.6591 18.1705C50.9886 18.1818 50.3636 18.0625 49.7841 17.8125C49.2045 17.5625 48.7358 17.1761 48.3778 16.6534C48.0199 16.1307 47.8409 15.4744 47.8409 14.6847V1.77273ZM59.7024 18.2898C58.8729 18.2898 58.1229 18.1364 57.4524 17.8295C56.782 17.517 56.2507 17.0653 55.8587 16.4744C55.4723 15.8835 55.2791 15.1591 55.2791 14.3011C55.2791 13.5625 55.4212 12.9545 55.7053 12.4773C55.9893 12 56.3729 11.6222 56.8558 11.3438C57.3388 11.0653 57.8786 10.8551 58.4751 10.7131C59.0717 10.571 59.6797 10.4631 60.299 10.3892C61.0831 10.2983 61.7195 10.2244 62.2081 10.1676C62.6967 10.1051 63.0518 10.0057 63.2734 9.86932C63.495 9.73295 63.6058 9.51136 63.6058 9.20455V9.14489C63.6058 8.40057 63.3956 7.82386 62.9751 7.41477C62.5604 7.00568 61.9411 6.80114 61.1172 6.80114C60.2592 6.80114 59.5831 6.99148 59.0888 7.37216C58.6001 7.74716 58.2621 8.16477 58.0746 8.625L55.6797 8.07955C55.9638 7.28409 56.3786 6.64205 56.924 6.15341C57.4751 5.65909 58.1087 5.30114 58.8246 5.07954C59.5405 4.85227 60.2933 4.73864 61.0831 4.73864C61.6058 4.73864 62.1598 4.80114 62.745 4.92614C63.3359 5.04545 63.8871 5.26705 64.3984 5.59091C64.9155 5.91477 65.3388 6.37784 65.6683 6.98011C65.9979 7.5767 66.1626 8.35227 66.1626 9.30682V18H63.674V16.2102H63.5717C63.407 16.5398 63.1598 16.8636 62.8303 17.1818C62.5007 17.5 62.0774 17.7642 61.5604 17.9744C61.0433 18.1847 60.424 18.2898 59.7024 18.2898ZM60.2564 16.2443C60.9609 16.2443 61.5632 16.1051 62.0632 15.8267C62.5689 15.5483 62.9524 15.1847 63.2138 14.7358C63.4808 14.2812 63.6143 13.7955 63.6143 13.2784V11.5909C63.5234 11.6818 63.3473 11.767 63.0859 11.8466C62.8303 11.9205 62.5376 11.9858 62.2081 12.0426C61.8786 12.0937 61.5575 12.142 61.245 12.1875C60.9325 12.2273 60.6712 12.2614 60.4609 12.2898C59.9666 12.3523 59.5149 12.4574 59.1058 12.6051C58.7024 12.7528 58.3786 12.9659 58.1342 13.2443C57.8956 13.517 57.7763 13.8807 57.7763 14.3352C57.7763 14.9659 58.0092 15.4432 58.4751 15.767C58.9411 16.0852 59.5348 16.2443 60.2564 16.2443ZM72.1051 0.545454V18H69.5568V0.545454H72.1051ZM16.5795 45.2727C16.5795 47.1364 16.2386 48.7386 15.5568 50.0795C14.875 51.4148 13.9403 52.4432 12.7528 53.1648C11.571 53.8807 10.2273 54.2386 8.72159 54.2386C7.21023 54.2386 5.8608 53.8807 4.6733 53.1648C3.49148 52.4432 2.55966 51.4119 1.87784 50.071C1.19602 48.7301 0.855114 47.1307 0.855114 45.2727C0.855114 43.4091 1.19602 41.8097 1.87784 40.4744C2.55966 39.1335 3.49148 38.1051 4.6733 37.3892C5.8608 36.6676 7.21023 36.3068 8.72159 36.3068C10.2273 36.3068 11.571 36.6676 12.7528 37.3892C13.9403 38.1051 14.875 39.1335 15.5568 40.4744C16.2386 41.8097 16.5795 43.4091 16.5795 45.2727ZM13.9716 45.2727C13.9716 43.8523 13.7415 42.6562 13.2812 41.6847C12.8267 40.7074 12.2017 39.9688 11.4062 39.4688C10.6165 38.9631 9.72159 38.7102 8.72159 38.7102C7.71591 38.7102 6.81818 38.9631 6.02841 39.4688C5.23864 39.9688 4.61364 40.7074 4.15341 41.6847C3.69886 42.6562 3.47159 43.8523 3.47159 45.2727C3.47159 46.6932 3.69886 47.892 4.15341 48.8693C4.61364 49.8409 5.23864 50.5795 6.02841 51.0852C6.81818 51.5852 7.71591 51.8352 8.72159 51.8352C9.72159 51.8352 10.6165 51.5852 11.4062 51.0852C12.2017 50.5795 12.8267 49.8409 13.2812 48.8693C13.7415 47.892 13.9716 46.6932 13.9716 45.2727ZM19.6584 58.9091V40.9091H22.147V43.0312H22.3601C22.5078 42.7585 22.7209 42.4432 22.9993 42.0852C23.2777 41.7273 23.6641 41.4148 24.1584 41.1477C24.6527 40.875 25.3061 40.7386 26.1186 40.7386C27.1754 40.7386 28.1186 41.0057 28.9482 41.5398C29.7777 42.0739 30.4283 42.8437 30.8999 43.8494C31.3771 44.8551 31.6158 46.0653 31.6158 47.4801C31.6158 48.8949 31.38 50.108 30.9084 51.1193C30.4368 52.125 29.7891 52.9006 28.9652 53.446C28.1413 53.9858 27.201 54.2557 26.1442 54.2557C25.3487 54.2557 24.6982 54.1222 24.1925 53.8551C23.6925 53.5881 23.3004 53.2756 23.0163 52.9176C22.7322 52.5597 22.5135 52.2415 22.3601 51.9631H22.2067V58.9091H19.6584ZM22.1555 47.4545C22.1555 48.375 22.2891 49.1818 22.5561 49.875C22.8232 50.5682 23.2095 51.1108 23.7152 51.5028C24.2209 51.8892 24.8402 52.0824 25.5732 52.0824C26.3345 52.0824 26.9709 51.8807 27.4822 51.4773C27.9936 51.0682 28.38 50.5142 28.6413 49.8153C28.9084 49.1165 29.0419 48.3295 29.0419 47.4545C29.0419 46.5909 28.9112 45.8153 28.6499 45.1278C28.3942 44.4403 28.0078 43.8977 27.4908 43.5C26.9794 43.1023 26.3402 42.9034 25.5732 42.9034C24.8345 42.9034 24.2095 43.0937 23.6982 43.4744C23.1925 43.8551 22.8089 44.3864 22.5476 45.0682C22.2862 45.75 22.1555 46.5455 22.1555 47.4545ZM42.7635 48.571V40.9091H45.3203V54H42.8146V51.733H42.6783C42.3771 52.4318 41.8942 53.0142 41.2294 53.4801C40.5703 53.9403 39.7493 54.1705 38.7663 54.1705C37.9254 54.1705 37.1811 53.9858 36.5334 53.6165C35.8913 53.2415 35.3857 52.6875 35.0163 51.9545C34.6527 51.2216 34.4709 50.3153 34.4709 49.2358V40.9091H37.0192V48.929C37.0192 49.821 37.2663 50.5312 37.7607 51.0597C38.255 51.5881 38.897 51.8523 39.6868 51.8523C40.1641 51.8523 40.6385 51.733 41.1101 51.4943C41.5874 51.2557 41.9822 50.8949 42.2947 50.4119C42.6129 49.929 42.7692 49.3153 42.7635 48.571ZM51.2926 36.5455V54H48.7443V36.5455H51.2926ZM60.3629 54.2642C59.0732 54.2642 57.9624 53.9886 57.0305 53.4375C56.1044 52.8807 55.3885 52.0994 54.8828 51.0938C54.3828 50.0824 54.1328 48.8977 54.1328 47.5398C54.1328 46.1989 54.3828 45.017 54.8828 43.9943C55.3885 42.9716 56.093 42.1733 56.9964 41.5994C57.9055 41.0256 58.968 40.7386 60.1839 40.7386C60.9226 40.7386 61.6385 40.8608 62.3317 41.1051C63.0249 41.3494 63.647 41.733 64.1982 42.2557C64.7493 42.7784 65.1839 43.4574 65.5021 44.2926C65.8203 45.1222 65.9794 46.1307 65.9794 47.3182V48.2216H55.5732V46.3125H63.4822C63.4822 45.642 63.3459 45.0483 63.0732 44.5312C62.8004 44.0085 62.4169 43.5966 61.9226 43.2955C61.4339 42.9943 60.8601 42.8438 60.201 42.8438C59.4851 42.8438 58.8601 43.0199 58.326 43.3722C57.7976 43.7187 57.3885 44.1733 57.0987 44.7358C56.8146 45.2926 56.6726 45.8977 56.6726 46.5511V48.0426C56.6726 48.9176 56.826 49.6619 57.1328 50.2756C57.4453 50.8892 57.88 51.358 58.4368 51.6818C58.9936 52 59.6442 52.1591 60.3885 52.1591C60.8714 52.1591 61.3118 52.0909 61.7095 51.9545C62.1072 51.8125 62.451 51.6023 62.7408 51.3239C63.0305 51.0455 63.2521 50.7017 63.4055 50.2926L65.8175 50.7273C65.6243 51.4375 65.2777 52.0597 64.7777 52.5938C64.2834 53.1222 63.6612 53.5341 62.9112 53.8295C62.1669 54.1193 61.3175 54.2642 60.3629 54.2642ZM71.3551 46.2273V54H68.8068V40.9091H71.2528V43.0398H71.4148C71.7159 42.3466 72.1875 41.7898 72.8295 41.3693C73.4773 40.9489 74.2926 40.7386 75.2756 40.7386C76.1676 40.7386 76.9489 40.9261 77.6193 41.3011C78.2898 41.6705 78.8097 42.2216 79.179 42.9545C79.5483 43.6875 79.733 44.5937 79.733 45.6733V54H77.1847V45.9801C77.1847 45.0312 76.9375 44.2898 76.4432 43.7557C75.9489 43.2159 75.2699 42.946 74.4062 42.946C73.8153 42.946 73.2898 43.0739 72.8295 43.3295C72.375 43.5852 72.0142 43.9602 71.7472 44.4545C71.4858 44.9432 71.3551 45.5341 71.3551 46.2273ZM88.6648 54.2642C87.3977 54.2642 86.3068 53.9773 85.392 53.4034C84.483 52.8239 83.7841 52.0256 83.2955 51.0085C82.8068 49.9915 82.5625 48.8267 82.5625 47.5142C82.5625 46.1847 82.8125 45.0114 83.3125 43.9943C83.8125 42.9716 84.517 42.1733 85.4261 41.5994C86.3352 41.0256 87.4063 40.7386 88.6392 40.7386C89.6335 40.7386 90.5199 40.9233 91.2983 41.2926C92.0767 41.6562 92.7045 42.1676 93.1818 42.8267C93.6648 43.4858 93.9517 44.2557 94.0426 45.1364H91.5625C91.4261 44.5227 91.1136 43.9943 90.625 43.5511C90.142 43.108 89.4943 42.8864 88.6818 42.8864C87.9716 42.8864 87.3494 43.0739 86.8153 43.4489C86.2869 43.8182 85.875 44.3466 85.5795 45.0341C85.2841 45.7159 85.1364 46.5227 85.1364 47.4545C85.1364 48.4091 85.2813 49.233 85.571 49.9261C85.8608 50.6193 86.2699 51.1562 86.7983 51.5369C87.3324 51.9176 87.9602 52.108 88.6818 52.108C89.1648 52.108 89.6023 52.0199 89.9943 51.8438C90.392 51.6619 90.7244 51.4034 90.9915 51.0682C91.2642 50.733 91.4545 50.3295 91.5625 49.858H94.0426C93.9517 50.7045 93.6761 51.4602 93.2159 52.125C92.7557 52.7898 92.1392 53.3125 91.3665 53.6932C90.5994 54.0739 89.6989 54.2642 88.6648 54.2642ZM102.41 54.2642C101.12 54.2642 100.009 53.9886 99.0774 53.4375C98.1513 52.8807 97.4354 52.0994 96.9297 51.0938C96.4297 50.0824 96.1797 48.8977 96.1797 47.5398C96.1797 46.1989 96.4297 45.017 96.9297 43.9943C97.4354 42.9716 98.1399 42.1733 99.0433 41.5994C99.9524 41.0256 101.015 40.7386 102.231 40.7386C102.969 40.7386 103.685 40.8608 104.379 41.1051C105.072 41.3494 105.694 41.733 106.245 42.2557C106.796 42.7784 107.231 43.4574 107.549 44.2926C107.867 45.1222 108.026 46.1307 108.026 47.3182V48.2216H97.62V46.3125H105.529C105.529 45.642 105.393 45.0483 105.12 44.5312C104.847 44.0085 104.464 43.5966 103.969 43.2955C103.481 42.9943 102.907 42.8438 102.248 42.8438C101.532 42.8438 100.907 43.0199 100.373 43.3722C99.8445 43.7187 99.4354 44.1733 99.1456 44.7358C98.8615 45.2926 98.7195 45.8977 98.7195 46.5511V48.0426C98.7195 48.9176 98.8729 49.6619 99.1797 50.2756C99.4922 50.8892 99.9268 51.358 100.484 51.6818C101.04 52 101.691 52.1591 102.435 52.1591C102.918 52.1591 103.359 52.0909 103.756 51.9545C104.154 51.8125 104.498 51.6023 104.788 51.3239C105.077 51.0455 105.299 50.7017 105.452 50.2926L107.864 50.7273C107.671 51.4375 107.325 52.0597 106.825 52.5938C106.33 53.1222 105.708 53.5341 104.958 53.8295C104.214 54.1193 103.364 54.2642 102.41 54.2642Z" fill="white"/>
</svg>
