<svg width="60" height="60" viewBox="0 0 60 60" fill="none" xmlns="http://www.w3.org/2000/svg">
<rect width="60" height="60" rx="30" fill="#161616"/>
<path d="M37.2438 28.5785C36.9336 28.0832 36.3902 27.7766 35.8043 27.7766H31.6528L36.0336 17.3418C36.2524 16.8198 36.1955 16.2243 35.8807 15.7537C35.5652 15.2831 35.0362 15 34.4686 15H28.9534C28.2022 15 27.5406 15.4953 27.327 16.2126L22.5701 32.2013C22.4179 32.7129 22.5165 33.2602 22.8372 33.6879C23.1573 34.1155 23.6608 34.3615 24.1964 34.3615H28.6425L27.8659 43.5427C27.8116 44.1851 28.2238 44.7781 28.8475 44.9512C29.4713 45.123 30.129 44.8295 30.4145 44.2509L37.3261 30.2181C37.5848 29.6954 37.5528 29.0738 37.2438 28.5785Z" fill="white"/>
</svg>
