<svg width="60" height="60" viewBox="0 0 60 60" fill="none" xmlns="http://www.w3.org/2000/svg">
<rect width="60" height="60" rx="30" fill="#353434"/>
<g clip-path="url(#clip0_617_7673)">
<path d="M46.731 41.8069L45.931 40.469L44.6897 38.3724L41.1448 32.4276C40.8185 31.8759 40.2966 31.4672 39.6828 31.2828C39.6406 31.2632 39.603 31.235 39.5724 31.2L39.2138 30.5931L38.8552 30C38.8414 29.9862 38.8414 29.9862 38.8414 29.9724L38.869 29.9448C40.7724 27.8345 41.4759 25.4069 40.9655 22.7034C40.6066 20.8212 39.6036 19.1226 38.1287 17.8993C36.6537 16.6761 34.7989 16.0045 32.8828 16C32.4997 16.0001 32.1171 16.0277 31.7379 16.0828C29.1448 16.4414 27.1034 17.7793 25.6828 20.069L25.6552 20.0966H25.6276C24.9148 19.8027 24.2849 19.3385 23.7931 18.7448C23.5677 18.4774 23.308 18.2408 23.0207 18.0414C22.2839 17.5169 21.401 17.2371 20.4966 17.2414C20.2426 17.2397 19.9889 17.2581 19.7379 17.2966C17.9862 17.5586 16.8138 18.5241 16.2483 20.1517C15.931 21.1172 15.9862 22.1103 16.0552 22.9655C16.2145 24.5561 16.4678 26.1359 16.8138 27.6966C17.3655 30.3172 17.931 32.869 18.469 35.2828C18.8383 36.8309 18.9777 38.425 18.8828 40.0138C18.799 40.7847 19.0219 41.5577 19.5034 42.1655C19.714 42.4561 19.9895 42.6934 20.308 42.8587C20.6265 43.0239 20.9792 43.1124 21.3379 43.1172C21.9561 43.1069 22.5455 42.8543 22.9793 42.4138C23.2494 42.1346 23.4856 41.8244 23.6828 41.4897C24.1726 40.6612 24.5353 39.7638 24.7586 38.8276C24.9379 38.1103 25.0759 37.3793 25.2138 36.6759C25.269 36.4276 25.3103 36.1793 25.3655 35.931C25.5448 35.0483 25.8069 34.3586 26.2207 33.7655C26.2462 33.7204 26.282 33.6819 26.3251 33.6532C26.3682 33.6244 26.4175 33.6062 26.469 33.6C26.5281 33.6051 26.5844 33.6274 26.631 33.6642C26.6776 33.7009 26.7124 33.7506 26.731 33.8069C26.8276 34 26.9103 34.1931 26.9793 34.3724C27.2552 35.131 27.3103 35.9448 27.3793 36.7448V36.8966C27.4681 38.1735 27.6995 39.4365 28.069 40.6621C28.2897 41.3517 28.5517 42.0828 29.0483 42.7172C29.2639 43.0058 29.5424 43.2414 29.8626 43.4063C30.1829 43.5712 30.5364 43.661 30.8966 43.669C31.2613 43.6619 31.6199 43.5742 31.9466 43.412C32.2733 43.2498 32.5601 43.0173 32.7862 42.731C33.1956 42.2273 33.4239 41.6007 33.4345 40.9517C33.4621 39.9034 33.5448 38.5379 33.9448 37.2414C34.3448 35.9448 34.6621 34.9379 35.0069 33.7931L35.3103 32.8138C35.3655 32.6621 35.4069 32.5103 35.4621 32.3586L35.5172 32.4552C35.6828 32.7172 35.8483 32.9931 36 33.269C36.0001 33.3062 35.9954 33.3433 35.9862 33.3793C35.901 33.7206 35.884 34.0754 35.936 34.4233C35.9881 34.7712 36.1083 35.1055 36.2897 35.4069C37.3379 37.1448 38.377 38.8874 39.4069 40.6345L40.6207 42.6621L40.9931 43.2966C41.269 43.7793 41.5586 44.2759 41.8621 44.7448C42.3862 45.5724 43.131 46 44.0828 46H44.3862C45.0621 45.9448 45.6 45.5862 46.0552 45.2552C46.5801 44.8702 46.941 44.3018 47.0662 43.663C47.1914 43.0241 47.0718 42.3616 46.731 41.8069ZM37.8207 30.9793L38 31.2966L36.8552 31.9724L36.6759 31.669L37.8207 30.9793ZM39.7241 24.331C39.7103 28.1241 36.5931 31.2 32.7724 31.2H32.731C30.9153 31.1963 29.1752 30.4725 27.8926 29.1873C26.61 27.9021 25.8897 26.1605 25.8897 24.3448C25.9034 20.5103 29.0069 17.3793 32.8276 17.3793H32.8552C34.6856 17.3975 36.4347 18.1384 37.7214 19.4405C39.008 20.7426 39.7279 22.5005 39.7241 24.331Z" fill="white"/>
<path d="M32.8276 17.9034C29.2138 17.9172 26.3862 20.7862 26.4 24.4138C26.4138 28.0414 29.2828 30.6896 32.7724 30.6896H32.8138C33.6579 30.686 34.493 30.5162 35.2714 30.1898C36.0499 29.8635 36.7564 29.387 37.3507 28.7876C37.945 28.1881 38.4154 27.4775 38.7351 26.6963C39.0548 25.9151 39.2174 25.0786 39.2138 24.2345C39.1862 20.7172 36.3862 17.9448 32.8276 17.9034Z" fill="white"/>
</g>
<defs>
<clipPath id="clip0_617_7673">
<rect width="31.1034" height="30" fill="white" transform="translate(16 16)"/>
</clipPath>
</defs>
</svg>
