<svg width="38" height="38" viewBox="0 0 38 38" fill="none" xmlns="http://www.w3.org/2000/svg">
<rect x="-0.40625" y="0.40625" width="37.1875" height="37.1875" rx="18.5938" transform="matrix(-1 0 0 1 37.1875 0)" fill="white"/>
<rect x="-0.40625" y="0.40625" width="37.1875" height="37.1875" rx="18.5938" transform="matrix(-1 0 0 1 37.1875 0)" stroke="#5C5C5C" stroke-width="0.8125"/>
<g clip-path="url(#clip0_116_4570)">
<g clip-path="url(#clip1_116_4570)">
<path d="M19.6952 12.2944C18.9576 12.2965 18.2506 12.6004 17.7283 13.1398C17.206 13.6792 16.9106 14.4105 16.9066 15.1744C16.9066 15.932 17.1972 16.6585 17.7144 17.1941C18.2317 17.7298 18.9332 18.0307 19.6647 18.0307C20.403 18.0286 21.1108 17.7251 21.6344 17.1858C22.1579 16.6466 22.4549 15.9153 22.4609 15.1507C22.4589 14.3924 22.1666 13.666 21.6482 13.1305C21.1297 12.5951 20.4274 12.2944 19.6952 12.2944Z" fill="#161616"/>
<path d="M23.5153 15.1825C23.5194 14.1318 23.1213 13.1223 22.4082 12.3749C21.6951 11.6275 20.7251 11.2032 19.7105 11.1948H19.6952C18.6766 11.2011 17.7014 11.6235 16.9818 12.3702C16.2622 13.1169 15.8563 14.1276 15.8523 15.1825C15.8523 16.2262 16.2521 17.2272 16.964 17.9659C17.6759 18.7046 18.6416 19.1206 19.6494 19.1227H19.6647C20.1673 19.1259 20.6657 19.0264 21.1312 18.8301C21.5968 18.6338 22.0204 18.3444 22.378 17.9785C22.7356 17.6126 23.02 17.1774 23.2152 16.6977C23.4103 16.2179 23.5123 15.7031 23.5153 15.1825ZM19.6952 18.83H19.6723C17.7318 18.83 16.1426 17.2159 16.135 15.23C16.1273 13.2441 17.6936 11.5034 19.6952 11.4876C21.6969 11.4717 23.2173 13.1095 23.2326 15.1192C23.2367 16.0965 22.8668 17.0356 22.2038 17.731C21.5409 18.4265 20.6389 18.8216 19.6952 18.83Z" fill="#161616"/>
<path d="M16.1044 18.1495C15.0425 16.7886 14.798 15.2141 15.3786 13.4734C14.8594 13.2475 14.4044 12.888 14.0569 12.429C13.9887 12.3517 13.9146 12.2803 13.8353 12.2154C13.444 11.9546 12.9712 11.8583 12.5136 11.9464C11.8413 12.0651 11.4058 12.4607 11.2224 13.1332C11.1155 13.5288 11.1384 13.9323 11.1842 14.3833C11.2683 15.267 11.4061 16.1444 11.5968 17.0101C11.8031 18.0308 12.0246 19.0593 12.2385 20.0642L12.5136 21.3618C12.6588 22.0343 12.7504 22.604 12.7581 23.1974C12.7581 23.4189 12.7504 23.6484 12.7504 23.8699C12.7504 24.0914 12.7428 24.1626 12.7428 24.3051C12.7324 24.4339 12.7504 24.5635 12.7954 24.6841C12.8404 24.8047 12.9112 24.9132 13.0026 25.0013C13.0452 25.05 13.0971 25.0892 13.1549 25.1164C13.2127 25.1436 13.2752 25.1583 13.3387 25.1596C13.449 25.1534 13.554 25.1088 13.6367 25.033C13.7579 24.9142 13.8655 24.7815 13.9576 24.6374C14.1942 24.2173 14.3717 23.7644 14.4847 23.2923C14.5764 22.8967 14.6528 22.4853 14.7292 22.0818C14.7598 21.9314 14.7827 21.789 14.8133 21.6387C14.9058 21.0906 15.1117 20.5697 15.4168 20.1117C15.5002 19.9836 15.6129 19.8791 15.745 19.8073C15.877 19.7355 16.0241 19.6987 16.1732 19.7002C16.3429 19.7 16.5094 19.7478 16.6549 19.8385C16.8003 19.9291 16.919 20.0591 16.9983 20.2145L17.1588 20.6022C17.3727 21.1798 17.4185 21.7969 17.4567 22.3429C17.4957 23.1014 17.6398 23.8501 17.8846 24.5662C17.9558 24.8258 18.0809 25.0661 18.2513 25.2703C18.2993 25.3297 18.3587 25.3779 18.4259 25.412C18.493 25.4461 18.5662 25.4652 18.6409 25.4681C18.7151 25.4667 18.7882 25.449 18.8553 25.4163C18.9225 25.3835 18.9822 25.3365 19.0306 25.2782C19.1073 25.1937 19.167 25.0942 19.2063 24.9855C19.2457 24.8769 19.2638 24.7612 19.2598 24.6453C19.2751 24.0914 19.3056 23.4426 19.4661 22.8255C19.6265 22.2084 19.7564 21.7574 19.9092 21.2352C19.955 21.0848 19.9932 20.9345 20.0391 20.7763L20.253 20.0721C20.2759 20.0088 20.2912 19.9455 20.3141 19.8822C20.1061 19.907 19.897 19.9202 19.6876 19.9218C18.2207 19.9218 17.0136 19.3204 16.1044 18.1495Z" fill="#161616"/>
<path d="M25.3336 23.1736L24.5543 21.8285C24.2564 21.2984 23.9508 20.7762 23.6452 20.2461C23.5906 20.1418 23.5102 20.0545 23.4121 19.9933C23.314 19.9321 23.2019 19.8992 23.0874 19.8979C22.9611 19.8993 22.8374 19.9347 22.7284 20.0008L22.5985 20.0878L22.5374 20.1195C22.1706 20.3489 22.0713 20.7525 22.2852 21.1243L23.3625 22.9916L24.2029 24.4632C24.5849 25.1278 24.9669 25.7925 25.3565 26.4571C25.4106 26.5658 25.4928 26.6567 25.5941 26.7196C25.6953 26.7825 25.8115 26.8149 25.9295 26.8131C26.0567 26.8105 26.1808 26.7722 26.2886 26.7023L26.5102 26.5678C26.6082 26.5049 26.6895 26.4177 26.7468 26.3141C26.8042 26.2105 26.8358 26.0938 26.8387 25.9744C26.8317 25.8277 26.7868 25.6857 26.7088 25.563L25.3336 23.1736Z" fill="#161616"/>
<path d="M27.7324 24.9855L27.2893 24.2101L26.594 23.0075L25.3869 20.9108L24.6305 19.5974C24.4235 19.2357 24.1024 18.9591 23.7214 18.8141L23.5609 18.5451L23.5074 18.4501C24.5083 17.1921 24.875 15.7521 24.5847 14.1618C24.3642 12.9947 23.7606 11.9426 22.8763 11.184C21.992 10.4254 20.8815 10.0071 19.7332 10H19.6798C19.4701 10.0001 19.2607 10.0159 19.0533 10.0475C17.594 10.2532 16.4251 10.989 15.5923 12.2391C15.3632 12.1029 15.159 11.9262 14.9888 11.7169C14.8461 11.5348 14.6788 11.375 14.4922 11.2422C14.0218 10.9018 13.4616 10.7194 12.8877 10.72H12.8572C12.7035 10.7174 12.5499 10.7307 12.3988 10.7596C11.2833 10.9257 10.5117 11.5824 10.1602 12.6505C9.9616 13.2519 9.98452 13.869 10.038 14.4387C10.1246 15.3618 10.2649 16.2786 10.4582 17.1842C10.7256 18.5292 11.0312 19.9613 11.3827 21.5596C11.5756 22.4038 11.6477 23.2729 11.5966 24.1389C11.5491 24.6781 11.6961 25.2164 12.0091 25.6501C12.1634 25.8637 12.3625 26.0381 12.5916 26.1601C12.8206 26.2821 13.0734 26.3485 13.3309 26.3543H13.3385C13.5587 26.3509 13.7761 26.3023 13.9781 26.2113C14.18 26.1203 14.3626 25.9887 14.5151 25.8242C14.6923 25.6471 14.8441 25.4446 14.9658 25.2229C15.2606 24.7148 15.4772 24.1622 15.6076 23.5851C15.6993 23.1974 15.7833 22.778 15.8674 22.327C15.875 22.2637 15.8903 22.2004 15.9056 22.1292C15.9146 22.0574 15.9274 21.9861 15.9438 21.9156C15.9821 21.6785 16.0488 21.4472 16.1424 21.2273C16.2417 21.5596 16.2723 21.9235 16.3029 22.3191V22.4141C16.3451 23.1792 16.4759 23.9362 16.6925 24.669C16.8147 25.0804 16.9828 25.5552 17.3037 25.9666C17.4551 26.1813 17.6526 26.3567 17.8807 26.4789C18.1087 26.6011 18.3611 26.6668 18.6178 26.6708H18.6254C18.8826 26.6689 19.1361 26.6075 19.3674 26.4911C19.5987 26.3748 19.802 26.2064 19.9624 25.9982C20.2459 25.6377 20.4046 25.1892 20.4132 24.7244C20.4285 24.1468 20.5049 23.316 20.6806 22.6989C20.8181 22.2321 20.9633 21.7653 21.1008 21.3064C21.1455 21.4571 21.2098 21.6008 21.2918 21.7336L23.0108 24.7402L23.6755 25.8954L23.8894 26.2752L24.2103 26.829L24.3631 27.098C24.5214 27.3741 24.7461 27.603 25.0152 27.7625C25.2843 27.9219 25.5887 28.0065 25.8988 28.0079H25.9675L26.1433 27.9842C26.6322 27.9367 26.999 27.6677 27.2434 27.4936H27.2511C27.6229 27.2162 27.8793 26.8032 27.9686 26.3377C28.0579 25.8723 27.9735 25.389 27.7324 24.9855ZM27.0295 27.1613C26.7774 27.3433 26.4794 27.549 26.1051 27.5807L25.937 27.6044C25.6879 27.6122 25.4413 27.5502 25.2235 27.4248C25.0056 27.2995 24.8245 27.1155 24.6993 26.8923L24.218 26.0615L24.0117 25.6897L23.3394 24.5266L21.6203 21.5279C21.5162 21.3566 21.4475 21.1648 21.4186 20.9646C21.3896 20.7644 21.4011 20.5602 21.4523 20.3648V20.3095C21.3682 20.1512 21.2765 19.993 21.1849 19.8426L21.1543 19.7873C21.1314 19.8743 21.1008 19.9613 21.0779 20.0484L20.9098 20.6101C20.7112 21.2668 20.5125 21.9235 20.3215 22.5802C20.1305 23.2369 20.0465 24.1152 20.0312 24.7086C20.0253 25.0832 19.8989 25.4452 19.6721 25.7371C19.5458 25.8995 19.3865 26.0311 19.2057 26.1227C19.0248 26.2143 18.8267 26.2636 18.6254 26.2673C18.4267 26.2645 18.2314 26.2137 18.0549 26.1189C17.8785 26.0241 17.7259 25.888 17.6093 25.7213C17.3343 25.3653 17.1815 24.9459 17.0592 24.5424C16.8508 23.8407 16.7251 23.1154 16.6849 22.3824V22.2954C16.6543 21.8444 16.6161 21.3776 16.4633 20.9424C16.4251 20.8316 16.3869 20.7288 16.3334 20.6101C16.3199 20.5807 16.2996 20.5552 16.2743 20.5359C16.2489 20.5165 16.2194 20.504 16.1883 20.4993C16.1579 20.4993 16.1281 20.5082 16.1024 20.525C16.0767 20.5418 16.0561 20.5658 16.0431 20.5943C15.8037 20.9698 15.6424 21.3929 15.5694 21.8365C15.5465 21.9789 15.5159 22.1134 15.493 22.2558C15.4166 22.6673 15.3326 23.0866 15.2409 23.498C15.1137 24.0351 14.9103 24.5497 14.6373 25.0251C14.5272 25.214 14.3965 25.3893 14.2477 25.5473C14.1312 25.6763 13.9904 25.7794 13.8341 25.8501C13.6778 25.9209 13.5091 25.9578 13.3385 25.9587C13.1398 25.9559 12.9444 25.9051 12.768 25.8104C12.5916 25.7156 12.439 25.5794 12.3224 25.4127C12.0595 25.059 11.9366 24.6148 11.9786 24.1705C12.0313 23.2622 11.9566 22.3508 11.757 21.4646C11.4514 20.0721 11.1382 18.6084 10.8326 17.1051C10.6418 16.2126 10.504 15.309 10.42 14.3991C10.3742 13.9086 10.3436 13.331 10.527 12.7771C10.8326 11.8435 11.482 11.2976 12.4599 11.1473C12.5989 11.1246 12.7394 11.114 12.8801 11.1156C13.3793 11.117 13.8666 11.2741 14.2782 11.5666C14.4343 11.682 14.5755 11.8176 14.6984 11.9701C14.9709 12.3107 15.3198 12.5769 15.7146 12.7455H15.7299L15.7451 12.7218C16.5321 11.4084 17.6628 10.6409 19.1068 10.4352C19.3144 10.406 19.5238 10.3928 19.7332 10.3956C20.7931 10.3994 21.8189 10.784 22.6355 11.4839C23.452 12.1837 24.0086 13.1554 24.2103 14.233C24.493 15.7837 24.1034 17.1842 23.049 18.3947L23.0338 18.4105H23.0414L23.24 18.7508L23.4463 19.1068C23.4526 19.1188 23.4613 19.1293 23.4719 19.1375C23.4824 19.1456 23.4946 19.1514 23.5074 19.1543C23.8404 19.2657 24.1246 19.4955 24.3096 19.8031C24.9667 20.9424 25.6161 22.0818 26.2731 23.2132L26.9608 24.4158L27.4115 25.1912C27.5938 25.5105 27.6556 25.8884 27.5851 26.2521C27.5145 26.6158 27.3167 26.9396 27.0295 27.1613Z" fill="#161616"/>
<path d="M22.4609 18.9961L21.8268 19.3838L21.9261 19.5658L22.5603 19.1702L22.4609 18.9961Z" fill="#161616"/>
</g>
</g>
<defs>
<clipPath id="clip0_116_4570">
<rect width="18" height="18" fill="white" transform="matrix(-1 0 0 1 28 10)"/>
</clipPath>
<clipPath id="clip1_116_4570">
<rect width="18" height="18" fill="white" transform="translate(10 10)"/>
</clipPath>
</defs>
</svg>
