<svg width="60" height="60" viewBox="0 0 60 60" fill="none" xmlns="http://www.w3.org/2000/svg">
<rect width="60" height="60" rx="30" fill="white"/>
<g clip-path="url(#clip0_617_7510)">
<path d="M46.731 39.8069L45.931 38.469L44.6896 36.3724L41.1448 30.4276C40.8185 29.8759 40.2966 29.4672 39.6827 29.2828C39.6405 29.2632 39.6029 29.235 39.5724 29.2L39.2138 28.5931L38.8551 28C38.8413 27.9862 38.8413 27.9862 38.8413 27.9724L38.8689 27.9448C40.7724 25.8345 41.4758 23.4069 40.9655 20.7034C40.6066 18.8212 39.6036 17.1226 38.1286 15.8993C36.6537 14.6761 34.7989 14.0045 32.8827 14C32.4996 14.0001 32.117 14.0277 31.7379 14.0828C29.1448 14.4414 27.1034 15.7793 25.6827 18.069L25.6551 18.0966H25.6276C24.9148 17.8027 24.2849 17.3385 23.7931 16.7448C23.5677 16.4774 23.308 16.2408 23.0207 16.0414C22.2838 15.5169 21.4009 15.2371 20.4965 15.2414C20.2426 15.2397 19.9889 15.2581 19.7379 15.2966C17.9862 15.5586 16.8138 16.5241 16.2482 18.1517C15.931 19.1172 15.9862 20.1103 16.0551 20.9655C16.2144 22.5561 16.4678 24.1359 16.8138 25.6966C17.3655 28.3172 17.931 30.869 18.4689 33.2828C18.8382 34.8309 18.9777 36.425 18.8827 38.0138C18.7989 38.7847 19.0219 39.5577 19.5034 40.1655C19.7139 40.4561 19.9894 40.6934 20.3079 40.8587C20.6264 41.0239 20.9791 41.1124 21.3379 41.1172C21.9561 41.1069 22.5455 40.8543 22.9793 40.4138C23.2494 40.1346 23.4855 39.8244 23.6827 39.4897C24.1726 38.6612 24.5352 37.7638 24.7586 36.8276C24.9379 36.1103 25.0758 35.3793 25.2138 34.6759C25.2689 34.4276 25.3103 34.1793 25.3655 33.931C25.5448 33.0483 25.8069 32.3586 26.2207 31.7655C26.2462 31.7204 26.282 31.6819 26.3251 31.6532C26.3682 31.6244 26.4175 31.6062 26.4689 31.6C26.5281 31.6051 26.5844 31.6274 26.631 31.6642C26.6776 31.7009 26.7123 31.7506 26.731 31.8069C26.8276 32 26.9103 32.1931 26.9793 32.3724C27.2551 33.131 27.3103 33.9448 27.3793 34.7448V34.8966C27.4681 36.1735 27.6994 37.4365 28.0689 38.6621C28.2896 39.3517 28.5517 40.0828 29.0482 40.7172C29.2639 41.0058 29.5423 41.2414 29.8626 41.4063C30.1828 41.5712 30.5364 41.661 30.8965 41.669C31.2612 41.6619 31.6198 41.5742 31.9466 41.412C32.2733 41.2498 32.56 41.0173 32.7862 40.731C33.1955 40.2273 33.4238 39.6007 33.4345 38.9517C33.462 37.9034 33.5448 36.5379 33.9448 35.2414C34.3448 33.9448 34.662 32.9379 35.0069 31.7931L35.3103 30.8138C35.3655 30.6621 35.4069 30.5103 35.462 30.3586L35.5172 30.4552C35.6827 30.7172 35.8482 30.9931 36 31.269C36 31.3062 35.9954 31.3433 35.9862 31.3793C35.901 31.7206 35.8839 32.0754 35.936 32.4233C35.9881 32.7712 36.1082 33.1055 36.2896 33.4069C37.3379 35.1448 38.377 36.8874 39.4069 38.6345L40.6207 40.6621L40.9931 41.2966C41.2689 41.7793 41.5586 42.2759 41.862 42.7448C42.3862 43.5724 43.131 44 44.0827 44H44.3862C45.062 43.9448 45.6 43.5862 46.0551 43.2552C46.5801 42.8702 46.941 42.3018 47.0662 41.663C47.1914 41.0241 47.0717 40.3616 46.731 39.8069ZM37.8207 28.9793L38 29.2966L36.8551 29.9724L36.6758 29.669L37.8207 28.9793ZM39.7241 22.331C39.7103 26.1241 36.5931 29.2 32.7724 29.2H32.731C30.9153 29.1963 29.1752 28.4725 27.8926 27.1873C26.61 25.9021 25.8896 24.1605 25.8896 22.3448C25.9034 18.5103 29.0069 15.3793 32.8276 15.3793H32.8551C34.6856 15.3975 36.4347 16.1384 37.7213 17.4405C39.008 18.7426 39.7278 20.5005 39.7241 22.331Z" fill="#161616"/>
<path d="M32.8275 15.9034C29.2137 15.9172 26.3862 18.7862 26.4 22.4138C26.4137 26.0414 29.2827 28.6896 32.7724 28.6896H32.8137C33.6578 28.686 34.4929 28.5162 35.2714 28.1898C36.0498 27.8635 36.7564 27.387 37.3507 26.7876C37.945 26.1881 38.4154 25.4775 38.735 24.6963C39.0547 23.9151 39.2174 23.0786 39.2137 22.2345C39.1862 18.7172 36.3862 15.9448 32.8275 15.9034Z" fill="#161616"/>
</g>
<defs>
<clipPath id="clip0_617_7510">
<rect width="31.1034" height="30" fill="white" transform="translate(16 14)"/>
</clipPath>
</defs>
</svg>
