<svg width="38" height="38" viewBox="0 0 38 38" fill="none" xmlns="http://www.w3.org/2000/svg">
<rect width="38" height="38" rx="19" transform="matrix(-1 0 0 1 38 0)" fill="#2D2D2D"/>
<g clip-path="url(#clip0_617_13196)">
<path d="M27.7845 25.2541L27.3215 24.4799L26.6031 23.2666L24.5517 19.8262C24.3629 19.5069 24.0608 19.2704 23.7056 19.1637C23.6811 19.1524 23.6594 19.1361 23.6417 19.1158L23.4342 18.7646L23.2266 18.4213C23.2186 18.4134 23.2186 18.4134 23.2186 18.4054L23.2346 18.3894C24.3362 17.1681 24.7432 15.7632 24.4479 14.1987C24.2402 13.1094 23.6598 12.1264 22.8062 11.4185C21.9526 10.7106 20.8792 10.322 19.7703 10.3193C19.5486 10.3194 19.3272 10.3354 19.1078 10.3672C17.6071 10.5748 16.4257 11.349 15.6036 12.6741L15.5876 12.6901H15.5716C15.1591 12.52 14.7946 12.2514 14.51 11.9078C14.3796 11.753 14.2293 11.6161 14.063 11.5007C13.6366 11.1972 13.1256 11.0352 12.6022 11.0377C12.4553 11.0368 12.3085 11.0474 12.1632 11.0697C11.1495 11.2213 10.471 11.7801 10.1437 12.722C9.9601 13.2808 9.99203 13.8555 10.0319 14.3504C10.1241 15.2709 10.2707 16.1851 10.471 17.0883C10.7903 18.6049 11.1175 20.0816 11.4288 21.4785C11.6426 22.3745 11.7232 23.297 11.6683 24.2165C11.6198 24.6626 11.7488 25.1099 12.0275 25.4617C12.1493 25.6298 12.3088 25.7672 12.4931 25.8628C12.6774 25.9584 12.8815 26.0097 13.0891 26.0125C13.4469 26.0065 13.788 25.8603 14.039 25.6054C14.1954 25.4438 14.332 25.2643 14.4461 25.0706C14.7296 24.5911 14.9395 24.0718 15.0687 23.53C15.1725 23.1149 15.2523 22.6918 15.3322 22.2847C15.3641 22.1411 15.388 21.9974 15.42 21.8537C15.5237 21.3428 15.6754 20.9437 15.9149 20.6005C15.9296 20.5744 15.9503 20.5521 15.9753 20.5355C16.0003 20.5189 16.0288 20.5083 16.0585 20.5047C16.0928 20.5076 16.1254 20.5206 16.1523 20.5418C16.1793 20.5631 16.1994 20.5918 16.2102 20.6244C16.2661 20.7362 16.314 20.8479 16.3539 20.9517C16.5135 21.3907 16.5455 21.8617 16.5854 22.3247V22.4125C16.6368 23.1515 16.7707 23.8824 16.9845 24.5916C17.1122 24.9907 17.2639 25.4138 17.5512 25.781C17.676 25.948 17.8372 26.0843 18.0225 26.1798C18.2078 26.2752 18.4125 26.3272 18.6209 26.3318C18.8319 26.3277 19.0394 26.2769 19.2285 26.183C19.4176 26.0892 19.5836 25.9546 19.7144 25.789C19.9513 25.4975 20.0834 25.1348 20.0896 24.7592C20.1056 24.1526 20.1534 23.3624 20.3849 22.612C20.6164 21.8617 20.8 21.279 20.9996 20.6165L21.1752 20.0497C21.2071 19.9619 21.2311 19.8741 21.263 19.7863L21.2949 19.8422C21.3907 19.9938 21.4865 20.1535 21.5743 20.3131C21.5743 20.3347 21.5716 20.3561 21.5663 20.377C21.517 20.5745 21.5071 20.7798 21.5373 20.9812C21.5674 21.1825 21.637 21.3759 21.7419 21.5504C22.3486 22.5561 22.9499 23.5646 23.5459 24.5757L24.2483 25.749L24.4639 26.1162C24.6235 26.3956 24.7911 26.683 24.9668 26.9544C25.2701 27.4333 25.7011 27.6808 26.2519 27.6808H26.4275C26.8186 27.6488 27.1299 27.4413 27.3934 27.2497C27.6971 27.0269 27.906 26.698 27.9785 26.3283C28.0509 25.9586 27.9817 25.5752 27.7845 25.2541ZM22.6279 18.9881L22.7317 19.1717L22.0692 19.5628L21.9654 19.3872L22.6279 18.9881ZM23.7295 15.1406C23.7215 17.3357 21.9175 19.1158 19.7064 19.1158H19.6825C18.6317 19.1137 17.6247 18.6948 16.8824 17.951C16.1402 17.2072 15.7233 16.1994 15.7233 15.1486C15.7313 12.9295 17.5273 11.1176 19.7384 11.1176H19.7543C20.8137 11.1281 21.8259 11.5568 22.5705 12.3104C23.3151 13.064 23.7317 14.0813 23.7295 15.1406Z" fill="#B9B9B9"/>
<path d="M19.7384 11.4209C17.647 11.4289 16.0107 13.0892 16.0186 15.1885C16.0266 17.2879 17.6869 18.8205 19.7064 18.8205H19.7304C20.2189 18.8184 20.7022 18.7201 21.1527 18.5312C21.6032 18.3423 22.0121 18.0666 22.356 17.7197C22.6999 17.3728 22.9721 16.9616 23.1571 16.5095C23.3421 16.0574 23.4363 15.5732 23.4342 15.0848C23.4182 13.0493 21.7978 11.4448 19.7384 11.4209Z" fill="#B9B9B9"/>
</g>
<defs>
<clipPath id="clip0_617_13196">
<rect width="18" height="17.3614" fill="white" transform="translate(10 10.3193)"/>
</clipPath>
</defs>
</svg>
