<svg width="100" height="100" viewBox="0 0 100 100" fill="none" xmlns="http://www.w3.org/2000/svg">
<rect x="0.75" y="0.75" width="98.5" height="98.5" rx="49.25" fill="#161616"/>
<rect x="0.75" y="0.75" width="98.5" height="98.5" rx="49.25" stroke="#222222" stroke-width="1.5"/>
<g clip-path="url(#clip0_48_7654)">
<path fill-rule="evenodd" clip-rule="evenodd" d="M61.91 58.2656C62.57 57.7706 63.455 57.7406 64.43 58.0556C66.26 58.6706 65.735 58.7306 67.61 58.0706C68.81 57.6506 69.905 57.7706 70.535 58.5206C71.165 59.2706 71.06 60.1106 70.955 60.9656C70.8077 62.1772 70.4147 63.3461 69.8 64.4006C70.1103 66.1846 70.0849 68.0109 69.725 69.7856C69.32 71.6306 68.51 72.2756 68.06 69.8006C68.0261 69.6072 68.0061 69.4117 68 69.2156C67.82 67.4456 67.67 65.6906 65.96 65.7056C64.4 66.0506 64.31 67.1906 64.19 68.9906C64.175 69.1106 64.145 69.5156 64.1 69.8006C63.695 72.2606 62.825 71.6906 62.45 69.8006C62.225 68.6606 62.105 66.8306 62.195 64.3856C61.685 63.2156 61.28 62.0156 61.145 60.8006C61.01 59.5856 61.025 58.9406 61.91 58.2656ZM45.2 47.4956C45.0923 47.4573 45.0024 47.3807 44.9476 47.2804C44.8927 47.1801 44.8768 47.063 44.9028 46.9517C44.9287 46.8404 44.9948 46.7425 45.0884 46.6768C45.182 46.6111 45.2965 46.5822 45.41 46.5956C47.0053 46.9956 48.6747 46.9956 50.27 46.5956C50.3872 46.568 50.5106 46.587 50.6141 46.6485C50.7176 46.7101 50.7932 46.8094 50.825 46.9256C50.8409 46.9847 50.8449 47.0463 50.8369 47.107C50.8289 47.1676 50.809 47.2261 50.7783 47.2791C50.7476 47.332 50.7068 47.3784 50.6582 47.4155C50.6096 47.4527 50.5541 47.4799 50.495 47.4956C49.6272 47.716 48.7353 47.8268 47.84 47.8256C46.9501 47.8202 46.0639 47.7095 45.2 47.4956ZM55.37 54.9956C54.59 54.2006 54.02 53.3456 53.435 52.5056L53.15 52.0856C51.755 53.1956 50.06 53.9006 47.84 53.8856C45.62 53.8706 43.67 52.9706 42.2 51.6356C42.11 51.5456 42.02 51.4706 41.945 51.3806C41.735 51.9806 41.465 52.6706 41.18 53.3306C40.9419 53.894 40.6558 54.436 40.325 54.9506C43.385 61.1606 52.445 61.3856 55.37 54.9956ZM47.225 23.5256H48.455C48.5624 23.5256 48.6654 23.5682 48.7414 23.6442C48.8173 23.7201 48.86 23.8232 48.86 23.9306V25.7606H50.69C50.8014 25.7606 50.9082 25.8048 50.987 25.8836C51.0657 25.9623 51.11 26.0692 51.11 26.1806V27.4106C51.11 27.465 51.0991 27.519 51.0778 27.5691C51.0565 27.6192 51.0253 27.6646 50.9861 27.7024C50.9469 27.7402 50.9005 27.7697 50.8496 27.7892C50.7987 27.8086 50.7444 27.8176 50.69 27.8156H48.86V29.6456C48.8601 29.7544 48.8179 29.859 48.7423 29.9374C48.6668 30.0157 48.5638 30.0617 48.455 30.0656H47.225C47.1148 30.0618 47.0101 30.0164 46.9322 29.9384C46.8542 29.8604 46.8087 29.7558 46.805 29.6456V27.8156H44.99C44.9356 27.8176 44.8813 27.8086 44.8304 27.7892C44.7795 27.7697 44.7331 27.7402 44.6939 27.7024C44.6547 27.6646 44.6235 27.6192 44.6022 27.5691C44.5809 27.519 44.57 27.465 44.57 27.4106V26.1806C44.57 26.0692 44.6142 25.9623 44.693 25.8836C44.7718 25.8048 44.8786 25.7606 44.99 25.7606H46.805V23.9306C46.8089 23.8218 46.8548 23.7188 46.9332 23.6432C47.0115 23.5677 47.1162 23.5255 47.225 23.5256ZM66.05 50.6906C68.5482 50.6879 71.0013 51.3561 73.153 52.6254C75.3047 53.8947 77.0761 55.7186 78.2821 57.9065C79.488 60.0943 80.0843 62.5659 80.0087 65.0629C79.933 67.56 79.1882 69.9909 77.852 72.1018C76.5159 74.2126 74.6373 75.9259 72.4128 77.0627C70.1882 78.1995 67.6991 78.718 65.2056 78.5641C62.7122 78.4101 60.3058 77.5895 58.2379 76.1878C56.17 74.786 54.5164 72.8547 53.45 70.5956H23.045C21.14 70.4456 20.165 69.4556 20 67.7456C20.465 64.3556 20.57 63.6656 22.625 60.9656C23.3442 60.0394 24.2484 59.2731 25.28 58.7156C28.355 57.0056 36.44 56.4656 39.575 54.0806C39.7935 53.6925 39.9889 53.2918 40.16 52.8806C40.535 52.0256 40.88 51.1106 41.09 50.4656C40.175 49.4006 39.41 48.2006 38.66 47.0156L36.2 43.1006C35.315 41.7656 34.835 40.5356 34.82 39.5306C34.7964 39.0925 34.8787 38.6551 35.06 38.2556C35.2454 37.8597 35.5359 37.5225 35.9 37.2806C36.0856 37.154 36.2874 37.053 36.5 36.9806C36.3242 34.6399 36.2841 32.2909 36.38 29.9456C36.4305 29.4074 36.5309 28.8751 36.68 28.3556C40.52 14.6156 58.97 19.5056 59.78 30.8456L59.63 37.2206C59.948 37.304 60.2374 37.4723 60.4673 37.7074C60.6971 37.9426 60.8588 38.2357 60.935 38.5556C61.13 39.3356 60.92 40.4306 60.26 41.9156L60.215 41.9906L57.41 46.5956C56.375 48.2906 55.34 50.0006 53.975 51.3356L54.35 51.8606C54.791 52.547 55.2771 53.2034 55.805 53.8256C56.0415 54.0392 56.2976 54.23 56.57 54.3956C59.1506 52.0107 62.5361 50.6875 66.05 50.6906ZM74.15 56.5406C72.2762 54.6704 69.812 53.5076 67.1771 53.2504C64.5422 52.9931 61.8996 53.6573 59.6994 55.1298C57.4993 56.6022 55.8776 58.7919 55.1107 61.3258C54.3438 63.8597 54.4791 66.5811 55.4934 69.0265C56.5078 71.4718 58.3386 73.4899 60.6739 74.737C63.0092 75.984 65.7046 76.3829 68.301 75.8657C70.8974 75.3485 73.2342 73.9471 74.9133 71.9003C76.5925 69.8536 77.5101 67.288 77.51 64.6406C77.514 63.1352 77.2191 61.6441 76.6423 60.2536C76.0655 58.8631 75.2184 57.6011 74.15 56.5406ZM50.765 39.4256C50.669 39.3588 50.6028 39.2572 50.5804 39.1424C50.558 39.0276 50.5811 38.9086 50.645 38.8106C50.7095 38.7121 50.81 38.6428 50.925 38.6176C51.0399 38.5924 51.1602 38.6132 51.26 38.6756C51.5989 38.8614 51.9846 38.9448 52.37 38.9156C52.7691 38.9285 53.1639 38.8298 53.51 38.6306C53.5588 38.5977 53.6138 38.575 53.6716 38.564C53.7294 38.5529 53.7889 38.5538 53.8464 38.5664C53.9039 38.579 53.9582 38.6032 54.0061 38.6374C54.054 38.6716 54.0945 38.7152 54.125 38.7656C54.1874 38.8654 54.2082 38.9856 54.183 39.1006C54.1577 39.2156 54.0885 39.3161 53.99 39.3806C53.5039 39.6657 52.9485 39.811 52.385 39.8006C51.77 39.8156 51.155 39.6806 50.765 39.4256ZM57.335 36.8456C57.3111 36.3511 57.1386 35.8754 56.84 35.4806V35.4356C53.9 31.3256 39.365 29.4506 38.75 38.0756V38.1356L37.685 38.0456L37.76 38.3006L37.685 38.1356C37.3169 38.1392 36.9577 38.2485 36.65 38.4506C36.4925 38.5468 36.3671 38.6878 36.29 38.8556C36.2072 39.0656 36.1664 39.2898 36.17 39.5156C36.2 40.2656 36.59 41.2406 37.355 42.3656L39.815 46.2656C46.025 56.1356 51.68 53.3606 56.21 45.8756L59 41.3456C59.51 40.1606 59.705 39.3806 59.585 38.9156C59.465 38.4506 59.21 38.4956 58.7 38.4806H58.355L57.98 38.5106H57.935L57.335 36.8606V36.8456ZM41.81 39.4256C41.7176 39.357 41.655 39.2556 41.6351 39.1423C41.6151 39.029 41.6393 38.9124 41.7027 38.8164C41.7661 38.7204 41.8638 38.6523 41.9758 38.6261C42.0878 38.5999 42.2056 38.6176 42.305 38.6756C42.545 38.8556 42.965 38.9456 43.43 38.9456C43.8476 38.9527 44.2602 38.8547 44.63 38.6606C44.6785 38.6286 44.7332 38.607 44.7905 38.5973C44.8478 38.5875 44.9065 38.5897 44.9629 38.6038C45.0193 38.6179 45.0722 38.6436 45.1182 38.6792C45.1641 38.7148 45.2022 38.7595 45.23 38.8106C45.2859 38.9148 45.2999 39.0365 45.2693 39.1507C45.2386 39.265 45.1656 39.3633 45.065 39.4256C44.5601 39.689 43.9995 39.8279 43.43 39.8306C42.8 39.8306 42.2 39.6806 41.81 39.4256ZM41.63 37.4456C41.583 37.4799 41.5296 37.5044 41.473 37.5177C41.4164 37.531 41.3577 37.5328 41.3003 37.523C41.243 37.5132 41.1882 37.492 41.1392 37.4607C41.0902 37.4294 41.0479 37.3885 41.015 37.3406C40.9496 37.2444 40.924 37.1266 40.9436 37.0119C40.9632 36.8973 41.0264 36.7946 41.12 36.7256C41.7045 36.2842 42.4128 36.0376 43.145 36.0206C43.8916 36.0343 44.6153 36.2807 45.215 36.7256C45.3086 36.7946 45.3718 36.8973 45.3914 37.0119C45.411 37.1266 45.3854 37.2444 45.32 37.3406C45.2871 37.3885 45.2448 37.4294 45.1958 37.4607C45.1468 37.492 45.092 37.5132 45.0347 37.523C44.9773 37.5328 44.9186 37.531 44.862 37.5177C44.8054 37.5044 44.752 37.4799 44.705 37.4456C44.165 37.0856 43.655 36.9056 43.145 36.9056C42.5956 36.9206 42.0651 37.1097 41.63 37.4456ZM51.185 37.4456C51.138 37.4799 51.0846 37.5044 51.028 37.5177C50.9714 37.531 50.9126 37.5328 50.8553 37.523C50.798 37.5132 50.7432 37.492 50.6942 37.4607C50.6452 37.4294 50.6029 37.3885 50.57 37.3406C50.5046 37.2444 50.479 37.1266 50.4986 37.0119C50.5182 36.8973 50.5814 36.7946 50.675 36.7256C51.2595 36.2842 51.9678 36.0376 52.7 36.0206C53.4466 36.0343 54.1703 36.2807 54.77 36.7256C54.866 36.7924 54.9322 36.8939 54.9546 37.0087C54.977 37.1236 54.9538 37.2426 54.89 37.3406C54.8571 37.3885 54.8148 37.4294 54.7658 37.4607C54.7168 37.492 54.662 37.5132 54.6047 37.523C54.5473 37.5328 54.4886 37.531 54.432 37.5177C54.3754 37.5044 54.322 37.4799 54.275 37.4456C53.8154 37.1128 53.267 36.9248 52.7 36.9056C52.1511 36.9236 51.6215 37.1124 51.185 37.4456Z" fill="white"/>
</g>
<defs>
<clipPath id="clip0_48_7654">
<rect width="60" height="60" fill="white" transform="translate(20 20)"/>
</clipPath>
</defs>
</svg>
