<svg width="60" height="60" viewBox="0 0 60 60" fill="none" xmlns="http://www.w3.org/2000/svg">
<rect width="60" height="60" rx="30" fill="#353434"/>
<g clip-path="url(#clip0_617_7613)">
<path d="M39.7897 13.9446C38.5775 12.9649 37.1661 12.5 35.4723 12.5C34.7366 12.5033 34.0027 12.5756 33.2804 12.7159C32.3342 12.9161 31.4508 13.3435 30.7066 13.9613C30.5683 13.8937 30.4351 13.816 30.3081 13.7288C29.9428 13.5129 29.5941 13.297 29.2454 13.131C28.1661 12.5996 27.0369 12.5166 25.9742 12.5166H25.5092C24.5638 12.5339 23.633 12.7534 22.7794 13.1603C21.9259 13.5672 21.1693 14.1521 20.5605 14.8756C19.9518 15.5992 19.505 16.4447 19.2501 17.3553C18.9953 18.2659 18.9383 19.2205 19.083 20.155C19.1661 20.703 19.2491 21.2343 19.3487 21.7823C19.5978 23.3598 19.8635 25.0037 20.0461 26.6144C20.179 27.8266 20.81 28.6568 21.9889 29.2048L22.072 29.2546C22.3044 29.3542 22.5535 29.4705 22.8026 29.5535L24.6458 30.0849L25.2435 30.2509C25.1195 30.8803 24.7929 31.4518 24.3137 31.8782C24.1817 31.9864 24.019 32.0503 23.8487 32.0609H21.69C21.2749 32.0609 20.9926 32.1771 20.8432 32.393C20.6937 32.6089 20.7103 32.9244 20.8764 33.3063C21.0424 33.6882 21.1919 34.0037 21.3579 34.369C21.7399 35.2491 22.1384 36.1458 22.5535 37.0424C22.8633 37.7145 23.0274 38.4445 23.0351 39.1845C23.0792 41.9671 23.737 44.7056 24.9613 47.2048C25.3598 48.0184 26.0904 48.5 26.9207 48.5C27.077 48.4999 27.2328 48.4832 27.3856 48.4502C28.4151 48.2343 29.0627 47.4207 29.1126 46.3081C29.1126 46.0923 29.1292 45.8598 29.1292 45.6439C29.1624 44.797 29.2122 43.9336 29.3118 43.1033C29.4613 42.0074 29.6771 40.9114 29.893 39.8321L29.9926 39.3007C30.0126 39.1422 30.0891 38.9961 30.208 38.8893C30.327 38.7826 30.4804 38.7223 30.6402 38.7196H30.7731C31.0886 38.786 31.2712 38.9686 31.3709 39.3506C31.8961 41.5099 32.1802 43.7208 32.2177 45.9428C32.2098 46.2842 32.2489 46.625 32.334 46.9557C32.4563 47.3698 32.7009 47.7372 33.0358 48.0099C33.3706 48.2825 33.78 48.4475 34.2103 48.4834H34.393C34.8057 48.4806 35.209 48.3604 35.556 48.137C35.9029 47.9135 36.1791 47.596 36.3524 47.2214C37.593 44.7274 38.257 41.9864 38.2952 39.2011C38.2871 38.4825 38.4463 37.7719 38.7602 37.1255L40.238 33.7878L40.4871 33.2232C40.6697 32.8081 40.5867 32.5424 40.4871 32.393C40.3875 32.2435 40.1716 32.0609 39.7233 32.0609H37.465C37.3627 32.0702 37.2598 32.0531 37.1661 32.0111C36.6041 31.5609 36.2214 30.925 36.0867 30.2177L36.4354 30.1347C36.7881 30.0693 37.1373 29.9862 37.4816 29.8856C38.6439 29.5701 39.5904 29.2214 40.3875 28.5406C40.8134 28.2115 41.0936 27.7287 41.1679 27.1956C41.3838 25.7343 41.6162 24.2399 41.8487 22.7952C41.965 22.0148 42.0978 21.2177 42.214 20.4207C42.6292 17.7472 41.8155 15.572 39.7897 13.9446ZM25.6421 16.286H25.476C24.7607 16.303 24.0796 16.5959 23.5752 17.1034C23.0707 17.6109 22.782 18.2938 22.7694 19.0092V19.1587H21.3413V19.0092C21.3293 18.474 21.4261 17.9419 21.6259 17.4453C21.8257 16.9486 22.1244 16.4977 22.5037 16.1199C22.8676 15.7336 23.3044 15.4231 23.7889 15.2065C24.2734 14.9899 24.796 14.8715 25.3266 14.8579H25.6587L25.6421 16.286Z" fill="white"/>
</g>
<defs>
<clipPath id="clip0_617_7613">
<rect width="23.3137" height="36" fill="white" transform="translate(19 12.5)"/>
</clipPath>
</defs>
</svg>
