<svg width="38" height="38" viewBox="0 0 38 38" fill="none" xmlns="http://www.w3.org/2000/svg">
<rect width="38" height="38" rx="19" transform="matrix(-1 0 0 1 38 0)" fill="#2D2D2D"/>
<g clip-path="url(#clip0_617_13203)">
<path d="M23.5664 10.7223C22.9603 10.2325 22.2546 10 21.4078 10C21.0399 10.0017 20.6729 10.0378 20.3118 10.1079C19.8387 10.208 19.397 10.4217 19.0249 10.7306C18.9557 10.6968 18.8891 10.658 18.8256 10.6144C18.643 10.5065 18.4686 10.3985 18.2943 10.3155C17.7546 10.0498 17.19 10.0083 16.6587 10.0083H16.4262C15.9535 10.017 15.4881 10.1267 15.0613 10.3301C14.6345 10.5336 14.2562 10.826 13.9519 11.1878C13.6475 11.5496 13.4241 11.9724 13.2967 12.4277C13.1692 12.883 13.1407 13.3603 13.2131 13.8275C13.2546 14.1015 13.2961 14.3672 13.3459 14.6411C13.4705 15.4299 13.6033 16.2518 13.6947 17.0572C13.7611 17.6633 14.0766 18.0784 14.6661 18.3524L14.7076 18.3773C14.8238 18.4271 14.9483 18.4852 15.0729 18.5268L15.9945 18.7924L16.2934 18.8755C16.2313 19.1902 16.068 19.4759 15.8284 19.6891C15.7624 19.7432 15.6811 19.7751 15.5959 19.7804H14.5166C14.309 19.7804 14.1679 19.8386 14.0932 19.9465C14.0185 20.0544 14.0268 20.2122 14.1098 20.4031C14.1928 20.5941 14.2675 20.7518 14.3506 20.9345C14.5415 21.3745 14.7408 21.8229 14.9483 22.2712C15.1032 22.6073 15.1853 22.9723 15.1891 23.3422C15.2112 24.7335 15.5401 26.1028 16.1522 27.3524C16.3515 27.7592 16.7168 28 17.1319 28C17.2101 27.9999 17.288 27.9916 17.3644 27.9751C17.8792 27.8672 18.203 27.4603 18.2279 26.9041C18.2279 26.7961 18.2362 26.6799 18.2362 26.572C18.2528 26.1485 18.2777 25.7168 18.3275 25.3017C18.4022 24.7537 18.5101 24.2057 18.6181 23.6661L18.6679 23.4004C18.6779 23.3211 18.7161 23.248 18.7756 23.1947C18.8351 23.1413 18.9118 23.1112 18.9917 23.1098H19.0581C19.2159 23.143 19.3072 23.2343 19.357 23.4253C19.6196 24.5049 19.7617 25.6104 19.7804 26.7214C19.7765 26.8921 19.796 27.0625 19.8386 27.2279C19.8997 27.4349 20.0221 27.6186 20.1895 27.7549C20.3569 27.8912 20.5616 27.9738 20.7768 27.9917H20.8681C21.0744 27.9903 21.2761 27.9302 21.4496 27.8185C21.623 27.7067 21.7612 27.548 21.8478 27.3607C22.4681 26.1137 22.8001 24.7432 22.8192 23.3506C22.8151 22.9913 22.8947 22.636 23.0517 22.3127L23.7906 20.6439L23.9151 20.3616C24.0065 20.1541 23.9649 20.0212 23.9151 19.9465C23.8653 19.8718 23.7574 19.7804 23.5332 19.7804H22.4041C22.3529 19.7851 22.3015 19.7765 22.2546 19.7555C21.9737 19.5305 21.7823 19.2125 21.7149 18.8589L21.8893 18.8173C22.0656 18.7847 22.2402 18.7431 22.4124 18.6928C22.9935 18.5351 23.4668 18.3607 23.8653 18.0203C24.0783 17.8557 24.2184 17.6143 24.2555 17.3478C24.3635 16.6172 24.4797 15.8699 24.5959 15.1476C24.6541 14.7574 24.7205 14.3589 24.7786 13.9603C24.9862 12.6236 24.5793 11.536 23.5664 10.7223ZM16.4926 11.893H16.4096C16.0519 11.9015 15.7114 12.0479 15.4592 12.3017C15.207 12.5555 15.0626 12.8969 15.0563 13.2546V13.3293H14.3423V13.2546C14.3362 12.987 14.3846 12.721 14.4845 12.4726C14.5844 12.2243 14.7338 11.9988 14.9234 11.81C15.1054 11.6168 15.3238 11.4616 15.566 11.3533C15.8083 11.245 16.0696 11.1857 16.3349 11.179H16.5009L16.4926 11.893Z" fill="#B9B9B9"/>
</g>
<defs>
<clipPath id="clip0_617_13203">
<rect width="11.6568" height="18" fill="white" transform="translate(13.1716 10)"/>
</clipPath>
</defs>
</svg>
