<svg width="38" height="38" viewBox="0 0 38 38" fill="none" xmlns="http://www.w3.org/2000/svg">
<rect x="-0.40625" y="0.40625" width="37.1875" height="37.1875" rx="18.5938" transform="matrix(-1 0 0 1 37.1875 0)" fill="white"/>
<rect x="-0.40625" y="0.40625" width="37.1875" height="37.1875" rx="18.5938" transform="matrix(-1 0 0 1 37.1875 0)" stroke="#5C5C5C" stroke-width="0.8125"/>
<g clip-path="url(#clip0_116_4584)">
<path d="M21.3594 19.7418C21.0089 19.1071 20.9918 18.9961 20.9833 18.2583C20.9833 17.8855 20.7952 17.7109 20.3849 17.7109H17.6493C17.4185 17.7109 17.2561 17.7585 17.1535 17.8537C17.0509 17.9489 17.0082 18.0917 17.0167 18.298C17.0338 18.8771 16.9227 19.3372 16.6491 19.7418H21.3594Z" fill="#161616"/>
<path d="M23.3512 17.0842C22.9673 16.8951 22.5596 16.7512 22.1373 16.6558C21.1249 16.4412 20.0898 16.3321 19.0512 16.3306C18.1282 16.3316 17.207 16.4086 16.2986 16.5606C15.8198 16.64 15.1958 16.7669 14.6401 17.0842C14.4521 17.1873 14.358 17.2825 14.358 17.3539C14.358 17.4253 14.4521 17.5285 14.6401 17.6316C15.1274 17.9092 15.6831 18.0362 16.2558 18.1472C16.2573 18.1019 16.263 18.0568 16.2729 18.0124C16.312 17.736 16.4571 17.4821 16.6816 17.297C16.9062 17.112 17.1951 17.0082 17.4954 17.0049H20.513C20.7872 17.0079 21.0526 17.0952 21.2676 17.2531C21.4826 17.411 21.6351 17.6306 21.7013 17.8775C21.7266 17.9551 21.7438 18.0348 21.7526 18.1155V18.1472C22.351 18.0282 22.881 17.9092 23.3512 17.6395C23.5564 17.5285 23.6589 17.4253 23.6504 17.346C23.6418 17.2667 23.5478 17.1715 23.3512 17.0842Z" fill="#161616"/>
<path d="M15.0419 20.8447L15.5634 21.9394C15.7347 22.2942 15.8277 22.6772 15.837 23.0659C15.8273 23.8324 15.9484 24.5955 16.196 25.3268C16.3328 25.7235 16.5123 26.1201 16.6833 26.5009L16.7602 26.6754C16.7819 26.7375 16.8241 26.7917 16.8809 26.8301C16.9377 26.8686 17.0062 26.8894 17.0765 26.8896H17.1535C17.3757 26.842 17.427 26.6754 17.4356 26.5406V26.3343C17.4588 25.2188 17.6165 24.1092 17.9057 23.0262C17.9585 22.7995 18.0932 22.5964 18.2876 22.4506C18.4821 22.3048 18.7244 22.2252 18.9743 22.225H19C19.53 22.225 19.9745 22.5423 20.0771 22.9945C20.2481 23.7481 20.3763 24.4304 20.4789 25.0729C20.5216 25.4141 20.5387 25.7631 20.5473 26.1042C20.5558 26.2391 20.5558 26.366 20.5644 26.5009C20.5729 26.6357 20.6242 26.7785 20.7439 26.842C20.7972 26.8743 20.8598 26.8909 20.9234 26.8896C21.0602 26.8896 21.1799 26.8103 21.2568 26.6595C21.8374 25.5711 22.1471 24.3755 22.163 23.1611C22.1609 22.7193 22.2661 22.2828 22.4707 21.8839C22.5989 21.63 22.7186 21.3682 22.8383 21.1223C22.881 21.0192 22.9323 20.916 22.9836 20.8209C23.0349 20.7257 23.0777 20.6146 23.129 20.5115L23.1461 20.4639H14.8624L15.0419 20.8447Z" fill="#161616"/>
<path d="M23.9666 10.7854C23.2656 10.2539 22.4449 10 21.4618 10C21.0571 10.0078 20.6539 10.0476 20.2564 10.119C19.8036 10.2072 19.3737 10.377 18.9912 10.6188C18.8032 10.5156 18.6322 10.4204 18.4527 10.3411C17.8372 10.0555 17.1875 10.0159 16.5891 10.0159H16.3412C15.7937 10.0271 15.2551 10.1465 14.7612 10.366C14.2673 10.5854 13.8295 10.9001 13.4768 11.2888C13.1242 11.6776 12.8648 12.1317 12.7161 12.6207C12.5673 13.1098 12.5325 13.6226 12.614 14.1252L12.7507 14.8947C12.8875 15.6721 13.0158 16.4337 13.1098 17.1794C13.2038 17.9251 13.6056 18.4249 14.3579 18.7422H14.3664L14.4092 18.758C14.5423 18.8165 14.6794 18.8668 14.8195 18.9088H14.8281L15.6487 19.123C15.5956 19.2012 15.5325 19.2731 15.4607 19.3372H14.3835C13.9134 19.3372 13.6911 19.5513 13.5971 19.6703C13.503 19.7893 13.3833 20.0908 13.5714 20.4874L13.8108 21.0031C13.8792 21.1379 13.9476 21.2728 14.0074 21.4077C14.1527 21.6933 14.2895 21.9947 14.4348 22.2803C14.5748 22.5529 14.6478 22.851 14.6485 23.1529C14.6767 24.5344 15.0298 25.8936 15.6829 27.1353C15.965 27.6668 16.4865 27.9841 17.0764 27.9841H17.4098C18.1193 27.8334 18.5809 27.3019 18.6237 26.5959V26.58C18.6322 26.4769 18.6408 26.3658 18.6408 26.2547C18.6391 26.1938 18.642 26.1328 18.6493 26.0723C18.6533 25.7432 18.679 25.4147 18.7262 25.0886C18.8032 24.5967 18.9058 24.089 19.0169 23.6051C19.2384 24.5222 19.3587 25.4578 19.3759 26.3975C19.3678 26.5932 19.3938 26.7887 19.4529 26.9766C19.5351 27.255 19.7084 27.503 19.9487 27.6862C20.1891 27.8695 20.4847 27.9791 20.795 28H20.9318C21.2229 27.9973 21.5073 27.9185 21.7522 27.7725C21.9972 27.6266 22.1928 27.4195 22.3167 27.175C22.9765 25.9295 23.3326 24.5644 23.3596 23.1767V23.1609C23.3542 22.8762 23.4185 22.5941 23.5477 22.3358C23.787 21.8678 24.0093 21.3918 24.2316 20.9238L24.4453 20.4716C24.5123 20.3537 24.5459 20.222 24.5429 20.0887C24.5399 19.9555 24.5004 19.8252 24.4282 19.71C24.3427 19.5751 24.129 19.353 23.6673 19.353H22.5475C22.4735 19.2938 22.4101 19.2242 22.3594 19.1468L22.6244 19.0833C23.2741 18.9167 23.8041 18.7342 24.2743 18.3773C24.5798 18.1583 24.7796 17.836 24.83 17.4808C24.924 16.8779 25.0351 16.2274 25.1805 15.3786C25.2147 15.1882 25.2488 15.0057 25.2745 14.8153C25.3001 14.6249 25.3429 14.4346 25.3685 14.2521C25.6079 12.8242 25.1377 11.658 23.9666 10.7854ZM24.9496 14.1886C24.8898 14.5694 24.8214 14.9423 24.7616 15.323C24.6419 16.0132 24.5222 16.7193 24.4111 17.4253C24.3678 17.6784 24.2246 17.9074 24.0093 18.0679C23.599 18.3852 23.1117 18.5518 22.5133 18.7025L21.9662 18.8294L21.7952 18.8691C21.8539 19.2085 22.0534 19.5131 22.3509 19.7179C22.3968 19.7443 22.4511 19.7555 22.5047 19.7497H23.6673C23.8982 19.7497 24.0093 19.8369 24.0606 19.9163C24.1119 19.9956 24.1546 20.1146 24.0606 20.305L23.9324 20.5747C23.6844 21.0983 23.428 21.6457 23.163 22.1692C23.0051 22.4818 22.9262 22.8237 22.9322 23.1688C22.907 24.4988 22.5655 25.8072 21.932 27.0004C21.8403 27.1777 21.6976 27.3278 21.5195 27.4343C21.3414 27.5407 21.135 27.5992 20.9232 27.6033H20.8292C20.6062 27.5907 20.393 27.5135 20.2198 27.3826C20.0465 27.2516 19.9218 27.0736 19.8632 26.8735C19.818 26.7185 19.7979 26.5581 19.8034 26.3975C19.7839 25.3329 19.6348 24.2737 19.3588 23.2402C19.3161 23.0657 19.2221 22.9705 19.0596 22.9467H18.9912C18.9084 22.9463 18.8284 22.9745 18.7668 23.0258C18.7052 23.0771 18.6663 23.1479 18.6579 23.2243L18.6066 23.4782C18.4954 23.9859 18.3843 24.5174 18.3074 25.0331C18.2507 25.4356 18.2193 25.8409 18.2133 26.2468C18.2133 26.3579 18.2048 26.461 18.1962 26.5721C18.1706 27.1036 17.8457 27.4844 17.3157 27.5954H17.0764C16.6489 27.5954 16.2728 27.3574 16.0676 26.9687C15.4376 25.7803 15.099 24.4772 15.076 23.1529C15.0712 22.7969 14.9868 22.4458 14.8281 22.1216C14.6143 21.7012 14.4092 21.2649 14.204 20.8444L13.9647 20.3367C13.8792 20.1543 13.8706 20.0115 13.9476 19.9083C14.0245 19.8052 14.1698 19.7417 14.3835 19.7417H15.4949C15.579 19.7328 15.6588 19.7026 15.7257 19.6545C15.9731 19.4501 16.1439 19.1777 16.2129 18.877L15.9052 18.7977L14.9563 18.5439C14.8275 18.5045 14.7018 18.4568 14.5802 18.4011L14.5374 18.3852C13.9219 18.1234 13.6056 17.7268 13.5372 17.1397C13.4432 16.3702 13.3064 15.5928 13.1696 14.8312L13.0414 14.0617C12.9646 13.6152 12.9928 13.1585 13.1241 12.723C13.2554 12.2876 13.4868 11.8837 13.8022 11.539C14.1157 11.1934 14.5052 10.9141 14.9446 10.7198C15.3839 10.5255 15.8631 10.4207 16.3497 10.4125H16.5891C17.1362 10.4125 17.7175 10.4442 18.2646 10.6981C18.4527 10.7854 18.6322 10.8806 18.8117 10.9837L19.0169 11.1027C19.4006 10.8083 19.8551 10.6043 20.3419 10.5077C20.7137 10.439 21.0914 10.4018 21.4704 10.3967C22.3509 10.3967 23.0775 10.6267 23.7015 11.0948C24.7445 11.8722 25.1634 12.9114 24.9496 14.1886Z" fill="#161616"/>
<path d="M22.8554 11.4119C22.3425 11.1501 21.7868 11.1184 21.3167 11.1184H21.1799C20.4945 11.1098 19.8324 11.3487 19.3334 11.7848C19.2222 11.8879 19.1197 11.9514 19 11.9514C18.8803 11.9514 18.7692 11.872 18.6666 11.7848C18.312 11.4613 17.858 11.2478 17.3672 11.1739C17.0921 11.1423 16.8152 11.1264 16.538 11.1263H16.3328C15.9881 11.1335 15.6484 11.2037 15.3329 11.3328C15.0175 11.4619 14.7325 11.6474 14.4944 11.8787C14.2562 12.1101 14.0695 12.3827 13.9449 12.681C13.8203 12.9793 13.7603 13.2974 13.7682 13.6173C13.7668 13.6756 13.7697 13.7339 13.7768 13.7918C13.8195 14.1647 13.8879 14.5375 13.9477 14.9024C13.9819 15.0611 14.0076 15.2118 14.0332 15.3625C14.076 15.6561 14.1273 15.9417 14.17 16.2193L14.2127 16.4652L14.5034 16.3542C14.777 16.251 15.0676 16.1321 15.3583 16.0527C16.367 15.7592 17.4099 15.6878 18.205 15.6481L19.0598 15.6323C20.038 15.6298 21.0142 15.7148 21.9749 15.8861C22.5306 15.9972 23.1717 16.1479 23.7958 16.497L23.9069 15.783C24.0095 15.1642 24.1121 14.5613 24.2146 13.9584C24.2949 13.456 24.2077 12.9428 23.9647 12.4876C23.7218 12.0325 23.3347 11.6571 22.8554 11.4119ZM16.4097 12.1973H16.3328C15.966 12.2053 15.6166 12.3442 15.3571 12.5849C15.0977 12.8257 14.9481 13.1499 14.9394 13.4904V13.5697L14.1956 13.5856V13.5062C14.1889 13.2505 14.2386 12.9961 14.3414 12.7588C14.4443 12.5214 14.5984 12.3061 14.7941 12.1259C14.9802 11.9399 15.2048 11.7906 15.4545 11.6871C15.7042 11.5835 15.9738 11.5277 16.2473 11.523H16.4097V12.1973Z" fill="#161616"/>
</g>
<defs>
<clipPath id="clip0_116_4584">
<rect width="12.8571" height="18" fill="white" transform="translate(12.5714 10)"/>
</clipPath>
</defs>
</svg>
