<svg width="60" height="60" viewBox="0 0 60 60" fill="none" xmlns="http://www.w3.org/2000/svg">
<rect width="60" height="60" rx="30" fill="white"/>
<g clip-path="url(#clip0_617_7451)">
<path d="M39.7897 12.9446C38.5775 11.9649 37.1661 11.5 35.4724 11.5C34.7366 11.5033 34.0028 11.5756 33.2805 11.7159C32.3342 11.9161 31.4509 12.3435 30.7067 12.9613C30.5683 12.8937 30.4351 12.816 30.3082 12.7288C29.9428 12.5129 29.5941 12.297 29.2454 12.131C28.1661 11.5996 27.0369 11.5166 25.9742 11.5166H25.5093C24.5638 11.5339 23.633 11.7534 22.7795 12.1603C21.9259 12.5672 21.1693 13.1521 20.5606 13.8756C19.9518 14.5992 19.505 15.4447 19.2502 16.3553C18.9953 17.2659 18.9383 18.2205 19.0831 19.155C19.1661 19.703 19.2491 20.2343 19.3487 20.7823C19.5978 22.3598 19.8635 24.0037 20.0462 25.6144C20.179 26.8266 20.81 27.6568 21.989 28.2048L22.072 28.2546C22.3045 28.3542 22.5535 28.4705 22.8026 28.5535L24.6458 29.0849L25.2436 29.2509C25.1195 29.8803 24.7929 30.4518 24.3137 30.8782C24.1817 30.9864 24.019 31.0503 23.8487 31.0609H21.6901C21.2749 31.0609 20.9927 31.1771 20.8432 31.393C20.6938 31.6089 20.7104 31.9244 20.8764 32.3063C21.0425 32.6882 21.1919 33.0037 21.358 33.369C21.7399 34.2491 22.1384 35.1458 22.5535 36.0424C22.8633 36.7145 23.0274 37.4445 23.0351 38.1845C23.0793 40.9671 23.737 43.7056 24.9613 46.2048C25.3598 47.0184 26.0904 47.5 26.9207 47.5C27.077 47.4999 27.2329 47.4832 27.3856 47.4502C28.4152 47.2343 29.0628 46.4207 29.1126 45.3081C29.1126 45.0923 29.1292 44.8598 29.1292 44.6439C29.1624 43.797 29.2122 42.9336 29.3118 42.1033C29.4613 41.0074 29.6772 39.9114 29.893 38.8321L29.9927 38.3007C30.0126 38.1422 30.0891 37.9961 30.208 37.8893C30.327 37.7826 30.4804 37.7223 30.6403 37.7196H30.7731C31.0886 37.786 31.2713 37.9686 31.3709 38.3506C31.8962 40.5099 32.1802 42.7208 32.2177 44.9428C32.2098 45.2842 32.2489 45.625 32.334 45.9557C32.4563 46.3698 32.701 46.7372 33.0358 47.0099C33.3707 47.2825 33.7801 47.4475 34.2104 47.4834H34.393C34.8057 47.4806 35.2091 47.3604 35.556 47.137C35.903 46.9135 36.1792 46.596 36.3524 46.2214C37.593 43.7274 38.257 40.9864 38.2952 38.2011C38.2871 37.4825 38.4463 36.7719 38.7602 36.1255L40.238 32.7878L40.4871 32.2232C40.6698 31.8081 40.5868 31.5424 40.4871 31.393C40.3875 31.2435 40.1716 31.0609 39.7233 31.0609H37.465C37.3627 31.0702 37.2598 31.0531 37.1661 31.0111C36.6042 30.5609 36.2214 29.925 36.0868 29.2177L36.4355 29.1347C36.7881 29.0693 37.1373 28.9862 37.4816 28.8856C38.6439 28.5701 39.5904 28.2214 40.3875 27.5406C40.8134 27.2115 41.0936 26.7287 41.1679 26.1956C41.3838 24.7343 41.6163 23.2399 41.8487 21.7952C41.965 21.0148 42.0978 20.2177 42.2141 19.4207C42.6292 16.7472 41.8155 14.572 39.7897 12.9446ZM25.6421 15.286H25.4761C24.7607 15.303 24.0796 15.5959 23.5752 16.1034C23.0708 16.6109 22.7821 17.2938 22.7694 18.0092V18.1587H21.3414V18.0092C21.3293 17.474 21.4261 16.9419 21.6259 16.4453C21.8257 15.9486 22.1244 15.4977 22.5037 15.1199C22.8676 14.7336 23.3044 14.4231 23.7889 14.2065C24.2734 13.9899 24.7961 13.8715 25.3266 13.8579H25.6587L25.6421 15.286Z" fill="#161616"/>
</g>
<defs>
<clipPath id="clip0_617_7451">
<rect width="23.3137" height="36" fill="white" transform="translate(19 11.5)"/>
</clipPath>
</defs>
</svg>
