<svg width="60" height="60" viewBox="0 0 60 60" fill="none" xmlns="http://www.w3.org/2000/svg">
<rect width="60" height="60" rx="30" fill="white"/>
<path d="M33.5509 27.0773V30.0614H26.4546V27.0773H12.6985C13.0747 27.9236 13.5063 28.7442 13.9904 29.5337C14.6455 30.6255 15.3551 31.6626 16.0102 32.7362C16.6652 33.8097 17.4658 35.3928 17.6842 36.903C17.8479 38.0494 17.8661 39.2321 17.9571 40.3966C18.0845 41.9433 18.4666 43.4171 19.3946 44.6908C20.9412 46.7834 23.7798 46.7106 25.1991 44.5453C25.5021 44.1057 25.7467 43.6286 25.9269 43.126C26.4182 41.5612 26.8185 39.9599 27.3098 38.4133C27.5413 37.6142 27.8778 36.8494 28.3105 36.1388C29.1475 34.8469 30.7488 34.8651 31.6222 36.1388C31.9107 36.5461 32.1375 36.9936 32.2954 37.4671C32.6412 38.5952 32.9505 39.7234 33.2598 40.8697C33.5691 42.0161 33.9513 43.4171 34.6973 44.5271C35.4433 45.637 36.7352 46.3649 38.2455 46.1465C39.3736 45.9827 40.156 45.2731 40.7383 44.3451C41.5935 42.9986 41.9028 41.5066 41.9756 39.9417C42.0302 38.941 42.1212 37.9584 42.2122 36.9576C42.5033 34.2282 46.7611 27.9871 46.7611 27.9871C46.7813 27.9424 46.8057 27.8998 46.8339 27.8597C46.9613 27.605 47.0886 27.332 47.1978 27.0773H33.5509Z" fill="#161616"/>
<path d="M12.0617 24.6754C12.0818 24.8709 12.1121 25.0653 12.1527 25.2576H26.4546V22.2917H33.551V25.2576H47.7801C48.1302 23.6417 48.0613 21.963 47.58 20.3811C47.3798 19.6715 47.0523 18.9801 46.7794 18.2704C46.6135 17.8287 46.387 17.4123 46.1061 17.0331C45.1599 15.7048 43.6133 14.8132 42.0848 14.2128C41.5789 14.0099 41.0626 13.8338 40.5382 13.6851L39.865 13.5577C39.5556 13.5395 39.2281 13.5031 38.9006 13.5031C37.1487 13.5262 35.4367 14.0297 33.9513 14.9588C33.7545 15.0591 33.5659 15.1747 33.3872 15.3045H33.369C32.9185 15.6182 32.4871 15.9584 32.0771 16.3235C30.5669 17.5426 29.6935 18.416 29.6935 18.416C29.5949 18.1821 29.4664 17.9619 29.3114 17.7609C28.4543 16.7782 27.469 15.9153 26.3818 15.1953C24.4349 13.9216 22.3242 13.2666 20.0133 13.5759C16.829 13.9762 14.5727 15.7412 13.0807 18.507C13.0605 18.5516 13.0361 18.5943 13.0079 18.6343C12.1163 20.0718 12.0435 20.7269 12.0071 21.6731V21.8004C12.0253 22.783 11.9525 23.7292 12.0617 24.6754Z" fill="#161616"/>
<path d="M31.7315 24.1113H28.2743V25.2577H30.0029V27.0772H28.2743V28.2418H31.7315V24.1113Z" fill="#161616"/>
</svg>
