<svg width="38" height="38" viewBox="0 0 38 38" fill="none" xmlns="http://www.w3.org/2000/svg">
<rect width="38" height="38" rx="19" transform="matrix(-1 0 0 1 38 0)" fill="white"/>
<g clip-path="url(#clip0_116_4399)">
<g clip-path="url(#clip1_116_4399)">
<path d="M11.5984 16.2938C11.5851 15.9273 11.5917 15.5538 11.5917 15.2155V14.7715C11.5917 14.4896 11.7377 14.3345 11.9963 14.3345H14.2513C14.3045 14.3336 14.3573 14.3443 14.4064 14.3662C14.4555 14.388 14.4998 14.4204 14.5365 14.4614C14.5759 14.5021 14.6059 14.5518 14.6243 14.6068C14.6427 14.6618 14.649 14.7206 14.6426 14.7785C14.636 15.0393 14.6426 15.3001 14.6426 15.5538C14.6426 15.8075 14.6492 16.1458 14.636 16.4277C14.6042 17.321 14.2697 18.172 13.6942 18.824C13.5018 19.0424 13.3029 19.1482 13.1172 19.1482C12.9315 19.1482 12.7192 19.0283 12.5203 18.7958C11.9411 18.1059 11.614 17.2182 11.5984 16.2938Z" fill="#161616"/>
<path d="M22.6013 11.05C22.5873 11.0786 22.5665 11.1028 22.5408 11.1202C22.5152 11.1375 22.4857 11.1473 22.4554 11.1486C22.4035 11.1463 22.3531 11.1293 22.3095 11.0993C22.0332 10.9297 21.72 10.8398 21.4009 10.8385C20.8305 10.8385 20.2999 11.1486 19.9484 11.6843C19.9316 11.7182 19.907 11.7469 19.8768 11.7679C19.8466 11.7889 19.8119 11.8013 19.776 11.8041H19.7163C19.6771 11.7941 19.6427 11.7692 19.6195 11.7342C19.5963 11.6992 19.5859 11.6564 19.5903 11.6138C19.5907 11.555 19.6094 11.4981 19.6433 11.4517L19.6566 11.4376C19.9588 10.9588 20.422 10.6212 20.9512 10.494C21.4803 10.3669 22.0352 10.4599 22.5018 10.754C22.6345 10.8385 22.6676 10.9372 22.6013 11.05Z" fill="#161616"/>
<path d="M22.9064 17.1463C22.8258 16.8583 22.7878 16.5587 22.7937 16.2583V14.7571C22.7937 14.4963 22.9462 14.3342 23.185 14.3342H25.4399C25.4954 14.3289 25.5513 14.3362 25.6039 14.3556C25.6565 14.375 25.7046 14.4062 25.745 14.447C25.8168 14.5371 25.8525 14.6535 25.8445 14.7712C25.8445 14.9474 25.8511 15.1306 25.8511 15.3068C25.8644 15.718 25.8578 16.1297 25.8312 16.5402C25.7778 17.3914 25.4472 18.1963 24.8961 18.8166C24.7037 19.0351 24.5114 19.1408 24.3191 19.1408C24.1267 19.1408 23.9211 19.028 23.7155 18.7955C23.3508 18.3726 23.0921 17.8511 22.9064 17.1463Z" fill="#161616"/>
<path d="M26.322 18.3655C26.3266 18.3845 26.3242 18.4047 26.3154 18.4219C26.2682 18.51 26.2431 18.6095 26.2424 18.7108V18.9646C26.2424 19.1196 26.2424 19.2747 26.2358 19.4297C26.217 19.8232 26.1682 20.2145 26.0899 20.5997C26.0365 20.903 25.9634 21.2021 25.871 21.4947C25.7702 21.8294 25.6438 22.1546 25.493 22.4673C25.3216 22.8469 25.1196 23.21 24.8895 23.5527C24.7295 23.8036 24.5521 24.0416 24.3589 24.2645C23.9161 24.8071 23.4024 25.2794 22.8334 25.667C22.0814 26.1926 21.2453 26.5676 20.3662 26.7735C19.8306 26.9002 19.2835 26.964 18.7347 26.9638L18.2439 26.9497C16.824 26.8496 15.4593 26.3265 14.3062 25.4402C13.1531 24.554 12.2583 23.3405 11.7244 21.9387C11.4863 21.2932 11.3259 20.6183 11.2469 19.9301C11.2004 19.5257 11.1804 19.1183 11.1872 18.7108C11.1955 18.6138 11.1721 18.5168 11.1208 18.436C11.1154 18.4178 11.1131 18.3987 11.1142 18.3796C11.1214 18.3585 11.1355 18.341 11.154 18.3303L11.3066 18.2598H11.3331C11.3458 18.26 11.3582 18.2641 11.3688 18.2716C11.3794 18.2791 11.3877 18.2897 11.3928 18.3021C11.6249 18.8025 11.8769 19.169 12.182 19.4509C12.4871 19.7328 12.7855 19.8737 13.1105 19.8737C13.2065 19.8729 13.3021 19.8611 13.3957 19.8385C13.6809 19.768 13.9462 19.5989 14.1982 19.317C14.5094 18.9719 14.7568 18.5679 14.9278 18.1259C14.9329 18.1135 14.9412 18.1029 14.9518 18.0954C14.9624 18.0879 14.9747 18.0838 14.9875 18.0836C15.0004 18.0828 15.0132 18.0865 15.024 18.0941C15.0347 18.1018 15.0429 18.1129 15.0472 18.1259C15.0936 18.2386 15.14 18.3303 15.1798 18.4219C15.392 18.8236 15.664 19.2817 16.1083 19.613C16.3306 19.7849 16.5994 19.8758 16.8743 19.872C17.1493 19.8682 17.4157 19.7699 17.6337 19.5918C18.0582 19.2676 18.3301 18.8166 18.5158 18.4501C18.5689 18.3514 18.6087 18.2527 18.6485 18.1682C18.6536 18.1558 18.6619 18.1452 18.6725 18.1377C18.6831 18.1302 18.6955 18.1261 18.7082 18.1259C18.7207 18.1269 18.7328 18.1313 18.7432 18.1387C18.7537 18.1461 18.7622 18.1563 18.7679 18.1682V18.1823C18.7692 18.1973 18.7737 18.2117 18.7811 18.2246C19.0597 18.8518 19.3581 19.2747 19.7428 19.5848C19.9732 19.7836 20.2595 19.895 20.5562 19.9014C20.8529 19.9078 21.1432 19.8088 21.381 19.62C21.8121 19.3029 22.0774 18.8659 22.2564 18.5135C22.3165 18.4082 22.3676 18.2973 22.409 18.1823C22.4147 18.1704 22.4231 18.1602 22.4336 18.1528C22.4441 18.1454 22.4561 18.141 22.4687 18.14C22.4816 18.1392 22.4944 18.1429 22.5052 18.1505C22.5159 18.1582 22.5241 18.1693 22.5284 18.1823L22.6411 18.4148C22.8268 18.7954 23.0987 19.2676 23.5497 19.5989C23.7684 19.7726 24.0329 19.8687 24.3058 19.8737C24.4959 19.8687 24.6831 19.8232 24.8563 19.7398C25.0769 19.6259 25.2733 19.4652 25.4333 19.2676C25.6522 19.0139 25.9042 18.5347 26.0368 18.2668C26.0423 18.2568 26.05 18.2483 26.0592 18.2422C26.0685 18.236 26.079 18.2324 26.0899 18.2316H26.1231L26.2822 18.3232C26.2916 18.3263 26.3002 18.3317 26.3071 18.3391C26.3141 18.3464 26.3192 18.3555 26.322 18.3655Z" fill="#161616"/>
<path d="M27.5625 13.5939L24.5647 11.6417C24.1867 11.395 23.9612 11.2329 23.7689 11.099L23.6694 11.0285C23.4571 10.8735 23.2117 10.7043 22.7475 10.3942C22.3464 10.1393 21.8884 10.003 21.421 9.99953H21.3945C21.0219 9.99805 20.6538 10.0868 20.3183 10.2589C19.9827 10.4311 19.6885 10.6823 19.4579 10.9933C19.1717 11.39 18.9146 11.8094 18.6885 12.2478L18.6023 12.4028C18.583 12.431 18.5673 12.4618 18.5559 12.4944C18.5371 12.5245 18.5236 12.5579 18.5161 12.5931C18.4211 12.4883 18.2966 12.4192 18.1614 12.3963C18.0261 12.3734 17.8876 12.398 17.7666 12.4662C17.6532 12.5316 17.559 12.6292 17.4947 12.7482L17.2958 13.1287C17.2723 13.1755 17.235 13.2126 17.1896 13.2345L16.8381 13.4388C16.7747 13.4707 16.7182 13.5163 16.6723 13.5727C16.6546 13.5222 16.6301 13.4747 16.5994 13.4318C16.559 13.3791 16.5086 13.3362 16.4514 13.3058C16.3942 13.2754 16.3316 13.2583 16.2677 13.2556H15.6974C15.4499 13.2548 15.207 13.3255 14.9944 13.46C14.7886 13.3265 14.5523 13.2558 14.3112 13.2556H11.9435C11.5881 13.2537 11.2462 13.4005 10.9918 13.6642C10.7374 13.928 10.5909 14.2875 10.5839 14.6652V16.406C10.5859 16.6332 10.6081 16.8597 10.6502 17.0825C10.6701 17.1883 10.6966 17.294 10.7232 17.3997L10.5706 17.4772C10.4106 17.5411 10.2715 17.6531 10.1702 17.7995C10.0689 17.9459 10.0099 18.1204 10.0002 18.3018C9.98913 18.5476 10.0648 18.7889 10.2125 18.9784C10.2191 19.3308 10.2456 19.6902 10.2788 20.0496C10.3642 20.8307 10.5471 21.5963 10.8226 22.3261C11.2071 23.3409 11.7597 24.2743 12.4542 25.0818C13.9361 26.8009 15.9881 27.8419 18.1778 27.9854C18.3635 27.9995 18.5493 27.9995 18.7217 27.9995H18.7814C19.386 27.9996 19.9888 27.9287 20.5787 27.7881C22.3269 27.3762 23.9064 26.384 25.0887 24.9549C25.3063 24.699 25.5079 24.4283 25.6922 24.1444C25.9465 23.7555 26.1748 23.3481 26.3753 22.9251C26.5389 22.5663 26.6807 22.1967 26.7998 21.8186H26.8064C26.9126 21.4381 26.9921 21.1209 27.0518 20.8108C27.1368 20.3739 27.1922 19.9311 27.2176 19.4858C27.2243 19.3544 27.2243 19.2226 27.2176 19.0912V18.9995C27.364 18.8254 27.4422 18.5986 27.4365 18.3652C27.4367 18.1825 27.3874 18.0036 27.2945 17.8499C27.2016 17.6962 27.069 17.5741 26.9126 17.4984L26.7269 17.4067C26.8134 17.0857 26.8603 16.754 26.8661 16.42V15.1937C26.963 15.2356 27.0666 15.2572 27.1712 15.2572C27.3538 15.2583 27.5314 15.1943 27.6757 15.0755C27.82 14.9567 27.9226 14.7898 27.9671 14.6017C28.0154 14.4099 28.0019 14.2063 27.9285 14.0236C27.8552 13.8409 27.7263 13.6896 27.5625 13.5939ZM16.8647 13.8829C16.8925 13.8253 16.9366 13.7785 16.9907 13.7489L17.3488 13.5446C17.4495 13.4891 17.5325 13.4033 17.5876 13.2979L17.7865 12.9173C17.8168 12.8593 17.8631 12.8126 17.9192 12.7834C17.9923 12.7437 18.0771 12.7362 18.1554 12.7626C18.2336 12.789 18.2989 12.8471 18.337 12.9244L18.5294 13.312C18.584 13.4195 18.667 13.5076 18.7681 13.5657L19.1196 13.7771C19.1555 13.7974 19.1871 13.8254 19.2122 13.8594C19.2373 13.8934 19.2555 13.9326 19.2655 13.9745C19.2779 14.0164 19.2819 14.0606 19.2774 14.1043C19.2728 14.148 19.2597 14.1902 19.239 14.2282C19.2112 14.2857 19.1671 14.3325 19.113 14.3621L18.7549 14.5665C18.6542 14.622 18.5711 14.7078 18.5161 14.8132L18.3105 15.1867C18.2858 15.2401 18.2465 15.2843 18.1977 15.3135C18.1497 15.3446 18.0948 15.3617 18.0386 15.3629C17.9817 15.3623 17.9261 15.3449 17.878 15.3125C17.83 15.2801 17.7914 15.2341 17.7666 15.1796L17.5743 14.7991C17.5197 14.6916 17.4367 14.6034 17.3355 14.5453L16.984 14.3339C16.9477 14.3133 16.9156 14.2852 16.8897 14.251C16.8639 14.2169 16.8448 14.1776 16.8337 14.1355C16.8225 14.0933 16.8195 14.0492 16.8248 14.0058C16.8302 13.9624 16.8437 13.9206 16.8647 13.8829ZM27.6487 14.5101C27.6294 14.5888 27.5932 14.6616 27.543 14.723C27.4928 14.7843 27.43 14.8326 27.3594 14.864C27.2888 14.8953 27.2124 14.909 27.136 14.9038C27.0597 14.8987 26.9855 14.8749 26.9192 14.8343L26.6539 14.6652L26.634 14.6511H26.5677C26.5577 14.658 26.5495 14.6673 26.5437 14.6784C26.5379 14.6895 26.5348 14.7018 26.5345 14.7145V16.3989C26.5271 16.7809 26.4622 17.1593 26.3422 17.5195C26.3385 17.5355 26.3398 17.5523 26.3457 17.5675C26.3517 17.5828 26.3621 17.5955 26.3753 17.6041L26.4085 17.6252L26.4616 17.6534L26.7733 17.8085C26.8727 17.8542 26.9571 17.9301 27.0161 18.0266C27.0751 18.1232 27.106 18.236 27.1049 18.3511C27.1056 18.4387 27.0888 18.5254 27.0556 18.6056C27.0225 18.6858 26.9737 18.7576 26.9126 18.8163C26.9044 18.8213 26.8977 18.8285 26.893 18.8371C26.8884 18.8458 26.8859 18.8556 26.886 18.8656V18.9079C26.886 19.0841 26.8927 19.2673 26.886 19.4576C26.8661 19.8868 26.8128 20.3134 26.7269 20.7333C26.6672 21.0434 26.5876 21.3605 26.4881 21.7059C26.3705 22.0688 26.2332 22.4241 26.0769 22.7701C25.8852 23.1788 25.6658 23.5722 25.4203 23.9471C25.2411 24.2139 25.0484 24.4704 24.8433 24.7153C23.7097 26.0947 22.1892 27.0508 20.5058 27.4428C19.9246 27.5814 19.3306 27.65 18.735 27.6471C18.5559 27.6471 18.3768 27.6471 18.2044 27.633C16.6615 27.5297 15.1777 26.9637 13.9252 26.0007C12.6727 25.0377 11.7027 23.7172 11.1277 22.1922C10.8633 21.492 10.6893 20.7571 10.6104 20.0074C10.5683 19.6237 10.5462 19.2378 10.5441 18.8515C10.5431 18.8418 10.5403 18.8324 10.5357 18.8239C10.5311 18.8154 10.525 18.808 10.5176 18.8022C10.4552 18.7419 10.4062 18.6676 10.3741 18.5847C10.342 18.5019 10.3275 18.4124 10.3319 18.3229C10.3385 18.2087 10.3757 18.0989 10.4392 18.0065C10.5026 17.9141 10.5897 17.8429 10.69 17.8014C10.8198 17.7442 10.9461 17.6782 11.068 17.6041C11.0756 17.601 11.0824 17.5963 11.0882 17.5903C11.0939 17.5844 11.0985 17.5772 11.1016 17.5693C11.1047 17.5614 11.1063 17.5529 11.1062 17.5444C11.1061 17.5358 11.1044 17.5273 11.1012 17.5195C11.0499 17.3531 11.0079 17.1837 10.9752 17.0121C10.9353 16.8128 10.9153 16.6097 10.9155 16.406V14.6722C10.9189 14.5287 10.949 14.3874 11.0038 14.2562C11.0587 14.1251 11.1373 14.0067 11.2353 13.9079C11.3332 13.8091 11.4485 13.7317 11.5746 13.6803C11.7006 13.6288 11.835 13.6042 11.97 13.608H14.298C14.5365 13.6052 14.7678 13.6955 14.9479 13.8617L14.9877 13.8758L15.0341 13.8617C15.2257 13.6925 15.4682 13.6024 15.7173 13.608H16.2545C16.2714 13.6088 16.288 13.6136 16.3029 13.6222C16.3178 13.6307 16.3307 13.6427 16.3407 13.6573C16.3536 13.6693 16.3624 13.6854 16.366 13.7032C16.3696 13.7209 16.3677 13.7395 16.3606 13.756C16.333 13.8981 16.3353 14.0449 16.3672 14.1859C16.3733 14.2225 16.3662 14.2603 16.3473 14.2916C16.337 14.3053 16.3239 14.3162 16.3089 14.3236C16.294 14.3309 16.2776 14.3345 16.2611 14.3339H15.6642C15.618 14.3366 15.5728 14.349 15.5311 14.3703C15.4894 14.3916 15.4521 14.4214 15.4213 14.4581C15.3905 14.4948 15.3668 14.5375 15.3516 14.5839C15.3364 14.6304 15.3299 14.6795 15.3326 14.7286V16.0958C15.2994 16.6879 15.4254 17.2799 15.7173 17.9212C15.8764 18.2807 16.0953 18.6894 16.4601 18.9784C16.5714 19.0783 16.7124 19.133 16.858 19.133C17.0037 19.133 17.1447 19.0783 17.256 18.9784C17.438 18.8366 17.5932 18.6597 17.7136 18.4569C18.2054 17.6863 18.4433 16.7644 18.3901 15.8351C18.3902 15.8116 18.3965 15.7886 18.4082 15.7687C18.4199 15.7488 18.4366 15.7328 18.4564 15.7223C18.6151 15.6381 18.7467 15.5056 18.8344 15.3417L18.8875 15.2431C18.8984 15.2257 18.9132 15.2114 18.9306 15.2016C18.9479 15.1918 18.9673 15.1866 18.987 15.1867H19.0069C19.0316 15.1926 19.054 15.2067 19.0706 15.2269C19.0873 15.2472 19.0975 15.2726 19.0997 15.2995C19.0997 15.5179 19.0997 15.8069 19.0931 16.0958C19.0732 16.6879 19.1926 17.2658 19.4645 17.8789C19.6038 18.2031 19.8094 18.6049 20.1543 18.9079C20.3068 19.0418 20.4461 19.1052 20.592 19.1052C20.7439 19.0978 20.8889 19.0357 21.0032 18.9291C21.057 18.8883 21.1079 18.8435 21.1557 18.7951C21.7205 18.1336 22.0511 17.284 22.0909 16.3919C22.1108 16.0042 22.1042 15.6166 22.0975 15.2431V14.7497C22.0975 14.5101 21.9582 14.3551 21.7327 14.3551H19.9022C19.8858 14.3556 19.8694 14.3521 19.8544 14.3447C19.8395 14.3374 19.8263 14.3264 19.816 14.3128C19.7965 14.2817 19.7893 14.2437 19.7961 14.207C19.8152 14.1336 19.8241 14.0577 19.8227 13.9815C19.8214 13.8981 19.8102 13.8153 19.7895 13.7348C19.7833 13.7174 19.7813 13.6987 19.7836 13.6802C19.7859 13.6618 19.7925 13.6442 19.8028 13.6291C19.8266 13.6006 19.8598 13.5829 19.8956 13.5798H21.7924C22.0305 13.5802 22.2607 13.67 22.4424 13.8335L22.4822 13.8547L22.522 13.8406C22.7096 13.691 22.9374 13.6095 23.172 13.608H24.8035C24.817 13.6072 24.8299 13.6021 24.8406 13.5932C24.8513 13.5844 24.8591 13.5724 24.8632 13.5587C24.8664 13.5523 24.8683 13.5452 24.8687 13.538C24.8691 13.5308 24.868 13.5235 24.8655 13.5168C24.863 13.5101 24.8591 13.504 24.8541 13.4991C24.8491 13.4941 24.8431 13.4904 24.8367 13.4882C24.3193 13.1499 24.0474 12.9596 23.5964 12.6495C23.1454 12.3394 22.7276 12.0434 22.0445 11.5994C21.7736 11.4219 21.4474 11.366 21.1377 11.444C20.8281 11.522 20.5602 11.7274 20.393 12.0152L19.9951 12.6918C19.9288 12.8045 19.8691 12.9173 19.8028 13.023L19.7895 13.0512C19.7704 13.0717 19.7547 13.0956 19.7431 13.1217C19.6568 13.2767 19.5574 13.3472 19.4313 13.3472C19.3579 13.3426 19.2859 13.3235 19.2191 13.2908C19.0925 13.2332 18.9809 13.1437 18.8941 13.0301C18.8278 12.9384 18.7681 12.8045 18.8477 12.6565C18.8548 12.6354 18.8661 12.6162 18.8809 12.6002L18.9804 12.4169C19.1953 11.9951 19.4414 11.5921 19.7165 11.2117C19.9197 10.941 20.1781 10.7229 20.4722 10.574C20.7664 10.425 21.0886 10.3491 21.4144 10.3519C21.8237 10.3519 22.2252 10.4714 22.575 10.6973C23.0327 11.0003 23.2714 11.1695 23.4903 11.3245C23.7092 11.4796 23.9413 11.6487 24.3923 11.9447L27.3901 13.8969C27.6156 14.0379 27.7084 14.2705 27.6487 14.5101ZM17.4616 14.1084L17.5411 14.1577C17.7127 14.2567 17.8516 14.4092 17.9391 14.5947L17.9855 14.6792C17.9909 14.6912 17.9994 14.7012 18.01 14.7082C18.0205 14.7153 18.0327 14.719 18.0452 14.719C18.0577 14.719 18.0699 14.7153 18.0804 14.7082C18.091 14.7012 18.0995 14.6912 18.1049 14.6792L18.1513 14.5947C18.2437 14.4142 18.3846 14.267 18.5559 14.1718L18.6421 14.1225C18.652 14.1173 18.6603 14.1092 18.6662 14.0993C18.672 14.0893 18.6752 14.0778 18.6753 14.0661C18.675 14.0534 18.6719 14.0411 18.6661 14.03C18.6603 14.0189 18.6521 14.0096 18.6421 14.0027L18.5625 13.9533C18.3918 13.8508 18.2517 13.6994 18.1579 13.5164L18.1182 13.4318C18.1139 13.4188 18.1057 13.4077 18.095 13.4001C18.0842 13.3924 18.0714 13.3887 18.0585 13.3895C18.0466 13.3898 18.0349 13.3931 18.0245 13.3992C18.0141 13.4054 18.0053 13.4141 17.9988 13.4247L17.9523 13.5164C17.8581 13.6953 17.7177 13.842 17.5478 13.9392L17.4616 13.9886C17.4521 13.9943 17.4441 14.0025 17.4383 14.0123C17.4325 14.0222 17.4291 14.0334 17.4284 14.0449C17.4286 14.0576 17.4318 14.07 17.4376 14.081C17.4433 14.0921 17.4516 14.1015 17.4616 14.1084Z" fill="#161616"/>
</g>
</g>
<defs>
<clipPath id="clip0_116_4399">
<rect width="18" height="18" fill="white" transform="matrix(-1 0 0 1 28 10)"/>
</clipPath>
<clipPath id="clip1_116_4399">
<rect width="18" height="18" fill="white" transform="translate(10 10)"/>
</clipPath>
</defs>
</svg>
