<svg width="38" height="38" viewBox="0 0 38 38" fill="none" xmlns="http://www.w3.org/2000/svg">
<rect width="38" height="38" rx="19" transform="matrix(-1 0 0 1 38 0)" fill="#2D2D2D"/>
<path d="M20.7756 17.6099V19.1019H17.2274V17.6099H10.3494C10.5375 18.033 10.7532 18.4433 10.9953 18.8381C11.3228 19.384 11.6777 19.9025 12.0052 20.4393C12.3327 20.9761 12.733 21.7676 12.8422 22.5227C12.9241 23.0959 12.9332 23.6873 12.9787 24.2695C13.0423 25.0429 13.2334 25.7798 13.6974 26.4166C14.4707 27.4629 15.89 27.4265 16.5996 26.3439C16.7511 26.1241 16.8735 25.8855 16.9636 25.6342C17.2092 24.8518 17.4093 24.0512 17.655 23.2779C17.7708 22.8783 17.939 22.4959 18.1554 22.1406C18.5739 21.4947 19.3745 21.5038 19.8112 22.1406C19.9554 22.3443 20.0689 22.568 20.1478 22.8048C20.3207 23.3688 20.4753 23.9329 20.63 24.5061C20.7847 25.0793 20.9757 25.7798 21.3487 26.3348C21.7218 26.8897 22.3677 27.2537 23.1228 27.1445C23.6869 27.0626 24.0781 26.7078 24.3693 26.2438C24.7969 25.5705 24.9515 24.8245 24.9879 24.0421C25.0152 23.5417 25.0607 23.0504 25.1062 22.55C25.2518 21.1853 27.3807 18.0648 27.3807 18.0648C27.3908 18.0424 27.403 18.0211 27.4171 18.0011C27.4807 17.8737 27.5444 17.7372 27.599 17.6099H20.7756Z" fill="#B9B9B9"/>
<path d="M10.0309 16.409C10.0409 16.5068 10.0561 16.6039 10.0764 16.7001H17.2273V15.2171H20.7755V16.7001H27.8901C28.0651 15.8921 28.0307 15.0528 27.79 14.2619C27.6899 13.907 27.5262 13.5613 27.3897 13.2065C27.3068 12.9856 27.1935 12.7774 27.0531 12.5878C26.58 11.9237 25.8066 11.4779 25.0424 11.1777C24.7894 11.0763 24.5313 10.9882 24.2691 10.9138L23.9325 10.8501C23.7778 10.841 23.6141 10.8228 23.4503 10.8228C22.5743 10.8344 21.7184 11.0861 20.9757 11.5507C20.8773 11.6008 20.783 11.6586 20.6936 11.7235H20.6845C20.4593 11.8804 20.2436 12.0505 20.0386 12.233C19.2834 12.8426 18.8467 13.2793 18.8467 13.2793C18.7974 13.1623 18.7332 13.0523 18.6557 12.9518C18.2272 12.4604 17.7345 12.0289 17.1909 11.669C16.2174 11.0321 15.1621 10.7046 14.0067 10.8592C12.4145 11.0594 11.2864 11.9419 10.5403 13.3248C10.5302 13.3471 10.5181 13.3684 10.504 13.3885C10.0582 14.1072 10.0218 14.4347 10.0036 14.9078V14.9715C10.0127 15.4628 9.97627 15.9359 10.0309 16.409Z" fill="#B9B9B9"/>
<path d="M19.8658 16.127H18.1372V16.7001H19.0015V17.6099H18.1372V18.1922H19.8658V16.127Z" fill="#B9B9B9"/>
</svg>
