<svg width="80" height="80" viewBox="0 0 80 80" fill="none" xmlns="http://www.w3.org/2000/svg">
<path d="M40 80C62.0914 80 80 62.0914 80 40C80 17.9086 62.0914 0 40 0C17.9086 0 0 17.9086 0 40C0 62.0914 17.9086 80 40 80Z" fill="white"/>
<path d="M22.3867 22.4604C22.7855 22.5538 23.1794 22.6673 23.5667 22.8004C24.8867 23.3204 26.2067 23.8004 27.4867 24.4204C28.8692 25.1043 30.1485 25.9796 31.2867 27.0204C32.604 28.1901 33.6836 29.6025 34.4667 31.1804C35.0292 32.2945 35.3882 33.5001 35.5267 34.7404C35.5667 35.0404 35.5867 35.3404 35.6267 35.7404C34.9267 35.6204 34.2667 35.5604 33.6467 35.4204C31.8674 34.9839 30.2073 34.1573 28.7867 33.0004C27.349 31.8409 26.1241 30.44 25.1667 28.8604C24.1079 27.124 23.2682 25.2632 22.6667 23.3204C22.5867 23.0604 22.5067 22.8004 22.3867 22.4604Z" fill="#161616"/>
<path d="M56.388 56.3801L55.208 56.0201C53.6918 55.5417 52.2251 54.9188 50.828 54.1601C49.8117 53.6114 48.8535 52.9615 47.968 52.2201C46.8991 51.3389 45.9629 50.3083 45.188 49.1601C44.2181 47.7346 43.5635 46.1187 43.268 44.4201C43.2011 43.9766 43.1676 43.5286 43.168 43.0801C43.888 43.2001 44.568 43.2601 45.208 43.4201C47.0297 43.8975 48.7235 44.7717 50.168 45.9801C51.748 47.2601 52.968 48.8401 53.988 50.5801C54.8477 52.0817 55.545 53.6707 56.068 55.3201C56.168 55.6401 56.268 55.9601 56.388 56.3801Z" fill="#161616"/>
<path d="M22.4648 56.4002C22.5048 56.2002 22.5248 56.0402 22.5648 55.9002C23.0187 54.3487 23.6146 52.8423 24.3448 51.4002C24.9533 50.214 25.684 49.0946 26.5248 48.0602C27.801 46.4654 29.4215 45.1799 31.2648 44.3002C32.3223 43.7628 33.4667 43.4174 34.6448 43.2802L35.7048 43.1802C35.6274 43.8524 35.5139 44.5201 35.3648 45.1802C34.9779 46.8404 34.234 48.3965 33.1848 49.7402C32.2524 51.0061 31.1091 52.1021 29.8048 52.9802C28.9536 53.5703 28.0651 54.1047 27.1448 54.5802C26.2133 55.0361 25.2587 55.4433 24.2848 55.8002C23.7048 56.0402 23.1048 56.2002 22.4648 56.4002Z" fill="#161616"/>
<path d="M56.3342 22.4001C56.2342 22.7601 56.1542 23.0601 56.0542 23.3601C55.5771 24.9565 54.9336 26.4983 54.1342 27.9601C53.5722 29.0012 52.9018 29.9799 52.1342 30.8801C51.1844 32.0241 50.0647 33.0157 48.8142 33.8201C47.5144 34.657 46.0584 35.2217 44.5342 35.4801L43.0742 35.6801C43.1084 35.184 43.1685 34.69 43.2542 34.2001C43.472 33.1099 43.8353 32.0538 44.3342 31.0601C44.8848 30.0294 45.549 29.0634 46.3142 28.1801C47.415 26.9531 48.6964 25.901 50.1142 25.0601C51.3718 24.2912 52.7056 23.6545 54.0942 23.1601L56.3342 22.4001Z" fill="#161616"/>
<path d="M63.3167 40.0201C61.6847 40.9639 59.9456 41.7091 58.1367 42.2401C57.1725 42.5155 56.19 42.7227 55.1967 42.8601C54.1502 43.0069 53.0921 43.0538 52.0367 43.0001C49.42 42.8475 46.9196 41.8669 44.8967 40.2001C44.6567 40.0201 44.7167 39.9201 44.9367 39.7201C46.0682 38.7619 47.3809 38.0409 48.7967 37.6001C49.7204 37.2853 50.6825 37.097 51.6567 37.0401C52.4967 37.0001 53.3567 36.9001 54.1967 37.0001C55.3538 37.1252 56.5025 37.3189 57.6367 37.5801C59.4944 38.0718 61.282 38.7977 62.9567 39.7401L63.2567 39.9001C63.2767 39.9201 63.2767 39.9601 63.3167 40.0201Z" fill="#161616"/>
<path d="M39.4027 63.9802C38.6617 62.7206 38.039 61.3949 37.5427 60.0202C37.1827 58.9802 36.9027 57.9202 36.6427 56.8602C36.5257 56.3209 36.4588 55.7719 36.4427 55.2202C36.4027 54.8002 36.3827 54.3802 36.3627 53.9602C36.3044 52.2067 36.5968 50.4593 37.2227 48.8202C37.6424 47.6819 38.2584 46.6259 39.0427 45.7002L39.2027 45.5002L39.4027 45.2402C39.7227 45.6602 40.0227 46.0002 40.2827 46.3802C41.3027 47.8002 41.8627 49.3802 42.2027 51.0602C42.4392 52.2785 42.5065 53.5236 42.4027 54.7602C42.2901 56.2 42.015 57.6223 41.5827 59.0002C41.0739 60.5563 40.4384 62.068 39.6827 63.5202L39.4027 63.9802Z" fill="#161616"/>
<path d="M15.4453 39.9202C16.5853 39.3802 17.7053 38.7802 18.9053 38.3402C20.1053 37.9002 21.3053 37.5802 22.5253 37.2402C23.0595 37.133 23.6011 37.0662 24.1453 37.0402L26.2853 36.9802C27.3552 36.9998 28.4178 37.1612 29.4453 37.4602C30.8737 37.851 32.212 38.5168 33.3853 39.4202L33.5653 39.5402L34.0853 39.9802C33.5426 40.5555 32.9071 41.0355 32.2053 41.4002C31.0078 42.0834 29.7023 42.5569 28.3453 42.8002C27.3227 42.9835 26.2835 43.0572 25.2453 43.0202C23.7199 42.9826 22.2064 42.7404 20.7453 42.3002C19.0214 41.7976 17.3581 41.1067 15.7853 40.2402L15.4453 40.0202V39.9202Z" fill="#161616"/>
<path d="M39.3796 16.02C40.2901 17.5863 41.0214 19.2501 41.5596 20.98C41.9271 22.0414 42.1687 23.1423 42.2796 24.26C42.3732 25.2905 42.4065 26.3256 42.3796 27.36C42.2845 28.9095 41.9049 30.4281 41.2596 31.84C40.7985 32.8068 40.2208 33.7135 39.5396 34.54C39.4396 34.66 39.3796 34.72 39.2196 34.54C37.7996 32.98 37.0396 31.12 36.5996 29.06C36.3465 27.7562 36.2725 26.4239 36.3796 25.1C36.5329 23.044 37.0333 21.0289 37.8596 19.14C38.2396 18.2 38.6996 17.3 39.1396 16.38C39.2102 16.254 39.2904 16.1336 39.3796 16.02Z" fill="#161616"/>
</svg>
