<svg width="35" height="34" viewBox="0 0 35 34" fill="none" xmlns="http://www.w3.org/2000/svg">
<path d="M27.4329 12.251C27.4467 13.4704 27.184 14.8117 26.7828 16.1225C26.3484 17.5 26.0833 18.9353 25.9945 20.3903C25.9094 22.0918 25.3272 23.7173 24.3347 25.024C24.0221 25.4626 23.619 25.8127 23.159 26.0452C22.3568 26.4415 21.6652 26.1214 21.3886 25.2069C21.2088 24.6277 21.2226 24.0332 21.2918 23.4235C21.3609 22.8139 21.4163 22.4023 21.3471 21.8993C21.3194 21.6859 21.3056 21.4573 21.0843 21.3811C20.863 21.3049 20.7247 21.4878 20.6002 21.6402C20.0885 22.2804 19.8948 23.0577 19.8395 23.8808C19.7842 24.7039 19.8948 25.4812 20.0331 26.2738C20.1246 26.672 20.1619 27.0829 20.1438 27.4932C20.0608 28.3925 19.466 28.9564 18.65 28.8955C17.8339 28.8345 16.8934 28.301 16.2433 27.5389C14.7772 25.8166 14.0165 23.7894 14.0718 21.4116C14.0947 20.7897 14.0623 20.1669 13.975 19.552C13.8963 19.0235 13.7069 18.5225 13.4217 18.0888C12.4674 16.656 11.5545 15.208 10.9044 13.5771C10.448 12.4035 10.0884 11.1841 10.2405 9.8885C10.614 6.8553 12.5365 4.81285 15.5656 5.13294C16.9913 5.30896 18.348 5.90381 19.4937 6.85531C19.5581 6.92624 19.6425 6.97091 19.733 6.98199C19.8235 6.99307 19.9147 6.9699 19.9916 6.91627C20.8541 6.43498 21.794 6.14498 22.7579 6.06271C24.8741 5.91029 26.4232 7.09918 27.0733 9.33978C27.3361 10.2238 27.4329 11.1384 27.4329 12.251Z" fill="#161616"/>
<path d="M14.7852 27.5693C13.6193 27.4194 12.4837 27.0589 11.4241 26.5024C10.5389 26.0146 9.75055 25.4049 9.1558 24.5209C8.02163 22.8442 7.95247 21.0304 8.6717 19.1404C9.11431 17.9668 9.81971 16.9913 10.6219 16.0767C10.7602 15.9243 10.8294 15.97 10.9124 16.1377C11.4103 17.0522 11.9774 17.921 12.5445 18.7898C12.8626 19.2623 12.9456 19.8263 12.9733 20.3903C13.0009 20.9542 12.9871 21.5334 13.0009 22.1126C13.0563 24.0027 13.6372 25.6945 14.633 27.234C14.713 27.3265 14.766 27.4433 14.7852 27.5693Z" fill="#161616"/>
<path d="M25.6613 25.1313C26.1287 24.2765 26.4959 23.3597 26.7539 22.403C26.9709 21.5903 27.0918 20.7501 27.1136 19.9033C27.1274 18.6687 27.5008 17.5103 27.8328 16.3519C28.1647 15.1935 28.4137 14.1265 28.4829 12.9529C28.4967 12.6785 28.5935 12.7242 28.7457 12.8462C31.0002 14.4466 31.7056 17.1902 30.5576 19.8728C29.8937 21.4427 28.8425 22.6926 27.6115 23.7596C27.0053 24.2885 26.3519 24.7482 25.6613 25.1313Z" fill="#161616"/>
<path d="M8.72855 14.2019C7.98166 14.2019 7.49756 14.7354 7.48372 15.5585V15.8633C7.46989 16.0005 7.40074 16.092 7.27625 16.0767C7.22857 16.0767 7.18283 16.0559 7.14911 16.0187C7.11539 15.9815 7.09645 15.9311 7.09645 15.8786C7.08953 15.7415 7.08953 15.6041 7.09645 15.467C7.09464 15.2989 7.0628 15.1328 7.00273 14.9782C6.94267 14.8236 6.85557 14.6836 6.7464 14.5661C6.63722 14.4487 6.50812 14.356 6.36646 14.2935C6.2248 14.2311 6.07336 14.1999 5.92078 14.2019H5.57499C5.54836 14.202 5.52199 14.196 5.49755 14.1844C5.47311 14.1727 5.45111 14.1556 5.43294 14.1342C5.41476 14.1127 5.4008 14.0873 5.39193 14.0597C5.38305 14.032 5.37945 14.0026 5.38135 13.9733C5.38123 13.9193 5.39972 13.8672 5.4331 13.8276C5.46647 13.788 5.51224 13.7638 5.56116 13.7599H5.85162C6.61235 13.7599 7.08261 13.2417 7.09645 12.3881V12.19C7.09645 12.0376 7.11028 11.8851 7.30392 11.8851C7.49756 11.8851 7.48372 12.0376 7.48372 12.1747V12.5558C7.49795 12.8806 7.62515 13.187 7.83892 13.4112C8.05269 13.6354 8.33661 13.7603 8.63173 13.7599H8.93602C9.07433 13.7599 9.19882 13.8209 9.18498 13.9885C9.17115 14.1562 9.07433 14.2019 8.94985 14.2019H8.72855Z" fill="#161616"/>
<path d="M5.22853 11.4423C5.20021 11.439 5.17378 11.4251 5.15364 11.4029C5.1335 11.3807 5.12088 11.3516 5.11788 11.3204C5.10646 11.2603 5.10181 11.1988 5.10404 11.1375C5.09021 10.4516 4.79975 10.1315 4.19117 10.1162C4.08052 10.1162 3.91454 10.162 3.90071 9.97907C3.88688 9.79616 4.05286 9.8114 4.17734 9.79616C4.81358 9.76568 5.07638 9.46083 5.10404 8.72921C5.11788 8.62251 5.09021 8.47009 5.24236 8.47009C5.3945 8.47009 5.3945 8.62251 5.3945 8.74445C5.42217 9.49132 5.67113 9.75043 6.3627 9.79616C6.45952 9.8114 6.59783 9.79616 6.59783 9.96383C6.59783 10.1315 6.45952 10.1162 6.3627 10.1162C5.64347 10.162 5.46366 10.3754 5.3945 11.1984C5.38067 11.3204 5.36684 11.4271 5.22853 11.4423Z" fill="#161616"/>
</svg>
