<svg width="38" height="38" viewBox="0 0 38 38" fill="none" xmlns="http://www.w3.org/2000/svg">
<rect x="-0.40625" y="0.40625" width="37.1875" height="37.1875" rx="18.5938" transform="matrix(-1 0 0 1 37.1875 0)" fill="white"/>
<rect x="-0.40625" y="0.40625" width="37.1875" height="37.1875" rx="18.5938" transform="matrix(-1 0 0 1 37.1875 0)" stroke="#5C5C5C" stroke-width="0.8125"/>
<g clip-path="url(#clip0_116_4595)">
<g clip-path="url(#clip1_116_4595)">
<path d="M24.6851 16.5283C24.5708 15.9147 24.2364 15.3593 23.7403 14.959L23.7077 15.0531C23.7015 15.0669 23.6912 15.0787 23.6782 15.0871C23.6652 15.0954 23.65 15.1 23.6344 15.1002H23.6181C23.5994 15.0966 23.5827 15.0867 23.5708 15.0724C23.5589 15.058 23.5526 15.0401 23.553 15.0218C23.553 14.7628 23.3575 14.6687 23.1376 14.5588C22.6708 14.3406 22.1577 14.2305 21.6389 14.2371C21.2526 14.2392 20.8675 14.2813 20.4905 14.3626C20.1936 14.4171 19.9021 14.4959 19.619 14.598L19.3421 14.6844C19.8268 14.9684 20.3585 15.1701 20.914 15.2807C20.9334 15.286 20.9503 15.2973 20.9621 15.313C20.9739 15.3286 20.98 15.3477 20.9792 15.367C20.9757 15.3858 20.9657 15.4029 20.951 15.4157C20.9363 15.4285 20.9175 15.4362 20.8978 15.4376H20.6616C20.0833 15.4141 19.5131 15.2415 18.8127 14.8884C18.1122 14.5353 17.4118 14.3077 16.7439 14.2528L16.353 14.2371C15.5303 14.2371 14.8543 14.4647 14.3086 14.9198C13.2498 15.7986 12.9566 17.2345 13.5919 18.5056C13.8362 19 14.1702 19.4708 14.4959 19.918L14.6344 20.1142C15.3186 21.0636 15.6281 22.115 15.5792 23.3234C15.5548 24.0296 15.5222 24.8535 15.5385 25.6617C15.5565 26.0028 15.6195 26.3402 15.7258 26.666C15.748 26.7263 15.7825 26.7816 15.8273 26.8288C15.8721 26.8759 15.9262 26.914 15.9864 26.9407H16.0516C16.1656 26.9407 16.2634 26.8308 16.3204 26.721C16.4681 26.4586 16.5882 26.1826 16.6788 25.8971C16.7846 25.5518 16.8742 25.1909 16.9638 24.8456C17.0127 24.6416 17.0616 24.4298 17.1186 24.2258C17.2815 23.6059 17.4444 23.0566 17.8027 22.5544C18.1611 22.0523 18.5276 21.911 18.9919 21.911C19.1354 21.9127 19.278 21.9339 19.4154 21.9738C19.6054 22.0279 19.7813 22.1202 19.9315 22.2447C20.0818 22.3691 20.2029 22.5228 20.2869 22.6957C20.5231 23.2293 20.7267 23.7707 20.9059 24.3199C21.0118 24.6573 21.1095 25.0104 21.1991 25.3478C21.2887 25.6852 21.3539 25.952 21.4435 26.2502C21.5161 26.4581 21.6264 26.6521 21.7692 26.823C21.7945 26.8602 21.8281 26.8915 21.8676 26.9146C21.9071 26.9376 21.9514 26.9519 21.9973 26.9564C22.095 26.9564 22.1846 26.8857 22.2416 26.7602C22.3232 26.5715 22.3807 26.3738 22.4127 26.1717C22.5593 25.3007 22.5023 24.4141 22.4371 23.551V23.5274C22.3475 22.2092 22.657 21.0793 23.3982 20.0749L23.6181 19.7846C23.8054 19.5335 24.0009 19.2824 24.172 19.0157C24.4229 18.6539 24.5975 18.248 24.6855 17.8212C24.7735 17.3944 24.7734 16.955 24.6851 16.5283Z" fill="#161616"/>
<path d="M26.8923 14.5196C26.705 14.2058 26.5014 13.9154 26.3303 13.6643L26.1104 13.3662L26.0778 13.3191C26.1404 13.2782 26.1916 13.2233 26.2271 13.159C26.2626 13.0947 26.2812 13.0231 26.2815 12.9503C26.282 12.8483 26.2493 12.7488 26.1879 12.6657C26.1265 12.5826 26.0396 12.5203 25.9394 12.4874H25.915L25.4996 12.3854C25.5077 12.3625 25.5132 12.3388 25.5159 12.3147C25.524 12.2833 25.5403 12.2363 25.5484 12.197L25.5973 11.9773L25.7928 11.9459L25.9312 11.9067C26.002 11.889 26.0675 11.8556 26.1227 11.8093C26.1778 11.763 26.221 11.7051 26.2489 11.6399L26.2896 11.5536V11.5301C26.3124 11.466 26.3212 11.3981 26.3156 11.3307C26.31 11.2632 26.2901 11.1975 26.257 11.1378L26.2245 11.0828L26.1756 11.0436C26.1305 11.0007 26.0771 10.9669 26.0184 10.944C25.9597 10.9211 25.8968 10.9096 25.8335 10.9102H25.8009L25.6054 10.9259H25.581C25.5563 10.8552 25.5507 10.7796 25.5647 10.7062C25.5696 10.6386 25.5581 10.5709 25.5313 10.5082C25.5044 10.4456 25.4629 10.3898 25.41 10.3452C25.3676 10.3011 25.3158 10.2663 25.2582 10.2433C25.2005 10.2202 25.1384 10.2095 25.076 10.2119H24.9539L24.905 10.2276C24.82 10.2456 24.7414 10.2848 24.6771 10.3412C24.6128 10.3977 24.565 10.4694 24.5385 10.5493C24.5222 10.6277 24.5059 10.7062 24.4978 10.7847C24.4896 10.8631 24.4896 10.8396 24.4896 10.871L24.3919 10.8867L24.1638 10.9259L24.1475 10.8317L24.1231 10.7219C24.0975 10.6174 24.0362 10.5242 23.9491 10.4574C23.8619 10.3905 23.754 10.3537 23.6426 10.3531H23.6181C23.5184 10.3572 23.4224 10.3911 23.3436 10.4502C23.2647 10.5093 23.207 10.5905 23.1783 10.6827V10.7062C23.1539 10.8003 23.1376 10.8867 23.1131 10.9808C23.0477 10.9196 22.9701 10.8715 22.8851 10.8396L22.7548 10.7768H22.7385C21.5712 10.2684 20.3055 10.0037 19.0245 10L18.9674 10C18.537 10.0017 18.1071 10.0305 17.6806 10.0863C15.6107 10.3847 13.7116 11.3632 12.305 12.8561C10.9004 14.3464 10.087 16.2666 10.0082 18.2781C9.90228 21.252 11.0996 23.7079 13.5512 25.5754L13.6082 25.6146C13.7593 25.7567 13.9592 25.8404 14.1702 25.85H14.1946C14.3002 25.8417 14.4028 25.8123 14.4959 25.7637C14.4959 25.8187 14.5041 25.8736 14.5041 25.9285C14.5212 26.3903 14.6348 26.8439 14.838 27.2624C14.9327 27.4807 15.0922 27.6672 15.2966 27.7984C15.5009 27.9296 15.7409 27.9997 15.9864 28H15.9946C16.3203 27.9926 16.6324 27.8729 16.8742 27.6626C17.0593 27.5084 17.2162 27.3254 17.3385 27.1212C17.4666 27.2096 17.6207 27.2563 17.7783 27.2546L18.9674 27.3566H19.0082L19.3584 27.333L20.2299 27.2546C20.3849 27.2485 20.5348 27.1994 20.6616 27.1133C20.7527 27.2619 20.8591 27.4012 20.9792 27.5292C21.1045 27.6702 21.2592 27.7842 21.4332 27.864C21.6071 27.9437 21.7966 27.9874 21.9892 27.9922H21.9973C22.4941 27.9922 22.934 27.7097 23.1946 27.231C23.3124 26.995 23.3947 26.744 23.4389 26.4856C23.4797 26.2502 23.5122 26.0227 23.5285 25.7951C23.6097 25.8245 23.6946 25.843 23.781 25.85H23.8299C23.9915 25.8393 24.1468 25.7849 24.2778 25.6931L24.4815 25.544C26.705 23.8413 27.9186 21.5737 28 18.9843C27.9919 17.2031 27.6498 15.83 26.8923 14.5196ZM24.172 11.4202C24.1716 11.416 24.1721 11.4117 24.1735 11.4076C24.1749 11.4036 24.1772 11.3999 24.1801 11.3967L24.1964 11.3731C24.2016 11.3594 24.2102 11.3472 24.2216 11.3376C24.233 11.328 24.2468 11.3213 24.2616 11.3182L24.4652 11.279C24.6036 11.2554 24.7421 11.2319 24.8073 11.1613C24.8724 11.0907 24.8887 10.9651 24.905 10.8396C24.9119 10.7736 24.9228 10.7081 24.9376 10.6434C24.9415 10.6283 24.9497 10.6144 24.9611 10.6033C24.9726 10.5923 24.987 10.5844 25.0027 10.5806H25.076C25.0923 10.5806 25.1168 10.5806 25.1249 10.5963C25.1438 10.6124 25.1554 10.6349 25.1575 10.6591C25.1412 10.9024 25.1901 11.075 25.2878 11.177C25.3349 11.2212 25.3912 11.2552 25.453 11.2768C25.5148 11.2985 25.5806 11.3072 25.6462 11.3025L25.8254 11.2868H25.8416C25.8536 11.2864 25.8655 11.2882 25.8767 11.2923C25.8879 11.2963 25.8981 11.3025 25.9068 11.3104C25.9142 11.3235 25.9187 11.3379 25.9201 11.3527C25.9215 11.3676 25.9197 11.3825 25.915 11.3967L25.8824 11.4673C25.87 11.4892 25.8497 11.5059 25.8254 11.5144L25.7032 11.5458L25.41 11.6007C25.2715 11.6164 25.2226 11.6635 25.2145 11.7812C25.2014 11.8873 25.1797 11.9922 25.1493 12.095C25.1412 12.15 25.1249 12.2049 25.1086 12.2755C25.1035 12.2928 25.093 12.3082 25.0784 12.3195C25.0637 12.3307 25.0458 12.3373 25.0272 12.3383C25.0081 12.3386 24.9895 12.3326 24.9746 12.3211C24.9598 12.3096 24.9495 12.2935 24.9457 12.2755C24.9294 12.2049 24.9213 12.1421 24.905 12.0793C24.8728 11.9686 24.8483 11.8559 24.8317 11.7419C24.8235 11.6556 24.7991 11.6242 24.7014 11.6085L24.3756 11.5458L24.229 11.5144C24.2183 11.5127 24.2081 11.5088 24.1992 11.5029C24.1903 11.497 24.1829 11.4893 24.1774 11.4803C24.172 11.4713 24.1687 11.4612 24.1677 11.4508C24.1668 11.4405 24.1682 11.43 24.172 11.4202ZM14.4145 25.34C14.3513 25.4075 14.2641 25.4495 14.1702 25.4577C14.048 25.4577 13.9502 25.3793 13.8607 25.3086L13.8118 25.2694C11.4579 23.4804 10.3177 21.1343 10.4154 18.2938C10.4868 16.3746 11.2632 14.5421 12.6064 13.1229C13.9492 11.6939 15.7661 10.7591 17.7457 10.4786C18.169 10.4184 18.5965 10.3895 19.0245 10.3923C20.2465 10.3924 21.4544 10.6439 22.5674 11.1299L22.714 11.2005C22.8152 11.2407 22.8967 11.3165 22.9421 11.4124C22.9641 11.4945 22.9525 11.5816 22.9095 11.6556C22.8847 11.7019 22.8474 11.7409 22.8015 11.7685C22.7557 11.7961 22.703 11.8113 22.6489 11.8126C22.5796 11.8078 22.5111 11.7946 22.4453 11.7733L22.0054 11.6085C21.6069 11.4518 21.1989 11.3181 20.7837 11.2084C20.1938 11.0743 19.5898 11.0059 18.9837 11.0044C15.1475 11.0044 11.7837 13.7271 11.1729 17.3444C11.1159 17.6504 11.0914 17.9643 11.0588 18.231C11.0534 18.3409 11.0453 18.4429 11.0344 18.5371C11.1077 21.1892 12.1502 23.2293 14.2027 24.7751C14.3982 24.9242 14.4878 25.034 14.4959 25.1439C14.4974 25.1802 14.491 25.2165 14.4769 25.2503C14.4629 25.2841 14.4416 25.3147 14.4145 25.34ZM20.4905 26.7446C20.4139 26.8165 20.3123 26.8584 20.2054 26.8622L19.3258 26.9407L18.9919 26.9643H18.9837L17.7946 26.8622C17.741 26.8639 17.6877 26.8542 17.6385 26.8339C17.5892 26.8135 17.5452 26.7831 17.5095 26.7446C17.4811 26.7125 17.4605 26.6747 17.4492 26.634C17.438 26.5932 17.4363 26.5506 17.4444 26.5092C17.4607 26.3915 17.5258 26.2424 17.7702 26.2424H17.876C18.2487 26.2896 18.6242 26.3132 19 26.313C19.3786 26.3129 19.7567 26.2893 20.1321 26.2424H20.2299C20.2684 26.2391 20.3072 26.2433 20.3441 26.2546C20.3809 26.2659 20.4151 26.2841 20.4446 26.3082C20.4742 26.3322 20.4985 26.3617 20.5161 26.3948C20.5338 26.428 20.5445 26.4642 20.5475 26.5013C20.5577 26.5863 20.5376 26.6721 20.4905 26.7446ZM23.0643 23.4882C23.1457 24.4455 23.2272 25.4342 23.0398 26.415C22.9978 26.6372 22.9267 26.8534 22.8281 27.0584C22.6489 27.3958 22.3394 27.5998 21.9973 27.5998C21.8615 27.5972 21.728 27.5664 21.6057 27.5095C21.4834 27.4526 21.3753 27.371 21.2887 27.2703C21.0761 27.0434 20.9152 26.7761 20.8163 26.4856C20.6778 26.0776 20.5638 25.6539 20.4579 25.2537C20.3928 25.0026 20.3195 24.7437 20.2462 24.4847C20.124 24.061 19.9937 23.6922 19.8634 23.347C19.7897 23.1724 19.691 23.0087 19.5702 22.8605C19.5031 22.7722 19.4163 22.6996 19.3163 22.648C19.2162 22.5964 19.1053 22.5671 18.9919 22.5623C18.8836 22.5651 18.7778 22.5938 18.6839 22.6458C18.59 22.6979 18.5111 22.7717 18.4543 22.8605C18.2266 23.1673 18.0557 23.5097 17.9493 23.8727C17.819 24.2572 17.7213 24.6574 17.6235 25.034C17.5258 25.4106 17.4851 25.5676 17.4118 25.8344C17.3244 26.1602 17.2072 26.4779 17.0616 26.7838C16.95 27.0063 16.7952 27.206 16.6054 27.3723C16.4344 27.5187 16.2152 27.602 15.9864 27.6077C15.8201 27.6082 15.6574 27.5606 15.5195 27.4711C15.3815 27.3816 15.2747 27.2542 15.2127 27.1055C15.0317 26.7309 14.9293 26.3256 14.9113 25.9128C14.8869 25.1674 14.9113 24.3984 14.9439 23.6609C14.9439 23.5039 14.9521 23.3391 14.9602 23.1822C14.9928 22.1779 14.7566 21.3226 14.2435 20.5615L13.8199 19.9808C13.6245 19.714 13.4208 19.4316 13.2416 19.1491C12.5168 18.0035 12.3946 16.8344 12.8833 15.6809C13.372 14.5275 14.6751 13.633 16.1575 13.633L16.4914 13.6486C17.3828 13.7137 18.2415 14.0003 18.9837 14.4804H18.9919C19.0275 14.5078 19.0693 14.5267 19.114 14.5353C19.1471 14.5305 19.1782 14.517 19.2036 14.4961C20.0263 13.9154 20.8978 13.6173 21.7937 13.6173C22.3106 13.6237 22.8227 13.7139 23.3086 13.884C23.3005 13.8684 23.3005 13.8448 23.2923 13.8291C23.2679 13.6722 23.2435 13.531 23.2109 13.3897C23.1807 13.3543 23.1414 13.3272 23.0969 13.3112L22.0462 13.1229L21.6145 13.0445C21.5346 13.0379 21.4597 13.0046 21.4027 12.9503C21.393 12.9398 21.3863 12.927 21.3834 12.9132C21.3806 12.8994 21.3816 12.8851 21.3864 12.8718C21.3902 12.8587 21.3974 12.8467 21.4074 12.8371C21.4174 12.8275 21.4298 12.8205 21.4435 12.8169L21.8914 12.7384C22.2661 12.6678 22.657 12.5972 23.048 12.5423C23.1783 12.5187 23.2109 12.4874 23.2353 12.3697C23.3184 11.8439 23.4299 11.3227 23.5693 10.8082C23.5742 10.7929 23.5839 10.7795 23.597 10.7697C23.6101 10.7599 23.626 10.7541 23.6426 10.7533C23.6616 10.7529 23.6802 10.759 23.6951 10.7704C23.71 10.7819 23.7202 10.7981 23.724 10.816L23.7484 10.918L23.7973 11.1534C23.8136 11.2476 23.8299 11.3496 23.8543 11.4438C23.9113 11.7419 23.9683 12.0558 24.0172 12.3618C24.0416 12.4874 24.0742 12.5187 24.1964 12.5423C24.7747 12.6286 25.3041 12.7306 25.8172 12.8561C25.8344 12.8613 25.8493 12.8718 25.8596 12.886C25.8699 12.9002 25.875 12.9173 25.8742 12.9346C25.8732 12.9526 25.8664 12.9698 25.8547 12.9839C25.843 12.998 25.8271 13.0082 25.8091 13.0131L25.6217 13.0445L25.1901 13.1308L24.9702 13.17L24.1638 13.3034C24.0661 13.3191 24.0416 13.3426 24.0254 13.4368C24.0091 13.531 23.9928 13.6565 23.9683 13.7585C23.9375 13.8741 23.9184 13.9924 23.9113 14.1116C23.9081 14.1353 23.9101 14.1595 23.9171 14.1824C23.9241 14.2054 23.936 14.2267 23.9521 14.245C25.7358 15.5083 25.695 17.7053 24.7502 19.1334C24.4978 19.51 24.2208 19.9102 23.9032 20.3418C23.2435 21.252 22.9665 22.2799 23.0643 23.4882ZM24.229 25.238L24.0335 25.3793C23.9662 25.4247 23.8874 25.4518 23.8054 25.4577C23.7568 25.455 23.7095 25.4416 23.6671 25.4184C23.6248 25.3953 23.5885 25.3631 23.5611 25.3243C23.4471 25.1752 23.4797 25.0105 23.6426 24.8771L23.8217 24.7515L24.2453 24.4141C27.4054 21.6835 27.8616 17.3287 25.3367 14.0567L25.3122 14.0253C25.2952 13.9979 25.2761 13.9716 25.2552 13.9468C25.2155 13.9093 25.1847 13.8639 25.165 13.8138C25.1453 13.7636 25.1372 13.71 25.1412 13.6565C25.1496 13.6166 25.1661 13.5786 25.1899 13.545C25.2137 13.5113 25.2442 13.4825 25.2797 13.4603C25.3336 13.4145 25.4032 13.3894 25.4751 13.3897C25.5892 13.3897 25.6869 13.4525 25.7765 13.578L25.9964 13.884C26.1837 14.1508 26.3711 14.4255 26.5421 14.7079C27.2588 15.9555 27.5846 17.2738 27.5928 18.9765C27.5195 21.4403 26.3629 23.6059 24.229 25.238Z" fill="#161616"/>
</g>
</g>
<defs>
<clipPath id="clip0_116_4595">
<rect width="18" height="18" fill="white" transform="matrix(-1 0 0 1 28 10)"/>
</clipPath>
<clipPath id="clip1_116_4595">
<rect width="18" height="18" fill="white" transform="translate(10 10)"/>
</clipPath>
</defs>
</svg>
