<svg width="38" height="38" viewBox="0 0 38 38" fill="none" xmlns="http://www.w3.org/2000/svg">
<rect width="38" height="38" rx="19" transform="matrix(-1 0 0 1 38 0)" fill="#2D2D2D"/>
<g clip-path="url(#clip0_617_13209)">
<path d="M25.8638 12.5912C25.3471 12.46 24.8141 12.3452 24.2319 12.255C24.1089 12.2386 24.0761 12.1976 24.0515 12.0745C24.0023 11.7465 23.9449 11.4267 23.8874 11.1069C23.8628 11.0085 23.8464 10.9101 23.83 10.8035L23.7808 10.5575L23.7562 10.4509C23.7511 10.4327 23.7405 10.4167 23.7258 10.4049C23.7111 10.3931 23.693 10.3863 23.6742 10.3853C23.6554 10.3863 23.6374 10.3931 23.6227 10.4049C23.608 10.4167 23.5973 10.4327 23.5922 10.4509C23.4537 10.9885 23.3442 11.5333 23.2642 12.0827C23.2396 12.1976 23.2068 12.2386 23.0756 12.255L21.9111 12.4682L21.4601 12.5502C21.4355 12.5502 21.4109 12.5748 21.3945 12.6076C21.3927 12.6222 21.394 12.637 21.3982 12.6512C21.4025 12.6653 21.4096 12.6784 21.4191 12.6896C21.4802 12.7406 21.5538 12.7746 21.6323 12.788L22.0669 12.87L23.1248 13.0668C23.1485 13.0721 23.1708 13.082 23.1906 13.0961C23.2103 13.1102 23.227 13.1281 23.2396 13.1488C23.2724 13.2882 23.297 13.444 23.3216 13.5998C23.3283 13.6182 23.3311 13.6377 23.3298 13.6572C22.8429 13.4824 22.33 13.3909 21.8127 13.3866C20.9107 13.3866 20.0332 13.69 19.1968 14.3051C19.1741 14.3252 19.1451 14.3367 19.1148 14.3379C19.0696 14.3295 19.0272 14.3097 18.9918 14.2805H18.9836C18.236 13.7782 17.372 13.476 16.4742 13.403H16.138C14.6455 13.403 13.3827 14.2149 12.8414 15.5351C12.3002 16.8554 12.4724 17.9543 13.2023 19.1515C13.3827 19.455 13.5877 19.742 13.7845 20.0208C13.9813 20.2996 14.0715 20.4226 14.2109 20.6358C14.7275 21.4231 14.9654 22.3169 14.9326 23.3666L14.9079 23.875C14.8833 24.6458 14.8587 25.4413 14.8833 26.2285C14.903 26.6571 15.006 27.0777 15.1868 27.4668C15.2479 27.6238 15.3549 27.7586 15.4939 27.8537C15.6329 27.9488 15.7974 27.9997 15.9658 27.9998C16.1962 27.9947 16.4172 27.9074 16.589 27.7538C16.7818 27.5848 16.938 27.3784 17.0483 27.147C17.1937 26.824 17.3116 26.4893 17.4009 26.1465C17.4747 25.8677 17.5485 25.5889 17.6141 25.3183C17.7125 24.9165 17.8109 24.4982 17.9421 24.1046C18.0546 23.7248 18.2261 23.365 18.4505 23.0386C18.5088 22.9467 18.5885 22.8704 18.6828 22.8161C18.7771 22.7618 18.8831 22.7312 18.9918 22.7269C19.1048 22.732 19.2152 22.7626 19.3147 22.8166C19.4141 22.8706 19.5 22.9465 19.5658 23.0386C19.6906 23.1927 19.7928 23.3639 19.8692 23.547C20.0004 23.9078 20.1234 24.3014 20.2546 24.7443C20.3285 25.0067 20.4023 25.2773 20.4679 25.5397C20.5745 25.9661 20.6893 26.4007 20.8287 26.8272C20.9267 27.1338 21.0889 27.4162 21.3043 27.6554C21.3923 27.7592 21.5015 27.8429 21.6245 27.9009C21.7476 27.9589 21.8817 27.9899 22.0177 27.9916C22.3622 27.9916 22.6738 27.7866 22.8542 27.434C22.9592 27.2192 23.0311 26.9897 23.0674 26.7534C23.256 25.7365 23.174 24.695 23.092 23.6946C22.9936 22.4399 23.2724 21.3657 23.9367 20.4144C24.2565 19.9552 24.5353 19.537 24.7895 19.1433C25.7408 17.6509 25.7818 15.3547 23.9859 14.0345C23.9534 13.9953 23.9359 13.9459 23.9367 13.895C23.9531 13.772 23.9777 13.649 24.0023 13.5342C24.0269 13.4194 24.0433 13.3046 24.0597 13.198C24.0761 13.0914 24.1007 13.075 24.1991 13.0586L25.0109 12.911L25.2323 12.87L25.6669 12.788L25.8556 12.747C25.8737 12.745 25.8904 12.7363 25.9025 12.7227C25.9146 12.709 25.9213 12.6914 25.9212 12.6732C25.922 12.6551 25.9168 12.6372 25.9064 12.6224C25.896 12.6076 25.881 12.5966 25.8638 12.5912ZM25.2159 12.788L24.1827 12.9766C24.0515 12.993 24.0023 13.0504 23.9777 13.1816C23.9531 13.3128 23.8874 13.649 23.8628 13.8868C23.8572 13.9257 23.861 13.9653 23.8739 14.0024C23.8867 14.0395 23.9082 14.073 23.9367 14.1001C25.6669 15.3793 25.6505 17.6345 24.7157 19.1023C24.4451 19.5288 24.1581 19.947 23.871 20.3652C23.1658 21.3739 22.9198 22.4891 23.01 23.7028C23.092 24.7197 23.174 25.7365 22.9854 26.7452C22.9471 26.9695 22.8781 27.1875 22.7804 27.393C22.4852 27.9834 21.8045 28.09 21.3699 27.598C21.1617 27.3674 21.0027 27.0967 20.9025 26.8026C20.6893 26.1219 20.5253 25.4167 20.3285 24.7197C20.2136 24.3178 20.0906 23.916 19.943 23.5224C19.8665 23.33 19.7615 23.1504 19.6314 22.9894C19.2706 22.5383 18.713 22.5219 18.3849 22.9976C18.155 23.329 17.9779 23.6942 17.8601 24.08C17.6469 24.7525 17.5075 25.4413 17.3189 26.1219C17.2337 26.4596 17.1184 26.7889 16.9745 27.106C16.8707 27.33 16.7229 27.5308 16.5398 27.6964C16.1052 28.0736 15.4902 27.9588 15.2606 27.434C15.0867 27.0545 14.9866 26.6454 14.9654 26.2285C14.9326 25.2773 14.9818 24.326 15.0146 23.3748C15.0474 22.4235 14.8341 21.4313 14.2765 20.5866C13.9485 20.0946 13.5795 19.619 13.2761 19.1105C12.5872 17.9871 12.415 16.7898 12.9234 15.5597C13.4975 14.1493 14.9079 13.362 16.466 13.485C17.3481 13.554 18.1979 13.8476 18.9344 14.3379C19.0328 14.4035 19.1148 14.4691 19.246 14.3707C20.5253 13.4358 21.9111 13.2062 23.4364 13.7802C23.3954 13.5424 23.3708 13.3292 23.3134 13.1242C23.2962 13.0901 23.2719 13.0601 23.2422 13.0361C23.2126 13.012 23.1781 12.9946 23.1412 12.9848L21.6405 12.706C21.5806 12.6953 21.5243 12.6699 21.4765 12.6322L23.0838 12.337C23.2396 12.3124 23.3134 12.255 23.338 12.0909C23.4282 11.5497 23.5348 11.0167 23.6742 10.4673L23.748 10.8199C23.8218 11.2381 23.9039 11.6563 23.9695 12.0827C23.9941 12.2386 24.0515 12.3124 24.2155 12.337C24.7619 12.4187 25.3038 12.5281 25.8392 12.665L25.2159 12.788Z" fill="#B9B9B9"/>
<path d="M24.7157 19.1024C24.4451 19.5288 24.1581 19.947 23.8711 20.3652C23.1658 21.3739 22.9198 22.4892 23.01 23.7028C23.092 24.7197 23.174 25.7365 22.9854 26.7452C22.9471 26.9695 22.8781 27.1875 22.7804 27.393C22.4852 27.9835 21.8046 28.0901 21.3699 27.598C21.1617 27.3674 21.0027 27.0967 20.9025 26.8026C20.6893 26.122 20.5253 25.4167 20.3285 24.7197C20.2137 24.3179 20.0907 23.916 19.9431 23.5224C19.8666 23.3301 19.7615 23.1504 19.6315 22.9894C19.2706 22.5384 18.713 22.522 18.385 22.9976C18.155 23.329 17.978 23.6942 17.8602 24.08C17.6469 24.7525 17.5075 25.4413 17.3189 26.122C17.2337 26.4596 17.1185 26.7889 16.9745 27.106C16.8708 27.33 16.723 27.5308 16.5399 27.6964C16.1053 28.0737 15.4902 27.9589 15.2606 27.434C15.0868 27.0545 14.9866 26.6454 14.9654 26.2286C14.9326 25.2773 14.9818 24.3261 15.0146 23.3748C15.0474 22.4235 14.8342 21.4313 14.2766 20.5866C13.9485 20.0946 13.5795 19.619 13.2761 19.1106C12.5873 17.9871 12.415 16.7898 12.9235 15.5598C13.4975 14.1493 14.908 13.362 16.4661 13.4851C17.3482 13.554 18.1979 13.8476 18.9344 14.3379C19.0328 14.4035 19.1148 14.4691 19.246 14.3707C20.5253 13.4358 21.9112 13.2062 23.4365 13.7803C23.3955 13.5425 23.3709 13.3292 23.3135 13.1242C23.2962 13.0902 23.272 13.0601 23.2423 13.0361C23.2126 13.0121 23.1782 12.9946 23.1412 12.9848L21.6406 12.706C21.5806 12.6953 21.5243 12.67 21.4766 12.6322L23.0838 12.337C23.2397 12.3124 23.3135 12.255 23.3381 12.091C23.4283 11.5497 23.5349 11.0167 23.6743 10.4673L23.7481 10.8199C23.8219 11.2381 23.9039 11.6564 23.9695 12.0828C23.9941 12.2386 24.0515 12.3124 24.2155 12.337C24.762 12.4187 25.3039 12.5282 25.8392 12.665L25.216 12.788L24.1827 12.9766C24.0515 12.993 24.0023 13.0504 23.9777 13.1816C23.9531 13.3128 23.8875 13.6491 23.8629 13.8869C23.8573 13.9257 23.8611 13.9653 23.8739 14.0024C23.8867 14.0395 23.9083 14.073 23.9367 14.1001C25.667 15.3794 25.6506 17.6345 24.7157 19.1024Z" fill="#B9B9B9"/>
<path d="M14.1371 25.7449C14.0177 25.7327 13.9069 25.6773 13.8255 25.5891L13.7763 25.5563C11.4064 23.6784 10.2583 21.2264 10.3567 18.2661C10.4274 16.2575 11.2092 14.3394 12.5626 12.8538C13.9147 11.3603 15.744 10.3833 17.7371 10.0902C18.1638 10.0316 18.5939 10.0015 19.0246 10C20.2556 10.0024 21.4719 10.2681 22.5918 10.779L22.7394 10.8528C22.7905 10.8725 22.8372 10.9023 22.8766 10.9403C22.9161 10.9783 22.9475 11.0239 22.969 11.0743C22.9812 11.1153 22.9846 11.1584 22.9789 11.2008C22.9733 11.2432 22.9587 11.2839 22.9362 11.3203C22.9148 11.372 22.8783 11.4161 22.8315 11.4468C22.7847 11.4775 22.7298 11.4934 22.6738 11.4925C22.603 11.4891 22.5334 11.4724 22.4688 11.4433L22.0178 11.2711C21.6209 11.1051 21.2126 10.968 20.7959 10.861C20.203 10.7138 19.5945 10.6395 18.9836 10.6396C15.1212 10.6396 11.7344 13.4934 11.1194 17.2656C11.062 17.5936 11.0374 17.9134 11.0046 18.2005C10.999 18.3048 10.988 18.4088 10.9718 18.5121C11.0538 21.2838 12.1034 23.4159 14.1699 25.0396C14.3667 25.1872 14.4569 25.3021 14.4651 25.4251C14.4672 25.4631 14.4609 25.5012 14.4468 25.5366C14.4326 25.572 14.4109 25.6039 14.3831 25.6301C14.3182 25.6975 14.2305 25.7385 14.1371 25.7449Z" fill="#B9B9B9"/>
<path d="M10.8897 18.5121C10.9717 21.3002 12.0214 23.4652 14.1207 25.1053C14.3831 25.3021 14.4487 25.4415 14.3175 25.5727C14.1863 25.7039 13.9731 25.6055 13.8255 25.4907C11.4966 23.6456 10.3403 21.2346 10.4387 18.2661C10.5699 14.1905 13.7025 10.7545 17.7453 10.1722C19.3792 9.927 21.0492 10.1635 22.5508 10.8529L22.7066 10.9267C22.8624 11.0005 22.9526 11.1071 22.8624 11.2793C22.7722 11.4515 22.6492 11.4187 22.4934 11.3695C21.9358 11.1645 21.3863 10.9185 20.8123 10.7791C16.3512 9.6966 11.7754 12.739 11.0373 17.2574C10.9635 17.7166 10.9307 18.1841 10.8897 18.5121Z" fill="#B9B9B9"/>
<path d="M23.8383 25.7451C23.7899 25.7439 23.7425 25.7313 23.6998 25.7086C23.6571 25.6858 23.6203 25.6534 23.5923 25.6139C23.4775 25.4499 23.5103 25.2777 23.6743 25.1465L23.8547 25.0071L24.2811 24.6545C27.4629 21.8089 27.9221 17.2576 25.38 13.8299L25.3554 13.7971C25.3343 13.7711 25.3151 13.7437 25.298 13.715C25.2594 13.6765 25.2293 13.6303 25.2095 13.5795C25.1898 13.5287 25.1808 13.4743 25.1831 13.4198C25.1895 13.3763 25.2053 13.3347 25.2294 13.2979C25.2535 13.2611 25.2853 13.2299 25.3226 13.2066C25.3769 13.1587 25.4469 13.1324 25.5194 13.1328C25.626 13.1328 25.7326 13.2066 25.8228 13.3296C25.913 13.4526 25.9622 13.551 26.036 13.6576C26.2362 13.9306 26.4196 14.2154 26.5854 14.5105C27.3153 15.8144 27.6433 17.192 27.6515 18.9797C27.5777 21.5547 26.405 23.8098 24.2565 25.5237L24.0679 25.6631C24.002 25.7141 23.9216 25.7428 23.8383 25.7451Z" fill="#B9B9B9"/>
<path d="M27.5695 18.9797C27.5039 21.448 26.3968 23.7195 24.2073 25.458L24.0187 25.5974C23.8875 25.6876 23.7563 25.6958 23.6578 25.5646C23.5594 25.4334 23.6004 25.3104 23.7235 25.212C23.8465 25.1136 24.1417 24.8922 24.3385 24.7118C27.5203 21.858 27.9959 17.2166 25.4455 13.7806L25.3553 13.6658C25.2487 13.5346 25.2159 13.3869 25.3717 13.2721C25.5276 13.1573 25.6588 13.2393 25.749 13.3787C26.0114 13.7642 26.2902 14.1414 26.5198 14.5514C27.225 15.8225 27.5613 17.2002 27.5695 18.9797Z" fill="#B9B9B9"/>
<path d="M18.9754 27.3276L17.7863 27.221C17.7322 27.2192 17.679 27.2066 17.6297 27.1841C17.5804 27.1616 17.5361 27.1295 17.4993 27.0898C17.4714 27.0575 17.451 27.0194 17.4397 26.9783C17.4283 26.9371 17.4263 26.894 17.4337 26.852C17.4501 26.7208 17.5157 26.5731 17.7617 26.5731H17.8683C18.2436 26.6222 18.6216 26.6469 19 26.6469C19.3815 26.6482 19.7625 26.6208 20.1399 26.5649H20.2301C20.4187 26.5649 20.5335 26.6551 20.5581 26.8274C20.5713 26.9163 20.5508 27.0069 20.5007 27.0816C20.4639 27.1213 20.4196 27.1534 20.3703 27.1759C20.321 27.1984 20.2678 27.2109 20.2137 27.2128L19.3198 27.2866L18.9918 27.3194H18.9754V27.3276Z" fill="#B9B9B9"/>
<path d="M18.9836 27.2455L17.7945 27.1389C17.6223 27.1225 17.4911 27.0487 17.5157 26.8601C17.5403 26.6715 17.6879 26.6387 17.8519 26.6633C18.6143 26.7631 19.3865 26.7603 20.1481 26.6551C20.3121 26.6387 20.4433 26.6633 20.4761 26.8519C20.5089 27.0405 20.3777 27.1225 20.2055 27.1389L18.9836 27.2455Z" fill="#B9B9B9"/>
<path d="M25.0683 12.0338C25.0491 12.0342 25.0304 12.0278 25.0155 12.0158C25.0005 12.0038 24.9902 11.987 24.9863 11.9682C24.9699 11.8944 24.9535 11.8288 24.9453 11.7714C24.9145 11.6525 24.8898 11.532 24.8715 11.4105C24.8633 11.3203 24.8305 11.2875 24.7321 11.2711L24.4123 11.2137L24.2647 11.1809C24.2509 11.1779 24.2378 11.172 24.2265 11.1635C24.2152 11.155 24.2058 11.1442 24.1991 11.1317C24.1956 11.1177 24.1953 11.1031 24.1981 11.0889C24.201 11.0747 24.2069 11.0614 24.2155 11.0497L24.2319 11.0251C24.25 11.0021 24.2723 10.9826 24.2975 10.9677L24.5025 10.9267C24.6419 10.9021 24.7813 10.8775 24.8469 10.8119C24.9125 10.7463 24.9289 10.6069 24.9453 10.4675C24.9523 10.4013 24.9632 10.3356 24.9781 10.2707C24.9863 10.2297 25.0109 10.2051 25.0437 10.2051H25.1175C25.1365 10.2066 25.1541 10.2154 25.1667 10.2297C25.1759 10.2364 25.1835 10.245 25.1892 10.2549C25.1948 10.2648 25.1984 10.2758 25.1995 10.2871C25.1831 10.5495 25.2323 10.7299 25.3307 10.8365C25.3797 10.88 25.4368 10.9133 25.4988 10.9344C25.5607 10.9555 25.6263 10.964 25.6916 10.9595L25.872 10.9431H25.8884C25.9012 10.9424 25.914 10.945 25.9255 10.9508C25.937 10.9565 25.9469 10.9652 25.954 10.9759C25.9612 10.9882 25.9657 11.0019 25.9671 11.016C25.9685 11.0302 25.9668 11.0445 25.9622 11.0579L25.9294 11.1399C25.9239 11.1518 25.916 11.1623 25.9061 11.1708C25.8962 11.1793 25.8845 11.1856 25.872 11.1891L25.749 11.2137C25.6523 11.2407 25.5535 11.2599 25.4538 11.2711C25.3143 11.2875 25.2651 11.3367 25.2569 11.4597C25.2462 11.571 25.2242 11.6809 25.1913 11.7878C25.1749 11.8452 25.1667 11.9108 25.1503 11.9764C25.1465 11.9952 25.1362 12.012 25.1212 12.024C25.1062 12.036 25.0875 12.0424 25.0683 12.042V12.0338Z" fill="#B9B9B9"/>
<path d="M25.1175 10.2788C25.0929 10.8036 25.2979 11.1071 25.8884 11.0168L25.8556 11.0989C25.7161 11.1235 25.5767 11.1645 25.4373 11.1809C25.2979 11.1973 25.1831 11.2711 25.1749 11.4433C25.1486 11.6146 25.113 11.7843 25.0683 11.9517C25.0208 11.7706 24.9825 11.5872 24.9535 11.4023C24.9535 11.3479 24.9319 11.2958 24.8935 11.2573C24.855 11.2189 24.8029 11.1973 24.7485 11.1973C24.5927 11.1727 24.4451 11.1317 24.2811 11.0989C24.3057 11.0661 24.3057 11.0497 24.3221 11.0497C24.5189 10.9922 24.7813 10.9922 24.9043 10.8692C25.0273 10.7462 25.0109 10.4838 25.0519 10.287L25.1175 10.2788Z" fill="#B9B9B9"/>
</g>
<defs>
<clipPath id="clip0_617_13209">
<rect width="17.303" height="18" fill="white" transform="translate(10.3485 10)"/>
</clipPath>
</defs>
</svg>
