<svg width="60" height="60" viewBox="0 0 60 60" fill="none" xmlns="http://www.w3.org/2000/svg">
<rect width="60" height="60" rx="30" fill="white"/>
<path d="M45.0306 16.6827C43.9974 16.4203 42.9313 16.1907 41.7668 16.0103C41.5208 15.9775 41.4552 15.8955 41.406 15.6495C41.3076 14.9934 41.1928 14.3538 41.078 13.7142C41.0288 13.5173 40.996 13.3205 40.9632 13.1073L40.8648 12.6153L40.8156 12.4021C40.8054 12.3658 40.7841 12.3337 40.7546 12.3102C40.7252 12.2866 40.6892 12.2729 40.6516 12.2709C40.614 12.2729 40.5779 12.2866 40.5485 12.3102C40.5191 12.3337 40.4978 12.3658 40.4876 12.4021C40.2105 13.4775 39.9915 14.567 39.8315 15.6659C39.7823 15.8955 39.7167 15.9775 39.4543 16.0103L37.1254 16.4367L36.2233 16.6007C36.1741 16.6007 36.1249 16.6499 36.0921 16.7155C36.0885 16.7448 36.0911 16.7745 36.0995 16.8027C36.108 16.8309 36.1222 16.8571 36.1413 16.8795C36.2636 16.9816 36.4107 17.0495 36.5677 17.0763L37.437 17.2403L39.5527 17.634C39.6 17.6445 39.6448 17.6644 39.6842 17.6926C39.7237 17.7208 39.757 17.7566 39.7823 17.798C39.8479 18.0768 39.8971 18.3884 39.9463 18.7C39.9598 18.7367 39.9654 18.7758 39.9627 18.8148C38.989 18.4651 37.9632 18.2821 36.9286 18.2736C35.1245 18.2736 33.3696 18.8804 31.6967 20.1105C31.6512 20.1507 31.5933 20.1739 31.5327 20.1761C31.4422 20.1594 31.3576 20.1199 31.2867 20.0613H31.2703C29.775 19.0567 28.047 18.4524 26.2516 18.3064H25.5791C22.5942 18.3064 20.0684 19.9301 18.986 22.5706C17.9035 25.2112 18.2479 27.4089 19.7076 29.8034C20.0684 30.4103 20.4785 30.9843 20.8721 31.5419C21.2657 32.0996 21.4461 32.3456 21.7249 32.772C22.7582 34.3465 23.2338 36.1342 23.1682 38.2335L23.119 39.2504C23.0698 40.7921 23.0206 42.3829 23.0698 43.9574C23.109 44.8146 23.3151 45.6558 23.6766 46.434C23.7988 46.7479 24.0129 47.0176 24.2909 47.2078C24.5689 47.398 24.8979 47.4999 25.2347 47.5C25.6955 47.4897 26.1375 47.3152 26.4812 47.008C26.8666 46.6701 27.1791 46.2571 27.3996 45.7943C27.6904 45.1483 27.9263 44.479 28.1049 43.7934C28.2525 43.2358 28.4001 42.6782 28.5313 42.1369C28.7281 41.3333 28.9249 40.4968 29.1873 39.7096C29.4122 38.9499 29.7554 38.2304 30.2042 37.5775C30.3208 37.3938 30.4801 37.2411 30.6687 37.1326C30.8572 37.024 31.0693 36.9628 31.2867 36.9542C31.5127 36.9643 31.7336 37.0256 31.9325 37.1336C32.1314 37.2416 32.3031 37.3934 32.4347 37.5775C32.6844 37.8858 32.8887 38.2282 33.0416 38.5943C33.304 39.316 33.55 40.1032 33.8124 40.9889C33.96 41.5137 34.1076 42.0549 34.2388 42.5798C34.452 43.4326 34.6816 44.3019 34.9605 45.1547C35.1566 45.768 35.4808 46.3327 35.9117 46.8112C36.0876 47.0188 36.306 47.1863 36.5522 47.3023C36.7983 47.4183 37.0665 47.4801 37.3386 47.4836C38.0274 47.4836 38.6507 47.0736 39.0115 46.3684C39.2215 45.9387 39.3653 45.4798 39.4379 45.0071C39.8151 42.9734 39.6511 40.8905 39.4871 38.8896C39.2903 36.3802 39.8479 34.2317 41.1764 32.3292C41.816 31.4107 42.3737 30.5743 42.8821 29.787C44.7846 26.8021 44.8666 22.2098 41.2748 19.5693C41.2098 19.4911 41.1749 19.3922 41.1764 19.2905C41.2092 19.0445 41.2584 18.7984 41.3076 18.5688C41.3568 18.3392 41.3896 18.1096 41.4224 17.8964C41.4552 17.6832 41.5044 17.6504 41.7012 17.6176L43.3249 17.3224L43.7677 17.2403L44.637 17.0763L45.0142 16.9943C45.0505 16.9903 45.0839 16.973 45.1081 16.9457C45.1324 16.9185 45.1456 16.8832 45.1454 16.8467C45.1471 16.8106 45.1367 16.7748 45.1159 16.7452C45.0952 16.7155 45.0652 16.6935 45.0306 16.6827ZM43.7349 17.0763L41.6684 17.4536C41.406 17.4864 41.3076 17.6012 41.2584 17.8636C41.2092 18.126 41.078 18.7984 41.0288 19.2741C41.0176 19.3518 41.0252 19.431 41.0508 19.5052C41.0765 19.5794 41.1196 19.6463 41.1764 19.7005C44.637 22.259 44.6042 26.7693 42.7345 29.705C42.1933 30.5579 41.6192 31.3943 41.0452 32.2308C39.6347 34.2481 39.1427 36.4786 39.3231 38.906C39.4871 40.9397 39.6511 42.9734 39.2739 44.9907C39.1972 45.4393 39.0592 45.8753 38.8639 46.2864C38.2734 47.4672 36.9122 47.6804 36.0429 46.6964C35.6265 46.2351 35.3084 45.6938 35.1081 45.1055C34.6816 43.7442 34.3536 42.3337 33.96 40.9397C33.7304 40.136 33.4844 39.3324 33.1892 38.5451C33.0362 38.1605 32.8261 37.8011 32.5659 37.4791C31.8443 36.577 30.729 36.5442 30.073 37.4955C29.6131 38.1584 29.259 38.8888 29.0233 39.6604C28.5969 41.0053 28.3181 42.3829 27.9409 43.7442C27.7705 44.4195 27.54 45.0782 27.252 45.7123C27.0446 46.1604 26.7489 46.562 26.3828 46.8932C25.5135 47.6476 24.2835 47.418 23.8242 46.3684C23.4766 45.6094 23.2762 44.7912 23.2338 43.9574C23.1682 42.0549 23.2666 40.1524 23.3322 38.2499C23.3978 36.3474 22.9714 34.3629 21.8561 32.6736C21.2001 31.6896 20.4621 30.7383 19.8552 29.7214C18.4775 27.4745 18.1331 25.08 19.15 22.6198C20.298 19.7989 23.119 18.2244 26.2352 18.4704C27.9994 18.6083 29.6989 19.1955 31.1718 20.1761C31.3687 20.3073 31.5327 20.4385 31.7951 20.2417C34.3536 18.372 37.1254 17.9128 40.1759 19.0609C40.0939 18.5852 40.0447 18.1588 39.9299 17.7488C39.8954 17.6806 39.8469 17.6206 39.7876 17.5725C39.7282 17.5245 39.6593 17.4895 39.5855 17.47L36.5841 16.9123C36.4643 16.8909 36.3516 16.8402 36.2561 16.7647L39.4707 16.1743C39.7823 16.1251 39.9299 16.0103 39.9791 15.6823C40.1595 14.5998 40.3728 13.5337 40.6516 12.4349L40.7992 13.1401C40.9468 13.9766 41.1108 14.813 41.242 15.6659C41.2912 15.9775 41.406 16.1251 41.734 16.1743C42.8269 16.3377 43.9108 16.5566 44.9814 16.8303L43.7349 17.0763Z" fill="#161616"/>
<path d="M42.7346 29.705C42.1933 30.5578 41.6193 31.3943 41.0453 32.2307C39.6348 34.248 39.1428 36.4786 39.3232 38.9059C39.4872 40.9396 39.6512 42.9733 39.274 44.9906C39.1973 45.4393 39.0593 45.8752 38.864 46.2863C38.2735 47.4672 36.9122 47.6804 36.043 46.6963C35.6266 46.235 35.3085 45.6937 35.1081 45.1054C34.6817 43.7442 34.3537 42.3337 33.9601 40.9396C33.7305 40.136 33.4845 39.3323 33.1892 38.5451C33.0363 38.1604 32.8262 37.801 32.566 37.479C31.8444 36.577 30.7291 36.5442 30.0731 37.4954C29.6132 38.1583 29.2591 38.8887 29.0234 39.6603C28.597 41.0052 28.3182 42.3829 27.9409 43.7442C27.7706 44.4194 27.54 45.0781 27.2521 45.7123C27.0447 46.1603 26.749 46.5619 26.3829 46.8931C25.5136 47.6476 24.2835 47.418 23.8243 46.3683C23.4766 45.6093 23.2763 44.7911 23.2339 43.9574C23.1683 42.0549 23.2667 40.1524 23.3323 38.2498C23.3979 36.3473 22.9715 34.3628 21.8562 32.6735C21.2002 31.6895 20.4621 30.7382 19.8553 29.7214C18.4776 27.4745 18.1332 25.0799 19.1501 22.6198C20.2981 19.7988 23.1191 18.2243 26.2352 18.4703C27.9994 18.6082 29.6989 19.1954 31.1719 20.176C31.3687 20.3073 31.5327 20.4385 31.7952 20.2416C34.3537 18.3719 37.1255 17.9127 40.176 19.0608C40.094 18.5852 40.0448 18.1587 39.93 17.7487C39.8955 17.6806 39.847 17.6205 39.7876 17.5724C39.7283 17.5244 39.6594 17.4894 39.5856 17.4699L36.5842 16.9123C36.4644 16.8909 36.3517 16.8402 36.2562 16.7647L39.4708 16.1742C39.7824 16.125 39.93 16.0102 39.9792 15.6822C40.1596 14.5997 40.3728 13.5337 40.6517 12.4348L40.7993 13.1401C40.9469 13.9765 41.1109 14.8129 41.2421 15.6658C41.2913 15.9774 41.4061 16.125 41.7341 16.1742C42.827 16.3376 43.9109 16.5566 44.9815 16.8303L43.735 17.0763L41.6685 17.4535C41.4061 17.4863 41.3077 17.6011 41.2585 17.8635C41.2093 18.1259 41.0781 18.7984 41.0289 19.274C41.0177 19.3517 41.0252 19.4309 41.0509 19.5051C41.0766 19.5793 41.1196 19.6463 41.1765 19.7004C44.6371 22.259 44.6043 26.7692 42.7346 29.705Z" fill="#161616"/>
<path d="M21.5774 42.9897C21.3386 42.9654 21.1169 42.8545 20.9541 42.6781L20.8557 42.6125C16.1159 38.8567 13.8197 33.9528 14.0165 28.0321C14.1579 24.0151 15.7214 20.1788 18.4284 17.2075C21.1325 14.2205 24.791 12.2666 28.7774 11.6804C29.6307 11.5632 30.4909 11.503 31.3523 11.5C33.8143 11.5049 36.2468 12.0361 38.4867 13.0581L38.7819 13.2057C38.8842 13.2451 38.9775 13.3046 39.0564 13.3806C39.1352 13.4567 39.1981 13.5478 39.2411 13.6485C39.2655 13.7305 39.2723 13.8168 39.2609 13.9015C39.2496 13.9863 39.2205 14.0678 39.1755 14.1405C39.1327 14.244 39.0598 14.3322 38.9662 14.3936C38.8726 14.4551 38.7627 14.4869 38.6507 14.485C38.5091 14.4781 38.37 14.4448 38.2407 14.3866L37.3386 14.0421C36.5449 13.7101 35.7282 13.4361 34.8949 13.2221C33.7092 12.9277 32.492 12.779 31.2703 12.7793C23.5455 12.7793 16.7719 18.4868 15.5418 26.0312C15.427 26.6872 15.3778 27.3269 15.3122 27.9009C15.3011 28.1096 15.2792 28.3177 15.2466 28.5241C15.4106 34.0677 17.5099 38.3319 21.643 41.5793C22.0366 41.8745 22.217 42.1041 22.2334 42.3501C22.2375 42.4263 22.2249 42.5024 22.1966 42.5732C22.1683 42.644 22.1249 42.7078 22.0694 42.7601C21.9396 42.8951 21.7642 42.9769 21.5774 42.9897Z" fill="#161616"/>
<path d="M15.0826 28.5242C15.2466 34.1005 17.3459 38.4303 21.5445 41.7105C22.0694 42.1041 22.2006 42.383 21.9382 42.6454C21.6757 42.9078 21.2493 42.711 20.9541 42.4814C16.2963 38.7912 13.9837 33.9693 14.1805 28.0322C14.4429 19.8809 20.7081 13.0089 28.7937 11.8445C32.0616 11.354 35.4016 11.8271 38.4047 13.2057L38.7163 13.3533C39.0279 13.5009 39.2083 13.7142 39.0279 14.0586C38.8475 14.403 38.6015 14.3374 38.2899 14.239C37.1746 13.829 36.0757 13.3369 34.9277 13.0581C26.0056 10.8932 16.8539 16.9779 15.3778 26.0148C15.2302 26.9333 15.1646 27.8681 15.0826 28.5242Z" fill="#161616"/>
<path d="M40.9796 42.9897C40.8829 42.9872 40.7881 42.9622 40.7026 42.9166C40.6172 42.8711 40.5436 42.8063 40.4876 42.7273C40.258 42.3993 40.3236 42.0549 40.6516 41.7925L41.0124 41.5137L41.8653 40.8084C48.2288 35.1173 49.1473 26.0148 44.063 19.1592L44.0138 19.0936C43.9717 19.0417 43.9333 18.9869 43.899 18.9296C43.8219 18.8525 43.7617 18.7601 43.7222 18.6585C43.6827 18.5569 43.6647 18.4481 43.6694 18.3392C43.6822 18.2521 43.7137 18.1689 43.7619 18.0953C43.81 18.0217 43.8736 17.9594 43.9482 17.9128C44.0569 17.8169 44.197 17.7644 44.3418 17.7651C44.555 17.7651 44.7683 17.9128 44.9487 18.1588C45.1291 18.4048 45.2275 18.6016 45.3751 18.8148C45.7754 19.3607 46.1424 19.9303 46.474 20.5205C47.9336 23.1282 48.5897 25.8836 48.6061 29.459C48.4585 34.6089 46.1131 39.1191 41.8161 42.5469L41.4389 42.8257C41.307 42.9276 41.1462 42.9851 40.9796 42.9897Z" fill="#161616"/>
<path d="M48.442 29.459C48.3108 34.3956 46.0967 38.9387 41.7177 42.4157L41.3404 42.6945C41.078 42.8749 40.8156 42.8913 40.6188 42.6289C40.422 42.3665 40.504 42.1205 40.75 41.9236C40.996 41.7268 41.5865 41.284 41.9801 40.9232C48.3436 35.2157 49.2949 25.9328 44.1942 19.0608L44.0138 18.8312C43.8006 18.5687 43.735 18.2735 44.0466 18.0439C44.3582 17.8143 44.6206 17.9783 44.801 18.2571C45.3259 19.028 45.8835 19.7824 46.3427 20.6025C47.7532 23.1446 48.4256 25.9 48.442 29.459Z" fill="#161616"/>
<path d="M31.2539 46.1552L28.8758 45.942C28.7675 45.9383 28.661 45.9132 28.5625 45.8682C28.464 45.8231 28.3753 45.759 28.3017 45.6795C28.2459 45.615 28.2051 45.5388 28.1824 45.4565C28.1597 45.3743 28.1557 45.288 28.1705 45.2039C28.2033 44.9415 28.3345 44.6463 28.8266 44.6463H29.0398C29.7902 44.7444 30.5462 44.7937 31.3031 44.7939C32.066 44.7964 32.8281 44.7416 33.5828 44.6299H33.7632C34.1404 44.6299 34.3701 44.8103 34.4193 45.1547C34.4457 45.3326 34.4047 45.5139 34.3045 45.6631C34.2309 45.7426 34.1422 45.8067 34.0437 45.8518C33.9452 45.8968 33.8387 45.9219 33.7304 45.9256L31.9427 46.0732L31.2867 46.1388H31.2539V46.1552Z" fill="#161616"/>
<path d="M31.2703 45.9911L28.8922 45.7779C28.5478 45.745 28.2854 45.5974 28.3346 45.2202C28.3838 44.843 28.679 44.7774 29.007 44.8266C30.5316 45.0262 32.0761 45.0207 33.5993 44.8102C33.9273 44.7774 34.1897 44.8266 34.2553 45.2038C34.3209 45.581 34.0585 45.745 33.7141 45.7779L31.2703 45.9911Z" fill="#161616"/>
<path d="M43.4398 15.5674C43.4014 15.5682 43.364 15.5555 43.334 15.5315C43.304 15.5076 43.2834 15.4738 43.2758 15.4362C43.243 15.2886 43.2102 15.1574 43.1938 15.0426C43.132 14.8048 43.0828 14.5639 43.0461 14.321C43.0297 14.1406 42.9641 14.075 42.7673 14.0422L42.1277 13.9273L41.8325 13.8617C41.8048 13.8557 41.7788 13.8438 41.7561 13.8269C41.7335 13.8099 41.7148 13.7882 41.7013 13.7633C41.6944 13.7353 41.6937 13.706 41.6994 13.6777C41.705 13.6493 41.7169 13.6226 41.7341 13.5993L41.7669 13.5501C41.8032 13.5041 41.8476 13.4652 41.8981 13.4353L42.3081 13.3533C42.5869 13.3041 42.8657 13.2549 42.9969 13.1237C43.1281 12.9925 43.1609 12.7137 43.1938 12.4349C43.2076 12.3024 43.2295 12.171 43.2594 12.0412C43.2758 11.9592 43.325 11.91 43.3906 11.91H43.5382C43.5761 11.9131 43.6113 11.9308 43.6366 11.9592C43.6549 11.9728 43.6702 11.99 43.6815 12.0097C43.6928 12.0295 43.6998 12.0514 43.7022 12.074C43.6694 12.5989 43.7678 12.9597 43.9646 13.1729C44.0625 13.2599 44.1767 13.3264 44.3006 13.3686C44.4245 13.4109 44.5556 13.428 44.6862 13.4189L45.0471 13.3861H45.0799C45.1055 13.3847 45.1312 13.39 45.1542 13.4015C45.1772 13.413 45.1968 13.4303 45.2111 13.4517C45.2255 13.4762 45.2344 13.5036 45.2373 13.5319C45.2401 13.5602 45.2367 13.5888 45.2275 13.6157L45.1619 13.7797C45.151 13.8035 45.1351 13.8246 45.1153 13.8415C45.0954 13.8585 45.0722 13.871 45.0471 13.8781L44.801 13.9273C44.6076 13.9813 44.4102 14.0197 44.2106 14.0422C43.9318 14.075 43.8334 14.1734 43.817 14.4194C43.7955 14.6419 43.7515 14.8617 43.6858 15.0754C43.653 15.1902 43.6366 15.3214 43.6038 15.4526C43.5961 15.4902 43.5755 15.524 43.5455 15.5479C43.5156 15.5719 43.4781 15.5846 43.4398 15.5838V15.5674Z" fill="#161616"/>
<path d="M43.5381 12.0576C43.4889 13.1073 43.8989 13.7141 45.0798 13.5337L45.0142 13.6977C44.7354 13.7469 44.4566 13.8289 44.1778 13.8617C43.8989 13.8945 43.6693 14.0421 43.6529 14.3865C43.6003 14.7291 43.5292 15.0686 43.4397 15.4034C43.3448 15.0412 43.2681 14.6745 43.2101 14.3045C43.2101 14.1958 43.1669 14.0915 43.09 14.0146C43.0131 13.9377 42.9088 13.8945 42.8001 13.8945C42.4885 13.8453 42.1933 13.7633 41.8652 13.6977C41.9144 13.6321 41.9144 13.5993 41.9472 13.5993C42.3409 13.4845 42.8657 13.4845 43.1117 13.2385C43.3577 12.9925 43.3249 12.4676 43.4069 12.074L43.5381 12.0576Z" fill="#161616"/>
</svg>
