<svg width="60" height="60" viewBox="0 0 60 60" fill="none" xmlns="http://www.w3.org/2000/svg">
<rect width="60" height="60" rx="30" fill="#353434"/>
<g clip-path="url(#clip0_617_7654)">
<path d="M45.0305 17.6827C43.9973 17.4203 42.9312 17.1907 41.7667 17.0103C41.5207 16.9775 41.4551 16.8955 41.4059 16.6495C41.3075 15.9934 41.1927 15.3538 41.0779 14.7142C41.0287 14.5173 40.9959 14.3205 40.9631 14.1073L40.8647 13.6153L40.8155 13.4021C40.8053 13.3658 40.784 13.3337 40.7545 13.3102C40.7251 13.2866 40.6891 13.2729 40.6515 13.2709C40.6139 13.2729 40.5778 13.2866 40.5484 13.3102C40.519 13.3337 40.4977 13.3658 40.4875 13.4021C40.2104 14.4775 39.9914 15.567 39.8314 16.6659C39.7822 16.8955 39.7166 16.9775 39.4542 17.0103L37.1253 17.4367L36.2232 17.6007C36.174 17.6007 36.1248 17.6499 36.092 17.7155C36.0884 17.7448 36.091 17.7745 36.0994 17.8027C36.1079 17.8309 36.1221 17.8571 36.1412 17.8795C36.2635 17.9816 36.4106 18.0495 36.5677 18.0763L37.4369 18.2403L39.5526 18.634C39.6 18.6445 39.6447 18.6644 39.6841 18.6926C39.7236 18.7208 39.7569 18.7566 39.7822 18.798C39.8478 19.0768 39.897 19.3884 39.9462 19.7C39.9597 19.7367 39.9653 19.7758 39.9626 19.8148C38.9889 19.4651 37.9631 19.2821 36.9285 19.2736C35.1244 19.2736 33.3695 19.8804 31.6966 21.1105C31.6511 21.1507 31.5932 21.1739 31.5326 21.1761C31.4422 21.1594 31.3575 21.1199 31.2866 21.0613H31.2702C29.7749 20.0567 28.0469 19.4524 26.2515 19.3064H25.579C22.5941 19.3064 20.0683 20.9301 18.9859 23.5706C17.9034 26.2112 18.2478 28.4089 19.7075 30.8034C20.0683 31.4103 20.4784 31.9843 20.872 32.5419C21.2656 33.0996 21.446 33.3456 21.7248 33.772C22.7581 35.3465 23.2337 37.1342 23.1681 39.2335L23.1189 40.2504C23.0697 41.7921 23.0205 43.3829 23.0697 44.9574C23.1089 45.8146 23.315 46.6558 23.6765 47.434C23.7987 47.7479 24.0128 48.0176 24.2908 48.2078C24.5688 48.398 24.8978 48.4999 25.2346 48.5C25.6955 48.4897 26.1375 48.3152 26.4811 48.008C26.8665 47.6701 27.179 47.2571 27.3995 46.7943C27.6903 46.1483 27.9262 45.479 28.1048 44.7934C28.2524 44.2358 28.4 43.6782 28.5312 43.1369C28.728 42.3333 28.9248 41.4968 29.1872 40.7096C29.4121 39.9499 29.7553 39.2304 30.2041 38.5775C30.3207 38.3938 30.4801 38.2411 30.6686 38.1326C30.8571 38.024 31.0692 37.9628 31.2866 37.9542C31.5127 37.9643 31.7335 38.0256 31.9324 38.1336C32.1313 38.2416 32.303 38.3934 32.4346 38.5775C32.6843 38.8858 32.8886 39.2282 33.0415 39.5943C33.3039 40.316 33.5499 41.1032 33.8123 41.9889C33.9599 42.5137 34.1075 43.0549 34.2387 43.5798C34.4519 44.4326 34.6816 45.3019 34.9604 46.1547C35.1565 46.768 35.4807 47.3327 35.9116 47.8112C36.0875 48.0188 36.3059 48.1863 36.5521 48.3023C36.7982 48.4183 37.0664 48.4801 37.3385 48.4836C38.0273 48.4836 38.6506 48.0736 39.0114 47.3684C39.2214 46.9387 39.3652 46.4798 39.4378 46.0071C39.815 43.9734 39.651 41.8905 39.487 39.8896C39.2902 37.3802 39.8478 35.2317 41.1763 33.3292C41.8159 32.4107 42.3736 31.5743 42.882 30.787C44.7845 27.8021 44.8665 23.2098 41.2747 20.5693C41.2097 20.4911 41.1748 20.3922 41.1763 20.2905C41.2091 20.0445 41.2583 19.7984 41.3075 19.5688C41.3567 19.3392 41.3895 19.1096 41.4223 18.8964C41.4551 18.6832 41.5043 18.6504 41.7011 18.6176L43.3248 18.3224L43.7677 18.2403L44.6369 18.0763L45.0141 17.9943C45.0504 17.9903 45.0838 17.973 45.1081 17.9457C45.1323 17.9185 45.1456 17.8832 45.1453 17.8467C45.147 17.8106 45.1366 17.7748 45.1159 17.7452C45.0951 17.7155 45.0651 17.6935 45.0305 17.6827ZM43.7349 18.0763L41.6683 18.4536C41.4059 18.4864 41.3075 18.6012 41.2583 18.8636C41.2091 19.126 41.0779 19.7984 41.0287 20.2741C41.0175 20.3518 41.0251 20.431 41.0507 20.5052C41.0764 20.5794 41.1195 20.6463 41.1763 20.7005C44.6369 23.259 44.6041 27.7693 42.7344 30.705C42.1932 31.5579 41.6191 32.3943 41.0451 33.2308C39.6346 35.2481 39.1426 37.4786 39.323 39.906C39.487 41.9397 39.651 43.9734 39.2738 45.9907C39.1971 46.4393 39.0591 46.8753 38.8638 47.2864C38.2734 48.4672 36.9121 48.6804 36.0428 47.6964C35.6264 47.2351 35.3083 46.6938 35.108 46.1055C34.6816 44.7442 34.3535 43.3337 33.9599 41.9397C33.7303 41.136 33.4843 40.3324 33.1891 39.5451C33.0361 39.1605 32.826 38.8011 32.5658 38.4791C31.8442 37.577 30.7289 37.5442 30.0729 38.4955C29.613 39.1584 29.2589 39.8888 29.0232 40.6604C28.5968 42.0053 28.318 43.3829 27.9408 44.7442C27.7704 45.4195 27.5399 46.0782 27.2519 46.7123C27.0445 47.1604 26.7488 47.562 26.3827 47.8932C25.5134 48.6476 24.2834 48.418 23.8241 47.3684C23.4765 46.6094 23.2761 45.7912 23.2337 44.9574C23.1681 43.0549 23.2665 41.1524 23.3321 39.2499C23.3977 37.3474 22.9713 35.3629 21.856 33.6736C21.2 32.6896 20.462 31.7383 19.8551 30.7214C18.4775 28.4745 18.133 26.08 19.1499 23.6198C20.298 20.7989 23.1189 19.2244 26.2351 19.4704C27.9993 19.6083 29.6988 20.1955 31.1718 21.1761C31.3686 21.3073 31.5326 21.4385 31.795 21.2417C34.3535 19.372 37.1253 18.9128 40.1759 20.0609C40.0939 19.5852 40.0446 19.1588 39.9298 18.7488C39.8954 18.6806 39.8468 18.6206 39.7875 18.5725C39.7281 18.5245 39.6593 18.4895 39.5854 18.47L36.5841 17.9123C36.4642 17.8909 36.3515 17.8402 36.256 17.7647L39.4706 17.1743C39.7822 17.1251 39.9298 17.0103 39.979 16.6823C40.1595 15.5998 40.3727 14.5337 40.6515 13.4349L40.7991 14.1401C40.9467 14.9766 41.1107 15.813 41.2419 16.6659C41.2911 16.9775 41.4059 17.1251 41.7339 17.1743C42.8268 17.3377 43.9107 17.5566 44.9813 17.8303L43.7349 18.0763Z" fill="white"/>
<path d="M42.7344 30.705C42.1932 31.5578 41.6191 32.3943 41.0451 33.2307C39.6346 35.248 39.1426 37.4786 39.323 39.9059C39.487 41.9396 39.651 43.9733 39.2738 45.9906C39.1971 46.4393 39.0591 46.8752 38.8638 47.2863C38.2734 48.4672 36.9121 48.6804 36.0428 47.6963C35.6264 47.235 35.3083 46.6937 35.108 46.1054C34.6816 44.7442 34.3535 43.3337 33.9599 41.9396C33.7303 41.136 33.4843 40.3323 33.1891 39.5451C33.0361 39.1604 32.826 38.801 32.5658 38.479C31.8442 37.577 30.7289 37.5442 30.0729 38.4954C29.613 39.1583 29.2589 39.8887 29.0232 40.6603C28.5968 42.0052 28.318 43.3829 27.9408 44.7442C27.7704 45.4194 27.5399 46.0781 27.2519 46.7123C27.0445 47.1603 26.7488 47.5619 26.3827 47.8931C25.5134 48.6476 24.2834 48.418 23.8241 47.3683C23.4765 46.6093 23.2761 45.7911 23.2337 44.9574C23.1681 43.0549 23.2665 41.1524 23.3321 39.2498C23.3977 37.3473 22.9713 35.3628 21.856 33.6735C21.2 32.6895 20.462 31.7382 19.8551 30.7214C18.4775 28.4745 18.133 26.0799 19.1499 23.6198C20.298 20.7988 23.1189 19.2243 26.2351 19.4703C27.9993 19.6082 29.6988 20.1954 31.1718 21.176C31.3686 21.3073 31.5326 21.4385 31.795 21.2416C34.3535 19.3719 37.1253 18.9127 40.1759 20.0608C40.0939 19.5852 40.0447 19.1587 39.9298 18.7487C39.8954 18.6806 39.8468 18.6205 39.7875 18.5724C39.7281 18.5244 39.6593 18.4894 39.5854 18.4699L36.5841 17.9123C36.4642 17.8909 36.3515 17.8402 36.256 17.7647L39.4706 17.1742C39.7822 17.125 39.9298 17.0102 39.979 16.6822C40.1595 15.5997 40.3727 14.5337 40.6515 13.4348L40.7991 14.1401C40.9467 14.9765 41.1107 15.8129 41.2419 16.6658C41.2911 16.9774 41.4059 17.125 41.7339 17.1742C42.8268 17.3376 43.9107 17.5566 44.9813 17.8303L43.7349 18.0763L41.6683 18.4535C41.4059 18.4863 41.3075 18.6011 41.2583 18.8635C41.2091 19.1259 41.0779 19.7984 41.0287 20.274C41.0175 20.3517 41.0251 20.4309 41.0507 20.5051C41.0764 20.5793 41.1195 20.6463 41.1763 20.7004C44.6369 23.259 44.6041 27.7692 42.7344 30.705Z" fill="white"/>
<path d="M21.5772 43.9897C21.3384 43.9654 21.1168 43.8545 20.954 43.6781L20.8556 43.6125C16.1157 39.8567 13.8196 34.9528 14.0164 29.0321C14.1577 25.0151 15.7213 21.1788 18.4282 18.2075C21.1324 15.2205 24.7909 13.2666 28.7772 12.6804C29.6306 12.5632 30.4908 12.503 31.3522 12.5C33.8142 12.5049 36.2467 13.0361 38.4866 14.0581L38.7818 14.2057C38.884 14.2451 38.9773 14.3046 39.0562 14.3806C39.1351 14.4567 39.1979 14.5478 39.241 14.6485C39.2654 14.7305 39.2721 14.8168 39.2608 14.9015C39.2495 14.9863 39.2204 15.0678 39.1754 15.1405C39.1326 15.244 39.0597 15.3322 38.9661 15.3936C38.8724 15.4551 38.7625 15.4869 38.6506 15.485C38.5089 15.4781 38.3699 15.4448 38.2405 15.3866L37.3385 15.0421C36.5448 14.7101 35.7281 14.4361 34.8948 14.2221C33.7091 13.9277 32.4919 13.779 31.2702 13.7793C23.5453 13.7793 16.7718 19.4868 15.5417 27.0312C15.4269 27.6872 15.3777 28.3269 15.3121 28.9009C15.3009 29.1096 15.279 29.3177 15.2465 29.5241C15.4105 35.0677 17.5098 39.3319 21.6428 42.5793C22.0364 42.8745 22.2169 43.1041 22.2333 43.3501C22.2374 43.4263 22.2248 43.5024 22.1965 43.5732C22.1682 43.644 22.1247 43.7078 22.0692 43.7601C21.9394 43.8951 21.764 43.9769 21.5772 43.9897Z" fill="white"/>
<path d="M15.0825 29.5242C15.2465 35.1005 17.3458 39.4303 21.5444 42.7105C22.0692 43.1041 22.2005 43.383 21.938 43.6454C21.6756 43.9078 21.2492 43.711 20.954 43.4814C16.2961 39.7912 13.9836 34.9693 14.1804 29.0322C14.4428 20.8809 20.708 14.0089 28.7936 12.8445C32.0615 12.354 35.4014 12.8271 38.4046 14.2057L38.7162 14.3533C39.0278 14.5009 39.2082 14.7142 39.0278 15.0586C38.8474 15.403 38.6014 15.3374 38.2897 15.239C37.1745 14.829 36.0756 14.3369 34.9276 14.0581C26.0055 11.8932 16.8538 17.9779 15.3777 27.0148C15.2301 27.9333 15.1645 28.8681 15.0825 29.5242Z" fill="white"/>
<path d="M40.9795 43.9897C40.8827 43.9872 40.7879 43.9622 40.7025 43.9166C40.6171 43.8711 40.5435 43.8063 40.4875 43.7273C40.2579 43.3993 40.3235 43.0549 40.6515 42.7925L41.0123 42.5137L41.8651 41.8084C48.2287 36.1173 49.1471 27.0148 44.0629 20.1592L44.0137 20.0936C43.9716 20.0417 43.9332 19.9869 43.8989 19.9296C43.8218 19.8525 43.7616 19.7601 43.722 19.6585C43.6825 19.5569 43.6645 19.4481 43.6692 19.3392C43.682 19.2521 43.7136 19.1689 43.7617 19.0953C43.8099 19.0217 43.8735 18.9594 43.9481 18.9128C44.0567 18.8169 44.1968 18.7644 44.3417 18.7651C44.5549 18.7651 44.7681 18.9128 44.9485 19.1588C45.1289 19.4048 45.2273 19.6016 45.3749 19.8148C45.7753 20.3607 46.1422 20.9303 46.4738 21.5205C47.9335 24.1282 48.5895 26.8836 48.6059 30.459C48.4583 35.6089 46.113 40.1191 41.8159 43.5469L41.4387 43.8257C41.3069 43.9276 41.1461 43.9851 40.9795 43.9897Z" fill="white"/>
<path d="M48.4419 30.459C48.3107 35.3956 46.0966 39.9387 41.7175 43.4157L41.3403 43.6945C41.0779 43.8749 40.8155 43.8913 40.6187 43.6289C40.4219 43.3665 40.5039 43.1205 40.7499 42.9236C40.9959 42.7268 41.5863 42.284 41.98 41.9232C48.3435 36.2157 49.2948 26.9328 44.1941 20.0608L44.0137 19.8312C43.8005 19.5687 43.7348 19.2735 44.0465 19.0439C44.3581 18.8143 44.6205 18.9783 44.8009 19.2571C45.3257 20.028 45.8834 20.7824 46.3426 21.6025C47.7531 24.1446 48.4255 26.9 48.4419 30.459Z" fill="white"/>
<path d="M31.2538 47.1552L28.8756 46.942C28.7674 46.9383 28.6609 46.9132 28.5624 46.8682C28.4638 46.8231 28.3752 46.759 28.3016 46.6795C28.2457 46.615 28.205 46.5388 28.1823 46.4565C28.1596 46.3743 28.1555 46.288 28.1704 46.2039C28.2032 45.9415 28.3344 45.6463 28.8264 45.6463H29.0396C29.7901 45.7444 30.5461 45.7937 31.303 45.7939C32.0659 45.7964 32.828 45.7416 33.5827 45.6299H33.7631C34.1403 45.6299 34.3699 45.8103 34.4191 46.1547C34.4456 46.3326 34.4046 46.5139 34.3043 46.6631C34.2307 46.7426 34.1421 46.8067 34.0436 46.8518C33.945 46.8968 33.8386 46.9219 33.7303 46.9256L31.9426 47.0732L31.2866 47.1388H31.2538V47.1552Z" fill="white"/>
<path d="M31.2702 46.9911L28.892 46.7779C28.5476 46.745 28.2852 46.5974 28.3344 46.2202C28.3836 45.843 28.6788 45.7774 29.0068 45.8266C30.5314 46.0262 32.0759 46.0207 33.5991 45.8102C33.9271 45.7774 34.1895 45.8266 34.2551 46.2038C34.3207 46.581 34.0583 46.745 33.7139 46.7779L31.2702 46.9911Z" fill="white"/>
<path d="M43.4396 16.5674C43.4013 16.5682 43.3638 16.5555 43.3339 16.5315C43.3039 16.5076 43.2833 16.4738 43.2756 16.4362C43.2428 16.2886 43.21 16.1574 43.1936 16.0426C43.1319 15.8048 43.0826 15.5639 43.046 15.321C43.0296 15.1406 42.964 15.075 42.7672 15.0422L42.1276 14.9273L41.8324 14.8617C41.8047 14.8557 41.7787 14.8438 41.756 14.8269C41.7334 14.8099 41.7147 14.7882 41.7011 14.7633C41.6942 14.7353 41.6936 14.706 41.6993 14.6777C41.7049 14.6493 41.7168 14.6226 41.7339 14.5993L41.7667 14.5501C41.803 14.5041 41.8475 14.4652 41.898 14.4353L42.308 14.3533C42.5868 14.3041 42.8656 14.2549 42.9968 14.1237C43.128 13.9925 43.1608 13.7137 43.1936 13.4349C43.2075 13.3024 43.2294 13.171 43.2592 13.0412C43.2756 12.9592 43.3248 12.91 43.3904 12.91H43.538C43.576 12.9131 43.6112 12.9308 43.6365 12.9592C43.6548 12.9728 43.67 12.99 43.6813 13.0097C43.6926 13.0295 43.6997 13.0514 43.7021 13.074C43.6693 13.5989 43.7677 13.9597 43.9645 14.1729C44.0623 14.2599 44.1766 14.3264 44.3005 14.3686C44.4244 14.4109 44.5555 14.428 44.6861 14.4189L45.0469 14.3861H45.0797C45.1054 14.3847 45.131 14.39 45.1541 14.4015C45.1771 14.413 45.1967 14.4303 45.2109 14.4517C45.2254 14.4762 45.2343 14.5036 45.2371 14.5319C45.24 14.5602 45.2366 14.5888 45.2273 14.6157L45.1617 14.7797C45.1509 14.8035 45.135 14.8246 45.1151 14.8415C45.0953 14.8585 45.072 14.871 45.0469 14.8781L44.8009 14.9273C44.6075 14.9813 44.41 15.0197 44.2105 15.0422C43.9317 15.075 43.8333 15.1734 43.8169 15.4194C43.7954 15.6419 43.7514 15.8617 43.6857 16.0754C43.6529 16.1902 43.6365 16.3214 43.6037 16.4526C43.596 16.4902 43.5754 16.524 43.5454 16.5479C43.5154 16.5719 43.478 16.5846 43.4396 16.5838V16.5674Z" fill="white"/>
<path d="M43.538 13.0576C43.4888 14.1073 43.8989 14.7141 45.0797 14.5337L45.0141 14.6977C44.7353 14.7469 44.4565 14.8289 44.1777 14.8617C43.8989 14.8945 43.6692 15.0421 43.6528 15.3865C43.6003 15.7291 43.5291 16.0686 43.4396 16.4034C43.3447 16.0412 43.268 15.6745 43.21 15.3045C43.21 15.1958 43.1668 15.0915 43.0899 15.0146C43.013 14.9377 42.9087 14.8945 42.8 14.8945C42.4884 14.8453 42.1932 14.7633 41.8651 14.6977C41.9143 14.6321 41.9143 14.5993 41.9471 14.5993C42.3408 14.4845 42.8656 14.4845 43.1116 14.2385C43.3576 13.9925 43.3248 13.4676 43.4068 13.074L43.538 13.0576Z" fill="white"/>
</g>
<defs>
<clipPath id="clip0_617_7654">
<rect width="34.6059" height="36" fill="white" transform="translate(14 12.5)"/>
</clipPath>
</defs>
</svg>
