<svg width="40" height="40" viewBox="0 0 40 40" fill="none" xmlns="http://www.w3.org/2000/svg">
<path d="M31.686 14.413C31.7023 15.8476 31.3931 17.4256 30.9212 18.9677C30.4101 20.5883 30.0982 22.2769 29.9937 23.9887C29.8937 25.9904 29.2087 27.9027 28.041 29.44C27.6733 29.956 27.1991 30.3679 26.6579 30.6414C25.7141 31.1077 24.9005 30.7311 24.5751 29.6552C24.3635 28.9738 24.3798 28.2744 24.4612 27.5571C24.5425 26.8399 24.6076 26.3557 24.5262 25.7639C24.4937 25.5129 24.4774 25.2439 24.2171 25.1543C23.9567 25.0646 23.794 25.2798 23.6475 25.4591C23.0455 26.2122 22.8177 27.1268 22.7526 28.0951C22.6875 29.0634 22.8177 29.978 22.9804 30.9104C23.088 31.3789 23.1319 31.8623 23.1106 32.345C23.0129 33.403 22.3132 34.0664 21.3532 33.9947C20.3931 33.923 19.2866 33.2954 18.5218 32.3988C16.7969 30.3725 15.902 27.9875 15.9671 25.1901C15.994 24.4585 15.9559 23.7258 15.8531 23.0024C15.7606 22.3806 15.5377 21.7912 15.2023 21.2809C14.0795 19.5953 13.0055 17.8918 12.2407 15.9731C11.7037 14.5923 11.2807 13.1578 11.4596 11.6336C11.899 8.06509 14.1608 5.66221 17.7245 6.03878C19.4018 6.24587 20.9978 6.94569 22.3458 8.06509C22.4215 8.14854 22.5208 8.2011 22.6273 8.21414C22.7337 8.22717 22.841 8.19991 22.9316 8.13682C23.9463 7.5706 25.052 7.22941 26.186 7.13263C28.6757 6.95331 30.4981 8.352 31.2629 10.988C31.5721 12.0281 31.686 13.104 31.686 14.413Z" fill="white"/>
<path d="M16.8061 32.4346C15.4344 32.2582 14.0985 31.8341 12.8519 31.1794C11.8105 30.6055 10.883 29.8883 10.1833 28.8482C8.84897 26.8757 8.76761 24.7418 9.61377 22.5182C10.1345 21.1375 10.9644 19.9898 11.9082 18.9139C12.0709 18.7346 12.1522 18.7884 12.2499 18.9856C12.8357 20.0616 13.5028 21.0837 14.17 22.1058C14.5443 22.6617 14.6419 23.3252 14.6744 23.9887C14.707 24.6521 14.6907 25.3336 14.707 26.015C14.7721 28.2385 15.4555 30.229 16.6271 32.0401C16.7211 32.149 16.7835 32.2864 16.8061 32.4346Z" fill="white"/>
<path d="M29.6016 29.5663C30.1516 28.5606 30.5835 27.482 30.8871 26.3565C31.1423 25.4003 31.2845 24.4119 31.3101 23.4156C31.3264 21.9631 31.7658 20.6003 32.1563 19.2375C32.5468 17.8746 32.8397 16.6194 32.9211 15.2387C32.9374 14.9159 33.0513 14.9697 33.2303 15.1131C35.8826 16.996 36.7125 20.2237 35.3619 23.3798C34.5809 25.2268 33.3442 26.6972 31.8959 27.9524C31.1828 28.5747 30.4141 29.1155 29.6016 29.5663Z" fill="white"/>
<path d="M9.68065 16.7081C8.80195 16.7081 8.23242 17.3357 8.21615 18.304V18.6627C8.19987 18.824 8.11851 18.9316 7.97206 18.9137C7.91596 18.9137 7.86215 18.8892 7.82248 18.8454C7.78281 18.8017 7.76052 18.7424 7.76052 18.6806C7.75238 18.5193 7.75238 18.3577 7.76052 18.1964C7.7584 17.9986 7.72094 17.8032 7.65028 17.6213C7.57961 17.4395 7.47714 17.2748 7.3487 17.1365C7.22026 16.9983 7.06837 16.8894 6.90172 16.8158C6.73506 16.7423 6.55689 16.7057 6.37739 16.7081H5.97058C5.93924 16.7082 5.90823 16.7011 5.87947 16.6874C5.85072 16.6737 5.82484 16.6536 5.80346 16.6283C5.78207 16.6031 5.76565 16.5732 5.75521 16.5407C5.74476 16.5081 5.74053 16.4735 5.74277 16.4391C5.74262 16.3755 5.76438 16.3142 5.80364 16.2676C5.84291 16.221 5.89675 16.1926 5.95431 16.1881H6.29603C7.191 16.1881 7.74425 15.5784 7.76052 14.5742V14.3411C7.76052 14.1617 7.7768 13.9824 8.00461 13.9824C8.23242 13.9824 8.21615 14.1617 8.21615 14.3231V14.7714C8.23288 15.1536 8.38253 15.514 8.63402 15.7778C8.88552 16.0416 9.21954 16.1885 9.56674 16.1881H9.92473C10.0875 16.1881 10.2339 16.2598 10.2176 16.457C10.2014 16.6543 10.0875 16.7081 9.941 16.7081H9.68065Z" fill="white"/>
<path d="M5.56309 13.4616C5.52977 13.4577 5.49868 13.4413 5.47499 13.4152C5.4513 13.3891 5.43645 13.3548 5.43291 13.3181C5.41948 13.2474 5.41401 13.1751 5.41664 13.1029C5.40037 12.296 5.05865 11.9194 4.34267 11.9015C4.21249 11.9015 4.01723 11.9553 4.00095 11.7401C3.98468 11.5249 4.17995 11.5429 4.3264 11.5249C5.07492 11.4891 5.38409 11.1304 5.41664 10.2697C5.43291 10.1442 5.40037 9.96484 5.57936 9.96484C5.75835 9.96484 5.75835 10.1442 5.75835 10.2876C5.7909 11.1663 6.0838 11.4711 6.89741 11.5249C7.01132 11.5429 7.17404 11.5249 7.17404 11.7222C7.17404 11.9194 7.01132 11.9015 6.89741 11.9015C6.05125 11.9553 5.83972 12.2063 5.75835 13.1747C5.74208 13.3181 5.72581 13.4436 5.56309 13.4616Z" fill="white"/>
</svg>
