<svg width="24" height="24" viewBox="0 0 24 24" fill="none" xmlns="http://www.w3.org/2000/svg">
<path d="M17.3439 5.46391C17.1066 5.46391 16.8746 5.53429 16.6772 5.66614C16.4799 5.798 16.3261 5.98541 16.2353 6.20469C16.1444 6.42396 16.1207 6.66524 16.167 6.89801C16.2133 7.13079 16.3276 7.34461 16.4954 7.51243C16.6632 7.68026 16.877 7.79455 17.1098 7.84085C17.3426 7.88715 17.5839 7.86339 17.8031 7.77256C18.0224 7.68174 18.2098 7.52793 18.3417 7.33059C18.4735 7.13325 18.5439 6.90124 18.5439 6.66391C18.5439 6.34565 18.4175 6.04042 18.1924 5.81538C17.9674 5.59033 17.6622 5.46391 17.3439 5.46391ZM21.9439 7.88391C21.9245 7.0542 21.7691 6.23331 21.4839 5.45391C21.2296 4.78704 20.8339 4.18318 20.3239 3.68391C19.8287 3.17133 19.2235 2.77808 18.5539 2.53391C17.7766 2.24007 16.9548 2.08112 16.1239 2.06391C15.0639 2.00391 14.7239 2.00391 12.0039 2.00391C9.28391 2.00391 8.94391 2.00391 7.88391 2.06391C7.05306 2.08112 6.23125 2.24007 5.45391 2.53391C4.78558 2.78055 4.18084 3.17347 3.68391 3.68391C3.17133 4.17908 2.77808 4.78435 2.53391 5.45391C2.24007 6.23125 2.08112 7.05306 2.06391 7.88391C2.00391 8.94391 2.00391 9.28391 2.00391 12.0039C2.00391 14.7239 2.00391 15.0639 2.06391 16.1239C2.08112 16.9548 2.24007 17.7766 2.53391 18.5539C2.77808 19.2235 3.17133 19.8287 3.68391 20.3239C4.18084 20.8343 4.78558 21.2273 5.45391 21.4739C6.23125 21.7677 7.05306 21.9267 7.88391 21.9439C8.94391 22.0039 9.28391 22.0039 12.0039 22.0039C14.7239 22.0039 15.0639 22.0039 16.1239 21.9439C16.9548 21.9267 17.7766 21.7677 18.5539 21.4739C19.2235 21.2297 19.8287 20.8365 20.3239 20.3239C20.8361 19.8265 21.2322 19.2221 21.4839 18.5539C21.7691 17.7745 21.9245 16.9536 21.9439 16.1239C21.9439 15.0639 22.0039 14.7239 22.0039 12.0039C22.0039 9.28391 22.0039 8.94391 21.9439 7.88391ZM20.1439 16.0039C20.1366 16.6387 20.0217 17.2676 19.8039 17.8639C19.6442 18.2991 19.3878 18.6923 19.0539 19.0139C18.7296 19.3444 18.3371 19.6003 17.9039 19.7639C17.3076 19.9817 16.6787 20.0966 16.0439 20.1039C15.0439 20.1539 14.6739 20.1639 12.0439 20.1639C9.41391 20.1639 9.04391 20.1639 8.04391 20.1039C7.3848 20.1162 6.7285 20.0148 6.10391 19.8039C5.68969 19.632 5.31526 19.3767 5.00391 19.0539C4.67199 18.7327 4.41875 18.3391 4.26391 17.9039C4.01976 17.2991 3.88435 16.6558 3.86391 16.0039C3.86391 15.0039 3.80391 14.6339 3.80391 12.0039C3.80391 9.37391 3.80391 9.00391 3.86391 8.00391C3.86839 7.35496 3.98686 6.71185 4.21391 6.10391C4.38995 5.68182 4.66017 5.30556 5.00391 5.00391C5.30772 4.66007 5.68319 4.387 6.10391 4.20391C6.71346 3.98395 7.3559 3.86899 8.00391 3.86391C9.00391 3.86391 9.37391 3.80391 12.0039 3.80391C14.6339 3.80391 15.0039 3.80391 16.0039 3.86391C16.6387 3.87119 17.2676 3.98615 17.8639 4.20391C18.3183 4.37256 18.7262 4.64675 19.0539 5.00391C19.3816 5.31108 19.6377 5.68664 19.8039 6.10391C20.0262 6.71284 20.1412 7.35569 20.1439 8.00391C20.1939 9.00391 20.2039 9.37391 20.2039 12.0039C20.2039 14.6339 20.1939 15.0039 20.1439 16.0039ZM12.0039 6.87391C10.9897 6.87588 9.99887 7.17843 9.15656 7.74332C8.31425 8.30822 7.65828 9.1101 7.27154 10.0477C6.8848 10.9852 6.78463 12.0164 6.9837 13.0108C7.18277 14.0053 7.67214 14.9184 8.38998 15.6349C9.10782 16.3513 10.0219 16.8389 11.0168 17.0361C12.0116 17.2332 13.0426 17.131 13.9794 16.7424C14.9162 16.3539 15.7168 15.6963 16.28 14.8529C16.8433 14.0095 17.1439 13.0181 17.1439 12.0039C17.1452 11.329 17.0131 10.6605 16.7551 10.0369C16.4972 9.41321 16.1185 8.84672 15.6408 8.36996C15.1631 7.8932 14.5959 7.51558 13.9717 7.25884C13.3476 7.00209 12.6788 6.87127 12.0039 6.87391ZM12.0039 15.3339C11.3453 15.3339 10.7015 15.1386 10.1539 14.7727C9.60624 14.4068 9.17943 13.8867 8.92739 13.2782C8.67535 12.6698 8.6094 12.0002 8.73789 11.3543C8.86638 10.7083 9.18353 10.1149 9.64924 9.64924C10.1149 9.18353 10.7083 8.86638 11.3543 8.73789C12.0002 8.6094 12.6698 8.67535 13.2782 8.92739C13.8867 9.17943 14.4068 9.60624 14.7727 10.1539C15.1386 10.7015 15.3339 11.3453 15.3339 12.0039C15.3339 12.4412 15.2478 12.8742 15.0804 13.2782C14.9131 13.6823 14.6678 14.0494 14.3586 14.3586C14.0494 14.6678 13.6823 14.9131 13.2782 15.0804C12.8742 15.2478 12.4412 15.3339 12.0039 15.3339Z" fill="white"/>
</svg>
