<svg width="60" height="60" viewBox="0 0 60 60" fill="none" xmlns="http://www.w3.org/2000/svg">
<rect width="60" height="60" rx="30" fill="white"/>
<path d="M36.9564 27.7297L36.8949 27.8374L32.6781 25.2981L30.816 24.1901C30.397 23.9401 29.9187 23.8072 29.4309 23.8053C29.079 23.8038 28.7304 23.8724 28.4054 24.0071C28.0804 24.1419 27.7855 24.3401 27.5379 24.5902L27.5072 24.621C27.1976 24.9232 26.9521 25.2848 26.7855 25.6841C26.6189 26.0834 26.5346 26.5122 26.5376 26.9448C26.5422 27.3081 26.6241 27.6662 26.778 27.9953C26.932 28.3243 27.1543 28.6168 27.4302 28.8531L33.4476 33.8702C33.423 33.9407 33.4024 34.0127 33.386 34.0856V34.1164C33.2505 34.544 33.1476 34.9813 33.0782 35.4245C32.9705 36.2556 32.9243 37.102 32.8782 37.9484C32.8166 39.2719 32.555 40.5339 31.8317 41.6727C31.3238 42.4576 30.6774 43.0578 29.7233 43.1963C28.4305 43.381 27.4302 42.9039 26.7069 41.8266C25.9836 40.7493 25.7989 39.8106 25.5065 38.7333C25.2141 37.656 24.9833 36.8096 24.6755 35.8554C24.5473 35.4556 24.3606 35.077 24.1214 34.732C23.3673 33.6547 22.0284 33.6393 21.3051 34.732C20.945 35.336 20.6607 35.9821 20.4587 36.6557C20.0278 37.9638 19.6892 39.3181 19.2891 40.6416C19.1367 41.0667 18.9298 41.4702 18.6735 41.842C17.4577 43.6734 15.0569 43.7349 13.7642 41.9651C12.9639 40.8878 12.6561 39.6413 12.5484 38.3332C12.4715 37.3482 12.4407 36.3479 12.3176 35.3783C12.1329 34.101 11.5635 32.9468 10.9017 31.8541C10.24 30.7614 9.7321 30.0689 9.19346 29.1455C8.42398 27.8682 7.71605 26.5447 7.54677 25.0365C7.46982 24.2362 7.51599 23.436 7.51599 22.6357C7.50336 22.6013 7.49812 22.5646 7.5006 22.528C7.53138 21.7277 7.60833 21.1737 8.34703 19.9579H8.36242L8.42398 19.8348C9.67054 17.4955 11.5943 16.0027 14.2721 15.6642C16.2419 15.4026 18.0271 15.9566 19.6584 17.0339C20.5841 17.6347 21.4185 18.3655 22.1362 19.2038C22.2673 19.3738 22.3759 19.56 22.4594 19.7578C22.4594 19.7578 23.1981 19.0191 24.4754 17.988C24.8274 17.6792 25.1974 17.3914 25.5835 17.1262L26.0605 16.8338C27.3226 16.0482 28.7754 15.6225 30.2619 15.6026L31.0776 15.6488L31.647 15.7565C32.0855 15.8824 32.517 16.0314 32.9397 16.2028C34.2325 16.7107 35.5406 17.4648 36.3562 18.5882C36.5889 18.9095 36.7753 19.2617 36.9103 19.6347C37.1411 20.2349 37.4181 20.8197 37.6028 21.4199C38.2492 23.5899 38.0029 25.7136 36.9564 27.7297Z" fill="#161616"/>
<path d="M50.8535 38.6563C50.5077 37.8136 49.8974 37.106 49.1145 36.6403L32.032 26.3908L30.1698 25.2827C29.8995 25.1163 29.5811 25.0455 29.2657 25.0818C28.9503 25.1181 28.6563 25.2593 28.4308 25.4828L28.4 25.5136C28.2104 25.7006 28.0597 25.9234 27.9567 26.1691C27.8536 26.4148 27.8003 26.6784 27.7998 26.9448C27.8023 27.1242 27.8434 27.3009 27.9204 27.4629C27.9975 27.6249 28.1085 27.7684 28.2461 27.8836L31.3702 30.4844L44.6823 41.5804L45.621 44.4736H52.5002L50.8535 38.6563Z" fill="#161616"/>
</svg>
