<svg width="38" height="38" viewBox="0 0 38 38" fill="none" xmlns="http://www.w3.org/2000/svg">
<rect x="-0.40625" y="0.40625" width="37.1875" height="37.1875" rx="18.5938" transform="matrix(-1 0 0 1 37.1875 0)" fill="white"/>
<rect x="-0.40625" y="0.40625" width="37.1875" height="37.1875" rx="18.5938" transform="matrix(-1 0 0 1 37.1875 0)" stroke="#5C5C5C" stroke-width="0.8125"/>
<g clip-path="url(#clip0_116_4479)">
<g clip-path="url(#clip1_116_4479)">
<path d="M20.2514 21.1574C20.4916 21.2226 20.7486 21.2226 20.9944 21.2298H21.0894C21.6928 21.2298 22.19 20.7013 22.3185 19.9193C22.3911 19.4776 22.3911 19.0142 22.3855 18.5726C22.3855 18.4205 22.3799 18.254 22.3855 18.0947C22.3855 18.073 22.3799 18.0585 22.3799 18.044L22.2626 17.682C22.1788 17.4141 22.0894 17.1317 22.0168 16.8566C21.9777 16.7335 21.9386 16.6973 21.8436 16.6973H20.0782C19.5699 16.7117 19.2123 17.1824 19.2123 17.8485C19.2049 18.394 19.2049 18.9298 19.2123 19.4559C19.2123 20.2596 19.6592 20.9909 20.2514 21.1574Z" fill="#161616"/>
<path d="M23.1732 17.0231C23.1728 17.0465 23.167 17.0692 23.1564 17.0883C23.1564 17.0955 23.1788 17.0303 23.1508 17.1172C23.1229 17.2041 23.095 17.2982 23.0615 17.3924C22.9896 17.585 22.9388 17.7897 22.9106 18.0006C22.8724 18.5481 22.8817 19.0994 22.9386 19.6442C23.0335 20.4551 23.4022 20.9837 24 21.1719C24.1558 21.2166 24.3153 21.2361 24.4749 21.2298H24.7207C25.4525 21.2298 26.0224 20.5999 26.1397 19.6731C26.164 19.4306 26.1771 19.1864 26.1788 18.9418C26.1844 18.8405 26.2011 18.6377 26.19 18.6377C26.1788 18.6377 26.1732 18.6233 26.1732 18.6088V18.3336C26.1732 18.1454 26.1788 17.9426 26.1676 17.7399C26.1618 17.462 26.0729 17.1979 25.9197 17.0033C25.7664 16.8088 25.5609 16.699 25.3464 16.6973H23.4972C23.2849 16.6973 23.1955 16.7914 23.1732 17.0231Z" fill="#161616"/>
<path d="M16.0447 16.8784L16.6425 17.1753L16.7933 17.2477C16.9441 17.3201 17.0168 17.436 17.0168 17.617C17.0168 17.798 16.9385 17.9283 16.7933 18.0007L16.5642 18.1021L16.0447 18.3555C16.0009 18.3831 15.9655 18.429 15.9441 18.4858L15.8268 18.8913C15.7877 19.0216 15.7486 19.1592 15.7039 19.2895C15.6313 19.5357 15.5531 19.8181 15.6145 20.1222C15.7207 20.658 16 21.0128 16.419 21.1504C16.6536 21.2228 16.9106 21.2228 17.1564 21.23H17.2402C17.9441 21.23 18.5307 20.5784 18.6145 19.7167C18.671 19.0482 18.6784 18.3742 18.6369 17.7039C18.6199 17.4414 18.527 17.197 18.3767 17.0197C18.2265 16.8424 18.03 16.7454 17.8268 16.7481H15.9385V16.7698L15.9609 16.7988C15.9839 16.8331 16.0125 16.8603 16.0447 16.8784Z" fill="#161616"/>
<path d="M22.1118 15.264C22.2011 15.6043 22.3017 15.9519 22.3967 16.2849L22.4525 16.466C22.4916 16.6108 22.5363 16.7483 22.581 16.9004L22.6201 17.038C22.6257 17.0235 22.6313 17.0162 22.6313 17.0018L22.7486 16.6035L23.1173 15.2857C23.1394 15.2009 23.176 15.1236 23.2244 15.0596C23.2727 14.9957 23.3316 14.9467 23.3967 14.9165C23.5419 14.8586 23.6872 14.7861 23.8268 14.7137L23.9721 14.6486L24.5531 14.3662L24.771 14.2576L24.7263 14.2286L24.4134 14.0838C24.1397 13.9535 23.8157 13.8014 23.5866 13.7073C23.3576 13.6132 23.1173 13.4611 23.0615 13.0339C23.0563 12.9906 23.0449 12.9488 23.028 12.9108L23.0056 12.8457L22.6201 11.4917L22.581 11.6075L22.4916 11.9189L22.1062 13.2801C22.0875 13.3534 22.0561 13.4202 22.0145 13.4754C21.9729 13.5307 21.9221 13.5728 21.8659 13.5987L20.7486 14.1273L20.5419 14.2359L20.4805 14.2648H20.5028L20.6257 14.33L20.8995 14.4603L21.8548 14.9237C21.9149 14.9509 21.9695 14.9958 22.014 15.0548C22.0586 15.1139 22.0921 15.1855 22.1118 15.264Z" fill="#161616"/>
<path d="M27.2011 21.1216C27.2011 21.0606 27.1954 20.9999 27.1844 20.9406C27.1229 20.5568 26.9888 20.412 26.6872 20.412H26.5754C26.5252 20.412 26.4916 20.4482 26.4525 20.5351C26.2242 21.1223 25.8269 21.5696 25.3464 21.7805C25.1058 21.8755 24.8546 21.9172 24.6034 21.9036H24.3408C23.6481 21.8891 23.095 21.4981 22.7095 20.7306C22.6979 20.7012 22.6828 20.6743 22.6648 20.651C22.419 21.2302 22.0838 21.5995 21.6369 21.7877C21.4104 21.8752 21.1748 21.9167 20.9386 21.9108L20.5754 21.8963H20.5252C20.0772 21.8872 19.6484 21.6597 19.324 21.2592C19.2176 21.1163 19.1169 20.9665 19.0224 20.8103L18.9106 20.6365L18.8939 20.6654C18.5252 21.4329 18 21.8529 17.3464 21.8963C17.2179 21.9108 17.0782 21.9181 16.9386 21.9181C16.714 21.9253 16.4899 21.8886 16.2738 21.8094C15.8693 21.655 15.5207 21.3187 15.2905 20.8609L15.2291 20.9478L15.0559 21.1795C14.6481 21.6791 14.1397 21.9253 13.5028 21.9253C13.2932 21.9252 13.084 21.9034 12.8771 21.8601C12.2905 21.7515 11.8268 21.3026 11.4972 20.5206C11.4852 20.4835 11.466 20.4511 11.4414 20.4265C11.385 20.4062 11.3267 20.3965 11.2682 20.3975C11.0559 20.3975 10.905 20.5641 10.838 20.8609C10.8159 20.9746 10.8046 21.0913 10.8045 21.2085C10.7989 22.1425 10.7989 22.9317 10.8045 23.721C10.8055 23.9322 10.8205 24.1429 10.8492 24.3509C10.9565 25.0947 11.262 25.766 11.7123 26.2477C12.1625 26.7294 12.729 26.9909 13.3129 26.9864H24.5307C24.7958 26.9937 25.0605 26.9572 25.3184 26.8778C25.8337 26.706 26.2932 26.3253 26.6298 25.7913C26.9665 25.2573 27.1627 24.5979 27.19 23.9092C27.2123 23.2576 27.2067 22.5987 27.2011 21.9615V21.1216Z" fill="#161616"/>
<path d="M14.7486 17.6604C14.8212 17.6966 14.8995 17.7401 14.9777 17.769C15.0448 17.7918 15.1061 17.8374 15.1552 17.901C15.2043 17.9646 15.2394 18.044 15.257 18.1311L15.3464 18.4496L15.3743 18.5365C15.3799 18.5076 15.3631 18.5583 15.3967 18.4496C15.4302 18.341 15.4581 18.2469 15.4805 18.1528C15.4974 18.0606 15.5334 17.9762 15.5846 17.9086C15.6358 17.841 15.7002 17.7928 15.771 17.769L16.0112 17.6532L16.0782 17.617L16.0112 17.5808L15.771 17.4722C15.7002 17.4484 15.6358 17.4002 15.5846 17.3326C15.5334 17.265 15.4974 17.1806 15.4805 17.0884L15.3911 16.7843L15.3743 16.7119C15.3626 16.742 15.3532 16.7735 15.3464 16.806C15.319 16.9348 15.2796 17.0588 15.2291 17.1753C15.1789 17.2884 15.1054 17.3812 15.0168 17.4432C14.9347 17.4995 14.8486 17.5456 14.7598 17.5808L14.6704 17.6242L14.7486 17.6604Z" fill="#161616"/>
<path d="M27.9944 21.3677V21.1215C27.9944 20.4843 27.7709 19.934 27.3408 19.543H27.3296C27.2259 19.4563 27.1065 19.4063 26.9832 19.3982H26.9777V19.1014C26.9721 18.9566 26.9721 18.8117 26.9721 18.6597C26.9721 18.2904 26.9721 17.9067 26.9497 17.5229C26.8715 16.531 26.1899 15.7128 25.4246 15.6911H24.1006L25.2402 15.1553L25.4637 15.0611C25.8547 14.8729 25.9106 14.4891 25.9106 14.2792C25.9106 14.0692 25.8324 13.7072 25.4693 13.5189L25.2011 13.3958L23.8212 12.7369C23.7486 12.469 23.6704 12.2011 23.5978 11.9477L23.4134 11.3033C23.3464 11.0716 23.2793 10.8399 23.2179 10.6154C23.1173 10.2172 22.8994 10 22.6201 10C22.4637 10 22.1788 10.0724 22.0279 10.5648L22 10.6734L21.8324 11.2599C21.6927 11.7377 21.5531 12.2301 21.419 12.7152L19.7486 13.5117C19.4134 13.671 19.2514 14.0981 19.3631 14.5253C19.3897 14.6483 19.441 14.7599 19.5116 14.8489C19.5822 14.938 19.6698 15.0012 19.7654 15.0322L19.8045 15.0467L21.1061 15.6693H20.0223C19.6865 15.6698 19.3602 15.815 19.095 16.0821C19.0348 16.1409 18.9769 16.2037 18.9218 16.2703C18.6369 15.9091 18.2533 15.7086 17.8547 15.7128H15.9441C15.9338 15.6869 15.9244 15.6603 15.9162 15.6331C15.8212 15.3146 15.6257 15.1263 15.3743 15.1263C15.2509 15.1278 15.1311 15.1797 15.0318 15.2746C14.9325 15.3695 14.8588 15.5026 14.8212 15.6549L14.7877 15.7924C14.6463 15.7324 14.5001 15.6935 14.352 15.6766H14.3408L13.5419 15.6621H12.6257C12.2628 15.6616 11.9102 15.819 11.6245 16.1092C11.3389 16.3993 11.1366 16.8054 11.0503 17.2623C11.0157 17.4744 10.9952 17.69 10.9888 17.9067V19.4055H10.8939C10.8023 19.4121 10.7145 19.4551 10.6425 19.5286L10.6313 19.543L10.514 19.6879C10.3938 19.8284 10.2885 19.9891 10.2011 20.1657C10.0838 20.4119 10.0056 20.8536 10 21.1432V23.6412C10 24.8142 10.3017 25.8206 10.8994 26.6388C11.4972 27.457 12.2626 27.9421 13.0894 27.9783C13.4078 27.9928 13.7654 28 14.1788 28H24.4246C24.8324 28 25.3073 27.9855 25.7765 27.7683C27.0447 27.218 27.9777 25.5744 27.9944 23.8729C28.0056 23.0257 28 22.1424 27.9944 21.3677ZM27.7151 23.8656C27.6983 25.4224 26.8436 26.9212 25.6871 27.428C25.2514 27.6235 24.8045 27.638 24.4246 27.638H14.1788C13.7598 27.638 13.4134 27.6307 13.1006 27.6163C12.3352 27.58 11.648 27.1456 11.1006 26.3926C10.5531 25.6396 10.2793 24.7128 10.2793 23.6412V21.1504C10.2849 20.897 10.3575 20.5278 10.4358 20.3685C10.5131 20.2164 10.6051 20.0777 10.7095 19.9558L10.8156 19.8182C10.8406 19.7905 10.8722 19.7752 10.905 19.7747H10.9385L11.2682 19.7313V17.9139C11.2727 17.7214 11.2914 17.5298 11.324 17.3419C11.3975 16.9649 11.566 16.6304 11.8028 16.3917C12.0397 16.153 12.3312 16.0236 12.6313 16.0241H13.5419L14.3296 16.0386C14.4792 16.0528 14.6261 16.0967 14.7654 16.1689L14.9497 16.2414L14.9832 16.14C15.0168 16.0241 15.0559 15.8938 15.0894 15.7635C15.1075 15.6838 15.1451 15.614 15.1965 15.5644C15.2478 15.5148 15.3102 15.4881 15.3743 15.4883C15.5084 15.4883 15.6034 15.5825 15.6592 15.7707C15.7542 16.0676 15.7598 16.0748 15.9497 16.0748H17.8547C18.2458 16.0748 18.5754 16.2848 18.8436 16.6903L18.9162 16.7916L19.0112 16.6685C19.0914 16.5597 19.1773 16.4581 19.2682 16.3644C19.4899 16.1412 19.764 16.0236 20.0447 16.0314H21.7709C21.7598 15.9952 21.7542 15.959 21.743 15.9228L21.6425 15.568C21.6369 15.5535 21.6145 15.5318 21.5642 15.5028L19.8994 14.7064C19.7933 14.6557 19.6872 14.6484 19.6257 14.4095C19.5642 14.1706 19.648 13.9461 19.8436 13.852L21.5251 13.0483C21.563 13.0337 21.5972 13.0067 21.6246 12.9699C21.652 12.9331 21.6717 12.8878 21.6816 12.8383C21.8715 12.1577 22.0726 11.4626 22.2626 10.7965L22.2905 10.6951C22.3575 10.4706 22.4637 10.362 22.6201 10.362C22.7765 10.362 22.8939 10.4779 22.9553 10.7096C23.0168 10.9413 23.0838 11.173 23.1508 11.4047C23.2849 11.8825 23.4302 12.3677 23.5642 12.8528C23.5753 12.8988 23.5948 12.9406 23.621 12.9747C23.6473 13.0087 23.6796 13.034 23.7151 13.0483L25.1061 13.7144L25.3687 13.8375C25.5419 13.9244 25.6313 14.0475 25.6313 14.2574C25.6313 14.4674 25.5419 14.6122 25.3631 14.6991L25.1508 14.7932L23.6816 15.4811C23.6536 15.4935 23.6283 15.5145 23.6079 15.5422C23.5875 15.5699 23.5725 15.6036 23.5642 15.6404C23.5419 15.7345 23.4972 15.8938 23.4916 15.93C23.486 15.9662 23.4749 15.9952 23.4693 16.0314H25.4246C26.0391 16.0459 26.6089 16.7337 26.6704 17.5374C26.6927 17.9067 26.6927 18.2832 26.6927 18.6452C26.6927 18.7973 26.6927 18.9493 26.6983 19.1014V19.7458H26.9665C27.0416 19.7525 27.1143 19.7823 27.1788 19.8327C27.5363 20.1657 27.7151 20.6002 27.7151 21.1215V21.3677C27.7207 22.1858 27.7263 23.0402 27.7151 23.8656Z" fill="#161616"/>
<path d="M12.8995 21.1796C13.0725 21.2231 13.2483 21.2449 13.4246 21.2447L13.7598 21.223C14.3576 21.1578 14.7989 20.7596 15.0279 20.0862C15.0881 19.8781 15.1016 19.6523 15.067 19.4346C15.0149 19.174 14.9458 18.9197 14.8603 18.6743L14.8045 18.5006C14.7803 18.4354 14.7386 18.3839 14.6872 18.3558C14.5587 18.2834 14.4246 18.2182 14.2961 18.1603L13.9553 17.9937C13.8871 17.963 13.827 17.9078 13.7821 17.8344C13.7572 17.7888 13.7403 17.7366 13.7326 17.6816C13.7249 17.6265 13.7265 17.57 13.7374 17.5159C13.7559 17.452 13.785 17.3943 13.8227 17.3468C13.8603 17.2992 13.9056 17.263 13.9553 17.2407L14.486 16.9873L14.6927 16.8859L14.6816 16.8714L14.6145 16.8208L14.5084 16.7846C14.4035 16.74 14.2946 16.7132 14.1844 16.7049C13.838 16.6904 13.4916 16.6904 13.1508 16.6904H12.7319C12.1453 16.6904 11.7933 17.1466 11.7933 17.9068C11.7933 18.0372 11.7933 18.1603 11.7877 18.2834C11.7877 18.6599 11.7877 19.0508 11.7989 19.4346C11.8212 20.2817 12.2849 21.013 12.8995 21.1796Z" fill="#161616"/>
</g>
</g>
<defs>
<clipPath id="clip0_116_4479">
<rect width="18" height="18" fill="white" transform="matrix(-1 0 0 1 28 10)"/>
</clipPath>
<clipPath id="clip1_116_4479">
<rect width="18" height="18" fill="white" transform="translate(10 10)"/>
</clipPath>
</defs>
</svg>
