<svg width="38" height="38" viewBox="0 0 38 38" fill="none" xmlns="http://www.w3.org/2000/svg">
<rect width="38" height="38" rx="19" transform="matrix(-1 0 0 1 38 0)" fill="#2D2D2D"/>
<path d="M21.7825 18.077L21.7579 18.12L20.0712 17.1043L19.3263 16.6611C19.1588 16.5611 18.9674 16.508 18.7723 16.5072C18.6316 16.5066 18.4921 16.534 18.3621 16.5879C18.2321 16.6419 18.1141 16.7211 18.0151 16.8212L18.0028 16.8335C17.879 16.9544 17.7808 17.099 17.7142 17.2587C17.6475 17.4184 17.6138 17.5899 17.615 17.763C17.6168 17.9083 17.6496 18.0516 17.7112 18.1832C17.7727 18.3148 17.8617 18.4318 17.972 18.5263L20.379 20.5331C20.3691 20.5614 20.3609 20.5901 20.3544 20.6193V20.6316C20.3002 20.8027 20.259 20.9776 20.2312 21.1549C20.1882 21.4873 20.1697 21.8259 20.1512 22.1644C20.1266 22.6938 20.0219 23.1986 19.7326 23.6541C19.5295 23.9681 19.2709 24.2082 18.8893 24.2636C18.3722 24.3374 17.972 24.1466 17.6827 23.7157C17.3934 23.2848 17.3195 22.9093 17.2026 22.4784C17.0856 22.0475 16.9933 21.7089 16.8702 21.3272C16.8189 21.1673 16.7442 21.0159 16.6485 20.8779C16.3469 20.447 15.8113 20.4408 15.522 20.8779C15.378 21.1195 15.2643 21.3779 15.1835 21.6473C15.0111 22.1706 14.8757 22.7123 14.7156 23.2417C14.6547 23.4117 14.5719 23.5731 14.4694 23.7219C13.9831 24.4544 13.0228 24.479 12.5057 23.7711C12.1856 23.3402 12.0624 22.8416 12.0194 22.3183C11.9886 21.9244 11.9763 21.5242 11.927 21.1364C11.8531 20.6255 11.6254 20.1638 11.3607 19.7267C11.096 19.2897 10.8928 19.0126 10.6774 18.6433C10.3696 18.1324 10.0864 17.603 10.0187 16.9997C9.98793 16.6796 10.0064 16.3595 10.0064 16.0394C10.0013 16.0256 9.99925 16.0109 10.0002 15.9963C10.0126 15.6762 10.0433 15.4546 10.3388 14.9683H10.345L10.3696 14.919C10.8682 13.9833 11.6377 13.3862 12.7088 13.2508C13.4968 13.1461 14.2108 13.3677 14.8634 13.7986C15.2336 14.039 15.5674 14.3313 15.8544 14.6666C15.9069 14.7346 15.9503 14.8091 15.9837 14.8882C15.9837 14.8882 16.2792 14.5927 16.7901 14.1803C16.9309 14.0568 17.0789 13.9417 17.2333 13.8356L17.4242 13.7186C17.929 13.4044 18.5101 13.2341 19.1047 13.2262L19.431 13.2446L19.6587 13.2877C19.8341 13.3381 20.0067 13.3977 20.1758 13.4662C20.6929 13.6694 21.2162 13.971 21.5424 14.4204C21.6355 14.5489 21.7101 14.6898 21.764 14.839C21.8564 15.0791 21.9672 15.313 22.0411 15.5531C22.2996 16.421 22.2011 17.2705 21.7825 18.077Z" fill="#B9B9B9"/>
<path d="M27.3413 22.4477C27.203 22.1106 26.9589 21.8275 26.6457 21.6412L19.8127 17.5415L19.0679 17.0982C18.9597 17.0317 18.8324 17.0034 18.7062 17.0179C18.5801 17.0324 18.4625 17.0889 18.3723 17.1783L18.36 17.1906C18.2841 17.2654 18.2238 17.3545 18.1826 17.4528C18.1414 17.5511 18.1201 17.6565 18.1199 17.7631C18.1209 17.8348 18.1373 17.9055 18.1681 17.9703C18.1989 18.0351 18.2434 18.0925 18.2984 18.1386L19.548 19.1789L24.8728 23.6173L25.2483 24.7746H28L27.3413 22.4477Z" fill="#B9B9B9"/>
</svg>
