<svg width="80" height="81" viewBox="0 0 80 81" fill="none" xmlns="http://www.w3.org/2000/svg">
<path d="M40 80.5C62.0914 80.5 80 62.5914 80 40.5C80 18.4086 62.0914 0.5 40 0.5C17.9086 0.5 0 18.4086 0 40.5C0 62.5914 17.9086 80.5 40 80.5Z" fill="#161616"/>
<path d="M37.334 56.2461C38.218 58.1257 40.3275 59.0054 42.3969 58.6855C44.9686 58.2856 47.259 57.1659 49.4891 55.9062C51.1366 55.0064 52.0406 54.7465 53.5274 54.9664C53.0251 55.4263 52.6836 55.8062 52.2817 56.1062C51.1566 56.906 49.9311 57.6058 48.8462 58.4656C43.5823 62.6845 37.8161 62.7645 31.9696 60.2251C23.3304 56.4861 18.1268 47.5883 18.8099 38.2706C19.493 28.953 27.2884 20.5951 36.7111 19.3154C48.2836 17.7358 58.51 24.754 60.8004 36.0312C62.2068 42.9295 60.4387 49.0879 55.7575 54.3666L53.7685 52.567C55.9383 50.2676 57.6059 47.0284 58.3091 43.2894C60.278 33.0319 52.2416 22.6945 41.7741 21.7748C31.9094 20.935 23.1697 27.8332 21.7031 37.0909C20.7588 42.8695 22.0245 48.1082 26.3642 52.3071C28.4135 54.2866 30.8445 54.9864 33.6171 53.7268C35.0837 53.0669 36.6308 53.0469 38.1778 53.5468C39.2426 53.9067 40.2873 54.3266 41.3924 54.5266C42.4974 54.7265 43.964 54.7265 45.2699 54.8065C45.5713 54.8265 45.8727 54.8065 46.174 54.8065C46.174 56.0262 45.1092 57.1059 43.6426 57.0859C42.1759 57.0659 40.8901 56.706 39.5239 56.5261L37.334 56.2461Z" fill="#161616"/>
<path d="M32.3532 52.6668C32.3532 52.6668 35.4673 51.0472 38.1395 52.1869C38.1395 52.1869 39.2043 47.828 40.249 48.4278C41.2938 49.0277 42.1979 53.3266 42.1979 53.3266C42.1979 53.3266 43.986 53.8865 45.0106 53.5865C45.6989 53.4077 46.416 53.367 47.1202 53.4666C47.1202 53.4666 51.1987 48.1879 51.8617 40.6698C52.5247 33.1517 51.8617 28.4928 46.417 29.2126C40.9723 29.9325 36.3715 36.5108 31.3889 33.9115C31.3889 33.9115 35.6281 34.6913 38.1796 31.0322C38.1796 31.0322 33.3377 27.4731 29.6409 29.7525C25.9442 32.0319 28.2345 46.7682 32.3532 52.6668Z" fill="#161616"/>
<path d="M40.4215 23.6938C40.4215 26.2732 38.7539 26.3132 38.7539 26.3132C40.321 26.3132 40.4215 28.9925 40.4215 28.9925C40.4215 28.9925 40.5018 26.3132 42.089 26.3132C42.089 26.3132 40.4215 26.2732 40.4215 23.6938Z" fill="#161616"/>
<path d="M36.1072 26.3335C36.1072 27.5132 35.3438 27.5332 35.3438 27.5332C36.067 27.5332 36.1072 28.7729 36.1072 28.7729C36.1072 28.7729 36.1474 27.5332 36.8707 27.5332C36.8707 27.5332 36.1072 27.5132 36.1072 26.3335Z" fill="#161616"/>
<path d="M44.4822 25.7734C44.4822 26.9531 43.7188 26.9731 43.7188 26.9731C44.442 26.9731 44.4822 28.2128 44.4822 28.2128C44.4822 28.2128 44.5224 26.9731 45.2658 26.9731C45.2658 26.9731 44.4822 26.9531 44.4822 25.7734Z" fill="#161616"/>
<path d="M40 80.5C62.0914 80.5 80 62.5914 80 40.5C80 18.4086 62.0914 0.5 40 0.5C17.9086 0.5 0 18.4086 0 40.5C0 62.5914 17.9086 80.5 40 80.5Z" fill="white"/>
<path d="M37.1467 57.3259C38.0709 59.3454 40.3412 60.2851 42.5513 59.9452C45.3037 59.5253 47.7548 58.3056 50.1457 56.9659C51.8936 55.9862 52.858 55.7263 54.4653 55.9462C54.0514 56.382 53.6084 56.7895 53.1393 57.1659C51.9137 58.0257 50.6078 58.7855 49.4425 59.7053C43.817 64.2041 37.6691 64.3041 31.4007 61.5848C22.1588 57.5858 16.5935 48.0682 17.3168 38.1107C18.0401 28.1532 26.398 19.1954 36.4837 17.8358C48.8599 16.1362 59.8095 23.6343 62.2405 35.7113C63.7474 43.0694 61.8588 49.6678 56.836 55.3064L54.7265 53.4068C57.0369 50.9475 58.8251 47.4883 59.5885 43.4693C61.678 32.4921 53.079 21.4348 41.8882 20.4751C31.3404 19.5553 21.998 26.9535 20.4108 36.851C19.4264 43.0294 20.7725 48.628 25.4135 53.1069C27.6035 55.2264 30.1952 55.9862 33.1687 54.6265C34.7358 53.9267 36.3833 53.9067 38.0307 54.4466C39.1759 54.8265 40.301 55.2864 41.4864 55.4863C42.6718 55.6863 44.2389 55.7063 45.6252 55.7862C45.9466 55.8062 46.2681 55.7862 46.5896 55.7862C46.6097 57.0859 45.4645 58.2456 43.8773 58.2256C42.2901 58.2056 40.944 57.8257 39.4773 57.6258L37.1467 57.3259Z" fill="#161616"/>
<path d="M31.8416 53.4869C31.8416 53.4869 35.1567 51.7673 38.0096 52.987C38.0096 52.987 39.1548 48.3282 40.2598 48.968C41.3648 49.6078 42.3694 54.2067 42.3694 54.2067C42.3694 54.2067 44.2579 54.7865 45.383 54.4866C46.1173 54.296 46.8827 54.2552 47.6333 54.3666C47.6333 54.3666 51.993 48.7281 52.6962 40.6701C53.3994 32.6121 52.6962 27.6533 46.8698 28.4131C41.0434 29.173 36.121 36.2112 30.817 33.4519C30.817 33.4519 35.3375 34.2917 38.0699 30.3527C38.0699 30.3527 32.8864 26.5536 28.9284 28.993C24.9705 31.4324 27.4216 47.1884 31.8416 53.4869Z" fill="#161616"/>
<path d="M40.4522 22.5146C40.4522 25.254 38.6641 25.3139 38.6641 25.3139C40.3517 25.3139 40.4522 28.1732 40.4522 28.1732C40.4522 28.1732 40.5526 25.3139 42.2403 25.3139C42.2403 25.3139 40.4522 25.254 40.4522 22.5146Z" fill="#161616"/>
<path d="M35.8276 25.334C35.8276 26.6137 35.0039 26.6337 35.0039 26.6337C35.7875 26.6337 35.8276 27.9333 35.8276 27.9333C35.8276 27.9333 35.8678 26.6337 36.6313 26.6337C36.6313 26.6337 35.8276 26.6137 35.8276 25.334Z" fill="#161616"/>
<path d="M44.7925 24.7339C44.7925 26.0136 43.9688 26.0336 43.9688 26.0336C44.7523 26.0336 44.7925 27.3332 44.7925 27.3332C44.7925 27.3332 44.8327 26.0336 45.6162 26.0336C45.6162 26.0336 44.7925 26.0136 44.7925 24.7339Z" fill="#161616"/>
</svg>
