<svg width="38" height="38" viewBox="0 0 38 38" fill="none" xmlns="http://www.w3.org/2000/svg">
<rect width="38" height="38" rx="19" transform="matrix(-1 0 0 1 38 0)" fill="white"/>
<g clip-path="url(#clip0_116_4391)">
<path d="M27.9942 13.831C27.9422 12.3928 26.8428 11.3037 25.4368 11.3037H25.3848C24.0367 11.3338 22.9373 12.5132 22.9373 13.9453V14.4147C22.9373 14.7456 22.9373 15.0886 22.9315 15.4256C22.9278 16.4128 22.7391 17.3898 22.3761 18.3019C21.8901 19.5054 21.2478 20.3899 20.4205 20.9977C19.9344 21.3648 19.4773 21.5393 19.0203 21.5393L18.812 21.5272H18.8062C18.2276 21.461 17.6837 21.1722 17.1572 20.6487C15.9422 19.4452 15.2478 17.8687 15.1032 15.9612C15.0743 15.5881 15.0743 15.1428 15.0743 14.8178C15.0743 14.4929 15.0743 14.1258 15.0569 13.7708C14.999 12.7358 14.461 11.9415 13.5468 11.5263C13.2157 11.3707 12.857 11.2888 12.4937 11.2856C11.9441 11.2856 11.4176 11.4902 10.9315 11.8994C10.1389 12.5854 9.84379 13.494 10.0868 14.5049C10.157 14.7942 10.2661 15.0718 10.4108 15.3293C10.4238 15.3665 10.4393 15.4027 10.4571 15.4376C10.1035 15.9702 9.94728 16.6179 10.0174 17.2609C10.0945 17.9026 10.3876 18.4953 10.8448 18.9337C10.7864 19.0695 10.74 19.2105 10.7059 19.355C10.5487 19.9952 10.6301 20.6735 10.9338 21.2539C11.2375 21.8342 11.741 22.2737 12.3433 22.484C12.3504 23.1576 12.6002 23.804 13.0434 24.2952C13.2762 24.5456 13.5548 24.7448 13.8629 24.8813C14.171 25.0177 14.5022 25.0885 14.837 25.0895H14.8602L15.1784 25.0715C15.3601 25.5542 15.6777 25.9688 16.0896 26.2608C16.5015 26.5528 16.9885 26.7087 17.487 26.7082C17.7808 26.7076 18.0724 26.6547 18.3491 26.5517H18.3607C18.5778 26.4629 18.7869 26.3542 18.9855 26.2268H18.9913C19.4197 26.5518 19.9364 26.7268 20.4667 26.7263H20.4783C20.9862 26.7298 21.4835 26.5761 21.907 26.2846C22.3305 25.9931 22.661 25.5771 22.8563 25.0895C22.9523 25.1015 23.0489 25.1076 23.1456 25.1076H23.163C23.77 25.1084 24.3556 24.8747 24.8062 24.4517C25.3616 23.9402 25.6509 23.2843 25.6683 22.496C26.3742 22.2373 26.8775 21.7559 27.1668 21.0519C27.4561 20.3478 27.4561 19.6378 27.1495 18.9277C27.6149 18.506 27.9104 17.9172 27.9769 17.279C28.0557 16.6326 27.8965 15.9791 27.5314 15.4497C27.8583 14.9806 28.0215 14.4096 27.9942 13.831ZM27.6876 17.2308C27.6124 17.8747 27.3231 18.4042 26.7908 18.8375C27.1495 19.5355 27.1842 20.2335 26.9007 20.9195C26.6172 21.6055 26.1022 22.0568 25.3732 22.2614C25.4079 23.0617 25.1533 23.7176 24.6152 24.211C24.2137 24.5914 23.6888 24.7999 23.1456 24.7947C22.9845 24.7933 22.8238 24.7772 22.6654 24.7465C22.3414 25.7635 21.4908 26.4133 20.4783 26.4133C19.9386 26.4167 19.4163 26.2156 19.0087 25.8477L18.8293 25.962C18.6463 26.0833 18.4526 26.1861 18.2507 26.2689C18.0037 26.3605 17.7434 26.4073 17.4812 26.4073C16.5439 26.4073 15.7281 25.7996 15.4041 24.8548C15.3636 24.7465 15.352 24.7465 15.3173 24.7465L15.2478 24.7586C15.1175 24.7778 14.986 24.7878 14.8544 24.7887C14.5552 24.7912 14.2587 24.7301 13.983 24.609C13.7074 24.4879 13.4585 24.3095 13.2517 24.0846C13.0418 23.8514 12.8789 23.5768 12.7726 23.2772C12.6663 22.9775 12.6187 22.6587 12.6326 22.3396V22.2614L12.5979 22.2493C12.0249 22.0961 11.5335 21.7133 11.2311 21.1845C10.9286 20.6557 10.8396 20.0239 10.9836 19.4272C11.0362 19.2287 11.11 19.037 11.2035 18.8555C10.9571 18.659 10.7505 18.4138 10.5956 18.1339C10.4407 17.854 10.3405 17.5451 10.3009 17.2248C10.2673 16.9136 10.2935 16.5986 10.3779 16.298C10.4623 15.9974 10.6033 15.7172 10.7927 15.4737C10.7522 15.3775 10.7059 15.2872 10.6654 15.1969C10.5381 14.9442 10.4224 14.7035 10.3645 14.4388C10.1504 13.5301 10.4166 12.7358 11.1167 12.1281C11.5391 11.7731 12.0019 11.5865 12.4937 11.5865C12.8153 11.5911 13.1325 11.6649 13.4253 11.8031C14.2527 12.1762 14.7155 12.8622 14.7676 13.7829C14.785 14.1258 14.785 14.4749 14.785 14.8118C14.785 15.1488 14.785 15.5941 14.8139 15.9792C14.9643 17.9589 15.6818 19.6017 16.9547 20.8593C17.5333 21.431 18.1292 21.7439 18.7715 21.8221L19.0203 21.8401C19.5352 21.8401 20.0444 21.6476 20.5882 21.2444C21.4619 20.6006 22.1331 19.6739 22.6422 18.4162C23.0185 17.4674 23.215 16.4519 23.2208 15.4256C23.2266 15.0886 23.2266 14.7456 23.2266 14.4147V13.9453C23.2266 12.6817 24.1987 11.6286 25.3906 11.6046H25.4368C26.6808 11.6046 27.6586 12.5673 27.7049 13.843C27.7319 14.4289 27.5389 15.0028 27.1668 15.4437C27.5834 15.9852 27.7628 16.587 27.6876 17.2308Z" fill="#161616"/>
<path d="M26.7734 15.0527C26.9167 14.8754 27.025 14.6704 27.0922 14.4495C27.1593 14.2285 27.1838 13.996 27.1645 13.7652C27.1452 13.5344 27.0823 13.3099 26.9794 13.1044C26.8766 12.8988 26.7358 12.7164 26.5651 12.5675C26.2558 12.3019 25.8669 12.1571 25.4658 12.1584C25.3433 12.1605 25.2212 12.1746 25.1013 12.2005C24.378 12.375 23.8342 13.0008 23.7821 13.7229C23.7532 14.1561 23.7532 14.6014 23.7532 15.0287V15.4077C23.7596 16.45 23.573 17.4837 23.2035 18.4525C22.6596 19.9088 21.8901 20.9798 20.8544 21.732C20.2411 22.1773 19.6162 22.3999 19.0029 22.3999C18.3896 22.3999 17.7532 22.1773 17.1341 21.726C16.191 21.04 15.4677 20.0772 14.9238 18.7775C14.4348 17.6206 14.2034 16.3638 14.2469 15.1009V14.6676C14.2469 14.4089 14.2527 14.1922 14.2469 13.9756C14.2237 13.055 13.6509 12.3329 12.8178 12.1764C12.7219 12.1622 12.6253 12.1541 12.5285 12.1523C12.1939 12.152 11.8667 12.2543 11.5877 12.4465C11.3088 12.6386 11.0905 12.912 10.9602 13.2325C10.8299 13.5529 10.7934 13.9063 10.8552 14.2482C10.917 14.5902 11.0744 14.9056 11.3076 15.155C11.5275 15.3897 11.5275 15.492 11.3134 15.7267C10.9992 16.0632 10.8259 16.5154 10.8314 16.9845C10.8368 17.4535 11.0205 17.9013 11.3424 18.2299C11.4283 18.3145 11.5212 18.391 11.6201 18.4586C11.8862 18.6391 11.9094 18.7354 11.7358 19.0182C11.4889 19.4107 11.4008 19.8887 11.4907 20.3484C11.5806 20.808 11.8413 21.2123 12.216 21.4733C12.4198 21.6141 12.651 21.7066 12.893 21.7441C13.1302 21.7862 13.2286 21.9306 13.1881 22.1833C13.1499 22.4361 13.1637 22.6945 13.2285 22.9413C13.2934 23.1882 13.4077 23.4179 13.5641 23.6155C13.7229 23.8087 13.9198 23.964 14.1414 24.071C14.3631 24.1779 14.6043 24.2339 14.8486 24.2353C14.9417 24.2367 15.0348 24.2287 15.1263 24.2112C15.2371 24.1886 15.3492 24.1745 15.4619 24.1691C15.7223 24.1691 15.7859 24.3375 15.9132 24.6805C16.1852 25.4026 16.7927 25.8479 17.5044 25.8479C17.9607 25.845 18.3974 25.6546 18.7194 25.3184C18.8235 25.2161 18.8988 25.1379 19.0029 25.1379C19.1071 25.1379 19.1765 25.2161 19.2806 25.3184C19.6336 25.6734 20.027 25.8479 20.461 25.8479C20.6193 25.8475 20.7769 25.8252 20.9296 25.7817C21.5487 25.6132 21.9537 25.18 22.1736 24.4519C22.2199 24.2894 22.2662 24.1209 22.4571 24.1209C22.5299 24.1256 22.6018 24.1398 22.6712 24.163C22.98 24.2533 23.307 24.2515 23.6149 24.1578C23.9228 24.0642 24.1993 23.8826 24.4127 23.6335C24.5751 23.4403 24.6949 23.2126 24.7638 22.9663C24.8328 22.72 24.8492 22.461 24.812 22.2074C24.7715 21.8885 24.8351 21.7982 25.136 21.738C25.5801 21.6573 25.9753 21.3964 26.2346 21.0127C26.4939 20.6291 26.5961 20.1541 26.5188 19.6921C26.4783 19.4539 26.3917 19.2266 26.2642 19.0242C26.0791 18.7293 26.1022 18.6391 26.3857 18.4525C26.5887 18.3137 26.7616 18.1322 26.8931 17.9198C27.0246 17.7073 27.112 17.4686 27.1495 17.219C27.1861 16.9737 27.1715 16.7232 27.1066 16.4843C27.0417 16.2455 26.928 16.024 26.7734 15.835C26.4841 15.4739 26.4841 15.4077 26.7734 15.0527ZM11.9267 13.1332C11.9992 13.0682 12.0914 13.0319 12.1871 13.0309C12.2256 13.0307 12.2636 13.0411 12.297 13.061C12.3287 13.0763 12.3565 13.0989 12.3786 13.127C12.4006 13.1552 12.4163 13.1881 12.4243 13.2234C12.4475 13.3318 12.3838 13.434 12.3375 13.5002C12.0772 13.8492 12.0772 14.1381 12.3317 14.4991C12.4012 14.5954 12.4243 14.794 12.3491 14.8903C12.3283 14.9229 12.2999 14.9494 12.2665 14.9673C12.233 14.9852 12.1958 14.9939 12.1582 14.9925C12.1103 14.9896 12.0637 14.9757 12.0217 14.9517C11.9797 14.9278 11.9433 14.8945 11.9152 14.8541C11.6953 14.5774 11.6027 14.2825 11.6085 13.8492C11.6275 13.5783 11.7406 13.3238 11.9267 13.1332ZM11.9614 17.8929C11.73 17.6703 11.6143 17.3634 11.6027 16.9663V16.9542C11.6259 16.5992 11.7358 16.3224 11.9383 16.1238C12.0084 16.0756 12.0916 16.0524 12.1755 16.0576H12.2565C12.2711 16.0559 12.2859 16.0575 12.2999 16.0621C12.314 16.0668 12.3268 16.0745 12.3378 16.0848C12.3487 16.095 12.3574 16.1075 12.3634 16.1215C12.3693 16.1355 12.3723 16.1506 12.3722 16.1659V16.178C12.3722 16.196 12.378 16.2201 12.378 16.2442C12.378 16.2682 12.3954 16.4066 12.3491 16.4788C12.0714 16.9241 12.0714 17.0806 12.3607 17.5439C12.3786 17.5776 12.3899 17.6146 12.3938 17.6528C12.3978 17.691 12.3944 17.7297 12.3838 17.7666V17.8328C12.3813 17.8652 12.3668 17.8954 12.3433 17.917C12.3343 17.9287 12.3229 17.938 12.3098 17.9443C12.2968 17.9506 12.2825 17.9536 12.2681 17.9531H12.1235C12.0939 17.9553 12.0643 17.951 12.0364 17.9407C12.0085 17.9303 11.983 17.9141 11.9614 17.8929ZM13.2633 20.8896C13.2463 20.937 13.2153 20.9777 13.1748 21.0058C13.1343 21.0339 13.0863 21.048 13.0376 21.046C12.9641 21.0417 12.8926 21.019 12.8293 20.9798C12.3896 20.7512 12.164 20.3601 12.1292 19.7824V19.7523C12.1388 19.7296 12.1427 19.7048 12.1408 19.6801C12.1523 19.5851 12.1756 19.492 12.2102 19.4033C12.245 19.319 12.326 19.2829 12.3838 19.2468L12.4417 19.2168C12.4502 19.2085 12.4602 19.2021 12.4712 19.198C12.4821 19.1939 12.4937 19.1921 12.5053 19.1927H12.5343C12.5515 19.1952 12.5677 19.2028 12.581 19.2145C12.5943 19.2262 12.6042 19.2416 12.6095 19.2589C12.6247 19.2755 12.6348 19.2964 12.6384 19.319C12.6801 19.3793 12.7061 19.4498 12.7136 19.5236C12.7214 19.598 12.7175 19.6732 12.702 19.7463C12.6943 19.8182 12.6924 19.8907 12.6963 19.9629C12.7135 20.0755 12.7582 20.1816 12.8261 20.2711C12.8939 20.3606 12.9827 20.4306 13.0839 20.4744C13.1649 20.5165 13.2575 20.5707 13.2864 20.673C13.2997 20.7083 13.3045 20.7465 13.3005 20.7842C13.2965 20.822 13.2837 20.8581 13.2633 20.8896ZM15.3173 23.1822C15.2999 23.2845 15.2131 23.3447 15.1379 23.3988L15.0627 23.453C15.0416 23.4709 15.0146 23.4796 14.9875 23.4771H14.9759C14.3626 23.4109 13.8534 22.9174 13.784 22.3338C13.7724 22.2254 13.7435 21.9787 13.9923 21.9306H14.056C14.2585 21.9306 14.299 22.1352 14.3163 22.2315V22.2435C14.3857 22.6106 14.6345 22.8452 14.9759 22.8693H14.9991C15.0916 22.8753 15.2073 22.8874 15.2768 22.9776C15.2975 23.0066 15.3119 23.0399 15.3189 23.0752C15.3259 23.1106 15.3253 23.1471 15.3173 23.1822ZM18.3549 24.4579C18.341 24.5027 18.3176 24.5438 18.2866 24.5781C18.2556 24.6124 18.2177 24.6392 18.1755 24.6565C18.0251 24.7287 17.8689 24.7888 17.7184 24.855L17.5333 24.9272H17.4696C17.0588 24.855 16.7753 24.7106 16.5613 24.4579C16.4803 24.3616 16.4455 24.2714 16.4571 24.1871C16.4635 24.1512 16.4771 24.117 16.497 24.087C16.5169 24.0569 16.5428 24.0315 16.5728 24.0126C16.6096 23.9896 16.6515 23.9772 16.6943 23.9765C16.7849 23.9749 16.8731 24.0069 16.9431 24.0668C17.1283 24.2352 17.3019 24.3135 17.4696 24.3135C17.6199 24.3081 17.7659 24.2603 17.892 24.1751C17.9536 24.1312 18.0258 24.1062 18.1003 24.1029C18.1423 24.1014 18.1838 24.1118 18.2205 24.133C18.2572 24.1542 18.2876 24.1854 18.3086 24.2232C18.3339 24.2556 18.3514 24.2938 18.3594 24.3346C18.3675 24.3755 18.3659 24.4178 18.3549 24.4579ZM21.4388 24.4519C21.2536 24.7046 20.9354 24.8611 20.5883 24.8791C20.5782 24.8948 20.5644 24.9075 20.5481 24.916C20.5319 24.9244 20.5138 24.9283 20.4957 24.9272H20.4494L20.2758 24.855C20.1196 24.7888 19.9634 24.7227 19.8072 24.6384C19.6509 24.5542 19.703 24.488 19.6914 24.3977C19.6799 24.3075 19.6799 24.3436 19.6741 24.3255C19.668 24.3074 19.6664 24.288 19.6694 24.269C19.6725 24.2501 19.68 24.2323 19.6914 24.2172C19.7013 24.2027 19.7143 24.1908 19.7294 24.1825C19.7444 24.1741 19.7612 24.1695 19.7782 24.1691L19.8477 24.157L19.9692 24.145C20.0114 24.1449 20.053 24.1552 20.0907 24.1751C20.27 24.2774 20.4147 24.3255 20.5478 24.3255C20.6808 24.3255 20.866 24.2413 21.0511 24.0668C21.1126 23.9968 21.1974 23.9537 21.2884 23.9464C21.3268 23.9475 21.3644 23.9585 21.3977 23.9784C21.4311 23.9984 21.4591 24.0267 21.4793 24.0607C21.5487 24.1751 21.5024 24.3676 21.4388 24.4519ZM24.2218 22.3097C24.164 22.9355 23.6027 23.4229 22.9489 23.4289C22.9184 23.4285 22.8893 23.4155 22.8679 23.3928L22.8506 23.3808C22.7927 23.3447 22.7001 23.2785 22.6828 23.1702C22.6761 23.135 22.6763 23.0988 22.6833 23.0637C22.6902 23.0285 22.7038 22.9952 22.7233 22.9656C22.7927 22.8753 22.9142 22.8633 23.0068 22.8573C23.3771 22.8332 23.6201 22.6106 23.6837 22.2315C23.6953 22.1412 23.7358 21.9125 23.9557 21.9125H23.9962C24.2565 21.9486 24.2334 22.2194 24.2218 22.3097ZM25.8824 19.8185C25.8789 20.0702 25.8063 20.3155 25.673 20.5256C25.5397 20.7357 25.3513 20.9017 25.1302 21.0039C25.0769 21.0334 25.017 21.0479 24.9566 21.046C24.9045 21.045 24.8542 21.0262 24.8134 20.9925C24.7726 20.9588 24.7437 20.912 24.731 20.8595C24.6963 20.7331 24.7888 20.5586 24.8872 20.4985C25.2748 20.2638 25.3732 20.0411 25.2922 19.5898C25.2748 19.4875 25.2633 19.3732 25.3269 19.289C25.3467 19.2619 25.372 19.2397 25.401 19.2241C25.43 19.2085 25.4621 19.1998 25.4947 19.1987H25.5063C25.6336 19.1987 25.7609 19.3371 25.8072 19.4394C25.8425 19.5212 25.864 19.6087 25.8708 19.6981C25.8766 19.7282 25.8766 19.7643 25.8824 19.7944V19.8185ZM26.0733 17.8628C26.0078 17.9179 25.9261 17.9476 25.8419 17.9471H25.7493V17.9591C25.7237 17.957 25.6994 17.9464 25.6799 17.929C25.6656 17.9191 25.6539 17.9057 25.6458 17.8899C25.6378 17.8742 25.6335 17.8566 25.6336 17.8388C25.6373 17.8146 25.6353 17.7898 25.6278 17.7666C25.622 17.6883 25.6104 17.5921 25.6625 17.5199C25.9229 17.1047 25.9229 16.888 25.6625 16.4909C25.5989 16.3886 25.5815 16.196 25.6625 16.0937C25.6843 16.0655 25.7115 16.0424 25.7424 16.0258C25.7733 16.0092 25.8072 15.9996 25.8419 15.9975C25.946 15.9975 26.0328 16.0817 26.0849 16.1419C26.2909 16.367 26.4032 16.6676 26.3973 16.9783C26.3973 17.3393 26.2932 17.6342 26.0733 17.8628ZM26.3973 14.0478C26.4001 14.1948 26.3744 14.3409 26.3217 14.4774C26.269 14.6139 26.1904 14.7379 26.0907 14.8421C26.0137 14.9165 25.9122 14.9575 25.8072 14.9564C25.7711 14.9572 25.7354 14.9489 25.703 14.9324C25.6716 14.9184 25.6437 14.897 25.6216 14.8698C25.5995 14.8427 25.5838 14.8105 25.5757 14.7759C25.5526 14.6616 25.6162 14.5593 25.6683 14.4931C25.9229 14.1501 25.9229 13.8673 25.6683 13.4882C25.5989 13.3919 25.5815 13.1994 25.6567 13.0971C25.6777 13.0661 25.7053 13.0406 25.7375 13.0229C25.7697 13.0051 25.8054 12.9955 25.8419 12.9948C25.8904 12.9975 25.9376 13.012 25.9798 13.0371C26.022 13.0622 26.058 13.0971 26.0849 13.1392C26.1927 13.2612 26.2759 13.4045 26.3296 13.5606C26.3833 13.7167 26.4063 13.8823 26.3973 14.0478Z" fill="#161616"/>
</g>
<defs>
<clipPath id="clip0_116_4391">
<rect width="18" height="15.4286" fill="white" transform="translate(10 11.2856)"/>
</clipPath>
</defs>
</svg>
