<svg width="38" height="38" viewBox="0 0 38 38" fill="none" xmlns="http://www.w3.org/2000/svg">
<rect width="38" height="38" rx="19" transform="matrix(-1 0 0 1 38 0)" fill="#2D2D2D"/>
<path d="M24.8389 19.5217L24.781 19.621C24.5823 19.9853 24.4581 20.2006 24.5492 20.7802C25.0708 23.943 24.1435 26.2944 21.7092 27.9918H21.6596C21.6544 27.9879 21.6502 27.9829 21.6474 27.9772C21.6445 27.9714 21.643 27.9651 21.643 27.9586V23.8602C21.6042 23.1497 21.2946 22.4811 20.7779 21.9918C20.2612 21.5026 19.5767 21.2299 18.8652 21.2299C18.1536 21.2299 17.4691 21.5026 16.9524 21.9918C16.4357 22.4811 16.1261 23.1497 16.0873 23.8602V27.9504C16.0873 28 16.0542 28 16.0542 28H16.0294C13.5952 26.311 12.6678 23.9513 13.1895 20.7884C13.2805 20.2254 13.1729 20.0102 12.9411 19.6127L12.8914 19.5217C11.9061 17.7829 11.6908 15.7627 12.2704 13.6845C12.7672 12.3763 13.4958 11.7388 14.4894 11.7388C15.2014 11.7388 16.0625 12.0617 17.0643 12.6909L17.1223 12.7241C18.2471 13.1548 19.4915 13.1548 20.6163 12.7241L20.6743 12.6992L20.9227 12.5419C20.9809 12.8186 21.0698 13.088 21.1876 13.345C21.1248 13.2926 21.0459 13.2633 20.9641 13.2622C20.9187 13.2616 20.8736 13.27 20.8316 13.2871C19.5685 13.773 18.1701 13.773 16.907 13.2871L16.7828 13.2622C16.7122 13.2602 16.6428 13.2808 16.5847 13.321C16.5266 13.3612 16.4829 13.4189 16.4599 13.4858C16.4427 13.5281 16.4342 13.5734 16.4349 13.6191C16.4356 13.6648 16.4456 13.7099 16.4641 13.7516C16.4827 13.7934 16.5095 13.8309 16.5429 13.8621C16.5763 13.8932 16.6157 13.9173 16.6586 13.9329C17.3635 14.2068 18.1131 14.3472 18.8693 14.3469C19.6281 14.3465 20.3804 14.2062 21.0883 13.9329C21.1571 13.9054 21.2156 13.8571 21.2557 13.7948C21.2957 13.7324 21.3154 13.6592 21.3118 13.5851C22.0239 14.9264 23.448 15.8372 25.0128 15.8372C25.2713 15.8371 25.5291 15.8121 25.7828 15.7627C25.8214 17.0788 25.4947 18.3799 24.8389 19.5217Z" fill="#B9B9B9"/>
<path d="M25.9154 12.3928L25.2117 13.1711L24.4996 12.3928H24.5079C24.6001 12.3928 24.6886 12.3562 24.7538 12.291C24.819 12.2258 24.8556 12.1373 24.8556 12.0451V10H25.5594V12.0451C25.5594 12.1373 25.596 12.2258 25.6613 12.291C25.7265 12.3562 25.8149 12.3928 25.9071 12.3928H25.9154Z" fill="#B9B9B9"/>
<path d="M26.0478 14.6529C25.8081 14.7022 25.564 14.7272 25.3192 14.7274C24.4901 14.7244 23.6888 14.4274 23.0581 13.8892C22.4274 13.351 22.0081 12.6065 21.8748 11.7881C22.4958 11.49 23.0671 11.341 23.5556 11.341C23.7601 11.3383 23.9638 11.3662 24.16 11.4238V11.697H23.7129C23.645 11.6971 23.5784 11.7166 23.5212 11.7533C23.464 11.79 23.4185 11.8423 23.39 11.904C23.3659 11.9662 23.3593 12.0339 23.371 12.0996C23.3827 12.1653 23.4122 12.2265 23.4563 12.2766L24.9549 13.9242C25.0228 13.9927 25.1151 14.0314 25.2116 14.0319C25.3076 14.0297 25.3993 13.9912 25.4682 13.9242L25.8325 13.5185C25.9314 13.891 26.0033 14.2701 26.0478 14.6529Z" fill="#B9B9B9"/>
</svg>
