<svg width="60" height="60" viewBox="0 0 60 60" fill="none" xmlns="http://www.w3.org/2000/svg">
<rect width="60" height="60" rx="30" fill="#353434"/>
<path d="M41.7734 31.0432L41.6575 31.2419C41.2601 31.9705 41.0117 32.4011 41.1938 33.5602C42.2371 39.8859 40.3824 44.5887 35.514 47.9834H35.4146C35.4043 47.9757 35.396 47.9657 35.3903 47.9542C35.3845 47.9427 35.3815 47.93 35.3815 47.9172V39.7203C35.3039 38.2993 34.6847 36.962 33.6514 35.9836C32.618 35.0051 31.249 34.4598 29.8259 34.4598C28.4027 34.4598 27.0337 35.0051 26.0003 35.9836C24.967 36.962 24.3478 38.2993 24.2702 39.7203V47.9006C24.2702 48 24.204 48 24.204 48H24.1543C19.2858 44.6218 17.4312 39.9024 18.4744 33.5768C18.6566 32.4507 18.4413 32.0202 17.9776 31.2253L17.8783 31.0432C15.9077 27.5657 15.4772 23.5253 16.6363 19.3689C17.6299 16.7525 19.0871 15.4774 21.0742 15.4774C22.4983 15.4774 24.2205 16.1232 26.2242 17.3817L26.3401 17.448C28.5898 18.3095 31.0785 18.3095 33.3282 17.448L33.4441 17.3983L33.9408 17.0837C34.0573 17.6371 34.235 18.1758 34.4707 18.6899C34.3452 18.585 34.1873 18.5265 34.0236 18.5243C33.9329 18.523 33.8428 18.5399 33.7587 18.574C31.2326 19.5459 28.4357 19.5459 25.9096 18.574L25.6612 18.5243C25.5199 18.5202 25.381 18.5614 25.2648 18.6418C25.1487 18.7223 25.0612 18.8378 25.0154 18.9714C24.9809 19.0561 24.9639 19.1468 24.9654 19.2381C24.9668 19.3295 24.9867 19.4196 25.0238 19.5031C25.0609 19.5866 25.1145 19.6617 25.1813 19.724C25.2482 19.7863 25.3269 19.8345 25.4128 19.8656C26.8224 20.4136 28.3217 20.6943 29.8341 20.6936C31.3518 20.6929 32.8563 20.4123 34.272 19.8656C34.4097 19.8107 34.5267 19.7141 34.6069 19.5894C34.687 19.4648 34.7263 19.3182 34.7191 19.1701C36.1432 21.8528 38.9914 23.6743 42.1212 23.6743C42.6381 23.674 43.1538 23.6241 43.6612 23.5253C43.7383 26.1575 43.0849 28.7596 41.7734 31.0432Z" fill="white"/>
<path d="M43.9261 16.7856L42.5186 18.3422L41.0945 16.7856H41.111C41.2955 16.7856 41.4724 16.7124 41.6028 16.5819C41.7333 16.4515 41.8065 16.2746 41.8065 16.0902V12H43.2141V16.0902C43.2141 16.2746 43.2874 16.4515 43.4178 16.5819C43.5482 16.7124 43.7251 16.7856 43.9096 16.7856H43.9261Z" fill="white"/>
<path d="M44.1911 21.3063C43.7116 21.4051 43.2234 21.455 42.7338 21.4554C41.0756 21.4495 39.4732 20.8555 38.2117 19.779C36.9503 18.7026 36.1117 17.2135 35.8452 15.5768C37.0871 14.9807 38.2297 14.6826 39.2067 14.6826C39.6156 14.6773 40.0231 14.7331 40.4155 14.8482V15.3946H39.5213C39.3854 15.3948 39.2523 15.4339 39.1379 15.5072C39.0235 15.5806 38.9324 15.6852 38.8755 15.8086C38.8272 15.9331 38.814 16.0684 38.8374 16.1998C38.8608 16.3312 38.9198 16.4536 39.008 16.5538L42.0052 19.8491C42.1411 19.986 42.3257 20.0634 42.5186 20.0644C42.7107 20.06 42.8941 19.9831 43.0319 19.8491L43.7605 19.0377C43.9583 19.7826 44.1022 20.5408 44.1911 21.3063Z" fill="white"/>
</svg>
