<svg width="21" height="20" viewBox="0 0 21 20" fill="none" xmlns="http://www.w3.org/2000/svg">
<path d="M2.16699 10C2.16699 6.85734 2.16699 5.286 3.1433 4.30968C4.11961 3.33337 5.69096 3.33337 8.83366 3.33337H12.167C15.3097 3.33337 16.881 3.33337 17.8573 4.30968C18.8337 5.286 18.8337 6.85734 18.8337 10C18.8337 13.1427 18.8337 14.7141 17.8573 15.6904C16.881 16.6667 15.3097 16.6667 12.167 16.6667H8.83366C5.69096 16.6667 4.11961 16.6667 3.1433 15.6904C2.16699 14.7141 2.16699 13.1427 2.16699 10Z" stroke="white" stroke-width="1.5"/>
<path d="M5.5 6.66663L7.29908 8.16586C8.82961 9.4413 9.59488 10.079 10.5 10.079C11.4051 10.079 12.1704 9.4413 13.7009 8.16586L15.5 6.66663" stroke="white" stroke-width="1.5" stroke-linecap="round"/>
</svg>
