<svg width="183" height="60" viewBox="0 0 183 60" fill="none" xmlns="http://www.w3.org/2000/svg">
<g clip-path="url(#clip0_705_8513)">
<path d="M177.163 36.6687L182.236 40.0505C180.589 42.4755 176.651 46.6362 169.843 46.6362C161.389 46.6362 155.093 40.0952 155.093 31.7741C155.093 22.9194 161.456 16.9123 169.131 16.9123C176.851 16.9123 180.633 23.0527 181.857 26.3677L182.525 28.0587L162.635 36.2905C164.148 39.2719 166.506 40.7848 169.843 40.7848C173.181 40.7848 175.494 39.1384 177.163 36.6687ZM161.567 31.3073L174.849 25.7894C174.115 23.943 171.935 22.6305 169.331 22.6305C166.017 22.6305 161.411 25.5673 161.567 31.3073Z" fill="#FF302F"/>
<path d="M145.504 1.76117H151.911V45.279H145.504V1.76117Z" fill="#20B15A"/>
<path d="M135.403 18.0691H141.588V44.5001C141.588 55.4684 135.114 59.9848 127.46 59.9848C120.252 59.9848 115.914 55.1348 114.29 51.1969L119.963 48.8384C120.986 51.2634 123.456 54.1337 127.46 54.1337C132.377 54.1337 135.403 51.0855 135.403 45.3901V43.2544H135.181C133.712 45.0341 130.909 46.6359 127.349 46.6359C119.918 46.6359 113.11 40.1616 113.11 31.8187C113.11 23.4309 119.918 16.8901 127.349 16.8901C130.887 16.8901 133.712 18.4698 135.181 20.2051H135.403V18.0691ZM135.848 31.8187C135.848 26.568 132.355 22.7412 127.905 22.7412C123.411 22.7412 119.629 26.568 119.629 31.8187C119.629 37.0023 123.411 40.7623 127.905 40.7623C132.355 40.7848 135.848 37.0023 135.848 31.8187" fill="#3686F7"/>
<path d="M77.9357 31.7073C77.9357 40.273 71.2614 46.5691 63.0739 46.5691C54.8868 46.5691 48.2122 40.2509 48.2122 31.7073C48.2122 23.0973 54.8868 16.8234 63.0739 16.8234C71.2614 16.8234 77.9357 23.0973 77.9357 31.7073ZM71.4393 31.7073C71.4393 26.368 67.5679 22.6966 63.0739 22.6966C58.58 22.6966 54.7086 26.368 54.7086 31.7073C54.7086 37.0023 58.58 40.718 63.0739 40.718C67.5682 40.718 71.4393 37.0023 71.4393 31.7073Z" fill="#FF302F"/>
<path d="M110.396 31.7741C110.396 40.3398 103.722 46.6359 95.5344 46.6359C87.3469 46.6359 80.6726 40.3394 80.6726 31.7741C80.6726 23.1641 87.3469 16.9123 95.5344 16.9123C103.722 16.9123 110.396 23.1419 110.396 31.7741ZM103.877 31.7741C103.877 26.4348 100.006 22.7634 95.5119 22.7634C91.0176 22.7634 87.1465 26.4348 87.1465 31.7741C87.1465 37.0691 91.018 40.7848 95.5119 40.7848C100.028 40.7848 103.877 37.0469 103.877 31.7741Z" fill="#FFBA40"/>
<path d="M23.7835 40.1173C14.4614 40.1173 7.16423 32.5973 7.16423 23.2751C7.16423 13.9534 14.4614 6.43336 23.7835 6.43336C28.8117 6.43336 32.4824 8.41336 35.1967 10.9498L39.6689 6.478C35.8867 2.85157 30.8364 0.0922852 23.7835 0.0922852C11.0132 0.0926423 0.26709 10.5051 0.26709 23.2751C0.26709 36.0451 11.0132 46.458 23.7835 46.458C30.6807 46.458 35.8867 44.1887 39.9582 39.9616C44.1407 35.7787 45.431 29.9051 45.431 25.1441C45.431 23.6534 45.2532 22.1184 45.0528 20.9837H23.7835V27.1687H38.9346C38.4896 31.0401 37.266 33.6876 35.4639 35.4894C33.2835 37.6923 29.8353 40.1173 23.7835 40.1173Z" fill="#3686F7"/>
</g>
<defs>
<clipPath id="clip0_705_8513">
<rect width="182.86" height="60" fill="white"/>
</clipPath>
</defs>
</svg>
