<svg width="40" height="40" viewBox="0 0 40 40" fill="none" xmlns="http://www.w3.org/2000/svg">
<g clip-path="url(#clip0_915_39286)">
<path d="M23.7617 9.375L14.9583 18.1791L6.15488 26.9831C6.0663 27.072 6.00234 27.1841 5.97188 27.3047L4.02033 35.1378C3.96195 35.3736 4.03124 35.6244 4.20333 35.7964C4.33353 35.9267 4.51094 35.9987 4.69242 35.9987C4.748 35.9987 4.80486 35.9919 4.86019 35.9779L12.6933 34.0261C12.8154 33.9957 12.9263 33.932 13.0149 33.8434L30.6233 16.2365L23.7617 9.375Z" fill="white"/>
<path d="M34.9847 6.97314L33.0248 5.01321C31.7149 3.70329 29.4318 3.70456 28.1235 5.01321L25.7227 7.41401L32.5839 14.2753L34.9847 11.8745C35.639 11.2204 35.9995 10.3498 35.9995 9.42394C35.9995 8.49803 35.639 7.62746 34.9847 6.97314Z" fill="white"/>
<rect x="27.3633" y="6" width="9.4926" height="9" transform="rotate(45 27.3633 6)" fill="white"/>
</g>
<defs>
<clipPath id="clip0_915_39286">
<rect width="32" height="32" fill="white" transform="translate(4 4)"/>
</clipPath>
</defs>
</svg>
