<svg width="162" height="157" viewBox="0 0 162 157" fill="none" xmlns="http://www.w3.org/2000/svg">
<rect x="3" y="1" width="155" height="155" rx="77.5" stroke="white" stroke-width="2"/>
<path d="M9.5153 88.3548C9.47144 88.1311 9.51104 87.9276 9.63412 87.7445C9.7572 87.5614 9.9306 87.448 10.1543 87.4041L20.8763 85.3022C21.1 85.2584 21.3034 85.298 21.4865 85.421C21.6814 85.5418 21.8008 85.7141 21.8446 85.9378L22.5406 89.4882C22.8038 90.8307 22.7263 92.0259 22.3081 93.0739C21.904 94.1314 21.2771 94.988 20.4273 95.6437C19.5776 96.2995 18.6346 96.7289 17.5983 96.932C16.562 97.1352 15.5267 97.0936 14.4923 96.8072C13.4579 96.5209 12.5481 95.9655 11.7628 95.1412C10.9916 94.3263 10.4745 93.2477 10.2113 91.9052L9.5153 88.3548ZM11.6746 91.4166C11.8639 92.3822 12.2245 93.192 12.7562 93.8459C13.2997 94.4975 13.9581 94.9554 14.7313 95.2196C15.5164 95.4815 16.3682 95.5224 17.2867 95.3423C18.2052 95.1622 18.9726 94.8039 19.5889 94.2673C20.2169 93.7284 20.6537 93.0559 20.8992 92.2496C21.1564 91.441 21.1904 90.5539 21.0011 89.5883L20.5025 87.0447L11.176 88.873L11.6746 91.4166Z" fill="white"/>
<path d="M14.2564 108.476C13.6327 107.151 13.5191 105.938 13.9154 104.836C14.3278 103.74 15.2179 102.87 16.5858 102.226C17.3567 101.863 18.1342 101.669 18.9185 101.645C19.7028 101.62 20.4339 101.806 21.1116 102.204C21.7894 102.601 22.3302 103.228 22.734 104.086C23.1123 104.889 23.2495 105.673 23.1456 106.439C23.0525 107.199 22.7627 107.879 22.2762 108.479C21.8005 109.075 21.1935 109.546 20.4553 109.894C20.249 109.991 20.0421 110.002 19.8345 109.928C19.632 109.864 19.4771 109.718 19.3697 109.49L16.7702 103.969C16.0511 104.414 15.5924 104.975 15.3939 105.652C15.1954 106.329 15.2981 107.096 15.702 107.954C15.9167 108.41 16.1467 108.786 16.392 109.082C16.6425 109.388 16.9258 109.666 17.242 109.915C17.3263 109.981 17.394 110.069 17.4452 110.177C17.527 110.351 17.5388 110.531 17.4807 110.718C17.4227 110.904 17.3013 111.041 17.1168 111.128C16.8779 111.24 16.6106 111.194 16.3149 110.988C15.8766 110.677 15.5007 110.343 15.187 109.987C14.8733 109.631 14.5631 109.127 14.2564 108.476ZM20.2374 108.206C20.754 107.923 21.1327 107.572 21.3734 107.154C21.6192 106.746 21.7392 106.325 21.7333 105.89C21.7383 105.45 21.6539 105.045 21.4801 104.676C21.3063 104.307 21.0482 103.984 20.7058 103.708C20.3742 103.426 19.9731 103.25 19.5023 103.18C19.0316 103.11 18.5226 103.184 17.9753 103.402L20.2374 108.206Z" fill="white"/>
<path d="M20.9168 117.184C20.7767 117.004 20.7202 116.805 20.7473 116.586C20.7745 116.367 20.8779 116.187 21.0578 116.047L27.1485 111.3C27.3283 111.16 27.5277 111.104 27.7466 111.131C27.975 111.151 28.1593 111.25 28.2995 111.43C28.4396 111.61 28.4914 111.813 28.4548 112.039C28.435 112.268 28.3352 112.452 28.1554 112.592L27.5733 113.046C28.2511 113.096 28.8706 113.237 29.4318 113.469C29.993 113.701 30.4949 114.101 30.9375 114.669C31.3433 115.189 31.5706 115.735 31.6196 116.305C31.6759 116.885 31.5686 117.44 31.2976 117.971C31.034 118.511 30.6466 118.98 30.1355 119.379L26.1034 122.521C25.9236 122.661 25.7205 122.713 25.4942 122.677C25.2752 122.649 25.0957 122.546 24.9555 122.366C24.8154 122.186 24.7589 121.987 24.786 121.768C24.8132 121.549 24.9167 121.369 25.0965 121.229L28.9866 118.197C30.1413 117.298 30.313 116.327 29.5015 115.286C29.1327 114.813 28.6777 114.483 28.1365 114.296C27.6028 114.118 26.9986 114.026 26.3239 114.02L22.0647 117.339C21.8849 117.479 21.6818 117.531 21.4555 117.494C21.2365 117.467 21.057 117.364 20.9168 117.184Z" fill="white"/>
<path d="M33.5228 130.717C32.2039 129.563 32.0659 128.391 33.1086 127.198L36.7818 122.998L35.8198 122.156C35.7475 122.093 35.7041 122.015 35.6894 121.923C35.6916 121.829 35.7243 121.746 35.7875 121.674C35.8665 121.584 35.9743 121.542 36.1109 121.55L39.5296 121.36C39.682 121.349 39.7943 121.376 39.8666 121.439C39.9388 121.502 39.9739 121.581 39.9716 121.674C39.9784 121.776 39.9502 121.863 39.887 121.935L38.9391 123.019L40.4702 124.358C40.6238 124.492 40.7068 124.653 40.7193 124.839C40.7318 125.025 40.6709 125.195 40.5366 125.349C40.4102 125.493 40.2499 125.576 40.0557 125.598C39.8695 125.61 39.6996 125.549 39.546 125.415L38.0149 124.076L34.4364 128.168C34.1283 128.52 34.0122 128.817 34.0879 129.059C34.1805 129.299 34.3533 129.53 34.6062 129.751C34.7869 129.909 34.9912 130.04 35.2193 130.144C35.2633 130.167 35.3074 130.189 35.3514 130.212C35.4045 130.242 35.4626 130.285 35.5258 130.34C35.6523 130.451 35.7218 130.599 35.7342 130.786C35.7546 130.963 35.7056 131.119 35.5871 131.255C35.4054 131.462 35.1633 131.53 34.8607 131.456C34.3662 131.311 33.9202 131.064 33.5228 130.717Z" fill="white"/>
<path d="M43.9686 135.1C43.5147 134.83 43.147 134.486 42.8654 134.067C42.5942 133.654 42.4493 133.205 42.4309 132.72C42.4186 132.224 42.5505 131.744 42.8264 131.28C43.2803 130.516 43.9412 130.086 44.8093 129.987C45.6877 129.895 46.7096 130.196 47.8752 130.889L49.7473 132.002L49.8209 131.878C50.2257 131.197 50.3468 130.606 50.1842 130.105C50.032 129.609 49.6 129.15 48.8883 128.727C48.4964 128.494 48.1273 128.316 47.781 128.194C47.4451 128.078 47.0547 127.972 46.6098 127.875C46.515 127.846 46.4418 127.817 46.3902 127.786C46.2355 127.694 46.1352 127.558 46.0891 127.377C46.0431 127.196 46.0692 127.023 46.1673 126.858C46.3329 126.579 46.5835 126.463 46.9191 126.509C48.0167 126.659 49.0193 127.004 49.927 127.544C50.6387 127.967 51.1511 128.467 51.4641 129.044C51.7875 129.627 51.9247 130.218 51.8757 130.817C51.8431 131.412 51.6673 131.978 51.3484 132.514L48.7452 136.893C48.6287 137.089 48.4583 137.211 48.2342 137.259C48.0204 137.313 47.8155 137.282 47.6195 137.166C47.4235 137.049 47.2984 136.884 47.244 136.67C47.1896 136.457 47.2207 136.252 47.3372 136.056L47.5764 135.653C46.347 135.983 45.1444 135.799 43.9686 135.1ZM45.2305 134.175C45.6844 134.445 46.1871 134.597 46.7388 134.632C47.2966 134.656 47.8181 134.589 48.3031 134.431L49.0758 133.131L47.3894 132.129C45.8318 131.203 44.8109 131.147 44.3264 131.962C44.1056 132.333 44.0515 132.706 44.1642 133.08C44.2871 133.46 44.6426 133.825 45.2305 134.175Z" fill="white"/>
<path d="M56.6557 141.731C56.4438 141.647 56.294 141.503 56.2065 141.301C56.1189 141.098 56.1171 140.891 56.2011 140.679L60.505 129.819C60.589 129.607 60.7322 129.457 60.9347 129.37C61.1416 129.271 61.3511 129.264 61.563 129.348C61.7861 129.436 61.9415 129.582 62.029 129.784C62.1166 129.987 62.1162 130.199 62.0277 130.422L57.7239 141.283C57.6399 141.495 57.4911 141.642 57.2774 141.725C57.0749 141.813 56.8677 141.815 56.6557 141.731Z" fill="white"/>
<path d="M82.2462 146.373C80.989 146.289 79.9056 145.941 78.9962 145.327C78.0867 144.714 77.4067 143.905 76.9561 142.901C76.5055 141.897 76.3098 140.766 76.3692 139.507C76.4764 138.251 76.8196 137.156 77.3987 136.22C77.9778 135.284 78.7586 134.572 79.741 134.084C80.7234 133.596 81.8433 133.394 83.1005 133.477C84.3578 133.56 85.4351 133.908 86.3326 134.521C87.242 135.134 87.9217 135.949 88.3715 136.965C88.8341 137.97 89.0361 139.095 88.9775 140.342C88.8711 141.586 88.5219 142.681 87.93 143.628C87.3509 144.564 86.5701 145.276 85.5877 145.764C84.6173 146.253 83.5034 146.456 82.2462 146.373ZM82.3473 144.846C83.3052 144.909 84.1517 144.749 84.8867 144.365C85.6217 143.98 86.1994 143.429 86.6198 142.712C87.0401 141.994 87.2813 141.168 87.3431 140.234C87.405 139.3 87.2749 138.45 86.9529 137.683C86.6309 136.916 86.131 136.293 85.4531 135.815C84.7752 135.338 83.9573 135.067 82.9994 135.003C82.0295 134.939 81.1771 135.099 80.4421 135.484C79.719 135.869 79.1473 136.42 78.727 137.138C78.3066 137.856 78.0655 138.681 78.0036 139.615C77.9417 140.549 78.0718 141.4 78.3938 142.167C78.7158 142.934 79.2098 143.556 79.8757 144.033C80.5536 144.511 81.3775 144.782 82.3473 144.846Z" fill="white"/>
<path d="M97.1499 149.328C96.9266 149.373 96.7216 149.33 96.5351 149.196C96.351 149.075 96.2361 148.902 96.1904 148.679L93.8117 137.058C93.766 136.835 93.8039 136.631 93.9254 136.447C94.047 136.263 94.2194 136.148 94.4428 136.102C94.6662 136.056 94.8699 136.094 95.054 136.216C95.2499 136.335 95.3707 136.506 95.4164 136.729L95.5103 137.188C96.1856 136.119 97.0993 135.466 98.2514 135.231C98.9803 135.081 99.7066 135.129 100.43 135.373C101.163 135.602 101.803 136.035 102.349 136.67C102.905 137.291 103.281 138.078 103.475 139.03C103.67 139.982 103.635 140.859 103.371 141.661C103.115 142.448 102.697 143.097 102.116 143.608C101.544 144.105 100.893 144.428 100.164 144.577C99.0124 144.813 97.9158 144.572 96.8747 143.854L97.7951 148.351C97.8432 148.586 97.8065 148.795 97.685 148.979C97.5634 149.164 97.3851 149.28 97.1499 149.328ZM99.6284 143.125C100.498 142.947 101.141 142.527 101.557 141.866C101.973 141.206 102.078 140.37 101.871 139.359C101.664 138.348 101.239 137.62 100.597 137.176C99.955 136.731 99.1989 136.598 98.329 136.776C97.7882 136.887 97.3021 137.115 96.8706 137.461C96.4485 137.792 96.0961 138.195 95.8135 138.669L96.5715 142.372C97.0177 142.698 97.5012 142.935 98.022 143.086C98.5522 143.223 99.0876 143.235 99.6284 143.125Z" fill="white"/>
<path d="M112.19 139.471C111.591 139.749 111.003 139.851 110.426 139.775C109.859 139.694 109.342 139.465 108.875 139.086C108.419 138.703 108.054 138.217 107.781 137.629L105.628 132.993C105.531 132.787 105.521 132.58 105.597 132.372C105.684 132.16 105.83 132.006 106.037 131.91C106.244 131.814 106.451 131.804 106.658 131.879C106.865 131.955 107.017 132.096 107.113 132.303L109.191 136.776C109.808 138.104 110.715 138.489 111.912 137.933C112.456 137.68 112.875 137.314 113.168 136.834C113.472 136.349 113.703 135.778 113.861 135.122L111.586 130.225C111.49 130.018 111.48 129.811 111.555 129.604C111.642 129.392 111.789 129.238 111.996 129.142C112.202 129.046 112.409 129.035 112.616 129.111C112.824 129.187 112.975 129.328 113.071 129.535L116.325 136.538C116.421 136.745 116.434 136.957 116.363 137.175C116.287 137.382 116.146 137.534 115.939 137.63C115.733 137.726 115.52 137.739 115.302 137.668C115.09 137.582 114.936 137.435 114.84 137.228L114.529 136.559C114.327 137.208 114.051 137.78 113.698 138.274C113.346 138.769 112.843 139.168 112.19 139.471Z" fill="white"/>
<path d="M121.409 135.287C121.222 135.416 121.019 135.461 120.802 135.421C120.585 135.38 120.412 135.266 120.283 135.079L113.667 125.451C113.538 125.263 113.493 125.061 113.533 124.844C113.567 124.617 113.677 124.439 113.865 124.31C114.063 124.174 114.271 124.126 114.487 124.166C114.704 124.206 114.881 124.325 115.017 124.523L121.633 134.151C121.762 134.339 121.802 134.545 121.752 134.768C121.711 134.985 121.597 135.158 121.409 135.287Z" fill="white"/>
<path d="M130.144 127.003C129.085 128.013 127.97 128.505 126.799 128.477C125.629 128.433 124.522 127.864 123.478 126.77C122.89 126.153 122.46 125.477 122.189 124.741C121.918 124.004 121.863 123.252 122.026 122.483C122.188 121.715 122.612 121.003 123.298 120.349C123.94 119.736 124.641 119.358 125.4 119.214C126.15 119.062 126.887 119.122 127.611 119.393C128.326 119.656 128.965 120.083 129.529 120.673C129.686 120.838 129.762 121.031 129.757 121.252C129.76 121.464 129.671 121.657 129.489 121.831L125.074 126.043C125.723 126.585 126.4 126.843 127.106 126.817C127.811 126.791 128.506 126.451 129.192 125.796C129.557 125.448 129.84 125.111 130.043 124.785C130.255 124.45 130.429 124.094 130.565 123.715C130.601 123.614 130.663 123.522 130.75 123.439C130.889 123.307 131.056 123.239 131.251 123.235C131.446 123.231 131.614 123.303 131.755 123.45C131.937 123.641 131.978 123.909 131.876 124.255C131.72 124.769 131.522 125.231 131.284 125.642C131.045 126.052 130.665 126.506 130.144 127.003ZM127.996 121.414C127.564 121.013 127.112 120.765 126.639 120.669C126.174 120.565 125.737 120.584 125.326 120.728C124.907 120.862 124.55 121.07 124.255 121.352C123.959 121.633 123.735 121.98 123.581 122.393C123.419 122.796 123.379 123.232 123.461 123.701C123.543 124.17 123.775 124.629 124.154 125.08L127.996 121.414Z" fill="white"/>
<path d="M137.288 118.668C137.162 118.858 136.991 118.975 136.775 119.018C136.558 119.062 136.355 119.02 136.165 118.894L129.736 114.618C129.546 114.491 129.429 114.32 129.386 114.104C129.332 113.881 129.369 113.675 129.495 113.485C129.621 113.295 129.797 113.182 130.024 113.145C130.247 113.091 130.453 113.128 130.643 113.254L131.257 113.663C131.09 113.004 131.028 112.371 131.07 111.766C131.113 111.16 131.334 110.557 131.732 109.958C132.098 109.408 132.543 109.02 133.069 108.793C133.601 108.556 134.162 108.482 134.751 108.572C135.347 108.651 135.915 108.87 136.454 109.229L140.711 112.06C140.901 112.186 141.014 112.362 141.051 112.588C141.094 112.805 141.053 113.008 140.927 113.198C140.801 113.387 140.629 113.504 140.413 113.548C140.197 113.591 139.994 113.55 139.804 113.423L135.697 110.692C134.478 109.881 133.503 110.026 132.772 111.125C132.44 111.624 132.271 112.16 132.265 112.733C132.265 113.295 132.369 113.898 132.576 114.54L137.073 117.53C137.262 117.656 137.376 117.833 137.413 118.059C137.456 118.275 137.415 118.478 137.288 118.668Z" fill="white"/>
<path d="M146.114 104.226C145.801 105.031 145.333 105.705 144.71 106.249C144.087 106.792 143.359 107.14 142.528 107.293C141.7 107.435 140.833 107.33 139.927 106.978C139.021 106.626 138.311 106.118 137.796 105.454C137.286 104.78 136.984 104.032 136.892 103.21C136.799 102.389 136.909 101.576 137.222 100.77C137.452 100.178 137.728 99.699 138.05 99.3349C138.365 98.9551 138.712 98.6264 139.09 98.3485C139.322 98.1813 139.561 98.1455 139.807 98.2412C139.975 98.3064 140.106 98.4343 140.199 98.625C140.285 98.8002 140.296 98.9717 140.231 99.1395C140.183 99.2625 140.102 99.3725 139.987 99.4695C139.653 99.7647 139.395 100.031 139.212 100.269C139.023 100.492 138.852 100.799 138.7 101.19C138.326 102.152 138.313 103.016 138.659 103.781C138.994 104.542 139.614 105.099 140.52 105.451C141.426 105.803 142.266 105.814 143.038 105.483C143.799 105.148 144.366 104.499 144.74 103.537C144.892 103.146 144.979 102.806 145.001 102.519C145.016 102.215 145 101.842 144.953 101.399C144.934 101.25 144.948 101.114 144.996 100.991C145.061 100.823 145.19 100.706 145.383 100.64C145.57 100.558 145.747 100.549 145.915 100.614C146.161 100.71 146.313 100.898 146.371 101.178C146.463 101.638 146.502 102.117 146.489 102.614C146.469 103.096 146.344 103.633 146.114 104.226Z" fill="white"/>
<path d="M150.598 92.4947C150.362 93.9396 149.769 95.004 148.818 95.6879C147.858 96.358 146.631 96.5713 145.139 96.3279C144.298 96.1907 143.548 95.9102 142.887 95.4864C142.227 95.0625 141.73 94.4951 141.396 93.784C141.062 93.073 140.971 92.2497 141.124 91.314C141.267 90.4376 141.598 89.7135 142.117 89.1415C142.624 88.5677 143.248 88.171 143.989 87.9514C144.718 87.7299 145.485 87.6848 146.291 87.8162C146.516 87.8529 146.693 87.9608 146.821 88.1399C146.952 88.3071 146.997 88.5151 146.957 88.7638L145.974 94.7862C146.819 94.8267 147.514 94.6241 148.061 94.1783C148.608 93.7325 148.958 93.0419 149.111 92.1062C149.192 91.6088 149.215 91.1688 149.18 90.7862C149.147 90.3917 149.071 90.0024 148.951 89.6181C148.919 89.5156 148.913 89.4051 148.932 89.2867C148.963 89.0972 149.055 88.942 149.209 88.8212C149.362 88.7003 149.54 88.6563 149.741 88.6891C150.002 88.7316 150.196 88.9213 150.323 89.2582C150.508 89.7626 150.629 90.2505 150.686 90.7218C150.743 91.1931 150.713 91.7841 150.598 92.4947ZM145.515 89.331C144.928 89.2719 144.418 89.3467 143.982 89.5553C143.549 89.7521 143.212 90.0314 142.97 90.3933C142.717 90.7532 142.558 91.1345 142.492 91.5372C142.426 91.9399 142.456 92.3521 142.582 92.7738C142.696 93.1936 142.927 93.5657 143.275 93.89C143.624 94.2143 144.085 94.4416 144.66 94.5718L145.515 89.331Z" fill="white"/>
<path d="M19.0388 71.454C18.9753 71.6729 18.8468 71.8356 18.6535 71.9419C18.4602 72.0483 18.2541 72.0697 18.0352 72.0061L7.54204 68.9611C7.32307 68.8976 7.16042 68.7692 7.05408 68.5759C6.93621 68.3792 6.90904 68.1714 6.97259 67.9525L7.9809 64.4778C8.36216 63.164 8.97876 62.1372 9.83071 61.3973C10.6745 60.6425 11.6242 60.1684 12.68 59.975C13.7357 59.7816 14.7707 59.832 15.7848 60.1263C16.799 60.4206 17.7002 60.932 18.4884 61.6605C19.2766 62.3891 19.8308 63.2996 20.151 64.3921C20.463 65.4698 20.4284 66.6655 20.0471 67.9793L19.0388 71.454ZM18.5226 67.7431C18.7968 66.798 18.8474 65.9131 18.6745 65.0882C18.49 64.26 18.1146 63.5513 17.5484 62.9621C16.9706 62.3696 16.2323 61.943 15.3333 61.6821C14.4344 61.4213 13.5881 61.3881 12.7945 61.5826C11.9893 61.7738 11.2929 62.1715 10.7052 62.7756C10.106 63.3764 9.66934 64.1493 9.3951 65.0944L8.67273 67.5837L17.8002 70.2324L18.5226 67.7431Z" fill="white"/>
<path d="M25.0663 53.0581C24.3477 54.3336 23.4245 55.1289 22.2967 55.4439C21.1644 55.7426 19.9395 55.5208 18.6222 54.7787C17.8799 54.3605 17.2716 53.8388 16.7974 53.2136C16.3233 52.5884 16.0518 51.8845 15.983 51.102C15.9142 50.3195 16.1125 49.5153 16.5778 48.6893C17.0136 47.9157 17.5735 47.3496 18.2575 46.9912C18.931 46.6268 19.6534 46.4691 20.4247 46.518C21.1856 46.561 21.9215 46.7827 22.6325 47.1832C22.8311 47.2951 22.9601 47.4573 23.0195 47.6698C23.0847 47.8718 23.0555 48.0826 22.9318 48.3022L19.9368 53.6186C20.7158 53.9473 21.4387 53.9964 22.1056 53.7661C22.7725 53.5358 23.3386 53.0076 23.8039 52.1817C24.0513 51.7426 24.2245 51.3374 24.3234 50.9662C24.4282 50.5845 24.4906 50.1926 24.5105 49.7906C24.5158 49.6834 24.5479 49.5776 24.6068 49.473C24.701 49.3057 24.8409 49.1917 25.0266 49.1311C25.2123 49.0704 25.394 49.0901 25.5718 49.1903C25.8018 49.3198 25.9186 49.5647 25.9223 49.9249C25.9226 50.4622 25.8684 50.9619 25.7596 51.424C25.6508 51.8861 25.4197 52.4308 25.0663 53.0581ZM21.3825 48.3384C20.8526 48.0812 20.3473 47.9756 19.8669 48.0217C19.3923 48.0574 18.9794 48.2036 18.6282 48.4602C18.2665 48.711 17.9856 49.0141 17.7853 49.3696C17.5851 49.7251 17.4714 50.1225 17.4443 50.5617C17.4068 50.9951 17.4957 51.424 17.7112 51.8483C17.9266 52.2727 18.2817 52.6449 18.7763 52.9648L21.3825 48.3384Z" fill="white"/>
<path d="M30.8167 42.907C30.6662 43.0783 30.4809 43.1711 30.2608 43.1853C30.0406 43.1996 29.8449 43.1315 29.6736 42.9811L23.8715 37.8855C23.7002 37.735 23.6074 37.5497 23.5931 37.3296C23.5698 37.1015 23.6334 36.9018 23.7839 36.7305C23.9343 36.5592 24.1241 36.4703 24.3533 36.464C24.5814 36.4407 24.7811 36.5043 24.9524 36.6547L25.5069 37.1417C25.4291 36.4665 25.4517 35.8316 25.5747 35.2369C25.6977 34.6422 25.9968 34.0744 26.4719 33.5334C26.9074 33.0375 27.4008 32.7121 27.952 32.5573C28.511 32.3936 29.0766 32.3952 29.6486 32.5622C30.2286 32.7201 30.762 33.0129 31.2489 33.4405L35.0899 36.8138C35.2612 36.9643 35.35 37.1541 35.3564 37.3833C35.3707 37.6034 35.3026 37.7992 35.1521 37.9705C35.0017 38.1418 34.8164 38.2346 34.5962 38.2489C34.376 38.2631 34.1803 38.195 34.009 38.0446L30.3032 34.79C29.2032 33.824 28.2177 33.8368 27.3467 34.8287C26.9507 35.2795 26.7116 35.7882 26.6293 36.3547C26.5549 36.9122 26.5775 37.523 26.6971 38.187L30.7545 41.7503C30.9258 41.9008 31.0146 42.0906 31.021 42.3198C31.0352 42.5399 30.9671 42.7357 30.8167 42.907Z" fill="white"/>
<path d="M42.6146 32.4791C41.2437 33.5701 40.0651 33.4958 39.0788 32.2564L35.6041 27.8902L34.6041 28.6861C34.529 28.7458 34.4446 28.7747 34.3509 28.7726C34.2591 28.7536 34.1834 28.7065 34.1236 28.6314C34.0489 28.5375 34.0276 28.4241 34.0598 28.2911L34.4845 24.8935C34.5018 24.7418 34.548 24.636 34.6231 24.5762C34.6982 24.5164 34.7817 24.496 34.8734 24.515C34.9746 24.5265 35.0551 24.5698 35.1149 24.6449L36.0115 25.7717L37.6031 24.5051C37.7627 24.3781 37.9353 24.3251 38.1207 24.3462C38.3062 24.3673 38.4625 24.4577 38.5895 24.6173C38.7091 24.7675 38.762 24.9401 38.7484 25.1349C38.7273 25.3204 38.637 25.4767 38.4773 25.6037L36.8858 26.8703L40.2708 31.1237C40.5622 31.4899 40.8335 31.6574 41.0847 31.6262C41.3379 31.5781 41.5959 31.4495 41.8588 31.2403C42.0466 31.0908 42.2119 30.9132 42.3549 30.7074C42.385 30.6681 42.4151 30.6288 42.4452 30.5896C42.4846 30.5428 42.5372 30.4933 42.603 30.441C42.7344 30.3364 42.8929 30.2946 43.0784 30.3157C43.2564 30.3274 43.4014 30.4037 43.5135 30.5445C43.6854 30.7605 43.7082 31.0107 43.5819 31.2953C43.3502 31.7557 43.0278 32.1503 42.6146 32.4791Z" fill="white"/>
<path d="M51.3049 26.5534C50.842 26.8073 50.3587 26.9493 49.855 26.9793C49.3619 27.0034 48.9014 26.9002 48.4737 26.6695C48.0403 26.4282 47.6937 26.0709 47.4339 25.5975C47.0068 24.8189 46.9714 24.0308 47.3276 23.2331C47.6943 22.4297 48.4721 21.7018 49.661 21.0496L51.5705 20.002L51.5012 19.8757C51.1203 19.1814 50.6725 18.7769 50.1579 18.6623C49.6539 18.5419 49.0389 18.6808 48.313 19.0791C47.9132 19.2984 47.5728 19.5262 47.2918 19.7625C47.0213 19.993 46.7314 20.2753 46.4219 20.6093C46.3493 20.6765 46.2867 20.7246 46.234 20.7534C46.0762 20.84 45.9077 20.8572 45.7285 20.8049C45.5493 20.7527 45.4135 20.6424 45.3212 20.4741C45.1653 20.19 45.1924 19.9151 45.4025 19.6493C46.0889 18.78 46.8951 18.0913 47.8209 17.5834C48.5468 17.1851 49.2378 16.9976 49.8939 17.0209C50.5605 17.0384 51.1394 17.2204 51.6306 17.5669C52.1265 17.897 52.5246 18.3356 52.8247 18.8827L55.2749 23.3487C55.3846 23.5486 55.4033 23.7574 55.331 23.9749C55.2693 24.1867 55.1385 24.3475 54.9386 24.4571C54.7387 24.5668 54.5329 24.5908 54.3211 24.5291C54.1093 24.4673 53.9485 24.3365 53.8389 24.1366L53.6137 23.7263C53.2739 24.953 52.5043 25.8954 51.3049 26.5534ZM51.1488 24.9965C51.6118 24.7425 51.9983 24.3868 52.3084 23.9292C52.6128 23.4611 52.8199 22.9779 52.9298 22.4796L52.2025 21.154L50.4824 22.0977C48.8938 22.9693 48.3274 23.8206 48.7834 24.6518C48.9912 25.0305 49.2848 25.2663 49.6643 25.3593C50.0543 25.4464 50.5492 25.3255 51.1488 24.9965Z" fill="white"/>
<path d="M62.2179 22.7307C62.0039 22.8095 61.7968 22.8027 61.5965 22.7103C61.3962 22.6178 61.2566 22.4646 61.1778 22.2506L57.1396 11.2888C57.0608 11.0749 57.0676 10.8677 57.1601 10.6674C57.2484 10.4559 57.3995 10.3107 57.6134 10.2319C57.8386 10.1489 58.0514 10.1536 58.2517 10.2461C58.452 10.3386 58.5936 10.4974 58.6766 10.7226L62.7148 21.6844C62.7936 21.8984 62.7812 22.1076 62.6775 22.312C62.585 22.5123 62.4318 22.6519 62.2179 22.7307Z" fill="white"/>
<path d="M83.8321 18.6229C82.5745 18.7008 81.4555 18.4936 80.4752 18.0013C79.4949 17.509 78.7172 16.7937 78.142 15.8555C77.5669 14.9173 77.2284 13.8201 77.1265 12.564C77.0726 11.3049 77.273 10.1744 77.7279 9.17231C78.1828 8.17025 78.8663 7.36444 79.7784 6.75487C80.6904 6.1453 81.7752 5.80155 83.0328 5.72363C84.2904 5.6457 85.4034 5.85327 86.3717 6.34633C87.352 6.83864 88.1301 7.5599 88.706 8.51011C89.2931 9.44759 89.6372 10.5384 89.7384 11.7825C89.7916 13.0296 89.5851 14.1606 89.119 15.1753C88.6641 16.1774 87.9806 16.9832 87.0686 17.5928C86.1685 18.2016 85.0897 18.545 83.8321 18.6229ZM83.7375 17.0958C84.6956 17.0364 85.5147 16.7693 86.1946 16.2943C86.8745 15.8194 87.3771 15.1991 87.7024 14.4335C88.0277 13.6679 88.1614 12.818 88.1035 11.8838C88.0456 10.9496 87.808 10.1227 87.3907 9.40316C86.9734 8.68359 86.3981 8.13011 85.6647 7.74272C84.9314 7.35534 84.0856 7.19133 83.1274 7.2507C82.1573 7.31081 81.3323 7.57835 80.6523 8.05331C79.9844 8.52752 79.4878 9.14742 79.1625 9.913C78.8372 10.6786 78.7035 11.5285 78.7614 12.4627C78.8193 13.3969 79.0569 14.2238 79.4742 14.9434C79.8915 15.6629 80.4608 16.2168 81.1822 16.6049C81.9156 16.9923 82.7673 17.1559 83.7375 17.0958Z" fill="white"/>
<path d="M93.8441 22.42C93.6201 22.3772 93.4473 22.2586 93.3256 22.0643C93.2017 21.8818 93.1611 21.6785 93.2039 21.4546L95.431 9.80355C95.4738 9.5796 95.5865 9.40566 95.769 9.28173C95.9515 9.15779 96.1547 9.11722 96.3787 9.16003C96.6026 9.20284 96.7766 9.3155 96.9005 9.49801C97.0362 9.68278 97.0827 9.88714 97.0399 10.1111L96.952 10.5708C97.9837 9.83945 99.077 9.58419 100.232 9.80499C100.963 9.94467 101.616 10.2651 102.193 10.7661C102.783 11.2577 103.209 11.9013 103.473 12.6969C103.75 13.4829 103.798 14.3533 103.615 15.308C103.433 16.2627 103.066 17.0601 102.516 17.7003C101.98 18.3309 101.346 18.7717 100.614 19.0227C99.8962 19.2641 99.1717 19.315 98.441 19.1753C97.2859 18.9545 96.3638 18.314 95.6746 17.2538L94.8128 21.7621C94.7677 21.9979 94.6539 22.1777 94.4714 22.3016C94.2889 22.4256 94.0798 22.465 93.8441 22.42ZM98.4984 17.6286C99.3706 17.7953 100.125 17.6524 100.761 17.1998C101.397 16.7472 101.812 16.0141 102.006 15.0005C102.2 13.9868 102.085 13.1523 101.66 12.497C101.236 11.8416 100.587 11.4306 99.715 11.2638C99.1728 11.1602 98.6365 11.186 98.1059 11.3411C97.5894 11.4867 97.1101 11.725 96.6681 12.0559L95.9584 15.7687C96.2472 16.2392 96.6037 16.6434 97.0278 16.981C97.466 17.3091 97.9562 17.525 98.4984 17.6286Z" fill="white"/>
<path d="M107.831 22.4596C107.225 22.1984 106.757 21.8272 106.429 21.346C106.112 20.8695 105.939 20.331 105.91 19.7306C105.892 19.135 106.012 18.5396 106.268 17.9445L108.291 13.2498C108.381 13.0405 108.529 12.895 108.734 12.8135C108.95 12.7367 109.163 12.7434 109.372 12.8336C109.581 12.9239 109.727 13.0715 109.808 13.2765C109.89 13.4815 109.885 13.6887 109.795 13.8981L107.843 18.4274C107.264 19.7719 107.581 20.7053 108.793 21.2277C109.344 21.4652 109.896 21.5332 110.449 21.4319C111.014 21.3353 111.593 21.1277 112.188 20.809L114.325 15.8498C114.415 15.6404 114.562 15.495 114.767 15.4134C114.983 15.3366 115.196 15.3434 115.406 15.4336C115.615 15.5238 115.76 15.6714 115.842 15.8764C115.923 16.0814 115.919 16.2886 115.829 16.498L112.773 23.5896C112.683 23.799 112.533 23.95 112.323 24.0425C112.118 24.1241 111.911 24.1197 111.702 24.0295C111.492 23.9393 111.341 23.7893 111.249 23.5795C111.172 23.3635 111.179 23.1508 111.269 22.9414L111.561 22.2637C110.943 22.5461 110.332 22.7206 109.728 22.7871C109.124 22.8537 108.492 22.7445 107.831 22.4596Z" fill="white"/>
<path d="M115.556 29.1007C115.363 28.979 115.243 28.8105 115.194 28.5953C115.145 28.3801 115.182 28.1761 115.304 27.9833L121.541 18.106C121.663 17.9132 121.831 17.7925 122.047 17.7439C122.268 17.6851 122.475 17.7166 122.668 17.8384C122.871 17.9665 122.997 18.1382 123.045 18.3534C123.094 18.5686 123.054 18.7776 122.926 18.9806L116.689 28.8579C116.567 29.0507 116.393 29.1682 116.168 29.2104C115.953 29.259 115.749 29.2224 115.556 29.1007Z" fill="white"/>
<path d="M122.79 33.9549C121.682 32.9975 121.086 31.9349 121.001 30.767C120.933 29.5979 121.393 28.4413 122.382 27.2975C122.939 26.6529 123.571 26.1603 124.278 25.8196C124.985 25.4789 125.729 25.3525 126.509 25.4403C127.29 25.5282 128.039 25.8821 128.756 26.502C129.428 27.0827 129.871 27.7438 130.087 28.4853C130.31 29.2177 130.322 29.9571 130.121 30.7034C129.928 31.4406 129.564 32.1178 129.031 32.7352C128.882 32.9077 128.697 33.0019 128.477 33.0179C128.266 33.0418 128.065 32.9713 127.875 32.8065L123.258 28.8162C122.781 29.5144 122.59 30.2132 122.683 30.9126C122.777 31.6119 123.182 32.2716 123.899 32.8915C124.28 33.2211 124.643 33.4712 124.987 33.6419C125.341 33.8203 125.712 33.9592 126.102 34.0584C126.206 34.0849 126.304 34.1374 126.395 34.2158C126.54 34.3414 126.624 34.5012 126.646 34.6952C126.669 34.8893 126.614 35.0634 126.48 35.2178C126.308 35.4175 126.044 35.4834 125.691 35.4156C125.164 35.3093 124.685 35.1569 124.254 34.9586C123.822 34.7603 123.334 34.4257 122.79 33.9549ZM128.146 31.2809C128.504 30.8125 128.707 30.3383 128.758 29.8582C128.817 29.3859 128.755 28.9523 128.574 28.5571C128.4 28.1529 128.158 27.8174 127.85 27.5506C127.541 27.2838 127.174 27.0935 126.749 26.9798C126.332 26.857 125.894 26.8591 125.435 26.9861C124.976 27.113 124.541 27.3871 124.129 27.8084L128.146 31.2809Z" fill="white"/>
<path d="M128.519 41.7569C128.381 41.5755 128.327 41.3754 128.356 41.1568C128.386 40.9382 128.492 40.7599 128.673 40.6218L134.819 35.9463C135 35.8082 135.2 35.754 135.419 35.7837C135.647 35.8062 135.83 35.9081 135.968 36.0896C136.106 36.271 136.155 36.4747 136.116 36.7006C136.094 36.9287 135.992 37.1118 135.81 37.2499L135.223 37.6967C135.9 37.7545 136.518 37.9026 137.077 38.1412C137.635 38.3798 138.132 38.7856 138.568 39.3586C138.968 39.8838 139.189 40.4319 139.231 41.0029C139.281 41.5833 139.167 42.1373 138.89 42.6648C138.62 43.2019 138.227 43.6666 137.711 44.059L133.643 47.1542C133.461 47.2923 133.258 47.3417 133.032 47.3024C132.813 47.2727 132.635 47.1672 132.497 46.9857C132.359 46.8042 132.305 46.6042 132.334 46.3856C132.364 46.167 132.47 45.9887 132.651 45.8506L136.576 42.8644C137.741 41.9779 137.924 41.0094 137.125 39.9589C136.762 39.4814 136.311 39.1461 135.772 38.953C135.24 38.7694 134.637 38.6704 133.962 38.6558L129.665 41.9255C129.483 42.0635 129.28 42.1129 129.054 42.0737C128.835 42.044 128.657 41.9384 128.519 41.7569Z" fill="white"/>
<path d="M136.773 58.1966C136.399 57.4179 136.226 56.6155 136.255 55.7894C136.284 54.9633 136.527 54.1942 136.983 53.4821C137.445 52.7808 138.114 52.2196 138.99 51.7986C139.866 51.3775 140.722 51.2056 141.558 51.2831C142.4 51.3713 143.152 51.6621 143.815 52.1555C144.478 52.6489 144.997 53.285 145.371 54.0637C145.647 54.6369 145.808 55.1654 145.854 55.6492C145.916 56.1385 145.919 56.6163 145.864 57.0824C145.827 57.3662 145.69 57.5654 145.452 57.6797C145.29 57.7577 145.107 57.7656 144.904 57.7034C144.717 57.6468 144.585 57.5374 144.507 57.3752C144.449 57.2562 144.425 57.1216 144.432 56.9715C144.445 56.5262 144.426 56.1556 144.377 55.8596C144.344 55.5693 144.237 55.2348 144.055 54.8563C143.608 53.9262 142.986 53.3261 142.191 53.0561C141.406 52.7808 140.576 52.8538 139.7 53.2749C138.824 53.696 138.243 54.3014 137.957 55.0913C137.681 55.876 137.767 56.7334 138.214 57.6636C138.396 58.0421 138.585 58.3376 138.78 58.5499C138.992 58.7679 139.275 59.0112 139.63 59.2797C139.752 59.3675 139.842 59.4708 139.899 59.5898C139.977 59.752 139.974 59.9264 139.891 60.113C139.824 60.3052 139.709 60.4402 139.547 60.5182C139.309 60.6326 139.067 60.6154 138.823 60.4667C138.424 60.2189 138.048 59.9206 137.694 59.5715C137.355 59.2281 137.049 58.7698 136.773 58.1966Z" fill="white"/>
<path d="M141.211 71.0185C140.845 69.601 140.96 68.3879 141.555 67.3792C142.164 66.3792 143.201 65.6902 144.665 65.3123C145.49 65.0993 146.29 65.0539 147.065 65.1761C147.84 65.2982 148.523 65.6175 149.115 66.134C149.707 66.6505 150.122 67.3677 150.358 68.2856C150.58 69.1454 150.569 69.9415 150.324 70.6739C150.091 71.4033 149.68 72.0177 149.09 72.5169C148.511 73.0132 147.827 73.3634 147.037 73.5673C146.816 73.6243 146.611 73.5968 146.421 73.4847C146.234 73.3843 146.109 73.212 146.046 72.968L144.521 67.0597C143.731 67.3626 143.176 67.8281 142.855 68.4564C142.534 69.0846 142.492 69.8576 142.729 70.7755C142.855 71.2635 143.011 71.6756 143.196 72.0118C143.385 72.3597 143.612 72.6854 143.876 72.989C143.947 73.0699 143.997 73.1685 144.027 73.2847C144.075 73.4706 144.053 73.6497 143.961 73.8222C143.869 73.9946 143.725 74.1063 143.527 74.1573C143.272 74.2233 143.018 74.1277 142.765 73.8706C142.393 73.4834 142.086 73.0856 141.844 72.677C141.602 72.2685 141.391 71.7157 141.211 71.0185ZM147.138 71.8683C147.698 71.6864 148.135 71.4124 148.45 71.0462C148.767 70.6916 148.964 70.3001 149.039 69.8717C149.126 69.4403 149.118 69.027 149.016 68.632C148.914 68.2369 148.721 67.8717 148.436 67.5362C148.163 67.1978 147.802 66.9502 147.352 66.7936C146.903 66.6369 146.389 66.6147 145.811 66.7268L147.138 71.8683Z" fill="white"/>
<path d="M13.3329 80.022C12.5949 80.022 12.0009 79.428 12.0009 78.708C12.0009 77.952 12.5949 77.376 13.3329 77.376C14.0889 77.376 14.6469 77.952 14.6469 78.708C14.6469 79.428 14.0889 80.022 13.3329 80.022Z" fill="white"/>
<path d="M148.333 82.022C147.595 82.022 147.001 81.428 147.001 80.708C147.001 79.952 147.595 79.376 148.333 79.376C149.089 79.376 149.647 79.952 149.647 80.708C149.647 81.428 149.089 82.022 148.333 82.022Z" fill="white"/>
</svg>
