<svg width="162" height="157" viewBox="0 0 162 157" fill="none" xmlns="http://www.w3.org/2000/svg">
<rect x="3" y="1" width="155" height="155" rx="77.5" stroke="white" stroke-width="2"/>
<path d="M9.51628 88.3548C9.47241 88.1311 9.51202 87.9276 9.6351 87.7445C9.75817 87.5614 9.93158 87.448 10.1553 87.4041L20.8772 85.3022C21.101 85.2584 21.3044 85.298 21.4875 85.421C21.6824 85.5418 21.8017 85.7141 21.8456 85.9378L22.5416 89.4882C22.8048 90.8307 22.7273 92.0259 22.3091 93.0739C21.905 94.1314 21.278 94.988 20.4283 95.6437C19.5786 96.2995 18.6356 96.7289 17.5993 96.932C16.563 97.1352 15.5277 97.0936 14.4933 96.8072C13.4589 96.5209 12.549 95.9655 11.7638 95.1412C10.9926 94.3263 10.4755 93.2477 10.2123 91.9052L9.51628 88.3548ZM11.6756 91.4166C11.8649 92.3822 12.2254 93.192 12.7572 93.8459C13.3007 94.4975 13.9591 94.9554 14.7323 95.2196C15.5174 95.4815 16.3691 95.5224 17.2877 95.3423C18.2062 95.1622 18.9736 94.8039 19.5899 94.2673C20.2179 93.7284 20.6547 93.0559 20.9002 92.2496C21.1574 91.441 21.1914 90.5539 21.0021 89.5883L20.5035 87.0447L11.177 88.873L11.6756 91.4166Z" fill="white"/>
<path d="M14.2564 108.476C13.6327 107.151 13.5191 105.938 13.9154 104.836C14.3278 103.74 15.2179 102.87 16.5858 102.226C17.3567 101.863 18.1342 101.669 18.9185 101.645C19.7028 101.62 20.4339 101.806 21.1116 102.204C21.7894 102.601 22.3302 103.228 22.734 104.086C23.1123 104.889 23.2495 105.673 23.1456 106.439C23.0525 107.199 22.7627 107.879 22.2762 108.479C21.8005 109.075 21.1935 109.546 20.4553 109.894C20.249 109.991 20.0421 110.002 19.8345 109.928C19.632 109.864 19.4771 109.718 19.3697 109.49L16.7702 103.969C16.0511 104.414 15.5924 104.975 15.3939 105.652C15.1954 106.329 15.2981 107.096 15.702 107.954C15.9167 108.41 16.1467 108.786 16.392 109.082C16.6425 109.388 16.9258 109.666 17.242 109.915C17.3263 109.981 17.394 110.069 17.4452 110.177C17.527 110.351 17.5388 110.531 17.4807 110.718C17.4227 110.904 17.3013 111.041 17.1168 111.128C16.8779 111.24 16.6106 111.194 16.3149 110.988C15.8766 110.677 15.5007 110.343 15.187 109.987C14.8733 109.631 14.5631 109.127 14.2564 108.476ZM20.2374 108.206C20.754 107.923 21.1327 107.572 21.3734 107.154C21.6192 106.746 21.7392 106.325 21.7333 105.89C21.7383 105.45 21.6539 105.045 21.4801 104.676C21.3063 104.307 21.0482 103.984 20.7058 103.708C20.3742 103.426 19.9731 103.25 19.5023 103.18C19.0316 103.11 18.5226 103.184 17.9753 103.402L20.2374 108.206Z" fill="white"/>
<path d="M20.9178 117.184C20.7776 117.004 20.7211 116.805 20.7483 116.586C20.7754 116.367 20.8789 116.187 21.0588 116.047L27.1494 111.3C27.3293 111.16 27.5287 111.104 27.7476 111.131C27.976 111.151 28.1603 111.25 28.3005 111.43C28.4406 111.61 28.4924 111.813 28.4558 112.039C28.436 112.268 28.3362 112.452 28.1564 112.592L27.5743 113.046C28.2521 113.096 28.8716 113.237 29.4328 113.469C29.994 113.701 30.4959 114.101 30.9385 114.669C31.3442 115.189 31.5716 115.735 31.6206 116.305C31.6769 116.885 31.5696 117.44 31.2986 117.971C31.0349 118.511 30.6476 118.98 30.1365 119.379L26.1044 122.521C25.9246 122.661 25.7215 122.713 25.4952 122.677C25.2762 122.649 25.0967 122.546 24.9565 122.366C24.8164 122.186 24.7599 121.987 24.787 121.768C24.8142 121.549 24.9176 121.369 25.0975 121.229L28.9876 118.197C30.1423 117.298 30.3139 116.327 29.5025 115.286C29.1337 114.813 28.6787 114.483 28.1375 114.296C27.6037 114.118 26.9995 114.026 26.3249 114.02L22.0657 117.339C21.8858 117.479 21.6828 117.531 21.4564 117.494C21.2375 117.467 21.058 117.364 20.9178 117.184Z" fill="white"/>
<path d="M33.5228 130.717C32.2039 129.563 32.0659 128.391 33.1086 127.198L36.7818 122.998L35.8198 122.156C35.7475 122.093 35.7041 122.015 35.6894 121.923C35.6916 121.829 35.7243 121.746 35.7875 121.674C35.8665 121.584 35.9743 121.542 36.1109 121.55L39.5296 121.36C39.682 121.349 39.7943 121.376 39.8666 121.439C39.9388 121.502 39.9739 121.581 39.9716 121.674C39.9784 121.776 39.9502 121.863 39.887 121.935L38.9391 123.019L40.4702 124.358C40.6238 124.492 40.7068 124.653 40.7193 124.839C40.7318 125.025 40.6709 125.195 40.5366 125.349C40.4102 125.493 40.2499 125.576 40.0557 125.598C39.8695 125.61 39.6996 125.549 39.546 125.415L38.0149 124.076L34.4364 128.168C34.1283 128.52 34.0122 128.817 34.0879 129.059C34.1805 129.299 34.3533 129.53 34.6062 129.751C34.7869 129.909 34.9912 130.04 35.2193 130.144C35.2633 130.167 35.3074 130.189 35.3514 130.212C35.4045 130.242 35.4626 130.285 35.5258 130.34C35.6523 130.451 35.7218 130.599 35.7342 130.786C35.7546 130.963 35.7056 131.119 35.5871 131.255C35.4054 131.462 35.1633 131.53 34.8607 131.456C34.3662 131.311 33.9202 131.064 33.5228 130.717Z" fill="white"/>
<path d="M43.9695 135.1C43.5157 134.83 43.148 134.486 42.8664 134.067C42.5952 133.654 42.4503 133.205 42.4319 132.72C42.4196 132.224 42.5515 131.744 42.8274 131.28C43.2812 130.516 43.9422 130.086 44.8103 129.987C45.6886 129.895 46.7106 130.196 47.8762 130.889L49.7483 132.002L49.8219 131.878C50.2266 131.197 50.3477 130.606 50.1852 130.105C50.033 129.609 49.601 129.15 48.8893 128.727C48.4973 128.494 48.1282 128.316 47.782 128.194C47.4461 128.078 47.0557 127.972 46.6107 127.875C46.516 127.846 46.4428 127.817 46.3912 127.786C46.2365 127.694 46.1361 127.558 46.0901 127.377C46.0441 127.196 46.0702 127.023 46.1683 126.858C46.3339 126.579 46.5845 126.463 46.9201 126.509C48.0176 126.659 49.0202 127.004 49.9279 127.544C50.6396 127.967 51.152 128.467 51.4651 129.044C51.7885 129.627 51.9257 130.218 51.8766 130.817C51.8441 131.412 51.6683 131.978 51.3494 132.514L48.7462 136.893C48.6296 137.089 48.4593 137.211 48.2352 137.259C48.0214 137.313 47.8165 137.282 47.6205 137.166C47.4245 137.049 47.2994 136.884 47.245 136.67C47.1906 136.457 47.2217 136.252 47.3382 136.056L47.5774 135.653C46.348 135.983 45.1454 135.799 43.9695 135.1ZM45.2315 134.175C45.6853 134.445 46.1881 134.597 46.7398 134.632C47.2976 134.656 47.819 134.589 48.3041 134.431L49.0768 133.131L47.3903 132.129C45.8328 131.203 44.8118 131.147 44.3274 131.962C44.1066 132.333 44.0525 132.706 44.1652 133.08C44.2881 133.46 44.6436 133.825 45.2315 134.175Z" fill="white"/>
<path d="M56.6557 141.731C56.4438 141.647 56.294 141.503 56.2065 141.301C56.1189 141.098 56.1171 140.891 56.2011 140.679L60.505 129.819C60.589 129.607 60.7322 129.457 60.9347 129.37C61.1416 129.271 61.3511 129.264 61.563 129.348C61.7861 129.436 61.9415 129.582 62.029 129.784C62.1166 129.987 62.1162 130.199 62.0277 130.422L57.7239 141.283C57.6399 141.495 57.4911 141.642 57.2774 141.725C57.0749 141.813 56.8677 141.815 56.6557 141.731Z" fill="white"/>
<path d="M82.2462 146.373C80.989 146.289 79.9056 145.941 78.9962 145.327C78.0867 144.714 77.4067 143.905 76.9561 142.901C76.5055 141.897 76.3098 140.766 76.3692 139.507C76.4764 138.251 76.8196 137.156 77.3987 136.22C77.9778 135.284 78.7586 134.572 79.741 134.084C80.7234 133.596 81.8433 133.394 83.1005 133.477C84.3578 133.56 85.4351 133.908 86.3326 134.521C87.242 135.134 87.9217 135.949 88.3715 136.965C88.8341 137.97 89.0361 139.095 88.9775 140.342C88.8711 141.586 88.5219 142.681 87.93 143.628C87.3509 144.564 86.5701 145.276 85.5877 145.764C84.6173 146.253 83.5034 146.456 82.2462 146.373ZM82.3473 144.846C83.3052 144.909 84.1517 144.749 84.8867 144.365C85.6217 143.98 86.1994 143.429 86.6198 142.712C87.0401 141.994 87.2813 141.168 87.3431 140.234C87.405 139.3 87.2749 138.45 86.9529 137.683C86.6309 136.916 86.131 136.293 85.4531 135.815C84.7752 135.338 83.9573 135.067 82.9994 135.003C82.0295 134.939 81.1771 135.099 80.4421 135.484C79.719 135.869 79.1473 136.42 78.727 137.138C78.3066 137.856 78.0655 138.681 78.0036 139.615C77.9417 140.549 78.0718 141.4 78.3938 142.167C78.7158 142.934 79.2098 143.556 79.8757 144.033C80.5536 144.511 81.3775 144.782 82.3473 144.846Z" fill="white"/>
<path d="M97.1509 149.328C96.9276 149.373 96.7226 149.33 96.5361 149.196C96.352 149.075 96.2371 148.902 96.1913 148.679L93.8127 137.058C93.7669 136.835 93.8049 136.631 93.9264 136.447C94.048 136.263 94.2204 136.148 94.4438 136.102C94.6672 136.056 94.8709 136.094 95.055 136.216C95.2509 136.335 95.3717 136.506 95.4174 136.729L95.5112 137.188C96.1866 136.119 97.1003 135.466 98.2524 135.231C98.9813 135.081 99.7075 135.129 100.431 135.373C101.164 135.602 101.804 136.035 102.35 136.67C102.906 137.291 103.282 138.078 103.476 139.03C103.671 139.982 103.636 140.859 103.372 141.661C103.116 142.448 102.698 143.097 102.117 143.608C101.545 144.105 100.894 144.428 100.165 144.577C99.0133 144.813 97.9167 144.572 96.8756 143.854L97.7961 148.351C97.8442 148.586 97.8075 148.795 97.6859 148.979C97.5644 149.164 97.386 149.28 97.1509 149.328ZM99.6294 143.125C100.499 142.947 101.142 142.527 101.558 141.866C101.974 141.206 102.079 140.37 101.872 139.359C101.665 138.348 101.24 137.62 100.598 137.176C99.956 136.731 99.1999 136.598 98.33 136.776C97.7892 136.887 97.303 137.115 96.8716 137.461C96.4494 137.792 96.0971 138.195 95.8144 138.669L96.5724 142.372C97.0187 142.698 97.5022 142.935 98.023 143.086C98.5531 143.223 99.0886 143.235 99.6294 143.125Z" fill="white"/>
<path d="M112.189 139.471C111.59 139.749 111.002 139.851 110.425 139.775C109.858 139.694 109.341 139.465 108.874 139.086C108.418 138.703 108.054 138.217 107.78 137.629L105.627 132.993C105.531 132.787 105.52 132.58 105.596 132.372C105.683 132.16 105.829 132.006 106.036 131.91C106.243 131.814 106.45 131.804 106.657 131.879C106.864 131.955 107.016 132.096 107.112 132.303L109.19 136.776C109.807 138.104 110.714 138.489 111.911 137.933C112.455 137.68 112.874 137.314 113.167 136.834C113.471 136.349 113.702 135.778 113.86 135.122L111.585 130.225C111.489 130.018 111.479 129.811 111.554 129.604C111.641 129.392 111.788 129.238 111.995 129.142C112.201 129.046 112.408 129.035 112.616 129.111C112.823 129.187 112.974 129.328 113.07 129.535L116.324 136.538C116.42 136.745 116.433 136.957 116.362 137.175C116.286 137.382 116.145 137.534 115.938 137.63C115.732 137.726 115.519 137.739 115.301 137.668C115.089 137.582 114.935 137.435 114.839 137.228L114.528 136.559C114.326 137.208 114.05 137.78 113.697 138.274C113.345 138.769 112.842 139.168 112.189 139.471Z" fill="white"/>
<path d="M121.409 135.287C121.222 135.416 121.019 135.461 120.802 135.421C120.585 135.38 120.412 135.266 120.283 135.079L113.667 125.451C113.538 125.263 113.493 125.061 113.533 124.844C113.567 124.617 113.677 124.439 113.865 124.31C114.063 124.174 114.271 124.126 114.487 124.166C114.704 124.206 114.881 124.325 115.017 124.523L121.633 134.151C121.762 134.339 121.802 134.545 121.752 134.768C121.711 134.985 121.597 135.158 121.409 135.287Z" fill="white"/>
<path d="M130.145 127.003C129.086 128.013 127.971 128.505 126.8 128.477C125.63 128.433 124.523 127.864 123.479 126.77C122.891 126.153 122.461 125.477 122.19 124.741C121.919 124.004 121.864 123.252 122.027 122.483C122.189 121.715 122.613 121.003 123.299 120.349C123.941 119.736 124.642 119.358 125.401 119.214C126.151 119.062 126.888 119.122 127.612 119.393C128.327 119.656 128.966 120.083 129.53 120.673C129.687 120.838 129.763 121.031 129.758 121.252C129.761 121.464 129.672 121.657 129.49 121.831L125.075 126.043C125.724 126.585 126.401 126.843 127.107 126.817C127.812 126.791 128.507 126.451 129.193 125.796C129.558 125.448 129.841 125.111 130.044 124.785C130.256 124.45 130.43 124.094 130.566 123.715C130.602 123.614 130.664 123.522 130.751 123.439C130.889 123.307 131.057 123.239 131.252 123.235C131.447 123.231 131.615 123.303 131.756 123.45C131.938 123.641 131.979 123.909 131.877 124.255C131.721 124.769 131.523 125.231 131.285 125.642C131.046 126.052 130.666 126.506 130.145 127.003ZM127.997 121.414C127.565 121.013 127.113 120.765 126.64 120.669C126.175 120.565 125.738 120.584 125.327 120.728C124.908 120.862 124.551 121.07 124.256 121.352C123.96 121.633 123.736 121.98 123.582 122.393C123.42 122.796 123.38 123.232 123.462 123.701C123.544 124.17 123.776 124.629 124.155 125.08L127.997 121.414Z" fill="white"/>
<path d="M137.288 118.668C137.162 118.858 136.991 118.975 136.775 119.018C136.558 119.062 136.355 119.02 136.165 118.894L129.736 114.618C129.546 114.491 129.429 114.32 129.386 114.104C129.332 113.881 129.369 113.675 129.495 113.485C129.621 113.295 129.797 113.182 130.024 113.145C130.247 113.091 130.453 113.128 130.643 113.254L131.257 113.663C131.09 113.004 131.028 112.371 131.07 111.766C131.113 111.16 131.334 110.557 131.732 109.958C132.098 109.408 132.543 109.02 133.069 108.793C133.601 108.556 134.162 108.482 134.751 108.572C135.347 108.651 135.915 108.87 136.454 109.229L140.711 112.06C140.901 112.186 141.014 112.362 141.051 112.588C141.094 112.805 141.053 113.008 140.927 113.198C140.801 113.387 140.629 113.504 140.413 113.548C140.197 113.591 139.994 113.55 139.804 113.423L135.697 110.692C134.478 109.881 133.503 110.026 132.772 111.125C132.44 111.624 132.271 112.16 132.265 112.733C132.265 113.295 132.369 113.898 132.576 114.54L137.073 117.53C137.262 117.656 137.376 117.833 137.413 118.059C137.456 118.275 137.415 118.478 137.288 118.668Z" fill="white"/>
<path d="M146.114 104.226C145.801 105.031 145.333 105.705 144.71 106.249C144.087 106.792 143.359 107.14 142.528 107.293C141.7 107.435 140.833 107.33 139.927 106.978C139.021 106.626 138.311 106.118 137.796 105.454C137.286 104.78 136.984 104.032 136.892 103.21C136.799 102.389 136.909 101.576 137.222 100.77C137.452 100.178 137.728 99.699 138.05 99.3349C138.365 98.9551 138.712 98.6264 139.09 98.3485C139.322 98.1813 139.561 98.1455 139.807 98.2412C139.975 98.3064 140.106 98.4343 140.199 98.625C140.285 98.8002 140.296 98.9717 140.231 99.1395C140.183 99.2625 140.102 99.3725 139.987 99.4695C139.653 99.7647 139.395 100.031 139.212 100.269C139.023 100.492 138.852 100.799 138.7 101.19C138.326 102.152 138.313 103.016 138.659 103.781C138.994 104.542 139.614 105.099 140.52 105.451C141.426 105.803 142.266 105.814 143.038 105.483C143.799 105.148 144.366 104.499 144.74 103.537C144.892 103.146 144.979 102.806 145.001 102.519C145.016 102.215 145 101.842 144.953 101.399C144.934 101.25 144.948 101.114 144.996 100.991C145.061 100.823 145.19 100.706 145.383 100.64C145.57 100.558 145.747 100.549 145.915 100.614C146.161 100.71 146.313 100.898 146.371 101.178C146.463 101.638 146.502 102.117 146.489 102.614C146.469 103.096 146.344 103.633 146.114 104.226Z" fill="white"/>
<path d="M150.598 92.4947C150.362 93.9396 149.769 95.004 148.818 95.6879C147.858 96.358 146.631 96.5713 145.139 96.3279C144.298 96.1907 143.548 95.9102 142.887 95.4864C142.227 95.0625 141.73 94.4951 141.396 93.784C141.062 93.073 140.971 92.2497 141.124 91.314C141.267 90.4376 141.598 89.7135 142.117 89.1415C142.624 88.5677 143.248 88.171 143.989 87.9514C144.718 87.7299 145.485 87.6848 146.291 87.8162C146.516 87.8529 146.693 87.9608 146.821 88.1399C146.952 88.3071 146.997 88.5151 146.957 88.7638L145.974 94.7862C146.819 94.8267 147.514 94.6241 148.061 94.1783C148.608 93.7325 148.958 93.0419 149.111 92.1062C149.192 91.6088 149.215 91.1688 149.18 90.7862C149.147 90.3917 149.071 90.0024 148.951 89.6181C148.919 89.5156 148.913 89.4051 148.932 89.2867C148.963 89.0972 149.055 88.942 149.209 88.8212C149.362 88.7003 149.54 88.6563 149.741 88.6891C150.002 88.7316 150.196 88.9213 150.323 89.2582C150.508 89.7626 150.629 90.2505 150.686 90.7218C150.743 91.1931 150.713 91.7841 150.598 92.4947ZM145.515 89.331C144.928 89.2719 144.418 89.3467 143.982 89.5553C143.549 89.7521 143.212 90.0314 142.97 90.3933C142.717 90.7532 142.558 91.1345 142.492 91.5372C142.426 91.9399 142.456 92.3521 142.582 92.7738C142.696 93.1936 142.927 93.5657 143.275 93.89C143.624 94.2143 144.085 94.4416 144.66 94.5718L145.515 89.331Z" fill="white"/>
<path d="M19.0388 71.454C18.9753 71.6729 18.8468 71.8356 18.6535 71.9419C18.4602 72.0483 18.2541 72.0697 18.0352 72.0061L7.54204 68.9611C7.32307 68.8976 7.16042 68.7692 7.05408 68.5759C6.93621 68.3792 6.90904 68.1714 6.97259 67.9525L7.9809 64.4778C8.36216 63.164 8.97876 62.1372 9.83071 61.3973C10.6745 60.6425 11.6242 60.1684 12.68 59.975C13.7357 59.7816 14.7707 59.832 15.7848 60.1263C16.799 60.4206 17.7002 60.932 18.4884 61.6605C19.2766 62.3891 19.8308 63.2996 20.151 64.3921C20.463 65.4698 20.4284 66.6655 20.0471 67.9793L19.0388 71.454ZM18.5226 67.7431C18.7968 66.798 18.8474 65.9131 18.6745 65.0882C18.49 64.26 18.1146 63.5513 17.5484 62.9621C16.9706 62.3696 16.2323 61.943 15.3333 61.6821C14.4344 61.4213 13.5881 61.3881 12.7945 61.5826C11.9893 61.7738 11.2929 62.1715 10.7052 62.7756C10.106 63.3764 9.66934 64.1493 9.3951 65.0944L8.67273 67.5837L17.8002 70.2324L18.5226 67.7431Z" fill="white"/>
<path d="M25.0673 53.0581C24.3487 54.3336 23.4255 55.1289 22.2977 55.4439C21.1654 55.7426 19.9405 55.5208 18.6231 54.7787C17.8808 54.3605 17.2726 53.8388 16.7984 53.2136C16.3242 52.5884 16.0528 51.8845 15.984 51.102C15.9152 50.3195 16.1134 49.5153 16.5787 48.6893C17.0146 47.9157 17.5745 47.3496 18.2585 46.9912C18.932 46.6268 19.6544 46.4691 20.4257 46.518C21.1866 46.561 21.9225 46.7827 22.6334 47.1832C22.8321 47.2951 22.9611 47.4573 23.0204 47.6698C23.0857 47.8718 23.0564 48.0826 22.9328 48.3022L19.9378 53.6186C20.7168 53.9473 21.4397 53.9964 22.1066 53.7661C22.7735 53.5358 23.3396 53.0076 23.8049 52.1817C24.0523 51.7426 24.2254 51.3374 24.3244 50.9662C24.4292 50.5845 24.4916 50.1926 24.5114 49.7906C24.5167 49.6834 24.5488 49.5776 24.6077 49.473C24.702 49.3057 24.8419 49.1917 25.0276 49.1311C25.2133 49.0704 25.395 49.0901 25.5727 49.1903C25.8028 49.3198 25.9196 49.5647 25.9233 49.9249C25.9236 50.4622 25.8694 50.9619 25.7606 51.424C25.6517 51.8861 25.4207 52.4308 25.0673 53.0581ZM21.3835 48.3384C20.8535 48.0812 20.3483 47.9756 19.8678 48.0217C19.3932 48.0574 18.9803 48.2036 18.6291 48.4602C18.2675 48.711 17.9866 49.0141 17.7863 49.3696C17.586 49.7251 17.4724 50.1225 17.4453 50.5617C17.4078 50.9951 17.4967 51.424 17.7122 51.8483C17.9276 52.2727 18.2826 52.6449 18.7773 52.9648L21.3835 48.3384Z" fill="white"/>
<path d="M30.8157 42.907C30.6653 43.0783 30.48 43.1711 30.2598 43.1853C30.0396 43.1996 29.8439 43.1315 29.6726 42.9811L23.8705 37.8855C23.6992 37.735 23.6064 37.5497 23.5921 37.3296C23.5689 37.1015 23.6324 36.9018 23.7829 36.7305C23.9333 36.5592 24.1232 36.4703 24.3523 36.464C24.5804 36.4407 24.7801 36.5043 24.9514 36.6547L25.5059 37.1417C25.4281 36.4665 25.4507 35.8316 25.5738 35.2369C25.6968 34.6422 25.9958 34.0744 26.4709 33.5334C26.9065 33.0375 27.3998 32.7121 27.951 32.5573C28.5101 32.3936 29.0756 32.3952 29.6477 32.5622C30.2276 32.7201 30.761 33.0129 31.2479 33.4405L35.0889 36.8138C35.2602 36.9643 35.3491 37.1541 35.3554 37.3833C35.3697 37.6034 35.3016 37.7992 35.1511 37.9705C35.0007 38.1418 34.8154 38.2346 34.5952 38.2489C34.3751 38.2631 34.1793 38.195 34.008 38.0446L30.3023 34.79C29.2023 33.824 28.2167 33.8368 27.3457 34.8287C26.9498 35.2795 26.7106 35.7882 26.6283 36.3547C26.5539 36.9122 26.5765 37.523 26.6961 38.187L30.7535 41.7503C30.9248 41.9008 31.0136 42.0906 31.02 42.3198C31.0343 42.5399 30.9662 42.7357 30.8157 42.907Z" fill="white"/>
<path d="M42.6136 32.4791C41.2428 33.5701 40.0642 33.4958 39.0778 32.2564L35.6032 27.8902L34.6032 28.6861C34.5281 28.7458 34.4436 28.7747 34.3499 28.7726C34.2582 28.7536 34.1824 28.7065 34.1226 28.6314C34.0479 28.5375 34.0266 28.4241 34.0588 28.2911L34.4836 24.8935C34.5008 24.7418 34.547 24.636 34.6221 24.5762C34.6972 24.5164 34.7807 24.496 34.8725 24.515C34.9736 24.5265 35.0541 24.5698 35.1139 24.6449L36.0106 25.7717L37.6021 24.5051C37.7617 24.3781 37.9343 24.3251 38.1198 24.3462C38.3052 24.3673 38.4615 24.4577 38.5885 24.6173C38.7081 24.7675 38.7611 24.9401 38.7474 25.1349C38.7263 25.3204 38.636 25.4767 38.4764 25.6037L36.8848 26.8703L40.2698 31.1237C40.5612 31.4899 40.8325 31.6574 41.0838 31.6262C41.3369 31.5781 41.5949 31.4495 41.8578 31.2403C42.0456 31.0908 42.211 30.9132 42.3539 30.7074C42.384 30.6681 42.4141 30.6288 42.4442 30.5896C42.4837 30.5428 42.5363 30.4933 42.602 30.441C42.7334 30.3364 42.8919 30.2946 43.0774 30.3157C43.2554 30.3274 43.4004 30.4037 43.5125 30.5445C43.6844 30.7605 43.7072 31.0107 43.5809 31.2953C43.3492 31.7557 43.0268 32.1503 42.6136 32.4791Z" fill="white"/>
<path d="M51.3039 26.5534C50.841 26.8073 50.3577 26.9493 49.8541 26.9793C49.3609 27.0034 48.9005 26.9002 48.4728 26.6695C48.0393 26.4282 47.6927 26.0709 47.433 25.5975C47.0058 24.8189 46.9704 24.0308 47.3266 23.2331C47.6934 22.4297 48.4712 21.7018 49.66 21.0496L51.5695 20.002L51.5002 19.8757C51.1193 19.1814 50.6715 18.7769 50.157 18.6623C49.6529 18.5419 49.0379 18.6808 48.312 19.0791C47.9122 19.2984 47.5718 19.5262 47.2908 19.7625C47.0204 19.993 46.7304 20.2753 46.4209 20.6093C46.3483 20.6765 46.2857 20.7246 46.2331 20.7534C46.0753 20.84 45.9067 20.8572 45.7275 20.8049C45.5483 20.7527 45.4125 20.6424 45.3202 20.4741C45.1643 20.19 45.1914 19.9151 45.4015 19.6493C46.0879 18.78 46.8941 18.0913 47.8199 17.5834C48.5458 17.1851 49.2368 16.9976 49.8929 17.0209C50.5595 17.0384 51.1384 17.2204 51.6296 17.5669C52.1256 17.897 52.5236 18.3356 52.8237 18.8827L55.2739 23.3487C55.3836 23.5486 55.4023 23.7574 55.3301 23.9749C55.2683 24.1867 55.1375 24.3475 54.9376 24.4571C54.7377 24.5668 54.5319 24.5908 54.3201 24.5291C54.1083 24.4673 53.9475 24.3365 53.8379 24.1366L53.6128 23.7263C53.2729 24.953 52.5033 25.8954 51.3039 26.5534ZM51.1479 24.9965C51.6108 24.7425 51.9973 24.3868 52.3074 23.9292C52.6118 23.4611 52.8189 22.9779 52.9288 22.4796L52.2015 21.154L50.4814 22.0977C48.8928 22.9693 48.3265 23.8206 48.7824 24.6518C48.9902 25.0305 49.2839 25.2663 49.6633 25.3593C50.0533 25.4464 50.5482 25.3255 51.1479 24.9965Z" fill="white"/>
<path d="M62.2169 22.7307C62.003 22.8095 61.7958 22.8027 61.5955 22.7103C61.3952 22.6178 61.2556 22.4646 61.1768 22.2506L57.1386 11.2888C57.0598 11.0749 57.0666 10.8677 57.1591 10.6674C57.2474 10.4559 57.3985 10.3107 57.6125 10.2319C57.8377 10.1489 58.0504 10.1536 58.2507 10.2461C58.451 10.3386 58.5927 10.4974 58.6756 10.7226L62.7139 21.6844C62.7927 21.8984 62.7802 22.1076 62.6765 22.312C62.584 22.5123 62.4308 22.6519 62.2169 22.7307Z" fill="white"/>
<path d="M83.8311 18.6229C82.5735 18.7008 81.4546 18.4936 80.4742 18.0013C79.4939 17.509 78.7162 16.7937 78.1411 15.8555C77.5659 14.9173 77.2274 13.8201 77.1256 12.564C77.0716 11.3049 77.2721 10.1744 77.727 9.17231C78.1819 8.17025 78.8653 7.36444 79.7774 6.75487C80.6894 6.1453 81.7742 5.80155 83.0318 5.72363C84.2894 5.6457 85.4024 5.85327 86.3707 6.34633C87.3511 6.83864 88.1292 7.5599 88.705 8.51011C89.2921 9.44759 89.6362 10.5384 89.7374 11.7825C89.7906 13.0296 89.5842 14.1606 89.118 15.1753C88.6631 16.1774 87.9796 16.9832 87.0676 17.5928C86.1675 18.2016 85.0887 18.545 83.8311 18.6229ZM83.7365 17.0958C84.6946 17.0364 85.5137 16.7693 86.1936 16.2943C86.8736 15.8194 87.3762 15.1991 87.7014 14.4335C88.0267 13.6679 88.1604 12.818 88.1025 11.8838C88.0446 10.9496 87.807 10.1227 87.3897 9.40316C86.9724 8.68359 86.3971 8.13011 85.6637 7.74272C84.9304 7.35534 84.0846 7.19133 83.1265 7.2507C82.1563 7.31081 81.3313 7.57835 80.6514 8.05331C79.9834 8.52752 79.4868 9.14742 79.1615 9.913C78.8362 10.6786 78.7025 11.5285 78.7604 12.4627C78.8183 13.3969 79.0559 14.2238 79.4732 14.9434C79.8905 15.6629 80.4599 16.2168 81.1812 16.6049C81.9146 16.9923 82.7663 17.1559 83.7365 17.0958Z" fill="white"/>
<path d="M93.845 22.42C93.6211 22.3772 93.4483 22.2586 93.3266 22.0643C93.2026 21.8818 93.1621 21.6785 93.2049 21.4546L95.432 9.80355C95.4748 9.5796 95.5875 9.40566 95.77 9.28173C95.9525 9.15779 96.1557 9.11722 96.3797 9.16003C96.6036 9.20284 96.7776 9.3155 96.9015 9.49801C97.0372 9.68278 97.0837 9.88714 97.0409 10.1111L96.953 10.5708C97.9846 9.83945 99.078 9.58419 100.233 9.80499C100.964 9.94467 101.617 10.2651 102.194 10.7661C102.784 11.2577 103.21 11.9013 103.474 12.6969C103.751 13.4829 103.799 14.3533 103.616 15.308C103.434 16.2627 103.067 17.0601 102.517 17.7003C101.981 18.3309 101.347 18.7717 100.615 19.0227C99.8972 19.2641 99.1727 19.315 98.442 19.1753C97.2869 18.9545 96.3647 18.314 95.6755 17.2538L94.8138 21.7621C94.7687 21.9979 94.6549 22.1777 94.4724 22.3016C94.2899 22.4256 94.0808 22.465 93.845 22.42ZM98.4994 17.6286C99.3716 17.7953 100.126 17.6524 100.762 17.1998C101.398 16.7472 101.813 16.0141 102.007 15.0005C102.201 13.9868 102.086 13.1523 101.661 12.497C101.237 11.8416 100.588 11.4306 99.716 11.2638C99.1738 11.1602 98.6374 11.186 98.1069 11.3411C97.5904 11.4867 97.1111 11.725 96.6691 12.0559L95.9594 15.7687C96.2482 16.2392 96.6047 16.6434 97.0288 16.981C97.467 17.3091 97.9572 17.525 98.4994 17.6286Z" fill="white"/>
<path d="M107.831 22.4596C107.225 22.1984 106.757 21.8272 106.429 21.346C106.112 20.8695 105.939 20.331 105.91 19.7306C105.892 19.135 106.012 18.5396 106.268 17.9445L108.291 13.2498C108.381 13.0405 108.529 12.895 108.734 12.8135C108.95 12.7367 109.163 12.7434 109.372 12.8336C109.581 12.9239 109.727 13.0715 109.808 13.2765C109.89 13.4815 109.885 13.6887 109.795 13.8981L107.843 18.4274C107.264 19.7719 107.581 20.7053 108.793 21.2277C109.344 21.4652 109.896 21.5332 110.449 21.4319C111.014 21.3353 111.593 21.1277 112.188 20.809L114.325 15.8498C114.415 15.6404 114.562 15.495 114.767 15.4134C114.983 15.3366 115.196 15.3434 115.406 15.4336C115.615 15.5238 115.76 15.6714 115.842 15.8764C115.923 16.0814 115.919 16.2886 115.829 16.498L112.773 23.5896C112.683 23.799 112.533 23.95 112.323 24.0425C112.118 24.1241 111.911 24.1197 111.702 24.0295C111.492 23.9393 111.341 23.7893 111.249 23.5795C111.172 23.3635 111.179 23.1508 111.269 22.9414L111.561 22.2637C110.943 22.5461 110.332 22.7206 109.728 22.7871C109.124 22.8537 108.492 22.7445 107.831 22.4596Z" fill="white"/>
<path d="M115.557 29.1007C115.364 28.979 115.244 28.8105 115.195 28.5953C115.146 28.3801 115.183 28.1761 115.305 27.9833L121.542 18.106C121.664 17.9132 121.832 17.7925 122.048 17.7439C122.269 17.6851 122.476 17.7166 122.669 17.8384C122.872 17.9665 122.998 18.1382 123.046 18.3534C123.095 18.5686 123.055 18.7776 122.927 18.9806L116.69 28.8579C116.568 29.0507 116.394 29.1682 116.169 29.2104C115.954 29.259 115.75 29.2224 115.557 29.1007Z" fill="white"/>
<path d="M122.79 33.9549C121.682 32.9975 121.086 31.9349 121.001 30.767C120.933 29.5979 121.393 28.4413 122.382 27.2975C122.939 26.6529 123.571 26.1603 124.278 25.8196C124.985 25.4789 125.729 25.3525 126.509 25.4403C127.29 25.5282 128.039 25.8821 128.756 26.502C129.428 27.0827 129.871 27.7438 130.087 28.4853C130.31 29.2177 130.322 29.9571 130.121 30.7034C129.928 31.4406 129.564 32.1178 129.031 32.7352C128.882 32.9077 128.697 33.0019 128.477 33.0179C128.266 33.0418 128.065 32.9713 127.875 32.8065L123.258 28.8162C122.781 29.5144 122.59 30.2132 122.683 30.9126C122.777 31.6119 123.182 32.2716 123.899 32.8915C124.28 33.2211 124.643 33.4712 124.987 33.6419C125.341 33.8203 125.712 33.9592 126.102 34.0584C126.206 34.0849 126.304 34.1374 126.395 34.2158C126.54 34.3414 126.624 34.5012 126.646 34.6952C126.669 34.8893 126.614 35.0634 126.48 35.2178C126.308 35.4175 126.044 35.4834 125.691 35.4156C125.164 35.3093 124.685 35.1569 124.254 34.9586C123.822 34.7603 123.334 34.4257 122.79 33.9549ZM128.146 31.2809C128.504 30.8125 128.707 30.3383 128.758 29.8582C128.817 29.3859 128.755 28.9523 128.574 28.5571C128.4 28.1529 128.158 27.8174 127.85 27.5506C127.541 27.2838 127.174 27.0935 126.749 26.9798C126.332 26.857 125.894 26.8591 125.435 26.9861C124.976 27.113 124.541 27.3871 124.129 27.8084L128.146 31.2809Z" fill="white"/>
<path d="M128.52 41.7569C128.382 41.5755 128.328 41.3754 128.357 41.1568C128.387 40.9382 128.493 40.7599 128.674 40.6218L134.82 35.9463C135.001 35.8082 135.201 35.754 135.42 35.7837C135.648 35.8062 135.831 35.9081 135.969 36.0896C136.107 36.271 136.156 36.4747 136.117 36.7006C136.095 36.9287 135.993 37.1118 135.811 37.2499L135.224 37.6967C135.901 37.7545 136.519 37.9026 137.078 38.1412C137.636 38.3798 138.133 38.7856 138.569 39.3586C138.969 39.8838 139.19 40.4319 139.232 41.0029C139.282 41.5833 139.168 42.1373 138.891 42.6648C138.621 43.2019 138.228 43.6666 137.712 44.059L133.644 47.1542C133.462 47.2923 133.259 47.3417 133.033 47.3024C132.814 47.2727 132.636 47.1672 132.498 46.9857C132.36 46.8042 132.306 46.6042 132.335 46.3856C132.365 46.167 132.471 45.9887 132.652 45.8506L136.577 42.8644C137.742 41.9779 137.925 41.0094 137.126 39.9589C136.763 39.4814 136.312 39.1461 135.773 38.953C135.241 38.7694 134.638 38.6704 133.963 38.6558L129.666 41.9255C129.484 42.0635 129.281 42.1129 129.055 42.0737C128.836 42.044 128.658 41.9384 128.52 41.7569Z" fill="white"/>
<path d="M136.773 58.1966C136.399 57.4179 136.226 56.6155 136.255 55.7894C136.284 54.9633 136.527 54.1942 136.983 53.4821C137.445 52.7808 138.114 52.2196 138.99 51.7986C139.866 51.3775 140.722 51.2056 141.558 51.2831C142.4 51.3713 143.152 51.6621 143.815 52.1555C144.478 52.6489 144.997 53.285 145.371 54.0637C145.647 54.6369 145.808 55.1654 145.854 55.6492C145.916 56.1385 145.919 56.6163 145.864 57.0824C145.827 57.3662 145.69 57.5654 145.452 57.6797C145.29 57.7577 145.107 57.7656 144.904 57.7034C144.717 57.6468 144.585 57.5374 144.507 57.3752C144.449 57.2562 144.425 57.1216 144.432 56.9715C144.445 56.5262 144.426 56.1556 144.377 55.8596C144.344 55.5693 144.237 55.2348 144.055 54.8563C143.608 53.9262 142.986 53.3261 142.191 53.0561C141.406 52.7808 140.576 52.8538 139.7 53.2749C138.824 53.696 138.243 54.3014 137.957 55.0913C137.681 55.876 137.767 56.7334 138.214 57.6636C138.396 58.0421 138.585 58.3376 138.78 58.5499C138.992 58.7679 139.275 59.0112 139.63 59.2797C139.752 59.3675 139.842 59.4708 139.899 59.5898C139.977 59.752 139.974 59.9264 139.891 60.113C139.824 60.3052 139.709 60.4402 139.547 60.5182C139.309 60.6326 139.067 60.6154 138.823 60.4667C138.424 60.2189 138.048 59.9206 137.694 59.5715C137.355 59.2281 137.049 58.7698 136.773 58.1966Z" fill="white"/>
<path d="M141.211 71.0185C140.845 69.601 140.96 68.3879 141.555 67.3792C142.164 66.3792 143.201 65.6902 144.665 65.3123C145.49 65.0993 146.29 65.0539 147.065 65.1761C147.84 65.2982 148.523 65.6175 149.115 66.134C149.707 66.6505 150.122 67.3677 150.358 68.2856C150.58 69.1454 150.569 69.9415 150.324 70.6739C150.091 71.4033 149.68 72.0177 149.09 72.5169C148.511 73.0132 147.827 73.3634 147.037 73.5673C146.816 73.6243 146.611 73.5968 146.421 73.4847C146.234 73.3843 146.109 73.212 146.046 72.968L144.521 67.0597C143.731 67.3626 143.176 67.8281 142.855 68.4564C142.534 69.0846 142.492 69.8576 142.729 70.7755C142.855 71.2635 143.011 71.6756 143.196 72.0118C143.385 72.3597 143.612 72.6854 143.876 72.989C143.947 73.0699 143.997 73.1685 144.027 73.2847C144.075 73.4706 144.053 73.6497 143.961 73.8222C143.869 73.9946 143.725 74.1063 143.527 74.1573C143.272 74.2233 143.018 74.1277 142.765 73.8706C142.393 73.4834 142.086 73.0856 141.844 72.677C141.602 72.2685 141.391 71.7157 141.211 71.0185ZM147.138 71.8683C147.698 71.6864 148.135 71.4124 148.45 71.0462C148.767 70.6916 148.964 70.3001 149.039 69.8717C149.126 69.4403 149.118 69.027 149.016 68.632C148.914 68.2369 148.721 67.8717 148.436 67.5362C148.163 67.1978 147.802 66.9502 147.352 66.7936C146.903 66.6369 146.389 66.6147 145.811 66.7268L147.138 71.8683Z" fill="white"/>
<path d="M13.3329 80.022C12.5949 80.022 12.0009 79.428 12.0009 78.708C12.0009 77.952 12.5949 77.376 13.3329 77.376C14.0889 77.376 14.6469 77.952 14.6469 78.708C14.6469 79.428 14.0889 80.022 13.3329 80.022Z" fill="white"/>
<path d="M148.333 82.022C147.595 82.022 147.001 81.428 147.001 80.708C147.001 79.952 147.595 79.376 148.333 79.376C149.089 79.376 149.647 79.952 149.647 80.708C149.647 81.428 149.089 82.022 148.333 82.022Z" fill="white"/>
</svg>
