<svg width="20" height="20" viewBox="0 0 20 20" fill="none" xmlns="http://www.w3.org/2000/svg">
<path d="M18.3096 15.2743C18.3096 15.5743 18.243 15.8827 18.1013 16.1827C17.9596 16.4827 17.7763 16.766 17.5346 17.0327C17.1263 17.4827 16.6763 17.8077 16.168 18.016C15.668 18.2243 15.1263 18.3327 14.543 18.3327C13.693 18.3327 12.7846 18.1327 11.8263 17.7243C10.868 17.316 9.90964 16.766 8.95964 16.0743C8.0013 15.3743 7.09297 14.5993 6.2263 13.741C5.36797 12.8743 4.59297 11.966 3.9013 11.016C3.21797 10.066 2.66797 9.11601 2.26797 8.17435C1.86797 7.22435 1.66797 6.31601 1.66797 5.44935C1.66797 4.88268 1.76797 4.34102 1.96797 3.84102C2.16797 3.33268 2.48464 2.86602 2.9263 2.44935C3.45964 1.92435 4.04297 1.66602 4.65964 1.66602C4.89297 1.66602 5.1263 1.71602 5.33464 1.81602C5.5513 1.91602 5.74297 2.06602 5.89297 2.28268L7.8263 5.00768C7.9763 5.21602 8.08464 5.40768 8.15964 5.59102C8.23464 5.76601 8.2763 5.94102 8.2763 6.09935C8.2763 6.29935 8.21797 6.49935 8.1013 6.69101C7.99297 6.88268 7.83464 7.08268 7.63464 7.28268L7.0013 7.94101C6.90964 8.03268 6.86797 8.14101 6.86797 8.27435C6.86797 8.34101 6.8763 8.39935 6.89297 8.46601C6.91797 8.53268 6.94297 8.58268 6.95964 8.63268C7.10964 8.90768 7.36797 9.26601 7.73464 9.69935C8.10964 10.1327 8.50964 10.5743 8.94297 11.016C9.39297 11.4577 9.8263 11.866 10.268 12.241C10.7013 12.6077 11.0596 12.8577 11.343 13.0077C11.3846 13.0243 11.4346 13.0493 11.493 13.0743C11.5596 13.0993 11.6263 13.1077 11.7013 13.1077C11.843 13.1077 11.9513 13.0577 12.043 12.966L12.6763 12.341C12.8846 12.1327 13.0846 11.9743 13.2763 11.8743C13.468 11.7577 13.6596 11.6993 13.868 11.6993C14.0263 11.6993 14.193 11.7327 14.3763 11.8077C14.5596 11.8827 14.7513 11.991 14.9596 12.1327L17.718 14.091C17.9346 14.241 18.0846 14.416 18.1763 14.6243C18.2596 14.8327 18.3096 15.041 18.3096 15.2743Z" stroke="#C2C2C2" stroke-width="1.2" stroke-miterlimit="10"/>
<path d="M15.4167 7.4987C15.4167 6.9987 15.025 6.23203 14.4417 5.60703C13.9083 5.03203 13.2 4.58203 12.5 4.58203" stroke="#C2C2C2" stroke-width="1.2" stroke-linecap="round" stroke-linejoin="round"/>
<path d="M18.3333 7.49935C18.3333 4.27435 15.725 1.66602 12.5 1.66602" stroke="#C2C2C2" stroke-width="1.2" stroke-linecap="round" stroke-linejoin="round"/>
</svg>
