<svg width="40" height="40" viewBox="0 0 40 40" fill="none" xmlns="http://www.w3.org/2000/svg">
<g clip-path="url(#clip0_32_10531)">
<path d="M39.8699 20.0001C39.8699 30.9801 30.9799 39.8801 19.9999 39.8801C9.01988 39.8801 0.129883 30.9701 0.129883 20.0001C0.129883 9.03012 9.01988 0.120117 19.9999 0.120117C30.9799 0.120117 39.8699 9.03012 39.8699 20.0001Z" fill="#A2A2A2"/>
<path d="M27.04 9.78023L26.97 9.74023H23.13C23.13 10.2002 23.12 10.6602 23.13 11.1202C23.13 11.2602 23.09 11.3002 22.95 11.3002H17.05C16.91 11.3002 16.87 11.2602 16.87 11.1202C16.88 10.6602 16.87 10.2002 16.87 9.74023H13.03C12.85 9.82023 12.65 9.86023 12.48 9.95023C11.72 10.3602 11.31 10.9902 11.3 11.8602C11.3 17.2702 11.31 22.6902 11.3 28.1002C11.2939 28.5898 11.4552 29.0668 11.757 29.4523C12.0589 29.8378 12.4832 30.1087 12.96 30.2202L13.03 30.2602H26.97C27.15 30.1802 27.35 30.1402 27.52 30.0502C28.28 29.6402 28.69 29.0102 28.7 28.1402C28.7 22.7302 28.69 17.3102 28.7 11.9002C28.706 11.4107 28.5448 10.9337 28.2429 10.5482C27.9411 10.1627 27.5167 9.89178 27.04 9.78023ZM15.23 21.0002C15.22 20.8102 15.28 20.7602 15.47 20.7602H24.63C24.73 20.7602 24.77 20.8002 24.77 20.9002V22.2602C24.77 22.4102 24.69 22.4102 24.59 22.4102H15.47C15.28 22.4102 15.22 22.3602 15.23 22.1602C15.24 21.7802 15.24 21.3902 15.23 21.0002ZM15.23 16.2102C15.23 16.0702 15.27 16.0302 15.41 16.0302H16.65C16.79 16.0402 16.84 15.9902 16.84 15.8502C16.83 15.4502 16.84 15.0502 16.83 14.6502C16.83 14.5102 16.87 14.4602 17.01 14.4702C17.15 14.4802 17.43 14.4702 17.63 14.4702H18.28C18.4 14.4602 18.44 14.5102 18.44 14.6302C18.43 15.0402 18.44 15.4402 18.43 15.8502C18.43 15.9902 18.48 16.0402 18.62 16.0302H19.82C19.96 16.0302 20.01 16.0702 20 16.2102V17.4502C20.01 17.5902 19.96 17.6402 19.82 17.6402H18.62C18.48 17.6402 18.43 17.6802 18.43 17.8302C18.44 18.2402 18.43 18.6502 18.44 19.0702C18.44 19.2102 18.4 19.2502 18.26 19.2502H17.01C16.87 19.2502 16.83 19.2102 16.83 19.0702C16.84 18.6502 16.83 18.2402 16.84 17.8302C16.84 17.6902 16.79 17.6402 16.65 17.6402H15.41C15.27 17.6402 15.23 17.5902 15.23 17.4502C15.24 17.0402 15.24 16.6302 15.23 16.2102ZM21.56 17.7802C21.56 17.6402 21.6 17.5902 21.74 17.5902H24.59C24.73 17.5902 24.78 17.6402 24.77 17.7802V19.0602C24.78 19.2002 24.73 19.2402 24.59 19.2402H21.74C21.6 19.2402 21.56 19.2002 21.56 19.0602C21.57 18.6302 21.57 18.2002 21.56 17.7802ZM21.56 14.6502C21.56 14.5102 21.6 14.4702 21.74 14.4702H24.59C24.73 14.4702 24.78 14.5102 24.77 14.6502V15.8902C24.78 16.0302 24.73 16.0802 24.59 16.0702H21.74C21.6 16.0802 21.56 16.0302 21.56 15.8902C21.57 15.4802 21.57 15.0602 21.56 14.6502ZM24.77 25.2902C24.78 25.4902 24.72 25.5402 24.53 25.5402H15.37C15.27 25.5502 15.23 25.5002 15.23 25.4002V24.0702C15.23 23.9302 15.31 23.9302 15.41 23.9302H24.53C24.72 23.9302 24.78 23.9802 24.77 24.1802C24.76 24.5402 24.76 24.9202 24.77 25.2902Z" fill="#161616"/>
</g>
<defs>
<clipPath id="clip0_32_10531">
<rect width="40" height="40" fill="white"/>
</clipPath>
</defs>
</svg>
