<svg width="41" height="40" viewBox="0 0 41 40" fill="none" xmlns="http://www.w3.org/2000/svg">
<g clip-path="url(#clip0_32_10518)">
<path d="M40.2034 20.0001C40.2034 30.9801 31.3134 39.8801 20.3334 39.8801C9.35338 39.8801 0.463379 30.9701 0.463379 20.0001C0.463379 9.03012 9.35338 0.120117 20.3334 0.120117C31.3134 0.120117 40.2034 9.03012 40.2034 20.0001Z" fill="#A2A2A2"/>
<path d="M24.5834 9.74023H11.8234C11.2584 9.74023 10.7167 9.96464 10.3172 10.3641C9.91777 10.7635 9.69336 11.3053 9.69336 11.8702V28.8802C9.69336 29.4451 9.91777 29.9869 10.3172 30.3864C10.7167 30.7858 11.2584 31.0102 11.8234 31.0102H24.5834C24.8626 31.0102 25.1391 30.9551 25.397 30.8479C25.6548 30.7407 25.889 30.5837 26.086 30.3858C26.283 30.1878 26.4389 29.953 26.5449 29.6946C26.6508 29.4362 26.7047 29.1595 26.7034 28.8802V11.8702C26.7047 11.591 26.6508 11.3142 26.5449 11.0559C26.4389 10.7975 26.283 10.5626 26.086 10.3647C25.889 10.1668 25.6548 10.0097 25.397 9.90256C25.1391 9.7954 24.8626 9.74023 24.5834 9.74023ZM11.8234 20.9702C11.8334 20.5902 12.0434 20.3802 12.4234 20.3802C13.2634 20.3669 14.1034 20.3669 14.9434 20.3802C15.3334 20.3802 15.5434 20.5802 15.5534 20.9802C15.5634 21.3802 15.5534 21.8202 15.5534 22.2502V23.4502C15.5534 23.8802 15.3634 24.0902 14.9434 24.0902H12.4234C12.0334 24.0902 11.8334 23.8902 11.8234 23.5002C11.8134 22.6602 11.8134 21.8102 11.8234 20.9702ZM24.5734 14.5202C24.5789 14.6523 24.5331 14.7813 24.4454 14.8801C24.3577 14.979 24.2351 15.04 24.1034 15.0502H17.7234C17.3234 15.0402 17.0734 14.7302 17.1734 14.3802C17.1959 14.2824 17.2485 14.1941 17.3238 14.1277C17.3992 14.0613 17.4934 14.0202 17.5934 14.0102C17.6891 13.9939 17.7863 13.9872 17.8834 13.9902H24.0934C24.1599 13.9928 24.2253 14.0086 24.2857 14.0368C24.346 14.0649 24.4002 14.1049 24.4449 14.1542C24.4896 14.2036 24.524 14.2614 24.5461 14.3243C24.5681 14.3871 24.5774 14.4537 24.5734 14.5202ZM12.1434 15.1202C12.2372 15.0722 12.3438 15.055 12.448 15.0712C12.5521 15.0873 12.6485 15.136 12.7234 15.2102C12.9032 15.3701 13.0735 15.5404 13.2334 15.7202C13.3734 15.8702 13.4634 15.8802 13.6134 15.7202L15.1534 14.1802C15.2247 14.0981 15.32 14.0404 15.4258 14.0153C15.5317 13.9902 15.6427 13.9989 15.7434 14.0402C15.8347 14.0744 15.9143 14.134 15.9728 14.2119C16.0312 14.2899 16.0662 14.383 16.0734 14.4802C16.0826 14.5571 16.0738 14.635 16.0478 14.7079C16.0218 14.7808 15.9792 14.8466 15.9234 14.9002L13.5434 17.2902C13.4634 17.3802 13.3934 17.3702 13.3134 17.2902L11.9834 15.9502C11.89 15.8573 11.8363 15.7319 11.8334 15.6002C11.8325 15.4987 11.8614 15.3991 11.9165 15.3138C11.9716 15.2285 12.0505 15.1612 12.1434 15.1202ZM24.1834 23.5402L23.8534 23.5702H17.8134C17.6538 23.5862 17.4938 23.5436 17.3634 23.4502C17.2848 23.3916 17.2245 23.3121 17.1892 23.2207C17.1539 23.1293 17.1452 23.0298 17.164 22.9336C17.1828 22.8375 17.2284 22.7486 17.2955 22.6772C17.3626 22.6059 17.4486 22.5549 17.5434 22.5302C17.6252 22.5104 17.7091 22.5004 17.7934 22.5002H23.9534L24.1834 22.5202C24.2969 22.5513 24.3968 22.6193 24.4674 22.7134C24.538 22.8076 24.5753 22.9226 24.5734 23.0402C24.5762 23.1558 24.5389 23.2688 24.4678 23.36C24.3967 23.4511 24.2961 23.5148 24.1834 23.5402ZM17.1634 20.8202C17.1766 20.7168 17.2226 20.6202 17.2945 20.5447C17.3665 20.4692 17.4607 20.4185 17.5634 20.4002C17.6585 20.379 17.7562 20.3723 17.8534 20.3802H23.8734C23.9705 20.3766 24.0677 20.3833 24.1634 20.4002C24.2881 20.42 24.4004 20.4873 24.4768 20.5879C24.5532 20.6885 24.5878 20.8147 24.5734 20.9402C24.5684 21.066 24.5163 21.1852 24.4273 21.2742C24.3383 21.3631 24.2191 21.4153 24.0934 21.4202H17.7834C17.6437 21.4357 17.5029 21.404 17.3834 21.3302C17.3004 21.2765 17.2352 21.1994 17.196 21.1086C17.1569 21.0178 17.1455 20.9175 17.1634 20.8202ZM24.1234 17.1702H17.6734C17.5362 17.1677 17.4055 17.1121 17.3085 17.0151C17.2115 16.9181 17.1559 16.7873 17.1534 16.6502C17.1505 16.5812 17.1621 16.5123 17.1872 16.4479C17.2123 16.3836 17.2505 16.3251 17.2994 16.2763C17.3482 16.2274 17.4067 16.1892 17.4711 16.1641C17.5354 16.1389 17.6043 16.1274 17.6734 16.1302H23.9834C24.2334 16.1302 24.4234 16.2102 24.5334 16.4402C24.5669 16.5145 24.5825 16.5956 24.5789 16.677C24.5753 16.7584 24.5527 16.8378 24.5128 16.9088C24.4729 16.9799 24.4169 17.0405 24.3492 17.0859C24.2816 17.1313 24.2042 17.1602 24.1234 17.1702Z" fill="#161616"/>
<path d="M28.0434 19.3103C27.8634 19.3103 27.7634 19.3503 27.7734 19.5703V28.6903C27.7679 28.8132 27.8069 28.9339 27.8834 29.0303L29.2134 30.7903C29.3634 30.9903 29.3734 30.9903 29.5334 30.7803L30.7834 29.1203C30.8334 29.0503 30.8734 28.9703 30.9734 28.9403V19.2903L30.6634 19.3103H28.0434Z" fill="#161616"/>
<path d="M30.8633 16.1902C30.8533 16.1902 30.8533 16.1802 30.8433 16.1702C30.7465 15.9824 30.5958 15.8277 30.4105 15.7262C30.2252 15.6246 30.0137 15.5807 29.8033 15.6002H28.9933C28.2233 15.5802 27.7733 16.0102 27.7733 16.7702V18.4702C27.7733 18.7802 27.7833 18.7902 28.0833 18.7902H30.9733V16.6602C30.9712 16.4974 30.9337 16.337 30.8633 16.1902Z" fill="#161616"/>
<path d="M13.1134 23.0402H14.2734C14.4234 23.0402 14.4834 22.9702 14.4834 22.8202C14.4734 22.4302 14.4734 22.0302 14.4834 21.6402C14.4834 21.5002 14.4234 21.4302 14.2834 21.4302H13.0834C12.9534 21.4302 12.8934 21.4902 12.8934 21.6302C12.8934 21.7702 12.8934 22.0302 12.8934 22.2302C12.8934 22.4302 12.9034 22.6202 12.8934 22.8102C12.8834 23.0002 12.9434 23.0402 13.1134 23.0402Z" fill="#161616"/>
</g>
<defs>
<clipPath id="clip0_32_10518">
<rect width="40" height="40" fill="white" transform="translate(0.333374)"/>
</clipPath>
</defs>
</svg>
