<svg width="41" height="40" viewBox="0 0 41 40" fill="none" xmlns="http://www.w3.org/2000/svg">
<g clip-path="url(#clip0_32_10509)">
<path d="M20.6666 0.120117C9.68663 0.120117 0.796631 9.02012 0.796631 20.0001C0.796631 30.9801 9.68663 39.8801 20.6666 39.8801C31.6466 39.8801 40.5366 30.9801 40.5366 20.0001C40.5366 9.02012 31.6466 0.120117 20.6666 0.120117ZM20.7966 32.4201H20.6966C20.0648 32.38 19.472 32.1008 19.0387 31.6391C18.6055 31.1775 18.3643 30.5682 18.3643 29.9351C18.3643 29.302 18.6055 28.6927 19.0387 28.2311C19.472 27.7695 20.0648 27.4902 20.6966 27.4501H20.7966C21.1362 27.4286 21.4766 27.4768 21.7968 27.592C22.117 27.7071 22.4103 27.8866 22.6584 28.1195C22.9065 28.3524 23.1042 28.6336 23.2394 28.9459C23.3746 29.2582 23.4443 29.5948 23.4443 29.9351C23.4443 30.2754 23.3746 30.6121 23.2394 30.9243C23.1042 31.2366 22.9065 31.5179 22.6584 31.7507C22.4103 31.9836 22.117 32.1631 21.7968 32.2783C21.4766 32.3934 21.1362 32.4417 20.7966 32.4201ZM28.3566 17.1001C27.8931 18.2865 27.0851 19.3069 26.0366 20.0301C25.5466 20.3601 25.0866 20.6901 24.6566 21.0301C24.2283 21.3584 23.845 21.7417 23.5166 22.1701C23.1797 22.6171 22.9659 23.1447 22.8966 23.7001C22.8966 23.7101 22.7866 24.5701 22.5766 24.8701C22.3866 25.1793 22.1204 25.4346 21.8035 25.6114C21.4866 25.7882 21.1296 25.8808 20.7666 25.8801H20.6866C20.2855 25.8766 19.8925 25.7664 19.5481 25.5608C19.2036 25.3551 18.9201 25.0615 18.7266 24.7101C18.5066 24.2601 18.5266 23.5601 18.5266 23.5601C18.5966 22.6401 18.7766 21.8601 19.0666 21.2401C19.3252 20.6591 19.669 20.1198 20.0866 19.6401C20.454 19.2136 20.8664 18.828 21.3166 18.4901C21.7466 18.1701 22.1366 17.8501 22.5066 17.5301C22.8576 17.2223 23.1579 16.8613 23.3966 16.4601C23.6328 16.015 23.7401 15.5129 23.7066 15.0101C23.7066 14.0101 23.4666 13.2801 22.9766 12.8101C22.4866 12.3401 21.8166 12.1001 20.9566 12.1001C20.4364 12.0894 19.9214 12.2061 19.4566 12.4401C19.0477 12.66 18.6952 12.9714 18.4266 13.3501C18.1448 13.7481 17.9412 14.1961 17.8266 14.6701C17.7488 14.9635 17.6416 15.2482 17.5066 15.5201C17.3114 15.8685 17.0269 16.1586 16.6825 16.3607C16.338 16.5628 15.946 16.6696 15.5466 16.6701H15.4566C14.8572 16.6701 14.2824 16.432 13.8586 16.0082C13.4347 15.5843 13.1966 15.0095 13.1966 14.4101C13.1972 14.1883 13.2207 13.9671 13.2666 13.7501C13.3266 13.5301 13.4066 13.3201 13.4866 13.1001C13.8463 12.167 14.3867 11.314 15.0766 10.5901C15.769 9.86995 16.6032 9.30129 17.5266 8.92012C18.5514 8.51593 19.6451 8.31552 20.7466 8.33012C22.2666 8.33012 23.5466 8.54012 24.5666 8.96012C25.5866 9.38012 26.4166 9.90012 27.0466 10.5301C28.1328 11.5973 28.7575 13.0477 28.7866 14.5701C28.7566 15.5901 28.6266 16.4301 28.3566 17.1001Z" fill="#A2A2A2"/>
<path d="M23.2867 29.9402C23.284 30.5988 23.0205 31.2296 22.5538 31.6944C22.0872 32.1592 21.4553 32.4202 20.7967 32.4202H20.6967C20.0648 32.3801 19.472 32.1008 19.0388 31.6392C18.6055 31.1776 18.3644 30.5683 18.3644 29.9352C18.3644 29.3021 18.6055 28.6928 19.0388 28.2312C19.472 27.7696 20.0648 27.4903 20.6967 27.4502H20.7967C21.4571 27.4502 22.0904 27.7125 22.5574 28.1795C23.0243 28.6465 23.2867 29.2798 23.2867 29.9402Z" fill="#161616"/>
<path d="M28.7867 14.5701C28.7567 15.5901 28.6267 16.4301 28.3567 17.1001C27.8931 18.2864 27.0851 19.3069 26.0367 20.0301C25.5467 20.3601 25.0867 20.6901 24.6567 21.0301C24.2283 21.3584 23.845 21.7417 23.5167 22.1701C23.1797 22.6171 22.9659 23.1446 22.8967 23.7001C22.8967 23.7101 22.7867 24.5701 22.5767 24.8701C22.3866 25.1793 22.1204 25.4345 21.8035 25.6114C21.4866 25.7882 21.1296 25.8807 20.7667 25.8801H20.6867C20.2855 25.8766 19.8925 25.7663 19.5481 25.5607C19.2036 25.3551 18.9201 25.0615 18.7267 24.7101C18.5067 24.2601 18.5267 23.5601 18.5267 23.5601C18.5967 22.6401 18.7767 21.8601 19.0667 21.2401C19.3253 20.659 19.669 20.1198 20.0867 19.6401C20.454 19.2135 20.8664 18.828 21.3167 18.4901C21.7467 18.1701 22.1367 17.8501 22.5067 17.5301C22.8576 17.2223 23.1579 16.8612 23.3967 16.4601C23.6328 16.015 23.7401 15.5128 23.7067 15.0101C23.7067 14.0101 23.4667 13.2801 22.9767 12.8101C22.4867 12.3401 21.8167 12.1001 20.9567 12.1001C20.4364 12.0894 19.9214 12.2061 19.4567 12.4401C19.0477 12.6599 18.6952 12.9714 18.4267 13.3501C18.1449 13.7481 17.9412 14.1961 17.8267 14.6701C17.7488 14.9634 17.6416 15.2482 17.5067 15.5201C17.3114 15.8685 17.027 16.1586 16.6825 16.3607C16.3381 16.5628 15.946 16.6696 15.5467 16.6701H15.4567C14.8573 16.6701 14.2824 16.432 13.8586 16.0082C13.4348 15.5843 13.1967 15.0095 13.1967 14.4101C13.1973 14.1883 13.2207 13.9671 13.2667 13.7501C13.3267 13.5301 13.4067 13.3201 13.4867 13.1001C13.8464 12.167 14.3867 11.314 15.0767 10.5901C15.769 9.86992 16.6032 9.30127 17.5267 8.92009C18.5514 8.5159 19.6452 8.31549 20.7467 8.33009C22.2667 8.33009 23.5467 8.54009 24.5667 8.96009C25.5867 9.38009 26.4167 9.90009 27.0467 10.5301C28.1328 11.5973 28.7575 13.0477 28.7867 14.5701Z" fill="#161616"/>
</g>
<defs>
<clipPath id="clip0_32_10509">
<rect width="40" height="40" fill="white" transform="translate(0.666626)"/>
</clipPath>
</defs>
</svg>
