<svg width="41" height="40" viewBox="0 0 41 40" fill="none" xmlns="http://www.w3.org/2000/svg">
<g clip-path="url(#clip0_32_10539)">
<path d="M40.5366 20.0001C40.5366 30.9801 31.6466 39.8801 20.6666 39.8801C9.68663 39.8801 0.796631 30.9701 0.796631 20.0001C0.796631 9.03012 9.68663 0.120117 20.6666 0.120117C31.6466 0.120117 40.5366 9.03012 40.5366 20.0001Z" fill="#A2A2A2"/>
<path d="M28.5066 23.1901C27.9766 23.4301 27.0866 23.6801 26.1066 23.9601C25.7866 24.5501 25.1466 25.0401 24.1666 25.2801C23.9102 25.3375 23.6491 25.371 23.3866 25.3801C22.6866 25.4301 21.8566 25.3801 20.9366 25.3601H20.7466C20.5366 25.3401 20.3166 25.1901 20.2966 24.9801C20.2894 24.9148 20.2963 24.8487 20.3169 24.7862C20.3374 24.7238 20.371 24.6665 20.4156 24.6182C20.4601 24.5699 20.5145 24.5316 20.575 24.5061C20.6356 24.4805 20.7009 24.4683 20.7666 24.4701H20.9766C22.1466 24.5301 23.2766 24.5801 23.9566 24.4101C25.2366 24.1101 25.5766 23.3001 25.4666 22.6601C25.3566 22.0201 24.9566 21.6201 24.3166 21.7001C23.4066 21.8101 22.3466 21.7701 21.2966 21.7501C20.2466 21.7301 18.8766 21.7301 18.0266 21.8501C17.1766 21.9701 15.1366 22.7901 13.4566 24.0401C12.6266 24.6601 11.7066 25.3801 11.1566 25.8101C11.0902 25.8634 11.0351 25.9294 10.9945 26.0043C10.9539 26.0792 10.9287 26.1614 10.9203 26.2462C10.912 26.3309 10.9206 26.4165 10.9457 26.4979C10.9708 26.5792 11.0119 26.6548 11.0666 26.7201L13.7266 29.8701C13.8355 29.999 13.9904 30.0805 14.1584 30.0973C14.3263 30.1141 14.4942 30.0649 14.6266 29.9601L15.5166 29.2101C15.6224 29.1266 15.7457 29.068 15.8772 29.0386C16.0088 29.0092 16.1453 29.0097 16.2766 29.0401C18.0066 29.5101 19.8066 29.7901 21.0066 29.8101C23.5766 29.8301 28.4066 26.5701 29.7866 25.5301C31.1666 24.4901 30.0666 22.5501 28.5066 23.1901Z" fill="#161616"/>
<path d="M20.7266 19.9002H27.8066C28.0272 19.9002 28.2457 19.8567 28.4495 19.7723C28.6533 19.6879 28.8385 19.5641 28.9945 19.4081C29.1506 19.2521 29.2743 19.0669 29.3587 18.8631C29.4432 18.6593 29.4866 18.4408 29.4866 18.2202V13.8102C29.4866 13.3646 29.3096 12.9373 28.9945 12.6223C28.6795 12.3072 28.2522 12.1302 27.8066 12.1302H26.4266V11.0102C26.4279 10.8641 26.4001 10.7191 26.3448 10.5838C26.2895 10.4486 26.2078 10.3257 26.1045 10.2223C26.0011 10.119 25.8782 10.0373 25.743 9.98197C25.6077 9.92666 25.4627 9.89886 25.3166 9.90019H23.1966C23.0505 9.89886 22.9055 9.92666 22.7703 9.98197C22.635 10.0373 22.5121 10.119 22.4087 10.2223C22.3054 10.3257 22.2237 10.4486 22.1684 10.5838C22.1131 10.7191 22.0853 10.8641 22.0866 11.0102V12.1302H20.7066C20.486 12.1302 20.2675 12.1736 20.0637 12.2581C19.8599 12.3425 19.6747 12.4663 19.5187 12.6223C19.3627 12.7783 19.2389 12.9635 19.1545 13.1673C19.0701 13.3711 19.0266 13.5896 19.0266 13.8102V18.2202C19.0279 18.4421 19.0729 18.6616 19.1591 18.8662C19.2452 19.0707 19.3708 19.2563 19.5287 19.4123C19.6865 19.5683 19.8736 19.6917 20.0791 19.7754C20.2847 19.8591 20.5047 19.9015 20.7266 19.9002ZM23.1266 11.0102C23.1266 10.9602 23.1466 10.9402 23.1966 10.9402H25.3166C25.3666 10.9402 25.3866 10.9602 25.3866 11.0102V12.1302H23.1266V11.0102ZM22.2766 15.3202H23.5566V14.0502H24.9366V15.3202H26.2166V16.7102H24.9366V17.9802H23.5566V16.7102H22.2766V15.3202Z" fill="#161616"/>
</g>
<defs>
<clipPath id="clip0_32_10539">
<rect width="40" height="40" fill="white" transform="translate(0.666626)"/>
</clipPath>
</defs>
</svg>
