<svg width="41" height="40" viewBox="0 0 41 40" fill="none" xmlns="http://www.w3.org/2000/svg">
<g clip-path="url(#clip0_32_10549)">
<path d="M40.2034 20.0001C40.2034 30.9801 31.3134 39.8801 20.3334 39.8801C9.35338 39.8801 0.463379 30.9701 0.463379 20.0001C0.463379 9.03012 9.35338 0.120117 20.3334 0.120117C31.3134 0.120117 40.2034 9.03012 40.2034 20.0001Z" fill="#A2A2A2"/>
<path d="M32.4334 13.1703L32.3834 13.1503C32.0333 13.0512 31.6583 13.0944 31.34 13.2705C31.0216 13.4465 30.7856 13.7411 30.6834 14.0903L29.5834 17.8603L27.4034 19.4903L26.8434 19.2403L28.2534 17.7903C28.51 17.5499 28.6628 17.2189 28.6791 16.8677C28.6955 16.5164 28.5742 16.1727 28.341 15.9095C28.1078 15.6463 27.7811 15.4846 27.4305 15.4585C27.0798 15.4325 26.7328 15.5444 26.4634 15.7703L22.9734 18.4403C22.7191 18.6342 22.5221 18.8934 22.4034 19.1903L20.5734 25.0203L25.3834 26.9103L26.1534 23.7403L31.2334 20.7603C31.5852 20.5533 31.8459 20.2211 31.9634 19.8303L33.3434 14.8203C33.3923 14.6522 33.4075 14.4761 33.3882 14.3021C33.369 14.1281 33.3155 13.9596 33.231 13.8063C33.1464 13.653 33.0324 13.5179 32.8956 13.4088C32.7587 13.2996 32.6016 13.2186 32.4334 13.1703Z" fill="#161616"/>
<path d="M18.2633 19.1802C18.1454 18.8828 17.9483 18.6234 17.6933 18.4302L14.2133 15.7702C13.9428 15.5539 13.599 15.4508 13.2541 15.4825C12.9092 15.5142 12.5899 15.6782 12.3633 15.9402C12.1417 16.1983 12.024 16.5297 12.0333 16.8698C12.0425 17.2099 12.178 17.5344 12.4133 17.7802L13.8333 19.2302L13.2733 19.4802L11.0933 17.8502C10.9233 17.3002 10.3333 15.2802 9.99332 14.0802C9.94384 13.9066 9.86053 13.7444 9.7482 13.6031C9.63586 13.4618 9.4967 13.3441 9.33873 13.2568C9.18075 13.1694 9.00707 13.1141 8.82766 13.0941C8.64825 13.0741 8.46666 13.0898 8.29332 13.1402L8.24332 13.1602C7.90783 13.2625 7.62437 13.4896 7.45135 13.7948C7.27833 14.0999 7.22893 14.4597 7.31332 14.8002L8.70332 19.8102C8.82143 20.2037 9.0864 20.5367 9.44332 20.7402L14.5133 23.7202L15.2833 26.8902L20.1033 25.0002L18.2733 19.2102L18.2633 19.1802Z" fill="#161616"/>
</g>
<defs>
<clipPath id="clip0_32_10549">
<rect width="40" height="40" fill="white" transform="translate(0.333374)"/>
</clipPath>
</defs>
</svg>
