<svg width="80" height="80" viewBox="0 0 80 80" fill="none" xmlns="http://www.w3.org/2000/svg">
<path d="M40 80C62.0914 80 80 62.0914 80 40C80 17.9086 62.0914 0 40 0C17.9086 0 0 17.9086 0 40C0 62.0914 17.9086 80 40 80Z" fill="black"/>
<path d="M30.2581 34.6198C29.363 34.6193 28.4729 34.7542 27.6181 35.0198C27.7581 28.0398 33.7581 19.2798 33.7581 19.2798C33.7581 19.2798 25.5381 23.2598 21.8381 33.5198C20.8581 36.2398 18.7781 45.2398 23.6381 50.0598C25.1056 51.6021 27.0645 52.5851 29.1781 52.8398C29.5367 52.8797 29.8973 52.8997 30.2581 52.8998C32.6822 52.8998 35.007 51.9368 36.7211 50.2227C38.4352 48.5087 39.3981 46.1839 39.3981 43.7598C39.3981 41.3357 38.4352 39.0109 36.7211 37.2968C35.007 35.5827 32.6822 34.6198 30.2581 34.6198Z" fill="white"/>
<path d="M50.6003 34.6198C49.6986 34.6194 48.802 34.7542 47.9403 35.0198C48.1003 28.0398 54.1003 19.2798 54.1003 19.2798C54.1003 19.2798 45.8803 23.2598 42.1603 33.5198C41.2003 36.2398 39.1203 45.2398 43.9803 50.0598C45.4396 51.6021 47.3923 52.5855 49.5003 52.8398H49.5203C49.8789 52.8797 50.2395 52.8997 50.6003 52.8998C53.0244 52.8998 55.3492 51.9368 57.0633 50.2227C58.7773 48.5087 59.7403 46.1839 59.7403 43.7598C59.7403 41.3357 58.7773 39.0109 57.0633 37.2968C55.3492 35.5827 53.0244 34.6198 50.6003 34.6198Z" fill="white"/>
</svg>
