<svg width="41" height="21" viewBox="0 0 41 21" fill="none" xmlns="http://www.w3.org/2000/svg">
<path d="M0 0.0527426H7.90257C9.29204 0.0510176 10.6682 0.319977 11.9524 0.844241C13.2367 1.3685 14.4037 2.13779 15.3868 3.1081C16.3699 4.07841 17.1499 5.23072 17.682 6.49912C18.2141 7.76753 18.488 9.12715 18.488 10.5002C18.488 13.2711 17.3742 15.9285 15.3915 17.8877C13.4088 19.847 10.7198 20.9477 7.91585 20.9477H0V0.0527426Z" fill="white"/>
<path d="M30.3743 21C36.2425 21 40.9996 16.299 40.9996 10.5C40.9996 4.70101 36.2425 0 30.3743 0C24.5061 0 19.749 4.70101 19.749 10.5C19.749 16.299 24.5061 21 30.3743 21Z" fill="white"/>
</svg>
