<svg width="25" height="12" viewBox="0 0 25 12" fill="none" xmlns="http://www.w3.org/2000/svg">
<path d="M0.216797 0.0307664H4.84284C5.65621 0.0297807 6.46181 0.183472 7.21357 0.483051C7.96533 0.782631 8.64849 1.22222 9.224 1.77669C9.7995 2.33115 10.2561 2.98961 10.5676 3.71441C10.8791 4.43922 11.0394 5.21614 11.0394 6.00077C11.0394 7.58411 10.3874 9.1026 9.22674 10.2222C8.06612 11.3418 6.49198 11.9708 4.85061 11.9708H0.216797V0.0307664Z" fill="white"/>
<path d="M17.9963 12C21.4314 12 24.2161 9.31371 24.2161 6C24.2161 2.68629 21.4314 0 17.9963 0C14.5611 0 11.7764 2.68629 11.7764 6C11.7764 9.31371 14.5611 12 17.9963 12Z" fill="white"/>
</svg>
