<svg width="384" height="638" viewBox="0 0 384 638" fill="none" xmlns="http://www.w3.org/2000/svg">
<rect width="384" height="638" rx="16" fill="#F2F2F2" style="fill:#F2F2F2;fill:color(display-p3 0.9500 0.9500 0.9500);fill-opacity:1;"/>
<path fill-rule="evenodd" clip-rule="evenodd" d="M192 349C208.569 349 222 335.569 222 319C222 302.431 208.569 289 192 289C175.431 289 162 302.431 162 319C162 335.569 175.431 349 192 349ZM195.078 310.825C194.367 310.325 193.56 309.808 192.726 309.301C189.509 307.344 187.9 306.366 186.457 307.449C185.015 308.532 184.883 310.799 184.621 315.334C184.547 316.616 184.5 317.873 184.5 319C184.5 320.127 184.547 321.384 184.621 322.667C184.883 327.201 185.015 329.468 186.457 330.551C187.9 331.634 189.509 330.656 192.726 328.7C193.56 328.192 194.367 327.675 195.078 327.175C195.89 326.606 196.773 325.922 197.663 325.196C200.888 322.565 202.5 321.25 202.5 319C202.5 316.75 200.888 315.435 197.663 312.805C196.773 312.078 195.89 311.395 195.078 310.825Z" fill="#CCCCCC" style="fill:#CCCCCC;fill:color(display-p3 0.8000 0.8000 0.8000);fill-opacity:1;"/>
</svg>
