<svg width="38" height="38" viewBox="0 0 38 38" fill="none" xmlns="http://www.w3.org/2000/svg">
<rect x="-0.40625" y="0.40625" width="37.1875" height="37.1875" rx="18.5938" transform="matrix(-1 0 0 1 37.1875 0)" fill="white"/>
<rect x="-0.40625" y="0.40625" width="37.1875" height="37.1875" rx="18.5938" transform="matrix(-1 0 0 1 37.1875 0)" stroke="#5C5C5C" stroke-width="0.8125"/>
<g clip-path="url(#clip0_116_4613)">
<path d="M25.4287 11.0374C25.4165 10.8582 25.3579 10.6843 25.2579 10.5306C25.1578 10.377 25.0193 10.248 24.8542 10.1548C24.6754 10.0554 24.4713 10.0019 24.2629 10C23.994 10.0028 23.7347 10.0932 23.5301 10.2555L23.1554 10.5265C22.7307 10.8439 22.2894 11.1768 21.873 11.5252C21.4567 11.8735 21.1069 12.1677 21.0986 12.5239C21.0989 12.6202 21.1216 12.7152 21.1652 12.8026C21.0043 12.8296 20.8578 12.9059 20.7489 13.0194C20.2659 13.4374 19.8495 13.8245 19.4831 14.1884H15.0031C13.804 14.1884 12.913 14.9084 12.6715 16.0697C12.3967 17.4013 12.7381 18.6787 13.1129 19.7548C13.3411 20.3793 13.3672 21.0523 13.1878 21.6903C12.913 22.6813 12.8964 23.6335 13.1378 24.5239C13.5292 25.8787 14.1288 26.8542 15.0115 27.5665C15.1197 27.6594 15.4445 27.9303 15.8775 27.9303C16.0355 27.9301 16.1917 27.8984 16.3355 27.8374C16.6519 27.6981 17.0183 27.3961 16.96 26.6994C16.935 26.4361 16.9017 26.1806 16.8684 25.9174C16.8184 25.4839 16.7602 25.0426 16.7268 24.6168C16.6519 23.68 16.8684 22.8361 17.3597 22.1006C17.6345 21.6981 17.9343 21.4735 18.1924 21.4735C18.4506 21.4735 18.742 21.6981 19.0002 22.1006C19.4831 22.8439 19.708 23.7342 19.708 24.9032C19.698 25.1865 19.6646 25.4686 19.608 25.7471C19.5342 26.0939 19.4952 26.4464 19.4915 26.8C19.5164 27.3497 19.7663 27.7213 20.2159 27.8916C20.4524 27.9947 20.7182 28.0248 20.9744 27.9775C21.2306 27.9301 21.4638 27.8078 21.6399 27.6284C21.7886 27.4968 21.9225 27.3516 22.0396 27.1948V27.1794C23.4385 25.1819 23.9548 23.1768 23.6384 21.0555C23.5301 20.3897 23.5801 19.84 23.7716 19.329C23.9737 18.8122 24.1433 18.2848 24.2796 17.7497C24.671 16.1626 23.9298 14.8774 22.2727 14.2968H22.2644C22.0148 14.2324 21.7573 14.1986 21.4983 14.1961L21.6982 14.0335C21.831 13.9343 21.9271 13.799 21.973 13.6465C22.0873 13.723 22.2235 13.7662 22.3643 13.7703C22.5516 13.7617 22.7291 13.6901 22.864 13.569C23.3386 13.1897 23.8299 12.8103 24.3046 12.4465L24.9291 11.9587C25.0773 11.8573 25.1986 11.7258 25.2837 11.5742C25.3689 11.4226 25.4156 11.2549 25.4204 11.0839V11.0452L25.4287 11.0374ZM22.3061 20.9703C22.1898 20.3257 22.2558 19.6641 22.4976 19.0503C22.6974 18.5006 22.8806 17.951 23.0222 17.3858C23.222 16.6194 22.9389 16.0697 22.2394 15.6594C22.1062 15.5819 21.7481 15.4735 21.6815 15.2413C21.6149 15.009 21.8314 14.769 21.8814 14.6761C21.9313 14.5832 22.0479 14.6297 22.1395 14.6606C23.5801 15.1639 24.2296 16.2632 23.8799 17.6568C23.7503 18.1792 23.5862 18.6937 23.3886 19.1974C23.1471 19.8245 23.1304 20.4516 23.2304 21.1097C23.5551 23.2465 22.9472 25.1819 21.6982 26.9703C21.5925 27.1097 21.4726 27.2394 21.3401 27.3574C21.2225 27.4791 21.0657 27.5622 20.8931 27.5943C20.7205 27.6264 20.5414 27.6058 20.3825 27.5355C20.0244 27.4039 19.9245 27.1174 19.9078 26.7845C19.8912 26.1419 20.1243 25.5303 20.1243 24.8955C20.1243 23.8348 19.9578 22.8129 19.3582 21.8916C18.6588 20.8155 17.7428 20.8077 17.01 21.8839C16.4521 22.72 16.2355 23.649 16.3105 24.6323C16.3688 25.329 16.4687 26.0335 16.5437 26.7303C16.5686 27.04 16.5103 27.3342 16.1606 27.4813C15.8109 27.6284 15.5277 27.4813 15.2862 27.28C14.3536 26.5213 13.854 25.5148 13.5375 24.4232C13.2961 23.5406 13.346 22.6503 13.5875 21.7832C13.7894 21.0739 13.7604 20.3249 13.5042 19.631C13.1129 18.5006 12.8297 17.3471 13.0796 16.1394C13.2877 15.1329 14.0455 14.5445 15.0781 14.5755C15.3112 14.5832 15.3862 14.6452 15.3529 14.8697C15.3196 15.0942 15.3196 15.4348 14.77 15.4581C14.2204 15.4813 14.1121 15.8142 14.0039 16.1781C13.7968 16.8347 13.8113 17.5345 14.0455 18.1832C14.6201 19.7781 14.67 21.3419 14.337 22.9987C14.0955 24.2142 14.6784 25.3368 15.5361 26.289C15.5444 26.32 15.5444 26.3742 15.5944 26.3432C15.6443 26.3123 15.5944 26.2813 15.5944 26.2426C15.4611 25.1974 15.2779 24.1445 15.5361 23.0916C15.7359 22.3174 16.0357 21.5897 16.6269 20.9781C17.5929 19.9716 18.9252 19.9871 19.8246 21.0477C20.7239 22.1084 21.032 23.5097 21.0237 24.911C21.0153 25.4606 20.8988 25.9871 20.7988 26.5987C21.0008 26.4542 21.161 26.2653 21.2652 26.049C22.1978 24.4619 22.6641 22.7897 22.3061 20.9703ZM21.4317 13.7316C19.4831 15.3419 17.7761 17.1458 16.527 19.2981C15.7942 20.56 15.2529 21.8761 14.9781 23.2929C14.9532 23.4168 14.9698 23.5716 14.7616 23.6645C14.6617 23.3084 14.7949 23.0065 14.8616 22.7045C15.5111 19.7161 17.1349 17.2077 19.2833 14.9626C19.8329 14.3819 20.4241 13.8323 21.032 13.2981C21.2069 13.1432 21.2901 13.1432 21.4567 13.3058C21.6232 13.4684 21.6315 13.569 21.4317 13.7316ZM24.6793 11.649C23.9798 12.191 23.2803 12.7174 22.5975 13.2671C22.4143 13.4142 22.3144 13.4065 22.1478 13.2594C21.3151 12.5316 21.2985 12.5239 22.1478 11.8116C22.6724 11.3703 23.2387 10.9677 23.7883 10.5574C24.0464 10.3639 24.3462 10.3252 24.6377 10.4877C24.7445 10.5488 24.8342 10.6326 24.8993 10.7322C24.9645 10.8318 25.0032 10.9444 25.0124 11.0606C25.0074 11.1756 24.9749 11.288 24.9172 11.3898C24.8596 11.4916 24.7783 11.5801 24.6793 11.649Z" fill="#161616"/>
</g>
<defs>
<clipPath id="clip0_116_4613">
<rect width="12.8571" height="18" fill="white" transform="translate(12.5714 10)"/>
</clipPath>
</defs>
</svg>
