<svg width="60" height="60" viewBox="0 0 60 60" fill="none" xmlns="http://www.w3.org/2000/svg">
<rect width="60" height="60" rx="30" fill="white"/>
<g clip-path="url(#clip0_617_7438)">
<path d="M40.8027 28.9016C40.5262 29.8542 40.1728 30.8683 39.7118 32.0207C39.3901 32.8376 39.2284 33.7087 39.2355 34.5866V35.2626C39.2509 37.0296 39.2662 38.858 39.2201 40.6557C39.1433 42.6993 38.8821 44.3279 38.3904 45.7876C38.2061 46.31 37.9295 46.9553 37.3764 47.4624C37.0543 47.7887 36.6206 47.9808 36.1625 48.0002C35.8091 48.0002 35.3021 47.8772 34.8411 47.2166C34.3802 46.5559 33.9039 45.2652 33.6888 44.2665C33.5351 43.5597 33.3968 42.8222 33.2739 42.1C33.151 41.3779 33.0895 40.9938 32.9666 40.4406C32.7361 39.2729 32.3981 38.3817 31.8757 37.6749C31.6306 37.3301 31.3294 37.0289 30.9845 36.7838C30.777 36.6254 30.5235 36.539 30.2624 36.5379C29.9757 36.542 29.6971 36.6331 29.4634 36.7991C29.0178 37.0757 28.6644 37.4906 28.3264 38.1205C27.7118 39.3036 27.466 40.5635 27.3123 41.6391C27.1126 43.0834 26.836 44.6045 26.2522 46.0795C26.1005 46.4898 25.8937 46.8774 25.6376 47.2319C25.192 47.8772 24.6849 48.0002 24.3315 48.0002C23.8905 47.9857 23.4698 47.8109 23.1484 47.5085C22.6708 47.0356 22.3217 46.4485 22.1344 45.803C21.7195 44.6352 21.489 43.36 21.3661 41.6698C21.2739 40.4406 21.2739 38.5815 21.2739 37.6749V34.4944C21.305 33.6623 21.1529 32.8336 20.8283 32.0667C19.8911 29.8235 19.3533 27.9182 19.1075 26.0437C18.9576 25.0811 18.9628 24.1007 19.1228 23.1397C19.5377 20.8811 20.982 19.6058 23.2714 19.4521H24.0857C24.7157 19.4521 25.4532 19.5443 26.1292 20.205C26.8053 20.8657 27.6504 21.2191 28.8335 21.4189C29.2329 21.4803 29.6171 21.511 29.9858 21.5418C25.9909 26.2895 23.5326 31.1295 22.4724 36.3075C22.4558 36.427 22.4301 36.5452 22.3956 36.6609C22.2573 37.1833 22.1036 37.8286 22.288 38.5661C22.3184 38.6727 22.3711 38.7717 22.4426 38.8565C22.5142 38.9412 22.6029 39.0098 22.7029 39.0578C22.8064 39.1137 22.9233 39.1403 23.0409 39.1346C23.1515 39.1367 23.2614 39.1158 23.3635 39.0731C24.0703 38.7351 24.1472 38.1205 24.1933 37.8593V37.7671C24.6696 35.1705 25.5915 32.6506 26.9743 30.0693C28.9871 26.3356 31.7989 22.8785 35.5326 19.5136H36.8078C37.1782 19.5047 37.5486 19.5304 37.9141 19.5904C39.9423 19.9285 41.2022 21.3113 41.4481 23.4931C41.6939 25.6749 41.2329 27.4419 40.8027 28.9016Z" fill="#161616"/>
<path d="M23.0409 38.3509C22.8565 37.6595 23.1024 37.0449 23.2253 36.4457C24.4238 30.5302 27.4199 25.5519 31.3841 21.0808C32.3981 19.9284 33.5044 18.8528 34.6107 17.7927C34.9334 17.4854 35.1024 17.47 35.3943 17.808C35.6862 18.1461 35.717 18.3304 35.3482 18.6531C31.7528 21.849 28.6184 25.429 26.2983 29.6851C24.9444 32.1656 23.9805 34.8396 23.4404 37.6134C23.3943 37.8592 23.425 38.1665 23.0409 38.3509Z" fill="#161616"/>
<path d="M41.9704 13.3368C41.9551 13.8592 41.6939 14.2126 41.3405 14.5045C40.0652 15.5801 38.7592 16.6403 37.4992 17.7312C37.1612 18.0077 36.9768 18.0077 36.6695 17.7004C35.133 16.2561 35.1023 16.2408 36.6695 14.8272C37.6375 13.9514 38.6823 13.1524 39.6964 12.3381C40.1727 11.954 40.7259 11.8771 41.2636 12.1998C41.4672 12.3151 41.6385 12.4796 41.762 12.6782C41.8854 12.8769 41.9571 13.1033 41.9704 13.3368Z" fill="#161616"/>
</g>
<defs>
<clipPath id="clip0_617_7438">
<rect width="22.9706" height="36" fill="white" transform="translate(19 12)"/>
</clipPath>
</defs>
</svg>
