<svg width="38" height="38" viewBox="0 0 38 38" fill="none" xmlns="http://www.w3.org/2000/svg">
<rect width="38" height="38" rx="19" transform="matrix(-1 0 0 1 38 0)" fill="#2D2D2D"/>
<g clip-path="url(#clip0_617_13231)">
<path d="M24.1588 18.4508C24.0205 18.9271 23.8438 19.4341 23.6134 20.0103C23.4525 20.4188 23.3717 20.8543 23.3752 21.2933V21.6313C23.3829 22.5148 23.3906 23.429 23.3675 24.3279C23.3291 25.3496 23.1985 26.164 22.9527 26.8938C22.8605 27.155 22.7222 27.4777 22.4456 27.7312C22.2846 27.8943 22.0677 27.9904 21.8387 28.0001C21.662 28.0001 21.4085 27.9386 21.178 27.6083C20.9475 27.2779 20.7094 26.6326 20.6018 26.1332C20.525 25.7799 20.4559 25.4111 20.3944 25.05C20.3329 24.6889 20.3022 24.4969 20.2408 24.2203C20.1255 23.6364 19.9565 23.1909 19.6953 22.8375C19.5728 22.6651 19.4221 22.5144 19.2497 22.3919C19.146 22.3127 19.0192 22.2695 18.8886 22.269C18.7453 22.271 18.606 22.3165 18.4892 22.3996C18.2664 22.5379 18.0897 22.7453 17.9207 23.0603C17.6134 23.6518 17.4904 24.2818 17.4136 24.8195C17.3137 25.5417 17.1755 26.3023 16.8835 27.0398C16.8077 27.2449 16.7043 27.4387 16.5762 27.616C16.3534 27.9386 16.0999 28.0001 15.9232 28.0001C15.7027 27.9929 15.4924 27.9055 15.3317 27.7542C15.0928 27.5178 14.9183 27.2243 14.8246 26.9015C14.6172 26.3176 14.502 25.68 14.4405 24.8349C14.3944 24.2203 14.3944 23.2907 14.3944 22.8375V21.2472C14.4099 20.8312 14.3339 20.4168 14.1716 20.0334C13.703 18.9117 13.4341 17.9591 13.3112 17.0218C13.2362 16.5405 13.2388 16.0503 13.3189 15.5699C13.5263 14.4405 14.2484 13.8029 15.3931 13.7261H15.8003C16.1153 13.7261 16.484 13.7722 16.8221 14.1025C17.1601 14.4329 17.5826 14.6096 18.1742 14.7094C18.3739 14.7402 18.566 14.7555 18.7504 14.7709C16.7529 17.1448 15.5237 19.5647 14.9936 22.1537C14.9853 22.2135 14.9725 22.2726 14.9552 22.3304C14.8861 22.5916 14.8093 22.9143 14.9014 23.2831C14.9167 23.3364 14.943 23.3859 14.9788 23.4282C15.0145 23.4706 15.0589 23.5049 15.1089 23.5289C15.1607 23.5569 15.2191 23.5702 15.2779 23.5673C15.3332 23.5683 15.3882 23.5579 15.4392 23.5366C15.7926 23.3676 15.831 23.0603 15.8541 22.9297V22.8836C16.0922 21.5852 16.5532 20.3253 17.2446 19.0347C18.251 17.1678 19.6569 15.4393 21.5237 13.7568H22.1614C22.3465 13.7523 22.5317 13.7652 22.7145 13.7952C23.7286 13.9642 24.3586 14.6557 24.4815 15.7466C24.6044 16.8375 24.3739 17.721 24.1588 18.4508Z" fill="#B9B9B9"/>
<path d="M15.2779 23.1756C15.1857 22.8299 15.3086 22.5226 15.3701 22.223C15.9693 19.2652 17.4674 16.7761 19.4495 14.5405C19.9565 13.9643 20.5097 13.4265 21.0628 12.8965C21.2241 12.7428 21.3086 12.7351 21.4546 12.9041C21.6006 13.0732 21.6159 13.1653 21.4316 13.3267C19.6339 14.9246 18.0666 16.7146 16.9066 18.8427C16.2297 20.0829 15.7477 21.4199 15.4776 22.8068C15.4546 22.9297 15.47 23.0834 15.2779 23.1756Z" fill="#B9B9B9"/>
<path d="M24.7427 10.6685C24.735 10.9297 24.6044 11.1064 24.4277 11.2524C23.79 11.7902 23.137 12.3203 22.5071 12.8657C22.3381 13.004 22.2459 13.004 22.0922 12.8503C21.324 12.1282 21.3086 12.1205 22.0922 11.4137C22.5762 10.9758 23.0986 10.5763 23.6057 10.1692C23.8438 9.9771 24.1204 9.93869 24.3893 10.1C24.491 10.1577 24.5767 10.2399 24.6384 10.3392C24.7002 10.4385 24.736 10.5518 24.7427 10.6685Z" fill="#B9B9B9"/>
</g>
<defs>
<clipPath id="clip0_617_13231">
<rect width="11.4853" height="18" fill="white" transform="translate(13.2574 10)"/>
</clipPath>
</defs>
</svg>
