<svg width="60" height="60" viewBox="0 0 60 60" fill="none" xmlns="http://www.w3.org/2000/svg">
<rect width="60" height="60" rx="30" fill="#353434"/>
<g clip-path="url(#clip0_617_7600)">
<path d="M40.8028 28.9016C40.5262 29.8542 40.1728 30.8683 39.7119 32.0207C39.3902 32.8376 39.2285 33.7087 39.2356 34.5866V35.2626C39.2509 37.0296 39.2663 38.858 39.2202 40.6557C39.1434 42.6993 38.8822 44.3279 38.3905 45.7876C38.2061 46.31 37.9295 46.9553 37.3764 47.4624C37.0543 47.7887 36.6206 47.9808 36.1626 48.0002C35.8092 48.0002 35.3021 47.8772 34.8412 47.2166C34.3803 46.5559 33.9039 45.2652 33.6888 44.2665C33.5352 43.5597 33.3969 42.8222 33.274 42.1C33.1511 41.3779 33.0896 40.9938 32.9667 40.4406C32.7362 39.2729 32.3982 38.3817 31.8758 37.6749C31.6307 37.3301 31.3294 37.0289 30.9846 36.7838C30.7771 36.6254 30.5235 36.539 30.2625 36.5379C29.9758 36.542 29.6972 36.6331 29.4635 36.7991C29.0179 37.0757 28.6645 37.4906 28.3265 38.1205C27.7119 39.3036 27.466 40.5635 27.3124 41.6391C27.1126 43.0834 26.8361 44.6045 26.2522 46.0795C26.1005 46.4898 25.8938 46.8774 25.6376 47.2319C25.192 47.8772 24.685 48.0002 24.3316 48.0002C23.8905 47.9857 23.4699 47.8109 23.1485 47.5085C22.6708 47.0356 22.3218 46.4485 22.1344 45.803C21.7196 44.6352 21.4891 43.36 21.3662 41.6698C21.274 40.4406 21.274 38.5815 21.274 37.6749V34.4944C21.305 33.6623 21.1529 32.8336 20.8284 32.0667C19.8911 29.8235 19.3534 27.9182 19.1075 26.0437C18.9576 25.0811 18.9628 24.1007 19.1229 23.1397C19.5377 20.8811 20.982 19.6058 23.2714 19.4521H24.0858C24.7157 19.4521 25.4532 19.5443 26.1293 20.205C26.8053 20.8657 27.6504 21.2191 28.8335 21.4189C29.233 21.4803 29.6171 21.511 29.9859 21.5418C25.991 26.2895 23.5326 31.1295 22.4724 36.3075C22.4558 36.427 22.4301 36.5452 22.3956 36.6609C22.2573 37.1833 22.1037 37.8286 22.2881 38.5661C22.3185 38.6727 22.3712 38.7717 22.4427 38.8565C22.5142 38.9412 22.6029 39.0098 22.7029 39.0578C22.8065 39.1137 22.9234 39.1403 23.0409 39.1346C23.1516 39.1367 23.2615 39.1158 23.3636 39.0731C24.0704 38.7351 24.1472 38.1205 24.1933 37.8593V37.7671C24.6696 35.1705 25.5915 32.6506 26.9744 30.0693C28.9872 26.3356 31.7989 22.8785 35.5326 19.5136H36.8079C37.1783 19.5047 37.5486 19.5304 37.9142 19.5904C39.9424 19.9285 41.2023 21.3113 41.4481 23.4931C41.694 25.6749 41.233 27.4419 40.8028 28.9016Z" fill="white"/>
<path d="M23.041 38.3509C22.8566 37.6595 23.1024 37.0449 23.2253 36.4457C24.4238 30.5302 27.42 25.5519 31.3841 21.0808C32.3982 19.9284 33.5045 18.8528 34.6108 17.7927C34.9334 17.4854 35.1024 17.47 35.3944 17.808C35.6863 18.1461 35.717 18.3304 35.3483 18.6531C31.7529 21.849 28.6184 25.429 26.2983 29.6851C24.9445 32.1656 23.9806 34.8396 23.4405 37.6134C23.3944 37.8592 23.4251 38.1665 23.041 38.3509Z" fill="white"/>
<path d="M41.9706 13.3368C41.9552 13.8592 41.694 14.2126 41.3406 14.5045C40.0653 15.5801 38.7593 16.6403 37.4994 17.7312C37.1613 18.0077 36.977 18.0077 36.6697 17.7004C35.1332 16.2561 35.1024 16.2408 36.6697 14.8272C37.6376 13.9514 38.6825 13.1524 39.6965 12.3381C40.1729 11.954 40.726 11.8771 41.2638 12.1998C41.4673 12.3151 41.6386 12.4796 41.7621 12.6782C41.8856 12.8769 41.9572 13.1033 41.9706 13.3368Z" fill="white"/>
</g>
<defs>
<clipPath id="clip0_617_7600">
<rect width="22.9706" height="36" fill="white" transform="translate(19 12)"/>
</clipPath>
</defs>
</svg>
