<svg width="60" height="60" viewBox="0 0 60 60" fill="none" xmlns="http://www.w3.org/2000/svg">
<rect width="60" height="60" rx="30" fill="#353434"/>
<path d="M35.7122 28.9336C32.4069 28.9336 29.5737 26.9908 28.2921 23.8474C27.0104 20.7039 27.685 17.3176 30.0594 15.0106C30.2618 14.8083 30.4777 14.6194 30.707 14.4305C30.2164 14.3504 29.7201 14.3098 29.223 14.3091C27.2574 14.3149 25.3478 14.964 23.786 16.1574C23.5162 16.3463 23.2194 16.5351 22.8686 16.5351C22.5178 16.5351 22.1671 16.3732 21.6409 16.009C19.8601 14.8487 18.0522 14.2551 16.2579 14.2551C13.6406 14.2551 11.1178 15.5368 9.32342 17.7494C7.69512 19.7245 6.87132 22.2408 7.01635 24.7965C7.16139 27.3522 8.26461 29.7592 10.1059 31.5374C10.6754 32.0421 11.1257 32.667 11.4244 33.3669C11.723 34.0669 11.8625 34.8244 11.8328 35.5847C11.8328 39.6861 13.6271 43.5176 16.5277 45.5817C16.8789 45.8312 17.2977 45.9677 17.7284 45.973C18.0254 45.9658 18.3177 45.8973 18.5869 45.772C18.8562 45.6466 19.0967 45.467 19.2934 45.2445C19.5595 44.9522 19.7636 44.609 19.8934 44.2357C20.0232 43.8624 20.0762 43.4667 20.0489 43.0724C19.9567 40.5376 20.3553 38.0088 21.2227 35.6252C21.6544 34.438 22.329 33.5071 22.8011 33.4666H22.8551C23.071 33.4666 23.3138 33.669 23.5836 34.0872C25.378 36.8934 25.5803 40.4956 25.5803 42.951V42.9779C25.5433 43.3843 25.59 43.7939 25.7176 44.1814C25.8453 44.569 26.0511 44.9262 26.3224 45.231C26.7541 45.7301 27.2937 46 27.8604 46C28.282 45.9901 28.6909 45.8538 29.0341 45.6087C30.5627 44.4516 31.7917 42.9449 32.618 41.2149C33.4443 39.4848 33.8438 37.5819 33.783 35.6657C33.7631 34.9039 33.9056 34.1465 34.201 33.444C34.4964 32.7416 34.938 32.11 35.4964 31.5913C36.3355 30.7688 37.037 29.8168 37.574 28.7717C37.0291 28.8915 36.4725 28.9503 35.9146 28.9471L35.7122 28.9336Z" fill="white"/>
<path d="M50.7686 31.5104L50.4178 31.1597L46.7482 28.0567C46.2735 27.6758 45.6839 27.4666 45.0753 27.4631C44.6424 27.4633 44.2162 27.5699 43.8341 27.7734L43.7397 27.8003C43.6833 27.7981 43.63 27.7739 43.5913 27.7329L41.9858 26.1409L41.0414 25.1021C41.4664 24.5604 41.8117 23.9607 42.0668 23.3213C43.1326 20.6905 42.5659 17.8843 40.6097 15.982C39.3309 14.7125 37.602 14 35.8001 14C33.9981 14 32.2692 14.7125 30.9905 15.982C29.0342 17.8978 28.4811 20.7175 29.5469 23.3347C30.6127 25.952 32.9737 27.5845 35.7124 27.5845H35.9148C37.5421 27.5894 39.1119 26.9826 40.3129 25.8846L42.7548 28.5693C42.7845 28.6044 42.8029 28.6477 42.8077 28.6934C42.8125 28.7391 42.8035 28.7852 42.7818 28.8257C42.5362 29.2836 42.4332 29.8045 42.4861 30.3214C42.539 30.8383 42.7453 31.3276 43.0786 31.7263L46.1816 35.3959C46.4642 35.7287 46.8156 35.9963 47.2115 36.1803C47.6074 36.3643 48.0385 36.4603 48.4751 36.4617C49.0485 36.461 49.6097 36.2965 50.0927 35.9875C50.5757 35.6785 50.9603 35.238 51.2013 34.7177C51.4423 34.1974 51.5296 33.6191 51.4529 33.0509C51.3763 32.4827 51.1388 31.9482 50.7686 31.5104ZM39.1527 20.569C39.0821 19.6836 38.6832 18.8565 38.0342 18.25C37.3853 17.6435 36.5331 17.3013 35.6449 17.2907C35.5701 17.2918 35.4958 17.278 35.4264 17.2502C35.3569 17.2224 35.2936 17.1812 35.2402 17.1288C35.1362 17.0186 35.0741 16.8753 35.0648 16.724C35.1053 16.4542 35.2267 16.1169 35.9013 16.1169C36.9401 16.1169 38.5321 16.9669 38.9368 17.4796L38.9638 17.52C39.5439 18.0192 40.5288 19.827 40.2724 20.677C40.205 20.9333 40.0161 21.0682 39.7193 21.1087C39.5745 21.1057 39.4361 21.0486 39.3313 20.9488C39.2264 20.8489 39.1627 20.7135 39.1527 20.569Z" fill="white"/>
</svg>
