<svg width="38" height="38" viewBox="0 0 38 38" fill="none" xmlns="http://www.w3.org/2000/svg">
<rect width="38" height="38" rx="19" transform="matrix(-1 0 0 1 38 0)" fill="white"/>
<g clip-path="url(#clip0_116_4469)">
<path d="M27.0094 20.1995L25.5686 18.8133C25.4696 18.7197 25.345 18.6685 25.2163 18.6685C25.0876 18.6685 24.963 18.7197 24.864 18.8133C24.7505 18.9204 24.6786 19.0739 24.6637 19.2408C24.6488 19.4077 24.6922 19.5745 24.7846 19.7053L26.0029 21.3446L26.04 21.3868C26.1054 21.4649 26.1844 21.5267 26.272 21.5682C26.3595 21.6097 26.4537 21.63 26.5486 21.6278C26.6419 21.6282 26.7344 21.6077 26.8208 21.5673C26.9071 21.527 26.9856 21.4677 27.0518 21.3928L27.0889 21.3446C27.151 21.2645 27.1981 21.1708 27.2273 21.0692C27.2564 20.9676 27.267 20.8604 27.2584 20.754C27.2518 20.6472 27.2263 20.5431 27.1836 20.4479C27.1408 20.3526 27.0816 20.2681 27.0094 20.1995Z" fill="#161616"/>
<path d="M23.4603 13.0094C22.9584 12.4441 22.2807 12.127 21.5744 12.127C20.8682 12.127 20.1905 12.4441 19.6886 13.0094C18.9152 13.8652 18.6981 15.1248 19.1165 16.294C19.535 17.4632 20.462 18.1924 21.5374 18.1924H21.6168C22.6869 18.1924 23.6139 17.4632 24.0324 16.2879C24.4508 15.1127 24.2284 13.8592 23.4603 13.0094ZM23.3278 15.1067C23.3013 15.2212 23.2272 15.2815 23.1106 15.2996C23.0538 15.2982 22.9995 15.2727 22.9583 15.2281C22.9171 15.1835 22.8921 15.123 22.8882 15.0585C22.8616 14.663 22.7051 14.2934 22.4499 14.0232C22.1947 13.7529 21.8595 13.6019 21.5109 13.6C21.4509 13.5987 21.3938 13.5706 21.352 13.5217C21.3132 13.4732 21.2891 13.412 21.2831 13.3469C21.299 13.2263 21.3467 13.0696 21.6115 13.0696C22.0194 13.0696 22.6445 13.4493 22.8034 13.6844L22.814 13.6964C23.0418 13.9194 23.4285 14.733 23.3278 15.1067Z" fill="#161616"/>
<path d="M27.6504 19.7473H27.6451L27.4914 19.5725L26.04 18.1863C25.8088 17.9645 25.5161 17.8428 25.2136 17.8428C25.0482 17.8426 24.8845 17.8795 24.7316 17.9513L24.3025 17.4691C25.0494 16.3542 25.1818 14.8656 24.6468 13.5397C24.1118 12.2138 22.9199 11.2856 21.6168 11.2856H21.5691C20.8564 11.2878 20.1621 11.5427 19.5827 12.0149C19.3914 11.9836 19.1985 11.9675 19.0053 11.9667H18.9894C18.1627 11.9688 17.3593 12.2778 16.701 12.8466C16.6533 12.8827 16.558 12.9551 16.4944 12.9551C16.4308 12.9551 16.3196 12.9008 16.166 12.7743H16.1607C15.419 12.2258 14.6562 11.9486 13.8987 11.9486C12.7916 11.9486 11.7269 12.5573 10.9747 13.612C10.2912 14.552 9.94497 15.7509 10.0053 16.9689C10.0613 18.1872 10.5258 19.3347 11.3031 20.1752H11.3084C11.5034 20.372 11.6574 20.616 11.7591 20.8891C11.8608 21.1623 11.9077 21.4578 11.8964 21.7542V21.7662C11.8964 23.6948 12.6433 25.4968 13.8511 26.4611C14.0279 26.6142 14.2433 26.6987 14.4655 26.7022H14.4814C14.6342 26.6969 14.7844 26.6563 14.9228 26.5827C15.0613 26.5091 15.1851 26.4042 15.2866 26.2743C15.4153 26.115 15.514 25.9276 15.5769 25.7235C15.6397 25.5193 15.6653 25.3028 15.6521 25.087C15.6158 23.9935 15.767 22.9025 16.0971 21.8747C16.2295 21.4769 16.3884 21.2238 16.4785 21.1334L16.5527 21.2479C17.2201 22.4352 17.2943 23.9841 17.2943 25.0448C17.2794 25.2644 17.3031 25.4851 17.364 25.6941C17.425 25.9032 17.5219 26.0963 17.6492 26.2622C17.8717 26.5515 18.1577 26.7082 18.4544 26.7082H18.4597C18.6785 26.7042 18.891 26.6243 19.0688 26.4792H19.0741C19.709 25.9346 20.2194 25.2244 20.5623 24.4083C20.9053 23.5923 21.0707 22.6944 21.0447 21.7903C21.0389 21.493 21.0883 21.1976 21.1896 20.9235C21.2909 20.6493 21.4419 20.4025 21.6327 20.1993H21.638C21.9818 19.8164 22.2713 19.3753 22.4961 18.8914C22.8926 18.7599 23.2656 18.5497 23.598 18.2707L24.0218 18.7528C23.9322 18.9995 23.904 19.2695 23.9405 19.5332C23.9769 19.7968 24.0765 20.044 24.2283 20.2475L25.4467 21.8868C25.5815 22.0681 25.7495 22.2138 25.9388 22.3137C26.1282 22.4137 26.3345 22.4654 26.5432 22.4653H26.5591C26.9052 22.4659 27.2399 22.3247 27.502 22.0676C27.7905 21.7824 27.9681 21.3789 27.9958 20.9452C28.0236 20.5116 27.8994 20.0831 27.6504 19.7533V19.7473ZM27.3272 21.8325C27.1113 22.0455 26.8343 22.1613 26.5485 22.158C26.3775 22.1581 26.2085 22.1161 26.0531 22.035C25.8976 21.9538 25.7595 21.8354 25.648 21.6879L24.4296 20.0486C24.2996 19.8688 24.2192 19.6493 24.1985 19.4177C24.1777 19.1861 24.2176 18.9527 24.3131 18.7468C24.3229 18.7302 24.3272 18.7102 24.3253 18.6904C24.3234 18.6705 24.3153 18.652 24.3025 18.6383L23.6721 17.9211C23.6643 17.9129 23.6552 17.9065 23.6452 17.9023C23.6351 17.8982 23.6245 17.8964 23.6139 17.897C23.5951 17.8973 23.5767 17.9036 23.5609 17.9151C23.207 18.2475 22.7927 18.4862 22.3478 18.6142C22.3366 18.6177 22.326 18.6237 22.3169 18.632C22.3078 18.6403 22.3003 18.6507 22.2949 18.6624C22.0802 19.1506 21.7956 19.5946 21.4526 19.9763C21.2352 20.2096 21.0631 20.492 20.9472 20.8055C20.8314 21.1189 20.7744 21.4564 20.7798 21.7964C20.8046 22.6525 20.6481 23.5029 20.3236 24.2759C19.9991 25.0489 19.5161 25.7219 18.9152 26.2381C18.7805 26.3476 18.6199 26.4085 18.4544 26.4129C18.2319 26.4129 18.02 26.2923 17.8505 26.0694C17.7453 25.9322 17.6653 25.7725 17.6152 25.5997C17.5652 25.4268 17.5461 25.2443 17.5591 25.0629V25.0508C17.5591 23.9539 17.4797 22.3508 16.7751 21.0912C16.6692 20.9044 16.5738 20.814 16.4891 20.814H16.4679C16.2825 20.8381 16.0176 21.2539 15.8481 21.7783C15.5079 22.8432 15.3514 23.9727 15.3873 25.1051C15.3981 25.2821 15.3774 25.4599 15.3264 25.6276C15.2754 25.7954 15.1952 25.9497 15.0906 26.0814C15.0122 26.1807 14.9168 26.2608 14.8102 26.3168C14.7036 26.3727 14.5882 26.4034 14.4708 26.4069C14.3026 26.4039 14.1395 26.3406 14.0047 26.226C12.8658 25.31 12.1612 23.5984 12.1612 21.7723C12.1741 21.4315 12.1199 21.0918 12.0026 20.778C11.8852 20.4641 11.7078 20.184 11.4832 19.9582C10.7602 19.1638 10.3271 18.0886 10.2701 16.9469C10.2132 15.8053 10.5366 14.6811 11.176 13.7988C11.8805 12.8104 12.8711 12.2439 13.8987 12.2439C14.6033 12.2439 15.3131 12.5031 16.0123 13.0214C16.2189 13.1841 16.362 13.2564 16.4944 13.2564C16.6268 13.2564 16.7486 13.172 16.8546 13.0877C17.2453 12.7526 17.6923 12.5123 18.1679 12.3817C18.6436 12.251 19.1377 12.2329 19.6198 12.3283H19.6356C19.6447 12.3293 19.6539 12.3276 19.6623 12.3234C19.6706 12.3191 19.6779 12.3125 19.6833 12.3042C20.2274 11.8399 20.889 11.5883 21.5691 11.587H21.6168C22.814 11.587 23.884 12.3825 24.4032 13.6602C24.9223 14.9379 24.7687 16.3783 23.9953 17.4209C23.9844 17.44 23.979 17.4625 23.98 17.4852C23.9809 17.5079 23.9881 17.5297 24.0006 17.5475L24.6309 18.2586C24.6461 18.277 24.6671 18.2878 24.6892 18.2888L24.7263 18.2767C24.9069 18.1665 25.1123 18.1202 25.3162 18.1438C25.5201 18.1675 25.7131 18.2599 25.8705 18.4093L27.3113 19.7894L27.4491 19.9461C27.6527 20.2147 27.7542 20.5643 27.7314 20.918C27.7085 21.2717 27.5632 21.6007 27.3272 21.8325Z" fill="#161616"/>
<path d="M21.5691 18.7285C20.9802 18.7265 20.4037 18.5362 19.9053 18.1793C19.4068 17.8223 19.0067 17.3132 18.7504 16.7099C18.4941 16.1067 18.392 15.4336 18.4558 14.7675C18.5196 14.1014 18.7467 13.4691 19.1112 12.9428C19.1215 12.93 19.1281 12.9138 19.13 12.8965C19.1319 12.8793 19.129 12.8618 19.1218 12.8464C19.1162 12.8295 19.1059 12.8151 19.0926 12.8054C19.0792 12.7956 19.0635 12.791 19.0477 12.7922H18.9788C18.3099 12.7929 17.66 13.0451 17.1301 13.5093C16.9076 13.6962 16.701 13.7926 16.4891 13.7926C16.2772 13.7926 16.0176 13.6841 15.7475 13.4611C15.1436 13.0091 14.5238 12.7861 13.9093 12.7861C13.0088 12.7861 12.1507 13.2743 11.5415 14.1301C10.979 14.913 10.6947 15.9074 10.7447 16.917C10.7947 17.9266 11.1754 18.8783 11.8116 19.5843C12.0805 19.8611 12.2928 20.2014 12.4337 20.5814C12.5746 20.9614 12.6407 21.3719 12.6274 21.7841C12.622 22.0344 12.638 22.2847 12.6751 22.5314C12.7356 23.1732 12.9094 23.7943 13.1861 24.3577C13.4629 24.9211 13.8368 25.4151 14.2855 25.81C14.342 25.8527 14.4083 25.8757 14.4762 25.8763C14.5361 25.8778 14.5952 25.8589 14.6457 25.8221C14.7887 25.7136 14.9211 25.5569 14.9211 25.1109C14.9105 23.5861 15.2125 20.621 16.4202 20.2895H16.4573C16.6037 20.2915 16.7469 20.3392 16.8711 20.4274C16.9953 20.5156 17.0959 20.6409 17.1618 20.7897V20.8018C17.9299 22.1819 18.02 23.8935 18.02 25.0567C18.0147 25.358 18.0783 25.6111 18.2001 25.7497C18.2313 25.7878 18.269 25.8181 18.3109 25.8388C18.3529 25.8595 18.3981 25.8702 18.4438 25.8703C18.5063 25.8701 18.5679 25.8536 18.6239 25.8221L18.6345 25.81C19.175 25.3421 19.6087 24.7332 19.8991 24.0346C20.1895 23.3361 20.328 22.5684 20.3031 21.7962C20.299 21.3869 20.3688 20.981 20.5082 20.6036C20.6476 20.2262 20.8537 19.8855 21.1136 19.6024C21.3168 19.3854 21.4932 19.1381 21.638 18.8672C21.646 18.8527 21.6503 18.836 21.6503 18.8189C21.6503 18.8019 21.646 18.7852 21.638 18.7707C21.6301 18.7583 21.6197 18.748 21.6078 18.7407C21.5959 18.7334 21.5827 18.7292 21.5691 18.7285Z" fill="#161616"/>
</g>
<defs>
<clipPath id="clip0_116_4469">
<rect width="18" height="15.4286" fill="white" transform="translate(10 11.2856)"/>
</clipPath>
</defs>
</svg>
