<svg width="38" height="38" viewBox="0 0 38 38" fill="none" xmlns="http://www.w3.org/2000/svg">
<rect width="38" height="38" rx="19" transform="matrix(-1 0 0 1 38 0)" fill="#2D2D2D"/>
<path d="M21.6192 18.5685C20.2816 18.5685 19.1351 17.7823 18.6164 16.5102C18.0978 15.2381 18.3708 13.8677 19.3316 12.9342C19.4135 12.8523 19.5009 12.7758 19.5937 12.6994C19.3952 12.667 19.1943 12.6505 18.9931 12.6503C18.1977 12.6526 17.425 12.9153 16.7929 13.3982C16.6837 13.4747 16.5636 13.5511 16.4217 13.5511C16.2797 13.5511 16.1378 13.4856 15.9249 13.3382C15.2042 12.8686 14.4726 12.6284 13.7465 12.6284C12.6873 12.6284 11.6664 13.1471 10.9402 14.0425C10.2813 14.8417 9.94792 15.8601 10.0066 16.8943C10.0653 17.9285 10.5118 18.9026 11.2569 19.6222C11.4874 19.8264 11.6696 20.0793 11.7904 20.3625C11.9113 20.6458 11.9677 20.9523 11.9557 21.26C11.9557 22.9198 12.6819 24.4703 13.8557 25.3056C13.9978 25.4066 14.1673 25.4618 14.3416 25.4639C14.4617 25.461 14.58 25.4333 14.689 25.3826C14.798 25.3319 14.8953 25.2592 14.9749 25.1691C15.0825 25.0508 15.1651 24.912 15.2177 24.7609C15.2702 24.6098 15.2916 24.4497 15.2806 24.2901C15.2433 23.2643 15.4046 22.241 15.7556 21.2764C15.9303 20.796 16.2033 20.4193 16.3944 20.4029H16.4162C16.5036 20.4029 16.6018 20.4848 16.711 20.654C17.4372 21.7896 17.5191 23.2473 17.5191 24.241V24.2519C17.5041 24.4163 17.523 24.5821 17.5746 24.7389C17.6263 24.8958 17.7096 25.0403 17.8193 25.1637C17.994 25.3657 18.2124 25.4749 18.4417 25.4749C18.6123 25.4709 18.7778 25.4157 18.9167 25.3165C19.5353 24.8483 20.0327 24.2385 20.367 23.5384C20.7014 22.8383 20.8631 22.0683 20.8385 21.2928C20.8304 20.9845 20.8881 20.678 21.0077 20.3938C21.1272 20.1095 21.3059 19.8539 21.5319 19.644C21.8714 19.3111 22.1553 18.9259 22.3726 18.5029C22.1521 18.5514 21.9269 18.5752 21.7011 18.5739L21.6192 18.5685Z" fill="#B9B9B9"/>
<path d="M27.7122 19.6115L27.5703 19.4695L26.0853 18.2138C25.8931 18.0597 25.6546 17.975 25.4083 17.9736C25.2331 17.9737 25.0606 18.0168 24.906 18.0992L24.8678 18.1101C24.8449 18.1092 24.8234 18.0994 24.8077 18.0828L24.158 17.4386L23.7758 17.0182C23.9478 16.799 24.0875 16.5563 24.1908 16.2975C24.6221 15.2329 24.3928 14.0973 23.6011 13.3275C23.0836 12.8137 22.384 12.5254 21.6548 12.5254C20.9256 12.5254 20.2259 12.8137 19.7084 13.3275C18.9168 14.1027 18.693 15.2438 19.1243 16.303C19.5556 17.3621 20.511 18.0227 21.6193 18.0227H21.7012C22.3597 18.0247 22.995 17.7792 23.481 17.3348L24.4692 18.4213C24.4812 18.4355 24.4887 18.453 24.4906 18.4715C24.4926 18.49 24.4889 18.5086 24.4801 18.525C24.3807 18.7103 24.3391 18.9211 24.3605 19.1303C24.3819 19.3395 24.4654 19.5375 24.6002 19.6988L25.856 21.1838C25.9703 21.3185 26.1125 21.4268 26.2727 21.5013C26.433 21.5757 26.6074 21.6146 26.7841 21.6151C27.0161 21.6149 27.2432 21.5483 27.4387 21.4232C27.6341 21.2982 27.7898 21.1199 27.8873 20.9094C27.9848 20.6988 28.0202 20.4648 27.9892 20.2349C27.9581 20.0049 27.862 19.7886 27.7122 19.6115ZM23.0115 15.1837C22.9829 14.8254 22.8215 14.4907 22.5589 14.2453C22.2963 13.9998 21.9514 13.8614 21.592 13.8571C21.5617 13.8575 21.5317 13.8519 21.5036 13.8407C21.4754 13.8294 21.4498 13.8127 21.4282 13.7915C21.3861 13.7469 21.361 13.689 21.3572 13.6278C21.3736 13.5186 21.4228 13.3821 21.6957 13.3821C22.1161 13.3821 22.7604 13.726 22.9241 13.9335L22.9351 13.9499C23.1698 14.1519 23.5684 14.8835 23.4646 15.2274C23.4373 15.3311 23.3609 15.3857 23.2408 15.4021C23.1822 15.4009 23.1262 15.3778 23.0838 15.3374C23.0414 15.297 23.0156 15.2422 23.0115 15.1837Z" fill="#B9B9B9"/>
</svg>
