<svg width="124" height="80" viewBox="0 0 124 80" fill="none" xmlns="http://www.w3.org/2000/svg">
<path d="M29.6767 0.960119C44.6567 0.960119 58.8877 10.6971 58.8877 28.6731V51.3571C58.8877 69.3331 44.6567 79.0701 29.6767 79.0701C14.8037 79.0701 0.572696 69.3331 0.572696 51.3571V28.6731C0.572696 10.6971 14.8037 0.960119 29.6767 0.960119ZM29.6767 66.6581C38.3437 66.6581 45.7267 60.7731 45.7267 51.3571V28.6731C45.7267 19.2571 38.3437 13.3721 29.6767 13.3721C21.1167 13.3721 13.7337 19.2571 13.7337 28.6731V51.3571C13.7337 60.7731 21.1167 66.6581 29.6767 66.6581ZM123.491 25.0351C123.491 51.0361 83.0446 51.4641 83.0446 65.5881H123.491V78.0001H69.5626V65.5881C69.5626 42.0481 110.223 41.6201 110.223 24.6071C110.223 18.2941 105.408 13.3721 97.8106 13.3721C88.9296 13.3721 82.7236 18.4011 82.7236 25.5701H69.5626C69.5626 11.8741 81.7606 0.960119 97.9176 0.960119C112.363 0.960119 123.491 10.3761 123.491 25.0351Z" fill="url(#paint0_linear_30_59071)"/>
<defs>
<linearGradient id="paint0_linear_30_59071" x1="61.5" y1="-1.99988" x2="61.5" y2="78.0001" gradientUnits="userSpaceOnUse">
<stop stop-color="#404040"/>
<stop offset="1" stop-color="#242323"/>
</linearGradient>
</defs>
</svg>
