<svg width="100" height="100" viewBox="0 0 100 100" fill="none" xmlns="http://www.w3.org/2000/svg">
<rect width="100" height="100" rx="50" fill="url(#paint0_linear_30_58638)"/>
<g clip-path="url(#clip0_30_58638)">
<path d="M31.7921 32.059C31.7921 31.8029 31.9201 31.7389 32.5441 31.7389C33.8562 31.7229 34.5762 33.163 34.5762 35.7871C34.5762 39.3393 33.6322 40.0113 32.5441 40.0113C31.9201 40.0113 31.7921 39.8513 31.7921 39.5153V32.059ZM29.168 31.2429V31.6589C29.856 31.6909 29.968 31.7709 29.968 32.443V39.3072C29.968 39.9793 29.904 40.0593 29.168 40.0913V40.5073H32.2401C33.8082 40.5073 36.5763 40.3153 36.5763 35.6911C36.5763 34.171 36.3203 33.083 35.6962 32.315C35.0722 31.5469 34.1762 31.2429 32.7681 31.2429H29.168Z" fill="white"/>
<path d="M41.199 37.0991C41.599 37.0991 41.791 37.0031 41.791 36.5711C41.791 35.515 41.503 33.835 39.4229 33.835C37.3429 33.835 36.7988 35.403 36.7988 37.2431C36.7988 39.0832 37.3589 40.6992 39.3909 40.6832C40.671 40.6832 41.343 39.8832 41.727 38.6672L41.423 38.4592C41.071 39.3872 40.575 39.6912 39.935 39.6912C38.9109 39.6912 38.5429 38.6032 38.5429 37.0991H41.199ZM38.5429 36.5871C38.5429 35.483 38.7349 34.331 39.3749 34.331C40.015 34.331 40.095 35.339 40.095 36.1711C40.095 36.5231 40.015 36.5871 39.775 36.5871H38.5429Z" fill="white"/>
<path d="M47.3438 35.899C47.3438 34.651 46.8478 33.835 45.7438 33.835C45.1518 33.835 44.6557 34.219 43.9357 34.731L43.7917 33.851L41.6636 34.235V34.635L42.0156 34.699C42.1596 34.731 42.2556 34.843 42.2556 35.387V39.4992C42.2556 40.0112 42.1916 40.0592 41.5996 40.1072V40.5072H44.4637V40.1072C44.1437 40.0592 43.9357 40.0912 43.9357 39.5472V36.1551C43.9277 35.8904 43.9601 35.626 44.0317 35.371C44.1597 35.035 44.4157 34.747 44.8477 34.747C45.2798 34.747 45.6638 35.179 45.6638 35.931V39.5792C45.6638 40.1072 45.4398 40.0592 45.1198 40.1072V40.5072H47.9999V40.1072C47.4078 40.0592 47.3438 40.0432 47.3438 39.5152V35.899Z" fill="white"/>
<path d="M50.7516 34.5709V33.9949H49.6955V32.3308H49.0715L48.0955 33.9949H47.4395V34.5709H48.0315V38.9391C48.0315 40.1711 48.6875 40.6832 49.2955 40.6832C49.9036 40.6832 50.2876 40.4911 50.9116 39.9471L50.8316 39.6271C50.6753 39.6994 50.5073 39.7428 50.3356 39.7551C49.9516 39.7551 49.6955 39.3871 49.6955 38.5391V34.5709H50.7516Z" fill="white"/>
<path d="M52.4635 31.0349C51.9035 31.0349 51.5995 31.5469 51.5995 32.123C51.5995 32.699 51.9035 33.243 52.4635 33.243C53.0235 33.243 53.3595 32.715 53.3595 32.123C53.3595 31.5309 53.0555 31.0349 52.4795 31.0349H52.4635ZM51.6795 39.4673C51.6795 39.9953 51.5995 40.0753 51.0234 40.1073V40.5073H54.0156V40.1073C53.4235 40.0593 53.3595 39.9953 53.3595 39.4673V33.899L53.2795 33.835L51.0874 34.219V34.6351L51.4395 34.6991C51.5995 34.7311 51.6795 34.8431 51.6795 35.3871V39.4673Z" fill="white"/>
<path d="M57.7122 36.075V34.2989C57.2405 33.9807 56.6808 33.8184 56.1121 33.8349C54.848 33.8349 54.048 34.6349 54.048 35.979C54.048 36.955 54.512 37.579 55.5521 38.0911C56.1761 38.4271 56.6241 38.7791 56.6241 39.3711C56.6241 39.9631 56.3361 40.2031 55.9201 40.2031C55.2481 40.2031 54.608 39.1471 54.336 38.0591H54L54.128 40.0591C54.496 40.5072 55.2961 40.6832 55.8721 40.6832C57.1361 40.6832 58.0642 39.9471 58.0642 38.4591C58.0642 37.339 57.5361 36.811 56.5601 36.331C55.9041 36.011 55.4401 35.707 55.4401 35.1469C55.4401 34.5869 55.6641 34.3309 56.1121 34.3309C56.5601 34.3309 57.1841 35.0669 57.3921 36.075H57.7122Z" fill="white"/>
<path d="M61.3125 34.5709V33.9949H60.2565V32.3308H59.6164L58.6404 33.9949H57.9844V34.5709H58.5924V38.9391C58.5924 40.1711 59.2324 40.6832 59.8565 40.6832C60.4805 40.6832 60.8325 40.4911 61.4725 39.9471L61.3765 39.6271C61.2265 39.7011 61.0634 39.7446 60.8965 39.7551C60.5125 39.7551 60.2565 39.3871 60.2565 38.5391V34.5709H61.3125Z" fill="white"/>
<path d="M63.8556 36.3471C63.8556 35.691 63.9356 35.371 64.1916 35.371C64.4476 35.371 64.5116 35.515 64.7357 35.723C64.9597 35.931 64.9917 35.995 65.2157 35.995C65.7277 35.995 66.0157 35.339 66.0157 34.811C66.0157 34.283 65.6957 33.835 65.2317 33.835C64.7677 33.835 64.4476 34.235 63.8076 35.115L63.6796 33.851L61.5835 34.235V34.635L61.9355 34.699C62.0956 34.731 62.1756 34.859 62.1756 35.387V39.4672C62.1756 40.0112 62.0956 40.0592 61.5195 40.1072V40.5072H64.7357V40.1072C63.9356 40.0432 63.8556 40.0112 63.8556 39.4672V36.3471Z" fill="white"/>
<path d="M70.0174 33.9949V34.4269L70.5614 34.5069C70.7214 34.5229 70.7694 34.6189 70.7214 34.9069C70.4494 36.155 70.0974 37.595 69.7774 38.7791H69.7614C69.4253 37.707 68.8973 36.139 68.5773 34.9389C68.4973 34.6829 68.5293 34.5389 68.6893 34.5069L69.0893 34.4269V33.9949H66.0332V34.4269C66.4972 34.5069 66.5932 34.4749 66.7852 35.0349C67.3293 36.587 68.1133 38.8591 68.7373 40.7792C68.8173 41.0512 68.9453 41.5792 68.8653 41.8032C68.7373 42.2672 68.5933 42.4112 68.3853 42.4112C68.2241 42.3788 68.078 42.2945 67.9693 42.1712C67.7453 41.9632 67.6813 41.8992 67.4893 41.8992C67.2973 41.8992 66.7692 42.4912 66.7692 43.0032C66.7671 43.1146 66.787 43.2253 66.8276 43.329C66.8683 43.4327 66.929 43.5274 67.0063 43.6076C67.0835 43.6879 67.1758 43.7521 67.2779 43.7966C67.38 43.8412 67.4899 43.8652 67.6013 43.8673C68.3853 43.8673 68.8493 43.3393 69.4253 41.4352C70.0014 39.5311 70.6894 37.083 71.2494 35.3389C71.4894 34.5869 71.5054 34.4749 72.1295 34.4269V33.9949H70.0174Z" fill="white"/>
<path d="M31.3113 42.6673L31.8073 44.0593H30.7353L31.3113 42.6673ZM33.3914 45.4514H33.2154C33.0874 45.4514 33.0234 45.4034 32.9594 45.2114L31.8553 42.1872C31.8553 42.1392 31.8393 42.1072 31.8393 42.0752C31.8393 42.0432 31.9673 41.9312 31.9673 41.8672C31.9673 41.8032 31.9353 41.8032 31.8873 41.8032H31.8073L31.4233 41.8832L29.9832 45.3074C29.9352 45.4034 29.9032 45.4514 29.7912 45.4514H29.6152V45.6434H30.7993V45.4514H30.5113C30.3353 45.4514 30.2713 45.4194 30.2713 45.3074C30.2965 45.1969 30.3341 45.0895 30.3833 44.9874L30.6553 44.2833H31.9033L32.2553 45.3234C32.2681 45.3421 32.2737 45.3648 32.2713 45.3874C32.2713 45.4354 32.2393 45.4514 32.1593 45.4514H31.9033V45.6434H33.3914V45.4514ZM32.8474 41.9312V42.1232H33.0074C33.1994 42.1232 33.2474 42.2192 33.3274 42.4432L34.6234 45.5634C34.6554 45.6434 34.6714 45.6754 34.7034 45.6754C34.7354 45.6754 34.7674 45.6434 34.7994 45.5634L35.7595 43.1473L36.7515 45.5794C36.7835 45.6434 36.8155 45.6914 36.8315 45.6914C36.8475 45.6914 36.8955 45.6594 36.9275 45.5954L38.2716 42.3152C38.3196 42.1872 38.3196 42.1232 38.4636 42.1232H38.6396V41.9312H37.5356V42.1232H37.7596C37.9196 42.1232 37.9836 42.1552 37.9836 42.2672C37.9708 42.3769 37.9439 42.4845 37.9036 42.5873L37.1035 44.5873V44.6353C37.0875 44.6353 37.0875 44.6193 37.0715 44.5873L36.1275 42.2672C36.1055 42.2341 36.0943 42.195 36.0955 42.1552C36.0955 42.1392 36.1275 42.1232 36.1755 42.1232H36.5115V41.9312H34.9755V42.1232H35.1355C35.2795 42.1232 35.3275 42.1552 35.3915 42.2992L35.6315 42.8433L34.9755 44.5393L34.9435 44.5713V44.5393L33.9834 42.2512C33.9722 42.2413 33.9635 42.2289 33.9579 42.215C33.9524 42.2011 33.9501 42.1861 33.9514 42.1712C33.9514 42.1552 33.9834 42.1232 34.0474 42.1232H34.3354V41.9312H32.8474ZM39.5996 42.6673L40.0957 44.0593H39.0236L39.5996 42.6673ZM41.6637 45.4514H41.4877C41.3597 45.4514 41.2957 45.4034 41.2317 45.2114L40.1437 42.1872C40.1276 42.1517 40.1168 42.1139 40.1117 42.0752C40.1117 41.9472 40.2397 41.9312 40.2397 41.8672C40.2397 41.8032 40.2077 41.8032 40.1597 41.8032H40.0957L39.7116 41.8832L38.2556 45.3074C38.2236 45.4034 38.1756 45.4514 38.0796 45.4514H37.9036V45.6434H39.0716V45.4514H38.7836C38.6236 45.4514 38.5596 45.4194 38.5596 45.3074C38.5844 45.1987 38.6165 45.0918 38.6556 44.9874L38.9276 44.2833H40.1917L40.5437 45.3234V45.3874C40.5437 45.4354 40.5117 45.4514 40.4317 45.4514H40.1757V45.6434H41.6477L41.6637 45.4514ZM41.7757 41.9312V42.1072H41.9517C42.2237 42.1072 42.2398 42.2832 42.2398 42.8753V45.2434C42.2398 45.4034 42.2397 45.4514 42.1117 45.4514H41.8877V45.6434H43.3918V45.4514H43.1518C42.8958 45.4514 42.8798 45.2914 42.8798 44.6833V43.9633H43.2958C43.576 44.4769 43.8859 44.9738 44.2238 45.4514C44.3518 45.6274 44.4158 45.6434 44.5598 45.6434H45.2799V45.4514H45.1679C44.9439 45.4514 44.8799 45.2914 44.6238 44.9393C44.3678 44.5873 44.0638 44.1553 43.8718 43.8513C44.3998 43.7393 44.7039 43.4033 44.7039 42.9713C44.7039 42.5393 44.2238 41.9312 43.3118 41.9312H41.7757ZM42.8798 43.7553V42.2352C42.8798 42.1552 42.9278 42.1392 43.0398 42.1392C43.6478 42.1392 44.0318 42.5073 44.0318 43.0353C44.0318 43.5633 43.7118 43.7713 43.1518 43.7713L42.8798 43.7553ZM46.5119 42.1392H46.7039C47.632 42.1392 48.288 42.8433 48.288 43.8993C48.288 44.9554 47.776 45.4194 46.8159 45.4194H46.6719C46.3839 45.4194 46.3839 45.3074 46.3839 44.7473V42.3632C46.3839 42.1872 46.3839 42.1392 46.5119 42.1392ZM45.3759 45.6434H46.8159C47.488 45.6434 47.968 45.5474 48.4 45.1474C48.5907 44.9596 48.7414 44.7353 48.8432 44.4878C48.9449 44.2404 48.9955 43.9749 48.992 43.7073C48.992 42.6033 48.24 41.9312 46.8479 41.9312H45.2639V42.1232H45.4399C45.7119 42.1232 45.7279 42.2832 45.7279 42.8913V45.2594C45.7279 45.4194 45.7119 45.4514 45.5999 45.4514H45.3759V45.6594V45.6434ZM51.5841 41.9312C51.3625 41.8563 51.13 41.8185 50.8961 41.8192C50.0321 41.8192 49.472 42.3152 49.472 42.9873C49.4741 43.1157 49.5038 43.2421 49.559 43.3581C49.6142 43.474 49.6937 43.5768 49.7921 43.6593C49.9841 43.8193 50.2881 43.9313 50.6881 44.1073C51.0881 44.2833 51.2961 44.5073 51.2961 44.8433C51.2961 45.1794 50.9601 45.5154 50.4481 45.5154C49.9361 45.5154 49.7441 45.3874 49.5681 45.0994C49.392 44.8113 49.472 44.9234 49.408 44.9234C49.344 44.9234 49.328 44.9554 49.328 45.0194V45.0514L49.408 45.5634C49.7136 45.6856 50.039 45.7507 50.3681 45.7554C51.2801 45.7554 51.8721 45.1794 51.8721 44.5393C51.8721 43.8993 51.5041 43.6913 50.7841 43.3873C50.0641 43.0833 49.9841 42.9713 49.9841 42.6513C49.9841 42.3312 50.3041 42.0432 50.7361 42.0432C51.1681 42.0432 51.2641 42.1392 51.3921 42.3472C51.5201 42.5553 51.4721 42.4752 51.5521 42.4752C51.6321 42.4752 51.6001 42.4592 51.6001 42.3952V41.9312H51.5841ZM54.4643 45.1154C55.4563 44.2833 56.0323 43.7233 56.0323 42.9553C56.0323 42.1872 55.6003 41.8192 54.9123 41.8192C54.4996 41.8175 54.103 41.9785 53.8082 42.2672L53.9042 42.3952C54.1134 42.2563 54.3573 42.1787 54.6083 42.1712C55.1043 42.1712 55.4243 42.5073 55.4243 43.0673C55.4243 43.6273 55.0243 44.2353 54.4002 44.9234C54.0482 45.3074 53.7922 45.4674 53.7922 45.5794C53.7922 45.6914 53.8402 45.6434 53.9202 45.6434H56.1923L56.4323 45.0354L56.4643 44.9554C56.4647 44.9366 56.4585 44.9184 56.4468 44.9038C56.4351 44.8891 56.4187 44.8791 56.4003 44.8753C56.3203 44.8753 56.2723 45.0354 56.0003 45.0674C55.4897 45.1139 54.9768 45.1299 54.4643 45.1154ZM56.9764 43.9633C56.9764 45.0994 57.4564 45.7554 58.1764 45.7554C58.8964 45.7554 59.6165 44.9394 59.6165 43.5953C59.6165 42.4913 59.0884 41.8032 58.3844 41.8032C58.1917 41.8148 58.0044 41.8715 57.8377 41.9688C57.6709 42.0661 57.5293 42.2012 57.4244 42.3632C57.1108 42.8364 56.9541 43.3962 56.9764 43.9633ZM58.2084 42.0592C58.6564 42.0592 59.0404 42.8113 59.0404 44.1073C59.0404 45.0034 58.7364 45.4994 58.3684 45.4994C58.0004 45.4994 57.5524 44.7633 57.5524 43.4513C57.5524 42.5553 57.8404 42.0592 58.2084 42.0592ZM60.6885 45.1154C61.6805 44.2833 62.2566 43.7233 62.2566 42.9553C62.2566 42.1872 61.8246 41.8192 61.1205 41.8192C60.9186 41.8187 60.7186 41.858 60.5319 41.9349C60.3452 42.0118 60.1755 42.1247 60.0325 42.2672L60.1285 42.3952C60.3369 42.2547 60.5812 42.1769 60.8325 42.1712C61.3125 42.1712 61.6325 42.5073 61.6325 43.0673C61.6325 43.6273 61.2325 44.2353 60.6085 44.9234C60.2565 45.3074 60.0165 45.4674 60.0165 45.5794C60.0165 45.6914 60.0645 45.6434 60.1445 45.6434H62.4166L62.6566 45.0354C62.6671 45.01 62.6726 44.9828 62.6726 44.9554C62.6726 44.9073 62.6566 44.8753 62.6086 44.8753C62.5606 44.8753 62.4806 45.0354 62.2086 45.0674C61.7034 45.1146 61.1957 45.1306 60.6885 45.1154ZM63.7926 45.1154C64.7847 44.2833 65.3607 43.7233 65.3607 42.9553C65.3607 42.1872 64.9287 41.8192 64.2407 41.8192C63.828 41.8175 63.4313 41.9785 63.1366 42.2672L63.2326 42.3952C63.4418 42.2563 63.6856 42.1787 63.9366 42.1712C64.4327 42.1712 64.7527 42.5073 64.7527 43.0673C64.7527 43.6273 64.3527 44.2353 63.7286 44.9234C63.3606 45.3074 63.1206 45.4674 63.1206 45.5794C63.1206 45.6914 63.1686 45.6434 63.2486 45.6434H65.5207L65.7607 45.0354L65.7927 44.9554C65.7927 44.9341 65.7843 44.9138 65.7693 44.8988C65.7543 44.8838 65.7339 44.8753 65.7127 44.8753C65.6487 44.8753 65.6007 45.0354 65.3287 45.0674C64.8181 45.1139 64.3052 45.1299 63.7926 45.1154Z" fill="white"/>
<path d="M33.7107 52.2837V51.0837H28.8145V57.4839H30.3185V55.1639H33.3106V53.9638H30.3185V52.2837H33.7107ZM34.7187 57.4839H36.2228V51.0837H34.7187V57.4839ZM42.207 51.0837V54.9718L38.9909 51.0837H37.7588V57.4839H39.2309V53.5958L42.463 57.4839H43.6791V51.0837H42.207ZM50.0473 57.4839H51.6154L48.7353 51.0837H47.2472L44.3671 57.4839H45.9032L46.4792 56.1239H49.4713L50.0473 57.4839ZM46.9592 54.9878L47.9832 52.5397L49.0073 54.9878H46.9592ZM52.3034 57.4839H57.0396V56.2839H53.7915V51.0837H52.3034V57.4839ZM57.8716 57.4839H59.3757V51.0837H57.8716V57.4839ZM63.0399 57.5959C64.8799 57.5959 65.776 56.6839 65.776 55.6119C65.776 53.2598 62.0158 54.0758 62.0158 52.9078C62.0158 52.4917 62.3518 52.1717 63.2479 52.1717C63.8776 52.1824 64.4943 52.3531 65.0399 52.6677L65.504 51.5477C64.8959 51.1637 64.0639 50.9717 63.2479 50.9717C61.4238 50.9717 60.5277 51.8837 60.5277 52.9718C60.5277 55.3559 64.2879 54.5238 64.2879 55.7239C64.2879 56.1239 63.9359 56.4119 63.0399 56.4119C62.279 56.4074 61.5372 56.1732 60.9118 55.7399L60.3997 56.8599C60.9758 57.2919 62.0158 57.5959 63.0399 57.5959ZM68.0481 57.4839H69.5521V52.2997H71.6162V51.0837H65.984V52.2997H68.0481V57.4839Z" fill="white"/>
<path d="M36.7346 29.5146L36.5746 29.9947C36.5638 30.0142 36.5583 30.0363 36.5586 30.0587C36.5582 30.0774 36.5644 30.0956 36.5761 30.1103C36.5878 30.1249 36.6043 30.1349 36.6226 30.1387C36.7186 30.1387 36.7506 29.9947 36.8786 29.9147C37.0066 29.8347 37.4066 29.7227 37.8867 29.7227V32.7468C37.8867 32.8908 37.8867 32.9388 37.7587 32.9388H37.3426V33.1148H39.1027V32.9388H38.7827C38.5267 32.9388 38.5267 32.7788 38.5267 32.1868V29.7227C38.9907 29.7227 39.3107 29.7707 39.5187 29.8987C39.7267 30.0267 39.6947 30.1387 39.7747 30.1387C39.7931 30.1349 39.8095 30.1249 39.8212 30.1103C39.8329 30.0956 39.8391 30.0774 39.8387 30.0587C39.8391 30.0363 39.8336 30.0142 39.8227 29.9947L39.6787 29.5146H36.7346ZM39.9507 29.5146V29.6907H40.1108C40.3668 29.6907 40.3828 29.8507 40.3828 30.4427V32.7468C40.3828 32.8908 40.3828 32.9388 40.2548 32.9388H40.0468V33.1148H41.5028V32.9388H41.2948C41.0388 32.9388 41.0228 32.7788 41.0228 32.1868V31.2747H42.6069V32.7468C42.6069 32.8908 42.6069 32.9388 42.4789 32.9388H42.2708V33.1148H43.7109V32.9388H43.5029C43.2469 32.9388 43.2469 32.7788 43.2469 32.1868V29.8667C43.2469 29.7387 43.2469 29.6907 43.3589 29.6907H43.5669V29.5146H42.1428V29.6907H42.3348C42.5909 29.6907 42.6069 29.8667 42.6069 30.4427V31.0347H41.0228V29.8347C41.0228 29.7387 41.0388 29.6907 41.1348 29.6907H41.3588V29.5146H39.9507ZM44.0309 29.5146V29.6907H44.1909C44.4469 29.6907 44.4629 29.8507 44.4629 30.4427V32.7948C44.4629 32.9068 44.4629 32.9388 44.3509 32.9388H44.1429V33.1148H46.783L46.927 32.6348V32.5548C46.927 32.542 46.922 32.5298 46.913 32.5208C46.904 32.5118 46.8918 32.5068 46.879 32.5068C46.767 32.5068 46.703 32.6988 46.495 32.7788C46.2346 32.8782 45.9577 32.9271 45.679 32.9228H45.375C45.119 32.9228 45.103 32.7788 45.103 32.1708V31.2267H45.727C46.127 31.2267 46.255 31.2427 46.255 31.4187V31.5947H46.431V30.6187H46.255V30.7787C46.255 31.0027 46.111 31.0187 45.583 31.0187H45.103V29.8507C45.103 29.7547 45.119 29.7227 45.231 29.7227H45.583C46.047 29.7227 46.335 29.7867 46.463 29.8667C46.591 29.9467 46.575 30.0907 46.655 30.0907C46.735 30.0907 46.703 30.0587 46.719 29.9947L46.783 29.5146H44.0309Z" fill="white"/>
<path fill-rule="evenodd" clip-rule="evenodd" d="M34.6387 58.428H35.1027L50.0153 84.413L64.8959 58.428H65.3759L50.0153 85.2771L34.8627 58.844L34.6387 58.428Z" fill="white"/>
<path fill-rule="evenodd" clip-rule="evenodd" d="M39.4082 58.4438H40.6243L50.0166 74.7965L59.377 58.4438H60.6091L50.0166 76.9246L39.9202 59.3559L39.4082 58.4438Z" fill="white"/>
<path fill-rule="evenodd" clip-rule="evenodd" d="M19.8223 24.1545L21.6303 25.2906H78.3367L80.1927 24.2025H20.6863L19.8223 24.1545Z" fill="white"/>
<path fill-rule="evenodd" clip-rule="evenodd" d="M21.6143 27.4347L28.4626 39.4032H29.2947V38.6511L21.6303 25.2906L19.8223 24.1545L21.6143 27.4347Z" fill="white"/>
<path fill-rule="evenodd" clip-rule="evenodd" d="M70.1289 41.7074L80.1933 24.2026L78.3372 25.2907L71.329 37.4832L70.1289 41.7074Z" fill="white"/>
<path fill-rule="evenodd" clip-rule="evenodd" d="M29.5352 41.2112H30.7352L31.0392 41.7392L30.5432 42.9873L29.5352 41.2112Z" fill="white"/>
<path fill-rule="evenodd" clip-rule="evenodd" d="M32.2559 45.9475H33.4239L35.792 50.1077H34.608L32.2559 45.9475Z" fill="white"/>
<path fill-rule="evenodd" clip-rule="evenodd" d="M68.7527 44.1553L65.3606 50.0915H64.1445L67.3287 44.4433C67.8225 44.5216 68.3281 44.4193 68.7527 44.1553Z" fill="white"/>
<path fill-rule="evenodd" clip-rule="evenodd" d="M24.5268 32.5068H19.8066L29.8551 50.0756H30.3511L20.5427 32.9389H24.7668L24.5268 32.5068Z" fill="white"/>
</g>
<defs>
<linearGradient id="paint0_linear_30_58638" x1="50" y1="0" x2="50" y2="100" gradientUnits="userSpaceOnUse">
<stop stop-color="#262626"/>
<stop offset="1" stop-color="#111111"/>
</linearGradient>
<clipPath id="clip0_30_58638">
<rect width="60.3865" height="61.1225" fill="white" transform="translate(19.8066 24.1545)"/>
</clipPath>
</defs>
</svg>
