<svg width="124" height="80" viewBox="0 0 124 80" fill="none" xmlns="http://www.w3.org/2000/svg">
<path d="M29.9902 0.960119C44.9702 0.960119 59.2012 10.6971 59.2012 28.6731V51.3571C59.2012 69.3331 44.9702 79.0701 29.9902 79.0701C15.1172 79.0701 0.886172 69.3331 0.886172 51.3571V28.6731C0.886172 10.6971 15.1172 0.960119 29.9902 0.960119ZM29.9902 66.6581C38.6572 66.6581 46.0402 60.7731 46.0402 51.3571V28.6731C46.0402 19.2571 38.6572 13.3721 29.9902 13.3721C21.4302 13.3721 14.0472 19.2571 14.0472 28.6731V51.3571C14.0472 60.7731 21.4302 66.6581 29.9902 66.6581ZM111.975 38.1961C118.395 41.7271 123.21 47.6121 123.21 56.0651C123.21 68.2631 113.259 79.0701 96.6737 79.0701C79.3397 79.0701 67.8907 67.8351 67.8907 54.1391H81.0517C81.0517 62.5921 88.3277 66.6581 95.9247 66.6581C104.913 66.6581 110.049 61.9501 110.049 55.2091C110.049 47.7191 103.522 44.9371 94.9617 44.9371H89.3977V32.5251H94.9617C103.522 32.5251 106.839 28.1381 106.839 23.4301C106.839 17.5451 102.452 13.3721 94.8547 13.3721C87.2577 13.3721 81.0517 18.1871 81.0517 25.8911H67.8907C67.8907 12.1951 78.2697 0.960119 95.6037 0.960119C110.049 0.960119 120 11.2321 120 22.6811C120 29.4221 116.79 34.6651 111.975 38.1961Z" fill="url(#paint0_linear_30_59076)"/>
<defs>
<linearGradient id="paint0_linear_30_59076" x1="61.5" y1="-1.99988" x2="61.5" y2="78.0001" gradientUnits="userSpaceOnUse">
<stop stop-color="#404040"/>
<stop offset="1" stop-color="#242323"/>
</linearGradient>
</defs>
</svg>
