<svg width="100" height="100" viewBox="0 0 100 100" fill="none" xmlns="http://www.w3.org/2000/svg">
<rect width="100" height="100" rx="50" fill="url(#paint0_linear_30_58698)"/>
<g clip-path="url(#clip0_30_58698)">
<path d="M31.9639 43.4021C31.7709 43.6946 31.5085 43.9347 31.2 44.101C30.8916 44.2673 30.5468 44.3545 30.1964 44.355C28.8131 44.355 27.7834 43.1408 27.7834 40.6817C27.7834 39.1602 28.2291 37.4695 29.597 37.4695C30.9648 37.4695 31.6104 38.9911 31.8563 40.3897H31.9485V37.3927H31.8563C31.8563 37.6078 31.7794 37.7462 31.5643 37.7462C31.3491 37.7462 30.7036 37.3773 29.597 37.3773C27.476 37.3773 25.6778 38.7144 25.6778 41.0967C25.6778 42.8949 26.6768 44.1399 27.9985 44.6317H26.5692V44.7085C27.3069 44.7239 27.476 44.9544 27.6297 45.4309L26.5692 48.8583C26.354 49.596 25.8007 51.2252 24.94 51.2405V51.3174H27.5528V51.2405C26.2157 51.2252 26.4001 49.7343 26.6921 48.7507L26.8151 48.3664H28.5211L29.0437 50.0724C29.3511 51.0868 29.0898 51.2252 28.3674 51.2405V51.3174H31.6565V51.2405C31.3337 51.2252 31.0571 51.0715 30.7804 50.1954L29.1513 44.8776H29.3664C30.596 44.8776 31.5181 44.3089 32.01 43.479L31.9639 43.4021ZM27.4299 60.9386C27.4299 60.9386 27.9063 58.249 33.2703 57.5881C38.6342 56.9272 42.1077 57.1424 42.1077 57.1424L50.607 57.5881C50.607 57.5881 62.6566 58.4488 64.7929 58.1568C66.9293 57.8647 74.8907 58.4334 75.8743 51.7016C75.8743 51.7016 76.3661 55.1905 71.6631 57.5266C66.96 59.8628 60.1514 59.4785 60.1514 59.4785C60.1514 59.4785 54.603 59.2634 51.0681 58.9713C45.4428 58.4949 40.417 58.0953 34.7918 58.1721C32.1483 58.2029 28.7978 58.541 27.4299 60.9386ZM35.9445 29.7541C35.9445 29.5543 36.0521 29.5082 36.5132 29.5082C37.4815 29.5082 38.0348 30.5686 38.0348 32.5206C38.0348 35.1641 37.3124 35.6713 36.5132 35.6713C36.0368 35.6713 35.9445 35.5483 35.9445 35.3024V29.7541ZM33.9926 29.1393V29.4467C34.5152 29.4774 34.592 29.5389 34.592 30.0307V35.1487C34.592 35.6406 34.5459 35.702 33.9926 35.7174V36.0402H36.2827C37.4507 36.0402 39.5256 35.8865 39.5256 32.4591C39.5256 31.3217 39.3258 30.5072 38.8647 29.9385C38.4036 29.3698 37.7274 29.1393 36.6823 29.1393H33.9926ZM42.9684 33.5042C43.2604 33.5042 43.3987 33.4274 43.3987 33.1046C43.3987 32.3208 43.1989 31.0605 41.6312 31.0605C40.0635 31.0605 39.6793 32.2285 39.6793 33.6118C39.6793 34.995 40.1097 36.1631 41.6159 36.1631C42.5688 36.1631 43.076 35.5791 43.3526 34.6569L43.1374 34.5186C42.8608 35.1948 42.5073 35.4254 42.0308 35.4254C41.2624 35.4254 40.9857 34.6108 40.9857 33.5042H42.9684ZM40.9857 33.12C40.9857 32.29 41.124 31.4293 41.6005 31.4293C42.0769 31.4293 42.1384 32.1824 42.1384 32.8126C42.1384 33.0739 42.0769 33.12 41.8925 33.12H40.9857ZM47.5331 32.5974C47.5331 31.6752 47.1642 31.0605 46.3496 31.0605C45.9039 31.0605 45.5351 31.3525 44.9971 31.7367L44.9049 31.0758L43.3065 31.3679V31.6599L43.5678 31.706C43.6754 31.7367 43.7522 31.8136 43.7522 32.2132V35.2717C43.7522 35.6713 43.6907 35.702 43.2604 35.7328V36.0248H45.3967V35.7328C45.1508 35.702 44.9971 35.7174 44.9971 35.3178V32.7972C44.9937 32.5998 45.0196 32.403 45.074 32.2132C45.1113 32.0793 45.1918 31.9615 45.3029 31.8781C45.4141 31.7947 45.5498 31.7504 45.6888 31.7521C46.0884 31.7521 46.2882 32.0595 46.2882 32.6281V35.3332C46.2882 35.7328 46.1191 35.702 45.8886 35.7328V36.0248H48.0249V35.7328C47.5792 35.702 47.5331 35.6867 47.5331 35.2871V32.5974ZM50.0844 31.6291V31.1988H49.3006V29.9539H48.8241L48.0864 31.1988H47.5946V31.6291H48.0556V34.8721C48.0556 35.7789 48.5321 36.1631 48.9932 36.1631C49.4543 36.1631 49.7309 36.0248 50.192 35.6098L50.1305 35.3793C50.0139 35.4314 49.8891 35.4626 49.7617 35.4715C49.485 35.4715 49.2852 35.1948 49.2852 34.5801V31.6291H50.0844ZM51.3601 28.9856C50.9297 28.9856 50.6992 29.3698 50.6992 29.8002C50.6992 30.2305 50.9297 30.6301 51.3601 30.6301C51.7904 30.6301 52.021 30.2305 52.021 29.8002C52.021 29.3698 51.7904 28.9856 51.3601 28.9856ZM50.7607 35.2563C50.7607 35.6559 50.6992 35.702 50.2842 35.7328V36.0402H52.4974V35.7328C52.0671 35.702 52.0056 35.6559 52.0056 35.2563V31.1219L51.9595 31.0758L50.315 31.3525V31.6599L50.5762 31.7214C50.6992 31.7367 50.7607 31.8289 50.7607 32.2285V35.2563ZM55.2485 32.7357V31.414C54.9018 31.1731 54.4871 31.0493 54.0651 31.0605C53.1276 31.0605 52.5281 31.6599 52.5281 32.6589C52.5281 33.3813 52.8663 33.8423 53.6501 34.2419C54.1112 34.4725 54.4493 34.7491 54.4493 35.1795C54.4493 35.6098 54.2342 35.8096 53.9114 35.8096C53.5886 35.8096 52.9431 35.0104 52.7433 34.2112H52.482L52.5896 35.702C52.8663 36.0402 53.4657 36.1631 53.896 36.1631C54.8336 36.1631 55.5098 35.6098 55.5098 34.5186C55.5098 33.6733 55.1256 33.289 54.4032 32.9202C53.9114 32.6896 53.5733 32.4591 53.5733 32.0441C53.5733 31.6291 53.727 31.4293 54.0651 31.4293C54.4032 31.4293 54.8643 31.9826 55.018 32.7357H55.2485ZM57.9382 31.6291V31.1988H57.1543V29.9539H56.6779L55.9555 31.1988H55.4637V31.6291H55.9094V34.8721C55.9094 35.7789 56.4012 36.1631 56.847 36.1631C57.2927 36.1631 57.5847 36.0248 58.0611 35.6098L57.9997 35.3793C57.8831 35.4314 57.7582 35.4626 57.6308 35.4715C57.3388 35.4715 57.1543 35.1948 57.1543 34.5801V31.6291H57.9382ZM59.8286 32.9355C59.8286 32.4591 59.8901 32.2132 60.0899 32.2132C60.2897 32.2132 60.3204 32.3208 60.4895 32.4745C60.5308 32.531 60.5837 32.5781 60.6447 32.6125C60.7056 32.647 60.7733 32.668 60.843 32.6743C61.2272 32.6743 61.4424 32.1978 61.4424 31.7982C61.4424 31.3986 61.2119 31.0605 60.8584 31.0605C60.5049 31.0605 60.2743 31.3679 59.7979 32.0287L59.7057 31.0758L58.138 31.3679V31.6599L58.3993 31.7214C58.5222 31.7367 58.5837 31.8289 58.5837 32.2132V35.2563C58.5837 35.6713 58.5222 35.702 58.0919 35.7328V36.0248H60.4895V35.7328C59.8901 35.6867 59.8286 35.6713 59.8286 35.2563V32.9355ZM64.4241 31.1988V31.5062L64.8237 31.5677C64.9466 31.583 64.9928 31.6599 64.9466 31.8597C64.7468 32.7972 64.4856 33.8731 64.2397 34.7491H64.2243C63.9784 33.9499 63.5941 32.7818 63.3482 31.8904C63.3021 31.6906 63.3175 31.5984 63.4251 31.5677L63.7325 31.5062V31.1988H61.4578V31.5062C61.7959 31.5677 61.8728 31.5523 62.0265 31.9519C62.4261 33.12 63.0101 34.8106 63.4712 36.24C63.5327 36.4398 63.6249 36.8394 63.5634 36.9931C63.5019 37.1468 63.3636 37.4388 63.2099 37.4388C63.0897 37.4236 62.9797 37.3631 62.9025 37.2697C62.7334 37.116 62.672 37.0545 62.5336 37.0545C62.3953 37.0545 61.9957 37.5003 61.9957 37.8845C61.9957 38.0531 62.0616 38.215 62.1793 38.3356C62.2971 38.4562 62.4573 38.526 62.6259 38.53C63.2099 38.53 63.548 38.1304 63.9784 36.7164C64.4087 35.3024 64.9313 33.4735 65.3462 32.1824C65.5153 31.6291 65.5307 31.5523 65.9918 31.5062V31.1988H64.4241ZM64.1782 53.9302C64.1782 54.0224 64.2243 54.0531 64.3011 54.0531C64.378 54.0531 64.4702 54.007 64.6085 54.007C64.7468 54.007 64.9466 54.0685 64.9466 54.5603C64.9466 55.0521 64.8698 55.1597 64.6393 55.1597C64.4087 55.1597 64.3626 55.0675 64.2397 54.6986C64.2293 54.6622 64.2071 54.6302 64.1764 54.6079C64.1457 54.5856 64.1085 54.5743 64.0706 54.5757C64.0343 54.5757 63.9983 54.5828 63.9647 54.5968C63.9312 54.6107 63.9007 54.631 63.875 54.6567C63.8493 54.6824 63.8289 54.7129 63.815 54.7465C63.8011 54.78 63.7939 54.816 63.7939 54.8523C63.7939 54.9907 63.9476 55.2981 64.6393 55.2981C65.3309 55.2981 65.5922 55.006 65.5922 54.545C65.5922 54.0839 65.085 53.9455 64.8852 53.9148V53.8687C65.1311 53.8226 65.4846 53.7304 65.4846 53.3461C65.4846 52.9619 65.0235 52.7314 64.6393 52.7314C64.255 52.7314 63.84 52.9619 63.84 53.2232C63.84 53.4845 64.0091 53.4537 64.1013 53.4537C64.1935 53.4537 64.2243 53.4076 64.255 53.3308C64.2858 53.2539 64.4241 52.8697 64.5931 52.8697C64.7622 52.8697 64.8544 53.1771 64.8544 53.3308C64.8544 53.4845 64.8391 53.838 64.6085 53.838C64.378 53.838 64.3933 53.7919 64.2858 53.7919C64.2702 53.7917 64.2549 53.7949 64.2407 53.8012C64.2265 53.8076 64.2139 53.8169 64.2037 53.8286C64.1935 53.8403 64.1859 53.854 64.1815 53.8689C64.1771 53.8838 64.176 53.8994 64.1782 53.9148V53.9302ZM55.8787 54.5142H55.7711C55.6328 54.7755 55.5713 54.8062 55.4637 54.8062H54.3264C54.3878 54.6833 54.6645 54.4988 55.0795 54.299C55.4944 54.0992 55.7404 53.8687 55.7404 53.4845C55.7404 53.1002 55.3869 52.7467 54.8797 52.7467C54.3725 52.7467 54.0036 53.0541 54.0036 53.3615C54.0112 53.4294 54.0437 53.4921 54.0948 53.5375C54.1458 53.583 54.2119 53.6078 54.2803 53.6074C54.3725 53.6074 54.4493 53.5767 54.4647 53.4691C54.5415 53.0695 54.6184 52.8851 54.8182 52.8851C55.018 52.8851 55.0948 53.1002 55.0948 53.3461C55.0948 53.592 55.0795 53.8841 54.6645 54.2376C54.2495 54.5911 53.9729 54.9753 53.9729 55.2366L54.0036 55.2673H55.7096L55.8787 54.5296V54.5142ZM45.1201 52.8697C45.4121 52.8697 45.4121 53.5767 45.4121 54.007C45.4121 54.4374 45.4121 55.1597 45.1201 55.1597C44.8281 55.1597 44.8127 54.4835 44.8127 54.007C44.8127 53.5306 44.8127 52.8697 45.1047 52.8697H45.1201ZM45.1201 52.7314C44.3977 52.7314 44.1826 53.3308 44.1826 54.007C44.1826 54.6833 44.3977 55.2981 45.1201 55.2981C45.8424 55.2981 46.0576 54.6833 46.0576 54.007C46.0576 53.3308 45.8271 52.7314 45.1201 52.7314ZM36.2827 54.5142H36.1904C36.0368 54.7755 35.9753 54.8062 35.8677 54.8062H34.7457C34.8072 54.6833 35.0685 54.4988 35.4988 54.299C35.9292 54.0992 36.1597 53.8687 36.1597 53.4845C36.1597 53.1002 35.7908 52.7467 35.299 52.7467C34.8072 52.7467 34.423 53.0541 34.423 53.3615C34.4249 53.3958 34.4336 53.4294 34.4486 53.4604C34.4636 53.4914 34.4845 53.5191 34.5102 53.5419C34.5359 53.5647 34.5659 53.5823 34.5984 53.5935C34.6309 53.6048 34.6653 53.6095 34.6996 53.6074C34.7198 53.6095 34.7402 53.6076 34.7597 53.6018C34.7792 53.596 34.7973 53.5864 34.813 53.5735C34.8287 53.5607 34.8417 53.5448 34.8513 53.5269C34.8608 53.509 34.8668 53.4893 34.8687 53.4691C34.9455 53.0695 35.0377 52.8851 35.2375 52.8851C35.4373 52.8851 35.5142 53.1002 35.5142 53.3461C35.5142 53.592 35.4988 53.8841 35.0838 54.2376C34.6689 54.5911 34.3922 54.9753 34.3922 55.2366V55.2673H36.1136L36.2673 54.5296L36.2827 54.5142ZM75.905 51.3942H75.9819C75.9819 51.2405 76.028 51.0407 76.2432 51.0407C76.4583 51.0407 77.1039 51.4403 77.9184 51.4403C79.3324 51.4403 80.1931 50.5028 80.1931 49.304C80.1931 48.1052 79.5169 47.5519 78.1644 46.8295C77.6725 46.5221 76.9348 46.0918 76.9348 45.4155C76.9348 44.7393 77.442 44.6163 77.9031 44.6163C78.8252 44.6163 79.4708 45.5077 79.6706 46.6143H79.7474V44.5241H79.6706C79.6706 44.6932 79.5937 44.8161 79.4093 44.8161C79.2248 44.8161 78.6869 44.5241 77.9953 44.5241C76.7504 44.5241 75.9204 45.3233 75.9204 46.4606C75.9204 47.598 76.5659 47.9822 77.7494 48.7353C78.318 49.1349 79.0097 49.5653 79.0097 50.3337C79.0097 51.1022 78.6408 51.3327 77.9953 51.3327C76.7504 51.3327 75.9819 49.9341 75.8436 48.6738H75.7821L75.905 51.3789V51.3942ZM69.5728 51.3174H72.1549C73.615 51.3174 75.321 50.1647 75.321 47.8746C75.321 45.9534 74.1068 44.9698 72.8619 44.7085H74.322V41.6654H74.2298C74.199 42.8642 73.2308 44.6163 71.5709 44.6163H71.2788V38.4532C71.2788 37.8384 71.5709 37.6078 72.3854 37.5771V37.5003H68.3125V37.5771C69.1425 37.6078 69.4191 37.8384 69.4191 38.4532V43.771C69.4191 44.3858 69.1425 44.6317 68.3125 44.6317V44.7085H69.0964C69.7112 44.7546 69.911 44.9852 69.911 45.5231V50.4413C69.911 50.887 69.7573 51.1176 69.3577 51.2098C69.2403 51.1695 69.1347 51.1009 69.0503 51.01C68.6353 50.595 68.3587 49.6728 67.8054 49.012C67.6117 48.7793 67.3699 48.5915 67.0966 48.4614C66.8233 48.3314 66.525 48.2623 66.2223 48.2589C66.0379 48.2435 66.0993 48.2281 66.2223 48.2127C67.6056 48.1205 68.5585 47.3828 68.5585 46.353C68.5585 45.5846 68.0205 44.9237 66.9754 44.7085H68.6814V44.6317C68.2972 44.6163 68.082 44.4165 67.667 43.4943L64.9313 37.4849H64.8083C64.255 39.0065 63.6249 40.4973 63.0101 42.0035C62.7027 42.7873 61.9496 44.6163 60.966 44.6317V44.7085H63.0101C63.6095 44.7546 63.8093 44.9698 63.8093 45.5077V50.4413C63.8093 50.9485 63.6249 51.179 63.0869 51.2405C62.8103 51.179 62.5644 50.9792 62.3338 50.18L60.6739 44.6317H60.0592C60.621 44.4009 61.0947 43.9971 61.4117 43.479L61.3656 43.4021C61.1682 43.6939 60.9027 43.9332 60.5921 44.0992C60.2814 44.2652 59.935 44.353 59.5827 44.355C58.2148 44.355 57.1697 43.1408 57.1697 40.6817C57.1697 39.1602 57.6154 37.4695 58.9833 37.4695C60.3512 37.4695 60.9967 38.9911 61.258 40.3897H61.3348V37.3927H61.258C61.258 37.6078 61.1811 37.7462 60.966 37.7462C60.7508 37.7462 60.1053 37.3773 58.9987 37.3773C56.8623 37.3773 55.0795 38.6991 55.0795 41.0967C55.0795 42.8949 56.0785 44.1399 57.4003 44.6317H56.0477V44.7085C57.0621 44.7239 56.9084 46.0918 56.5396 47.0908L55.725 49.5192L54.5723 45.6461C54.2956 44.8315 54.4954 44.7239 54.895 44.7085H54.9719V44.6317H54.7875C53.9729 44.6163 53.6962 44.3704 53.6962 43.7556V38.4532C53.6962 37.8384 53.9729 37.5925 54.8028 37.5771V37.5003H50.7146V37.5771C51.5445 37.5925 51.8212 37.823 51.8212 38.4532V43.7556C51.8212 44.3704 51.5445 44.6009 50.7299 44.6317H49.4389V40.4973C49.4389 39.114 49.7463 37.5771 50.899 37.5771V37.5003H47.7329V37.5771C49.1161 37.5771 49.3313 39.2985 49.3313 40.8508V42.5568C49.3313 42.649 49.2852 42.6644 49.2237 42.6029L45.8578 37.5003H42.7993V37.5771C43.6139 37.5925 44.0135 38.0997 44.367 38.6222V41.358C44.367 42.7412 44.3516 44.6163 42.8915 44.6317V44.7085H44.7051C45.3199 44.7546 45.4736 44.9852 45.6119 45.4309L44.5822 48.8583C44.3824 49.596 43.8444 51.2252 42.9991 51.2405V51.3174H45.5351V51.2405C44.244 51.2252 44.4131 49.7343 44.7051 48.7507L44.8281 48.3664H46.4726L46.9798 50.0724C47.2718 51.0868 47.0259 51.2252 46.3343 51.2405V51.3174H49.5311V51.2405C49.2084 51.2252 48.9471 51.0715 48.6704 50.1954L47.0105 44.6317H46.0576C44.6744 44.6163 44.4592 42.1418 44.4592 40.5895V38.7759C44.4746 38.8067 44.4746 38.822 44.4899 38.8374L48.3323 44.7085H48.486C48.9624 44.7546 49.1776 45.0159 49.3467 45.5077L51.2064 51.3789H51.6367L53.189 47.0293L53.2505 46.8756L54.6952 51.3789H55.1102L56.6779 46.9832C56.8931 46.3838 57.4617 45.1696 58.015 44.8007C58.258 44.8491 58.505 44.8748 58.7528 44.8776H58.9372C59.1143 45.014 59.2347 45.2111 59.2753 45.4309L58.2456 48.8583C58.0458 49.596 57.4925 51.2252 56.6625 51.2405V51.3174H59.1985V51.2405C57.9074 51.2252 58.0765 49.7343 58.3685 48.7507L58.4915 48.3664H60.136L60.6432 50.0724C60.9352 51.0868 60.6893 51.2252 59.9977 51.2405V51.3174H66.3299V51.2405C65.6383 51.2252 65.3924 51.01 65.3924 50.4413V44.7085H65.6383C66.5297 44.7085 66.9139 45.5385 66.9139 46.3684C66.9139 47.1984 66.4682 48.1666 65.7612 48.182V48.2742C66.4836 48.2742 66.6373 50.4874 67.2367 51.3174H69.5728ZM71.494 51.2405V44.7239H72.1242C73.2615 44.7239 73.615 46.1994 73.615 47.8746C73.615 49.5499 73.2615 51.2405 72.1088 51.2405H71.494ZM64.9159 44.6317H63.9476C62.4261 44.6009 62.7181 42.9257 63.1484 41.8959L63.3329 41.4809H65.254L65.669 43.3867C65.9149 44.4933 65.7305 44.6163 64.9159 44.6317ZM58.5069 48.2742L59.3061 45.5692L60.1053 48.2742H58.5069ZM51.9595 44.7085C52.4359 44.7546 52.6511 45.0159 52.8048 45.5077L53.2044 46.7065C53.1583 46.8449 53.1122 46.9832 53.0661 47.0908L52.2361 49.5192L51.0988 45.6614C50.8529 44.893 51.0066 44.7393 51.3293 44.7085H51.9595ZM44.8434 48.2742L45.6426 45.5692L46.4419 48.2742H44.8434ZM36.2366 51.3174H41.6005V48.8583H41.5236C41.5083 49.9034 40.6168 51.2252 39.2029 51.2252H38.834V48.0744H39.1721C39.833 48.0744 40.4631 48.5816 40.4785 49.2118H40.5554V46.7988H40.4785C40.4631 47.4596 39.8484 47.9668 39.1721 47.9668H38.834V44.7239H39.2029C40.6015 44.7239 41.3238 46.0457 41.3392 47.06H41.4314V44.7085H42.8454V44.647C42.0155 44.6163 41.7388 44.3858 41.7388 43.771V38.4532C41.7388 37.8384 42.0155 37.6078 42.8454 37.5771V37.5003H38.7571V37.5771C39.5871 37.6078 39.8637 37.8384 39.8637 38.4532V43.771C39.8637 44.3858 39.5871 44.6163 38.7725 44.647H38.4344V41.6654H38.3422C38.3268 42.8642 37.3432 44.6163 35.6986 44.6163H35.6679V44.5241H35.6064C35.6064 44.5548 35.591 44.5856 35.591 44.6163H35.4066V38.4532C35.4066 37.8384 35.6833 37.6078 36.5132 37.5771V37.5003H32.4403V37.5771C33.2549 37.6078 33.5315 37.8384 33.5315 38.4532V43.771C33.5315 44.3858 33.2549 44.6317 32.4403 44.647V44.7085H32.8707C32.5249 44.8541 32.2313 45.1007 32.0283 45.4162C31.8254 45.7316 31.7225 46.1011 31.7333 46.476C31.7333 47.5672 32.3942 47.9822 33.6238 48.7353C34.2078 49.1349 34.9148 49.5653 34.9148 50.3337C34.9148 51.1022 34.5306 51.3327 33.8697 51.3327C32.594 51.3327 31.7948 49.9341 31.6565 48.6738H31.5796L31.7179 51.3942H31.7948C31.7948 51.2405 31.8409 51.0407 32.0714 51.0407C32.302 51.0407 32.9475 51.4403 33.7928 51.4403C35.2375 51.4403 36.129 50.5028 36.129 49.304C36.129 48.1052 35.4373 47.5519 34.0541 46.8295C33.5469 46.5221 32.7784 46.0918 32.7784 45.4155C32.7737 45.2647 32.8154 45.116 32.8979 44.9896C32.9803 44.8631 33.0996 44.765 33.2395 44.7085H34.3154C34.9763 44.9852 35.4373 45.7383 35.6064 46.6143H35.6679V44.7085H36.3749C36.9897 44.7546 37.2048 44.9852 37.2048 45.5231V50.4413C37.2048 51.01 36.9589 51.2252 36.2366 51.2559V51.3174ZM35.5603 44.7085C35.5353 44.7458 35.5007 44.7755 35.46 44.7944C35.4194 44.8134 35.3743 44.8209 35.3298 44.8161C35.1816 44.8026 35.0365 44.7663 34.8994 44.7085H35.5603ZM26.8458 48.2742L27.6758 45.5692L28.4904 48.2742H26.8458ZM25.2935 50.1032C25.1307 50.3704 24.903 50.5921 24.6317 50.748C24.3603 50.9038 24.0541 50.9886 23.7412 50.9946C22.5424 50.9946 21.6356 49.8726 21.6356 47.5826C21.6356 46.1686 22.0198 44.6163 23.2187 44.6163C24.4175 44.6163 24.9708 46.0149 25.2013 47.3213H25.2782V44.5395H25.2013C25.2013 44.7393 25.1245 44.8622 24.94 44.8622C24.7556 44.8622 24.1869 44.5241 23.234 44.5241C21.3743 44.5241 19.8066 45.7536 19.8066 47.9668C19.8066 50.18 21.3436 51.4711 23.0189 51.4711C24.0947 51.4711 24.8939 50.9485 25.3243 50.18L25.2935 50.1032ZM63.3636 41.3887L64.5163 38.53L65.2079 41.3887H63.3636Z" fill="white"/>
<path d="M26.1853 70.6982H21.9434V70.5906C22.0792 70.5919 22.2135 70.562 22.336 70.5034C22.4585 70.4448 22.5661 70.359 22.6504 70.2525C22.8498 70.0292 22.9545 69.7371 22.9424 69.4379V63.1365C22.9545 62.8373 22.8498 62.5452 22.6504 62.3219C22.5639 62.2178 22.4559 62.1338 22.3339 62.0754C22.2118 62.017 22.0786 61.9858 21.9434 61.9837V61.8915H28.9364V64.5351H28.8289C28.7149 64.0887 28.5109 63.6703 28.2295 63.3055C27.9575 62.9283 27.6126 62.6094 27.2151 62.368C26.8588 62.1194 26.4353 61.9854 26.0009 61.9837H24.9404V66.7022H26.0931C26.5562 66.7184 27.016 66.6179 27.4302 66.4101C27.8145 66.2103 27.9989 65.9798 27.9989 65.7032H28.0911V67.8088H27.9989C27.9989 67.5321 27.8145 67.3016 27.4302 67.1018C27.016 66.894 26.5562 66.7936 26.0931 66.8098H24.9404V69.4379C24.9378 69.5925 24.9695 69.7458 25.0333 69.8867C25.0971 70.0275 25.1913 70.1525 25.3093 70.2525C25.545 70.4767 25.8601 70.5983 26.1853 70.5906V70.6982ZM33.4858 70.6982H29.4897V70.5906C29.6256 70.5919 29.7599 70.562 29.8824 70.5034C30.0049 70.4448 30.1124 70.359 30.1967 70.2525C30.3962 70.0292 30.5009 69.7371 30.4888 69.4379V63.1365C30.5009 62.8373 30.3962 62.5452 30.1967 62.3219C30.1103 62.2178 30.0023 62.1338 29.8803 62.0754C29.7582 62.017 29.625 61.9858 29.4897 61.9837V61.8915H33.4858V61.9837C33.3505 61.9858 33.2173 62.017 33.0953 62.0754C32.9732 62.1338 32.8653 62.2178 32.7788 62.3219C32.5794 62.5452 32.4746 62.8373 32.4868 63.1365V69.4379C32.4746 69.7371 32.5794 70.0292 32.7788 70.2525C32.8631 70.359 32.9706 70.4448 33.0932 70.5034C33.2157 70.562 33.35 70.5919 33.4858 70.5906V70.6982ZM41.0322 70.6982H40.0793L34.8844 63.2902V68.4235C34.8683 68.951 34.968 69.4757 35.1764 69.9605C35.3762 70.3755 35.6068 70.5906 35.8834 70.5906V70.6982H33.7778V70.5906C34.0545 70.5906 34.3004 70.3908 34.4848 69.9605C34.6933 69.4757 34.7929 68.951 34.7768 68.4235V64.2738C34.7756 63.9016 34.7344 63.5306 34.6539 63.1672C34.5836 62.8652 34.4586 62.5787 34.285 62.3219C34.2364 62.2282 34.1639 62.149 34.0748 62.0923C33.9857 62.0356 33.8833 62.0035 33.7778 61.9991V61.8915H36.4675L40.9246 68.193V64.1508C40.9316 63.6291 40.8322 63.1114 40.6326 62.6293C40.4328 62.1989 40.2022 61.9837 39.9256 61.9837V61.8915H42.0312V61.9837C41.7546 61.9837 41.524 62.1989 41.3242 62.6293C41.117 63.1091 41.0173 63.6284 41.0322 64.1508V70.6982ZM50.8533 70.6982H46.7035V70.5906C46.789 70.5938 46.8736 70.5723 46.9471 70.5287C47.0207 70.4851 47.0802 70.4212 47.1185 70.3447C47.2178 70.1445 47.2654 69.9226 47.2568 69.6992C47.2425 69.2722 47.1541 68.851 46.9955 68.4543L46.8879 68.1776H43.6143C43.5064 68.4384 43.4141 68.7052 43.3376 68.9768C43.2759 69.2126 43.2449 69.4554 43.2454 69.6992C43.2348 69.9227 43.2824 70.1452 43.3837 70.3447C43.422 70.4212 43.4815 70.4851 43.5551 70.5287C43.6286 70.5723 43.7132 70.5938 43.7987 70.5906V70.6982H41.5855V70.5906C41.7132 70.5882 41.8391 70.5596 41.9554 70.5068C42.0716 70.4539 42.1759 70.3778 42.2617 70.2832C42.5145 70.0535 42.7275 69.7834 42.8919 69.484C43.0965 69.1464 43.2713 68.7915 43.4144 68.4235L45.9504 61.8915H46.4422L48.9782 68.4235C49.1201 68.7948 49.3004 69.1502 49.5161 69.484C49.6866 69.7836 49.9046 70.0536 50.1616 70.2832C50.3429 70.4724 50.5913 70.5828 50.8533 70.5906V70.6982ZM46.8572 68.07L45.2588 63.951L43.6604 68.07H46.8572ZM58.0615 70.6982H51.0684V70.5906C51.2039 70.5897 51.3374 70.5588 51.4596 70.5004C51.5818 70.442 51.6896 70.3573 51.7754 70.2525C51.9682 70.0253 52.072 69.7359 52.0674 69.4379V63.1365C52.072 62.8385 51.9682 62.549 51.7754 62.3219C51.6889 62.2178 51.581 62.1338 51.4589 62.0754C51.3369 62.017 51.2037 61.9858 51.0684 61.9837V61.8915H55.0491V61.9837C54.9161 61.9859 54.7852 62.0173 54.6656 62.0758C54.5461 62.1342 54.4409 62.2182 54.3575 62.3219C54.158 62.5452 54.0533 62.8373 54.0655 63.1365V70.5906H55.1259C55.5575 70.5853 55.9786 70.4574 56.3401 70.2218C56.7318 69.9664 57.0752 69.6438 57.3545 69.2689C57.6238 68.9023 57.8267 68.4913 57.9539 68.0547H58.0615V70.6982ZM62.5033 70.6982H58.5072V70.5906C58.6432 70.593 58.7779 70.5637 58.9006 70.505C59.0234 70.4463 59.1307 70.3599 59.2142 70.2525C59.4136 70.0292 59.5184 69.7371 59.5062 69.4379V63.1365C59.5184 62.8373 59.4136 62.5452 59.2142 62.3219C59.1284 62.2171 59.0206 62.1324 58.8984 62.074C58.7762 62.0155 58.6427 61.9847 58.5072 61.9837V61.8915H62.5033V61.9837C62.37 61.9848 62.2388 62.0158 62.1191 62.0743C61.9994 62.1328 61.8943 62.2174 61.8116 62.3219C61.6122 62.5452 61.5075 62.8373 61.5196 63.1365V69.4379C61.5075 69.7371 61.6122 70.0292 61.8116 70.2525C61.8919 70.3596 61.9965 70.4461 62.1167 70.5049C62.237 70.5637 62.3695 70.593 62.5033 70.5906V70.6982ZM66.4686 70.7904C66.2055 70.7892 65.9431 70.7635 65.6847 70.7136C65.2493 70.6026 64.8228 70.4587 64.4091 70.2832C64.1921 70.1735 63.9584 70.1008 63.7175 70.0681C63.6291 70.0646 63.5422 70.0918 63.4715 70.1449C63.4208 70.2081 63.3841 70.2815 63.364 70.3601C63.3339 70.4333 63.3182 70.5115 63.3179 70.5906H63.1949V68.0547H63.3179C63.4599 68.5117 63.7013 68.9316 64.0248 69.2842C64.3559 69.6858 64.7568 70.0243 65.2083 70.2832C65.5819 70.5335 66.0191 70.6721 66.4686 70.6828C67.0065 70.6828 67.4061 70.5753 67.6828 70.3601C67.8188 70.256 67.9276 70.1206 67.9998 69.9654C68.0721 69.8101 68.1057 69.6397 68.0977 69.4687C68.0945 69.1674 67.9918 68.8757 67.8057 68.6387C67.589 68.3879 67.3411 68.1658 67.068 67.9778C66.7606 67.778 66.4532 67.5782 66.1151 67.3938L65.2698 66.902C64.7389 66.6106 64.2394 66.2656 63.7789 65.8722C63.5657 65.6738 63.3955 65.4335 63.2792 65.1665C63.1628 64.8994 63.1028 64.6112 63.1027 64.3199C63.0955 63.8604 63.2297 63.4097 63.4869 63.0289C63.7565 62.6344 64.1284 62.3209 64.5628 62.1221C65.0882 61.8835 65.6612 61.7679 66.238 61.7839C66.4971 61.7815 66.7554 61.8125 67.0065 61.8762C67.3772 61.9657 67.734 62.1053 68.067 62.2911C68.2361 62.411 68.4308 62.49 68.6357 62.5217C68.6786 62.5253 68.7218 62.5189 68.7619 62.5029C68.8019 62.4869 68.8376 62.4617 68.8662 62.4295C68.9249 62.3694 68.9672 62.2953 68.9892 62.2143C69.0135 62.1453 69.024 62.0722 69.0199 61.9991H69.1582V64.5351H69.0199C68.8994 64.0844 68.7018 63.658 68.4359 63.2748C68.1683 62.8917 67.8353 62.5587 67.4522 62.2911C67.1017 62.0296 66.6754 61.8893 66.238 61.8915C65.9253 61.8788 65.6142 61.9421 65.3312 62.076C65.1063 62.196 64.9198 62.3771 64.7933 62.5985C64.6818 62.8175 64.6239 63.0598 64.6243 63.3055C64.6209 63.5863 64.707 63.8608 64.8702 64.0894C65.0487 64.3308 65.2733 64.5346 65.5311 64.6888C66.1302 65.0729 66.7511 65.4218 67.3908 65.7339C67.6828 65.8722 67.9594 66.0259 68.2514 66.195C68.5181 66.344 68.7658 66.5246 68.9892 66.7329C69.2263 66.9377 69.4143 67.1933 69.5394 67.4806C69.6644 67.7679 69.7232 68.0797 69.7115 68.3928C69.7184 68.8265 69.601 69.2531 69.3734 69.6224C69.1234 70.0078 68.7575 70.3038 68.3283 70.4677C67.8518 70.6828 67.2217 70.7904 66.4532 70.7904H66.4686ZM76.0591 70.6982H72.0631V70.5906C72.1989 70.5919 72.3332 70.562 72.4557 70.5034C72.5782 70.4448 72.6858 70.359 72.7701 70.2525C72.9695 70.0292 73.0742 69.7371 73.0621 69.4379V61.9837C72.6155 61.9845 72.1783 62.1125 71.8018 62.3526C71.4111 62.5967 71.0675 62.9091 70.7874 63.2748C70.4963 63.6492 70.2821 64.0775 70.1572 64.5351H70.065V61.8915H78.0571V64.5351H77.9495C77.8301 64.0784 77.6211 63.65 77.3348 63.2748C77.0532 62.9047 76.7038 62.5918 76.305 62.3526C75.9285 62.1125 75.4913 61.9845 75.0447 61.9837V69.4379C75.0384 69.7389 75.1485 70.0307 75.3521 70.2525C75.4348 70.357 75.5399 70.4416 75.6595 70.5001C75.7792 70.5586 75.9105 70.5895 76.0437 70.5906V70.6982H76.0591Z" fill="white"/>
</g>
<defs>
<linearGradient id="paint0_linear_30_58698" x1="50" y1="0" x2="50" y2="100" gradientUnits="userSpaceOnUse">
<stop stop-color="#262626"/>
<stop offset="1" stop-color="#111111"/>
</linearGradient>
<clipPath id="clip0_30_58698">
<rect width="60.3865" height="41.8048" fill="white" transform="translate(19.8066 28.9856)"/>
</clipPath>
</defs>
</svg>
