<svg width="100" height="100" viewBox="0 0 100 100" fill="none" xmlns="http://www.w3.org/2000/svg">
<rect width="100" height="100" rx="50" fill="url(#paint0_linear_30_58662)"/>
<g clip-path="url(#clip0_30_58662)">
<path d="M15.9954 33.6654H14.0026C13.8758 33.6654 13.8215 33.7379 13.8215 33.8647V38.9552C13.8185 38.9797 13.8212 39.0046 13.8293 39.0279C13.8374 39.0512 13.8506 39.0723 13.8681 39.0898C13.8855 39.1072 13.9067 39.1205 13.93 39.1286C13.9533 39.1366 13.9781 39.1393 14.0026 39.1364H14.3287C14.3532 39.1393 14.378 39.1366 14.4013 39.1286C14.4246 39.1205 14.4458 39.1072 14.4632 39.0898C14.4807 39.0723 14.4939 39.0512 14.502 39.0279C14.5101 39.0046 14.5128 38.9797 14.5099 38.9552V37.3792H16.0135C17.3541 37.3792 18.0425 36.5821 18.0425 35.5494C18.0425 34.5168 17.4084 33.6654 15.9954 33.6654ZM16.0497 36.7994H14.5099V34.2632H15.9954C16.9012 34.2632 17.3359 34.9154 17.3359 35.5494C17.3413 35.7181 17.3114 35.8861 17.2482 36.0426C17.1849 36.1991 17.0897 36.3407 16.9687 36.4583C16.8477 36.5759 16.7034 36.667 16.5452 36.7258C16.3869 36.7845 16.2182 36.8096 16.0497 36.7994ZM19.4917 37.2886H20.9048L22.1548 39.0277C22.179 39.0626 22.2116 39.0908 22.2496 39.1098C22.2876 39.1288 22.3297 39.1379 22.3722 39.1364H22.7888C22.9338 39.1364 22.9881 39.0458 22.8975 38.919L21.6657 37.2523C22.4809 37.0531 23.0062 36.4371 23.0062 35.4951C23.0165 35.2545 22.9766 35.0143 22.8892 34.7899C22.8018 34.5654 22.6687 34.3616 22.4984 34.1913C22.3281 34.021 22.1243 33.8879 21.8999 33.8005C21.6754 33.7131 21.4353 33.6732 21.1946 33.6835H18.9845C18.8577 33.6835 18.8033 33.7379 18.8033 33.8647V38.9552C18.8004 38.9797 18.8031 39.0046 18.8112 39.0279C18.8193 39.0512 18.8325 39.0723 18.85 39.0898C18.8674 39.1072 18.8886 39.1205 18.9119 39.1286C18.9352 39.1366 18.96 39.1393 18.9845 39.1364H19.3106C19.3351 39.1393 19.3599 39.1366 19.3832 39.1286C19.4065 39.1205 19.4277 39.1072 19.4451 39.0898C19.4626 39.0723 19.4758 39.0512 19.4839 39.0279C19.492 39.0046 19.4947 38.9797 19.4917 38.9552V37.2886ZM19.4917 36.6908V34.2632H21.1222C22.0823 34.2632 22.3178 35.0784 22.3178 35.4951C22.3178 36.3284 21.7925 36.6908 21.0678 36.6908H19.4917ZM24.7816 33.6654H24.4374C24.412 33.6653 24.3869 33.6705 24.3636 33.6807C24.3404 33.6909 24.3195 33.7059 24.3024 33.7247C24.2854 33.7435 24.2724 33.7656 24.2645 33.7898C24.2565 33.8139 24.2537 33.8394 24.2562 33.8647V38.9552C24.2533 38.9797 24.256 39.0046 24.2641 39.0279C24.2722 39.0512 24.2854 39.0723 24.3028 39.0898C24.3203 39.1072 24.3415 39.1205 24.3648 39.1286C24.3881 39.1366 24.4129 39.1393 24.4374 39.1364H24.7816C24.8061 39.1393 24.8309 39.1366 24.8542 39.1286C24.8775 39.1205 24.8987 39.1072 24.9161 39.0898C24.9336 39.0723 24.9468 39.0512 24.9549 39.0279C24.963 39.0046 24.9657 38.9797 24.9628 38.9552V33.8647C24.9653 33.8394 24.9625 33.8139 24.9545 33.7898C24.9466 33.7656 24.9336 33.7435 24.9166 33.7247C24.8995 33.7059 24.8786 33.6909 24.8554 33.6807C24.8321 33.6705 24.807 33.6653 24.7816 33.6654ZM28.3867 39.1364C28.441 39.1364 28.4772 39.1183 28.5316 39.0096L30.8323 33.8828C30.8867 33.756 30.8323 33.6654 30.6874 33.6654H30.307C30.2599 33.6627 30.2133 33.6754 30.1741 33.7015C30.1349 33.7277 30.1052 33.7659 30.0896 33.8103L28.3867 37.669L26.7019 33.8103C26.6863 33.7659 26.6566 33.7277 26.6174 33.7015C26.5782 33.6754 26.5315 33.6627 26.4845 33.6654H26.0859C25.9591 33.6654 25.8867 33.756 25.9591 33.8828L28.2599 39.0096C28.2961 39.1183 28.3323 39.1364 28.3867 39.1364ZM31.249 38.9915L31.6657 38.1038H34.6186L35.0352 38.9915C35.0562 39.0358 35.0897 39.0731 35.1315 39.0989C35.1733 39.1246 35.2217 39.1376 35.2707 39.1364H35.6693C35.7961 39.1364 35.8504 39.0277 35.7961 38.9009L33.2961 33.7922C33.2417 33.7016 33.2055 33.6654 33.1512 33.6654C33.0968 33.6654 33.0425 33.7016 33.0062 33.7922L30.5062 38.9009C30.4338 39.0277 30.4881 39.1364 30.633 39.1364H31.0135C31.0625 39.1376 31.1109 39.1246 31.1527 39.0989C31.1945 39.0731 31.228 39.0358 31.249 38.9915ZM33.1512 34.9697L34.3287 37.506H31.9736L33.1512 34.9697ZM39.383 33.6654H35.7417C35.7163 33.6653 35.6912 33.6705 35.668 33.6807C35.6447 33.6909 35.6239 33.7059 35.6068 33.7247C35.5897 33.7435 35.5768 33.7656 35.5688 33.7898C35.5608 33.8139 35.558 33.8394 35.5606 33.8647V34.0639C35.5577 34.0884 35.5604 34.1133 35.5684 34.1366C35.5765 34.1599 35.5898 34.181 35.6072 34.1985C35.6246 34.2159 35.6458 34.2292 35.6691 34.2373C35.6924 34.2453 35.7173 34.248 35.7417 34.2451H37.2272V38.9371C37.2272 39.0639 37.2816 39.1364 37.4084 39.1364H37.7345C37.7599 39.1365 37.785 39.1313 37.8083 39.1211C37.8315 39.1109 37.8524 39.0959 37.8694 39.0771C37.8865 39.0583 37.8995 39.0361 37.9074 39.012C37.9154 38.9879 37.9182 38.9624 37.9157 38.9371V34.2451H39.383C39.5099 34.2451 39.5642 34.1908 39.5642 34.0639V33.8647C39.5642 33.7379 39.5099 33.6654 39.383 33.6654ZM43.9664 33.6654H40.3794C40.3611 33.6652 40.343 33.669 40.3263 33.6764C40.3096 33.6839 40.2947 33.6949 40.2827 33.7087C40.2706 33.7225 40.2617 33.7387 40.2565 33.7562C40.2513 33.7738 40.25 33.7922 40.2526 33.8103V38.9915C40.25 39.0096 40.2513 39.028 40.2565 39.0456C40.2617 39.0631 40.2706 39.0793 40.2827 39.0931C40.2947 39.1069 40.3096 39.1179 40.3263 39.1253C40.343 39.1328 40.3611 39.1366 40.3794 39.1364H43.9664C43.9861 39.1395 44.0063 39.1379 44.0253 39.1317C44.0443 39.1255 44.0616 39.1149 44.0757 39.1008C44.0898 39.0867 44.1004 39.0694 44.1066 39.0504C44.1128 39.0314 44.1144 39.0112 44.1113 38.9915V38.6654C44.1115 38.6471 44.1077 38.629 44.1002 38.6123C44.0928 38.5956 44.0818 38.5807 44.068 38.5687C44.0542 38.5566 44.038 38.5477 44.0205 38.5425C44.0029 38.5373 43.9845 38.536 43.9664 38.5386H40.9591V36.727H43.6041C43.6377 36.727 43.6699 36.7136 43.6937 36.6898C43.7175 36.6661 43.7309 36.6338 43.7309 36.6002V36.2741C43.7335 36.256 43.7322 36.2375 43.727 36.22C43.7218 36.2024 43.7128 36.1862 43.7008 36.1725C43.6888 36.1587 43.6739 36.1477 43.6572 36.1402C43.6405 36.1327 43.6224 36.129 43.6041 36.1292H40.9591V34.2632H43.9664C43.9861 34.2663 44.0063 34.2647 44.0253 34.2585C44.0443 34.2523 44.0616 34.2417 44.0757 34.2276C44.0898 34.2135 44.1004 34.1962 44.1066 34.1772C44.1128 34.1582 44.1144 34.138 44.1113 34.1183V33.8103C44.1113 33.7197 44.057 33.6835 43.9664 33.6835V33.6654Z" fill="white"/>
<path d="M15.9956 33.7197H14.0029L13.8942 33.7559C13.8811 33.7706 13.8711 33.7879 13.8649 33.8066C13.8586 33.8252 13.8563 33.845 13.8579 33.8646V38.9552C13.8592 38.9887 13.872 39.0207 13.8942 39.0458C13.9123 39.082 13.9485 39.082 14.0029 39.082H14.329C14.3833 39.082 14.4195 39.082 14.4377 39.0458C14.4508 39.0311 14.4607 39.0139 14.467 38.9952C14.4732 38.9765 14.4756 38.9567 14.4739 38.9371V37.3248H16.0137C16.6478 37.3248 17.1369 37.1617 17.463 36.8538C17.6394 36.687 17.7776 36.4841 17.8683 36.259C17.959 36.0339 17.9999 35.7918 17.9884 35.5494C18.0004 35.3015 17.9599 35.0539 17.8693 34.8228C17.7788 34.5918 17.6403 34.3825 17.463 34.2088C17.1369 33.9009 16.6478 33.7197 15.9956 33.7197ZM14.0029 33.6291H15.9956C16.6659 33.6291 17.1732 33.8103 17.5174 34.1364C17.7111 34.3155 17.8633 34.5347 17.9634 34.7788C18.0635 35.0229 18.1092 35.2859 18.0971 35.5494C18.1039 35.8069 18.0557 36.0629 17.9557 36.3004C17.8558 36.5378 17.7063 36.7511 17.5174 36.9262C17.0962 37.2756 16.5605 37.4564 16.0137 37.4335H14.5645V38.9371C14.5689 38.971 14.5646 39.0054 14.5519 39.0372C14.5392 39.0689 14.5186 39.0968 14.492 39.1183C14.4699 39.1379 14.4441 39.1529 14.4161 39.1622C14.388 39.1716 14.3584 39.1751 14.329 39.1726H14.0029C13.9383 39.1739 13.8749 39.1549 13.8217 39.1183C13.8006 39.0935 13.7849 39.0646 13.7756 39.0334C13.7662 39.0022 13.7634 38.9694 13.7674 38.9371V33.8646C13.7632 33.7997 13.7825 33.7354 13.8217 33.6835C13.8749 33.6468 13.9383 33.6278 14.0029 33.6291ZM16.05 36.8356H14.4739V34.2088H15.9956C16.3622 34.1957 16.7195 34.3256 16.992 34.5712C17.1204 34.6993 17.2218 34.852 17.2902 35.02C17.3587 35.188 17.3928 35.368 17.3906 35.5494C17.3924 35.7238 17.3597 35.8967 17.2944 36.0584C17.2291 36.2201 17.1325 36.3673 17.0101 36.4914C16.8808 36.6095 16.7294 36.7008 16.5646 36.7598C16.3997 36.8189 16.2248 36.8447 16.05 36.8356ZM14.5645 36.7451H16.05C16.2123 36.7539 16.3748 36.7296 16.5274 36.6735C16.6801 36.6174 16.8196 36.5308 16.9377 36.419C17.0538 36.3061 17.1458 36.1709 17.2081 36.0214C17.2703 35.8719 17.3016 35.7113 17.3 35.5494C17.301 35.3806 17.2679 35.2133 17.2025 35.0576C17.1371 34.9019 17.0408 34.7611 16.9195 34.6436C16.7989 34.5239 16.654 34.4312 16.4947 34.3719C16.3354 34.3125 16.1652 34.2878 15.9956 34.2994H14.5645V36.7451ZM19.492 37.2342H20.9232L22.1913 38.9914L22.2819 39.0639H22.8797C22.8797 39.0591 22.8816 39.0545 22.885 39.0511C22.8884 39.0477 22.893 39.0458 22.8978 39.0458C22.8906 39.0139 22.8784 38.9833 22.8616 38.9552L21.5935 37.2342H21.6478C22.0361 37.1615 22.3842 36.9488 22.6261 36.6364C22.8572 36.3089 22.972 35.9135 22.9522 35.5132C22.9579 35.28 22.9177 35.0481 22.8337 34.8305C22.7498 34.6129 22.6238 34.414 22.463 34.2451C22.2977 34.0769 22.1002 33.9437 21.8824 33.8534C21.6645 33.7632 21.4307 33.7177 21.1949 33.7197H18.9848L18.8761 33.7559C18.8579 33.7741 18.8579 33.8103 18.8579 33.8646V38.9371C18.8579 38.9914 18.8579 39.0277 18.8761 39.0458L18.9848 39.082H19.3108L19.4195 39.0458C19.4327 39.0311 19.4426 39.0139 19.4489 38.9952C19.4551 38.9765 19.4574 38.9567 19.4558 38.9371V37.2342H19.492ZM20.8869 37.3429H19.5464V38.9371C19.5503 38.9694 19.5475 39.0022 19.5382 39.0334C19.5288 39.0646 19.5131 39.0935 19.492 39.1183C19.4388 39.1549 19.3754 39.1739 19.3108 39.1726H18.9848C18.9553 39.1751 18.9257 39.1716 18.8976 39.1622C18.8696 39.1529 18.8438 39.1379 18.8217 39.1183C18.7951 39.0968 18.7745 39.0689 18.7618 39.0372C18.7491 39.0054 18.7448 38.971 18.7493 38.9371V33.8646C18.7464 33.8309 18.7514 33.7969 18.764 33.7655C18.7766 33.734 18.7964 33.7059 18.8217 33.6835C18.8438 33.6638 18.8696 33.6488 18.8976 33.6395C18.9257 33.6302 18.9553 33.6266 18.9848 33.6291H21.1949C21.4425 33.6193 21.6895 33.6609 21.9202 33.7514C22.151 33.8418 22.3605 33.9791 22.5355 34.1545C22.7069 34.3287 22.8418 34.5354 22.932 34.7626C23.0222 34.9897 23.066 35.2326 23.0608 35.477C23.0713 35.8984 22.9441 36.3118 22.6985 36.6545C22.4568 36.9619 22.1186 37.1789 21.7384 37.2704L22.934 38.8827C22.965 38.9252 22.9837 38.9753 22.9884 39.0277C22.9888 39.053 22.9825 39.078 22.9703 39.1001C22.9522 39.1183 22.9522 39.1364 22.934 39.1364C22.8923 39.1668 22.8403 39.1798 22.7891 39.1726H22.2275C22.1869 39.1411 22.1504 39.1045 22.1188 39.0639L20.8688 37.361L20.8869 37.3429ZM19.4558 36.6907V34.2088H21.1224C21.2862 34.2013 21.4498 34.228 21.6026 34.2872C21.7555 34.3465 21.8943 34.437 22.0101 34.553C22.2401 34.8062 22.369 35.135 22.3724 35.477C22.3841 35.6466 22.3594 35.8167 22.3 35.976C22.2407 36.1354 22.148 36.2802 22.0282 36.4009C21.8986 36.5174 21.7467 36.6065 21.5817 36.6625C21.4166 36.7186 21.2419 36.7405 21.0681 36.727H19.4558V36.6907ZM19.5464 34.2994V36.6364H21.0681C21.3957 36.6572 21.7192 36.5537 21.9739 36.3465C22.1788 36.1047 22.2826 35.7933 22.2637 35.477C22.2654 35.1569 22.1494 34.8474 21.9377 34.6074C21.8304 34.5026 21.7026 34.4211 21.5623 34.3681C21.422 34.3151 21.2722 34.2917 21.1224 34.2994H19.5464ZM24.7819 33.7197H24.4377L24.3471 33.7559C24.3108 33.7741 24.3108 33.8103 24.3108 33.8646V38.9552C24.3108 38.9914 24.3108 39.0277 24.3471 39.0458C24.3833 39.0639 24.4014 39.082 24.4377 39.082H24.7819C24.8181 39.082 24.8543 39.082 24.8724 39.0458C24.8906 39.0096 24.9087 38.9914 24.9087 38.9371V33.8646C24.9087 33.8103 24.9087 33.7741 24.8724 33.7559L24.7819 33.7197ZM24.4377 33.6291H24.7819C24.8113 33.6266 24.8409 33.6302 24.869 33.6395C24.897 33.6488 24.9228 33.6638 24.9449 33.6835C24.9841 33.7354 25.0034 33.7997 24.9993 33.8646V38.9371C25.0032 38.9694 25.0004 39.0022 24.9911 39.0334C24.9817 39.0646 24.966 39.0935 24.9449 39.1183C24.9228 39.1379 24.897 39.1529 24.869 39.1622C24.8409 39.1716 24.8113 39.1751 24.7819 39.1726H24.4377C24.4082 39.1751 24.3786 39.1716 24.3505 39.1622C24.3225 39.1529 24.2967 39.1379 24.2746 39.1183C24.2535 39.0935 24.2378 39.0646 24.2285 39.0334C24.2191 39.0022 24.2163 38.9694 24.2203 38.9371V33.8646C24.2161 33.7997 24.2354 33.7354 24.2746 33.6835C24.2967 33.6638 24.3225 33.6488 24.3505 33.6395C24.3786 33.6302 24.4082 33.6266 24.4377 33.6291ZM28.3869 39.082H28.4413L28.4775 39.0096L30.7964 33.8646C30.7964 33.8465 30.8145 33.8103 30.8145 33.7922C30.8145 33.7741 30.7964 33.7741 30.7964 33.7559H30.1985L30.1442 33.8465L28.3869 37.7777L26.6659 33.8284C26.6523 33.7911 26.6269 33.7593 26.5935 33.7378H25.9956V33.7741C25.9929 33.7996 25.9993 33.8253 26.0137 33.8465L28.2964 38.9914C28.3145 39.0277 28.3326 39.0639 28.3507 39.0639L28.3869 39.082ZM28.4956 39.1364C28.4816 39.1505 28.4645 39.1612 28.4456 39.1675C28.4267 39.1738 28.4066 39.1755 28.3869 39.1726C28.3507 39.1726 28.3145 39.1726 28.2964 39.1364C28.2774 39.1242 28.2612 39.1083 28.2488 39.0896C28.2363 39.0709 28.2278 39.0498 28.2239 39.0277L25.905 33.9009C25.8905 33.8666 25.8843 33.8293 25.8869 33.7922C25.8814 33.7608 25.8878 33.7284 25.905 33.7016L25.9775 33.6472H26.4848C26.5572 33.6472 26.6116 33.6472 26.6478 33.6835L26.7565 33.8103L28.3869 37.5603L30.0536 33.7922C30.0731 33.738 30.1118 33.6929 30.1623 33.6654C30.2041 33.6349 30.256 33.622 30.3072 33.6291H30.8145L30.8869 33.6835C30.8948 33.7133 30.9008 33.7435 30.905 33.7741C30.9014 33.8126 30.889 33.8498 30.8688 33.8827L28.5681 39.0277C28.5531 39.0693 28.5283 39.1066 28.4956 39.1364ZM31.213 38.9733L31.6478 38.0494H34.655L35.0898 38.9733L35.1623 39.0639H35.7601C35.7782 39.0458 35.7782 39.0458 35.7782 39.0277C35.7811 38.9964 35.7748 38.9649 35.7601 38.9371L33.2601 33.8103C33.242 33.7559 33.2239 33.7378 33.2058 33.7378H33.0971C33.079 33.7378 33.079 33.7559 33.0608 33.8103L30.5427 38.919C30.5427 38.9552 30.5246 38.9733 30.5246 39.0096C30.5258 39.0235 30.5322 39.0365 30.5427 39.0458H31.1406L31.213 38.9552V38.9733ZM31.7021 38.14L31.2855 39.0096C31.266 39.0637 31.2273 39.1088 31.1768 39.1364L31.0319 39.1726H30.5246C30.5065 39.1545 30.4703 39.1364 30.4703 39.1183C30.4515 39.0846 30.4392 39.0477 30.434 39.0096C30.4378 38.9654 30.4501 38.9223 30.4703 38.8827L32.9703 33.7559L33.0427 33.6472H33.2601C33.2782 33.6835 33.3145 33.7016 33.3326 33.7559L35.8507 38.8827C35.8656 38.9233 35.8717 38.9665 35.8688 39.0096C35.87 39.0408 35.8638 39.0718 35.8507 39.1001L35.7782 39.1545H35.271L35.1079 39.1183L34.9993 38.9914L34.6007 38.14H31.7021ZM33.2058 34.9516L34.4195 37.5422H31.9014L33.1695 34.861L33.2058 34.9516ZM34.2565 37.4516L33.1514 35.0784L32.0464 37.4516H34.2565ZM39.3833 33.7197H35.742L35.6514 33.7559C35.6152 33.7741 35.6152 33.8103 35.6152 33.8646V34.0639C35.6152 34.1183 35.6152 34.1545 35.6514 34.1726L35.742 34.2088H37.2637V38.9371C37.2621 38.9567 37.2644 38.9765 37.2707 38.9952C37.2769 39.0139 37.2869 39.0311 37.3 39.0458L37.4087 39.082H37.7348L37.8435 39.0458C37.8616 39.0277 37.8616 38.9914 37.8616 38.9371V34.2088H39.3833L39.492 34.1726C39.5051 34.1579 39.5151 34.1407 39.5213 34.122C39.5275 34.1033 39.5299 34.0835 39.5282 34.0639V33.8465C39.527 33.813 39.5142 33.781 39.492 33.7559C39.4739 33.7197 39.4377 33.7197 39.3833 33.7197ZM35.742 33.6291H39.3833C39.4479 33.6278 39.5113 33.6468 39.5645 33.6835C39.5856 33.7083 39.6013 33.7372 39.6106 33.7684C39.62 33.7995 39.6228 33.8323 39.6188 33.8646V34.0639C39.6201 34.1285 39.6011 34.1919 39.5645 34.2451C39.5125 34.2843 39.4483 34.3036 39.3833 34.2994H37.9703V38.9371C37.9731 38.9709 37.9681 39.0048 37.9555 39.0363C37.9429 39.0677 37.9232 39.0958 37.8978 39.1183C37.8757 39.1379 37.8499 39.1529 37.8219 39.1622C37.7938 39.1716 37.7642 39.1751 37.7348 39.1726H37.4087C37.3792 39.1751 37.3496 39.1716 37.3216 39.1622C37.2935 39.1529 37.2677 39.1379 37.2456 39.1183C37.2203 39.0958 37.2005 39.0677 37.1879 39.0363C37.1754 39.0048 37.1703 38.9709 37.1732 38.9371V34.2994H35.742C35.7126 34.3019 35.6829 34.2984 35.6549 34.289C35.6269 34.2797 35.601 34.2647 35.579 34.2451C35.5369 34.1935 35.5116 34.1303 35.5065 34.0639V33.8646C35.5049 33.831 35.5106 33.7974 35.5231 33.7662C35.5356 33.7349 35.5546 33.7067 35.579 33.6835C35.601 33.6638 35.6269 33.6488 35.6549 33.6395C35.6829 33.6302 35.7126 33.6266 35.742 33.6291ZM43.9666 33.7197H40.3253C40.3072 33.7378 40.3072 33.7559 40.3072 33.7922V38.9914C40.3072 39.0277 40.3072 39.0458 40.3253 39.0639H44.0391C44.0391 39.0458 44.0572 39.0277 44.0572 38.9914V38.6654C44.0541 38.6464 44.048 38.6281 44.0391 38.611C44.0307 38.5998 44.0197 38.5906 44.0071 38.5843C43.9946 38.5781 43.9807 38.5748 43.9666 38.5748H40.905V36.6726H43.6043C43.6224 36.6726 43.6587 36.6726 43.6587 36.6545C43.6587 36.6364 43.6949 36.6183 43.6949 36.6001V36.2741C43.6949 36.2378 43.6768 36.2197 43.6768 36.2016H40.905V34.2088H44.0391C44.0572 34.1907 44.0572 34.1726 44.0572 34.1364V33.8103C44.0572 33.7741 44.0572 33.7559 44.0391 33.7378L43.9666 33.7197ZM40.3797 33.6291H43.9666L44.0935 33.6654C44.1117 33.6847 44.1259 33.7074 44.1353 33.7323C44.1446 33.7572 44.1489 33.7837 44.1478 33.8103V34.1183C44.1486 34.1421 44.1441 34.1658 44.1347 34.1877C44.1253 34.2096 44.1112 34.2292 44.0935 34.2451C44.0785 34.264 44.0591 34.2788 44.0369 34.2883C44.0148 34.2978 43.9906 34.3016 43.9666 34.2994H40.9956V36.0929H43.6043L43.7311 36.1291C43.7494 36.1484 43.7636 36.1712 43.773 36.1961C43.7823 36.221 43.7865 36.2475 43.7855 36.2741V36.6001C43.7855 36.6482 43.7664 36.6943 43.7324 36.7282C43.6984 36.7622 43.6524 36.7813 43.6043 36.7813H40.9956V38.4842H43.9666C43.9906 38.482 44.0148 38.4858 44.0369 38.4953C44.0591 38.5048 44.0785 38.5197 44.0935 38.5385C44.1112 38.5544 44.1253 38.574 44.1347 38.5959C44.1441 38.6178 44.1486 38.6415 44.1478 38.6654V38.9914C44.1478 39.0395 44.1287 39.0856 44.0947 39.1195C44.0608 39.1535 44.0147 39.1726 43.9666 39.1726H40.3797C40.3559 39.1734 40.3322 39.1689 40.3102 39.1595C40.2883 39.1501 40.2688 39.136 40.2529 39.1183C40.234 39.1033 40.2191 39.0839 40.2096 39.0617C40.2002 39.0396 40.1963 39.0154 40.1985 38.9914V33.8103C40.1975 33.7837 40.2017 33.7572 40.2111 33.7323C40.2204 33.7074 40.2346 33.6847 40.2529 33.6654L40.3797 33.6291Z" fill="white"/>
<path d="M45.7973 39.1364H47.6813C49.2936 39.1364 50.3444 38.2306 50.3444 36.4009C50.3444 34.5712 49.2755 33.6654 47.6813 33.6654H45.7973C45.6886 33.6654 45.6523 33.7198 45.6523 33.8285V38.9915C45.6523 39.0821 45.6886 39.1364 45.7973 39.1364ZM46.1052 38.7379V34.0821H47.5907C48.4241 34.0821 49.8915 34.3901 49.8915 36.419C49.8915 38.448 48.4241 38.7379 47.5907 38.7379H46.1052ZM51.54 39.1364H54.9821C55.0018 39.1395 55.022 39.1379 55.041 39.1317C55.06 39.1255 55.0772 39.115 55.0914 39.1008C55.1055 39.0867 55.1161 39.0694 55.1223 39.0504C55.1285 39.0314 55.1301 39.0113 55.127 38.9915V38.8828C55.127 38.7741 55.0726 38.7379 54.9821 38.7379H51.848V36.6546H54.5835C54.6922 36.6546 54.7465 36.6002 54.7465 36.5096V36.4009C54.7465 36.3104 54.6922 36.256 54.5835 36.256H51.848V34.0821H54.9821C55.0726 34.0821 55.127 34.0277 55.127 33.919V33.8104C55.1301 33.7906 55.1285 33.7704 55.1223 33.7514C55.1161 33.7324 55.1055 33.7152 55.0914 33.701C55.0772 33.6869 55.06 33.6763 55.041 33.6701C55.022 33.6639 55.0018 33.6623 54.9821 33.6654H51.54C51.5203 33.6623 51.5001 33.6639 51.4811 33.6701C51.4621 33.6763 51.4448 33.6869 51.4307 33.701C51.4166 33.7152 51.406 33.7324 51.3998 33.7514C51.3936 33.7704 51.392 33.7906 51.3951 33.8104V38.9734C51.3951 39.0821 51.4494 39.1364 51.54 39.1364ZM56.2864 39.1364H56.4313C56.54 39.1364 56.5944 39.0821 56.5944 38.9915V34.698L60.5437 39.0459C60.598 39.1002 60.6342 39.1364 60.6886 39.1364C60.7429 39.1364 60.761 39.0821 60.761 39.0459V33.8285C60.761 33.7198 60.7248 33.6654 60.6161 33.6654H60.4531C60.3625 33.6654 60.3081 33.7198 60.3081 33.8285V38.0857L56.3589 33.756C56.3045 33.7017 56.2683 33.6654 56.2139 33.6654C56.1596 33.6654 56.1415 33.7017 56.1415 33.756V38.9915C56.1415 39.0821 56.1777 39.1364 56.2864 39.1364ZM63.6234 39.1364H63.7864C63.8061 39.1395 63.8263 39.1379 63.8453 39.1317C63.8643 39.1255 63.8816 39.115 63.8957 39.1008C63.9098 39.0867 63.9204 39.0694 63.9266 39.0504C63.9328 39.0314 63.9344 39.0113 63.9313 38.9915V34.0821H65.5074C65.5295 34.0851 65.552 34.0829 65.5732 34.0758C65.5943 34.0687 65.6135 34.0567 65.6293 34.041C65.6451 34.0252 65.657 34.006 65.6642 33.9848C65.6713 33.9637 65.6735 33.9412 65.6705 33.919V33.8285C65.6735 33.8064 65.6713 33.7838 65.6642 33.7627C65.657 33.7416 65.6451 33.7223 65.6293 33.7066C65.6135 33.6908 65.5943 33.6789 65.5732 33.6717C65.552 33.6646 65.5295 33.6624 65.5074 33.6654H61.9205C61.8118 33.6654 61.7755 33.7198 61.7755 33.8285V33.919C61.7755 34.0277 61.8118 34.0821 61.9205 34.0821H63.4784V38.9915C63.4753 39.0113 63.4769 39.0314 63.4831 39.0504C63.4893 39.0694 63.4999 39.0867 63.514 39.1008C63.5282 39.115 63.5454 39.1255 63.5644 39.1317C63.5834 39.1379 63.6036 39.1395 63.6234 39.1364ZM66.7212 39.1364H66.8661C66.9748 39.1364 67.011 39.0821 67.011 38.9915V33.8285C67.011 33.7198 66.9748 33.6654 66.8661 33.6654H66.7212C66.6991 33.6624 66.6766 33.6646 66.6554 33.6717C66.6343 33.6789 66.6151 33.6908 66.5993 33.7066C66.5835 33.7223 66.5716 33.7416 66.5644 33.7627C66.5573 33.7838 66.5551 33.8064 66.5581 33.8285V38.9915C66.5581 39.0821 66.6125 39.1364 66.7212 39.1364ZM70.3081 39.2451C71.4494 39.2451 72.2465 38.7379 72.2465 37.7234C72.2465 36.7089 71.1777 36.3285 70.5436 36.2017C69.9096 36.0748 68.5871 35.948 68.5871 35.1147C68.5871 34.2814 69.4748 33.9734 70.0183 33.9734C70.5243 33.9799 71.019 34.1239 71.4494 34.3901C71.4858 34.4105 71.5285 34.4163 71.569 34.4062C71.6094 34.396 71.6444 34.3708 71.6668 34.3357L71.7212 34.227C71.7755 34.1364 71.7574 34.064 71.685 34.0277C71.1964 33.7229 70.6303 33.5656 70.0545 33.5748C69.2212 33.5748 68.1342 33.9553 68.1342 35.1328C68.1342 36.3104 69.511 36.4553 70.127 36.5821C70.7429 36.7089 71.7936 36.9263 71.7936 37.7234C71.7936 38.5205 71.2502 38.8466 70.2719 38.8466C69.6642 38.8475 69.0705 38.6644 68.569 38.3212C68.5518 38.3084 68.532 38.2996 68.511 38.2955C68.4899 38.2913 68.4683 38.2918 68.4475 38.297C68.4267 38.3022 68.4073 38.3119 68.3907 38.3255C68.3741 38.3391 68.3608 38.3562 68.3516 38.3756L68.2792 38.4843C68.2664 38.5015 68.2576 38.5213 68.2534 38.5423C68.2492 38.5633 68.2497 38.585 68.2549 38.6058C68.2601 38.6266 68.2699 38.646 68.2834 38.6626C68.297 38.6791 68.3141 38.6925 68.3335 38.7017C68.9194 39.0833 69.6095 39.2732 70.3081 39.2451ZM74.2936 39.1364H74.4567C74.4764 39.1395 74.4966 39.1379 74.5156 39.1317C74.5346 39.1255 74.5519 39.115 74.566 39.1008C74.5801 39.0867 74.5907 39.0694 74.5969 39.0504C74.6031 39.0314 74.6047 39.0113 74.6016 38.9915V34.0821H76.1958C76.2864 34.0821 76.3407 34.0277 76.3407 33.919V33.8285C76.3407 33.7198 76.2864 33.6654 76.1958 33.6654H72.5908C72.5002 33.6654 72.4458 33.7198 72.4458 33.8285V33.919C72.4458 34.0277 72.5002 34.0821 72.5908 34.0821H74.1487V38.9915C74.1456 39.0113 74.1472 39.0314 74.1534 39.0504C74.1596 39.0694 74.1702 39.0867 74.1843 39.1008C74.1985 39.115 74.2157 39.1255 74.2347 39.1317C74.2537 39.1379 74.2739 39.1395 74.2936 39.1364ZM77.4639 39.1364H77.627C77.6467 39.1395 77.6669 39.1379 77.6859 39.1317C77.7049 39.1255 77.7222 39.115 77.7363 39.1008C77.7504 39.0867 77.761 39.0694 77.7672 39.0504C77.7734 39.0314 77.775 39.0113 77.7719 38.9915V37.198H79.4023L80.7248 39.0459C80.7454 39.0745 80.7726 39.0978 80.8042 39.1135C80.8358 39.1293 80.8707 39.1372 80.906 39.1364H81.1234C81.2502 39.1364 81.2864 39.0459 81.2139 38.9553L79.9458 37.1799C80.906 37.035 81.4313 36.3466 81.4313 35.4408C81.4313 34.535 80.7067 33.6654 79.6922 33.6654H77.4639C77.3734 33.6654 77.319 33.7198 77.319 33.8285V38.9915C77.3159 39.0113 77.3175 39.0314 77.3237 39.0504C77.3299 39.0694 77.3405 39.0867 77.3546 39.1008C77.3688 39.115 77.386 39.1255 77.405 39.1317C77.424 39.1379 77.4442 39.1395 77.4639 39.1364ZM77.7719 36.7814V34.0821H79.6379C80.7248 34.0821 80.9784 34.9698 80.9784 35.4408C80.9784 36.3828 80.2719 36.7814 79.6379 36.7814H77.7719ZM83.9676 39.1364H84.1306C84.1503 39.1395 84.1705 39.1379 84.1895 39.1317C84.2085 39.1255 84.2258 39.115 84.2399 39.1008C84.254 39.0867 84.2646 39.0694 84.2708 39.0504C84.277 39.0314 84.2786 39.0113 84.2755 38.9915V37.0712L86.2139 33.8466C86.2313 33.8295 86.2424 33.807 86.2455 33.7828C86.2485 33.7587 86.2434 33.7342 86.2308 33.7133C86.2183 33.6924 86.1991 33.6763 86.1763 33.6676C86.1535 33.6589 86.1285 33.6582 86.1052 33.6654H85.906C85.869 33.6666 85.833 33.6773 85.8013 33.6963C85.7696 33.7153 85.7433 33.7421 85.7248 33.7741L84.0581 36.564L82.4096 33.7741C82.3911 33.7421 82.3648 33.7153 82.3331 33.6963C82.3014 33.6773 82.2654 33.6666 82.2284 33.6654H82.0292C81.9205 33.6654 81.8661 33.756 81.9386 33.8466L83.8226 37.0712V38.9915C83.8195 39.0113 83.8212 39.0314 83.8273 39.0504C83.8335 39.0694 83.8441 39.0867 83.8582 39.1008C83.8724 39.115 83.8896 39.1255 83.9086 39.1317C83.9276 39.1379 83.9478 39.1395 83.9676 39.1364Z" fill="white"/>
<path d="M20.326 46.4191L20.5616 45.948H22.2101L22.4456 46.4191C22.4571 46.4476 22.4773 46.4717 22.5033 46.488C22.5294 46.5043 22.5599 46.5118 22.5905 46.5096H23.0434C23.1521 46.5096 23.1884 46.4372 23.134 46.3466L21.4855 43.0676C21.4492 42.9951 21.413 42.9951 21.3949 42.9951C21.3768 42.9951 21.3224 42.9951 21.3043 43.0676L19.6376 46.3466C19.6282 46.3629 19.6232 46.3813 19.6231 46.4001C19.6229 46.4189 19.6276 46.4374 19.6367 46.4538C19.6458 46.4702 19.6591 46.484 19.6751 46.4938C19.6911 46.5036 19.7094 46.509 19.7282 46.5096H20.1811C20.2136 46.509 20.2455 46.5004 20.2739 46.4846C20.3023 46.4688 20.3264 46.4463 20.3442 46.4191H20.326ZM21.3768 44.2633L21.884 45.3683H20.8876L21.3949 44.2633H21.3768ZM29.4021 43.1038L28.7318 44.9336L27.8985 43.0676C27.8623 42.9951 27.8442 42.9951 27.826 42.9951C27.8079 42.9951 27.7717 42.9951 27.7536 43.0676L26.9021 44.9154L26.25 43.1038C26.2417 43.072 26.2229 43.0438 26.1966 43.0241C26.1702 43.0043 26.1379 42.9941 26.105 42.9951H25.6703C25.5616 42.9951 25.5253 43.0495 25.5616 43.1401L26.7572 46.4372C26.7934 46.5096 26.8116 46.5096 26.8297 46.5096C26.8478 46.5096 26.884 46.5096 26.9021 46.4372L27.826 44.3901L28.7318 46.4372L28.8043 46.5096C28.8405 46.5096 28.8587 46.5096 28.8768 46.4372L30.0905 43.1401C30.1268 43.0495 30.0905 42.9951 30 42.9951H29.5471C29.5142 42.9941 29.4819 43.0043 29.4555 43.0241C29.4292 43.0438 29.4104 43.072 29.4021 43.1038ZM33.1884 46.4191L33.4239 45.948H35.0724L35.2898 46.4191C35.3075 46.4463 35.3317 46.4688 35.3601 46.4846C35.3885 46.5004 35.4204 46.509 35.4529 46.5096H35.9058C35.9963 46.5096 36.0326 46.4372 35.9963 46.3466L34.3297 43.0676C34.3116 42.9951 34.2753 42.9951 34.2391 42.9951C34.2029 42.9951 34.1847 42.9951 34.1485 43.0676L32.5 46.3466C32.4456 46.4372 32.4818 46.5096 32.5905 46.5096H33.0434C33.0741 46.5118 33.1046 46.5043 33.1307 46.488C33.1567 46.4717 33.1769 46.4476 33.1884 46.4191ZM34.2391 44.2633L34.7463 45.3683H33.75L34.2391 44.2633ZM39.7826 45.3864H40.4529L41.2137 46.4191C41.2315 46.4463 41.2556 46.4688 41.284 46.4846C41.3124 46.5004 41.3443 46.509 41.3768 46.5096H41.884C41.9927 46.5096 42.0289 46.4372 41.9565 46.3466L41.1956 45.3321C41.6485 45.2053 41.9202 44.7343 41.9202 44.2089C41.9307 44.0484 41.907 43.8874 41.8509 43.7367C41.7947 43.5859 41.7073 43.4487 41.5944 43.3341C41.4815 43.2195 41.3456 43.13 41.1957 43.0716C41.0458 43.0132 40.8853 42.9871 40.7246 42.9951H39.2572C39.1666 42.9951 39.1304 43.0314 39.1304 43.122V46.3828C39.1272 46.4002 39.1282 46.4181 39.1334 46.4349C39.1386 46.4518 39.1479 46.4672 39.1604 46.4797C39.1729 46.4921 39.1882 46.5014 39.2051 46.5066C39.222 46.5118 39.2398 46.5129 39.2572 46.5096H39.6558C39.6739 46.5123 39.6923 46.5109 39.7099 46.5057C39.7274 46.5005 39.7436 46.4916 39.7574 46.4796C39.7712 46.4675 39.7822 46.4526 39.7896 46.4359C39.7971 46.4192 39.8009 46.4011 39.8007 46.3828V45.3864H39.7826ZM39.7826 44.8067V43.593H40.5616C41.0507 43.593 41.2681 43.8647 41.2681 44.1908C41.2681 44.5169 41.1231 44.8067 40.5616 44.8067H39.7826ZM45.3985 46.5096H46.6485C47.7898 46.5096 48.4058 45.8212 48.4058 44.7524C48.4058 43.6836 47.7717 42.9951 46.6485 42.9951H45.3985C45.3079 42.9951 45.2536 43.0314 45.2536 43.122V46.3828C45.2534 46.4011 45.2572 46.4192 45.2646 46.4359C45.2721 46.4526 45.2831 46.4675 45.2969 46.4796C45.3107 46.4916 45.3269 46.5005 45.3444 46.5057C45.3619 46.5109 45.3804 46.5123 45.3985 46.5096ZM45.942 45.9118V43.593H46.6485C47.1376 43.593 47.7355 43.7741 47.7355 44.7524C47.7355 45.7307 47.1376 45.9118 46.6485 45.9118H45.942ZM51.8297 45.6763L51.6847 45.8937C51.6705 45.9127 51.6601 45.9344 51.6542 45.9574C51.6483 45.9805 51.647 46.0045 51.6503 46.028C51.6537 46.0516 51.6617 46.0742 51.6738 46.0947C51.6859 46.1152 51.7019 46.133 51.721 46.1473C52.1127 46.4397 52.591 46.5927 53.0797 46.5821C53.8768 46.5821 54.4202 46.2198 54.4202 45.4951C54.4202 44.7705 53.5326 44.4988 53.0978 44.4082C52.663 44.3176 52.2826 44.2451 52.2826 43.9191C52.2826 43.593 52.6087 43.5567 52.8804 43.5567C53.1866 43.5693 53.485 43.6564 53.75 43.8104C53.7675 43.8242 53.7877 43.8342 53.8093 43.8399C53.831 43.8456 53.8535 43.8468 53.8756 43.8434C53.8977 43.84 53.9188 43.8321 53.9377 43.8202C53.9566 43.8083 53.9729 43.7926 53.9855 43.7741L54.1666 43.5205C54.1801 43.5045 54.1899 43.4857 54.1955 43.4655C54.201 43.4453 54.2021 43.4241 54.1986 43.4035C54.1952 43.3828 54.1873 43.3631 54.1755 43.3458C54.1637 43.3285 54.1483 43.3139 54.1304 43.3031C53.7902 43.0525 53.3751 42.9248 52.9529 42.9408C52.355 42.9408 51.6123 43.1944 51.6123 43.9915C51.6123 44.7886 52.5362 44.9698 52.9529 45.0422C53.3695 45.1147 53.75 45.2053 53.75 45.5314C53.75 45.8575 53.5869 45.948 53.0797 45.948C52.7202 45.9223 52.3723 45.8104 52.0652 45.622C52.0261 45.6004 51.9805 45.5941 51.937 45.6041C51.8936 45.6141 51.8554 45.6398 51.8297 45.6763ZM61.2862 45.9118H59.855L60.634 45.2778C61.105 44.8792 61.3768 44.5712 61.3768 44.0278C61.3768 43.4843 60.9963 42.9408 60.163 42.9408C59.9047 42.941 59.6528 43.0212 59.4419 43.1705C59.231 43.3197 59.0716 43.5306 58.9855 43.7741C58.9492 43.8647 58.9674 43.9372 59.076 43.9553L59.4021 44.0459C59.4454 44.0579 59.4916 44.0535 59.5318 44.0334C59.5719 44.0133 59.6032 43.979 59.6195 43.9372C59.6616 43.818 59.7404 43.7152 59.8446 43.6436C59.9487 43.572 60.0729 43.5352 60.1992 43.5386C60.2656 43.5334 60.3324 43.5424 60.395 43.5649C60.4577 43.5874 60.5149 43.6229 60.5628 43.6692C60.6108 43.7154 60.6483 43.7712 60.6731 43.833C60.6979 43.8949 60.7092 43.9612 60.7065 44.0278C60.7065 44.2451 60.6703 44.4444 60.2355 44.7886L59.0579 45.785C59.016 45.8222 58.99 45.8741 58.9855 45.9299V46.3828C58.9853 46.4011 58.9891 46.4192 58.9965 46.4359C59.004 46.4526 59.015 46.4675 59.0288 46.4796C59.0425 46.4916 59.0588 46.5005 59.0763 46.5057C59.0938 46.5109 59.1123 46.5123 59.1304 46.5096H61.2862C61.3043 46.5123 61.3228 46.5109 61.3403 46.5057C61.3578 46.5005 61.3741 46.4916 61.3878 46.4796C61.4016 46.4675 61.4126 46.4526 61.4201 46.4359C61.4275 46.4192 61.4313 46.4011 61.4311 46.3828V46.0386C61.4313 46.0203 61.4275 46.0022 61.4201 45.9855C61.4126 45.9688 61.4016 45.9539 61.3878 45.9419C61.3741 45.9298 61.3578 45.9209 61.3403 45.9157C61.3228 45.9105 61.3043 45.9092 61.2862 45.9118ZM66.1956 46.5821C67.1739 46.5821 67.7717 45.6944 67.7717 44.7524C67.7717 43.8104 67.1014 42.9408 66.1956 42.9408C65.2898 42.9408 64.6195 43.6836 64.6195 44.7524C64.6195 45.8212 65.1992 46.5821 66.1956 46.5821ZM66.1956 43.5567C66.8297 43.5567 67.0833 44.1727 67.0833 44.7524C67.0833 45.3321 66.6304 45.948 66.1956 45.948C65.7608 45.948 65.3079 45.314 65.3079 44.7524C65.3079 43.9191 65.7789 43.5567 66.1956 43.5567ZM73.3152 45.9118H71.9021L72.663 45.2778C73.134 44.8792 73.4058 44.5712 73.4058 44.0278C73.4058 43.4843 73.0253 42.9408 72.192 42.9408C71.9337 42.941 71.6817 43.0212 71.4709 43.1705C71.26 43.3197 71.1006 43.5306 71.0145 43.7741C71.0057 43.7917 71.0012 43.8111 71.0012 43.8307C71.0012 43.8504 71.0058 43.8697 71.0146 43.8873C71.0234 43.9049 71.0361 43.9201 71.0518 43.9319C71.0675 43.9437 71.0857 43.9517 71.105 43.9553L71.4311 44.0459C71.4744 44.0579 71.5206 44.0535 71.5608 44.0334C71.6009 44.0133 71.6322 43.979 71.6485 43.9372C71.695 43.8209 71.7749 43.7211 71.878 43.6501C71.9812 43.5792 72.103 43.5404 72.2282 43.5386C72.2953 43.5303 72.3633 43.537 72.4274 43.5583C72.4915 43.5797 72.5501 43.6151 72.5987 43.662C72.6473 43.7089 72.6849 43.7661 72.7085 43.8294C72.7322 43.8927 72.7414 43.9604 72.7355 44.0278C72.7355 44.2451 72.6992 44.4444 72.2645 44.7886L71.105 45.785C71.0814 45.8007 71.0622 45.8224 71.0495 45.8478C71.0368 45.8732 71.031 45.9015 71.0326 45.9299V46.3828C71.0293 46.4002 71.0304 46.4181 71.0356 46.4349C71.0408 46.4518 71.0501 46.4672 71.0626 46.4797C71.075 46.4921 71.0904 46.5014 71.1073 46.5066C71.1241 46.5118 71.142 46.5129 71.1594 46.5096H73.3333C73.3669 46.5096 73.3992 46.4963 73.423 46.4725C73.4467 46.4487 73.4601 46.4165 73.4601 46.3828V46.0386C73.4601 46.005 73.4467 45.9727 73.423 45.949C73.3992 45.9252 73.3669 45.9118 73.3333 45.9118H73.3152ZM79.0942 45.9118H77.663L78.4239 45.2778C78.8949 44.8792 79.1666 44.5712 79.1666 44.0278C79.1666 43.4843 78.7862 42.9408 77.9529 42.9408C77.6945 42.941 77.4426 43.0212 77.2317 43.1705C77.0209 43.3197 76.8614 43.5306 76.7753 43.7741C76.7663 43.793 76.7622 43.8138 76.7632 43.8347C76.7642 43.8556 76.7703 43.8759 76.7811 43.8939C76.7919 43.9118 76.8069 43.9268 76.8248 43.9375C76.8428 43.9482 76.8631 43.9543 76.884 43.9553L77.192 44.0459C77.3007 44.064 77.3913 44.0278 77.4094 43.9372C77.457 43.8181 77.5397 43.7162 77.6464 43.645C77.7531 43.5739 77.8789 43.5368 78.0072 43.5386C78.0728 43.5331 78.1389 43.542 78.2007 43.5646C78.2625 43.5873 78.3187 43.6231 78.3653 43.6697C78.4118 43.7163 78.4477 43.7724 78.4703 43.8343C78.493 43.8961 78.5018 43.9621 78.4963 44.0278C78.4963 44.2451 78.4601 44.4444 78.0434 44.7886L76.8659 45.785C76.8422 45.8007 76.8231 45.8224 76.8104 45.8478C76.7977 45.8732 76.7918 45.9015 76.7934 45.9299V46.3828C76.7902 46.4002 76.7912 46.4181 76.7965 46.4349C76.8017 46.4518 76.8109 46.4672 76.8234 46.4797C76.8359 46.4921 76.8513 46.5014 76.8681 46.5066C76.885 46.5118 76.9029 46.5129 76.9203 46.5096H79.0942C79.1278 46.5096 79.1601 46.4963 79.1838 46.4725C79.2076 46.4487 79.221 46.4165 79.221 46.3828V46.0386C79.221 46.005 79.2076 45.9727 79.1838 45.949C79.1601 45.9252 79.1278 45.9118 79.0942 45.9118Z" fill="white"/>
<path d="M27.4277 49.1001H71.1959V49.4262H27.4277V49.1001Z" fill="white"/>
<path d="M34.4369 66.0748V64.7523L33.4949 63.3393C33.4789 63.3122 33.4691 63.282 33.4659 63.2507C33.4628 63.2194 33.4665 63.1879 33.4767 63.1581L33.5492 63.0857L33.6579 63.0494H33.9478L34.0383 63.0857C34.0746 63.0857 34.0927 63.1038 34.1108 63.14L34.763 64.1002L35.4151 63.14C35.4214 63.1254 35.4314 63.1127 35.4441 63.1031C35.4568 63.0936 35.4718 63.0876 35.4876 63.0857L35.5782 63.0494H35.8862C35.9209 63.05 35.9547 63.0606 35.9836 63.0798C36.0126 63.0991 36.0353 63.1263 36.0492 63.1581C36.0664 63.185 36.0729 63.2173 36.0673 63.2487C36.0701 63.28 36.0639 63.3115 36.0492 63.3393L35.0891 64.7342V66.0748C35.0891 66.0929 35.0709 66.111 35.0709 66.1473L35.0347 66.2016C35.0263 66.2129 35.0153 66.222 35.0028 66.2283C34.9902 66.2346 34.9763 66.2379 34.9622 66.2379H34.5456L34.4912 66.2016C34.48 66.1932 34.4709 66.1822 34.4646 66.1697C34.4583 66.1571 34.455 66.1432 34.455 66.1292C34.4484 66.1218 34.4435 66.1132 34.4403 66.1038C34.4372 66.0945 34.4361 66.0846 34.4369 66.0748ZM36.4296 65.8212C36.2923 65.662 36.1766 65.4853 36.0854 65.2958C36.0128 65.0924 35.976 64.8778 35.9767 64.6618C35.9745 64.4456 36.0113 64.2308 36.0854 64.0277C36.1677 63.8333 36.2843 63.6554 36.4296 63.5023C36.5757 63.344 36.7551 63.2203 36.955 63.14C37.1414 63.051 37.3463 63.0075 37.5528 63.0132C37.7653 63.006 37.9764 63.0495 38.1688 63.14C38.3686 63.2203 38.5481 63.344 38.6941 63.5023C38.8454 63.6506 38.9629 63.8298 39.0383 64.0277C39.1125 64.2308 39.1493 64.4456 39.147 64.6618C39.1553 64.8758 39.1193 65.0892 39.0414 65.2887C38.9635 65.4882 38.8453 65.6694 38.6941 65.8212C38.5434 65.974 38.3652 66.0969 38.1688 66.1835C37.9724 66.2591 37.7632 66.2961 37.5528 66.2922C37.3484 66.2946 37.1455 66.2577 36.955 66.1835C36.7586 66.0969 36.5804 65.974 36.4296 65.8212ZM36.8825 63.9552C36.7895 64.0452 36.7209 64.1574 36.6833 64.2813C36.5864 64.5257 36.5864 64.7978 36.6833 65.0422C36.7292 65.1622 36.7967 65.2727 36.8825 65.3683C36.9762 65.4527 37.0796 65.5256 37.1905 65.5857C37.3104 65.6375 37.4403 65.6623 37.5709 65.6581C37.8234 65.6517 38.0636 65.5478 38.2412 65.3683C38.326 65.2683 38.399 65.1589 38.4586 65.0422C38.5555 64.7978 38.5555 64.5257 38.4586 64.2813C38.4076 64.1598 38.3339 64.0491 38.2412 63.9552C38.156 63.8562 38.0511 63.776 37.9333 63.7197C37.8171 63.6767 37.6948 63.6522 37.5709 63.6473C37.4469 63.6502 37.3243 63.6747 37.2086 63.7197C37.085 63.7753 36.9741 63.8554 36.8825 63.9552ZM39.4912 65.0422V63.1763L39.5456 63.1038L39.5999 63.0676H39.9441C39.968 63.0668 39.9917 63.0713 40.0136 63.0807C40.0355 63.0901 40.0551 63.1041 40.0709 63.1219L40.1253 63.1944V65.0241C40.1258 65.1173 40.1442 65.2096 40.1796 65.2958C40.1976 65.3707 40.2351 65.4395 40.2883 65.4951C40.3398 65.5546 40.404 65.6017 40.4761 65.633C40.5482 65.6644 40.6264 65.6792 40.705 65.6763C40.7867 65.6774 40.8675 65.6587 40.9405 65.6219C41.0112 65.5967 41.0738 65.5529 41.1217 65.4951C41.1743 65.4359 41.2171 65.3686 41.2485 65.2958C41.2718 65.2071 41.284 65.1158 41.2847 65.0241V63.2668C41.2836 63.2403 41.2879 63.2138 41.2972 63.1889C41.3066 63.164 41.3208 63.1412 41.3391 63.1219L41.4115 63.0857H41.7557C41.781 63.0871 41.8057 63.0943 41.8277 63.1069C41.8497 63.1195 41.8685 63.137 41.8825 63.1581C41.9007 63.1581 41.9188 63.1944 41.9188 63.2125C41.9188 63.2306 41.9369 63.2487 41.9369 63.285V65.0784C41.9331 65.2453 41.9025 65.4104 41.8463 65.5676C41.79 65.7164 41.7037 65.8521 41.5927 65.9661C41.4811 66.0845 41.3451 66.1772 41.1941 66.2379C41.0418 66.3117 40.8743 66.3489 40.705 66.3465C40.5413 66.3492 40.3788 66.3167 40.2288 66.251C40.0788 66.1854 39.9446 66.0882 39.8354 65.9661C39.7187 65.8531 39.6263 65.7175 39.5637 65.5676C39.513 65.4096 39.4886 65.2443 39.4912 65.0784V65.0422ZM42.4804 66.0748V63.1944C42.4796 63.1705 42.4841 63.1468 42.4935 63.1249C42.5029 63.103 42.5169 63.0834 42.5347 63.0676L42.5891 63.0313H42.8246L44.455 64.9878V63.2668C44.455 63.2306 44.455 63.2125 44.4731 63.1944C44.4731 63.1803 44.4764 63.1664 44.4827 63.1539C44.489 63.1413 44.4981 63.1303 44.5094 63.1219L44.5637 63.0857H44.9079C44.9553 63.0881 45.0003 63.1074 45.0347 63.14C45.046 63.1485 45.0551 63.1594 45.0614 63.172C45.0677 63.1846 45.0709 63.1984 45.0709 63.2125C45.0891 63.2306 45.0891 63.2487 45.0891 63.285V66.1473C45.0891 66.1835 45.0891 66.2016 45.0709 66.2197L45.0347 66.2741L44.9804 66.3284H44.7449L43.1144 64.3176V66.0929C43.1148 66.1182 43.1086 66.1432 43.0963 66.1654L43.0601 66.2197L43.0057 66.256H42.6615C42.6377 66.2567 42.614 66.2523 42.5921 66.2429C42.5702 66.2335 42.5506 66.2194 42.5347 66.2016L42.4985 66.1473C42.4862 66.1251 42.48 66.1001 42.4804 66.0748ZM45.9224 65.8212C45.7692 65.6745 45.6515 65.4948 45.5782 65.2958C45.491 65.096 45.4477 64.8798 45.4514 64.6618C45.4476 64.4467 45.4874 64.2332 45.5684 64.0339C45.6493 63.8347 45.7697 63.6538 45.9224 63.5023C46.0653 63.3486 46.2379 63.2254 46.4296 63.14C46.6232 63.0532 46.8335 63.0099 47.0456 63.0132C47.2381 63.0123 47.4289 63.0492 47.6072 63.1219C47.7935 63.193 47.9654 63.2974 48.1144 63.4299H48.1325C48.1503 63.4458 48.1644 63.4653 48.1738 63.4873C48.1832 63.5092 48.1877 63.5329 48.1869 63.5567C48.1856 63.6097 48.1665 63.6608 48.1325 63.7016L47.9514 63.8828C47.9356 63.9064 47.914 63.9256 47.8886 63.9383C47.8631 63.951 47.8348 63.9568 47.8065 63.9552C47.7591 63.9528 47.7141 63.9335 47.6796 63.9009C47.5935 63.8119 47.4881 63.7438 47.3717 63.7016C47.2774 63.6502 47.171 63.6252 47.0637 63.6292C46.9399 63.6341 46.8176 63.6585 46.7014 63.7016C46.5935 63.7576 46.4955 63.8311 46.4115 63.919C46.3268 64.019 46.2538 64.1284 46.1941 64.2451C46.1583 64.3687 46.14 64.4968 46.1398 64.6255C46.1373 64.7544 46.1556 64.8829 46.1941 65.006C46.2451 65.1275 46.3189 65.2382 46.4115 65.3321C46.4857 65.4304 46.5862 65.5058 46.7014 65.5494C46.815 65.601 46.939 65.6258 47.0637 65.6219H47.2449L47.4079 65.5857L47.5709 65.5313V65.2234H47.2086L47.1362 65.1871C47.118 65.169 47.0999 65.1509 47.0999 65.1328C47.0877 65.1106 47.0814 65.0856 47.0818 65.0603V64.8067C47.0818 64.6799 47.1543 64.6255 47.2811 64.6255H48.0963L48.1507 64.6799L48.1869 64.7342C48.2013 64.7555 48.2077 64.7812 48.205 64.8067V65.8393C48.2078 65.8706 48.2015 65.9021 48.1869 65.9299L48.1325 66.0023L47.9876 66.0748L47.8427 66.1473L47.6072 66.2197L47.3354 66.2741H47.0456C46.8354 66.275 46.6268 66.2382 46.4296 66.1654C46.2388 66.0784 46.0666 65.9553 45.9224 65.8031V65.8212ZM49.5456 66.0748V63.2487C49.5445 63.2222 49.5488 63.1957 49.5581 63.1708C49.5674 63.1459 49.5817 63.1231 49.5999 63.1038L49.6543 63.0676H50.6688C50.8753 63.0619 51.0802 63.1054 51.2666 63.1944C51.4548 63.2685 51.6225 63.3865 51.7557 63.5386C51.9089 63.6853 52.0266 63.8649 52.0999 64.0639C52.1804 64.2532 52.2234 64.4562 52.2267 64.6618C52.2198 65.0881 52.0515 65.4959 51.7557 65.8031C51.6225 65.9552 51.4548 66.0732 51.2666 66.1473C51.0802 66.2363 50.8753 66.2798 50.6688 66.2741H49.6543L49.5818 66.2379C49.5617 66.1983 49.5494 66.1553 49.5456 66.111V66.0748ZM50.1796 65.64H50.6144C50.7383 65.6351 50.8605 65.6106 50.9767 65.5676C51.0941 65.5185 51.1992 65.4443 51.2847 65.3502C51.3715 65.2622 51.4393 65.1574 51.484 65.0422C51.5223 64.9129 51.5406 64.7785 51.5383 64.6436C51.5409 64.5147 51.5225 64.3863 51.484 64.2632C51.4326 64.1516 51.3655 64.0479 51.2847 63.9552C51.1942 63.8669 51.0902 63.7936 50.9767 63.7379C50.8596 63.7006 50.7373 63.6823 50.6144 63.6835H50.1796V65.64ZM52.5891 66.0748V63.2487C52.588 63.2222 52.5923 63.1957 52.6016 63.1708C52.6109 63.1459 52.6251 63.1231 52.6434 63.1038L52.7159 63.0676H54.4188C54.4453 63.0665 54.4718 63.0708 54.4967 63.0801C54.5216 63.0894 54.5444 63.1036 54.5637 63.1219C54.5818 63.14 54.5818 63.1581 54.5999 63.1944C54.5999 63.2125 54.618 63.2306 54.618 63.2668V63.5748L54.5818 63.6292L54.5094 63.6835H53.2594V64.3357H54.3101L54.3825 64.39L54.4188 64.4444C54.4188 64.4625 54.4369 64.4806 54.4369 64.5168V64.8248L54.4007 64.8792L54.3282 64.9335H53.2775V65.64H54.455C54.4816 65.639 54.5081 65.6432 54.533 65.6526C54.5578 65.6619 54.5806 65.6761 54.5999 65.6944C54.618 65.7125 54.618 65.7487 54.6362 65.7668C54.6543 65.785 54.6543 65.8031 54.6543 65.8393V66.0748C54.6543 66.0929 54.6362 66.111 54.6362 66.1473L54.5999 66.2016C54.5915 66.2129 54.5806 66.222 54.568 66.2283C54.5554 66.2346 54.5415 66.2379 54.5275 66.2379H52.7159L52.6434 66.2016C52.6256 66.1857 52.6116 66.1662 52.6022 66.1442C52.5928 66.1223 52.5883 66.0986 52.5891 66.0748ZM55.0166 66.0748V63.1944C55.0139 63.1688 55.0203 63.1432 55.0347 63.1219L55.0709 63.0676L55.1253 63.0313H55.3608L56.9912 64.9878V63.1944C57.0094 63.1581 57.0094 63.14 57.0275 63.1219L57.0999 63.0857H57.426C57.4526 63.0846 57.4791 63.0889 57.504 63.0982C57.5289 63.1075 57.5516 63.1218 57.5709 63.14L57.6072 63.2125C57.6072 63.2306 57.6253 63.2487 57.6253 63.285V66.1835L57.5891 66.2379L57.5166 66.2922H57.2992L55.6688 64.2994V66.0748C55.6696 66.0846 55.6684 66.0945 55.6653 66.1038C55.6622 66.1132 55.6572 66.1218 55.6507 66.1292C55.6507 66.1432 55.6474 66.1571 55.6411 66.1697C55.6348 66.1822 55.6257 66.1932 55.6144 66.2016L55.5601 66.2379H55.2159C55.192 66.2386 55.1683 66.2341 55.1464 66.2248C55.1245 66.2154 55.1049 66.2013 55.0891 66.1835L55.0528 66.1292C55.0463 66.1218 55.0413 66.1132 55.0382 66.1038C55.0351 66.0945 55.0339 66.0846 55.0347 66.0748H55.0166ZM58.6036 66.0748V63.6654H57.9695L57.897 63.611L57.8608 63.5567V63.2487C57.8608 63.2125 57.8789 63.1944 57.8789 63.1763L57.9151 63.1038L57.9876 63.0676H59.8173C59.8439 63.0665 59.8704 63.0708 59.8953 63.0801C59.9202 63.0894 59.9429 63.1036 59.9623 63.1219C59.9804 63.14 59.9804 63.1763 59.9985 63.1944C60.0166 63.2125 60.0166 63.2306 60.0166 63.2668V63.5748L59.9804 63.6292L59.9079 63.6835H59.2376V66.0929C59.238 66.1182 59.2318 66.1432 59.2195 66.1654V66.2197L59.147 66.256H58.8028C58.7763 66.257 58.7498 66.2528 58.7249 66.2434C58.7 66.2341 58.6772 66.2199 58.6579 66.2016L58.6217 66.1473V66.0748H58.6036ZM60.2159 66.0748V63.2487C60.2151 63.2249 60.2196 63.2012 60.229 63.1793C60.2384 63.1574 60.2524 63.1378 60.2702 63.1219L60.3246 63.0676H60.6688C60.6971 63.066 60.7255 63.0718 60.7509 63.0845C60.7763 63.0972 60.798 63.1164 60.8137 63.14L60.8499 63.1944C60.8499 63.2125 60.868 63.2306 60.868 63.2668V66.0929C60.8656 66.1403 60.8463 66.1853 60.8137 66.2197C60.7944 66.238 60.7716 66.2522 60.7467 66.2616C60.7218 66.2709 60.6953 66.2751 60.6688 66.2741H60.397C60.3732 66.2748 60.3495 66.2704 60.3276 66.261C60.3057 66.2516 60.2861 66.2375 60.2702 66.2197C60.259 66.2113 60.2498 66.2004 60.2436 66.1878C60.2373 66.1752 60.234 66.1613 60.234 66.1473C60.2247 66.138 60.2181 66.1263 60.2149 66.1136C60.2117 66.1008 60.212 66.0874 60.2159 66.0748ZM61.3209 65.9299C61.2987 65.9171 61.2803 65.8986 61.2676 65.8763C61.2548 65.854 61.2483 65.8287 61.2485 65.8031C61.2376 65.7541 61.244 65.7029 61.2666 65.6581L61.4115 65.4407C61.4236 65.4233 61.4399 65.4092 61.4589 65.3997C61.4779 65.3902 61.499 65.3856 61.5202 65.3864C61.5691 65.3739 61.6209 65.3804 61.6651 65.4045H61.6833C61.777 65.4889 61.8803 65.5619 61.9912 65.6219L62.263 65.6763C62.361 65.6763 62.4563 65.6445 62.5347 65.5857C62.5637 65.5613 62.5869 65.5308 62.6026 65.4963C62.6183 65.4618 62.626 65.4243 62.6253 65.3864C62.6215 65.3422 62.6092 65.2991 62.5891 65.2596L62.5166 65.1509C62.3798 65.0432 62.227 64.9576 62.0637 64.8973C61.9474 64.8518 61.8377 64.7908 61.7376 64.7161C61.6424 64.6645 61.5567 64.5971 61.484 64.5168C61.4008 64.4365 61.3386 64.337 61.3028 64.227C61.2656 64.1223 61.2472 64.0119 61.2485 63.9009C61.2445 63.7936 61.2696 63.6872 61.3209 63.5929L61.3753 63.448L61.484 63.3031C61.5234 63.2516 61.5727 63.2085 61.6289 63.1763L61.8101 63.0676L62.0275 63.0132H62.263C62.4111 63.0106 62.5585 63.0352 62.6978 63.0857C62.8348 63.1303 62.9634 63.1977 63.0782 63.285C63.1325 63.3212 63.1688 63.3574 63.1688 63.4118C63.1763 63.4399 63.1769 63.4693 63.1706 63.4977C63.1643 63.5261 63.1512 63.5525 63.1325 63.5748L63.042 63.7379C62.9514 63.8647 62.8608 63.8828 62.7521 63.8103L62.4441 63.6654L62.2449 63.611L62.0818 63.6473C62.0399 63.6507 62.001 63.6702 61.9731 63.7016L61.9007 63.7922C61.9007 63.8284 61.8825 63.8647 61.8825 63.9009C61.8862 63.9394 61.8986 63.9766 61.9188 64.0096L61.9912 64.1183C62.096 64.2145 62.2193 64.2885 62.3536 64.3357L62.734 64.5168C62.837 64.5804 62.934 64.6532 63.0238 64.7342C63.112 64.814 63.1802 64.9132 63.2231 65.0241C63.271 65.1389 63.2956 65.262 63.2956 65.3864C63.2956 65.5108 63.271 65.6339 63.2231 65.7487C63.1671 65.8566 63.0936 65.9546 63.0057 66.0386C62.9019 66.1222 62.7858 66.1894 62.6615 66.2379C62.5322 66.2762 62.3978 66.2945 62.263 66.2922C62.103 66.2949 61.9437 66.2704 61.792 66.2197L61.6108 66.1473L61.4659 66.0567L61.3753 66.0023L61.3209 65.9299ZM64.0383 66.0748V63.6654H63.4043L63.3499 63.611C63.3322 63.5952 63.3181 63.5756 63.3087 63.5537C63.2993 63.5318 63.2948 63.5081 63.2956 63.4842V63.2487C63.2945 63.2222 63.2988 63.1957 63.3081 63.1708C63.3174 63.1459 63.3317 63.1231 63.3499 63.1038L63.4043 63.0676H65.2521C65.2759 63.0668 65.2996 63.0713 65.3215 63.0807C65.3435 63.0901 65.363 63.1041 65.3789 63.1219C65.3902 63.1303 65.3993 63.1413 65.4056 63.1539C65.4119 63.1664 65.4151 63.1803 65.4151 63.1944C65.4333 63.2125 65.4333 63.2306 65.4333 63.2668V63.5023C65.4337 63.5277 65.4274 63.5527 65.4151 63.5748L65.3789 63.6292L65.3246 63.6835H64.6905V66.0929C64.6913 66.1027 64.6902 66.1126 64.6871 66.122C64.6839 66.1313 64.679 66.1399 64.6724 66.1473L64.6362 66.2016L64.5818 66.2379H64.2376C64.2111 66.2389 64.1845 66.2347 64.1597 66.2253C64.1348 66.216 64.112 66.2018 64.0927 66.1835C64.0814 66.1751 64.0723 66.1641 64.066 66.1515C64.0597 66.139 64.0565 66.1251 64.0565 66.111C64.0471 66.1009 64.0408 66.0884 64.0383 66.0748Z" fill="white"/>
<path d="M36.0504 55.0605V51.4192C36.0496 51.4093 36.0507 51.3995 36.0538 51.3901C36.057 51.3808 36.0619 51.3722 36.0685 51.3648C36.0756 51.3522 36.0863 51.3421 36.0992 51.3356C36.1121 51.3292 36.1267 51.3267 36.141 51.3286H36.5576C36.5939 51.3648 36.5939 51.3829 36.5939 51.401V52.959H38.5323V51.4192C38.5323 51.401 38.5323 51.3829 38.5685 51.3467H38.9852C38.9995 51.3448 39.014 51.3473 39.0269 51.3537C39.0398 51.3602 39.0505 51.3704 39.0576 51.3829C39.0642 51.3903 39.0692 51.3989 39.0723 51.4082C39.0754 51.4176 39.0766 51.4275 39.0757 51.4373V55.0786C39.0757 55.1148 39.0757 55.1329 39.0576 55.151L38.9852 55.1873H38.641C38.6269 55.1873 38.613 55.184 38.6005 55.1777C38.5879 55.1714 38.5769 55.1623 38.5685 55.151C38.5323 55.1329 38.5323 55.1148 38.5323 55.0786V53.5025H36.5939V55.0786C36.5939 55.1148 36.5939 55.1329 36.5576 55.151L36.5033 55.1873H36.141L36.0685 55.151C36.0504 55.1148 36.0504 55.0967 36.0504 55.0605ZM25.7243 58.8467C25.5403 58.6612 25.3957 58.4404 25.2992 58.1975C25.2027 57.9547 25.1562 57.6949 25.1627 57.4337C25.1566 57.1752 25.2032 56.9182 25.2998 56.6783C25.3964 56.4385 25.5408 56.2209 25.7243 56.0387C25.8946 55.8535 26.1019 55.7061 26.3329 55.6062C26.5639 55.5064 26.8133 55.4562 27.0649 55.459C27.5428 55.4572 28.0031 55.6387 28.3511 55.9663C28.3627 55.9765 28.3719 55.989 28.3783 56.0031C28.3846 56.0171 28.3879 56.0324 28.3879 56.0478C28.3879 56.0632 28.3846 56.0785 28.3783 56.0925C28.3719 56.1066 28.3627 56.1191 28.3511 56.1293L28.1156 56.3648C28.0794 56.4192 28.0431 56.4192 27.9888 56.3648C27.7366 56.1334 27.4072 56.0042 27.0649 56.0025C26.8874 56.0022 26.7119 56.0391 26.5497 56.1109C26.3874 56.1826 26.242 56.2877 26.1228 56.4192C25.8713 56.6964 25.7352 57.0593 25.7424 57.4337C25.7361 57.8024 25.8724 58.1593 26.1228 58.43C26.2425 58.5657 26.3905 58.6734 26.5565 58.7454C26.7224 58.8174 26.9022 58.852 27.083 58.8467C27.4184 58.8373 27.7394 58.7089 27.9888 58.4844C28.0057 58.4678 28.0285 58.4585 28.0522 58.4585C28.0759 58.4585 28.0987 58.4678 28.1156 58.4844L28.3511 58.738C28.3624 58.7464 28.3715 58.7574 28.3778 58.77C28.3841 58.7825 28.3873 58.7964 28.3873 58.8105L28.3511 58.8829C28.1857 59.056 27.9856 59.1922 27.764 59.2828C27.5424 59.3733 27.3042 59.4161 27.0649 59.4083C26.8145 59.4146 26.5655 59.3678 26.3345 59.271C26.1034 59.1742 25.8955 59.0296 25.7243 58.8467ZM31.2497 58.8467C30.8897 58.4655 30.6944 57.9578 30.7062 57.4337C30.6953 56.915 30.8907 56.4133 31.2497 56.0387C31.4239 55.8562 31.6333 55.711 31.8653 55.6117C32.0973 55.5125 32.347 55.4613 32.5993 55.4613C32.8516 55.4613 33.1013 55.5125 33.3333 55.6117C33.5653 55.711 33.7747 55.8562 33.9489 56.0387C34.3128 56.4114 34.5146 56.9128 34.5105 57.4337C34.5155 57.96 34.3139 58.4673 33.9489 58.8467C33.7721 59.0247 33.5619 59.166 33.3302 59.2624C33.0986 59.3588 32.8502 59.4084 32.5993 59.4084C32.3484 59.4084 32.1 59.3588 31.8684 59.2624C31.6367 59.166 31.4265 59.0247 31.2497 58.8467ZM31.6301 56.4373C31.3741 56.7094 31.2315 57.069 31.2315 57.4427C31.2315 57.8164 31.3741 58.176 31.6301 58.4481C31.7553 58.5791 31.9057 58.6834 32.0723 58.7546C32.2388 58.8258 32.4181 58.8626 32.5993 58.8626C32.7805 58.8626 32.9598 58.8258 33.1263 58.7546C33.2929 58.6834 33.4433 58.5791 33.5685 58.4481C33.8245 58.176 33.9671 57.8164 33.9671 57.4427C33.9671 57.069 33.8245 56.7094 33.5685 56.4373C33.4462 56.3015 33.2967 56.1929 33.1297 56.1186C32.9628 56.0442 32.7821 56.0058 32.5993 56.0058C32.4165 56.0058 32.2358 56.0442 32.0689 56.1186C31.9019 56.1929 31.7524 56.3015 31.6301 56.4373ZM36.8837 59.2271L37.5359 55.5496C37.554 55.4952 37.5902 55.459 37.6265 55.459H37.7171C37.7359 55.4575 37.7548 55.4619 37.7711 55.4716C37.7873 55.4814 37.8001 55.496 37.8076 55.5134L38.9127 58.3213H38.9308L40.0359 55.5134C40.0434 55.496 40.0562 55.4814 40.0724 55.4716C40.0887 55.4619 40.1076 55.4575 40.1265 55.459H40.2171C40.2533 55.459 40.2895 55.4952 40.3076 55.5496L40.9598 59.2271C40.9779 59.3177 40.9417 59.3539 40.8692 59.3539H40.525C40.5131 59.3566 40.5008 59.3568 40.4888 59.3545C40.4768 59.3523 40.4654 59.3476 40.4552 59.3409C40.4451 59.3341 40.4364 59.3253 40.4297 59.3151C40.423 59.3049 40.4185 59.2935 40.4163 59.2815L40.0178 56.8358H39.9997L39.0576 59.3539C39.0501 59.3713 39.0373 59.3859 39.0211 59.3957C39.0048 59.4054 38.9859 59.4098 38.9671 59.4083H38.8765C38.8576 59.4098 38.8387 59.4054 38.8224 59.3957C38.8062 59.3859 38.7934 59.3713 38.7859 59.3539L37.8257 56.8358H37.8076L37.4272 59.2815L37.391 59.3358H36.9743C36.9018 59.3358 36.8656 59.2996 36.8837 59.209V59.2271ZM43.3511 59.2271L44.0033 55.5496C44.0076 55.524 44.0209 55.5008 44.0409 55.4842C44.0608 55.4676 44.086 55.4587 44.112 55.459H44.1844C44.2388 55.459 44.275 55.4771 44.275 55.5134L45.3801 58.3213H45.4163L46.5033 55.5134C46.5108 55.496 46.5236 55.4814 46.5398 55.4716C46.5561 55.4619 46.575 55.4575 46.5939 55.459H46.6844C46.7388 55.459 46.7569 55.4952 46.775 55.5496L47.4272 59.2271C47.4453 59.3177 47.4091 59.3539 47.3366 59.3539H46.9924C46.9805 59.3566 46.9682 59.3568 46.9562 59.3545C46.9442 59.3523 46.9328 59.3476 46.9226 59.3409C46.9125 59.3341 46.9038 59.3253 46.8971 59.3151C46.8904 59.3049 46.8859 59.2935 46.8837 59.2815L46.5033 56.8358H46.4852L45.525 59.3539C45.5175 59.3713 45.5047 59.3859 45.4885 59.3957C45.4722 59.4054 45.4533 59.4098 45.4344 59.4083H45.3439C45.325 59.4098 45.3061 59.4054 45.2898 59.3957C45.2736 59.3859 45.2608 59.3713 45.2533 59.3539L44.2931 56.8358H44.275L43.8946 59.2815L43.8584 59.3358H43.4598C43.3873 59.3358 43.3511 59.2996 43.3511 59.209V59.2271ZM50.0902 59.2452V55.6221C50.0902 55.5858 50.0902 55.5677 50.1084 55.5496L50.1808 55.5134H52.3004L52.3729 55.5496C52.3841 55.558 52.3932 55.569 52.3995 55.5816C52.4058 55.5941 52.4091 55.608 52.4091 55.6221V55.93L52.3729 56.0025C52.3644 56.0137 52.3535 56.0229 52.3409 56.0292C52.3283 56.0355 52.3144 56.0387 52.3004 56.0387H50.6337V57.1438H52.0468L52.1011 57.18C52.1137 57.1871 52.1238 57.1978 52.1303 57.2107C52.1368 57.2236 52.1392 57.2382 52.1373 57.2525V57.5605C52.1373 57.5967 52.1373 57.6148 52.1192 57.6329L52.0468 57.6692H50.6337V58.8467H52.3004L52.3729 58.8829C52.3841 58.8914 52.3932 58.9023 52.3995 58.9149C52.4058 58.9275 52.4091 58.9413 52.4091 58.9554V59.2634L52.3729 59.3358H50.1084C50.0939 59.3146 50.0875 59.2889 50.0902 59.2634V59.2452ZM55.0721 59.2452V55.5496L55.1084 55.4952L55.1808 55.459H55.3076L57.6084 58.2126V55.6221C57.6084 55.608 57.6116 55.5941 57.6179 55.5816C57.6242 55.569 57.6333 55.558 57.6446 55.5496L57.7171 55.5134H58.0431L58.1156 55.5496C58.1269 55.558 58.136 55.569 58.1423 55.5816C58.1486 55.5941 58.1518 55.608 58.1518 55.6221V59.3177L58.1156 59.3902H57.9163L55.6156 56.5822V59.2452C55.6156 59.2815 55.5975 59.2996 55.5794 59.3358H55.1808C55.1446 59.3358 55.1265 59.3358 55.1084 59.2996C55.0899 59.2866 55.077 59.2672 55.0721 59.2452ZM61.0504 59.2452V55.6221C61.0504 55.608 61.0537 55.5941 61.06 55.5816C61.0662 55.569 61.0754 55.558 61.0866 55.5496L61.141 55.5134H62.3547C62.6025 55.5074 62.8486 55.5544 63.0767 55.6512C63.3047 55.7481 63.5095 55.8925 63.6772 56.075C64.0251 56.4418 64.219 56.9281 64.219 57.4337C64.219 57.9392 64.0251 58.4255 63.6772 58.7923C63.5095 58.9748 63.3047 59.1192 63.0767 59.2161C62.8486 59.313 62.6025 59.36 62.3547 59.3539H61.0866C61.0685 59.2996 61.0504 59.2815 61.0504 59.2452ZM61.5939 58.8286H62.2823C62.4644 58.8364 62.6461 58.8048 62.8149 58.736C62.9837 58.6672 63.1357 58.5629 63.2605 58.43C63.5038 58.1551 63.6381 57.8007 63.6381 57.4337C63.6381 57.0666 63.5038 56.7122 63.2605 56.4373C63.1343 56.3063 62.982 56.2032 62.8135 56.1345C62.6451 56.0659 62.4641 56.0333 62.2823 56.0387H61.5939V58.8286ZM66.8656 59.2452V55.6221C66.8656 55.5858 66.8656 55.5677 66.8837 55.5496L66.9562 55.5134H69.0757L69.1482 55.5496C69.1595 55.558 69.1686 55.569 69.1749 55.5816C69.1812 55.5941 69.1844 55.608 69.1844 55.6221V55.93C69.1795 55.9571 69.1669 55.9823 69.1482 56.0025L69.0757 56.0387H67.4091V57.1438H68.8221L68.8765 57.18C68.889 57.1871 68.8992 57.1978 68.9057 57.2107C68.9121 57.2236 68.9146 57.2382 68.9127 57.2525V57.5605C68.9127 57.5967 68.9127 57.6148 68.8946 57.6329L68.8221 57.6692H67.4091V58.8467H69.0757L69.1482 58.8829C69.1595 58.8914 69.1686 58.9023 69.1749 58.9149C69.1812 58.9275 69.1844 58.9413 69.1844 58.9554V59.2634L69.1482 59.3358H66.8837C66.8693 59.3146 66.8629 59.2889 66.8656 59.2634V59.2452ZM71.8475 59.2452V55.6221C71.8475 55.608 71.8508 55.5941 71.8571 55.5816C71.8633 55.569 71.8725 55.558 71.8837 55.5496L71.9381 55.5134H73.17C73.4148 55.5088 73.6578 55.5565 73.8828 55.6534C74.1077 55.7502 74.3094 55.8939 74.4743 56.075C74.8222 56.4418 75.0161 56.9281 75.0161 57.4337C75.0161 57.9392 74.8222 58.4255 74.4743 58.7923C74.3094 58.9734 74.1077 59.1171 73.8828 59.214C73.6578 59.3108 73.4148 59.3585 73.17 59.3539H71.8837C71.8656 59.2996 71.8475 59.2815 71.8475 59.2452ZM72.391 58.8286H73.0794C73.2615 58.8364 73.4432 58.8048 73.612 58.736C73.7808 58.6672 73.9328 58.5629 74.0576 58.43C74.3009 58.1551 74.4352 57.8007 74.4352 57.4337C74.4352 57.0666 74.3009 56.7122 74.0576 56.4373C73.9328 56.3044 73.7808 56.2001 73.612 56.1313C73.4432 56.0625 73.2615 56.0309 73.0794 56.0387H72.391V58.8286ZM42.0286 55.0605V51.4373C42.0286 51.4232 42.0319 51.4093 42.0382 51.3968C42.0445 51.3842 42.0536 51.3733 42.0649 51.3648C42.083 51.3286 42.1011 51.3286 42.1373 51.3286H42.4815C42.5178 51.3286 42.5359 51.3286 42.554 51.3648C42.5653 51.3733 42.5744 51.3842 42.5807 51.3968C42.587 51.4093 42.5902 51.4232 42.5902 51.4373V55.0605C42.5902 55.0745 42.587 55.0884 42.5807 55.101C42.5744 55.1136 42.5653 55.1245 42.554 55.1329L42.4815 55.1692H42.1373L42.0649 55.1329C42.0536 55.1245 42.0445 55.1136 42.0382 55.101C42.0319 55.0884 42.0286 55.0745 42.0286 55.0605ZM45.833 54.6438C45.4721 54.2691 45.2705 53.7691 45.2705 53.2489C45.2705 52.7286 45.4721 52.2287 45.833 51.8539C46.001 51.6659 46.208 51.5166 46.4395 51.4165C46.671 51.3164 46.9214 51.2679 47.1736 51.2742C47.6515 51.2724 48.1118 51.4539 48.4598 51.7815C48.5142 51.8358 48.5142 51.8902 48.4598 51.9264C48.4206 51.9724 48.3843 52.0208 48.3511 52.0713L48.2243 52.1981C48.1881 52.2344 48.1518 52.2344 48.0975 52.18C47.8481 51.9556 47.5271 51.8271 47.1917 51.8177C47.0143 51.8174 46.8387 51.8543 46.6765 51.9261C46.5142 51.9979 46.3688 52.1029 46.2497 52.2344C46.0051 52.5122 45.8702 52.8697 45.8702 53.2398C45.8702 53.61 46.0051 53.9674 46.2497 54.2452C46.3688 54.3767 46.5142 54.4818 46.6765 54.5535C46.8387 54.6253 47.0143 54.6622 47.1917 54.6619H47.3728L47.5359 54.6257L47.6627 54.5895L47.7895 54.5532L47.8801 54.517H47.9888V53.8648H47.4634L47.391 53.8286C47.3729 53.8105 47.3728 53.7924 47.3728 53.7561V53.4481C47.3728 53.3757 47.391 53.3395 47.4634 53.3395H48.4236C48.4598 53.3395 48.4779 53.3395 48.496 53.3757C48.5142 53.4119 48.5142 53.4119 48.5142 53.4481C48.5142 53.4844 48.5323 53.8105 48.5323 54.1003V54.7706C48.5338 54.7895 48.5294 54.8084 48.5197 54.8246C48.5099 54.8409 48.4953 54.8537 48.4779 54.8612L48.3149 54.9518L47.862 55.1148C47.6391 55.1847 47.4071 55.2214 47.1736 55.2235C46.922 55.2263 46.6726 55.1762 46.4416 55.0763C46.2106 54.9764 46.0033 54.8291 45.833 54.6438ZM51.2859 55.0605V51.4373C51.2859 51.4232 51.2892 51.4093 51.2955 51.3968C51.3017 51.3842 51.3109 51.3733 51.3221 51.3648C51.3402 51.3286 51.3584 51.3286 51.3946 51.3286H51.8113C51.8294 51.3648 51.8475 51.3829 51.8475 51.4192V52.959H53.7859V51.4373C53.7831 51.406 53.7894 51.3745 53.804 51.3467H54.2207C54.2569 51.3467 54.275 51.3467 54.2931 51.3829C54.3044 51.3914 54.3135 51.4023 54.3198 51.4149C54.3261 51.4275 54.3294 51.4413 54.3294 51.4554V55.0786C54.3257 55.1061 54.313 55.1316 54.2934 55.1513C54.2737 55.1709 54.2482 55.1836 54.2207 55.1873H53.8765L53.804 55.151C53.7859 55.1329 53.7859 55.1148 53.7859 55.0786V53.5025H51.8475V55.0786C51.8438 55.1061 51.8311 55.1316 51.8115 55.1513C51.7919 55.1709 51.7663 55.1836 51.7388 55.1873H51.3946C51.3671 55.1836 51.3415 55.1709 51.3219 55.1513C51.3023 55.1316 51.2896 55.1061 51.2859 55.0786V55.0605ZM57.2823 55.0605V51.4373C57.2823 51.401 57.3004 51.3829 57.3185 51.3467H57.7352C57.7495 51.3448 57.764 51.3473 57.7769 51.3537C57.7898 51.3602 57.8005 51.3704 57.8076 51.3829C57.8257 51.401 57.8257 51.4192 57.8257 51.4554V54.68H59.3294C59.3656 54.6981 59.3656 54.7344 59.3656 54.7706V55.0605C59.3656 55.0967 59.3656 55.1148 59.3294 55.1329C59.3209 55.1442 59.31 55.1533 59.2974 55.1596C59.2848 55.1659 59.271 55.1692 59.2569 55.1692H57.391C57.3634 55.1654 57.3379 55.1528 57.3183 55.1332C57.2986 55.1135 57.286 55.088 57.2823 55.0605ZM62.3004 55.0605V53.3213L61.0685 51.4916C61.059 51.4751 61.0539 51.4564 61.0539 51.4373C61.0539 51.4182 61.059 51.3995 61.0685 51.3829C61.076 51.3655 61.0888 51.3509 61.105 51.3412C61.1213 51.3314 61.1402 51.327 61.1591 51.3286H61.5395C61.5584 51.327 61.5773 51.3314 61.5935 51.3412C61.6098 51.3509 61.6226 51.3655 61.6301 51.3829L62.5902 52.7779L63.5504 51.3829C63.5566 51.3683 63.5666 51.3556 63.5793 51.346C63.5921 51.3365 63.6071 51.3305 63.6229 51.3286H64.0214C64.0403 51.327 64.0592 51.3314 64.0754 51.3412C64.0917 51.3509 64.1045 51.3655 64.112 51.3829C64.1215 51.3995 64.1265 51.4182 64.1265 51.4373C64.1265 51.4564 64.1215 51.4751 64.112 51.4916L62.862 53.3213V55.0605C62.8583 55.088 62.8456 55.1135 62.826 55.1332C62.8063 55.1528 62.7808 55.1654 62.7533 55.1692H62.4091C62.3816 55.1654 62.356 55.1528 62.3364 55.1332C62.3167 55.1135 62.3041 55.088 62.3004 55.0605Z" fill="white"/>
</g>
<defs>
<linearGradient id="paint0_linear_30_58662" x1="50" y1="0" x2="50" y2="100" gradientUnits="userSpaceOnUse">
<stop stop-color="#262626"/>
<stop offset="1" stop-color="#111111"/>
</linearGradient>
<clipPath id="clip0_30_58662">
<rect width="72.4638" height="32.7355" fill="white" transform="translate(13.7676 33.575)"/>
</clipPath>
</defs>
</svg>
