<svg width="100" height="100" viewBox="0 0 100 100" fill="none" xmlns="http://www.w3.org/2000/svg">
<rect width="100" height="100" rx="50" fill="url(#paint0_linear_30_58703)"/>
<g clip-path="url(#clip0_30_58703)">
<path fill-rule="evenodd" clip-rule="evenodd" d="M59.3115 71.524C59.2965 71.5692 59.2814 71.5692 59.176 71.6595L58.4082 72.3972C58.0469 72.7284 57.7458 72.9543 57.3995 73.2704L55.2767 74.8813C54.1175 75.6943 51.9194 77.0643 50.0074 77.0643C47.4631 77.0794 44.3918 74.7458 42.6002 73.2855C41.9651 72.7649 41.3571 72.2122 40.7786 71.6294C40.7033 71.5692 40.7033 71.5692 40.6882 71.509H38.445C38.5966 71.6442 38.7329 71.7957 38.8515 71.9606L39.1375 72.2768C39.6193 72.8188 40.1312 73.3457 40.628 73.8425C41.1248 74.3393 41.4711 74.5953 41.9228 75.0018L42.4196 75.4083C42.9315 75.8148 43.4433 76.2363 43.9853 76.6127C45.6564 77.7569 47.7642 79.157 49.9321 79.1871C51.8592 79.2022 53.7562 78.1031 55.2316 77.1246C55.7284 76.8084 56.18 76.4621 56.6468 76.1159L57.3393 75.5739C58.0247 75.0514 58.6783 74.4883 59.2965 73.8877C59.7933 73.3909 60.6514 72.5628 61.088 72.0208C61.2195 71.8433 61.3655 71.6772 61.5246 71.524H59.3115ZM33.1004 62.1747C32.8746 61.7833 32.3777 61.1058 32.0917 60.6843C31.1282 59.239 30.0442 57.5528 29.2162 56.0623L28.3128 54.4364C27.2138 52.419 26.0244 49.8445 25.076 47.6615C23.8264 44.8311 22.5768 41.3082 22.0047 38.252C21.538 35.6776 21.1315 31.8836 22.4112 29.5802C23.4801 27.6381 26.461 26.4035 28.4333 25.5906C29.5925 25.1239 30.9023 24.6722 32.1369 24.2958C37.617 22.6096 43.7896 22.0526 50.0074 22.0526C56.2252 22.0526 62.4882 22.6096 67.8629 24.2958C70.076 24.9884 71.3105 25.5002 73.343 26.3584C74.4872 26.8552 76.3089 27.9241 77.0917 28.8726C77.2728 29.1077 77.4388 29.3541 77.5886 29.6103C78.2209 30.6792 78.4467 32.2901 78.4316 33.7655C78.3413 38.7037 76.7906 43.3708 74.8937 47.7217C73.7043 50.4166 72.2289 53.5481 70.7535 56.0924C69.4437 58.3357 68.4199 59.9165 66.9897 61.9941L66.8692 62.1747L68.7511 62.1446C69.6996 60.8499 71.8977 57.2216 72.6053 55.8666C72.9064 55.2945 73.1924 54.7826 73.4785 54.2105C74.3366 52.5243 75.1797 50.8231 75.9174 49.0918C77.5133 45.4032 79.064 41.7298 79.7415 37.7251C80.1781 35.1055 80.6448 31.2212 79.3049 28.8124C78.6725 27.6983 77.7542 26.9907 76.6401 26.3283C75.0292 25.3647 73.1172 24.5819 71.2955 23.9345C67.8177 22.7 64.7013 21.9773 60.8923 21.4353C57.0834 20.8933 53.6508 20.7729 49.8418 20.7729C46.1616 20.7457 42.4841 20.9771 38.8364 21.4654C36.0258 21.8221 33.2539 22.4369 30.5561 23.3022C28.2225 24.07 25.4825 25.0185 23.4199 26.268C22.6341 26.7306 21.9149 27.2979 21.2821 27.9542C20.1981 29.1135 19.8066 30.9954 19.8066 32.7418C19.8217 39.336 22.1854 45.0419 24.805 50.7478C26.1208 53.6077 27.6038 56.3877 29.2463 59.0734C29.5624 59.6003 29.8936 60.1122 30.2248 60.6241C30.3754 60.8649 31.1884 62.0091 31.2335 62.1747H33.1004Z" fill="white"/>
<path d="M30.1954 31.4771C30.1954 31.2061 30.3459 31.1459 30.9933 31.1459C32.3934 31.1309 33.1612 32.6364 33.1612 35.3614C33.1612 39.065 32.1525 39.7725 31.0084 39.7725C30.3309 39.7725 30.1954 39.5919 30.1954 39.2456V31.4771ZM27.4102 30.634V31.0556C28.1479 31.1007 28.2683 31.176 28.2683 31.8836V39.0348C28.2683 39.7274 28.193 39.8177 27.4102 39.8478V40.2844H30.6771C32.3483 40.2844 35.284 40.0737 35.284 35.271C35.284 33.6752 34.998 32.546 34.3356 31.7481C33.6731 30.9502 32.7397 30.634 31.2492 30.634H27.4102Z" fill="white"/>
<path d="M40.1919 36.7313C40.6135 36.7313 40.8092 36.641 40.8092 36.1743C40.8092 35.0753 40.5081 33.3289 38.295 33.3289C36.0819 33.3289 35.5098 34.9548 35.5098 36.8819C35.5098 38.809 36.112 40.4801 38.2649 40.465C39.6198 40.465 40.3425 39.637 40.749 38.3573L40.4328 38.1465C40.0414 39.1101 39.5295 39.4262 38.852 39.4262C37.753 39.4262 37.3766 38.2971 37.3766 36.7313H40.1919ZM37.3766 36.1893C37.3766 35.0452 37.5723 33.8407 38.2498 33.8407C38.9273 33.8407 39.0176 34.8946 39.0176 35.7678C39.0176 36.1291 38.9273 36.1893 38.6714 36.1893H37.3766Z" fill="white"/>
<path d="M46.695 35.4667C46.695 34.1719 46.1831 33.3289 44.9938 33.3289C44.3765 33.3289 43.8345 33.7353 43.0818 34.2623L42.9463 33.3439L40.6729 33.7504V34.1569L41.0493 34.2322C41.1999 34.2623 41.3053 34.3827 41.3053 34.9398V39.2305C41.3053 39.7725 41.23 39.8177 40.5977 39.8628V40.2844H43.6539V39.8628C43.3076 39.8177 43.0818 39.8478 43.0818 39.2907V35.7527C43.0705 35.4728 43.1061 35.1929 43.1872 34.9247C43.3226 34.5784 43.5936 34.2773 44.0604 34.2773C44.5271 34.2773 44.9185 34.7139 44.9185 35.5119V39.3058C44.9185 39.8779 44.6776 39.8177 44.3464 39.8628V40.2844H47.3876V39.8628C46.7703 39.8177 46.695 39.8026 46.695 39.2456V35.4667Z" fill="white"/>
<path d="M50.3237 34.0967V33.4945H49.2096V31.7632H48.5321L47.4933 33.4945H46.8008V34.0967H47.4331V38.6434C47.4331 39.9231 48.1256 40.4651 48.773 40.4651C49.4204 40.4651 49.8118 40.2694 50.4893 39.6973L50.399 39.351C50.2349 39.433 50.0553 39.4792 49.872 39.4865C49.4656 39.4865 49.2096 39.1101 49.2096 38.2369V34.0967H50.3237Z" fill="white"/>
<path d="M52.145 30.4082C51.5428 30.4082 51.2116 30.9351 51.2116 31.5373C51.2116 32.1396 51.5428 32.6966 52.145 32.6966C52.7472 32.6966 53.0935 32.1546 53.0935 31.5373C53.0935 30.9201 52.7472 30.4082 52.145 30.4082ZM51.3019 39.2004C51.3019 39.7575 51.2116 39.8328 50.6094 39.8629V40.2844H53.771V39.8629C53.1537 39.8177 53.0784 39.7575 53.0784 39.2004V33.3891L53.0032 33.3289L50.6696 33.7354V34.157L51.046 34.2322C51.2116 34.2623 51.3019 34.3828 51.3019 34.9398V39.2004Z" fill="white"/>
<path d="M57.6853 35.6624V33.8106C57.2186 33.4493 56.5862 33.3289 55.9991 33.3289C54.6592 33.3289 53.8161 34.1569 53.8161 35.557C53.8161 36.5808 54.2978 37.2282 55.3969 37.7701C56.0593 38.1014 56.5411 38.4777 56.5411 39.095C56.5411 39.7123 56.24 39.9532 55.7883 39.9532C55.0807 39.9532 54.4032 38.8541 54.1172 37.725H53.7559L53.8914 39.8177C54.2828 40.2844 55.1409 40.465 55.7582 40.465C57.0831 40.465 58.0617 39.6972 58.0617 38.1465C58.0617 36.9873 57.5046 36.4302 56.4809 35.9334C55.7733 35.5871 55.2915 35.286 55.2915 34.6989C55.2915 34.1117 55.5173 33.8407 55.9991 33.8407C56.4809 33.8407 57.1433 34.6236 57.3541 35.6624H57.6853Z" fill="white"/>
<path d="M61.5249 34.0967V33.4945H60.4108V31.7632H59.7333L58.6945 33.4945H58.002V34.0967H58.6343V38.6434C58.6343 39.9231 59.3268 40.4651 59.9742 40.4651C60.6216 40.4651 61.013 40.2694 61.6905 39.6973L61.6002 39.351C61.4361 39.433 61.2565 39.4792 61.0732 39.4865C60.6667 39.4865 60.4108 39.1101 60.4108 38.2369V34.0967H61.5249Z" fill="white"/>
<path d="M64.2204 35.9485C64.2204 35.271 64.2957 34.9247 64.5818 34.9247C64.8678 34.9247 64.913 35.0753 65.1539 35.3011C65.3947 35.5269 65.4249 35.5721 65.6657 35.5721C66.2077 35.5721 66.5088 34.8946 66.5088 34.3376C66.5088 33.7805 66.1776 33.3289 65.6808 33.3289C65.184 33.3289 64.8377 33.7504 64.1602 34.6537L64.0398 33.3439L61.8116 33.7504V34.1569L62.1729 34.2322C62.3536 34.2623 62.4289 34.3978 62.4289 34.9398V39.2004C62.4289 39.7725 62.3536 39.8177 61.7363 39.8628V40.2844H65.1539V39.8628C64.2957 39.8026 64.2204 39.7725 64.2204 39.2004V35.9485Z" fill="white"/>
<path d="M70.7526 33.4946V33.9463L71.3247 34.0216C71.4903 34.0366 71.5505 34.142 71.4903 34.4431C71.2042 35.7529 70.8278 37.2584 70.4966 38.4779H70.4665C70.1203 37.3488 69.5632 35.7379 69.2169 34.4883C69.1417 34.2022 69.1718 34.0517 69.3374 34.0216L69.774 33.9463V33.4946H66.5371V33.9463C67.0189 34.0216 67.1243 34.0065 67.32 34.5786C67.9071 36.1895 68.7352 38.5682 69.3825 40.5555C69.4729 40.8416 69.6084 41.3986 69.5331 41.6244C69.3825 42.1062 69.247 42.2568 69.0062 42.2568C68.8433 42.2242 68.6954 42.1397 68.5846 42.0159C68.3437 41.8051 68.2685 41.7298 68.0577 41.7298C67.8469 41.7298 67.3049 42.3471 67.3049 42.8891C67.3049 43.1261 67.398 43.3536 67.5642 43.5226C67.7303 43.6915 67.9562 43.7884 68.1932 43.7924C69.0212 43.7924 69.503 43.2203 70.1203 41.2481C70.7375 39.2758 71.4752 36.7014 72.0624 34.8948C72.3183 34.1119 72.3334 34.0065 72.9807 33.9463V33.4946H70.7526Z" fill="white"/>
<path d="M29.1109 42.3018L29.5927 43.6116H28.5689L29.1109 42.3018ZM31.0831 44.9063H30.9175C30.7971 44.9063 30.7369 44.8762 30.6767 44.6955L29.6378 41.8501C29.6227 41.8166 29.6126 41.7811 29.6077 41.7447C29.6077 41.6243 29.7282 41.6092 29.7282 41.549C29.7282 41.4888 29.6981 41.4888 29.6529 41.4888H29.5776L29.2163 41.564L27.8463 44.7859C27.8011 44.8762 27.771 44.9063 27.6807 44.9063H27.5V45.102H28.6291V44.9063H28.3431C28.1925 44.9063 28.1323 44.8912 28.1323 44.7859C28.146 44.6813 28.1765 44.5796 28.2227 44.4848L28.4786 43.8223H29.683L30.0142 44.7859C30.0177 44.8112 30.0228 44.8364 30.0293 44.8611C30.0293 44.9063 29.9992 44.9063 29.9239 44.9063H29.683V45.102H31.0831V44.9063ZM30.9928 41.6092V41.7899H31.1283C31.309 41.7899 31.3541 41.8802 31.4445 42.091L32.6639 45.0267C32.694 45.102 32.7091 45.1321 32.7392 45.1321C32.7693 45.1321 32.7994 45.102 32.8295 45.0117L33.7479 42.7534L34.6964 45.0418C34.7114 45.102 34.7416 45.1321 34.7566 45.1321C34.7782 45.1324 34.7991 45.125 34.8157 45.1112C34.8323 45.0974 34.8434 45.0781 34.8469 45.0569L36.1266 41.9705C36.1718 41.8501 36.1718 41.7899 36.3224 41.7899H36.4729V41.6092H35.419V41.7899H35.6449C35.7954 41.7899 35.8556 41.82 35.8556 41.9254C35.8436 42.0286 35.8183 42.1298 35.7804 42.2265L35.0276 44.1084L34.9975 44.1535C34.9824 44.1535 34.9824 44.1385 34.9824 44.1084L34.0791 41.9254C34.0584 41.8942 34.0479 41.8574 34.049 41.82C34.049 41.8049 34.0791 41.7899 34.1243 41.7899H34.4405V41.6092H32.9952V41.7899H33.1457C33.2013 41.7805 33.2585 41.7923 33.3058 41.823C33.3532 41.8536 33.3874 41.9009 33.4016 41.9555L33.6275 42.4674L32.9952 44.0482V44.0933C32.9801 44.0933 32.9801 44.0783 32.965 44.0482L32.0467 41.9103C32.0358 41.8867 32.0307 41.861 32.0316 41.835C32.0316 41.82 32.0617 41.7899 32.122 41.7899H32.3929V41.6092H30.9928ZM37.7978 42.3018L38.2795 43.6116H37.2558L37.7978 42.3018ZM39.77 44.9063H39.6044C39.484 44.9063 39.4237 44.8762 39.3635 44.6955L38.3247 41.8501C38.3096 41.8166 38.2994 41.7811 38.2946 41.7447C38.2946 41.6243 38.415 41.6092 38.415 41.549C38.415 41.4888 38.3849 41.4888 38.3398 41.4888H38.2645L37.9032 41.564L36.5331 44.7859C36.488 44.8762 36.4579 44.9063 36.3675 44.9063H36.1869V45.102H37.316V44.9063H37.03C36.8794 44.9063 36.8192 44.8912 36.8192 44.7859C36.8329 44.6813 36.8634 44.5796 36.9095 44.4848L37.1654 43.8223H38.3699L38.7011 44.7859C38.7046 44.8112 38.7096 44.8364 38.7161 44.8611C38.7161 44.9063 38.686 44.9063 38.6107 44.9063H38.3699V45.102H39.77V44.9063ZM40.2819 41.6092V41.7899H40.4475C40.7034 41.7899 40.7185 41.9404 40.7185 42.4975V44.7256C40.7185 44.8762 40.7185 44.9063 40.598 44.9063H40.3873V45.102H41.8175V44.9063H41.5917C41.3357 44.9063 41.3207 44.7708 41.3207 44.1987V43.5212H41.7272C41.9908 44.0045 42.2824 44.472 42.6004 44.9214C42.7208 45.087 42.7961 45.102 42.9165 45.102H43.6091V44.9063H43.5037C43.2929 44.9063 43.2176 44.7708 42.9768 44.4396C42.7359 44.1084 42.4498 43.7019 42.2692 43.4158C42.766 43.3104 43.052 42.9943 43.052 42.5878C43.052 42.1813 42.6004 41.6092 41.7422 41.6092H40.2819ZM41.3207 43.3255V41.8953C41.3207 41.82 41.3659 41.8049 41.4712 41.8049C42.0584 41.8049 42.4348 42.1512 42.4348 42.648C42.4348 43.1448 42.1186 43.3406 41.5766 43.3406L41.3207 43.3255ZM45.1899 41.8049H45.3705C46.2437 41.8049 46.8761 42.4674 46.8761 43.461C46.8761 44.4546 46.3792 44.8912 45.4759 44.8912H45.3404C45.0694 44.8912 45.0694 44.7859 45.0694 44.2589V42.0157C45.0694 41.8501 45.0694 41.8049 45.1899 41.8049ZM44.1059 45.102H45.4759C46.1233 45.102 46.5599 45.0117 46.9814 44.6353C47.1602 44.4582 47.3016 44.247 47.3972 44.0143C47.4929 43.7815 47.5409 43.532 47.5385 43.2803C47.5385 42.2415 46.8158 41.6092 45.506 41.6092H44.0005V41.8049H44.1661C44.4221 41.8049 44.4371 41.9404 44.4371 42.5125V44.7407C44.4371 44.8912 44.4371 44.9214 44.3167 44.9214H44.1059V45.1171V45.102ZM50.414 41.6092C50.2003 41.5387 49.9766 41.5031 49.7516 41.5038C48.9386 41.5038 48.3966 41.9705 48.3966 42.6029C48.4014 42.7247 48.4321 42.8441 48.4866 42.9531C48.5411 43.0621 48.6182 43.1583 48.7128 43.2352C48.8935 43.3857 49.1795 43.4911 49.5709 43.6567C49.9624 43.8223 50.143 44.0331 50.143 44.3493C50.143 44.6654 49.8118 44.9816 49.3301 44.9816C48.8483 44.9816 48.6676 44.8611 48.502 44.5901C48.3364 44.3191 48.3966 44.4245 48.3515 44.4245C48.3063 44.4245 48.2762 44.4546 48.2762 44.5149C48.2762 44.5751 48.2913 44.5299 48.2913 44.545L48.3515 45.0267C48.6408 45.1335 48.9464 45.1895 49.2548 45.1924C50.128 45.1924 50.685 44.6654 50.685 44.0632C50.685 43.461 50.3388 43.2653 49.6462 42.9792C48.9537 42.6932 48.9085 42.5878 48.9085 42.3018C48.9085 42.0157 49.2096 41.7146 49.6161 41.7146C50.0226 41.7146 50.1129 41.8049 50.2334 42.0006C50.3538 42.1964 50.3087 42.1361 50.3839 42.1361C50.4592 42.1361 50.4291 42.106 50.4291 42.0458V41.6092H50.414ZM53.5606 44.6052C54.5091 43.8223 55.051 43.2954 55.051 42.5727C55.051 41.8501 54.6446 41.5038 53.9821 41.5038C53.5939 41.5022 53.2206 41.6536 52.9433 41.9254L53.0336 42.0458C53.2304 41.9151 53.4599 41.842 53.6961 41.835C54.1628 41.835 54.4639 42.1512 54.4639 42.6781C54.4639 43.2051 54.0875 43.7772 53.5004 44.4245C53.1541 44.7859 52.9283 44.9364 52.9283 45.0418C52.9283 45.1472 52.9734 45.102 53.0487 45.102H55.2016L55.4274 44.5299L55.4575 44.4546C55.4579 44.437 55.4521 44.4199 55.4411 44.4061C55.4301 44.3923 55.4146 44.3829 55.3973 44.3794C55.3371 44.3794 55.2769 44.5299 55.0209 44.56C54.5355 44.6041 54.0478 44.6192 53.5606 44.6052ZM56.3608 43.5212C56.3608 44.5901 56.8125 45.1924 57.505 45.1924C58.1976 45.1924 58.86 44.4396 58.86 43.175C58.86 41.9103 58.3632 41.5038 57.7008 41.5038C57.5179 41.5095 57.3391 41.559 57.1793 41.648C57.0195 41.7371 56.8834 41.8632 56.7824 42.0157C56.4892 42.4617 56.3419 42.9878 56.3608 43.5212ZM57.5201 41.7297C57.9416 41.7297 58.318 42.4372 58.318 43.6567C58.318 44.4998 58.032 44.9665 57.6857 44.9665C57.3394 44.9665 56.9028 44.274 56.9028 43.0395C56.9028 42.1964 57.1738 41.7297 57.5201 41.7297ZM60.2903 44.6052C61.2387 43.8223 61.7807 43.2954 61.7807 42.5727C61.7807 41.8501 61.3742 41.5038 60.7118 41.5038C60.5194 41.5022 60.3286 41.5386 60.1503 41.6109C59.9721 41.6833 59.8098 41.7901 59.673 41.9254L59.7633 42.0458C59.9594 41.9136 60.1893 41.8404 60.4258 41.835C60.8925 41.835 61.1936 42.1512 61.1936 42.6781C61.1936 43.2051 60.8172 43.7772 60.23 44.4245C59.8838 44.7859 59.6579 44.9364 59.6579 45.0418C59.6579 45.1472 59.688 45.102 59.7784 45.102H61.9313L62.1571 44.5299L62.1872 44.4546C62.1872 44.4347 62.1793 44.4155 62.1652 44.4014C62.1511 44.3873 62.1319 44.3794 62.1119 44.3794C62.0517 44.3794 62.0066 44.5299 61.7506 44.56C61.2652 44.6041 60.7775 44.6192 60.2903 44.6052ZM63.0905 43.5212C63.0905 44.5901 63.5422 45.1924 64.2347 45.1924C64.9273 45.1924 65.5897 44.4396 65.5897 43.175C65.5897 41.9103 65.0778 41.5038 64.4304 41.5038C64.2476 41.5095 64.0688 41.559 63.909 41.648C63.7492 41.7371 63.6131 41.8632 63.5121 42.0157C63.226 42.4071 63.0905 42.904 63.0905 43.5212ZM64.2498 41.7297C64.6713 41.7297 65.0326 42.4372 65.0326 43.6567C65.0326 44.4998 64.7617 44.9665 64.4154 44.9665C64.0691 44.9665 63.6325 44.274 63.6325 43.0395C63.6325 42.1964 63.9035 41.7297 64.2498 41.7297Z" fill="white"/>
<path d="M35.4482 28.8877L35.2676 29.3845V29.4598C35.2676 29.505 35.2826 29.5351 35.3278 29.5351C35.373 29.5351 35.4482 29.3845 35.5988 29.2942C35.7493 29.2039 36.1709 29.0985 36.6677 29.0985V32.2751C36.6677 32.4407 36.6677 32.4708 36.5473 32.4708H36.0956V32.6666H37.9775V32.4708H37.6463C37.3603 32.4708 37.3603 32.3203 37.3603 31.703V29.0985C37.8571 29.0985 38.2033 29.1587 38.4292 29.2942C38.655 29.4297 38.6098 29.5351 38.7002 29.5351C38.7201 29.5351 38.7393 29.5271 38.7534 29.513C38.7675 29.4989 38.7754 29.4798 38.7754 29.4598C38.7695 29.4333 38.7593 29.4079 38.7453 29.3845L38.5948 28.8877H35.4482ZM38.8808 28.8877V29.0684H39.0615C39.3325 29.0684 39.3475 29.234 39.3475 29.8512V32.2751C39.3475 32.4407 39.3475 32.4708 39.212 32.4708H39.0013V32.6666H40.552V32.4708H40.3111C40.0401 32.4708 40.025 32.3203 40.025 31.703V30.7244H41.7263V32.2751C41.7263 32.4407 41.7263 32.4708 41.5908 32.4708H41.3649V32.6666H42.9006V32.4708H42.6898C42.4188 32.4708 42.4038 32.3203 42.4038 31.703V29.249C42.4038 29.1135 42.4188 29.0684 42.5392 29.0684H42.7651V28.8877H41.2294V29.0684H41.4402C41.7112 29.0684 41.7263 29.249 41.7263 29.8512V30.4835H40.025V29.2189C40.025 29.1135 40.0401 29.0684 40.1605 29.0684H40.3864V28.8877H38.8808ZM43.2468 28.8877V29.0684H43.4275C43.6985 29.0684 43.7286 29.234 43.7286 29.8512V32.3203C43.7286 32.4407 43.7136 32.4859 43.5931 32.4859H43.3673V32.6666H46.1977L46.3482 32.1547C46.3591 32.1311 46.3642 32.1053 46.3633 32.0794C46.3633 32.0634 46.3569 32.0481 46.3456 32.0368C46.3343 32.0255 46.319 32.0192 46.3031 32.0192C46.1826 32.0192 46.1073 32.23 45.8966 32.3203C45.6148 32.4127 45.3199 32.4584 45.0234 32.4558H44.6921C44.4212 32.4558 44.4061 32.3203 44.4061 31.688V30.6793H45.0685C45.5051 30.6793 45.6406 30.6943 45.6406 30.875V31.0707H45.8213V30.0319H45.6406V30.1975C45.6406 30.4384 45.475 30.4685 44.918 30.4685H44.4061V29.234C44.4061 29.1286 44.4061 29.0985 44.5416 29.0985H44.918C45.4148 29.0985 45.731 29.1587 45.8514 29.249C45.9718 29.3394 45.9718 29.4748 46.0471 29.4748C46.1224 29.4748 46.1073 29.4447 46.1224 29.3845L46.1977 28.8877H43.2468Z" fill="white"/>
<path d="M32.3322 57.4173L30.7363 50.7178H32.1515L33.1602 55.3247L34.3947 50.7178H36.0207L37.195 55.3999L38.2338 50.7178H39.6039L37.9779 57.4173H36.5175L35.1776 52.404L33.8377 57.4173H32.3322ZM40.2813 57.4173V50.7178H41.6514V57.4173H40.2813ZM42.9461 57.4173V50.7178H44.271L47.0562 55.2042V50.7178H48.3208V57.4173H46.9508L44.2107 53.0212V57.4173H42.9461ZM49.7661 57.4173V50.7178H51.106L53.8762 55.2042V50.7178H55.1559V57.4173H53.7859L51.0458 53.0212V57.4173H49.7661ZM56.6012 57.4173V50.7178H61.5995V51.8469H57.9712V53.3374H61.3436V54.4665H57.9712V56.2882H61.735V57.4173H56.6012ZM62.8943 57.4173V50.7178H65.7698C66.4925 50.7178 67.0194 50.778 67.3506 50.8984C67.6793 51.0159 67.9564 51.245 68.1335 51.5458C68.3362 51.8594 68.441 52.2263 68.4346 52.5997C68.4498 53.0587 68.2881 53.506 67.9829 53.8493C67.6969 54.1654 67.2452 54.3762 66.6581 54.4665C66.9279 54.6112 67.1721 54.7994 67.3807 55.0236C67.6691 55.3642 67.9309 55.7266 68.1636 56.1075L68.9766 57.4173H67.3506L66.372 55.957C66.1548 55.614 65.9133 55.2869 65.6494 54.9784C65.5329 54.8585 65.395 54.7615 65.2429 54.6924C65.0166 54.6352 64.7836 54.6099 64.5503 54.6171H64.2643V57.4173H62.8943ZM64.2643 53.5482H65.273C65.9354 53.5482 66.3419 53.5331 66.5075 53.4729C66.6615 53.4224 66.7941 53.3217 66.8839 53.1868C66.9891 53.0432 67.0422 52.8679 67.0345 52.69C67.0413 52.4864 66.9715 52.2876 66.8387 52.133C66.7056 51.9873 66.5233 51.8961 66.3269 51.877C66.2215 51.862 65.8903 51.8469 65.3332 51.8469H64.2643V53.5482Z" fill="white"/>
<path fill-rule="evenodd" clip-rule="evenodd" d="M26.1152 62.1145H73.8854V71.6896H26.1152V62.1145Z" fill="white"/>
<path fill-rule="evenodd" clip-rule="evenodd" d="M26.1292 66.2095C26.1292 66.2095 23.2235 66.9923 21.6879 67.8053L24.0666 71.2078L21.1309 77.802C21.1309 77.802 26.3249 73.8124 36.3818 74.264L26.1141 71.6896L26.1292 66.2095Z" fill="white"/>
<path fill-rule="evenodd" clip-rule="evenodd" d="M26.1152 71.6897L36.3829 74.2641V71.6897H26.1152Z" fill="white"/>
<path d="M32.2121 66.3902C32.362 66.3193 32.4876 66.2058 32.5733 66.0639C32.659 65.9219 32.701 65.7579 32.6939 65.5923C32.6939 65.0051 32.2423 64.6589 31.4594 64.6589H30.1797V68.2872H31.5347C32.3777 68.2872 32.8445 67.8957 32.8445 67.2484C32.8445 66.8268 32.6186 66.5408 32.2121 66.3902ZM31.4744 65.231C31.8207 65.231 32.0164 65.3966 32.0164 65.6676C32.0164 65.9386 31.8057 66.1493 31.4594 66.1493H30.8572V65.231H31.4744ZM31.5347 67.7151H30.8572V66.6913H31.5347C31.9261 66.6913 32.167 66.872 32.167 67.2032C32.167 67.5344 31.9411 67.7151 31.5347 67.7151ZM34.1844 65.9084C33.4316 65.9084 33.0552 66.4203 33.0552 67.0978C33.0552 67.7753 33.5822 68.3624 34.2446 68.3624C34.5821 68.3633 34.9123 68.2637 35.1931 68.0764L34.9974 67.6247C34.7996 67.7534 34.5707 67.8262 34.3349 67.8355C34.1823 67.8443 34.0321 67.7948 33.9147 67.6969C33.7973 67.5991 33.7215 67.4602 33.7026 67.3086H35.2232C35.2684 66.5106 35.0275 65.9084 34.1844 65.9084ZM34.1693 66.4504C34.4704 66.4504 34.5758 66.6612 34.6059 66.9021H33.7026C33.7478 66.6311 33.8983 66.4504 34.1693 66.4504ZM35.6146 67.7301L35.4791 68.1968C35.7591 68.2997 36.0541 68.3557 36.3523 68.3624C36.9395 68.3624 37.3761 68.0914 37.3761 67.5645C37.3761 66.7064 36.1416 67.0225 36.1416 66.6311C36.1416 66.4805 36.277 66.4053 36.533 66.4053C36.7484 66.4154 36.9613 66.456 37.1653 66.5257L37.2857 66.059C37.0276 65.9548 36.7511 65.9036 36.4728 65.9084C35.9759 65.9084 35.4942 66.1493 35.4942 66.6612C35.4942 67.5495 36.7287 67.2182 36.7287 67.6247C36.7287 67.7753 36.5631 67.8656 36.3072 67.8656C36.0711 67.8528 35.8381 67.8072 35.6146 67.7301ZM39.1225 67.685C38.9991 67.7402 38.8662 67.7709 38.731 67.7753C38.5052 67.7753 38.3848 67.6548 38.3848 67.3989V66.4805H39.0322V65.9837H38.3848V65.2761H37.7525V65.9837H37.3911V66.4805H37.7525V67.4591C37.7525 68.0914 38.0686 68.3474 38.5956 68.3474C38.8233 68.3478 39.0487 68.3017 39.258 68.2119L39.1225 67.685ZM43.6993 64.6589H42.9766L42.0583 66.3902L41.1399 64.6589H40.4323L41.727 67.0075V68.2872H42.4045V67.0075L43.6993 64.6589ZM44.3015 68.3474C44.994 68.3474 45.4457 67.8807 45.4457 67.143C45.4457 66.4053 44.994 65.9084 44.3015 65.9084C43.6089 65.9084 43.1573 66.3902 43.1573 67.143C43.1573 67.8957 43.6089 68.3474 44.3015 68.3474ZM44.3015 67.7903C43.9703 67.7903 43.7444 67.5344 43.7444 67.143C43.7444 66.7515 43.9703 66.4655 44.3015 66.4655C44.6327 66.4655 44.8585 66.7365 44.8585 67.143C44.8585 67.5495 44.6327 67.7903 44.3015 67.7903ZM47.2222 65.9837V67.5946C47.1732 67.6553 47.1112 67.7043 47.041 67.7382C46.9707 67.772 46.8937 67.7898 46.8157 67.7903C46.4995 67.7903 46.4092 67.5946 46.4092 67.3387V65.9837H45.7769V67.3989C45.7769 68.0613 46.1533 68.3624 46.62 68.3624C46.7549 68.3616 46.8879 68.3316 47.0101 68.2744C47.1323 68.2172 47.2406 68.1343 47.3276 68.0312V68.2872H47.8545V65.9837H47.2222ZM49.6461 65.9084C49.508 65.9119 49.3722 65.9445 49.2477 66.0042C49.1231 66.0639 49.0126 66.1493 48.9234 66.2547V65.9837H48.3814V68.2872H49.0138V66.7214C49.06 66.6474 49.1243 66.5864 49.2007 66.5442C49.2772 66.5021 49.3631 66.4801 49.4504 66.4805C49.7665 66.4805 49.8569 66.6763 49.8569 66.9322V68.2872H50.4892V66.872C50.4892 66.2095 50.1128 65.9084 49.6461 65.9084ZM53.2744 65.9687L52.4915 66.0289C52.3174 65.9469 52.1269 65.9057 51.9345 65.9084C51.3172 65.9084 50.8957 66.2547 50.8957 66.8117C50.8886 66.9426 50.9121 67.0734 50.9643 67.1936C51.0166 67.3138 51.0962 67.4202 51.1968 67.5043C51.1069 67.5542 51.0308 67.6258 50.9756 67.7126C50.9204 67.7993 50.8877 67.8985 50.8806 68.0011C50.8759 68.0663 50.8842 68.1318 50.9048 68.1938C50.9255 68.2558 50.9582 68.3131 51.001 68.3624C50.9063 68.4206 50.8286 68.5028 50.7757 68.6006C50.7229 68.6984 50.6967 68.8084 50.6999 68.9195C50.6999 69.326 51.0613 69.7475 51.8743 69.7475C52.6872 69.7475 53.1991 69.341 53.1991 68.7539C53.1991 67.6398 51.4828 68.3925 51.4828 67.8807C51.4861 67.8429 51.4988 67.8065 51.5199 67.7749C51.541 67.7433 51.5696 67.7176 51.6033 67.7C51.7117 67.7257 51.8232 67.7358 51.9345 67.7301C52.5216 67.7301 52.9432 67.3838 52.9432 66.8117C52.9442 66.7096 52.9289 66.608 52.898 66.5106H53.2744V65.9687ZM51.9194 67.2634C51.859 67.2679 51.7982 67.2593 51.7414 67.2382C51.6846 67.2171 51.6329 67.184 51.5901 67.1411C51.5472 67.0982 51.5141 67.0466 51.493 66.9898C51.4719 66.9329 51.4633 66.8722 51.4678 66.8117C51.4652 66.7531 51.4754 66.6946 51.4976 66.6402C51.5199 66.5859 51.5536 66.537 51.5965 66.497C51.6394 66.4569 51.6905 66.4266 51.7463 66.4082C51.802 66.3898 51.8611 66.3836 51.9194 66.3902C51.9778 66.3836 52.0368 66.3898 52.0926 66.4082C52.1483 66.4266 52.1994 66.4569 52.2423 66.497C52.2852 66.537 52.319 66.5859 52.3412 66.6402C52.3634 66.6946 52.3736 66.7531 52.3711 66.8117C52.3756 66.8722 52.367 66.9329 52.3459 66.9898C52.3248 67.0466 52.2916 67.0982 52.2488 67.1411C52.2059 67.184 52.1543 67.2171 52.0974 67.2382C52.0406 67.2593 51.9799 67.2679 51.9194 67.2634ZM52.5517 68.8442C52.5517 69.0399 52.3259 69.2206 51.9345 69.2206C51.543 69.2206 51.3172 69.1001 51.3172 68.8292C51.316 68.7779 51.3261 68.727 51.347 68.6801C51.3678 68.6332 51.3988 68.5916 51.4377 68.5582C51.9194 68.6334 52.5517 68.4979 52.5517 68.8442ZM55.6832 64.6589H54.7498V68.2872H55.6832C56.978 68.2872 57.6404 67.6548 57.6404 66.4053C57.6404 65.1557 56.978 64.6589 55.6832 64.6589ZM55.6832 67.7151H55.4273V65.231H55.6832C56.5263 65.231 56.9629 65.6374 56.9629 66.4053C56.9629 67.1731 56.5263 67.7151 55.6832 67.7151ZM59.0857 65.9084C58.3329 65.9084 57.9566 66.4203 57.9566 67.0978C57.9566 67.7753 58.4835 68.3624 59.1459 68.3624C59.4835 68.3633 59.8136 68.2637 60.0944 68.0764L59.8987 67.6247C59.7009 67.7534 59.472 67.8262 59.2363 67.8355C59.0837 67.8443 58.9334 67.7948 58.816 67.6969C58.6986 67.5991 58.6228 67.4602 58.6039 67.3086H60.1245C60.1697 66.5106 59.9288 65.9084 59.0857 65.9084ZM59.0706 66.4504C59.3717 66.4504 59.4771 66.6612 59.5072 66.9021H58.6039C58.6491 66.6311 58.7997 66.4504 59.0706 66.4504ZM61.7806 65.9084C61.64 65.9098 61.5013 65.9414 61.374 66.0011C61.2467 66.0609 61.1337 66.1474 61.0429 66.2547V65.9837H60.5009V68.2872H61.1332V66.7214C61.1818 66.6462 61.2488 66.5846 61.3278 66.5424C61.4069 66.5003 61.4953 66.479 61.5849 66.4805C61.901 66.4805 61.9914 66.6763 61.9914 66.9322V68.2872H62.6237V66.872C62.6237 66.2095 62.2473 65.9084 61.7806 65.9084ZM64.626 67.685C64.5027 67.7402 64.3697 67.7709 64.2346 67.7753C64.1846 67.7804 64.134 67.774 64.0868 67.7566C64.0397 67.7393 63.997 67.7114 63.9622 67.6751C63.9274 67.6389 63.9013 67.5951 63.8859 67.5473C63.8705 67.4994 63.8661 67.4487 63.8733 67.3989V66.4805H64.5357V65.9837H63.8733V65.2761H63.256V65.9837H62.8947V66.4805H63.256V67.4591C63.256 68.0914 63.5722 68.3474 64.0991 68.3474C64.3268 68.3478 64.5522 68.3017 64.7615 68.2119L64.626 67.685ZM65.3336 65.4116C65.385 65.4139 65.4362 65.4053 65.4839 65.3862C65.5317 65.3672 65.5748 65.3381 65.6104 65.3011C65.646 65.2641 65.6733 65.2198 65.6905 65.1714C65.7077 65.1229 65.7143 65.0714 65.71 65.0202C65.71 64.9204 65.6703 64.8246 65.5998 64.754C65.5292 64.6835 65.4334 64.6438 65.3336 64.6438C65.2338 64.6438 65.1381 64.6835 65.0675 64.754C64.9969 64.8246 64.9572 64.9204 64.9572 65.0202C64.9529 65.0714 64.9595 65.1229 64.9767 65.1714C64.9939 65.2198 65.0212 65.2641 65.0568 65.3011C65.0924 65.3381 65.1356 65.3672 65.1833 65.3862C65.231 65.4053 65.2823 65.4139 65.3336 65.4116ZM65.6498 65.9837H65.0175V68.2872H65.6498V65.9837ZM66.1918 67.7301L66.0412 68.1968C66.3263 68.3 66.6263 68.356 66.9295 68.3624C67.5016 68.3624 67.9382 68.0914 67.9382 67.5645C67.9382 66.7064 66.7187 67.0225 66.7187 66.6311C66.7187 66.4805 66.8391 66.4053 67.1101 66.4053C67.3252 66.4182 67.5377 66.4586 67.7425 66.5257L67.8478 66.059C67.5948 65.9552 67.3233 65.904 67.0499 65.9084C66.538 65.9084 66.0563 66.1493 66.0563 66.6612C66.0563 67.5495 67.2908 67.2182 67.2908 67.6247C67.2908 67.7753 67.1252 67.8656 66.8843 67.8656C66.648 67.8556 66.4145 67.8099 66.1918 67.7301ZM69.6846 67.685C69.5664 67.7398 69.4384 67.7705 69.3082 67.7753C69.2582 67.7804 69.2076 67.774 69.1605 67.7566C69.1133 67.7393 69.0706 67.7114 69.0358 67.6751C69.001 67.6389 68.9749 67.5951 68.9595 67.5473C68.9441 67.4994 68.9398 67.4487 68.9469 67.3989V66.4805H69.5942V65.9837H68.9469V65.2761H68.3146V65.9837H67.9683V66.4805H68.3146V67.4591C68.3146 68.0914 68.6307 68.3474 69.1576 68.3474C69.3855 68.3491 69.6112 68.303 69.8201 68.2119L69.6846 67.685Z" fill="white"/>
</g>
<defs>
<linearGradient id="paint0_linear_30_58703" x1="50" y1="0" x2="50" y2="100" gradientUnits="userSpaceOnUse">
<stop stop-color="#262626"/>
<stop offset="1" stop-color="#111111"/>
</linearGradient>
<clipPath id="clip0_30_58703">
<rect width="60.3865" height="58.4142" fill="white" transform="translate(19.8066 20.7729)"/>
</clipPath>
</defs>
</svg>
