<svg width="1200" height="470" viewBox="0 0 1200 470" fill="none" xmlns="http://www.w3.org/2000/svg">
<rect width="1200" height="470" rx="16" fill="#F3F3F3"/>
<path fill-rule="evenodd" clip-rule="evenodd" d="M600 265C616.569 265 630 251.569 630 235C630 218.431 616.569 205 600 205C583.431 205 570 218.431 570 235C570 251.569 583.431 265 600 265ZM603.078 226.825C602.367 226.325 601.56 225.808 600.726 225.301C597.509 223.344 595.9 222.366 594.457 223.449C593.015 224.532 592.883 226.799 592.621 231.334C592.547 232.616 592.5 233.873 592.5 235C592.5 236.127 592.547 237.384 592.621 238.667C592.883 243.201 593.015 245.468 594.457 246.551C595.9 247.634 597.509 246.656 600.726 244.7C601.56 244.192 602.367 243.675 603.078 243.175C603.89 242.606 604.773 241.922 605.663 241.196C608.888 238.565 610.5 237.25 610.5 235C610.5 232.75 608.888 231.435 605.663 228.805C604.773 228.078 603.89 227.395 603.078 226.825Z" fill="#D0D0D0"/>
</svg>
