<svg width="50" height="50" viewBox="0 0 50 50" fill="none" xmlns="http://www.w3.org/2000/svg">
<g opacity="0.25">
<path fill-rule="evenodd" clip-rule="evenodd" d="M24.9993 45.8335C13.4934 45.8335 4.16602 36.5061 4.16602 25.0001C4.16602 13.4942 13.4934 4.16681 24.9993 4.16681C36.5053 4.16681 45.8327 13.4942 45.8327 25.0001C45.8327 36.5061 36.5053 45.8335 24.9993 45.8335ZM24.0209 17.6453C23.4107 17.0351 22.4214 17.0351 21.8112 17.6453L15.5612 23.8953C14.951 24.5055 14.951 25.4948 15.5612 26.105L21.8112 32.355C22.4214 32.9652 23.4107 32.9652 24.0209 32.355C24.6311 31.7448 24.6311 30.7555 24.0209 30.1453L20.4382 26.5626H33.3327C34.1956 26.5626 34.8952 25.8631 34.8952 25.0001C34.8952 24.1372 34.1956 23.4376 33.3327 23.4376H20.4382L24.0209 19.855C24.6311 19.2448 24.6311 18.2555 24.0209 17.6453Z" fill="black"/>
</g>
</svg>
