<svg width="431" height="303" viewBox="0 0 431 303" fill="none" xmlns="http://www.w3.org/2000/svg">
<g opacity="0.05">
<path fill-rule="evenodd" clip-rule="evenodd" d="M338.048 232.47C321.517 224.514 308.559 210.664 301.72 193.64C294.881 176.617 294.656 157.651 301.089 140.47C296.089 140.629 290.935 141.108 285.544 141.67C264.256 139.919 244.366 130.366 229.691 114.846C198.319 64.5245 164.601 56.4057 128.389 91.2062C101.32 121.732 85.8062 159.777 88.8636 202.211C89.4826 211.174 90.0838 214.023 84.493 221.973C48.1089 274.22 44.4591 325.972 73.5435 377.229C74.2376 378.378 75.2289 379.318 76.4127 379.95C77.5966 380.582 78.9292 380.883 80.2698 380.821C81.6105 380.759 82.9097 380.337 84.0301 379.598C85.1506 378.859 86.0509 377.832 86.636 376.624L120.532 306.048C125.872 294.927 135.412 286.384 147.052 282.297C158.692 278.21 171.478 278.915 182.599 284.255C193.719 289.596 202.262 299.136 206.349 310.776C210.436 322.415 209.732 335.202 204.391 346.322L170.495 416.899C169.886 418.127 169.627 419.498 169.747 420.864C169.867 422.229 170.361 423.535 171.174 424.638C171.988 425.741 173.089 426.599 174.358 427.116C175.627 427.634 177.015 427.792 178.368 427.573C236.608 418.123 274.666 382.896 292.541 321.892C295.251 312.558 298.011 311.323 305.393 306.203C329.419 289.517 347.861 265.979 358.315 238.659C351.297 237.581 344.471 235.497 338.048 232.47ZM283.233 171.087C254.532 168.849 227.705 155.965 208.016 134.963C207.2 134.046 206.767 132.85 206.807 131.623C206.847 130.397 207.355 129.232 208.228 128.369C209.168 127.513 210.399 127.05 211.67 127.074C212.94 127.098 214.153 127.608 215.059 128.498C233.019 147.887 257.675 159.729 284.035 161.625C285.297 161.776 286.453 162.404 287.266 163.381C288.079 164.357 288.487 165.608 288.407 166.876C288.26 168.112 287.638 169.243 286.673 170.029C285.707 170.815 284.473 171.195 283.233 171.087Z" fill="white"/>
<path fill-rule="evenodd" clip-rule="evenodd" d="M391.11 176.998L410.203 169.23L396.439 162.62L416.269 121.33L392.104 109.724L379.499 135.97C368.656 123.279 350.219 117.378 324.188 118.269C320.399 128.457 318.917 139.359 319.849 150.189C320.78 161.02 324.103 171.508 329.576 180.9C335.05 190.291 342.538 198.352 351.502 204.5C360.466 210.649 370.682 214.733 381.415 216.458C385.644 205.873 388.691 194.853 390.5 183.598C390.782 181.37 390.904 179.065 391.11 176.998ZM365.374 201.467C351.98 195.065 341.232 184.2 334.976 170.738C328.719 157.275 327.345 142.054 331.088 127.688C345.62 127.774 361.945 130.691 371.725 141.493L374.81 145.732L372.274 151.014L358.671 144.48L370.832 185.181L381.166 180.888C381.294 181.408 381.303 181.951 381.192 182.476C379.845 190.227 377.95 197.873 375.521 205.356C372.018 204.4 368.619 203.097 365.374 201.467Z" fill="white"/>
</g>
</svg>
