<svg width="100" height="100" viewBox="0 0 100 100" fill="none" xmlns="http://www.w3.org/2000/svg">
<rect width="100" height="100" rx="50" fill="url(#paint0_linear_30_58629)"/>
<g clip-path="url(#clip0_30_58629)">
<path d="M15.9973 37.7718H14.0046C13.8778 37.7718 13.8234 37.8442 13.8234 37.971V43.0797C13.8205 43.1042 13.8232 43.1291 13.8312 43.1524C13.8393 43.1757 13.8526 43.1968 13.87 43.2143C13.8875 43.2317 13.9086 43.245 13.9319 43.2531C13.9552 43.2611 13.9801 43.2638 14.0046 43.2609H14.3307C14.3551 43.2638 14.38 43.2611 14.4033 43.2531C14.4266 43.245 14.4478 43.2317 14.4652 43.2143C14.4826 43.1968 14.4959 43.1757 14.504 43.1524C14.512 43.1291 14.5147 43.1042 14.5118 43.0797V41.5036H16.0154C17.356 41.5036 18.0444 40.7065 18.0444 39.6558C18.0444 38.6051 17.4104 37.7718 15.9973 37.7718ZM16.0517 40.9058H14.5118V38.3696H15.9973C16.9031 38.3696 17.3379 39.0218 17.3379 39.6558C17.3379 40.2899 16.9212 40.9058 16.0517 40.9058ZM19.4937 41.4131H20.9067L22.1567 43.1522C22.181 43.1871 22.2136 43.2153 22.2516 43.2343C22.2895 43.2533 22.3317 43.2624 22.3741 43.2609H22.7908C22.9357 43.2609 22.9901 43.1703 22.8995 43.0435L21.6676 41.3587C22.4828 41.1776 23.0082 40.5616 23.0082 39.6015C23.0183 39.36 22.9785 39.1191 22.8912 38.8938C22.804 38.6684 22.6712 38.4635 22.5012 38.2918C22.3312 38.12 22.1276 37.9852 21.9031 37.8958C21.6786 37.8063 21.4381 37.7641 21.1966 37.7718H18.9865C18.8596 37.7718 18.8053 37.8442 18.8053 37.971V43.0797C18.8024 43.1042 18.8051 43.1291 18.8131 43.1524C18.8212 43.1757 18.8345 43.1968 18.8519 43.2143C18.8693 43.2317 18.8905 43.245 18.9138 43.2531C18.9371 43.2611 18.962 43.2638 18.9865 43.2609H19.3125C19.337 43.2638 19.3619 43.2611 19.3852 43.2531C19.4085 43.245 19.4296 43.2317 19.4471 43.2143C19.4645 43.1968 19.4778 43.1757 19.4859 43.1524C19.4939 43.1291 19.4966 43.1042 19.4937 43.0797V41.4131ZM19.4937 40.7971V38.3696H21.1241C22.0843 38.3696 22.3198 39.1848 22.3198 39.6015C22.3198 40.4529 21.7944 40.7971 21.0698 40.7971H19.4937ZM24.7654 37.7718H24.4393C24.414 37.7716 24.3888 37.7769 24.3656 37.7871C24.3423 37.7973 24.3215 37.8123 24.3044 37.8311C24.2873 37.8499 24.2744 37.872 24.2664 37.8961C24.2585 37.9203 24.2556 37.9458 24.2582 37.971V43.0797C24.2553 43.1042 24.258 43.1291 24.266 43.1524C24.2741 43.1757 24.2874 43.1968 24.3048 43.2143C24.3222 43.2317 24.3434 43.245 24.3667 43.2531C24.39 43.2611 24.4149 43.2638 24.4393 43.2609H24.7654C24.7907 43.2634 24.8162 43.2606 24.8403 43.2527C24.8645 43.2447 24.8866 43.2318 24.9054 43.2147C24.9242 43.1976 24.9392 43.1768 24.9494 43.1535C24.9596 43.1303 24.9648 43.1051 24.9647 43.0797V37.971C24.9676 37.9442 24.9644 37.917 24.9554 37.8915C24.9464 37.8661 24.9318 37.8429 24.9127 37.8238C24.8936 37.8047 24.8704 37.7901 24.8449 37.7811C24.8195 37.7721 24.7923 37.7689 24.7654 37.7718ZM28.3886 43.2609C28.443 43.2609 28.4792 43.2428 28.5336 43.1341L30.8343 37.9892C30.8886 37.8623 30.8343 37.7718 30.6893 37.7718H30.3089C30.2624 37.7718 30.217 37.7855 30.1783 37.8113C30.1396 37.8371 30.1094 37.8738 30.0915 37.9167L28.3886 41.7935L26.7038 37.9167C26.6882 37.8722 26.6586 37.8341 26.6193 37.8079C26.5801 37.7818 26.5335 37.7691 26.4865 37.7718H26.0879C25.9611 37.7718 25.8886 37.8623 25.9611 37.9892L28.2618 43.1341C28.298 43.2428 28.3343 43.2609 28.3886 43.2609ZM31.2509 43.116L31.6676 42.2102H34.6205L35.0553 43.116C35.0709 43.1604 35.1006 43.1986 35.1398 43.2247C35.179 43.2509 35.2256 43.2636 35.2727 43.2609H35.6712C35.798 43.2609 35.8524 43.1703 35.798 43.0435L33.298 37.8986C33.2437 37.808 33.2075 37.7718 33.1531 37.7718C33.0988 37.7718 33.0625 37.808 33.0082 37.8986L30.5082 43.0435C30.4538 43.1703 30.5082 43.2609 30.635 43.2609H31.0336C31.08 43.2609 31.1255 43.2471 31.1642 43.2213C31.2029 43.1956 31.2331 43.1589 31.2509 43.116ZM33.1531 39.0942L34.3307 41.6305H31.9756L33.1531 39.0942ZM39.385 37.7718H35.7437C35.7183 37.7716 35.6932 37.7769 35.6699 37.7871C35.6467 37.7973 35.6258 37.8123 35.6087 37.8311C35.5917 37.8499 35.5787 37.872 35.5708 37.8961C35.5628 37.9203 35.56 37.9458 35.5625 37.971V38.1703C35.56 38.1956 35.5628 38.2211 35.5708 38.2452C35.5787 38.2693 35.5917 38.2915 35.6087 38.3103C35.6258 38.3291 35.6467 38.3441 35.6699 38.3543C35.6932 38.3645 35.7183 38.3697 35.7437 38.3696H37.2292V43.0797C37.2263 43.1042 37.229 43.1291 37.237 43.1524C37.2451 43.1757 37.2584 43.1968 37.2758 43.2143C37.2933 43.2317 37.3144 43.245 37.3377 43.2531C37.361 43.2611 37.3859 43.2638 37.4104 43.2609H37.7365C37.7609 43.2638 37.7858 43.2611 37.8091 43.2531C37.8324 43.245 37.8536 43.2317 37.871 43.2143C37.8884 43.1968 37.9017 43.1757 37.9098 43.1524C37.9178 43.1291 37.9205 43.1042 37.9176 43.0797V38.3696H39.385C39.5118 38.3696 39.5662 38.2971 39.5662 38.1703V37.971C39.5662 37.8442 39.5118 37.7718 39.385 37.7718ZM43.9683 37.7718H40.3814C40.3631 37.7716 40.345 37.7753 40.3283 37.7828C40.3116 37.7903 40.2967 37.8013 40.2846 37.8151C40.2726 37.8288 40.2637 37.845 40.2585 37.8626C40.2533 37.8801 40.252 37.8986 40.2546 37.9167V43.1341C40.2546 43.1677 40.2679 43.2 40.2917 43.2238C40.3155 43.2475 40.3477 43.2609 40.3814 43.2609H43.9683C43.9857 43.2641 44.0036 43.2631 44.0205 43.2579C44.0373 43.2527 44.0527 43.2434 44.0652 43.2309C44.0776 43.2184 44.0869 43.2031 44.0921 43.1862C44.0974 43.1693 44.0984 43.1514 44.0951 43.1341V42.7899C44.0984 42.7725 44.0974 42.7546 44.0921 42.7378C44.0869 42.7209 44.0776 42.7055 44.0652 42.6931C44.0527 42.6806 44.0373 42.6713 44.0205 42.6661C44.0036 42.6609 43.9857 42.6598 43.9683 42.6631H40.9611V40.8515H43.606C43.6243 40.8517 43.6424 40.8479 43.6591 40.8404C43.6758 40.8329 43.6907 40.8219 43.7028 40.8082C43.7148 40.7944 43.7237 40.7782 43.7289 40.7607C43.7341 40.7431 43.7354 40.7247 43.7328 40.7065V40.3805C43.7328 40.3468 43.7195 40.3146 43.6957 40.2908C43.6719 40.267 43.6396 40.2536 43.606 40.2536H40.9611V38.3696H43.9683C44.0589 38.3696 44.0951 38.3152 44.0951 38.2247V37.9167C44.0951 37.8261 44.0589 37.7718 43.9683 37.7718Z" fill="white"/>
<path d="M15.9966 37.826H14.0039L13.8952 37.8622C13.8821 37.8769 13.8721 37.8941 13.8659 37.9128C13.8596 37.9315 13.8573 37.9513 13.8589 37.9709V43.0796C13.8602 43.1131 13.873 43.1451 13.8952 43.1702C13.9133 43.2064 13.9495 43.2064 14.0039 43.2064H14.33C14.3843 43.2064 14.4024 43.2064 14.4386 43.1702C14.4608 43.1451 14.4736 43.1131 14.4749 43.0796V41.4492H16.0147C16.5388 41.4722 17.0536 41.3049 17.464 40.9781C17.6372 40.8052 17.7731 40.5987 17.8635 40.3712C17.9538 40.1438 17.9967 39.9003 17.9894 39.6557C18.0014 39.4078 17.9608 39.1602 17.8703 38.9291C17.7797 38.698 17.6413 38.4888 17.464 38.3151C17.1379 38.0071 16.6488 37.826 15.9966 37.826ZM14.0039 37.7354H15.9966C16.6669 37.7354 17.1742 37.9165 17.5184 38.2426C17.7145 38.4237 17.8681 38.6459 17.9683 38.8934C18.0685 39.1408 18.1128 39.4073 18.0981 39.6738C18.1049 39.9313 18.0567 40.1873 17.9567 40.4247C17.8568 40.6622 17.7073 40.8755 17.5184 41.0506C17.1742 41.3586 16.6669 41.5397 16.0147 41.5397H14.5655V43.0796C14.5685 43.1107 14.5634 43.1421 14.5507 43.1707C14.538 43.1992 14.5181 43.224 14.493 43.2426C14.4503 43.2872 14.3917 43.3133 14.33 43.3151H14.0039C13.9375 43.31 13.8743 43.2847 13.8227 43.2426C13.803 43.2206 13.7881 43.1947 13.7787 43.1667C13.7694 43.1387 13.7659 43.109 13.7684 43.0796V37.9709C13.767 37.9063 13.786 37.8429 13.8227 37.7897C13.8759 37.7531 13.9393 37.7341 14.0039 37.7354ZM16.051 40.96H14.4749V38.3151H15.9966C16.3632 38.302 16.7205 38.4319 16.993 38.6774C17.1219 38.809 17.2235 38.9647 17.2919 39.1357C17.3603 39.3068 17.3942 39.4896 17.3915 39.6738C17.3951 39.8457 17.3631 40.0164 17.2977 40.1754C17.2322 40.3344 17.1346 40.4781 17.0111 40.5977C16.8833 40.719 16.7325 40.8136 16.5676 40.8758C16.4027 40.938 16.2271 40.9667 16.051 40.96ZM14.5655 40.8694H16.051C16.2131 40.8762 16.375 40.8509 16.5273 40.795C16.6797 40.739 16.8195 40.6535 16.9386 40.5434C17.0553 40.4271 17.1475 40.2887 17.2097 40.1362C17.2719 39.9837 17.303 39.8203 17.301 39.6557C17.302 39.4868 17.2689 39.3195 17.2035 39.1638C17.1381 39.0082 17.0418 38.8673 16.9205 38.7499C16.6675 38.5219 16.3371 38.3989 15.9966 38.4057H14.5655V40.8694ZM19.493 41.3586H20.9242L22.1923 43.1158L22.2647 43.1883H22.8807C22.8855 43.1883 22.8901 43.1864 22.8935 43.183C22.8969 43.1796 22.8988 43.175 22.8988 43.1702L22.8626 43.0796L21.5763 41.3586H21.6488C22.0287 41.2773 22.3684 41.0658 22.6089 40.7607C22.8428 40.4338 22.9636 40.0394 22.9531 39.6376C22.9631 39.3957 22.925 39.1543 22.8411 38.9273C22.7571 38.7003 22.629 38.4922 22.464 38.3151C22.2957 38.1534 22.0969 38.0269 21.8792 37.943C21.6614 37.859 21.4292 37.8192 21.1959 37.826H18.9857L18.8771 37.8622C18.8639 37.8769 18.854 37.8941 18.8477 37.9128C18.8415 37.9315 18.8392 37.9513 18.8408 37.9709V43.0796C18.8421 43.1131 18.8549 43.1451 18.8771 43.1702C18.8952 43.2064 18.9314 43.2064 18.9857 43.2064H19.3118C19.3662 43.2064 19.4024 43.2064 19.4205 43.1702C19.4427 43.1451 19.4555 43.1131 19.4568 43.0796V41.3586H19.493ZM20.8698 41.4492H19.5473V43.0796C19.5504 43.1107 19.5453 43.1421 19.5326 43.1707C19.5199 43.1992 19.5 43.224 19.4749 43.2426C19.4321 43.2872 19.3736 43.3133 19.3118 43.3151H18.9857C18.9194 43.31 18.8562 43.2847 18.8046 43.2426C18.7849 43.2206 18.77 43.1947 18.7606 43.1667C18.7513 43.1387 18.7477 43.109 18.7502 43.0796V37.9709C18.7489 37.9063 18.7679 37.8429 18.8046 37.7897C18.8578 37.7531 18.9212 37.7341 18.9857 37.7354H21.1959C21.4435 37.7256 21.6905 37.7672 21.9212 37.8576C22.152 37.9481 22.3614 38.0853 22.5365 38.2607C22.7052 38.4397 22.8369 38.6503 22.924 38.8804C23.011 39.1105 23.0517 39.3555 23.0437 39.6013C23.0569 40.0232 22.9295 40.4374 22.6814 40.7789C22.4505 41.0895 22.1165 41.3078 21.7394 41.3948L22.935 43.0071C22.9659 43.0496 22.9847 43.0997 22.9894 43.1521C22.9894 43.1702 22.9713 43.2064 22.9713 43.2245C22.9713 43.2426 22.9531 43.2607 22.9169 43.2607C22.8807 43.2607 22.8444 43.3151 22.772 43.3151H22.3734L22.2285 43.2789C22.1837 43.2524 22.1463 43.215 22.1198 43.1702L20.8698 41.4673V41.4492ZM19.4568 40.797V38.3151H21.1234C21.2845 38.3078 21.4452 38.3347 21.5951 38.394C21.745 38.4534 21.8806 38.5438 21.993 38.6593C22.2353 38.9133 22.3713 39.2503 22.3734 39.6013C22.385 39.7709 22.3603 39.9411 22.301 40.1004C22.2416 40.2597 22.149 40.4046 22.0292 40.5252C21.7623 40.7521 21.419 40.8687 21.0691 40.8513H19.4568V40.797ZM19.5473 38.4057V40.7607H21.0691C21.2303 40.7731 21.3923 40.7521 21.545 40.6991C21.6977 40.6462 21.8379 40.5623 21.9568 40.4528C22.0653 40.3406 22.1489 40.2068 22.202 40.06C22.255 39.9133 22.2764 39.757 22.2647 39.6013C22.2681 39.281 22.1518 38.9709 21.9386 38.7318C21.8323 38.6246 21.705 38.5404 21.5648 38.4843C21.4246 38.4282 21.2744 38.4014 21.1234 38.4057H19.5473ZM24.7647 37.826H24.4386L24.3481 37.8622C24.3118 37.8803 24.3118 37.9165 24.3118 37.9709V43.0796C24.3118 43.1158 24.3118 43.1521 24.3481 43.1702C24.3843 43.1883 24.4024 43.2064 24.4386 43.2064H24.7647C24.8191 43.2064 24.8553 43.2064 24.8734 43.1702C24.8956 43.1451 24.9084 43.1131 24.9097 43.0796V37.9709C24.9113 37.9513 24.909 37.9315 24.9027 37.9128C24.8965 37.8941 24.8865 37.8769 24.8734 37.8622L24.7647 37.826ZM24.4386 37.7354H24.7647C24.797 37.7314 24.8298 37.7342 24.861 37.7436C24.8922 37.7529 24.9211 37.7686 24.9459 37.7897C24.9826 37.8429 25.0016 37.9063 25.0002 37.9709V43.0796C25.0027 43.109 24.9992 43.1387 24.9899 43.1667C24.9805 43.1947 24.9656 43.2206 24.9459 43.2426C24.8966 43.2884 24.832 43.3142 24.7647 43.3151H24.4386C24.3776 43.3109 24.3201 43.2847 24.2768 43.2414C24.2335 43.1981 24.2074 43.1407 24.2031 43.0796V37.9709C24.2082 37.9045 24.2335 37.8413 24.2756 37.7897C24.2977 37.7701 24.3235 37.7551 24.3515 37.7458C24.3796 37.7364 24.4092 37.7329 24.4386 37.7354ZM28.3879 43.2064H28.4242C28.4501 43.1816 28.4689 43.1504 28.4785 43.1158L30.7792 37.9709C30.7936 37.9496 30.8001 37.924 30.7973 37.8984V37.8622H30.1995L30.1271 37.9528L28.3879 41.9021L26.6669 37.9347L26.5944 37.8441H25.9785V37.8803C25.9758 37.9058 25.9822 37.9315 25.9966 37.9528L28.2973 43.1158C28.307 43.1504 28.3258 43.1816 28.3517 43.2064H28.3879ZM28.4966 43.2789L28.3879 43.3151L28.2973 43.2789C28.2611 43.2607 28.243 43.2245 28.2068 43.1521L25.906 38.0071C25.8915 37.9728 25.8853 37.9356 25.8879 37.8984C25.8851 37.8671 25.8914 37.8357 25.906 37.8078L25.9785 37.7535H26.4857L26.6488 37.7897L26.7575 37.9165L28.3879 41.6847L30.0546 37.8984C30.0741 37.8495 30.1052 37.8059 30.1452 37.7716L30.3082 37.7354H30.7973L30.8698 37.7897C30.8879 37.826 30.906 37.8441 30.906 37.8803C30.9024 37.9188 30.89 37.956 30.8698 37.989L28.5691 43.1521C28.5579 43.2005 28.5327 43.2446 28.4966 43.2789ZM31.214 43.0977L31.6307 42.1738H34.656L35.0908 43.0977C35.1044 43.135 35.1299 43.1669 35.1633 43.1883H35.7249L35.7611 43.1521C35.7792 43.1521 35.7792 43.1339 35.7792 43.1158C35.7792 43.0977 35.7611 43.0615 35.7611 43.0434L33.243 37.9165L33.2068 37.8441H33.0981C33.08 37.8441 33.0618 37.8803 33.0437 37.9165L30.5437 43.0615C30.5437 43.0796 30.5256 43.1158 30.5256 43.1339C30.5256 43.1521 30.5256 43.1702 30.5437 43.1702C30.5618 43.1702 30.5618 43.1883 30.5618 43.2064H31.1234C31.162 43.186 31.1936 43.1544 31.214 43.1158V43.0977ZM31.7031 42.2644L31.2865 43.1339C31.2786 43.1617 31.2648 43.1874 31.2461 43.2093C31.2273 43.2312 31.204 43.2487 31.1778 43.2607C31.1585 43.279 31.1357 43.2932 31.1108 43.3026C31.0859 43.3119 31.0594 43.3162 31.0329 43.3151H30.6343L30.5256 43.2789C30.4894 43.2789 30.4713 43.2426 30.4531 43.2245C30.4385 43.1967 30.4322 43.1652 30.435 43.1339C30.4335 43.0909 30.4396 43.048 30.4531 43.0071L32.9713 37.8622C32.9848 37.8249 33.0103 37.7931 33.0437 37.7716C33.0751 37.7481 33.1132 37.7354 33.1524 37.7354C33.1916 37.7354 33.2298 37.7481 33.2611 37.7716L33.3336 37.8622L35.8336 43.0071C35.8518 43.0474 35.864 43.0901 35.8698 43.1339C35.8698 43.1702 35.8517 43.1883 35.8336 43.2245L35.7792 43.2789L35.6524 43.3151H35.272C35.2425 43.3176 35.2129 43.3141 35.1849 43.3047C35.1568 43.2954 35.131 43.2804 35.1089 43.2607C35.0546 43.2426 35.0365 43.1883 35.0002 43.1339L34.6017 42.2644H31.7031ZM33.2068 39.076L34.4024 41.6847H31.8843L33.1524 38.9854L33.2068 39.076ZM34.2575 41.576L33.1524 39.2028L32.0473 41.576H34.2575ZM39.3843 37.826H35.743L35.6343 37.8622C35.6212 37.8769 35.6112 37.8941 35.605 37.9128C35.5988 37.9315 35.5964 37.9513 35.5981 37.9709V38.1702C35.5964 38.1898 35.5988 38.2096 35.605 38.2282C35.6112 38.2469 35.6212 38.2642 35.6343 38.2789L35.743 38.3151H37.2647V43.0796C37.266 43.1131 37.2788 43.1451 37.301 43.1702C37.3191 43.2064 37.3553 43.2064 37.4097 43.2064H37.7357C37.772 43.2064 37.8082 43.2064 37.8263 43.1702C37.8444 43.1339 37.8626 43.1158 37.8626 43.0796V38.3151H39.3843L39.493 38.2789C39.5061 38.2642 39.5161 38.2469 39.5223 38.2282C39.5285 38.2096 39.5309 38.1898 39.5292 38.1702V37.9709C39.5309 37.9513 39.5285 37.9315 39.5223 37.9128C39.5161 37.8941 39.5061 37.8769 39.493 37.8622L39.3843 37.826ZM35.743 37.7354H39.3843C39.4489 37.7341 39.5123 37.7531 39.5655 37.7897C39.6021 37.8429 39.6211 37.9063 39.6198 37.9709V38.1702C39.624 38.2351 39.6047 38.2994 39.5655 38.3513C39.5123 38.388 39.4489 38.407 39.3843 38.4057H37.9713V43.0796C37.9694 43.1413 37.9434 43.1999 37.8988 43.2426C37.8767 43.2623 37.8509 43.2773 37.8229 43.2866C37.7948 43.2959 37.7652 43.2995 37.7357 43.297H37.4097C37.3802 43.2995 37.3506 43.2959 37.3225 43.2866C37.2945 43.2773 37.2687 43.2623 37.2466 43.2426C37.2215 43.224 37.2016 43.1992 37.1889 43.1707C37.1762 43.1421 37.1711 43.1107 37.1742 43.0796V38.4057H35.743C35.7136 38.4082 35.6839 38.4046 35.6559 38.3953C35.6278 38.386 35.602 38.371 35.58 38.3513C35.5546 38.3289 35.5348 38.3008 35.5223 38.2693C35.5097 38.2379 35.5046 38.2039 35.5075 38.1702V37.9709C35.5059 37.9373 35.5116 37.9037 35.5241 37.8725C35.5366 37.8412 35.5556 37.813 35.58 37.7897C35.602 37.7701 35.6278 37.7551 35.6559 37.7458C35.6839 37.7364 35.7136 37.7329 35.743 37.7354ZM43.9676 37.826H40.3263C40.3151 37.8344 40.3059 37.8453 40.2997 37.8579C40.2934 37.8705 40.2901 37.8844 40.2901 37.8984V43.1339L40.3263 43.1883H44.0401V42.7897C44.0401 42.7716 44.022 42.7535 44.022 42.7354H40.906V40.797H43.6597L43.6959 40.7426V40.3803C43.6959 40.3622 43.6778 40.326 43.6597 40.326L43.6053 40.2897H40.906V38.3151H44.0401C44.0401 38.297 44.0582 38.2789 44.0582 38.2426V37.9165C44.0582 37.8803 44.0401 37.8622 44.0401 37.8441L43.9676 37.826ZM40.3807 37.7354H43.9676C43.9915 37.7346 44.0152 37.7391 44.0371 37.7485C44.059 37.7579 44.0786 37.772 44.0944 37.7897C44.1133 37.8047 44.1282 37.8241 44.1377 37.8463C44.1472 37.8684 44.151 37.8926 44.1488 37.9165V38.2245C44.1499 38.2511 44.1456 38.2776 44.1363 38.3025C44.1269 38.3274 44.1127 38.3501 44.0944 38.3694L43.9676 38.4057H40.9966V40.1992H43.6053C43.6534 40.1992 43.6994 40.2182 43.7334 40.2522C43.7674 40.2862 43.7865 40.3323 43.7865 40.3803V40.7245C43.7865 40.7726 43.7674 40.8186 43.7334 40.8526C43.6994 40.8866 43.6534 40.9057 43.6053 40.9057H40.9966V42.6086H43.9676C43.9915 42.6078 44.0152 42.6123 44.0371 42.6217C44.059 42.6311 44.0786 42.6451 44.0944 42.6629C44.1127 42.6822 44.1269 42.705 44.1363 42.7299C44.1456 42.7548 44.1499 42.7813 44.1488 42.8078V43.1339C44.1488 43.182 44.1297 43.2281 44.0957 43.262C44.0618 43.296 44.0157 43.3151 43.9676 43.3151H40.3807C40.3326 43.3151 40.2866 43.296 40.2526 43.262C40.2186 43.2281 40.1995 43.182 40.1995 43.1339V37.9165C40.1988 37.8927 40.2032 37.869 40.2126 37.8471C40.222 37.8252 40.2361 37.8056 40.2539 37.7897C40.2697 37.772 40.2893 37.7579 40.3112 37.7485C40.3331 37.7391 40.3568 37.7346 40.3807 37.7354Z" fill="white"/>
<path d="M45.7973 43.2608H47.6813C49.2936 43.2608 50.3444 42.355 50.3444 40.5253C50.3444 38.6955 49.2755 37.7716 47.6813 37.7716H45.7973C45.6886 37.7716 45.6523 37.826 45.6523 37.9347V43.1158C45.6523 43.2064 45.6886 43.2608 45.7973 43.2608ZM46.1052 42.8622V38.1883H47.5907C48.4241 38.1883 49.8915 38.4963 49.8915 40.5253C49.8915 42.5542 48.4241 42.8622 47.5907 42.8622H46.1052ZM51.54 43.2608H54.9821C55.0018 43.2639 55.022 43.2622 55.041 43.2561C55.06 43.2499 55.0772 43.2393 55.0914 43.2251C55.1055 43.211 55.1161 43.1938 55.1223 43.1748C55.1285 43.1558 55.1301 43.1356 55.127 43.1158V43.0071C55.1301 42.9874 55.1285 42.9672 55.1223 42.9482C55.1161 42.9292 55.1055 42.9119 55.0914 42.8978C55.0772 42.8837 55.06 42.8731 55.041 42.8669C55.022 42.8607 55.0018 42.8591 54.9821 42.8622H51.848V40.7789H54.5835C54.6922 40.7789 54.7284 40.7245 54.7284 40.6158V40.5253C54.7284 40.4166 54.6922 40.3622 54.5835 40.3622H51.848V38.1883H54.9821C55.0018 38.1914 55.022 38.1898 55.041 38.1836C55.06 38.1774 55.0772 38.1668 55.0914 38.1527C55.1055 38.1386 55.1161 38.1213 55.1223 38.1023C55.1285 38.0833 55.1301 38.0631 55.127 38.0434V37.9347C55.127 37.826 55.0726 37.7716 54.9821 37.7716H51.54C51.4494 37.7716 51.3951 37.826 51.3951 37.9347V43.1158C51.392 43.1356 51.3936 43.1558 51.3998 43.1748C51.406 43.1938 51.4166 43.211 51.4307 43.2251C51.4448 43.2393 51.4621 43.2499 51.4811 43.2561C51.5001 43.2622 51.5203 43.2639 51.54 43.2608ZM56.2864 43.2608H56.4313C56.54 43.2608 56.5944 43.2064 56.5944 43.1158V38.8042L60.5437 43.1702C60.598 43.2245 60.6161 43.2608 60.6886 43.2608C60.761 43.2608 60.761 43.2064 60.761 43.1702V37.9347C60.761 37.826 60.7067 37.7716 60.6161 37.7716H60.4531C60.3625 37.7716 60.3081 37.826 60.3081 37.9347V42.21L56.3407 37.8622C56.3045 37.8079 56.2683 37.7716 56.2139 37.7716C56.1596 37.7716 56.1415 37.8079 56.1415 37.8622V43.1158C56.1415 43.2064 56.1777 43.2608 56.2864 43.2608ZM63.6234 43.2608H63.7864C63.8061 43.2639 63.8263 43.2622 63.8453 43.2561C63.8643 43.2499 63.8816 43.2393 63.8957 43.2251C63.9098 43.211 63.9204 43.1938 63.9266 43.1748C63.9328 43.1558 63.9344 43.1356 63.9313 43.1158V38.1883H65.5074C65.598 38.1883 65.6523 38.1339 65.6523 38.0253V37.9347C65.6523 37.826 65.598 37.7716 65.5074 37.7716H61.9205C61.8983 37.7686 61.8758 37.7708 61.8547 37.7779C61.8336 37.7851 61.8143 37.797 61.7986 37.8128C61.7828 37.8285 61.7709 37.8478 61.7637 37.8689C61.7566 37.89 61.7544 37.9126 61.7574 37.9347V38.0253C61.7544 38.0474 61.7566 38.0699 61.7637 38.091C61.7709 38.1122 61.7828 38.1314 61.7986 38.1472C61.8143 38.1629 61.8336 38.1749 61.8547 38.182C61.8758 38.1891 61.8983 38.1913 61.9205 38.1883H63.4784V43.1158C63.4753 43.1356 63.4769 43.1558 63.4831 43.1748C63.4893 43.1938 63.4999 43.211 63.514 43.2251C63.5282 43.2393 63.5454 43.2499 63.5644 43.2561C63.5834 43.2622 63.6036 43.2639 63.6234 43.2608ZM66.7031 43.2608H66.8661C66.8859 43.2639 66.906 43.2622 66.925 43.2561C66.944 43.2499 66.9613 43.2393 66.9754 43.2251C66.9896 43.211 67.0001 43.1938 67.0063 43.1748C67.0125 43.1558 67.0141 43.1356 67.011 43.1158V37.9347C67.011 37.826 66.9567 37.7716 66.8661 37.7716H66.7031C66.6125 37.7716 66.5581 37.826 66.5581 37.9347V43.1158C66.555 43.1356 66.5567 43.1558 66.5628 43.1748C66.569 43.1938 66.5796 43.211 66.5938 43.2251C66.6079 43.2393 66.6251 43.2499 66.6441 43.2561C66.6631 43.2622 66.6833 43.2639 66.7031 43.2608ZM70.3081 43.3876C71.4494 43.3876 72.2465 42.8622 72.2465 41.8477C72.2465 40.8332 71.1777 40.4347 70.5436 40.326C69.9096 40.2173 68.5871 40.0724 68.5871 39.2209C68.5871 38.3695 69.4748 38.0796 70.0183 38.0796C70.5243 38.0861 71.019 38.2301 71.4494 38.4963C71.4858 38.5167 71.5285 38.5225 71.569 38.5124C71.6094 38.5022 71.6444 38.477 71.6668 38.4419L71.7212 38.3332C71.7755 38.2426 71.7574 38.1702 71.685 38.1339C71.1964 37.8291 70.6303 37.6718 70.0545 37.681C69.2031 37.681 68.1342 38.0796 68.1342 39.239C68.1342 40.3984 69.511 40.5796 70.127 40.6883C70.7429 40.797 71.7936 41.0506 71.7936 41.8296C71.7936 42.6086 71.2502 42.9709 70.2719 42.9709C69.6642 42.9719 69.0705 42.7887 68.569 42.4455C68.5518 42.4328 68.532 42.424 68.511 42.4198C68.4899 42.4156 68.4683 42.4161 68.4475 42.4213C68.4267 42.4265 68.4073 42.4362 68.3907 42.4498C68.3741 42.4634 68.3608 42.4805 68.3516 42.4999L68.2792 42.6086C68.2664 42.6258 68.2576 42.6456 68.2534 42.6666C68.2492 42.6877 68.2497 42.7093 68.2549 42.7301C68.2601 42.7509 68.2699 42.7703 68.2834 42.7869C68.297 42.8035 68.3141 42.8168 68.3335 42.826C68.9183 43.2118 69.6078 43.4079 70.3081 43.3876ZM74.2936 43.2608H74.4567C74.4764 43.2639 74.4966 43.2622 74.5156 43.2561C74.5346 43.2499 74.5519 43.2393 74.566 43.2251C74.5801 43.211 74.5907 43.1938 74.5969 43.1748C74.6031 43.1558 74.6047 43.1356 74.6016 43.1158V38.1883H76.1777C76.1998 38.1913 76.2223 38.1891 76.2435 38.182C76.2646 38.1749 76.2838 38.1629 76.2996 38.1472C76.3154 38.1314 76.3273 38.1122 76.3344 38.091C76.3416 38.0699 76.3437 38.0474 76.3407 38.0253V37.9347C76.3437 37.9126 76.3416 37.89 76.3344 37.8689C76.3273 37.8478 76.3154 37.8285 76.2996 37.8128C76.2838 37.797 76.2646 37.7851 76.2435 37.7779C76.2223 37.7708 76.1998 37.7686 76.1777 37.7716H72.5908C72.5002 37.7716 72.4458 37.826 72.4458 37.9347V38.0253C72.4458 38.1339 72.5002 38.1883 72.5908 38.1883H74.1487V43.1158C74.1456 43.1356 74.1472 43.1558 74.1534 43.1748C74.1596 43.1938 74.1702 43.211 74.1843 43.2251C74.1985 43.2393 74.2157 43.2499 74.2347 43.2561C74.2537 43.2622 74.2739 43.2639 74.2936 43.2608ZM77.4639 43.2608H77.627C77.6467 43.2639 77.6669 43.2622 77.6859 43.2561C77.7049 43.2499 77.7222 43.2393 77.7363 43.2251C77.7504 43.211 77.761 43.1938 77.7672 43.1748C77.7734 43.1558 77.775 43.1356 77.7719 43.1158V41.3042H79.4023L80.7248 43.1702C80.7454 43.1988 80.7726 43.2221 80.8042 43.2379C80.8358 43.2536 80.8707 43.2615 80.906 43.2608H81.1234C81.2502 43.2608 81.2864 43.1702 81.2139 43.0796L79.9458 41.3042C80.906 41.1412 81.4313 40.4709 81.4313 39.547C81.4313 38.6231 80.7067 37.7716 79.6922 37.7716H77.4639C77.3734 37.7716 77.319 37.826 77.319 37.9347V43.1158C77.3159 43.1356 77.3175 43.1558 77.3237 43.1748C77.3299 43.1938 77.3405 43.211 77.3546 43.2251C77.3688 43.2393 77.386 43.2499 77.405 43.2561C77.424 43.2622 77.4442 43.2639 77.4639 43.2608ZM77.7719 40.8876V38.1883H79.6379C80.7248 38.1883 80.9784 39.076 80.9784 39.547C80.9784 40.5071 80.2719 40.8876 79.6379 40.8876H77.7719ZM83.9676 43.2608H84.1306C84.1503 43.2639 84.1705 43.2622 84.1895 43.2561C84.2085 43.2499 84.2258 43.2393 84.2399 43.2251C84.254 43.211 84.2646 43.1938 84.2708 43.1748C84.277 43.1558 84.2786 43.1356 84.2755 43.1158V41.1774L86.2139 37.9528C86.2313 37.9357 86.2424 37.9132 86.2455 37.889C86.2485 37.8649 86.2434 37.8404 86.2308 37.8195C86.2183 37.7986 86.1991 37.7825 86.1763 37.7738C86.1535 37.7651 86.1285 37.7644 86.1052 37.7716H85.906C85.8682 37.7685 85.8304 37.7773 85.7979 37.7968C85.7654 37.8163 85.7398 37.8455 85.7248 37.8803L84.0581 40.6883L82.4096 37.8803C82.3946 37.8455 82.369 37.8163 82.3365 37.7968C82.304 37.7773 82.2662 37.7685 82.2284 37.7716H82.0292C81.9205 37.7716 81.8661 37.8622 81.9386 37.9528L83.8226 41.1774V43.1158C83.8195 43.1356 83.8212 43.1558 83.8273 43.1748C83.8335 43.1938 83.8441 43.211 83.8582 43.2251C83.8724 43.2393 83.8896 43.2499 83.9086 43.2561C83.9276 43.2622 83.9478 43.2639 83.9676 43.2608Z" fill="white"/>
<path d="M20.3267 50.5614L20.5622 50.1085H22.2107L22.4281 50.5614C22.442 50.5933 22.4648 50.6205 22.4937 50.6397C22.5226 50.659 22.5564 50.6696 22.5911 50.6701H23.044C23.1346 50.6701 23.1709 50.5977 23.1346 50.5071L21.468 47.21C21.4498 47.1375 21.4136 47.1194 21.3774 47.1194C21.3411 47.1194 21.323 47.1375 21.2868 47.21L19.6383 50.5071C19.5839 50.5977 19.6201 50.6701 19.7288 50.6701H20.1817C20.2146 50.6712 20.2469 50.661 20.2733 50.6412C20.2996 50.6215 20.3184 50.5933 20.3267 50.5614ZM21.3774 48.4238L21.8846 49.5288H20.8882L21.3774 48.4238ZM29.4027 47.2462L28.7325 49.0759L27.8991 47.1919C27.8629 47.1375 27.8448 47.1375 27.8267 47.1375C27.8078 47.136 27.7889 47.1404 27.7726 47.1501C27.7564 47.1599 27.7436 47.1745 27.7361 47.1919L26.9027 49.0759L26.2506 47.2462C26.2424 47.2143 26.2235 47.1862 26.1972 47.1664C26.1708 47.1467 26.1386 47.1365 26.1056 47.1375H25.6527C25.5622 47.1375 25.5259 47.1919 25.5622 47.2825L26.7578 50.5796C26.7759 50.652 26.8122 50.6701 26.8303 50.6701C26.8484 50.6701 26.8846 50.652 26.9027 50.5977L27.8267 48.5325L28.7325 50.5796C28.7506 50.652 28.7868 50.6701 28.8049 50.6701C28.823 50.6701 28.8593 50.652 28.8774 50.5796L30.0911 47.2825C30.1274 47.1919 30.0911 47.1375 30.0006 47.1375H29.5477C29.5148 47.1365 29.4825 47.1467 29.4561 47.1664C29.4298 47.1862 29.411 47.2143 29.4027 47.2462ZM33.189 50.5614L33.4064 50.1085H35.073L35.2904 50.5614C35.3051 50.5914 35.3286 50.6161 35.3577 50.6323C35.3869 50.6485 35.4203 50.6554 35.4535 50.652H35.9064C35.9969 50.652 36.0332 50.5977 35.9969 50.5071L34.3303 47.21C34.294 47.1375 34.2759 47.1194 34.2397 47.1194C34.2035 47.1194 34.1854 47.1375 34.1491 47.21L32.4825 50.5071C32.4462 50.5977 32.4825 50.652 32.5911 50.652H33.044C33.1165 50.652 33.1709 50.6339 33.189 50.5614ZM34.2397 48.4056L34.7469 49.5107H33.7325L34.2397 48.4056ZM39.7832 49.5288H40.4535L41.2143 50.5796C41.233 50.6047 41.2577 50.6246 41.2863 50.6373C41.3149 50.6499 41.3463 50.655 41.3774 50.652H41.8846C41.9933 50.652 42.0296 50.5796 41.9571 50.5071L41.1962 49.4745C41.631 49.3477 41.9209 48.8767 41.9209 48.3513C41.9286 48.1898 41.9025 48.0286 41.8443 47.8778C41.786 47.727 41.6969 47.5901 41.5826 47.4758C41.4683 47.3615 41.3314 47.2723 41.1806 47.2141C41.0298 47.1558 40.8685 47.1298 40.7071 47.1375H39.2578C39.1672 47.1375 39.131 47.1738 39.131 47.2643V50.5252C39.131 50.6158 39.1672 50.652 39.2578 50.652H39.6564C39.7469 50.652 39.7832 50.6158 39.7832 50.5252V49.5288ZM39.7832 48.9491V47.7354H40.5622C41.0513 47.7354 41.2506 48.0071 41.2506 48.3332C41.2506 48.6593 41.1238 48.9491 40.5622 48.9491H39.7832ZM45.3991 50.652H46.6491C47.7904 50.652 48.4064 49.9636 48.4064 48.8948C48.4064 47.8259 47.7723 47.1375 46.6491 47.1375H45.3991C45.3085 47.1375 45.2542 47.1738 45.2542 47.2643V50.5252C45.2542 50.6158 45.3085 50.652 45.3991 50.652ZM45.9426 50.0542V47.7354H46.6491C47.1383 47.7354 47.7361 47.9165 47.7361 48.8948C47.7361 49.873 47.1383 50.0542 46.6491 50.0542H45.9426ZM51.8303 49.8187L51.6854 50.0361C51.6711 50.0551 51.6607 50.0768 51.6548 50.0998C51.6489 50.1229 51.6476 50.1468 51.6509 50.1704C51.6543 50.1939 51.6623 50.2166 51.6744 50.2371C51.6865 50.2575 51.7025 50.2754 51.7216 50.2897C52.1133 50.5821 52.5916 50.7351 53.0803 50.7245C53.8774 50.7245 54.4209 50.3803 54.4209 49.6556C54.4209 48.931 53.5151 48.6411 53.0984 48.5506C52.6817 48.46 52.2832 48.3875 52.2832 48.0614C52.2832 47.7354 52.6093 47.6991 52.881 47.6991C53.1872 47.7117 53.4856 47.7987 53.7506 47.9527C53.7681 47.9666 53.7883 47.9766 53.81 47.9823C53.8316 47.988 53.8541 47.9892 53.8762 47.9858C53.8983 47.9824 53.9194 47.9745 53.9383 47.9626C53.9572 47.9506 53.9735 47.935 53.9861 47.9165L54.1672 47.6629C54.1907 47.6259 54.1999 47.5816 54.1933 47.5383C54.1866 47.495 54.1645 47.4556 54.131 47.4274C53.7839 47.1928 53.3722 47.0725 52.9535 47.0832C52.3556 47.0832 51.6129 47.3368 51.6129 48.1339C51.6129 48.931 52.5368 49.1122 52.9535 49.2027C53.3701 49.2933 53.7506 49.3477 53.7506 49.6919C53.7506 50.0361 53.5875 50.1085 53.0803 50.1085C52.7209 50.0828 52.3729 49.9709 52.0658 49.7825C52.0267 49.7609 51.9811 49.7546 51.9376 49.7646C51.8942 49.7746 51.856 49.8003 51.8303 49.8368V49.8187ZM61.2868 50.0542H59.8556L60.6346 49.4383C61.1056 49.0397 61.3774 48.7136 61.3774 48.1701C61.3774 47.6267 60.9969 47.0832 60.1636 47.0832C59.9053 47.0834 59.6534 47.1636 59.4425 47.3128C59.2316 47.4621 59.0722 47.673 58.9861 47.9165C58.9498 48.0071 58.968 48.0796 59.0767 48.0977L59.4027 48.1883C59.446 48.2003 59.4922 48.1959 59.5324 48.1758C59.5725 48.1557 59.6038 48.1214 59.6201 48.0796C59.6622 47.9604 59.741 47.8576 59.8452 47.786C59.9493 47.7144 60.0735 47.6776 60.1998 47.681C60.2662 47.6758 60.333 47.6848 60.3956 47.7073C60.4583 47.7298 60.5155 47.7653 60.5634 47.8115C60.6114 47.8578 60.649 47.9136 60.6737 47.9754C60.6985 48.0372 60.7099 48.1036 60.7071 48.1701C60.7071 48.4056 60.6709 48.5868 60.2361 48.9491L59.0585 49.9274C59.0346 49.9471 59.0156 49.972 59.003 50.0003C58.9905 50.0286 58.9847 50.0595 58.9861 50.0904V50.5252C58.9835 50.5433 58.9848 50.5618 58.99 50.5793C58.9952 50.5969 59.0041 50.6131 59.0161 50.6268C59.0282 50.6406 59.0431 50.6516 59.0598 50.6591C59.0765 50.6665 59.0946 50.6703 59.1129 50.6701H61.2868C61.3774 50.6701 61.4136 50.6158 61.4136 50.5252V50.1991C61.4136 50.1085 61.3774 50.0723 61.2868 50.0723V50.0542ZM66.1962 50.7245C67.1745 50.7426 67.7723 49.8368 67.7723 48.8948C67.7723 47.9527 67.102 47.0832 66.1962 47.0832C65.2904 47.0832 64.6201 47.8259 64.6201 48.8948C64.6201 49.9636 65.1998 50.7245 66.1962 50.7245ZM66.1962 47.6991C66.8303 47.6991 67.0839 48.3151 67.0839 48.8948C67.0839 49.4745 66.631 50.1085 66.1962 50.1085C65.7614 50.1085 65.3085 49.4564 65.3085 48.8948C65.3085 48.3332 65.7796 47.6991 66.1962 47.6991ZM73.3158 50.0542H71.9027L72.6636 49.4383C73.1346 49.0397 73.4064 48.7136 73.4064 48.1701C73.4064 47.6267 73.0259 47.0832 72.1926 47.0832C71.9343 47.0834 71.6824 47.1636 71.4715 47.3128C71.2606 47.4621 71.1012 47.673 71.0151 47.9165C71.0063 47.9341 71.0018 47.9535 71.0018 47.9731C71.0018 47.9927 71.0064 48.0121 71.0152 48.0297C71.024 48.0472 71.0367 48.0625 71.0524 48.0743C71.0681 48.0861 71.0863 48.0941 71.1056 48.0977L71.4317 48.1883C71.475 48.2003 71.5212 48.1959 71.5614 48.1758C71.6015 48.1557 71.6328 48.1214 71.6491 48.0796C71.6912 47.9604 71.77 47.8576 71.8741 47.786C71.9783 47.7144 72.1025 47.6776 72.2288 47.681C72.2952 47.6758 72.3619 47.6848 72.4246 47.7073C72.4873 47.7298 72.5445 47.7653 72.5924 47.8115C72.6404 47.8578 72.6779 47.9136 72.7027 47.9754C72.7275 48.0372 72.7388 48.1036 72.7361 48.1701C72.7361 48.4056 72.6998 48.5868 72.2651 48.9491L71.0875 49.9274C71.0457 49.972 71.0202 50.0295 71.0151 50.0904V50.5252C71.0124 50.5433 71.0138 50.5618 71.019 50.5793C71.0242 50.5969 71.0331 50.6131 71.0451 50.6268C71.0572 50.6406 71.0721 50.6516 71.0888 50.6591C71.1055 50.6665 71.1236 50.6703 71.1419 50.6701H73.3158C73.4064 50.6701 73.4426 50.6158 73.4426 50.5252V50.1991C73.4426 50.1085 73.4064 50.0723 73.3158 50.0723V50.0542ZM79.0948 50.0542H77.6636L78.4245 49.4383C78.8955 49.0397 79.1672 48.7136 79.1672 48.1701C79.1672 47.6267 78.7868 47.0832 77.9535 47.0832C77.6951 47.0834 77.4432 47.1636 77.2324 47.3128C77.0215 47.4621 76.862 47.673 76.7759 47.9165C76.7669 47.9354 76.7628 47.9562 76.7638 47.9771C76.7648 47.998 76.7709 48.0183 76.7817 48.0362C76.7925 48.0542 76.8075 48.0692 76.8254 48.0799C76.8434 48.0906 76.8637 48.0967 76.8846 48.0977L77.1926 48.1883C77.2359 48.2003 77.2821 48.1959 77.3222 48.1758C77.3624 48.1557 77.3937 48.1214 77.41 48.0796C77.4565 47.9633 77.5363 47.8634 77.6395 47.7925C77.7427 47.7216 77.8645 47.6828 77.9897 47.681C78.0567 47.6726 78.1248 47.6794 78.1889 47.7007C78.253 47.7221 78.3115 47.7575 78.3602 47.8044C78.4088 47.8513 78.4463 47.9085 78.47 47.9718C78.4937 48.0351 78.5029 48.1028 78.4969 48.1701C78.4969 48.4056 78.4607 48.5868 78.0259 48.9491L76.8484 49.9274C76.8066 49.972 76.781 50.0295 76.7759 50.0904V50.5252C76.7728 50.5449 76.7744 50.5651 76.7806 50.5841C76.7868 50.6031 76.7974 50.6204 76.8115 50.6345C76.8257 50.6487 76.8429 50.6592 76.8619 50.6654C76.8809 50.6716 76.9011 50.6732 76.9209 50.6701H79.0767C79.0964 50.6732 79.1166 50.6716 79.1356 50.6654C79.1546 50.6592 79.1718 50.6487 79.186 50.6345C79.2001 50.6204 79.2107 50.6031 79.2169 50.5841C79.2231 50.5651 79.2247 50.5449 79.2216 50.5252V50.1991C79.2216 50.1085 79.1672 50.0723 79.0767 50.0723L79.0948 50.0542Z" fill="white"/>
<path d="M29.4747 57.7355V57.2645C29.4773 57.2416 29.475 57.2184 29.4679 57.1965C29.4609 57.1746 29.4493 57.1544 29.4339 57.1373C29.4185 57.1201 29.3996 57.1065 29.3786 57.0972C29.3575 57.0879 29.3347 57.0832 29.3117 57.0833H26.5762C26.4675 57.0833 26.4131 57.1558 26.4131 57.2645V61.8297C26.4106 61.8526 26.4129 61.8757 26.4199 61.8976C26.427 61.9196 26.4386 61.9397 26.454 61.9569C26.4694 61.974 26.4882 61.9876 26.5093 61.9969C26.5303 62.0062 26.5531 62.011 26.5762 62.0108H27.0653C27.1559 62.0108 27.2102 61.9384 27.2102 61.8297V60.0724H29.058C29.0811 60.0726 29.1039 60.0678 29.1249 60.0585C29.146 60.0492 29.1648 60.0356 29.1802 60.0185C29.1956 60.0013 29.2073 59.9812 29.2143 59.9592C29.2213 59.9373 29.2236 59.9141 29.2211 59.8913V59.4203C29.2236 59.3974 29.2213 59.3742 29.2143 59.3523C29.2073 59.3304 29.1956 59.3102 29.1802 59.2931C29.1648 59.2759 29.146 59.2623 29.1249 59.253C29.1039 59.2437 29.0811 59.2389 29.058 59.2391H27.2102V57.9166H29.3117C29.3347 57.9168 29.3575 57.912 29.3786 57.9027C29.3996 57.8934 29.4185 57.8798 29.4339 57.8627C29.4493 57.8455 29.4609 57.8254 29.4679 57.8034C29.475 57.7815 29.4773 57.7584 29.4747 57.7355ZM33.8044 57.0833H33.3153C33.2247 57.0833 33.1704 57.1558 33.1704 57.2645V61.8297C33.1704 61.9384 33.2247 62.0108 33.3153 62.0108H33.8044C33.895 62.0108 33.9494 61.9384 33.9494 61.8297V57.2645C33.9494 57.1558 33.895 57.0833 33.8044 57.0833ZM37.9167 61.8297C37.9167 61.9384 37.9711 62.0108 38.0617 62.0108H38.5508C38.6414 62.0108 38.6957 61.9384 38.6957 61.8297V59.0579L41.3588 61.9203C41.4131 61.9927 41.4312 62.0108 41.4675 62.0108C41.5037 62.0108 41.5218 61.9927 41.5218 61.9384V57.2645C41.5218 57.1558 41.4675 57.0833 41.3588 57.0833H40.8696C40.7791 57.0833 40.7247 57.1558 40.7247 57.2645V60.0905L38.0798 57.1739C38.0254 57.1014 37.9892 57.0833 37.9711 57.0833C37.953 57.0833 37.9167 57.1014 37.9167 57.1558V61.8297ZM45.924 61.8659L46.1776 61.2318H48.1341L48.3878 61.8659C48.4421 61.9565 48.4965 62.0108 48.5689 62.0108H49.1124C49.2211 62.0108 49.2754 61.9021 49.2211 61.7934L47.2646 57.192C47.2283 57.0833 47.1921 57.0833 47.1559 57.0833C47.1196 57.0833 47.0834 57.0833 47.0472 57.192L45.0907 61.7934C45.0363 61.9021 45.0725 62.0108 45.1994 62.0108H45.7247C45.7671 62.0117 45.8084 61.9977 45.8415 61.9712C45.8746 61.9447 45.8974 61.9074 45.9059 61.8659H45.924ZM47.1559 58.8768L47.7356 60.4166H46.558L47.1559 58.8768ZM53.4602 61.1775V57.2645C53.4628 57.2416 53.4605 57.2184 53.4534 57.1965C53.4464 57.1746 53.4348 57.1544 53.4194 57.1373C53.404 57.1201 53.3851 57.1065 53.3641 57.0972C53.343 57.0879 53.3202 57.0832 53.2972 57.0833H52.808C52.7175 57.0833 52.6631 57.1558 52.6631 57.2645V61.8297C52.6631 61.9384 52.7175 62.0108 52.808 62.0108H55.4892C55.5979 62.0108 55.6522 61.9384 55.6522 61.8297V61.3587C55.6548 61.3358 55.6525 61.3126 55.6455 61.2907C55.6384 61.2688 55.6268 61.2486 55.6114 61.2315C55.596 61.2144 55.5771 61.2007 55.5561 61.1914C55.535 61.1821 55.5122 61.1774 55.4892 61.1775H53.4602ZM59.837 57.0833H59.3479C59.2573 57.0833 59.203 57.1558 59.203 57.2645V61.8297C59.203 61.9384 59.2573 62.0108 59.3479 62.0108H59.837C59.9276 62.0108 59.982 61.9384 59.982 61.8297V57.2645C59.982 57.1558 59.9276 57.0833 59.837 57.0833ZM64.0762 60.8333L63.9131 61.1413C63.8754 61.1976 63.86 61.2659 63.87 61.333C63.8801 61.4 63.9149 61.4609 63.9675 61.5036C64.4038 61.8978 64.9737 62.1115 65.5617 62.1014C66.5037 62.1014 67.1378 61.6123 67.1378 60.5978C67.1378 59.2934 66.0689 59.1847 65.5798 59.0579C65.0907 58.9311 64.6196 58.8405 64.6196 58.3876C64.6196 57.9347 65.0001 57.8804 65.308 57.8804C65.6818 57.8894 66.0432 58.0162 66.3407 58.2427C66.3842 58.2707 66.4368 58.2806 66.4875 58.2705C66.5382 58.2604 66.583 58.2309 66.6124 58.1884L66.8298 57.826C66.86 57.777 66.8711 57.7185 66.8611 57.6617C66.8511 57.605 66.8206 57.5539 66.7754 57.5181C66.3977 57.18 65.9054 56.9986 65.3986 57.0108C64.6921 57.0108 63.8225 57.355 63.8225 58.4782C63.8225 59.6014 64.9095 59.855 65.3986 59.9637C65.8878 60.0724 66.3407 60.1811 66.3407 60.6521C66.3407 61.1232 66.1414 61.2318 65.5436 61.2318C64.9457 61.2318 64.6559 60.9782 64.366 60.7789C64.344 60.7594 64.3175 60.7456 64.289 60.7386C64.2604 60.7316 64.2305 60.7317 64.202 60.7388C64.1735 60.746 64.1471 60.76 64.1252 60.7796C64.1032 60.7992 64.0864 60.8238 64.0762 60.8514V60.8333ZM73.2972 57.0833H70.4349C70.3443 57.0833 70.2899 57.1558 70.2899 57.2645V57.7355C70.2899 57.8442 70.3443 57.9166 70.4349 57.9166H71.4675V61.8297C71.4649 61.8526 71.4672 61.8757 71.4743 61.8976C71.4813 61.9196 71.4929 61.9397 71.5083 61.9569C71.5237 61.974 71.5426 61.9876 71.5636 61.9969C71.5847 62.0062 71.6075 62.011 71.6305 62.0108H72.1196C72.2102 62.0108 72.2646 61.9384 72.2646 61.8297V57.9166H73.2972C73.3202 57.9168 73.343 57.912 73.3641 57.9027C73.3851 57.8934 73.404 57.8798 73.4194 57.8627C73.4348 57.8455 73.4464 57.8254 73.4534 57.8034C73.4605 57.7815 73.4628 57.7584 73.4602 57.7355V57.2645C73.4628 57.2416 73.4605 57.2184 73.4534 57.1965C73.4464 57.1746 73.4348 57.1544 73.4194 57.1373C73.404 57.1201 73.3851 57.1065 73.3641 57.0972C73.343 57.0879 73.3202 57.0832 73.2972 57.0833Z" fill="white"/>
<path d="M27.4277 53.2607H71.1959V53.5868H27.4277V53.2607Z" fill="white"/>
</g>
<defs>
<linearGradient id="paint0_linear_30_58629" x1="50" y1="0" x2="50" y2="100" gradientUnits="userSpaceOnUse">
<stop stop-color="#262626"/>
<stop offset="1" stop-color="#111111"/>
</linearGradient>
<clipPath id="clip0_30_58629">
<rect width="72.4638" height="24.4203" fill="white" transform="translate(13.7676 37.6812)"/>
</clipPath>
</defs>
</svg>
