<svg width="118" height="80" viewBox="0 0 118 80" fill="none" xmlns="http://www.w3.org/2000/svg">
<path d="M29.9086 0.960119C44.8886 0.960119 59.1196 10.6971 59.1196 28.6731V51.3571C59.1196 69.3331 44.8886 79.0701 29.9086 79.0701C15.0356 79.0701 0.80463 69.3331 0.80463 51.3571V28.6731C0.80463 10.6971 15.0356 0.960119 29.9086 0.960119ZM29.9086 66.6581C38.5756 66.6581 45.9586 60.7731 45.9586 51.3571V28.6731C45.9586 19.2571 38.5756 13.3721 29.9086 13.3721C21.3486 13.3721 13.9656 19.2571 13.9656 28.6731V51.3571C13.9656 60.7731 21.3486 66.6581 29.9086 66.6581ZM100.951 65.5881H117.429V78.0001H71.2048V65.5881H87.6828V17.9731L72.9168 21.1831V8.12912L100.951 2.03012V65.5881Z" fill="url(#paint0_linear_30_59066)"/>
<defs>
<linearGradient id="paint0_linear_30_59066" x1="57.5" y1="-1.99988" x2="57.5" y2="78.0001" gradientUnits="userSpaceOnUse">
<stop stop-color="#404040"/>
<stop offset="1" stop-color="#242323"/>
</linearGradient>
</defs>
</svg>
