<svg width="50" height="50" viewBox="0 0 50 50" fill="none" xmlns="http://www.w3.org/2000/svg">
<path fill-rule="evenodd" clip-rule="evenodd" d="M24.9993 45.8335C36.5053 45.8335 45.8327 36.5061 45.8327 25.0001C45.8327 13.4942 36.5053 4.16681 24.9993 4.16681C13.4934 4.16681 4.16602 13.4942 4.16602 25.0001C4.16602 36.5061 13.4934 45.8335 24.9993 45.8335ZM25.9778 17.6453C26.588 17.0351 27.5773 17.0351 28.1875 17.6453L34.4375 23.8953C35.0477 24.5055 35.0477 25.4948 34.4375 26.105L28.1875 32.355C27.5773 32.9652 26.588 32.9652 25.9778 32.355C25.3676 31.7448 25.3676 30.7555 25.9778 30.1453L29.5605 26.5626H16.666C15.8031 26.5626 15.1035 25.8631 15.1035 25.0001C15.1035 24.1372 15.8031 23.4376 16.666 23.4376H29.5605L25.9778 19.855C25.3676 19.2448 25.3676 18.2555 25.9778 17.6453Z" fill="black"/>
</svg>
