<svg width="100" height="100" viewBox="0 0 100 100" fill="none" xmlns="http://www.w3.org/2000/svg">
<rect width="100" height="100" rx="50" fill="url(#paint0_linear_30_58672)"/>
<g clip-path="url(#clip0_30_58672)">
<path fill-rule="evenodd" clip-rule="evenodd" d="M35.1211 60.5823H35.5715L50.1401 85.6346L64.6775 60.5823H65.159L50.1401 86.4733L35.3385 60.9861L35.1211 60.5823Z" fill="white"/>
<path fill-rule="evenodd" clip-rule="evenodd" d="M39.7793 60.5823H40.9597L50.1388 76.3467L59.2869 60.5823H60.4828L50.1388 78.428L40.2763 61.4831L39.7793 60.5823Z" fill="white"/>
<path d="M34.6698 32.7809C34.6698 32.548 34.7786 32.5014 35.3222 32.5014C36.456 32.5014 37.0928 33.7284 37.0928 35.9804C37.0928 39.0091 36.2541 39.5993 35.3222 39.5993C34.7786 39.5993 34.6698 39.4595 34.6698 39.1799V32.7809ZM32.3867 32.082V32.4393C32.9924 32.4703 33.0856 32.5324 33.0856 33.1071V38.9935C33.0856 39.5682 33.0235 39.6303 32.3867 39.6614V40.0186H35.0581C36.4249 40.0186 38.8168 39.8478 38.8168 35.8872C38.8168 34.5826 38.5993 33.6507 38.0557 32.9984C37.5121 32.3461 36.7511 32.082 35.5241 32.082H32.3867Z" fill="white"/>
<path d="M42.8403 37.0986C43.182 37.0986 43.3528 37.021 43.3528 36.6482C43.3528 35.7319 43.1043 34.303 41.2871 34.303C39.4699 34.303 39.0195 35.6387 39.0195 37.2229C39.0195 38.8071 39.5165 40.1739 41.2716 40.1584C42.3743 40.1584 42.9645 39.4905 43.2907 38.4344L43.0422 38.2635C42.7316 39.0556 42.2967 39.3197 41.7531 39.3197C40.8522 39.3197 40.5416 38.3878 40.5416 37.0986H42.8403ZM40.5416 36.6638C40.5416 35.7163 40.6969 34.7223 41.2561 34.7223C41.8152 34.7223 41.8929 35.5921 41.8929 36.3065C41.8929 36.6016 41.7997 36.6638 41.5978 36.6638H40.5416Z" fill="white"/>
<path d="M48.1673 36.058C48.1673 35.0019 47.7479 34.303 46.7849 34.303C46.2724 34.303 45.8375 34.6291 45.2163 35.0796L45.092 34.303L43.2438 34.6447V34.9864L43.5389 35.0485C43.6786 35.064 43.7563 35.1727 43.7563 35.6232V39.1488C43.7563 39.5992 43.6942 39.6303 43.1816 39.6769V40.0186H45.6667V39.6769C45.4026 39.6303 45.2163 39.6613 45.2163 39.1954V36.291C45.2046 36.0656 45.2309 35.8399 45.2939 35.6232C45.34 35.4685 45.434 35.3325 45.5625 35.2348C45.6909 35.1371 45.847 35.0827 46.0084 35.0796C46.4743 35.0796 46.7073 35.4523 46.7073 36.1046V39.2265C46.7073 39.6769 46.5209 39.6303 46.2413 39.6769V40.0186H48.7419V39.6769C48.2294 39.6303 48.1673 39.6148 48.1673 39.1643V36.058Z" fill="white"/>
<path d="M51.133 34.9398V34.4428H50.2166V33.0139H49.6575L48.8188 34.4428H48.2441V34.9398H48.7722V38.6829C48.7722 39.7235 49.3313 40.1584 49.8594 40.1584C50.3875 40.1584 50.7136 40.0031 51.2728 39.5371L51.1951 39.2576C51.0644 39.3224 50.9216 39.3594 50.7758 39.3663C50.4341 39.3663 50.2166 39.0557 50.2166 38.3412V34.9398H51.133Z" fill="white"/>
<path d="M52.6252 31.8958C52.1282 31.8958 51.8642 32.3462 51.8642 32.8276C51.8642 33.3091 52.1282 33.7906 52.6252 33.7906C53.1222 33.7906 53.4018 33.3402 53.4018 32.8276C53.4018 32.3151 53.1222 31.8958 52.6252 31.8958ZM51.9263 39.1334C51.9263 39.5838 51.8642 39.646 51.3672 39.677V40.0187H53.9609V39.677C53.4484 39.6304 53.3863 39.5838 53.3863 39.1334V34.3653L53.3242 34.3187L51.4138 34.6448V34.9865L51.7244 35.0486C51.8642 35.0797 51.9263 35.1729 51.9263 35.6233V39.1334Z" fill="white"/>
<path d="M57.1603 36.229V34.6914C56.7559 34.4238 56.2783 34.2881 55.7936 34.3031C54.6908 34.3031 53.9919 34.9865 53.9919 36.1358C53.9919 36.9745 54.3802 37.5026 55.2966 37.953C55.8402 38.2326 56.2284 38.5277 56.2284 39.0402C56.2284 39.5528 55.9799 39.7547 55.6072 39.7547C55.2344 39.7547 54.4734 38.8539 54.2404 37.922H53.9453L54.0696 39.6304C54.3802 40.0187 55.0791 40.1585 55.5761 40.1585C56.6789 40.1585 57.471 39.5372 57.471 38.2637C57.471 37.3162 57.0206 36.8503 56.1663 36.4465C55.6072 36.1669 55.2034 35.9029 55.2034 35.4214C55.2034 34.9399 55.3897 34.7225 55.7936 34.7225C56.1974 34.7225 56.7099 35.3593 56.8963 36.229H57.1603Z" fill="white"/>
<path d="M60.2971 34.9398V34.4428H59.3807V33.0139H58.8371L57.9829 34.4428H57.4082V34.9398H57.9363V38.6829C57.9363 39.7235 58.4954 40.1584 59.0235 40.1584C59.5515 40.1584 59.8932 40.0031 60.4368 39.5371L60.3592 39.2576C60.2284 39.3224 60.0856 39.3594 59.9398 39.3663C59.5981 39.3663 59.3807 39.0557 59.3807 38.3412V34.9398H60.2971Z" fill="white"/>
<path d="M62.5034 36.4463C62.5034 35.8872 62.5655 35.6232 62.7985 35.6232C63.0314 35.6232 63.078 35.7319 63.2644 35.9183C63.3134 35.985 63.3762 36.0404 63.4486 36.0806C63.521 36.1208 63.6012 36.1449 63.6838 36.1512C64.1342 36.1512 64.3672 35.5921 64.3672 35.1261C64.3672 34.6602 64.1031 34.303 63.6993 34.303C63.2955 34.303 63.0159 34.6447 62.4568 35.3902L62.3481 34.303L60.5309 34.6447V34.9864L60.8415 35.0485C60.9658 35.064 61.0434 35.1727 61.0434 35.6232V39.1177C61.0434 39.5992 60.9813 39.6303 60.4688 39.6613V40.0186H63.2644V39.6613C62.5655 39.6148 62.5034 39.5992 62.5034 39.1177V36.4463Z" fill="white"/>
<path d="M67.8464 34.4429V34.8001L68.3279 34.8778C68.4677 34.8933 68.5143 34.9709 68.4677 35.2194C68.2192 36.2911 67.9241 37.5336 67.6445 38.5277H67.629C67.3339 37.6113 66.8835 36.2756 66.6039 35.2505C66.5418 35.0175 66.5573 34.9088 66.6971 34.8778L67.0543 34.8001V34.4429H64.3984V34.8001C64.8023 34.8778 64.8799 34.8622 65.0508 35.3282C65.5322 36.6639 66.2001 38.6053 66.7437 40.2517C66.8058 40.4846 66.9301 40.935 66.8524 41.1214C66.7748 41.3078 66.6194 41.6495 66.4331 41.6495C66.2954 41.6224 66.1701 41.5516 66.0758 41.4476C65.8739 41.2612 65.8273 41.2146 65.6565 41.2146C65.4856 41.2146 65.0352 41.7116 65.0352 42.162C65.0352 42.3571 65.1116 42.5444 65.2481 42.6838C65.3845 42.8231 65.5702 42.9035 65.7652 42.9075C66.4331 42.9075 66.8369 42.4416 67.3339 40.8108C67.8309 39.18 68.4366 37.0832 68.9181 35.5922C69.1355 34.9554 69.1511 34.8622 69.6791 34.8001V34.4429H67.8464Z" fill="white"/>
<path d="M35.7411 44.088V43.9482C35.4926 43.9482 35.4304 43.9016 35.3528 43.7307C35.1198 43.1095 34.6073 41.5408 34.3588 40.7487H33.7375C33.4424 41.6495 32.8833 43.2959 32.6969 43.7152C32.6037 43.886 32.5726 43.9326 32.3086 43.9482V44.1035H33.3803V43.9482L33.0852 43.9171C32.9764 43.9171 32.9764 43.855 32.992 43.7618C33.0075 43.6686 33.1473 43.2182 33.2405 42.892H34.219C34.2966 43.1095 34.4209 43.4978 34.4985 43.7463C34.5762 43.9948 34.5141 43.9016 34.4209 43.9171L34.1258 43.9482V44.1035H35.7411V44.088ZM34.1413 42.6901H33.3181C33.4113 42.3795 33.6443 41.6184 33.722 41.3855H33.7375C33.8307 41.6961 34.0637 42.4106 34.1413 42.6901ZM39.0959 40.7797V40.9195L39.391 40.9506C39.4841 40.9661 39.4841 41.0283 39.4686 41.137C39.3288 41.867 39.1425 42.6125 38.9405 43.358H38.925C38.7542 42.7833 38.3503 41.4787 38.195 40.8419H37.6359C37.5738 41.1525 37.201 43.0008 37.1234 43.3269H37.1078C36.968 42.8144 36.6264 41.4787 36.5487 41.1214C36.5332 41.0283 36.5176 40.9661 36.6264 40.9506L36.8438 40.9195V40.7797H35.3528V40.9195C35.5857 40.9351 35.6479 40.9817 35.6945 41.137C35.9896 42.0999 36.2691 43.1561 36.5176 44.1035H37.1389C37.1389 44.1501 37.667 41.7738 37.6514 41.8204H37.667C37.7601 42.1621 38.1795 43.6375 38.3038 44.1035H38.9405C39.158 43.2648 39.5152 41.9757 39.7637 41.1836C39.8258 40.9661 39.8724 40.9506 40.1365 40.9195V40.7797H39.0959ZM43.0719 44.1035V43.9482C42.8234 43.9482 42.7613 43.9016 42.6992 43.7307C42.4662 43.1095 41.9537 41.5408 41.6896 40.7487H41.0839C40.7888 41.6495 40.2141 43.2959 40.0277 43.7152C39.9501 43.886 39.9035 43.9326 39.655 43.9482V44.1035H40.7111V43.9482L40.416 43.9171C40.3073 43.9171 40.3073 43.855 40.3384 43.7618C40.4026 43.4669 40.4856 43.1763 40.5869 42.892H41.5498C41.6275 43.1095 41.7517 43.4978 41.8294 43.7463C41.9071 43.9948 41.8449 43.9016 41.7517 43.9171L41.4566 43.9482V44.1035H43.0719ZM41.4877 42.7057H40.649C40.7422 42.3795 40.9907 41.6184 41.0528 41.3855H41.0684C41.1771 41.6961 41.3945 42.4106 41.4877 42.7057ZM44.33 42.5348H44.5008C44.7804 42.5348 44.9046 42.5969 44.9823 42.9542C45.0097 43.1753 45.0565 43.3936 45.1221 43.6065C45.2463 43.9637 45.4638 44.1035 46.0074 44.1035H46.3801V43.9482C46.0695 43.9326 46.0229 43.7463 45.9142 43.2493C45.8055 42.7522 45.6346 42.5348 45.1221 42.4106V42.3795C45.6502 42.3174 45.9608 42.0378 45.9608 41.5874C45.9608 40.8574 45.4172 40.7797 44.858 40.7797H43.1496V40.9195C43.4757 40.9351 43.5068 40.9661 43.5068 41.1991V43.6686C43.5068 43.9016 43.4757 43.9326 43.1496 43.9482V44.088H44.7027V43.9482C44.3766 43.9326 44.33 43.9016 44.33 43.6686V42.5348ZM44.33 41.1059C44.33 40.9817 44.3455 40.9506 44.594 40.9506C44.8425 40.9506 45.1065 41.1836 45.1065 41.6495C45.1065 42.1155 45.0289 42.3484 44.5008 42.3484H44.33V41.1214V41.1059ZM47.6071 41.0748C47.6071 40.9661 47.6692 40.9506 47.9488 40.9506C48.5545 40.9506 48.8807 41.4631 48.8807 42.4106C48.8807 43.6686 48.4458 43.9171 47.9488 43.9171C47.4518 43.9171 47.6071 43.855 47.6071 43.7463V41.0748ZM46.4267 40.7797V40.9195C46.7374 40.9351 46.784 40.9661 46.784 41.1991V43.6686C46.784 43.9016 46.7529 43.9326 46.4267 43.9482V44.1035H47.8246C48.5235 44.1035 49.7815 44.0258 49.7815 42.364C49.7815 41.8204 49.6573 41.4321 49.3777 41.1525C49.0981 40.8729 48.6943 40.7797 48.0575 40.7797H46.4267ZM52.3132 41.7116V40.904C52.0351 40.7593 51.7258 40.6846 51.4123 40.6866C50.5581 40.6866 50.2164 41.1214 50.2164 41.6961C50.2164 42.2708 50.6513 42.5503 51.1483 42.7833C51.6453 43.0163 51.7696 43.1716 51.7696 43.4822C51.7696 43.7929 51.6142 43.9948 51.2415 43.9948C50.8687 43.9948 50.5115 43.622 50.3096 43.0163H50.1698L50.2475 43.9016C50.5115 44.1346 50.9464 44.1811 51.2415 44.1811C52.22 44.1811 52.4995 43.6375 52.4995 43.125C52.4995 42.6125 52.0491 42.2863 51.6298 42.0999C51.2104 41.9135 50.8998 41.7582 50.8998 41.3699C50.8952 41.3035 50.9049 41.2368 50.9283 41.1744C50.9516 41.1121 50.9881 41.0554 51.0352 41.0083C51.0823 40.9612 51.1389 40.9247 51.2013 40.9014C51.2637 40.878 51.3304 40.8683 51.3968 40.8729C51.723 40.8729 52.0336 41.137 52.1734 41.7116H52.3132ZM56.2116 43.1561L56.0718 43.125C55.8854 43.4667 55.8078 43.4978 55.668 43.4978H54.1925C54.2857 43.3424 54.6274 43.1095 55.1865 42.8454C55.7456 42.5814 56.0407 42.3018 56.0407 41.8048C56.0407 41.3078 55.5748 40.8574 54.9225 40.8574C54.2701 40.8574 53.7731 41.2457 53.7731 41.6495C53.7811 41.7415 53.8243 41.8269 53.8938 41.8877C53.9633 41.9485 54.0536 41.98 54.1459 41.9757C54.2012 41.9802 54.2561 41.9634 54.2994 41.9287C54.3427 41.8941 54.3711 41.8442 54.3789 41.7893C54.472 41.2768 54.5808 41.0438 54.8448 41.0438C55.1088 41.0438 55.202 41.3078 55.202 41.634C55.202 41.9601 55.1865 42.3174 54.6429 42.7833C54.0993 43.2493 53.7421 43.7307 53.7421 44.0569L53.7731 44.1035H56.0097L56.2116 43.1561ZM57.5939 41.0438C57.9822 41.0438 57.9822 41.9446 57.9822 42.5037C57.9822 43.0629 57.9666 43.9792 57.6094 43.9792C57.2522 43.9792 57.2056 43.0939 57.2056 42.5037C57.2056 41.9135 57.2056 41.0438 57.5939 41.0438ZM57.5939 40.8574C56.662 40.8574 56.3824 41.634 56.3824 42.5037C56.3824 43.3735 56.662 44.1501 57.5939 44.1501C58.5258 44.1501 58.8053 43.3735 58.8053 42.5037C58.8053 41.634 58.5102 40.8574 57.6094 40.8574H57.5939ZM61.4923 43.1561L61.3525 43.125C61.1661 43.4667 61.0885 43.4978 60.9487 43.4978H59.4732C59.5664 43.3424 59.9081 43.1095 60.4672 42.8454C61.0263 42.5814 61.3214 42.3018 61.3214 41.8048C61.3214 41.3078 60.8555 40.8574 60.2032 40.8574C59.5508 40.8574 59.0538 41.2457 59.0538 41.6495C59.0618 41.7415 59.105 41.8269 59.1745 41.8877C59.244 41.9485 59.3344 41.98 59.4266 41.9757C59.4531 41.9778 59.4798 41.9746 59.5051 41.9664C59.5304 41.9582 59.5539 41.945 59.5741 41.9277C59.5943 41.9104 59.6109 41.8892 59.6229 41.8655C59.6349 41.8417 59.6421 41.8158 59.644 41.7893C59.7528 41.2768 59.8615 41.0438 60.1255 41.0438C60.3895 41.0438 60.4827 41.3078 60.4827 41.634C60.4827 41.9601 60.4517 42.3174 59.9236 42.7833C59.3955 43.2493 59.0228 43.7307 59.0228 44.0569L59.0538 44.1035H61.2748L61.4923 43.1561ZM62.1757 42.395C62.1732 42.4181 62.176 42.4414 62.1837 42.4632C62.1914 42.485 62.2039 42.5049 62.2203 42.5212C62.2367 42.5376 62.2565 42.5501 62.2783 42.5579C62.3002 42.5656 62.3235 42.5683 62.3465 42.5659C62.4552 42.5659 62.564 42.5037 62.7503 42.5037C62.9367 42.5037 63.1852 42.5814 63.1852 43.2027C63.1852 43.8239 63.092 43.9792 62.7969 43.9792C62.5018 43.9792 62.4242 43.855 62.2689 43.4046C62.2378 43.2959 62.1757 43.2182 62.0669 43.2182C61.9681 43.2182 61.8733 43.2575 61.8034 43.3274C61.7335 43.3973 61.6942 43.4921 61.6942 43.5909C61.6942 43.7618 61.8961 44.1501 62.7969 44.1501C63.6978 44.1501 64.0394 43.7929 64.0394 43.1871C64.0394 42.5814 63.3716 42.4261 63.1076 42.3795V42.3329C63.4337 42.2552 63.8997 42.1465 63.8997 41.6495C63.8997 41.1525 63.2939 40.8574 62.7969 40.8574C62.2999 40.8574 61.7563 41.1525 61.7563 41.4942C61.7642 41.578 61.8042 41.6554 61.8679 41.7104C61.9315 41.7654 62.014 41.7937 62.098 41.7893C62.2067 41.7893 62.2533 41.7272 62.2844 41.6184C62.4086 41.2457 62.5018 41.0438 62.7348 41.0438C62.9678 41.0438 63.0765 41.4321 63.0765 41.634C63.0765 41.8359 63.0454 42.2863 62.7503 42.2863C62.4552 42.2863 62.4552 42.2242 62.331 42.2242C62.2067 42.2242 62.1757 42.2708 62.1757 42.395Z" fill="white"/>
<path d="M38.9561 30.6531L38.8163 31.0569C38.8058 31.0759 38.8005 31.0973 38.8008 31.119C38.8008 31.1355 38.8073 31.1513 38.819 31.163C38.8306 31.1746 38.8464 31.1811 38.8629 31.1811C38.9406 31.1811 38.9716 31.0569 39.0804 30.9948C39.1891 30.9326 39.5463 30.8239 39.9657 30.8239V33.4332C39.9657 33.573 39.9657 33.6041 39.8569 33.6041H39.4997V33.7594H41.0218V33.6041H40.7578C40.5403 33.6041 40.5248 33.4798 40.5248 32.9673V30.8239C40.9286 30.8239 41.2082 30.8705 41.3946 30.9792C41.5809 31.088 41.5499 31.1811 41.6275 31.1811C41.7052 31.1811 41.6741 31.1656 41.6741 31.119C41.6745 31.0973 41.6691 31.0759 41.6586 31.0569L41.5343 30.6531H38.9561ZM41.7673 30.6531V30.8084H41.9226C42.1401 30.8084 42.1556 30.9482 42.1556 31.4452V33.4332C42.1556 33.573 42.1556 33.6041 42.0469 33.6041H41.8605V33.7594H43.1341V33.6041H42.9477C42.7303 33.6041 42.7147 33.4798 42.7147 32.9673V32.1596H44.097V33.4332C44.097 33.573 44.097 33.6041 43.9883 33.6041H43.8019V33.7594H45.06V33.6041H44.8891C44.6717 33.6041 44.6562 33.4798 44.6562 32.9673V30.9482C44.6562 30.8395 44.6562 30.8084 44.7649 30.8084H44.9513V30.6531H43.6932V30.8084H43.8641C44.097 30.8084 44.097 30.9482 44.097 31.4452V31.9733H42.7147V30.9326C42.7147 30.8395 42.7303 30.8084 42.8235 30.8084H43.0098V30.6531H41.7673ZM45.3396 30.6531V30.8084H45.4949C45.7123 30.8084 45.7278 30.9326 45.7278 31.4452V33.4798C45.7278 33.573 45.7278 33.6041 45.6191 33.6041H45.4327V33.7594H47.7625L47.8867 33.34V33.2779C47.8867 33.2655 47.8818 33.2537 47.8731 33.245C47.8643 33.2362 47.8525 33.2313 47.8401 33.2313C47.7469 33.2313 47.6848 33.4022 47.514 33.4643C47.2864 33.5525 47.0435 33.5947 46.7995 33.5885H46.52C46.3025 33.5885 46.287 33.4643 46.287 32.9517V32.1286H46.8306C47.1878 32.1286 47.2965 32.1441 47.2965 32.2839V32.4547H47.4518V31.6005H47.2965V31.7403C47.2965 31.9267 47.1723 31.9577 46.7063 31.9577H46.287V30.9326C46.287 30.855 46.3025 30.8239 46.4112 30.8239H46.7063C47.1101 30.8239 47.3742 30.886 47.4674 30.9482C47.5606 31.0103 47.5761 31.1346 47.6382 31.1346C47.7003 31.1346 47.6848 31.119 47.7003 31.0569L47.7625 30.6531H45.3396Z" fill="white"/>
<path fill-rule="evenodd" clip-rule="evenodd" d="M19.8066 26.0869L21.6083 27.2052H78.3293L80.1931 26.1335H20.6609L19.8066 26.0869Z" fill="white"/>
<path fill-rule="evenodd" clip-rule="evenodd" d="M21.5928 29.333L32.6512 48.1416L33.9248 48.1106L21.6083 27.2052L19.8066 26.0869L21.5928 29.333Z" fill="white"/>
<path fill-rule="evenodd" clip-rule="evenodd" d="M67.6126 48.1106L80.1931 26.1335L78.3293 27.2052L66.1992 48.1261L67.6126 48.1106Z" fill="white"/>
<path d="M40.9763 52.0555V53.6863C40.9763 53.997 40.9452 54.028 40.4793 54.0436V54.2455H42.6537V54.0436C42.1877 54.028 42.1411 53.9814 42.1411 53.6863V50.4558C42.1411 50.1607 42.1877 50.1141 42.6537 50.0986V49.9122H40.4793V50.0986C40.9297 50.1141 40.9763 50.1607 40.9763 50.4558V51.807H39.3455V50.4558C39.3455 50.1452 39.4076 50.1141 39.8891 50.0986V49.9122H37.6836V50.0986C38.1495 50.1141 38.1961 50.1452 38.1961 50.4558V53.6863C38.1961 53.997 38.1495 54.028 37.6836 54.0436V54.2455H39.8891V54.0436C39.3921 54.028 39.3455 53.9814 39.3455 53.6863V52.0555H40.9763ZM44.6417 50.4713C44.6417 50.1452 44.7038 50.1141 45.1542 50.0986V49.9122H42.9798V50.0986C43.4458 50.1141 43.4924 50.1452 43.4924 50.4713V53.6863C43.4924 53.997 43.4458 54.028 42.9798 54.0436V54.2455H45.1542V54.0436C44.7038 54.028 44.6417 53.997 44.6417 53.6863V50.4713ZM49.7516 52.77C49.7516 52.4749 49.8137 52.4438 50.1088 52.4128V52.2264H48.012V52.4128C48.4935 52.4438 48.5556 52.4749 48.5556 52.7855V53.8417C48.5556 53.9504 48.5556 54.028 48.4625 54.0591C48.3492 54.1051 48.2274 54.1263 48.1052 54.1212C46.8938 54.1212 46.8316 52.4594 46.8316 52.04C46.8316 51.6207 46.9559 50.0209 48.1363 50.0209C48.9284 50.0209 49.2235 50.6422 49.472 51.2324H49.6894V50.0986C49.2235 49.8656 48.6333 49.8035 48.1052 49.8035C45.8687 49.8035 45.5581 51.31 45.5581 52.1021C45.5581 53.1583 45.9464 53.7019 46.4589 54.028C46.9714 54.3542 47.6548 54.3542 48.0742 54.3542C48.6468 54.3457 49.2139 54.2407 49.7516 54.0436V52.77ZM53.6966 52.0555V53.6863C53.6966 53.997 53.6655 54.028 53.184 54.0436V54.2455H55.374V54.0436C54.908 54.028 54.8614 53.9814 54.8614 53.6863V50.4558C54.8614 50.1607 54.8925 50.1141 55.374 50.0986V49.9122H53.184V50.0986C53.65 50.1141 53.6966 50.1607 53.6966 50.4558V51.807H52.0658V50.4558C52.0658 50.1452 52.1279 50.1141 52.5938 50.0986V49.9122H50.4039V50.0986C50.8698 50.1141 50.9164 50.1452 50.9164 50.4558V53.6863C50.9164 53.997 50.8698 54.028 50.4039 54.0436V54.2455H52.5938V54.0436C52.0968 54.028 52.0658 53.9814 52.0658 53.6863V52.0555H53.6966ZM57.362 50.4713C57.362 50.1607 57.4086 50.1141 57.9522 50.0986V49.9122H55.6846V50.0986C56.1661 50.1141 56.2127 50.1607 56.2127 50.4713V53.6863C56.2127 53.997 56.1661 54.028 55.6846 54.0436V54.2455H59.35L59.4277 52.9719H59.2103C58.9618 53.5621 58.853 53.997 58.0609 53.997C57.5329 53.997 57.362 53.9348 57.362 53.5466V50.4713ZM62.4719 54.2455V54.0436C61.8817 54.028 61.8351 53.997 61.8351 53.6863V52.5836C61.8356 52.4202 61.8784 52.2597 61.9593 52.1177C62.2389 51.5741 62.5651 50.9528 62.8912 50.4247C63.0465 50.1918 63.1553 50.1452 63.5125 50.1141V49.9122H62.0059V50.1141L62.3631 50.1452C62.4874 50.1607 62.534 50.2383 62.4719 50.3937C62.4097 50.549 61.9749 51.5275 61.6798 52.1021H61.6642C61.4313 51.6983 60.9653 50.8596 60.7013 50.3471C60.6547 50.2539 60.6236 50.1607 60.7945 50.1452L61.1517 50.1141V49.9122H58.9307V50.1141C59.2879 50.1296 59.3345 50.1918 59.5054 50.4713C59.6762 50.7509 60.2819 51.7449 60.5304 52.2108C60.6156 52.3404 60.664 52.4908 60.6702 52.6457V53.6863C60.6702 53.997 60.6081 54.028 60.0334 54.0436V54.2455H62.4719Z" fill="white"/>
<path d="M31.3621 57.9731C31.0515 58.7497 30.7564 59.2467 29.9798 59.2467C28.7684 59.2467 28.5975 57.9887 28.5975 57.15C28.5975 56.684 28.6441 55.1619 29.9022 55.1619C30.8185 55.1619 31.0826 55.8919 31.2689 56.3423H31.4864V55.2241C31.0515 54.9756 30.2749 54.929 29.9643 54.929C28.9082 54.929 28.2869 55.193 27.8675 55.5968C27.4482 56.0006 27.2773 56.6064 27.2773 57.2587C27.2773 58.6099 27.9607 59.4797 29.84 59.4797C30.3215 59.4797 31.0515 59.4176 31.5019 59.1846L31.5796 57.9731H31.3621ZM34.4995 55.1619C35.4935 55.1619 35.5712 56.42 35.5712 57.2121C35.5712 58.0042 35.4935 59.2622 34.4995 59.2622C33.5055 59.2622 33.4123 58.0663 33.4123 57.2121C33.4123 56.3579 33.5055 55.1619 34.484 55.1619H34.4995ZM34.4995 54.929C32.8532 54.929 32.0921 55.7832 32.0921 57.2121C32.0921 58.641 32.8532 59.4797 34.4995 59.4797C36.1458 59.4797 36.8913 58.641 36.8913 57.2121C36.8913 55.7832 36.1303 54.929 34.4995 54.929ZM38.926 59.3865V59.1846C38.4911 59.138 38.2892 59.2156 38.2271 58.7342C38.197 58.4245 38.1866 58.1133 38.196 57.8023V55.69H38.2115C38.6619 56.7151 39.3298 58.3614 39.7336 59.3865H40.1374C40.4015 58.641 41.147 56.684 41.5353 55.6745H41.5663V58.8118C41.5663 59.138 41.4887 59.1535 41.0383 59.1846V59.3865H43.2437V59.1846C42.7622 59.1691 42.7157 59.138 42.7157 58.8118V55.6123C42.7157 55.2862 42.7622 55.2551 43.2437 55.2396V55.0532H41.5042C41.178 55.8608 40.7587 56.9636 40.4015 57.8178H40.3704C40.153 57.3363 39.4074 55.7521 39.1123 55.0532H37.3107V55.2396C37.7922 55.2551 37.8698 55.2862 37.8698 55.5968V57.8023C37.8754 58.1136 37.8598 58.425 37.8232 58.7342C37.7922 59.1846 37.6834 59.1225 37.233 59.1846V59.3865H38.926ZM45.1852 59.3865V59.1846C44.7503 59.138 44.5484 59.2156 44.4862 58.7342C44.4707 58.5167 44.4552 58.2372 44.4552 57.8023V55.69H44.4707C44.9211 56.7151 45.589 58.3614 46.0083 59.3865H46.3966C46.6607 58.641 47.4062 56.684 47.7945 55.6745H47.8255V58.8118C47.8255 59.138 47.7634 59.1535 47.2974 59.1846V59.3865H49.5185V59.1846C49.0214 59.1691 48.9749 59.138 48.9749 58.8118V55.6123C48.9749 55.2862 49.0214 55.2551 49.5185 55.2396V55.0532H47.7789C47.4372 55.8608 47.0179 56.9636 46.6607 57.8178H46.6296C46.4122 57.3363 45.6666 55.7521 45.3715 55.0532H43.5699V55.2396C44.0514 55.2551 44.129 55.2862 44.129 55.5968V57.8023C44.129 58.2216 44.1135 58.5167 44.098 58.7342C44.0514 59.1846 43.9426 59.1225 43.5078 59.1846V59.3865H45.1852ZM50.3882 58.8118C50.3882 59.138 50.3261 59.1691 49.8446 59.1846V59.3865H53.7896L53.9139 58.0663H53.6964C53.4324 58.7031 53.246 59.1225 52.4073 59.1225C51.5686 59.1225 51.5686 59.0759 51.5686 58.6876V57.2742H52.1743C52.6558 57.2742 52.7335 57.3985 52.8733 57.8955H53.0907V56.4044H52.8733C52.7335 56.917 52.6403 56.9946 52.1743 56.9946H51.5686V55.5192C51.5686 55.3483 51.6307 55.3017 51.8171 55.3017H52.2986C53.013 55.3017 53.1994 55.5968 53.4324 56.2181H53.6498V55.0532H49.8291V55.2396C50.3106 55.2706 50.3882 55.2862 50.3882 55.6123V58.8118ZM58.4957 59.3865V56.6374C58.4957 56.2025 58.5112 55.9074 58.5267 55.6745C58.5423 55.4415 58.651 55.2862 59.0703 55.2396V55.0532H57.4085V55.2396C57.8589 55.2706 58.0763 55.193 58.1229 55.6745C58.1593 55.9941 58.1748 56.3158 58.1695 56.6374V58.0042H58.1384C57.424 57.0412 56.6163 56.0317 55.9019 55.0532H54.2711V55.2396C54.7681 55.2862 54.8147 55.3172 54.8147 55.5813V57.7868C54.8147 58.2527 54.7992 58.5167 54.7836 58.7342C54.7681 58.9516 54.6438 59.138 54.209 59.1846V59.3865H55.8864V59.1846C55.4515 59.138 55.234 59.2156 55.1875 58.7342C55.157 58.4245 55.1467 58.1133 55.1564 57.8023V55.9074H55.1719C56.0261 57.0568 56.9114 58.2682 57.7191 59.3865H58.4957ZM61.0273 55.426C61.0273 55.3017 61.1205 55.2706 61.5243 55.2706C62.3941 55.2706 62.86 55.9385 62.86 57.181C62.86 58.8274 62.2388 59.1535 61.5243 59.1535C61.1049 59.1535 61.0273 59.0759 61.0273 58.9206V55.426ZM59.3033 55.0532V55.2396C59.7537 55.2551 59.8314 55.2862 59.8314 55.6123V58.8118C59.8314 59.1225 59.7848 59.1691 59.3033 59.1846V59.3865H61.3224C62.363 59.3865 64.1802 59.2933 64.1802 57.1344C64.1802 56.42 64.0093 55.9074 63.6055 55.5502C63.2017 55.193 62.6115 55.0532 61.6796 55.0532H59.3033ZM65.1431 58.8118C65.1431 59.138 65.0965 59.1691 64.6151 59.1846V59.3865H68.5601L68.6843 58.0663H68.4669C68.2028 58.7031 68.0165 59.1225 67.1778 59.1225C66.3391 59.1225 66.3391 59.0759 66.3391 58.6876V57.2742H66.9448C67.4263 57.2742 67.5039 57.3985 67.6282 57.8955H67.8611V56.4044H67.6282C67.5039 56.917 67.4107 56.9946 66.9448 56.9946H66.3391V55.5192C66.3391 55.3483 66.4012 55.3017 66.5876 55.3017H67.069C67.7835 55.3017 67.9699 55.5968 68.1873 56.2181H68.4203V55.0532H64.5995V55.2396C65.081 55.2706 65.1431 55.2862 65.1431 55.6123V58.8118ZM70.7811 55.426C70.7811 55.3017 70.8743 55.2862 71.2781 55.2862C72.1323 55.2706 72.6138 55.9385 72.6138 57.181C72.6138 58.8274 71.9925 59.1535 71.2781 59.1535C70.8587 59.1535 70.7811 59.0759 70.7811 58.9206V55.426ZM69.0571 55.0532V55.2396C69.5075 55.2551 69.5851 55.2862 69.5851 55.6123V58.8274C69.5851 59.138 69.5386 59.1691 69.0571 59.1846V59.3865H71.0762C72.1168 59.3865 73.934 59.2933 73.934 57.1344C73.934 56.42 73.7631 55.9074 73.3438 55.5502C72.9244 55.193 72.3498 55.0532 71.4334 55.0532H69.0571Z" fill="white"/>
<path fill-rule="evenodd" clip-rule="evenodd" d="M75.2844 34.4119H79.9904L72.0694 48.0641H71.5879L79.2605 34.8467H75.0359L75.2844 34.4119Z" fill="white"/>
<path fill-rule="evenodd" clip-rule="evenodd" d="M30.2441 62.7722H70.1135V72.2464H30.2441V62.7722Z" fill="white"/>
<path fill-rule="evenodd" clip-rule="evenodd" d="M70.0207 66.8259C70.0207 66.8259 72.4437 67.6025 73.7172 68.3946L71.7292 71.7805L74.1832 78.3037C74.1832 78.3037 69.8499 74.3432 61.4629 74.7936L70.0207 72.2464V66.8259Z" fill="white"/>
<path fill-rule="evenodd" clip-rule="evenodd" d="M70.0207 72.2466L61.4629 74.7937V72.2466H70.0207Z" fill="white"/>
<path d="M41.752 66.3445H41.3171L40.8046 67.2297L40.2765 66.3445H39.8105L40.5561 67.6336V68.348H41.0065V67.6336L41.752 66.3445ZM42.4509 68.3635C42.6069 68.3605 42.7585 68.3114 42.8867 68.2226C43.0149 68.1337 43.114 68.0089 43.1715 67.864C43.2291 67.719 43.2426 67.5602 43.2103 67.4076C43.178 67.255 43.1014 67.1153 42.99 67.0061C42.8786 66.8968 42.7375 66.8229 42.5843 66.7936C42.4311 66.7643 42.2726 66.7808 42.1288 66.8412C41.9849 66.9016 41.8621 67.0031 41.7758 67.133C41.6894 67.2629 41.6433 67.4154 41.6433 67.5714C41.6411 67.6774 41.6606 67.7827 41.7006 67.8808C41.7406 67.9789 41.8002 68.0678 41.8759 68.142C41.9516 68.2162 42.0416 68.2742 42.1405 68.3123C42.2394 68.3504 42.345 68.3678 42.4509 68.3635ZM42.4509 68.0063C42.3971 68.0046 42.3442 67.9916 42.2956 67.9683C42.247 67.945 42.2039 67.9118 42.1688 67.8709C42.1337 67.83 42.1076 67.7823 42.092 67.7307C42.0764 67.6792 42.0717 67.6249 42.0781 67.5714C42.0667 67.515 42.0679 67.4568 42.0817 67.401C42.0956 67.3451 42.1216 67.293 42.158 67.2484C42.1944 67.2039 42.2403 67.168 42.2923 67.1433C42.3443 67.1187 42.4011 67.1059 42.4587 67.1059C42.5162 67.1059 42.573 67.1187 42.625 67.1433C42.677 67.168 42.7229 67.2039 42.7593 67.2484C42.7957 67.293 42.8218 67.3451 42.8356 67.401C42.8494 67.4568 42.8506 67.515 42.8392 67.5714C42.8434 67.6257 42.8366 67.6803 42.8192 67.7319C42.8018 67.7835 42.7741 67.8311 42.7378 67.8717C42.7015 67.9123 42.6574 67.9452 42.6081 67.9683C42.5588 67.9915 42.5053 68.0044 42.4509 68.0063ZM44.6408 66.8104V67.5714C44.6408 67.851 44.4855 67.9753 44.2836 67.9753C44.0817 67.9753 43.9885 67.8665 43.9885 67.618V66.8104H43.5536V67.6802C43.5536 68.1461 43.8177 68.3635 44.1904 68.3635C44.2784 68.3678 44.3661 68.3519 44.4469 68.3169C44.5277 68.2818 44.5994 68.2287 44.6564 68.1616V68.348H45.0602V66.8104H44.6408ZM46.3804 66.7949C46.2876 66.7881 46.1945 66.8028 46.1083 66.8378C46.0221 66.8728 45.9451 66.9272 45.8834 66.9968V66.8104H45.464V68.348H45.8989V67.587C45.8989 67.3074 46.0542 67.1676 46.2561 67.1676C46.458 67.1676 46.5668 67.2919 46.5668 67.5404V68.348H46.9861V67.4627C46.9861 66.9968 46.7221 66.7949 46.3804 66.7949ZM48.5237 66.8104V67.0123C48.4661 66.9369 48.3903 66.8773 48.3034 66.8393C48.2164 66.8012 48.1212 66.7859 48.0267 66.7949C47.929 66.7906 47.8314 66.8064 47.7401 66.8414C47.6487 66.8764 47.5655 66.9297 47.4956 66.9981C47.4257 67.0666 47.3706 67.1486 47.3337 67.2392C47.2969 67.3298 47.279 67.427 47.2812 67.5248C47.2791 67.6233 47.2969 67.7212 47.3336 67.8126C47.3703 67.904 47.4252 67.9871 47.4948 68.0567C47.5645 68.1264 47.6475 68.1812 47.7389 68.2179C47.8303 68.2546 47.9282 68.2725 48.0267 68.2704C48.1155 68.2746 48.2043 68.2603 48.2872 68.2282C48.3701 68.1961 48.4454 68.1469 48.5082 68.084V68.1461C48.5082 68.4257 48.3684 68.5655 48.0733 68.5655C47.884 68.5635 47.6998 68.5039 47.5452 68.3946L47.3744 68.7052C47.5875 68.8553 47.8438 68.9317 48.1044 68.9227C48.6324 68.9227 48.9431 68.6586 48.9431 68.084V66.8104H48.5237ZM48.1199 67.9131C48.0683 67.9153 48.0169 67.9068 47.9687 67.8881C47.9206 67.8693 47.877 67.8408 47.8405 67.8043C47.8039 67.7678 47.7754 67.7241 47.7567 67.676C47.738 67.6279 47.7294 67.5764 47.7316 67.5248C47.7316 67.4219 47.7725 67.3231 47.8453 67.2503C47.9182 67.1775 48.0169 67.1366 48.1199 67.1366C48.2229 67.1366 48.3216 67.1775 48.3945 67.2503C48.4673 67.3231 48.5082 67.4219 48.5082 67.5248C48.5104 67.5764 48.5018 67.6279 48.4831 67.676C48.4644 67.7241 48.4359 67.7678 48.3993 67.8043C48.3628 67.8408 48.3192 67.8693 48.2711 67.8881C48.2229 67.9068 48.1715 67.9153 48.1199 67.9131ZM50.1545 68.348H51.0398C51.6611 68.348 52.096 67.9442 52.096 67.354C52.096 66.7638 51.6611 66.3445 51.0398 66.3445H50.1545V68.348ZM50.6049 67.9597V66.7327H51.0088C51.0928 66.726 51.1773 66.7372 51.2566 66.7658C51.3358 66.7944 51.4081 66.8397 51.4684 66.8986C51.5288 66.9574 51.5758 67.0285 51.6063 67.1071C51.6369 67.1856 51.6503 67.2698 51.6456 67.354C51.6456 67.7268 51.397 67.9597 51.0088 67.9597H50.6049ZM53.8666 67.587C53.8755 67.4813 53.8618 67.3749 53.8264 67.275C53.7909 67.175 53.7346 67.0838 53.6611 67.0074C53.5876 66.9309 53.4986 66.871 53.4001 66.8317C53.3017 66.7924 53.1959 66.7745 53.09 66.7793C52.9854 66.7772 52.8814 66.7963 52.7844 66.8353C52.6873 66.8744 52.5991 66.9326 52.5252 67.0066C52.4512 67.0806 52.3929 67.1688 52.3539 67.2658C52.3148 67.3629 52.2958 67.4668 52.2979 67.5714C52.2979 68.0374 52.6396 68.3635 53.1521 68.3635C53.2677 68.3722 53.3838 68.3543 53.4915 68.3112C53.5992 68.2682 53.6956 68.2011 53.7734 68.115L53.5404 67.8665C53.4391 67.96 53.3054 68.0101 53.1676 68.0063C53.0697 68.0164 52.9715 67.9904 52.8915 67.9332C52.8114 67.876 52.7549 67.7916 52.7328 67.6957H53.8666V67.587ZM53.1055 67.121C53.1951 67.1207 53.2816 67.154 53.3477 67.2144C53.4139 67.2749 53.4549 67.3579 53.4627 67.4472H52.7328C52.7407 67.3552 52.7839 67.2698 52.8534 67.209C52.9229 67.1482 53.0133 67.1167 53.1055 67.121ZM55.0625 66.7949C54.9699 66.7903 54.8775 66.8061 54.7917 66.8409C54.7058 66.8758 54.6286 66.929 54.5655 66.9968V66.8104H54.1617V68.348H54.5965V67.587C54.5965 67.3074 54.7363 67.1676 54.9538 67.1676C55.1712 67.1676 55.2489 67.2919 55.2489 67.5404V68.348H55.6837V67.4627C55.6837 66.9968 55.4197 66.7949 55.0625 66.7949ZM56.9263 67.9597C56.8693 67.9913 56.805 68.0073 56.7399 68.0063C56.7133 68.0092 56.6864 68.0059 56.6614 67.9965C56.6364 67.9871 56.6139 67.972 56.5958 67.9524C56.5776 67.9327 56.5644 67.9091 56.557 67.8834C56.5497 67.8577 56.5485 67.8307 56.5535 67.8044V67.1832H56.9263V66.8415H56.5535V66.4687H56.1342V66.8415H55.9012V67.1832H56.1342V67.8199C56.1269 67.8931 56.136 67.967 56.1607 68.0363C56.1855 68.1055 56.2253 68.1684 56.2773 68.2204C56.3293 68.2724 56.3922 68.3122 56.4614 68.337C56.5307 68.3617 56.6046 68.3708 56.6778 68.3635C56.8034 68.3684 56.9277 68.336 57.035 68.2704L56.9263 67.9597ZM57.5009 66.593C57.5668 66.593 57.63 66.5668 57.6766 66.5202C57.7232 66.4736 57.7494 66.4104 57.7494 66.3445C57.7494 66.2785 57.7232 66.2153 57.6766 66.1687C57.63 66.1221 57.5668 66.0959 57.5009 66.0959C57.435 66.0959 57.3718 66.1221 57.3252 66.1687C57.2786 66.2153 57.2524 66.2785 57.2524 66.3445C57.2524 66.4104 57.2786 66.4736 57.3252 66.5202C57.3718 66.5668 57.435 66.593 57.5009 66.593ZM57.2835 68.348H57.7184V66.8104H57.2835V68.348ZM58.6192 68.3635C59.0541 68.3635 59.3181 68.1616 59.3181 67.8821C59.3181 67.2763 58.4173 67.5248 58.4173 67.2608C58.4173 66.9968 58.4949 67.121 58.6969 67.121C58.8507 67.1202 59.0016 67.1633 59.1317 67.2453L59.2715 66.9191C59.0919 66.8345 58.8954 66.792 58.6969 66.7949C58.262 66.7949 57.9979 66.9968 57.9979 67.2763C57.9979 67.8976 58.8988 67.6336 58.8988 67.8976C58.8988 68.1616 58.8366 68.0374 58.6347 68.0374C58.4477 68.0355 58.2649 67.9818 58.1067 67.8821L57.9669 68.2082C58.1663 68.3181 58.3917 68.3717 58.6192 68.3635ZM60.4364 67.9597C60.3794 67.9913 60.3151 68.0073 60.25 68.0063C60.2234 68.0092 60.1966 68.0059 60.1715 67.9965C60.1465 67.9871 60.124 67.972 60.1059 67.9524C60.0878 67.9327 60.0745 67.9091 60.0672 67.8834C60.0598 67.8577 60.0586 67.8307 60.0636 67.8044V67.1832H60.4364V66.8415H60.0636V66.4687H59.6443V66.8415H59.4113V67.1832H59.6443V67.8199C59.637 67.8931 59.6461 67.967 59.6709 68.0363C59.6956 68.1055 59.7354 68.1684 59.7874 68.2204C59.8394 68.2724 59.9023 68.3122 59.9716 68.337C60.0408 68.3617 60.1147 68.3708 60.1879 68.3635C60.3135 68.3684 60.4378 68.336 60.5451 68.2704L60.4364 67.9597Z" fill="white"/>
</g>
<defs>
<linearGradient id="paint0_linear_30_58672" x1="50" y1="0" x2="50" y2="100" gradientUnits="userSpaceOnUse">
<stop stop-color="#262626"/>
<stop offset="1" stop-color="#111111"/>
</linearGradient>
<clipPath id="clip0_30_58672">
<rect width="60.3865" height="60.3865" fill="white" transform="translate(19.8066 26.0869)"/>
</clipPath>
</defs>
</svg>
