<svg width="157" height="112" viewBox="0 0 157 112" fill="none" xmlns="http://www.w3.org/2000/svg">
<rect x="1" y="1" width="155" height="155" rx="77.5" stroke="white" stroke-width="2"/>
<path d="M18.3319 92.6826C18.2939 92.4888 18.3282 92.3126 18.4348 92.154C18.5414 91.9954 18.6916 91.8971 18.8854 91.8591L28.1722 90.0386C28.366 90.0006 28.5422 90.0349 28.7008 90.1415C28.8696 90.2461 28.973 90.3953 29.011 90.5891L29.6138 93.6643C29.8418 94.8271 29.7746 95.8623 29.4124 96.7701C29.0624 97.686 28.5194 98.428 27.7834 98.9959C27.0474 99.5639 26.2306 99.9358 25.333 100.112C24.4355 100.288 23.5387 100.252 22.6428 100.004C21.7468 99.7556 20.9588 99.2746 20.2786 98.5606C19.6107 97.8548 19.1627 96.9205 18.9348 95.7578L18.3319 92.6826ZM20.2022 95.3345C20.3662 96.1709 20.6785 96.8723 21.139 97.4387C21.6098 98.0031 22.18 98.3997 22.8498 98.6285C23.5298 98.8553 24.2675 98.8908 25.0631 98.7348C25.8587 98.5788 26.5234 98.2685 27.0572 97.8037C27.6012 97.337 27.9795 96.7544 28.1921 96.056C28.4149 95.3557 28.4443 94.5873 28.2804 93.7509L27.8485 91.5478L19.7703 93.1314L20.2022 95.3345Z" fill="white"/>
<path d="M22.3823 109.941C21.8421 108.794 21.7437 107.743 22.087 106.789C22.4441 105.839 23.2151 105.086 24.4 104.528C25.0676 104.213 25.7411 104.046 26.4204 104.024C27.0998 104.003 27.733 104.165 28.32 104.509C28.907 104.853 29.3754 105.396 29.7252 106.139C30.0529 106.835 30.1717 107.514 30.0817 108.177C30.0011 108.835 29.7501 109.424 29.3287 109.944C28.9166 110.46 28.3909 110.869 27.7515 111.17C27.5728 111.254 27.3936 111.264 27.2138 111.199C27.0384 111.144 26.9042 111.017 26.8112 110.82L24.5597 106.038C23.9368 106.423 23.5395 106.909 23.3676 107.495C23.1957 108.082 23.2846 108.747 23.6344 109.489C23.8204 109.884 24.0196 110.21 24.2321 110.466C24.449 110.731 24.6944 110.972 24.9683 111.188C25.0413 111.245 25.1 111.321 25.1443 111.415C25.2151 111.566 25.2254 111.722 25.1751 111.883C25.1248 112.045 25.0197 112.163 24.8599 112.238C24.653 112.336 24.4214 112.295 24.1653 112.117C23.7857 111.848 23.4601 111.559 23.1884 111.25C22.9167 110.942 22.648 110.505 22.3823 109.941ZM27.5628 109.708C28.0103 109.462 28.3382 109.159 28.5467 108.796C28.7596 108.443 28.8635 108.078 28.8585 107.702C28.8628 107.32 28.7897 106.97 28.6391 106.65C28.4886 106.331 28.265 106.051 27.9685 105.812C27.6813 105.568 27.3338 105.415 26.9261 105.355C26.5184 105.294 26.0775 105.358 25.6034 105.547L27.5628 109.708Z" fill="white"/>
<path d="M28.0669 117.346C27.9455 117.19 27.8966 117.018 27.9201 116.828C27.9436 116.638 28.0332 116.483 28.189 116.361L33.4645 112.25C33.6202 112.128 33.7929 112.08 33.9826 112.103C34.1804 112.12 34.34 112.207 34.4614 112.362C34.5828 112.518 34.6276 112.694 34.5959 112.89C34.5788 113.088 34.4924 113.247 34.3366 113.369L33.8324 113.762C34.4195 113.805 34.9561 113.927 35.4422 114.128C35.9283 114.329 36.363 114.675 36.7464 115.167C37.0978 115.618 37.2947 116.091 37.3371 116.585C37.3859 117.087 37.293 117.568 37.0582 118.028C36.8299 118.496 36.4944 118.902 36.0517 119.247L32.5593 121.969C32.4035 122.09 32.2276 122.135 32.0316 122.103C31.842 122.08 31.6865 121.99 31.5651 121.834C31.4437 121.679 31.3947 121.506 31.4182 121.316C31.4417 121.127 31.5314 120.971 31.6871 120.85L35.0566 118.224C36.0567 117.444 36.2054 116.604 35.5026 115.702C35.1831 115.292 34.789 115.006 34.3203 114.844C33.858 114.691 33.3346 114.611 32.7503 114.605L29.0611 117.48C28.9054 117.602 28.7295 117.647 28.5335 117.615C28.3438 117.591 28.1883 117.502 28.0669 117.346Z" fill="white"/>
<path d="M127.691 118.674C127.582 118.838 127.433 118.939 127.246 118.977C127.059 119.015 126.883 118.979 126.718 118.869L121.149 115.165C120.985 115.056 120.884 114.908 120.846 114.72C120.8 114.527 120.831 114.349 120.941 114.184C121.05 114.02 121.203 113.921 121.399 113.89C121.592 113.843 121.771 113.875 121.935 113.984L122.467 114.338C122.322 113.767 122.269 113.22 122.305 112.695C122.342 112.17 122.533 111.648 122.879 111.129C123.195 110.653 123.581 110.317 124.037 110.12C124.498 109.915 124.983 109.851 125.494 109.928C126.01 109.997 126.501 110.187 126.969 110.498L130.656 112.95C130.82 113.059 130.918 113.212 130.95 113.408C130.988 113.595 130.952 113.771 130.843 113.935C130.733 114.1 130.585 114.201 130.398 114.239C130.21 114.276 130.034 114.24 129.87 114.131L126.313 111.765C125.257 111.063 124.412 111.188 123.779 112.14C123.492 112.573 123.345 113.037 123.34 113.533C123.34 114.02 123.43 114.542 123.61 115.098L127.504 117.688C127.669 117.797 127.767 117.95 127.799 118.146C127.836 118.333 127.801 118.509 127.691 118.674Z" fill="white"/>
<path d="M135.261 106.306C134.99 107.003 134.584 107.587 134.045 108.058C133.505 108.528 132.875 108.83 132.154 108.962C131.437 109.085 130.687 108.994 129.902 108.689C129.117 108.384 128.502 107.945 128.056 107.37C127.614 106.786 127.353 106.138 127.273 105.426C127.192 104.715 127.288 104.01 127.559 103.313C127.758 102.799 127.997 102.385 128.276 102.069C128.549 101.741 128.849 101.456 129.177 101.215C129.378 101.07 129.585 101.039 129.798 101.122C129.944 101.179 130.057 101.289 130.137 101.455C130.212 101.606 130.221 101.755 130.165 101.9C130.123 102.007 130.053 102.102 129.953 102.186C129.665 102.442 129.441 102.673 129.283 102.879C129.119 103.072 128.971 103.338 128.839 103.677C128.515 104.51 128.503 105.258 128.803 105.921C129.094 106.58 129.631 107.062 130.416 107.367C131.2 107.672 131.927 107.681 132.596 107.395C133.255 107.104 133.747 106.543 134.071 105.71C134.202 105.37 134.278 105.076 134.296 104.827C134.309 104.565 134.295 104.241 134.255 103.858C134.238 103.728 134.251 103.611 134.292 103.504C134.348 103.359 134.46 103.257 134.628 103.2C134.789 103.129 134.943 103.121 135.088 103.178C135.301 103.261 135.433 103.423 135.484 103.666C135.563 104.065 135.597 104.479 135.586 104.91C135.568 105.327 135.46 105.792 135.261 106.306Z" fill="white"/>
<path d="M139.103 96.292C138.899 97.5435 138.385 98.4655 137.562 99.0578C136.73 99.6382 135.668 99.823 134.375 99.6122C133.647 99.4934 132.997 99.2504 132.425 98.8833C131.853 98.5162 131.422 98.0247 131.133 97.4088C130.844 96.793 130.765 96.0798 130.898 95.2694C131.022 94.5103 131.308 93.8831 131.758 93.3877C132.197 92.8907 132.737 92.547 133.379 92.3569C134.011 92.165 134.675 92.126 135.373 92.2398C135.568 92.2716 135.721 92.365 135.832 92.5201C135.946 92.665 135.985 92.8451 135.95 93.0606L135.099 98.2769C135.83 98.3119 136.433 98.1364 136.906 97.7503C137.38 97.3642 137.683 96.766 137.815 95.9556C137.886 95.5247 137.906 95.1436 137.875 94.8122C137.847 94.4706 137.781 94.1333 137.677 93.8005C137.65 93.7117 137.644 93.616 137.661 93.5135C137.688 93.3493 137.767 93.2149 137.9 93.1102C138.033 93.0055 138.187 92.9674 138.361 92.9959C138.587 93.0327 138.755 93.197 138.865 93.4888C139.026 93.9257 139.131 94.3482 139.18 94.7565C139.229 95.1647 139.204 95.6765 139.103 96.292ZM134.701 93.5519C134.193 93.5006 133.751 93.5654 133.374 93.7461C132.998 93.9166 132.706 94.1585 132.497 94.4719C132.278 94.7837 132.139 95.1139 132.083 95.4627C132.026 95.8115 132.052 96.1685 132.161 96.5338C132.259 96.8974 132.459 97.2197 132.761 97.5006C133.063 97.7815 133.462 97.9783 133.96 98.0911L134.701 93.5519Z" fill="white"/>
<path d="M26.046 72.3369C25.9924 72.5215 25.8841 72.6587 25.7211 72.7483C25.5581 72.838 25.3843 72.856 25.1997 72.8025L16.352 70.2349C16.1674 70.1814 16.0303 70.0731 15.9406 69.9101C15.8412 69.7443 15.8183 69.5691 15.8719 69.3845L16.7221 66.4547C17.0436 65.3469 17.5635 64.4811 18.2818 63.8572C18.9933 63.2208 19.7941 62.8211 20.6843 62.658C21.5745 62.4949 22.4471 62.5374 23.3023 62.7855C24.1574 63.0337 24.9172 63.4649 25.5818 64.0792C26.2464 64.6935 26.7137 65.4612 26.9837 66.3824C27.2468 67.2911 27.2176 68.2993 26.8962 69.4071L26.046 72.3369ZM25.6107 69.2079C25.8419 68.4111 25.8846 67.6649 25.7388 66.9694C25.5832 66.271 25.2667 65.6735 24.7892 65.1767C24.3021 64.6771 23.6795 64.3173 22.9216 64.0974C22.1636 63.8774 21.45 63.8495 20.7808 64.0135C20.1019 64.1747 19.5147 64.51 19.0192 65.0194C18.514 65.526 18.1458 66.1777 17.9145 66.9745L17.3054 69.0735L25.0016 71.3068L25.6107 69.2079Z" fill="white"/>
<path d="M31.1598 56.7548C30.5539 57.8304 29.7755 58.5009 28.8246 58.7665C27.8698 59.0184 26.837 58.8314 25.7262 58.2057C25.1003 57.853 24.5875 57.4132 24.1876 56.886C23.7878 56.3588 23.5589 55.7653 23.5009 55.1055C23.4429 54.4457 23.6101 53.7676 24.0024 53.0712C24.3699 52.4188 24.842 51.9415 25.4187 51.6393C25.9866 51.3321 26.5958 51.1991 27.2461 51.2403C27.8877 51.2766 28.5082 51.4635 29.1076 51.8012C29.2751 51.8956 29.3839 52.0323 29.434 52.2115C29.489 52.3819 29.4643 52.5596 29.36 52.7447L26.8347 57.2275C27.4915 57.5046 28.1011 57.546 28.6634 57.3518C29.2258 57.1576 29.7031 56.7123 30.0954 56.0159C30.304 55.6456 30.45 55.304 30.5334 54.991C30.6218 54.6691 30.6744 54.3387 30.6911 53.9998C30.6956 53.9094 30.7227 53.8201 30.7723 53.732C30.8518 53.5909 30.9698 53.4948 31.1264 53.4436C31.2829 53.3925 31.4362 53.4091 31.586 53.4935C31.78 53.6028 31.8785 53.8093 31.8816 54.113C31.8819 54.566 31.8361 54.9874 31.7444 55.377C31.6526 55.7666 31.4578 56.2259 31.1598 56.7548ZM28.0537 52.7753C27.6069 52.5584 27.1809 52.4694 26.7757 52.5083C26.3755 52.5383 26.0274 52.6616 25.7313 52.878C25.4263 53.0894 25.1895 53.345 25.0206 53.6448C24.8518 53.9445 24.7559 54.2796 24.7331 54.6499C24.7014 55.0153 24.7764 55.377 24.9581 55.7348C25.1397 56.0926 25.4391 56.4064 25.8562 56.6762L28.0537 52.7753Z" fill="white"/>
<path d="M36.0485 48.1366C35.9217 48.281 35.7654 48.3593 35.5798 48.3713C35.3942 48.3834 35.2291 48.3259 35.0847 48.1991L30.1925 43.9025C30.048 43.7757 29.9698 43.6194 29.9577 43.4338C29.9381 43.2415 29.9917 43.0731 30.1186 42.9287C30.2454 42.7842 30.4055 42.7093 30.5987 42.7039C30.791 42.6843 30.9594 42.7379 31.1039 42.8648L31.5714 43.2754C31.5058 42.7061 31.5249 42.1707 31.6286 41.6693C31.7323 41.1678 31.9845 40.6891 32.3851 40.2329C32.7523 39.8148 33.1683 39.5404 33.633 39.4099C34.1045 39.2718 34.5813 39.2732 35.0637 39.414C35.5527 39.5472 36.0024 39.7941 36.413 40.1546L39.6517 42.9989C39.7961 43.1258 39.871 43.2859 39.8764 43.4791C39.8884 43.6647 39.831 43.8298 39.7041 43.9742C39.5773 44.1187 39.421 44.1969 39.2354 44.2089C39.0498 44.221 38.8847 44.1636 38.7403 44.0367L35.6156 41.2925C34.6881 40.4779 33.8571 40.4888 33.1227 41.3251C32.7888 41.7052 32.5872 42.1341 32.5178 42.6118C32.4551 43.0819 32.4741 43.5969 32.5749 44.1568L35.9961 47.1613C36.1405 47.2882 36.2154 47.4482 36.2208 47.6415C36.2328 47.8271 36.1754 47.9921 36.0485 48.1366Z" fill="white"/>
<path d="M46.0359 39.3046C44.88 40.2245 43.8862 40.1619 43.0545 39.1169L40.1247 35.4354L39.2816 36.1064C39.2182 36.1568 39.147 36.1811 39.068 36.1793C38.9907 36.1633 38.9268 36.1237 38.8763 36.0603C38.8133 35.9812 38.7954 35.8855 38.8226 35.7734L39.1807 32.9086C39.1952 32.7806 39.2342 32.6915 39.2975 32.641C39.3609 32.5906 39.4312 32.5734 39.5086 32.5894C39.5939 32.5991 39.6618 32.6357 39.7122 32.699L40.4683 33.6491L41.8102 32.5811C41.9448 32.474 42.0903 32.4293 42.2467 32.4471C42.4031 32.4649 42.5348 32.5411 42.642 32.6757C42.7428 32.8023 42.7874 32.9478 42.7759 33.1122C42.7582 33.2686 42.682 33.4003 42.5474 33.5074L41.2054 34.5754L44.0596 38.1618C44.3053 38.4706 44.5341 38.6118 44.7459 38.5855C44.9593 38.545 45.1769 38.4365 45.3986 38.2601C45.5569 38.1341 45.6963 37.9843 45.8169 37.8108C45.8423 37.7777 45.8676 37.7445 45.893 37.7114C45.9263 37.672 45.9706 37.6302 46.026 37.5861C46.1369 37.4979 46.2705 37.4627 46.4269 37.4805C46.577 37.4904 46.6993 37.5547 46.7938 37.6734C46.9387 37.8555 46.9579 38.0665 46.8514 38.3065C46.6561 38.6947 46.3842 39.0274 46.0359 39.3046Z" fill="white"/>
<path d="M53.4122 34.2766C53.0219 34.4908 52.6144 34.6105 52.1897 34.6357C51.7739 34.6561 51.3856 34.5691 51.025 34.3745C50.6595 34.1711 50.3672 33.8698 50.1482 33.4706C49.7881 32.8142 49.7582 32.1497 50.0586 31.4771C50.3678 30.7996 51.0236 30.1859 52.026 29.6359L53.6361 28.7526L53.5777 28.6462C53.2565 28.0607 52.879 27.7196 52.4451 27.623C52.0201 27.5215 51.5015 27.6386 50.8894 27.9744C50.5523 28.1594 50.2653 28.3514 50.0284 28.5507C49.8003 28.745 49.5558 28.983 49.2949 29.2647C49.2337 29.3214 49.1809 29.3619 49.1365 29.3862C49.0034 29.4592 48.8614 29.4737 48.7102 29.4297C48.5591 29.3856 48.4446 29.2926 48.3668 29.1507C48.2354 28.9112 48.2582 28.6794 48.4353 28.4552C49.0141 27.7222 49.6939 27.1415 50.4745 26.7133C51.0866 26.3775 51.6692 26.2194 52.2224 26.239C52.7845 26.2538 53.2726 26.4072 53.6868 26.6994C54.105 26.9777 54.4406 27.3476 54.6937 27.8089L56.7597 31.5745C56.8521 31.7431 56.8679 31.9191 56.807 32.1026C56.7549 32.2811 56.6446 32.4167 56.4761 32.5091C56.3075 32.6016 56.134 32.6218 55.9554 32.5698C55.7768 32.5177 55.6412 32.4074 55.5488 32.2389L55.359 31.8929C55.0724 32.9272 54.4235 33.7218 53.4122 34.2766ZM53.2806 32.9639C53.6709 32.7498 53.9968 32.4498 54.2583 32.064C54.515 31.6693 54.6896 31.2618 54.7822 30.8417L54.169 29.724L52.7186 30.5197C51.3791 31.2546 50.9016 31.9724 51.2861 32.6732C51.4613 32.9926 51.7089 33.1914 52.0289 33.2698C52.3577 33.3433 52.775 33.2413 53.2806 32.9639Z" fill="white"/>
<path d="M62.6591 31.032C62.4787 31.0985 62.304 31.0927 62.1351 31.0148C61.9662 30.9368 61.8485 30.8076 61.7821 30.6272L58.3771 21.3844C58.3107 21.204 58.3164 21.0293 58.3944 20.8604C58.4688 20.682 58.5963 20.5596 58.7767 20.4932C58.9665 20.4232 59.1459 20.4272 59.3148 20.5052C59.4837 20.5831 59.6032 20.717 59.6731 20.9069L63.0781 30.1498C63.1445 30.3302 63.134 30.5066 63.0466 30.679C62.9686 30.8479 62.8394 30.9656 62.6591 31.032Z" fill="white"/>
<path d="M80.9805 27.5476C79.9201 27.6133 78.9766 27.4386 78.15 27.0235C77.3234 26.6084 76.6677 26.0053 76.1827 25.2142C75.6978 24.423 75.4124 23.4979 75.3265 22.4388C75.281 21.3772 75.45 20.4239 75.8336 19.579C76.2171 18.7341 76.7934 18.0546 77.5624 17.5406C78.3315 17.0267 79.2462 16.7368 80.3066 16.6711C81.3669 16.6054 82.3054 16.7804 83.1219 17.1962C83.9485 17.6113 84.6045 18.2194 85.0901 19.0206C85.5851 19.8111 85.8753 20.7309 85.9606 21.7799C86.0055 22.8314 85.8314 23.785 85.4383 24.6406C85.0548 25.4856 84.4785 26.165 83.7095 26.679C82.9505 27.1923 82.0409 27.4819 80.9805 27.5476ZM80.9007 26.26C81.7086 26.2099 82.3992 25.9846 82.9725 25.5842C83.5458 25.1837 83.9696 24.6607 84.2439 24.0152C84.5182 23.3696 84.6309 22.653 84.5821 21.8653C84.5333 21.0776 84.3329 20.3804 83.9811 19.7736C83.6292 19.1669 83.1441 18.7002 82.5257 18.3736C81.9074 18.0469 81.1943 17.9086 80.3863 17.9587C79.5683 18.0094 78.8727 18.235 78.2994 18.6355C77.7362 19.0353 77.3174 19.558 77.0432 20.2035C76.7689 20.8491 76.6562 21.5657 76.705 22.3534C76.7538 23.1411 76.9541 23.8383 77.306 24.4451C77.6578 25.0518 78.1379 25.5188 78.7462 25.846C79.3645 26.1727 80.0827 26.3107 80.9007 26.26Z" fill="white"/>
<path d="M89.5035 30.7562C89.3147 30.7201 89.1689 30.6201 89.0663 30.4563C88.9618 30.3024 88.9276 30.131 88.9637 29.9422L90.8416 20.1182C90.8777 19.9293 90.9727 19.7827 91.1266 19.6782C91.2805 19.5737 91.4518 19.5395 91.6407 19.5756C91.8295 19.6117 91.9762 19.7067 92.0807 19.8606C92.1951 20.0163 92.2343 20.1887 92.1982 20.3775L92.1241 20.7651C92.994 20.1484 93.9159 19.9332 94.8898 20.1194C95.506 20.2372 96.057 20.5073 96.5428 20.9298C97.0405 21.3443 97.4003 21.8869 97.6223 22.5578C97.8562 23.2206 97.8962 23.9545 97.7423 24.7595C97.5884 25.5645 97.2796 26.2368 96.8159 26.7766C96.364 27.3083 95.8294 27.68 95.2121 27.8916C94.6066 28.0952 93.9957 28.1381 93.3796 28.0203C92.4056 27.8342 91.6281 27.2941 91.0469 26.4001L90.3203 30.2015C90.2823 30.4003 90.1864 30.5519 90.0325 30.6564C89.8786 30.7609 89.7023 30.7942 89.5035 30.7562ZM93.428 26.7162C94.1634 26.8567 94.7994 26.7362 95.3359 26.3546C95.8724 25.973 96.2223 25.3548 96.3857 24.5001C96.5491 23.6455 96.4518 22.9418 96.0939 22.3892C95.7359 21.8366 95.1892 21.4901 94.4538 21.3495C93.9967 21.2621 93.5444 21.2838 93.097 21.4146C92.6615 21.5374 92.2574 21.7383 91.8847 22.0173L91.2863 25.1479C91.5298 25.5447 91.8304 25.8854 92.188 26.1701C92.5575 26.4468 92.9708 26.6288 93.428 26.7162Z" fill="white"/>
<path d="M101.369 30.8101C100.858 30.5898 100.464 30.2768 100.188 29.8711C99.9199 29.4693 99.774 29.0153 99.7498 28.5091C99.7348 28.0068 99.8355 27.5048 100.052 27.003L101.757 23.0446C101.834 22.868 101.958 22.7454 102.131 22.6766C102.313 22.6119 102.492 22.6175 102.669 22.6936C102.845 22.7697 102.968 22.8942 103.037 23.067C103.106 23.2399 103.102 23.4146 103.026 23.5911L101.38 27.4102C100.892 28.5439 101.158 29.3309 102.181 29.7714C102.645 29.9716 103.111 30.029 103.577 29.9435C104.053 29.8621 104.542 29.687 105.043 29.4183L106.845 25.2368C106.921 25.0603 107.045 24.9376 107.218 24.8689C107.4 24.8041 107.58 24.8098 107.756 24.8859C107.933 24.9619 108.056 25.0864 108.124 25.2593C108.193 25.4321 108.189 25.6068 108.113 25.7834L105.537 31.7629C105.461 31.9395 105.334 32.0668 105.157 32.1448C104.984 32.2136 104.81 32.2099 104.633 32.1338C104.457 32.0577 104.329 31.9313 104.251 31.7544C104.187 31.5723 104.192 31.3929 104.268 31.2164L104.515 30.6449C103.993 30.883 103.478 31.0301 102.969 31.0863C102.46 31.1424 101.927 31.0503 101.369 30.8101Z" fill="white"/>
<path d="M107.927 36.4333C107.765 36.3306 107.663 36.1886 107.622 36.0071C107.581 35.8257 107.612 35.6537 107.714 35.4911L112.974 27.1627C113.076 27.0001 113.218 26.8984 113.4 26.8574C113.587 26.8078 113.761 26.8344 113.924 26.937C114.095 27.0451 114.201 27.1898 114.242 27.3713C114.283 27.5527 114.25 27.729 114.141 27.9001L108.882 36.2286C108.779 36.3911 108.633 36.4902 108.443 36.5258C108.262 36.5668 108.09 36.5359 107.927 36.4333Z" fill="white"/>
<path d="M114.067 40.5576C113.134 39.7504 112.631 38.8544 112.559 37.8697C112.502 36.8839 112.89 35.9087 113.724 34.9442C114.194 34.4007 114.726 33.9853 115.322 33.6981C115.918 33.4108 116.546 33.3042 117.204 33.3783C117.862 33.4524 118.493 33.7508 119.098 34.2735C119.665 34.7631 120.039 35.3206 120.221 35.9458C120.409 36.5634 120.418 37.1868 120.249 37.816C120.086 38.4376 119.78 39.0087 119.33 39.5292C119.204 39.6747 119.048 39.7541 118.863 39.7676C118.685 39.7878 118.516 39.7283 118.355 39.5894L114.462 36.2248C114.061 36.8135 113.899 37.4028 113.978 37.9924C114.056 38.5821 114.398 39.1383 115.003 39.661C115.324 39.9389 115.63 40.1498 115.921 40.2937C116.218 40.4442 116.532 40.5613 116.861 40.645C116.948 40.6673 117.031 40.7115 117.107 40.7777C117.23 40.8836 117.3 41.0183 117.319 41.1819C117.339 41.3455 117.292 41.4924 117.179 41.6225C117.034 41.7909 116.812 41.8465 116.514 41.7893C116.069 41.6997 115.666 41.5712 115.302 41.404C114.938 41.2368 114.527 40.9546 114.067 40.5576ZM118.584 38.303C118.885 37.908 119.057 37.5082 119.1 37.1034C119.15 36.7052 119.098 36.3395 118.944 36.0063C118.798 35.6655 118.594 35.3826 118.334 35.1576C118.074 34.9327 117.764 34.7723 117.406 34.6764C117.054 34.5729 116.685 34.5746 116.298 34.6816C115.911 34.7887 115.544 35.0198 115.197 35.3751L118.584 38.303Z" fill="white"/>
<path d="M118.945 47.1867C118.829 47.0337 118.783 46.8651 118.808 46.6807C118.833 46.4964 118.922 46.346 119.075 46.2296L124.257 42.2873C124.41 42.1709 124.579 42.1252 124.763 42.1502C124.955 42.1691 125.11 42.2551 125.226 42.4081C125.342 42.5611 125.384 42.7328 125.351 42.9233C125.332 43.1157 125.246 43.27 125.093 43.3864L124.598 43.7632C125.169 43.8119 125.69 43.9368 126.161 44.138C126.632 44.3391 127.051 44.6813 127.418 45.1645C127.755 45.6074 127.942 46.0695 127.977 46.5509C128.019 47.0403 127.923 47.5075 127.69 47.9523C127.462 48.4051 127.131 48.7969 126.696 49.1278L123.265 51.7377C123.112 51.8541 122.941 51.8957 122.75 51.8626C122.566 51.8376 122.416 51.7486 122.299 51.5956C122.183 51.4426 122.137 51.2739 122.162 51.0896C122.187 50.9052 122.276 50.7549 122.429 50.6385L125.739 48.1205C126.721 47.3731 126.876 46.5565 126.202 45.6707C125.895 45.268 125.515 44.9853 125.061 44.8225C124.612 44.6677 124.104 44.5842 123.535 44.5719L119.911 47.3288C119.758 47.4452 119.587 47.4869 119.396 47.4538C119.212 47.4287 119.061 47.3397 118.945 47.1867Z" fill="white"/>
<path d="M125.939 61.1068C125.624 60.4502 125.478 59.7736 125.503 59.0771C125.527 58.3805 125.732 57.732 126.117 57.1316C126.506 56.5403 127.07 56.0671 127.809 55.7121C128.547 55.357 129.269 55.2121 129.974 55.2774C130.684 55.3518 131.318 55.597 131.877 56.0131C132.436 56.4291 132.874 56.9654 133.189 57.622C133.422 58.1053 133.557 58.5509 133.596 58.9588C133.649 59.3715 133.651 59.7743 133.605 60.1673C133.574 60.4067 133.458 60.5746 133.257 60.671C133.12 60.7368 132.966 60.7434 132.795 60.691C132.638 60.6432 132.526 60.551 132.46 60.4142C132.412 60.3139 132.391 60.2004 132.398 60.0738C132.408 59.6984 132.393 59.3858 132.351 59.1363C132.323 58.8915 132.233 58.6095 132.079 58.2903C131.702 57.506 131.178 57.0001 130.508 56.7724C129.846 56.5403 129.146 56.6018 128.407 56.9569C127.668 57.3119 127.179 57.8225 126.937 58.4885C126.705 59.1501 126.778 59.8731 127.155 60.6574C127.308 60.9765 127.467 61.2257 127.632 61.4047C127.81 61.5885 128.049 61.7936 128.349 62.0201C128.452 62.0941 128.527 62.1812 128.575 62.2815C128.641 62.4183 128.639 62.5654 128.568 62.7227C128.512 62.8847 128.415 62.9986 128.278 63.0644C128.077 63.1608 127.874 63.1463 127.668 63.0209C127.332 62.812 127.014 62.5604 126.716 62.2661C126.43 61.9766 126.172 61.5901 125.939 61.1068Z" fill="white"/>
<path d="M129.704 71.9793C129.396 70.7841 129.492 69.7612 129.994 68.9107C130.507 68.0675 131.382 67.4865 132.616 67.1679C133.312 66.9884 133.986 66.9501 134.64 67.0531C135.293 67.1561 135.87 67.4253 136.369 67.8608C136.868 68.2962 137.217 68.901 137.417 69.6749C137.604 70.3999 137.594 71.0712 137.388 71.6888C137.192 72.3038 136.845 72.8218 136.347 73.2428C135.86 73.6612 135.283 73.9565 134.616 74.1284C134.43 74.1765 134.257 74.1533 134.097 74.0588C133.939 73.9741 133.834 73.8289 133.781 73.6231L132.495 68.6413C131.829 68.8967 131.361 69.2892 131.09 69.8189C130.819 70.3486 130.784 71.0005 130.984 71.7745C131.09 72.1859 131.221 72.5334 131.378 72.8169C131.537 73.1102 131.728 73.3848 131.951 73.6408C132.011 73.709 132.053 73.7922 132.078 73.8901C132.119 74.0469 132.1 74.1979 132.023 74.3433C131.945 74.4887 131.823 74.5829 131.657 74.6259C131.441 74.6815 131.227 74.6009 131.015 74.3842C130.7 74.0577 130.441 73.7222 130.238 73.3778C130.034 73.0333 129.856 72.5671 129.704 71.9793ZM134.701 72.6958C135.174 72.5425 135.542 72.3115 135.808 72.0027C136.075 71.7037 136.241 71.3736 136.304 71.0123C136.378 70.6486 136.371 70.3001 136.285 69.967C136.199 69.6339 136.036 69.326 135.796 69.0431C135.566 68.7577 135.261 68.549 134.882 68.4169C134.503 68.2848 134.07 68.2661 133.582 68.3606L134.701 72.6958Z" fill="white"/>
<path d="M19.3329 82.022C18.5949 82.022 18.0009 81.428 18.0009 80.708C18.0009 79.952 18.5949 79.376 19.3329 79.376C20.0889 79.376 20.6469 79.952 20.6469 80.708C20.6469 81.428 20.0889 82.022 19.3329 82.022Z" fill="white"/>
<path d="M135.333 82.022C134.595 82.022 134.001 81.428 134.001 80.708C134.001 79.952 134.595 79.376 135.333 79.376C136.089 79.376 136.647 79.952 136.647 80.708C136.647 81.428 136.089 82.022 135.333 82.022Z" fill="white"/>
</svg>
