<svg width="395" height="77" viewBox="0 0 395 77" fill="none" xmlns="http://www.w3.org/2000/svg">
<mask id="path-1-outside-1_1230_58620" maskUnits="userSpaceOnUse" x="-2" y="-1" width="398" height="79" fill="black">
<rect fill="white" x="-2" y="-1" width="398" height="79"/>
<path d="M42.944 1.16L15.28 75H0.2L27.864 1.16H42.944ZM145.17 24.872C143.922 23.104 137.162 16.76 125.93 16.76C114.282 16.76 104.298 24.872 104.298 38.08C104.298 51.288 114.282 59.4 125.93 59.4C137.162 59.4 143.922 53.056 145.17 51.288V68.968C143.09 70.632 135.914 76.04 123.642 76.04C103.154 76.04 86.6175 59.816 86.6175 38.08C86.6175 16.344 103.154 0.119997 123.642 0.119997C135.914 0.119997 143.09 5.528 145.17 7.192V24.872ZM207.522 75L202.53 61.168H175.698L170.706 75H152.402L179.026 1.16H199.202L225.826 75H207.522ZM181.73 44.528H196.498L189.114 23.936L181.73 44.528ZM231.031 50.352H248.711C248.711 56.488 252.559 59.4 257.551 59.4C262.231 59.4 264.311 57.112 264.311 54.824C264.311 51.288 260.359 49.728 252.663 45.048C235.399 34.544 232.591 28.512 232.591 19.984C232.591 8.128 242.575 0.119997 255.471 0.119997C270.447 0.119997 279.911 11.352 279.911 25.6H262.231C262.231 19.568 259.527 16.76 255.471 16.76C252.663 16.76 250.271 18.216 250.271 20.816C250.271 23.832 252.351 25.392 259.215 29.344C274.503 38.184 281.991 44.632 281.991 55.552C281.991 68.968 270.447 76.04 257.551 76.04C239.455 76.04 231.031 62.416 231.031 50.352ZM335.088 17.8H309.088V29.656H329.888V46.296H309.088V58.36H335.088V75H291.408V1.16H335.088V17.8ZM343.453 50.352H361.133C361.133 56.488 364.981 59.4 369.973 59.4C374.653 59.4 376.733 57.112 376.733 54.824C376.733 51.288 372.781 49.728 365.085 45.048C347.821 34.544 345.013 28.512 345.013 19.984C345.013 8.128 354.997 0.119997 367.893 0.119997C382.869 0.119997 392.333 11.352 392.333 25.6H374.653C374.653 19.568 371.949 16.76 367.893 16.76C365.085 16.76 362.693 18.216 362.693 20.816C362.693 23.832 364.773 25.392 371.637 29.344C386.925 38.184 394.413 44.632 394.413 55.552C394.413 68.968 382.869 76.04 369.973 76.04C351.877 76.04 343.453 62.416 343.453 50.352Z"/>
</mask>
<path d="M42.944 1.16L43.8804 1.51083L44.3865 0.159996H42.944V1.16ZM15.28 75V76H15.9732L16.2164 75.3508L15.28 75ZM0.2 75L-0.736437 74.6492L-1.24252 76H0.2V75ZM27.864 1.16V0.159996H27.1708L26.9276 0.809162L27.864 1.16ZM42.0076 0.809162L14.3436 74.6492L16.2164 75.3508L43.8804 1.51083L42.0076 0.809162ZM15.28 74H0.2V76H15.28V74ZM1.13644 75.3508L28.8004 1.51083L26.9276 0.809162L-0.736437 74.6492L1.13644 75.3508ZM27.864 2.16H42.944V0.159996H27.864V2.16ZM145.17 24.872L144.353 25.4487L146.17 28.0227V24.872H145.17ZM145.17 51.288H146.17V48.1373L144.353 50.7113L145.17 51.288ZM145.17 68.968L145.794 69.7489L146.17 69.4486V68.968H145.17ZM145.17 7.192H146.17V6.71137L145.794 6.41113L145.17 7.192ZM145.986 24.2953C145.258 23.2636 143.131 21.1425 139.779 19.279C136.403 17.4019 131.74 15.76 125.93 15.76V17.76C131.351 17.76 135.684 19.2901 138.808 21.027C141.956 22.7775 143.833 24.7124 144.353 25.4487L145.986 24.2953ZM125.93 15.76C113.798 15.76 103.298 24.2535 103.298 38.08H105.298C105.298 25.4905 114.765 17.76 125.93 17.76V15.76ZM103.298 38.08C103.298 51.9065 113.798 60.4 125.93 60.4V58.4C114.765 58.4 105.298 50.6695 105.298 38.08H103.298ZM125.93 60.4C131.74 60.4 136.403 58.7581 139.779 56.881C143.131 55.0175 145.258 52.8964 145.986 51.8647L144.353 50.7113C143.833 51.4476 141.956 53.3825 138.808 55.133C135.684 56.8699 131.351 58.4 125.93 58.4V60.4ZM144.17 51.288V68.968H146.17V51.288H144.17ZM144.545 68.1871C142.554 69.7801 135.594 75.04 123.641 75.04V77.04C136.233 77.04 143.625 71.4839 145.794 69.7489L144.545 68.1871ZM123.641 75.04C103.717 75.04 87.6175 59.2747 87.6175 38.08H85.6175C85.6175 60.3573 102.59 77.04 123.641 77.04V75.04ZM87.6175 38.08C87.6175 16.8853 103.717 1.12 123.641 1.12V-0.880003C102.59 -0.880003 85.6175 15.8027 85.6175 38.08H87.6175ZM123.641 1.12C135.594 1.12 142.554 6.37989 144.545 7.97287L145.794 6.41113C143.625 4.6761 136.233 -0.880003 123.641 -0.880003V1.12ZM144.17 7.192V24.872H146.17V7.192H144.17ZM207.522 75L206.581 75.3395L206.819 76H207.522V75ZM202.53 61.168L203.47 60.8285L203.232 60.168H202.53V61.168ZM175.698 61.168V60.168H174.995L174.757 60.8285L175.698 61.168ZM170.706 75V76H171.408L171.646 75.3395L170.706 75ZM152.402 75L151.461 74.6608L150.978 76H152.402V75ZM179.026 1.16V0.159996H178.323L178.085 0.820807L179.026 1.16ZM199.202 1.16L200.142 0.820808L199.904 0.159996H199.202V1.16ZM225.826 75V76H227.249L226.766 74.6608L225.826 75ZM181.73 44.528L180.788 44.1905L180.309 45.528H181.73V44.528ZM196.498 44.528V45.528H197.918L197.439 44.1905L196.498 44.528ZM189.114 23.936L190.055 23.5985L189.114 20.9734L188.172 23.5985L189.114 23.936ZM208.462 74.6605L203.47 60.8285L201.589 61.5075L206.581 75.3395L208.462 74.6605ZM202.53 60.168H175.698V62.168H202.53V60.168ZM174.757 60.8285L169.765 74.6605L171.646 75.3395L176.638 61.5075L174.757 60.8285ZM170.706 74H152.402V76H170.706V74ZM153.342 75.3392L179.966 1.49919L178.085 0.820807L151.461 74.6608L153.342 75.3392ZM179.026 2.16H199.202V0.159996H179.026V2.16ZM198.261 1.49918L224.885 75.3392L226.766 74.6608L200.142 0.820808L198.261 1.49918ZM225.826 74H207.522V76H225.826V74ZM181.73 45.528H196.498V43.528H181.73V45.528ZM197.439 44.1905L190.055 23.5985L188.172 24.2735L195.556 44.8655L197.439 44.1905ZM188.172 23.5985L180.788 44.1905L182.671 44.8655L190.055 24.2735L188.172 23.5985ZM231.031 50.352V49.352H230.031V50.352H231.031ZM248.711 50.352H249.711V49.352H248.711V50.352ZM252.663 45.048L252.143 45.9023L252.144 45.9024L252.663 45.048ZM279.911 25.6V26.6H280.911V25.6H279.911ZM262.231 25.6H261.231V26.6H262.231V25.6ZM259.215 29.344L259.716 28.4783L259.714 28.4774L259.215 29.344ZM231.031 51.352H248.711V49.352H231.031V51.352ZM247.711 50.352C247.711 53.6365 248.748 56.1838 250.573 57.9047C252.388 59.6153 254.867 60.4 257.551 60.4V58.4C255.244 58.4 253.302 57.7287 251.945 56.4493C250.599 55.1802 249.711 53.2035 249.711 50.352H247.711ZM257.551 60.4C260.046 60.4 261.973 59.7902 263.3 58.7598C264.639 57.7201 265.311 56.2892 265.311 54.824H263.311C263.311 55.6468 262.944 56.5039 262.073 57.1801C261.19 57.8658 259.736 58.4 257.551 58.4V60.4ZM265.311 54.824C265.311 52.5675 263.994 51.0334 261.961 49.556C259.969 48.1082 256.955 46.4872 253.183 44.1936L252.144 45.9024C256.068 48.2888 258.878 49.7878 260.785 51.174C262.652 52.5306 263.311 53.5445 263.311 54.824H265.311ZM253.183 44.1937C244.58 38.9592 239.7 34.9075 236.959 31.1824C234.262 27.517 233.591 24.1063 233.591 19.984H231.591C231.591 24.3897 232.325 28.259 235.348 32.3676C238.327 36.4165 243.483 40.6328 252.143 45.9023L253.183 44.1937ZM233.591 19.984C233.591 8.82841 242.967 1.12 255.471 1.12V-0.880003C242.184 -0.880003 231.591 7.42759 231.591 19.984H233.591ZM255.471 1.12C262.695 1.12 268.533 3.8217 272.573 8.19545C276.62 12.578 278.911 18.6962 278.911 25.6H280.911C280.911 18.2558 278.471 11.634 274.042 6.83854C269.605 2.0343 263.224 -0.880003 255.471 -0.880003V1.12ZM279.911 24.6H262.231V26.6H279.911V24.6ZM263.231 25.6C263.231 22.452 262.528 19.985 261.148 18.2874C259.744 16.5592 257.747 15.76 255.471 15.76V17.76C257.251 17.76 258.634 18.3648 259.596 19.5486C260.583 20.7629 261.231 22.716 261.231 25.6H263.231ZM255.471 15.76C253.908 15.76 252.388 16.1633 251.231 17.0038C250.046 17.8639 249.271 19.1678 249.271 20.816H251.271C251.271 19.8642 251.692 19.1401 252.406 18.6222C253.146 18.0847 254.226 17.76 255.471 17.76V15.76ZM249.271 20.816C249.271 21.6928 249.424 22.5077 249.801 23.2965C250.175 24.0772 250.742 24.7781 251.494 25.4667C252.968 26.8158 255.307 28.2477 258.716 30.2106L259.714 28.4774C256.259 26.4883 254.126 25.1642 252.844 23.9913C252.219 23.4188 251.837 22.9173 251.606 22.4338C251.378 21.9583 251.271 21.4472 251.271 20.816H249.271ZM258.715 30.2097C266.353 34.6263 271.931 38.3853 275.603 42.3477C279.232 46.2641 280.991 50.3692 280.991 55.552H282.991C282.991 49.8148 281.006 45.2359 277.07 40.9883C273.176 36.7867 267.366 32.9017 259.716 28.4783L258.715 30.2097ZM280.991 55.552C280.991 61.9372 278.259 66.7702 273.999 70.0331C269.712 73.3167 263.83 75.04 257.551 75.04V77.04C264.169 77.04 270.507 75.2273 275.215 71.6209C279.951 67.9938 282.991 62.5828 282.991 55.552H280.991ZM257.551 75.04C248.777 75.04 242.423 71.7476 238.253 67.0556C234.063 62.3426 232.031 56.1642 232.031 50.352H230.031C230.031 56.6038 232.211 63.2694 236.758 68.3844C241.323 73.5204 248.229 77.04 257.551 77.04V75.04ZM335.088 17.8V18.8H336.088V17.8H335.088ZM309.088 17.8V16.8H308.088V17.8H309.088ZM309.088 29.656H308.088V30.656H309.088V29.656ZM329.888 29.656H330.888V28.656H329.888V29.656ZM329.888 46.296V47.296H330.888V46.296H329.888ZM309.088 46.296V45.296H308.088V46.296H309.088ZM309.088 58.36H308.088V59.36H309.088V58.36ZM335.088 58.36H336.088V57.36H335.088V58.36ZM335.088 75V76H336.088V75H335.088ZM291.408 75H290.408V76H291.408V75ZM291.408 1.16V0.159996H290.408V1.16H291.408ZM335.088 1.16H336.088V0.159996H335.088V1.16ZM335.088 16.8H309.088V18.8H335.088V16.8ZM308.088 17.8V29.656H310.088V17.8H308.088ZM309.088 30.656H329.888V28.656H309.088V30.656ZM328.888 29.656V46.296H330.888V29.656H328.888ZM329.888 45.296H309.088V47.296H329.888V45.296ZM308.088 46.296V58.36H310.088V46.296H308.088ZM309.088 59.36H335.088V57.36H309.088V59.36ZM334.088 58.36V75H336.088V58.36H334.088ZM335.088 74H291.408V76H335.088V74ZM292.408 75V1.16H290.408V75H292.408ZM291.408 2.16H335.088V0.159996H291.408V2.16ZM334.088 1.16V17.8H336.088V1.16H334.088ZM343.453 50.352V49.352H342.453V50.352H343.453ZM361.133 50.352H362.133V49.352H361.133V50.352ZM365.085 45.048L364.565 45.9023L364.565 45.9024L365.085 45.048ZM392.333 25.6V26.6H393.333V25.6H392.333ZM374.653 25.6H373.653V26.6H374.653V25.6ZM371.637 29.344L372.137 28.4783L372.136 28.4774L371.637 29.344ZM343.453 51.352H361.133V49.352H343.453V51.352ZM360.133 50.352C360.133 53.6365 361.169 56.1838 362.995 57.9047C364.81 59.6153 367.288 60.4 369.973 60.4V58.4C367.665 58.4 365.724 57.7287 364.367 56.4493C363.02 55.1802 362.133 53.2035 362.133 50.352H360.133ZM369.973 60.4C372.468 60.4 374.394 59.7902 375.721 58.7598C377.06 57.7201 377.733 56.2892 377.733 54.824H375.733C375.733 55.6468 375.365 56.5039 374.495 57.1801C373.612 57.8658 372.158 58.4 369.973 58.4V60.4ZM377.733 54.824C377.733 52.5675 376.416 51.0334 374.383 49.556C372.39 48.1082 369.376 46.4872 365.604 44.1936L364.565 45.9024C368.489 48.2888 371.299 49.7878 373.207 51.174C375.074 52.5306 375.733 53.5445 375.733 54.824H377.733ZM365.605 44.1937C357.001 38.9592 352.121 34.9075 349.38 31.1824C346.683 27.517 346.013 24.1063 346.013 19.984H344.013C344.013 24.3897 344.746 28.259 347.769 32.3676C350.748 36.4165 355.904 40.6328 364.565 45.9023L365.605 44.1937ZM346.013 19.984C346.013 8.82841 355.388 1.12 367.893 1.12V-0.880003C354.605 -0.880003 344.013 7.42759 344.013 19.984H346.013ZM367.893 1.12C375.116 1.12 380.955 3.8217 384.994 8.19545C389.041 12.578 391.333 18.6962 391.333 25.6H393.333C393.333 18.2558 390.892 11.634 386.463 6.83854C382.027 2.0343 375.646 -0.880003 367.893 -0.880003V1.12ZM392.333 24.6H374.653V26.6H392.333V24.6ZM375.653 25.6C375.653 22.452 374.949 19.985 373.57 18.2874C372.166 16.5592 370.169 15.76 367.893 15.76V17.76C369.673 17.76 371.056 18.3648 372.018 19.5486C373.004 20.7629 373.653 22.716 373.653 25.6H375.653ZM367.893 15.76C366.33 15.76 364.81 16.1633 363.652 17.0038C362.468 17.8639 361.693 19.1678 361.693 20.816H363.693C363.693 19.8642 364.114 19.1401 364.827 18.6222C365.568 18.0847 366.648 17.76 367.893 17.76V15.76ZM361.693 20.816C361.693 21.6928 361.846 22.5077 362.223 23.2965C362.596 24.0772 363.163 24.7781 363.916 25.4667C365.39 26.8158 367.729 28.2477 371.138 30.2106L372.136 28.4774C368.681 26.4883 366.548 25.1642 365.266 23.9913C364.64 23.4188 364.258 22.9173 364.027 22.4338C363.8 21.9583 363.693 21.4472 363.693 20.816H361.693ZM371.136 30.2097C378.774 34.6263 384.352 38.3853 388.024 42.3477C391.654 46.2641 393.413 50.3692 393.413 55.552H395.413C395.413 49.8148 393.428 45.2359 389.491 40.9883C385.597 36.7867 379.787 32.9017 372.137 28.4783L371.136 30.2097ZM393.413 55.552C393.413 61.9372 390.681 66.7702 386.421 70.0331C382.133 73.3167 376.251 75.04 369.973 75.04V77.04C376.59 77.04 382.928 75.2273 387.637 71.6209C392.373 67.9938 395.413 62.5828 395.413 55.552H393.413ZM369.973 75.04C361.199 75.04 354.845 71.7476 350.674 67.0556C346.485 62.3426 344.453 56.1642 344.453 50.352H342.453C342.453 56.6038 344.633 63.2694 349.179 68.3844C353.745 73.5204 360.651 77.04 369.973 77.04V75.04Z" fill="#605E60" mask="url(#path-1-outside-1_1230_58620)"/>
</svg>
