<svg width="80" height="80" viewBox="0 0 80 80" fill="none" xmlns="http://www.w3.org/2000/svg">
<path d="M40 80C62.0914 80 80 62.0914 80 40C80 17.9086 62.0914 0 40 0C17.9086 0 0 17.9086 0 40C0 62.0914 17.9086 80 40 80Z" fill="white"/>
<path d="M53.8262 18.9006C54.4078 19.8245 54.8841 20.8107 55.2462 21.8406C56.3036 24.7254 56.9695 27.7389 57.2262 30.8006C57.3726 32.3697 57.3993 33.9476 57.3062 35.5206C57.2862 36.0806 57.4662 36.3006 57.9862 36.3806C58.7096 36.525 59.4189 36.7325 60.1062 37.0006L58.4662 37.4406C57.1862 37.7406 57.2462 37.7606 57.0862 39.0806C56.2862 45.5806 54.5462 51.8006 51.0262 57.4006C50.2262 58.6606 49.3062 59.8206 48.0262 60.6406C46.7462 61.4606 45.3862 61.1806 44.4662 60.0406C43.5462 58.9006 43.1862 57.3806 42.8262 55.9406C42.3062 53.7606 41.9862 51.5406 41.3462 49.4006C40.9262 47.9606 40.3862 46.6006 39.4062 45.4406C39.0509 44.9906 38.6088 44.6165 38.1062 44.3406C36.9862 43.7006 35.9062 44.0206 35.1662 45.2606C34.4262 46.5006 34.1462 47.7406 33.8262 49.0406C33.2462 51.2806 32.6462 53.4806 31.6662 55.5806C31.3722 56.2234 30.9809 56.817 30.5062 57.3406C29.7262 58.1406 28.9062 58.2406 27.9462 57.6606C27.3772 57.3046 26.8816 56.843 26.4862 56.3006C24.7462 54.0206 23.6462 51.4806 23.5062 48.5606C23.4262 46.6206 23.4662 44.7006 23.8862 42.8006C24.5062 40.0406 26.1662 38.2406 28.8262 37.3006C31.0262 36.5206 33.3062 36.1806 35.5862 35.7206C38.3462 35.1806 41.0662 34.5806 43.6462 33.4006C48.6862 31.0806 51.7262 27.1206 53.2062 21.8606C53.4651 20.8856 53.6721 19.8976 53.8262 18.9006ZM54.5262 32.6406C54.3998 33.5656 54.1855 34.4764 53.8862 35.3606C53.8068 35.5848 53.6772 35.7878 53.5073 35.9541C53.3375 36.1205 53.1319 36.2459 52.9062 36.3206C52.099 36.5699 51.2775 36.7703 50.4462 36.9206C50.5262 37.1006 50.6662 37.0606 50.8062 37.0806L52.5662 37.5006C52.9258 37.5618 53.2576 37.7332 53.5156 37.9912C53.7736 38.2492 53.945 38.581 54.0062 38.9406C54.1662 39.6606 54.3662 40.3606 54.5662 41.2206C54.6662 40.7406 54.7262 40.4006 54.8062 40.0806C55.4062 37.7206 55.2862 37.8006 57.7062 37.2006C58.0262 37.1206 58.4062 37.1606 58.7262 36.9406C58.0462 36.7806 57.4262 36.6206 56.8062 36.5006C55.7862 36.3006 55.2062 35.7206 55.0262 34.7006C54.9062 34.0606 54.7262 33.4206 54.5262 32.6406Z" fill="#161616"/>
<path d="M22.7705 48.1007C21.9123 45.8469 21.2433 43.5255 20.7705 41.1607C20.1305 38.1207 19.7304 35.0407 19.9104 31.9407C19.9694 30.7624 20.1916 29.5979 20.5705 28.4807C21.6105 25.4607 23.9305 24.0807 27.1105 24.6007C28.6705 24.8607 30.1304 25.4607 31.6904 25.7207C33.7504 26.0607 35.8304 26.4807 38.0504 26.2807C37.5496 26.6629 36.9559 26.9046 36.3304 26.9807C35.7104 27.0607 35.1104 27.1407 34.5104 27.2607C35.7905 27.7407 37.0904 27.7407 38.3904 27.4607C44.0904 26.2207 49.0705 23.6207 53.2304 19.5207L53.3704 19.4407C53.4704 19.5007 53.4505 19.5607 53.4305 19.6407C52.2505 22.5407 50.7904 25.2607 48.5905 27.5407C46.0905 30.1207 42.9904 31.6007 39.5904 32.5407C36.9104 33.2807 34.1704 33.7007 31.4704 34.3607C30.2736 34.6408 29.1027 35.0221 27.9704 35.5007C24.4504 36.9407 22.7104 39.6207 22.4304 43.3607C22.3401 44.801 22.441 46.2469 22.7304 47.6607C22.7504 47.8007 22.7505 47.9607 22.7705 48.1007Z" fill="#161616"/>
</svg>
