<svg width="60" height="60" viewBox="0 0 60 60" fill="none" xmlns="http://www.w3.org/2000/svg">
<rect width="60" height="60" rx="30" fill="#353434"/>
<path d="M47.713 16.9871C47.6034 17.0608 47.4882 17.1259 47.3686 17.1818C46.2175 17.7298 45.2879 18.6541 44.7333 19.8021C44.6135 20.0716 44.5237 20.416 44.1344 20.4309C43.7451 20.4459 43.6403 20.0866 43.5205 19.817C42.9617 18.6597 42.0276 17.7255 40.8702 17.1668L40.4809 16.9572C40.1815 16.7326 40.1815 16.4032 40.4809 16.1786L40.6157 16.1037C41.9685 15.4992 43.0507 14.4169 43.6553 13.0641C43.7301 12.8994 43.9248 12.7797 44.1044 12.6C44.2648 12.7112 44.4106 12.842 44.5387 12.9893C44.6884 13.2139 44.8082 13.4534 44.9429 13.693C45.4079 14.5602 46.1155 15.2731 46.9793 15.7443C47.2189 15.8791 47.4734 15.9989 47.713 16.1486C47.9525 16.2983 48.0873 16.7475 47.713 16.9871Z" fill="white"/>
<path d="M42.6072 36.2426C42.4575 36.8415 42.2778 37.3805 42.2029 37.9345C42.0831 38.9078 42.0232 39.911 41.9783 40.8992C41.8885 42.4714 41.589 43.9687 40.7355 45.3163C40.1516 46.2446 39.373 46.9484 38.235 47.1131C36.7227 47.3227 35.5249 46.7687 34.6864 45.496C33.8479 44.2232 33.6083 43.1003 33.249 41.8425C32.8896 40.5848 32.6351 39.5516 32.2757 38.4286C32.1233 37.9543 31.9013 37.5052 31.6169 37.096C30.7335 35.8383 29.1463 35.8083 28.3078 37.111C27.8586 37.7848 27.5592 38.5933 27.3046 39.3719C26.8105 40.9292 26.4062 42.5313 25.9271 44.0885C25.7492 44.5941 25.5023 45.0728 25.1934 45.5109C23.771 47.682 20.9261 47.7419 19.3988 45.6607C18.4555 44.388 18.0812 42.9056 17.9614 41.3634C17.8566 40.1955 17.8416 39.0276 17.6769 37.8597C17.4673 36.3474 16.7935 34.9998 16.0149 33.7121C15.2363 32.4244 14.6373 31.5859 13.9935 30.5078C13.0801 28.9955 12.2566 27.4234 12.062 25.6416C11.9571 24.6983 12.017 23.74 12.017 22.7817C12.0244 22.6992 12.0446 22.6184 12.0769 22.5421C12.9154 23.4255 13.7389 24.3539 14.6373 25.1924C17.1828 27.5432 20.1175 29.3699 23.202 30.9421C27.3196 33.0533 31.6319 34.6554 36.1687 35.5987C38.1359 36.0297 40.1441 36.2456 42.158 36.2426H42.6072Z" fill="white"/>
<path d="M47.5782 21.3593C47.3685 20.6406 47.0391 19.9518 46.7546 19.2481H46.5899C46.2905 19.7572 45.976 20.2513 45.6915 20.7604C45.4071 21.2695 44.7482 21.7636 43.9696 21.7037C43.6649 21.6921 43.3696 21.5946 43.1179 21.4224C42.8662 21.2502 42.6684 21.0103 42.5472 20.7304C42.0488 19.5661 41.1212 18.6384 39.9568 18.1401C39.8939 18.1197 39.8372 18.0836 39.7921 18.0353C39.5387 17.8808 39.3295 17.6634 39.1848 17.4043C39.0401 17.1451 38.9649 16.853 38.9664 16.5562C38.9679 16.2594 39.0461 15.968 39.1934 15.7103C39.3407 15.4527 39.5521 15.2374 39.8071 15.0856L40.5258 14.6663C40.3037 14.6097 40.0788 14.5647 39.852 14.5315C39.5341 14.4938 39.2138 14.4788 38.8937 14.4866C35.5697 14.5166 33.0392 16.1636 30.8531 18.4845C30.8235 18.5249 30.804 18.5718 30.7962 18.6213C30.7884 18.6707 30.7925 18.7214 30.8082 18.7689C31.3173 19.9069 32.1109 20.7005 33.3986 20.8802C33.728 20.9251 34.0574 20.9401 34.4018 20.97C34.7462 20.9999 35.1055 21.2545 35.1055 21.6288C35.1055 22.0032 34.8061 22.2577 34.3718 22.2577C32.2307 22.2427 30.5986 21.4192 29.6703 19.4128C29.581 19.1748 29.4547 18.9525 29.2959 18.754C28.4431 17.768 27.4609 16.9017 26.3762 16.1786C24.4297 14.9208 22.3184 14.262 19.9976 14.5615C16.8233 14.9658 14.5623 16.7326 13.08 19.5026C12.3164 20.9101 12.3164 20.5058 13.2447 21.7935C14.5773 23.6652 16.3442 25.1176 18.2008 26.4352C22.8874 29.7443 28.0382 32.0801 33.5633 33.6373C36.5879 34.4908 39.6723 35.0597 42.8466 34.94C42.9683 34.9427 43.0879 34.9084 43.1895 34.8415C43.2912 34.7747 43.37 34.6784 43.4156 34.5656L45.0926 31.7806C45.6766 30.7924 46.2905 29.8341 46.8145 28.8159C48.0573 26.4502 48.3418 23.9347 47.5782 21.3593ZM15.1313 20.431C14.9606 20.431 14.7968 20.3631 14.6761 20.2424C14.5553 20.1216 14.4875 19.9579 14.4875 19.7871C14.4952 19.6176 14.568 19.4577 14.6907 19.3405C14.8135 19.2234 14.9766 19.1581 15.1463 19.1583C15.2981 19.1834 15.4359 19.262 15.5347 19.3799C15.6335 19.4978 15.6868 19.6472 15.685 19.801C15.6832 19.9549 15.6264 20.103 15.5248 20.2185C15.4232 20.3341 15.2837 20.4094 15.1313 20.431ZM21.0757 17.047C20.6491 17.0748 20.2243 17.1247 19.803 17.1968C18.8988 17.3909 18.0496 17.7848 17.3174 18.3497C17.1677 18.4545 16.973 18.6192 16.8233 18.5893C16.5767 18.5483 16.3504 18.4273 16.1795 18.2449C15.9698 17.9604 16.1046 17.6609 16.3741 17.4363C17.3631 16.6479 18.53 16.1133 19.773 15.8791L20.6415 15.7593H21.0008C21.4051 15.7743 21.6596 16.0139 21.6746 16.3732C21.6896 16.7326 21.4799 16.9871 21.0757 17.047ZM41.6338 25.4919C41.0645 25.7972 40.6001 26.2667 40.3012 26.8395C39.7771 27.7978 38.5643 27.7978 38.0403 26.8245C37.7451 26.2528 37.2794 25.787 36.7076 25.4919C35.7643 24.9678 35.7494 23.755 36.7076 23.2459C37.2953 22.9534 37.7693 22.4742 38.0552 21.8834C38.1525 21.6761 38.3072 21.5011 38.5009 21.379C38.6947 21.2569 38.9193 21.1929 39.1483 21.1946C39.6574 21.2096 40.0616 21.4192 40.2862 21.8534C40.582 22.4586 41.0651 22.9522 41.6638 23.2609C42.6071 23.785 42.5771 24.9828 41.6338 25.4919Z" fill="white"/>
<path d="M41.08 24.3389C40.1965 24.7732 39.5527 25.3272 39.2083 26.2854C38.7741 25.3871 38.2201 24.7432 37.2917 24.3988C38.1452 23.9496 38.819 23.4106 39.1484 22.4673C39.5826 23.3357 40.1217 23.9796 41.08 24.3389Z" fill="white"/>
</svg>
