<svg width="38" height="38" viewBox="0 0 38 38" fill="none" xmlns="http://www.w3.org/2000/svg">
<rect width="38" height="38" rx="19" transform="matrix(-1 0 0 1 38 0)" fill="#2D2D2D"/>
<path d="M27.8565 12.5481C27.8017 12.5849 27.7441 12.6174 27.6843 12.6454C27.1088 12.9194 26.6439 13.3816 26.3667 13.9555C26.3068 14.0903 26.2618 14.2625 26.0672 14.27C25.8725 14.2775 25.8201 14.0978 25.7602 13.963C25.4809 13.3843 25.0138 12.9173 24.4351 12.6379L24.2405 12.5331C24.0907 12.4208 24.0907 12.2561 24.2405 12.1438L24.3079 12.1064C24.9842 11.8041 25.5254 11.263 25.8276 10.5866C25.8651 10.5042 25.9624 10.4443 26.0522 10.3545C26.1324 10.4101 26.2053 10.4755 26.2693 10.5491C26.3442 10.6614 26.4041 10.7812 26.4715 10.901C26.7039 11.3346 27.0578 11.691 27.4896 11.9267C27.6094 11.9941 27.7367 12.0539 27.8565 12.1288C27.9763 12.2037 28.0437 12.4283 27.8565 12.5481Z" fill="#B9B9B9"/>
<path d="M25.3036 22.1759C25.2287 22.4754 25.1389 22.7449 25.1015 23.0219C25.0416 23.5085 25.0116 24.0101 24.9892 24.5042C24.9442 25.2903 24.7945 26.039 24.3678 26.7128C24.0758 27.1769 23.6865 27.5288 23.1175 27.6112C22.3614 27.716 21.7625 27.439 21.3432 26.8026C20.924 26.1663 20.8042 25.6048 20.6245 24.9759C20.4448 24.347 20.3175 23.8304 20.1379 23.2689C20.0617 23.0318 19.9506 22.8072 19.8085 22.6026C19.3667 21.9738 18.5732 21.9588 18.1539 22.6101C17.9293 22.947 17.7796 23.3513 17.6523 23.7406C17.4053 24.5192 17.2031 25.3203 16.9636 26.0989C16.8746 26.3517 16.7511 26.591 16.5967 26.8101C15.8855 27.8957 14.463 27.9256 13.6994 26.885C13.2277 26.2486 13.0406 25.5074 12.9807 24.7363C12.9283 24.1524 12.9208 23.5684 12.8384 22.9845C12.7336 22.2283 12.3967 21.5545 12.0074 20.9107C11.6181 20.2668 11.3187 19.8476 10.9967 19.3085C10.5401 18.5524 10.1283 17.7663 10.031 16.8754C9.97857 16.4038 10.0085 15.9246 10.0085 15.4455C10.0122 15.4042 10.0223 15.3638 10.0385 15.3257C10.4577 15.7674 10.8695 16.2316 11.3187 16.6508C12.5914 17.8262 14.0588 18.7396 15.601 19.5257C17.6598 20.5813 19.8159 21.3823 22.0844 21.854C23.068 22.0695 24.0721 22.1774 25.079 22.1759H25.3036Z" fill="#B9B9B9"/>
<path d="M27.7891 14.7342C27.6843 14.3749 27.5196 14.0305 27.3773 13.6786H27.295C27.1452 13.9332 26.988 14.1802 26.8458 14.4348C26.7035 14.6893 26.3741 14.9364 25.9848 14.9064C25.8324 14.9006 25.6848 14.8519 25.559 14.7657C25.4331 14.6796 25.3342 14.5597 25.2736 14.4198C25.0244 13.8376 24.5606 13.3738 23.9784 13.1246C23.947 13.1144 23.9186 13.0964 23.8961 13.0722C23.7693 12.995 23.6647 12.8863 23.5924 12.7567C23.5201 12.6271 23.4824 12.4811 23.4832 12.3327C23.4839 12.1843 23.523 12.0386 23.5967 11.9097C23.6703 11.7809 23.7761 11.6733 23.9036 11.5973L24.2629 11.3877C24.1519 11.3594 24.0394 11.3369 23.926 11.3203C23.767 11.3015 23.6069 11.294 23.4469 11.2979C21.7848 11.3129 20.5196 12.1364 19.4266 13.2968C19.4118 13.317 19.402 13.3405 19.3981 13.3652C19.3942 13.3899 19.3963 13.4153 19.4041 13.439C19.6587 14.008 20.0554 14.4048 20.6993 14.4946C20.864 14.5171 21.0287 14.5246 21.2009 14.5396C21.3731 14.5545 21.5528 14.6818 21.5528 14.869C21.5528 15.0561 21.403 15.1834 21.1859 15.1834C20.1153 15.1759 19.2993 14.7642 18.8351 13.761C18.7905 13.642 18.7273 13.5308 18.648 13.4316C18.2215 12.9386 17.7305 12.5054 17.1881 12.1439C16.2148 11.515 15.1592 11.1856 13.9988 11.3353C12.4116 11.5374 11.2812 12.4209 10.54 13.8059C10.1582 14.5096 10.1582 14.3075 10.6224 14.9513C11.2887 15.8872 12.1721 16.6134 13.1004 17.2722C15.4437 18.9267 18.0191 20.0946 20.7816 20.8732C22.2939 21.3 23.8362 21.5844 25.4233 21.5245C25.4841 21.5259 25.5439 21.5088 25.5948 21.4753C25.6456 21.4419 25.685 21.3938 25.7078 21.3374L26.5463 19.9449C26.8383 19.4508 27.1452 18.9716 27.4073 18.4625C28.0287 17.2797 28.1709 16.0219 27.7891 14.7342ZM11.5657 14.2701C11.4803 14.2701 11.3984 14.2361 11.338 14.1758C11.2777 14.1154 11.2437 14.0335 11.2437 13.9481C11.2476 13.8634 11.284 13.7834 11.3454 13.7248C11.4067 13.6662 11.4883 13.6336 11.5732 13.6337C11.649 13.6462 11.7179 13.6856 11.7673 13.7445C11.8167 13.8035 11.8434 13.8782 11.8425 13.9551C11.8416 14.032 11.8132 14.106 11.7624 14.1638C11.7116 14.2216 11.6418 14.2593 11.5657 14.2701ZM14.5378 12.5781C14.3246 12.5919 14.1122 12.6169 13.9015 12.6529C13.4494 12.75 13.0248 12.947 12.6587 13.2294C12.5838 13.2818 12.4865 13.3642 12.4116 13.3492C12.2883 13.3287 12.1752 13.2682 12.0897 13.177C11.9849 13.0348 12.0523 12.885 12.1871 12.7727C12.6816 12.3785 13.265 12.1112 13.8865 11.9941L14.3207 11.9342H14.5004C14.7025 11.9417 14.8298 12.0615 14.8373 12.2412C14.8448 12.4209 14.74 12.5481 14.5378 12.5781ZM24.8169 16.8005C24.5322 16.9532 24.3001 17.1879 24.1506 17.4743C23.8886 17.9534 23.2822 17.9534 23.0201 17.4668C22.8726 17.1809 22.6397 16.9481 22.3538 16.8005C21.8822 16.5385 21.8747 15.9321 22.3538 15.6775C22.6477 15.5313 22.8846 15.2917 23.0276 14.9962C23.0763 14.8926 23.1536 14.8051 23.2505 14.7441C23.3473 14.683 23.4597 14.651 23.5741 14.6519C23.8287 14.6594 24.0308 14.7642 24.1431 14.9813C24.291 15.2839 24.5325 15.5307 24.8319 15.685C25.3035 15.947 25.2886 16.546 24.8169 16.8005Z" fill="#B9B9B9"/>
<path d="M24.5399 16.2239C24.0982 16.441 23.7762 16.718 23.604 17.1972C23.3869 16.748 23.1099 16.426 22.6458 16.2539C23.0725 16.0293 23.4094 15.7597 23.5741 15.2881C23.7912 15.7223 24.0607 16.0442 24.5399 16.2239Z" fill="#B9B9B9"/>
</svg>
