<svg width="80" height="80" viewBox="0 0 80 80" fill="none" xmlns="http://www.w3.org/2000/svg">
<path d="M40 80C62.0914 80 80 62.0914 80 40C80 17.9086 62.0914 0 40 0C17.9086 0 0 17.9086 0 40C0 62.0914 17.9086 80 40 80Z" fill="#100E10"/>
<path d="M53.8262 18.9004C54.4078 19.8243 54.8841 20.8104 55.2462 21.8404C56.3036 24.7252 56.9695 27.7387 57.2262 30.8004C57.3726 32.3694 57.3993 33.9473 57.3062 35.5204C57.2862 36.0804 57.4662 36.3004 57.9862 36.3804C58.7096 36.5248 59.4189 36.7323 60.1062 37.0004L58.4662 37.4404C57.1862 37.7404 57.2462 37.7604 57.0862 39.0804C56.2862 45.5804 54.5462 51.8004 51.0262 57.4004C50.2262 58.6604 49.3062 59.8204 48.0262 60.6404C46.7462 61.4604 45.3862 61.1804 44.4662 60.0404C43.5462 58.9004 43.1862 57.3804 42.8262 55.9404C42.3062 53.7604 41.9862 51.5404 41.3462 49.4004C40.9262 47.9604 40.3862 46.6004 39.4062 45.4404C39.0509 44.9903 38.6088 44.6163 38.1062 44.3404C36.9862 43.7004 35.9062 44.0204 35.1662 45.2604C34.4262 46.5004 34.1462 47.7404 33.8262 49.0404C33.2462 51.2804 32.6462 53.4804 31.6662 55.5804C31.3722 56.2232 30.9809 56.8168 30.5062 57.3404C29.7262 58.1404 28.9062 58.2404 27.9462 57.6604C27.3772 57.3044 26.8816 56.8427 26.4862 56.3004C24.7462 54.0204 23.6462 51.4804 23.5062 48.5604C23.4262 46.6204 23.4662 44.7004 23.8862 42.8004C24.5062 40.0404 26.1662 38.2404 28.8262 37.3004C31.0262 36.5204 33.3062 36.1804 35.5862 35.7204C38.3462 35.1804 41.0662 34.5804 43.6462 33.4004C48.6862 31.0804 51.7262 27.1204 53.2062 21.8604C53.4651 20.8854 53.6721 19.8973 53.8262 18.9004ZM54.5262 32.6404C54.3998 33.5653 54.1855 34.4761 53.8862 35.3604C53.8068 35.5845 53.6772 35.7875 53.5073 35.9539C53.3375 36.1203 53.1319 36.2456 52.9062 36.3204C52.099 36.5697 51.2775 36.7701 50.4462 36.9204C50.5262 37.1004 50.6662 37.0604 50.8062 37.0804L52.5662 37.5004C52.9258 37.5616 53.2576 37.733 53.5156 37.991C53.7736 38.2489 53.945 38.5807 54.0062 38.9404C54.1662 39.6604 54.3662 40.3604 54.5662 41.2204C54.6662 40.7404 54.7262 40.4004 54.8062 40.0804C55.4062 37.7204 55.2862 37.8004 57.7062 37.2004C58.0262 37.1204 58.4062 37.1604 58.7262 36.9404C58.0462 36.7804 57.4262 36.6204 56.8062 36.5004C55.7862 36.3004 55.2062 35.7204 55.0262 34.7004C54.9062 34.0604 54.7262 33.4204 54.5262 32.6404Z" fill="white"/>
<path d="M22.7705 48.1004C21.9123 45.8466 21.2433 43.5253 20.7705 41.1604C20.1305 38.1204 19.7304 35.0404 19.9104 31.9404C19.9694 30.7621 20.1916 29.5977 20.5705 28.4804C21.6105 25.4604 23.9305 24.0804 27.1105 24.6004C28.6705 24.8604 30.1304 25.4604 31.6904 25.7204C33.7504 26.0604 35.8304 26.4804 38.0504 26.2804C37.5496 26.6627 36.9559 26.9043 36.3304 26.9804C35.7104 27.0604 35.1104 27.1404 34.5104 27.2604C35.7905 27.7404 37.0904 27.7404 38.3904 27.4604C44.0904 26.2204 49.0705 23.6204 53.2304 19.5204L53.3704 19.4404C53.4704 19.5004 53.4505 19.5604 53.4305 19.6404C52.2505 22.5404 50.7904 25.2604 48.5905 27.5404C46.0905 30.1204 42.9904 31.6004 39.5904 32.5404C36.9104 33.2804 34.1704 33.7004 31.4704 34.3604C30.2736 34.6405 29.1027 35.0219 27.9704 35.5004C24.4504 36.9404 22.7104 39.6204 22.4304 43.3604C22.3401 44.8007 22.441 46.2466 22.7304 47.6604C22.7504 47.8004 22.7505 47.9604 22.7705 48.1004Z" fill="white"/>
</svg>
