<svg width="38" height="38" viewBox="0 0 38 38" fill="none" xmlns="http://www.w3.org/2000/svg">
<rect width="38" height="38" rx="19" transform="matrix(-1 0 0 1 38 0)" fill="white"/>
<g clip-path="url(#clip0_116_4409)">
<g clip-path="url(#clip1_116_4409)">
<path d="M21.7747 21.6503C19.7464 21.2028 17.8185 20.4545 15.971 19.4755C14.5988 18.7412 13.2934 17.8881 12.1488 16.7832C11.7471 16.3916 11.379 15.958 11.0041 15.5454C10.989 15.5832 10.9799 15.6234 10.9773 15.6643C10.9773 16.1049 10.9506 16.5524 10.9974 16.993C11.0844 17.8321 11.4526 18.5594 11.8609 19.2657C12.1488 19.7692 12.4701 20.2587 12.7646 20.7622C13.0592 21.2657 13.4139 22 13.5077 22.7062C13.5813 23.2447 13.5947 23.7902 13.6348 24.3356C13.6884 25.0629 13.8557 25.7482 14.2775 26.3426C14.9602 27.3146 16.2321 27.2867 16.868 26.2797C17.0049 26.0718 17.1151 25.8461 17.196 25.6083C17.4102 24.8811 17.591 24.1398 17.8119 23.4125C17.9153 23.0389 18.0661 22.6814 18.2603 22.3496C18.6352 21.7412 19.3448 21.7552 19.7397 22.3496C19.8668 22.5382 19.9661 22.7456 20.0342 22.965C20.1949 23.4895 20.3288 24.0279 20.4693 24.5594C20.6099 25.0909 20.7773 25.7482 21.112 26.2657C21.28 26.5365 21.5186 26.7515 21.7996 26.8853C22.0807 27.0191 22.3926 27.0662 22.6984 27.0209C23.2072 26.944 23.5553 26.6153 23.8163 26.1818C24.1979 25.5524 24.3317 24.8531 24.3719 24.1188C24.392 23.6573 24.4188 23.1958 24.4723 22.7342C24.5058 22.4755 24.5861 22.2237 24.6531 21.944H24.4522C23.552 21.9516 22.6538 21.8531 21.7747 21.6503Z" fill="#161616"/>
<path d="M23.1068 15.5103C22.9595 15.9508 22.6583 16.2096 22.2767 16.4124C22.6917 16.5802 22.9394 16.8809 23.1335 17.2935C23.2875 16.8459 23.5753 16.5942 23.9703 16.3844C23.5419 16.2165 23.3009 15.9158 23.1068 15.5103Z" fill="#161616"/>
<path d="M11.8342 12.5522C11.2451 12.7201 10.8234 13.3215 10.9506 13.797C11.0844 13.5802 11.2116 13.3634 11.3522 13.1606C11.4928 12.9578 11.6668 12.769 11.8342 12.5522Z" fill="#161616"/>
<path d="M23.7025 12.9372C23.7566 12.9788 23.815 13.0139 23.8765 13.042C24.3935 13.3003 24.8112 13.7342 25.0614 14.2728C25.1149 14.3987 25.1551 14.5595 25.3358 14.5595C25.5165 14.5595 25.55 14.3917 25.6036 14.2658C25.8515 13.7297 26.2671 13.298 26.7817 13.042C26.8365 13.0186 26.8882 12.9881 26.9357 12.9511C27.103 12.8392 27.103 12.6714 26.9357 12.5665L26.6077 12.3707C26.2201 12.1526 25.9032 11.8192 25.6973 11.4127C25.637 11.3008 25.5835 11.1889 25.5165 11.084C25.4496 10.9791 25.4094 10.9861 25.3224 10.9092C25.2421 10.9931 25.1551 11.042 25.1216 11.126C24.849 11.7544 24.3656 12.2568 23.7627 12.5386L23.7025 12.5805C23.5686 12.6854 23.5686 12.8323 23.7025 12.9372Z" fill="#161616"/>
<path d="M27.9598 19.5594C27.8862 19.2289 27.7784 18.9077 27.6385 18.6014L27.5716 18.4336V18.4196C28.0803 17.0979 28.1138 15.7622 27.672 14.4406C27.5917 14.2168 27.498 13.993 27.4043 13.7762C27.5774 13.676 27.7215 13.529 27.8216 13.3506C27.9217 13.1722 27.9741 12.969 27.9732 12.7622C27.9786 12.534 27.9175 12.3095 27.798 12.1184C27.6784 11.9273 27.5061 11.7787 27.3038 11.6923C26.8791 11.4904 26.5406 11.1318 26.3533 10.6853C26.2669 10.4822 26.1262 10.3094 25.9481 10.1879C25.7699 10.0663 25.562 10.0011 25.3492 10H25.3157C24.8806 10.007 24.5259 10.2448 24.3183 10.6783L24.1376 11L23.997 10.972C23.6754 10.899 23.3485 10.8545 23.0197 10.8392H22.8858C21.7546 10.8392 20.6969 11.2517 19.6594 12.1049C19.4652 12.2657 19.2845 12.4336 19.0971 12.6084L18.9833 12.7203L18.8561 12.5944C18.5937 12.332 18.3141 12.089 18.0194 11.8671C17.0487 11.1748 16.0446 10.8252 15.0472 10.8252C14.3187 10.8331 13.6 11.0023 12.9387 11.3217C12.9166 11.336 12.891 11.3433 12.865 11.3427H12.8516C12.209 11.4196 11.727 11.5385 11.2919 11.7413C9.94646 12.3776 9.77911 13.6993 10.2075 14.7413C10.213 14.7617 10.2153 14.783 10.2142 14.8042V14.8252C10.1919 14.951 10.1718 15.0839 10.154 15.2238C10.0938 15.512 10.0513 15.804 10.0268 16.0979C9.97324 17.1469 10.2276 18.1958 10.7832 19.2028C11.0443 19.6783 11.3321 20.1538 11.6066 20.6224L11.9546 21.2028C12.2291 21.6713 12.5504 22.2937 12.6307 22.993C12.6642 23.2797 12.6776 23.5594 12.691 23.8601C12.7044 24.035 12.7111 24.2098 12.7244 24.3846C12.7847 25.3427 13.0391 26.1538 13.4942 26.8462C13.7199 27.2015 14.0263 27.4928 14.3861 27.6942C14.7459 27.8955 15.1478 28.0006 15.556 28C15.9766 28.0031 16.3908 27.8912 16.7572 27.6753C17.1236 27.4593 17.4295 27.147 17.6445 26.7692C17.8699 26.3722 18.0518 25.95 18.1867 25.5105C18.3206 25.0979 18.4277 24.6783 18.5281 24.2727C18.5816 24.042 18.6419 23.8042 18.7088 23.5734C18.763 23.3614 18.8416 23.1571 18.9431 22.965C18.9568 22.9344 18.9749 22.9061 18.9967 22.8811L19.0569 22.972C19.1038 23.0595 19.1441 23.1507 19.1774 23.2448C19.3046 23.7063 19.4251 24.1748 19.5456 24.6224L19.646 24.993C19.8133 25.6573 20.0409 26.4126 20.5296 27.0559C20.936 27.5778 21.5228 27.9114 22.163 27.9847C22.8031 28.058 23.4452 27.865 23.9502 27.4476C24.3853 27.0839 24.7066 26.5944 24.9677 25.9021C25.2287 25.2098 25.2756 24.5035 25.2957 23.6713C25.2997 23.1725 25.3858 22.6782 25.55 22.2098H25.5567C26.1726 22.1189 26.6478 21.9441 27.0562 21.6643C27.8059 21.1469 28.1205 20.4196 27.9598 19.5594ZM26.8754 21.3706C26.4604 21.6573 25.9918 21.7902 25.5099 21.8601C25.3626 21.8811 25.289 21.9371 25.2421 22.0769C25.0626 22.5855 24.9675 23.1223 24.961 23.6643C24.9476 24.3846 24.9007 25.0909 24.653 25.7762C24.4522 26.3147 24.1845 26.8042 23.7427 27.1748C23.3062 27.5343 22.7518 27.6999 22.1994 27.6358C21.647 27.5717 21.1409 27.283 20.7906 26.8322C20.3622 26.2657 20.148 25.5874 19.9673 24.9021C19.8133 24.3217 19.6594 23.7343 19.4987 23.1469C19.4584 23.0231 19.4068 22.9037 19.3448 22.7902C19.1372 22.4196 18.8427 22.4196 18.6486 22.7972C18.5354 23.0113 18.4477 23.2391 18.3875 23.4755C18.2135 24.1119 18.0729 24.7622 17.8721 25.3986C17.7458 25.8147 17.5728 26.2138 17.3567 26.5874C16.5802 27.951 14.6791 28.035 13.7754 26.6504C13.3202 25.958 13.1127 25.1818 13.0591 24.3566C13.0257 23.8881 13.019 23.4126 12.9654 22.951C12.8851 22.2448 12.5906 21.6154 12.2425 21.021C11.8944 20.4266 11.4459 19.7063 11.0777 19.028C10.5824 18.1329 10.3079 17.1608 10.3615 16.1189C10.3883 15.6993 10.482 15.2867 10.5422 14.8741C10.5559 14.7851 10.549 14.694 10.5221 14.6084C10.1741 13.7762 10.241 12.6224 11.4325 12.0629C11.8944 11.8462 12.3897 11.7483 12.8918 11.6923C12.9563 11.686 13.0195 11.6694 13.0792 11.6434C14.7594 10.8462 16.3392 11.0909 17.8319 12.1538C18.2001 12.4196 18.5214 12.7552 18.8561 13.0699C18.8953 13.1117 18.9291 13.1588 18.9565 13.2098C19.2845 12.9161 19.559 12.6294 19.8669 12.3776C20.7906 11.6224 21.8215 11.1538 23.013 11.1888C23.4013 11.1958 23.7828 11.2867 24.1644 11.3566C24.2715 11.3776 24.325 11.3636 24.3719 11.2797L24.6129 10.8392C24.7601 10.5315 24.9944 10.3497 25.3224 10.3497C25.4748 10.3436 25.6253 10.3857 25.7543 10.4706C25.8833 10.5554 25.9848 10.679 26.0454 10.8252C26.266 11.3536 26.6668 11.7773 27.17 12.014C27.31 12.0737 27.4293 12.1767 27.5119 12.3092C27.5944 12.4416 27.6363 12.5973 27.6318 12.7552C27.6318 13.1049 27.4578 13.3497 27.17 13.5105L26.9691 13.6224C27.103 13.9441 27.2436 14.2448 27.3507 14.5594C27.7724 15.8182 27.7256 17.0629 27.2503 18.2937C27.2306 18.338 27.2216 18.3866 27.2239 18.4353C27.2262 18.484 27.2399 18.5314 27.2637 18.5734C27.4043 18.9161 27.5649 19.2587 27.6318 19.6224C27.7724 20.3776 27.4779 20.958 26.8754 21.3706Z" fill="#161616"/>
<path d="M25.6237 21.2237C25.9568 21.1759 26.2763 21.0543 26.5608 20.8671C27.1097 20.5034 27.2503 19.7202 26.8821 19.1328C26.4671 19.8251 26.0588 20.5104 25.6237 21.2237Z" fill="#161616"/>
<path d="M26.534 18.4825C27.0896 17.3706 27.2168 16.2028 26.8754 14.993C26.7817 14.6573 26.6344 14.3357 26.5073 14.007H26.4336C26.2997 14.2447 26.1592 14.4755 26.032 14.7133C25.9048 14.951 25.6103 15.1888 25.2622 15.1608C25.1256 15.1532 24.9938 15.106 24.8815 15.0244C24.7691 14.9429 24.6808 14.8303 24.6263 14.6993C24.3992 14.1602 23.9856 13.7305 23.4682 13.4965L23.3946 13.4475C23.3074 13.3917 23.2316 13.3184 23.1715 13.2319C23.1115 13.1454 23.0684 13.0473 23.0448 12.9433C23.0212 12.8394 23.0174 12.7315 23.0338 12.626C23.0502 12.5206 23.0863 12.4195 23.1402 12.3287C23.2081 12.2217 23.2971 12.1311 23.4013 12.0629L23.7226 11.8671L23.4214 11.8112C23.2808 11.7972 23.1335 11.7832 22.9929 11.7832C21.5069 11.8042 20.3756 12.5664 19.3983 13.6573C19.3851 13.6749 19.3764 13.6956 19.3728 13.7176C19.3693 13.7396 19.3712 13.7621 19.3782 13.7832C19.6058 14.3217 19.9606 14.6853 20.5363 14.7692C20.6842 14.7974 20.8344 14.8114 20.9848 14.8112C21.1789 14.8252 21.2994 14.951 21.2994 15.1259C21.2994 15.3007 21.1655 15.4196 20.9647 15.4126C20.0141 15.4126 19.2845 15.021 18.8762 14.0839C18.8272 13.976 18.7689 13.8731 18.7021 13.7762C18.3173 13.3194 17.8787 12.9153 17.3968 12.5734C16.5266 11.986 15.5828 11.6783 14.5452 11.8182C13.1261 12.014 12.1153 12.8322 11.4526 14.1259C11.1179 14.7832 11.1112 14.5944 11.5262 15.2028C12.122 16.0699 12.9119 16.7482 13.7419 17.3636C15.8371 18.9091 18.1398 20 20.6099 20.7273C21.9621 21.1259 23.341 21.3916 24.7601 21.3357C24.894 21.3357 24.9543 21.2797 25.0145 21.1678C25.2622 20.7273 25.5166 20.2937 25.7642 19.8601C26.0119 19.4266 26.2997 18.951 26.534 18.4825ZM12.3764 14.5594H12.3697C12.2933 14.5594 12.2201 14.5277 12.1661 14.4714C12.1121 14.415 12.0818 14.3385 12.0818 14.2587C12.0818 14.2196 12.0893 14.1808 12.1038 14.1447C12.1184 14.1086 12.1397 14.0759 12.1665 14.0485C12.1933 14.0212 12.2251 13.9997 12.26 13.9853C12.2949 13.971 12.3322 13.9641 12.3697 13.965C12.446 13.965 12.5192 13.9967 12.5732 14.0531C12.6272 14.1095 12.6575 14.186 12.6575 14.2657C12.6575 14.3436 12.6279 14.4183 12.5752 14.4734C12.5224 14.5285 12.4509 14.5594 12.3764 14.5594ZM15.0272 12.979C14.8464 13.007 14.6456 13.014 14.4582 13.0489C14.0535 13.1382 13.6736 13.3223 13.347 13.5874C13.28 13.6363 13.193 13.7133 13.1261 13.7063C13.0142 13.6874 12.9123 13.628 12.8382 13.5384C12.7445 13.4056 12.8048 13.2657 12.9253 13.1608C13.3662 12.7919 13.8886 12.5442 14.4448 12.4405C14.5731 12.4146 14.7027 12.3959 14.833 12.3846C14.8861 12.3753 14.9401 12.373 14.9937 12.3776C15.1744 12.3846 15.2882 12.4895 15.2949 12.6573C15.3016 12.8252 15.2079 12.951 15.0272 12.979ZM24.2179 16.9301C23.9623 17.0679 23.7541 17.2854 23.6222 17.5524C23.3879 18.007 22.8457 18 22.6114 17.5454C22.4777 17.2798 22.2699 17.0627 22.0156 16.9231C21.5939 16.6853 21.5872 16.1119 22.0156 15.8811C22.2773 15.7398 22.4886 15.5142 22.6181 15.2377C22.6612 15.1412 22.7305 15.0599 22.8173 15.004C22.9041 14.948 23.0048 14.9199 23.1067 14.9231C23.3343 14.9231 23.5151 15.021 23.6155 15.2308C23.7611 15.5014 23.9738 15.7261 24.2313 15.8811C24.653 16.1259 24.6397 16.6853 24.2179 16.9301Z" fill="#161616"/>
</g>
</g>
<defs>
<clipPath id="clip0_116_4409">
<rect width="18" height="18" fill="white" transform="matrix(-1 0 0 1 28 10)"/>
</clipPath>
<clipPath id="clip1_116_4409">
<rect width="18" height="18" fill="white" transform="translate(10 10)"/>
</clipPath>
</defs>
</svg>
