<svg width="60" height="60" viewBox="0 0 60 60" fill="none" xmlns="http://www.w3.org/2000/svg">
<rect width="60" height="60" rx="30" fill="white"/>
<path d="M47.713 16.9871C47.6034 17.0608 47.4883 17.1259 47.3687 17.1818C46.2176 17.7298 45.2879 18.6541 44.7334 19.8021C44.6136 20.0716 44.5238 20.416 44.1345 20.4309C43.7452 20.4459 43.6403 20.0866 43.5206 19.817C42.9618 18.6597 42.0277 17.7255 40.8703 17.1668L40.481 16.9572C40.1815 16.7326 40.1815 16.4032 40.481 16.1786L40.6158 16.1037C41.9685 15.4992 43.0508 14.4169 43.6553 13.0641C43.7302 12.8994 43.9248 12.7797 44.1045 12.6C44.2648 12.7112 44.4107 12.842 44.5387 12.9893C44.6885 13.2139 44.8082 13.4534 44.943 13.693C45.4079 14.5602 46.1156 15.2731 46.9794 15.7443C47.2189 15.8791 47.4735 15.9989 47.713 16.1486C47.9526 16.2983 48.0874 16.7475 47.713 16.9871Z" fill="#161616"/>
<path d="M42.6072 36.2426C42.4575 36.8415 42.2778 37.3805 42.2029 37.9345C42.0831 38.9078 42.0232 39.911 41.9783 40.8992C41.8885 42.4714 41.589 43.9687 40.7355 45.3163C40.1516 46.2446 39.373 46.9484 38.235 47.1131C36.7227 47.3227 35.5249 46.7687 34.6864 45.496C33.8479 44.2232 33.6083 43.1003 33.249 41.8425C32.8896 40.5848 32.6351 39.5516 32.2757 38.4286C32.1233 37.9543 31.9013 37.5052 31.6169 37.096C30.7335 35.8383 29.1463 35.8083 28.3078 37.111C27.8586 37.7848 27.5592 38.5933 27.3046 39.3719C26.8105 40.9292 26.4062 42.5313 25.9271 44.0885C25.7492 44.5941 25.5023 45.0728 25.1934 45.5109C23.771 47.682 20.9261 47.7419 19.3988 45.6607C18.4555 44.388 18.0812 42.9056 17.9614 41.3634C17.8566 40.1955 17.8416 39.0276 17.6769 37.8597C17.4673 36.3474 16.7935 34.9998 16.0149 33.7121C15.2363 32.4244 14.6373 31.5859 13.9935 30.5078C13.0801 28.9955 12.2566 27.4234 12.062 25.6416C11.9571 24.6983 12.017 23.74 12.017 22.7817C12.0244 22.6992 12.0446 22.6184 12.0769 22.5421C12.9154 23.4255 13.7389 24.3539 14.6373 25.1924C17.1828 27.5432 20.1175 29.3699 23.202 30.9421C27.3196 33.0533 31.6319 34.6554 36.1687 35.5987C38.1359 36.0297 40.1441 36.2456 42.158 36.2426H42.6072Z" fill="#161616"/>
<path d="M47.5783 21.3593C47.3687 20.6406 47.0392 19.9518 46.7548 19.2481H46.5901C46.2906 19.7572 45.9762 20.2513 45.6917 20.7604C45.4072 21.2695 44.7484 21.7636 43.9698 21.7037C43.665 21.6921 43.3697 21.5946 43.1181 21.4224C42.8664 21.2502 42.6685 21.0103 42.5473 20.7304C42.0489 19.5661 41.1213 18.6384 39.9569 18.1401C39.894 18.1197 39.8374 18.0836 39.7922 18.0353C39.5388 17.8808 39.3296 17.6634 39.1849 17.4043C39.0402 17.1451 38.965 16.853 38.9665 16.5562C38.968 16.2594 39.0462 15.968 39.1935 15.7103C39.3408 15.4527 39.5522 15.2374 39.8072 15.0856L40.5259 14.6663C40.3038 14.6097 40.0789 14.5647 39.8521 14.5315C39.5342 14.4938 39.2139 14.4788 38.8939 14.4866C35.5698 14.5166 33.0393 16.1636 30.8533 18.4845C30.8237 18.5249 30.8041 18.5718 30.7963 18.6213C30.7885 18.6707 30.7926 18.7214 30.8083 18.7689C31.3174 19.9069 32.111 20.7005 33.3987 20.8802C33.7281 20.9251 34.0575 20.9401 34.4019 20.97C34.7463 20.9999 35.1056 21.2545 35.1056 21.6288C35.1056 22.0032 34.8062 22.2577 34.372 22.2577C32.2308 22.2427 30.5987 21.4192 29.6704 19.4128C29.5811 19.1748 29.4548 18.9525 29.2961 18.754C28.4432 17.768 27.4611 16.9017 26.3763 16.1786C24.4298 14.9208 22.3186 14.262 19.9977 14.5615C16.8234 14.9658 14.5625 16.7326 13.0801 19.5026C12.3165 20.9101 12.3165 20.5058 13.2448 21.7935C14.5774 23.6652 16.3443 25.1176 18.2009 26.4352C22.8875 29.7443 28.0383 32.0801 33.5634 33.6373C36.588 34.4908 39.6725 35.0597 42.8468 34.94C42.9684 34.9427 43.088 34.9084 43.1896 34.8415C43.2913 34.7747 43.3701 34.6784 43.4157 34.5656L45.0927 31.7806C45.6767 30.7924 46.2906 29.8341 46.8147 28.8159C48.0574 26.4502 48.3419 23.9347 47.5783 21.3593ZM15.1315 20.431C14.9607 20.431 14.7969 20.3631 14.6762 20.2424C14.5554 20.1216 14.4876 19.9579 14.4876 19.7871C14.4953 19.6176 14.5681 19.4577 14.6908 19.3405C14.8136 19.2234 14.9768 19.1581 15.1464 19.1583C15.2982 19.1834 15.436 19.262 15.5348 19.3799C15.6336 19.4978 15.6869 19.6472 15.6851 19.801C15.6833 19.9549 15.6265 20.103 15.5249 20.2185C15.4234 20.3341 15.2838 20.4094 15.1315 20.431ZM21.0758 17.047C20.6492 17.0748 20.2244 17.1247 19.8031 17.1968C18.8989 17.3909 18.0497 17.7848 17.3175 18.3497C17.1678 18.4545 16.9732 18.6192 16.8234 18.5893C16.5768 18.5483 16.3505 18.4273 16.1796 18.2449C15.9699 17.9604 16.1047 17.6609 16.3742 17.4363C17.3633 16.6479 18.5301 16.1133 19.7731 15.8791L20.6416 15.7593H21.0009C21.4052 15.7743 21.6597 16.0139 21.6747 16.3732C21.6897 16.7326 21.4801 16.9871 21.0758 17.047ZM41.6339 25.4919C41.0646 25.7972 40.6002 26.2667 40.3013 26.8395C39.7773 27.7978 38.5644 27.7978 38.0404 26.8245C37.7453 26.2528 37.2795 25.787 36.7078 25.4919C35.7645 24.9678 35.7495 23.755 36.7078 23.2459C37.2954 22.9534 37.7694 22.4742 38.0554 21.8834C38.1527 21.6761 38.3073 21.5011 38.5011 21.379C38.6948 21.2569 38.9194 21.1929 39.1484 21.1946C39.6575 21.2096 40.0618 21.4192 40.2864 21.8534C40.5821 22.4586 41.0652 22.9522 41.6639 23.2609C42.6072 23.785 42.5772 24.9828 41.6339 25.4919Z" fill="#161616"/>
<path d="M41.0799 24.3389C40.1965 24.7732 39.5526 25.3272 39.2083 26.2854C38.774 25.3871 38.22 24.7432 37.2917 24.3988C38.1452 23.9496 38.8189 23.4106 39.1484 22.4673C39.5826 23.3357 40.1216 23.9796 41.0799 24.3389Z" fill="#161616"/>
</svg>
