<svg width="34" height="34" viewBox="0 0 34 34" fill="none" xmlns="http://www.w3.org/2000/svg">
<path d="M26.931 12.2507C26.9448 13.47 26.682 14.8113 26.2809 16.1222C25.8465 17.4996 25.5813 18.935 25.4925 20.39C25.4075 22.0914 24.8252 23.7169 23.8327 25.0236C23.5201 25.4622 23.1171 25.8123 22.6571 26.0448C21.8548 26.4411 21.1633 26.121 20.8867 25.2065C20.7068 24.6273 20.7207 24.0329 20.7898 23.4232C20.859 22.8135 20.9143 22.4019 20.8452 21.899C20.8175 21.6856 20.8037 21.4569 20.5824 21.3807C20.3611 21.3045 20.2227 21.4874 20.0983 21.6398C19.5865 22.28 19.3929 23.0574 19.3375 23.8804C19.2822 24.7035 19.3929 25.4809 19.5312 26.2735C19.6227 26.6716 19.66 27.0826 19.6418 27.4928C19.5588 28.3921 18.9641 28.9561 18.148 28.8951C17.332 28.8341 16.3914 28.3007 15.7414 27.5386C14.2752 25.8162 13.5145 23.789 13.5698 21.4112C13.5928 20.7894 13.5603 20.1665 13.473 19.5517C13.3943 19.0231 13.2049 18.5221 12.9198 18.0884C11.9654 16.6557 11.0525 15.2076 10.4025 13.5767C9.94602 12.4031 9.58641 11.1837 9.73855 9.88813C10.112 6.85494 12.0346 4.81249 15.0636 5.13257C16.4894 5.30859 17.846 5.90344 18.9917 6.85494C19.0561 6.92587 19.1405 6.97055 19.231 6.98163C19.3215 6.99271 19.4127 6.96953 19.4897 6.91591C20.3522 6.43462 21.2921 6.14461 22.256 6.06234C24.3722 5.90992 25.9213 7.09881 26.5714 9.33941C26.8341 10.2235 26.931 11.138 26.931 12.2507Z" fill="white" style="fill:white;fill-opacity:1;"/>
<path d="M14.2852 27.5698C13.1193 27.4199 11.9837 27.0594 10.9241 26.5029C10.0389 26.0151 9.25055 25.4054 8.6558 24.5214C7.52163 22.8447 7.45247 21.0309 8.1717 19.1409C8.61431 17.9672 9.31971 16.9917 10.1219 16.0772C10.2602 15.9248 10.3294 15.9705 10.4124 16.1382C10.9103 17.0527 11.4774 17.9215 12.0445 18.7903C12.3626 19.2628 12.4456 19.8268 12.4733 20.3907C12.5009 20.9547 12.4871 21.5339 12.5009 22.1131C12.5563 24.0031 13.1372 25.695 14.133 27.2345C14.213 27.327 14.266 27.4438 14.2852 27.5698Z" fill="white" style="fill:white;fill-opacity:1;"/>
<path d="M25.1602 25.1313C25.6276 24.2765 25.9948 23.3597 26.2528 22.403C26.4698 21.5903 26.5907 20.7501 26.6125 19.9033C26.6263 18.6687 26.9997 17.5103 27.3317 16.3519C27.6636 15.1935 27.9126 14.1265 27.9818 12.9529C27.9956 12.6785 28.0924 12.7242 28.2446 12.8462C30.4991 14.4466 31.2045 17.1902 30.0565 19.8728C29.3926 21.4427 28.3414 22.6926 27.1104 23.7596C26.5042 24.2885 25.8508 24.7482 25.1602 25.1313Z" fill="white" style="fill:white;fill-opacity:1;"/>
<path d="M8.2266 14.2016C7.4797 14.2016 6.9956 14.735 6.98177 15.5581V15.863C6.96794 16.0001 6.89878 16.0916 6.7743 16.0764C6.72661 16.0764 6.68088 16.0555 6.64716 16.0183C6.61344 15.9812 6.59449 15.9308 6.59449 15.8782C6.58757 15.7411 6.58757 15.6037 6.59449 15.4667C6.59269 15.2985 6.56084 15.1324 6.50078 14.9779C6.44072 14.8233 6.35362 14.6833 6.24444 14.5658C6.13527 14.4483 6.00617 14.3557 5.86451 14.2932C5.72284 14.2307 5.5714 14.1996 5.41883 14.2016H5.07304C5.0464 14.2016 5.02004 14.1957 4.9956 14.184C4.97116 14.1723 4.94916 14.1552 4.93098 14.1338C4.91281 14.1123 4.89885 14.087 4.88997 14.0593C4.8811 14.0316 4.8775 14.0022 4.8794 13.9729C4.87928 13.9189 4.89777 13.8668 4.93114 13.8272C4.96452 13.7876 5.01029 13.7634 5.05921 13.7596H5.34967C6.11039 13.7596 6.58066 13.2413 6.59449 12.3878V12.1896C6.59449 12.0372 6.60832 11.8848 6.80196 11.8848C6.9956 11.8848 6.98177 12.0372 6.98177 12.1744V12.5554C6.99599 12.8803 7.12319 13.1866 7.33697 13.4108C7.55074 13.635 7.83465 13.7599 8.12978 13.7596H8.43407C8.57238 13.7596 8.69686 13.8205 8.68303 13.9882C8.6692 14.1558 8.57238 14.2016 8.4479 14.2016H8.2266Z" fill="white" style="fill:white;fill-opacity:1;"/>
<path d="M4.72706 11.441C4.69874 11.4377 4.67231 11.4238 4.65218 11.4016C4.63204 11.3794 4.61942 11.3502 4.61641 11.319C4.60499 11.2589 4.60035 11.1975 4.60258 11.1361C4.58875 10.4502 4.29829 10.1301 3.68971 10.1149C3.57906 10.1149 3.41308 10.1606 3.39925 9.97773C3.38542 9.79482 3.55139 9.81006 3.67588 9.79482C4.31212 9.76433 4.57492 9.45949 4.60258 8.72787C4.61641 8.62117 4.58875 8.46875 4.74089 8.46875C4.89304 8.46875 4.89304 8.62117 4.89304 8.74311C4.9207 9.48998 5.16967 9.74909 5.86124 9.79482C5.95806 9.81006 6.09637 9.79482 6.09637 9.96248C6.09637 10.1301 5.95806 10.1149 5.86124 10.1149C5.142 10.1606 4.9622 10.374 4.89304 11.1971C4.87921 11.319 4.86538 11.4257 4.72706 11.441Z" fill="white" style="fill:white;fill-opacity:1;"/>
</svg>
