<svg width="24" height="24" viewBox="0 0 24 24" fill="none" xmlns="http://www.w3.org/2000/svg">
<path d="M19.8879 7.92834C18.7145 4.78945 15.1331 3.84049 12.6641 5.66542C12.1629 6.03041 11.8207 6.00608 11.2829 5.62892C10.7545 5.23513 10.1453 4.96225 9.49874 4.82976C8.85221 4.69727 8.18427 4.70843 7.54257 4.86245C5.30574 5.3856 3.76562 7.42953 3.76562 10.1548C3.77746 10.7815 3.91553 11.3994 4.17168 11.972C4.42783 12.5446 4.79684 13.0602 5.25685 13.4883C6.01468 14.2305 6.34471 15.0699 6.34471 16.1162C6.34471 17.9777 7.10254 19.5349 8.44708 20.8124C8.81378 21.153 9.22937 21.3112 9.70607 21.0922C10.1828 20.8732 10.3172 20.4839 10.3539 19.9851C10.4272 18.9631 10.5128 17.9412 10.6717 16.9435C10.7639 16.2436 11.0238 15.576 11.4295 14.9969C11.8207 14.4373 12.1996 14.4251 12.5785 14.9969C12.7902 15.3434 12.9663 15.7102 13.1041 16.0919C13.5441 17.345 13.6541 18.659 13.6541 19.9851C13.6541 20.4961 13.8253 20.8854 14.302 21.0922C14.7787 21.299 15.1943 21.153 15.561 20.8124C16.9544 19.4984 17.6756 17.8925 17.6756 15.9824C17.665 15.5365 17.7476 15.0932 17.918 14.6806C18.0884 14.2681 18.343 13.8952 18.6656 13.5856C20.2669 11.9675 20.6702 10.0331 19.8879 7.92834ZM8.55709 7.38086C7.40812 7.46603 6.63806 8.2325 6.52805 9.38829C6.51583 9.63162 6.45471 9.86277 6.1858 9.89927C6.01464 9.90462 5.84809 9.84355 5.72133 9.72895C5.63576 9.64378 5.63576 9.46129 5.5991 9.31529C5.69688 7.80668 7.00475 6.51706 8.5082 6.49273C8.86267 6.48056 9.05824 6.62656 9.07046 6.90638C9.08269 7.1862 8.89934 7.35653 8.55709 7.38086Z" fill="white"/>
<path d="M23.6532 20.6055C23.4087 20.5447 23.152 20.496 22.9075 20.423C22.6454 20.3574 22.4055 20.2237 22.2122 20.0356C22.019 19.8475 21.8793 19.6118 21.8075 19.3524C21.7341 19.0969 21.6852 18.8414 21.6119 18.5859C21.5943 18.4796 21.5391 18.383 21.4561 18.3138C21.3731 18.2446 21.2679 18.2074 21.1596 18.2088C21.056 18.2077 20.9555 18.2441 20.8768 18.3113C20.7982 18.3784 20.7466 18.4717 20.7318 18.5738L20.5485 19.2916C20.4833 19.5614 20.3452 19.8083 20.1492 20.0056C19.9531 20.2029 19.7065 20.3431 19.4362 20.4109C19.1917 20.4839 18.9228 20.5082 18.6906 20.6177C18.5263 20.7087 18.4005 20.8555 18.3361 21.0313C18.275 21.2625 18.4583 21.4328 18.6906 21.4937L19.3751 21.6518C19.6648 21.7179 19.9294 21.8653 20.1374 22.0767C20.3454 22.2881 20.4881 22.5544 20.5485 22.8441C20.595 23.0841 20.6604 23.32 20.744 23.5498C20.8174 23.6958 20.9763 23.8052 21.1719 23.9999C21.3552 23.8052 21.5141 23.6836 21.5874 23.5254C21.6686 23.3041 21.7299 23.0761 21.7708 22.8441C21.8378 22.5462 21.99 22.2739 22.2091 22.0602C22.4282 21.8464 22.7047 21.7004 23.0053 21.6397L23.6532 21.4815C23.7522 21.4581 23.8404 21.4021 23.9035 21.3227C23.9666 21.2432 24.001 21.1448 24.001 21.0435C24.001 20.9422 23.9666 20.8438 23.9035 20.7644C23.8404 20.6849 23.7522 20.6289 23.6532 20.6055ZM21.1596 21.7005L20.4751 21.0435L21.1841 20.3744L21.8319 21.0192L21.1596 21.7005Z" fill="white"/>
<path d="M5.34212 2.36841L4.65763 2.19809C4.36657 2.13799 4.09897 1.99599 3.88662 1.78894C3.67428 1.5819 3.52612 1.31853 3.45976 1.03013C3.41326 0.790173 3.34787 0.554231 3.26419 0.324486C3.22364 0.243316 3.16995 0.169333 3.10529 0.105494C3.06927 0.0709654 3.02674 0.0438757 2.98015 0.0257865C2.93356 0.00769731 2.88383 -0.00103361 2.83384 9.7373e-05C2.78384 0.00122836 2.73456 0.0121986 2.68885 0.0323759C2.64313 0.0525532 2.60188 0.0815382 2.56747 0.11766C2.50388 0.182406 2.45033 0.256212 2.40857 0.336652C2.32742 0.566253 2.26608 0.802321 2.22523 1.04229C2.15953 1.31844 2.0187 1.57124 1.81818 1.77298C1.61766 1.97471 1.36519 2.11758 1.08847 2.18592L0.403978 2.35625C0.159516 2.41708 -0.0116078 2.55091 0.000615295 2.81856C0.0128384 3.08622 0.159516 3.19572 0.391755 3.25655L1.03958 3.41471C1.68741 3.57287 2.07855 3.98652 2.23745 4.61917L2.40857 5.30048C2.46969 5.51947 2.64081 5.67763 2.86083 5.62897C3.03318 5.56931 3.177 5.44785 3.26419 5.28831C3.3742 5.06932 3.39865 4.80166 3.47198 4.55834C3.53445 4.28199 3.67444 4.02897 3.87567 3.82868C4.07689 3.62839 4.3311 3.48905 4.60874 3.42688C4.8532 3.35388 5.10989 3.34171 5.31768 3.23222C5.48573 3.14006 5.61241 2.98788 5.67215 2.8064C5.72104 2.59957 5.56214 2.42925 5.34212 2.36841ZM2.83638 3.47554L2.17633 2.81856L2.8486 2.14942L3.50865 2.81856L2.83638 3.47554Z" fill="white"/>
<path d="M22.2111 14.9848C22.2111 14.8073 22.2819 14.6372 22.408 14.5117C22.534 14.3862 22.705 14.3157 22.8833 14.3157C23.0618 14.3187 23.2324 14.3898 23.3597 14.5143C23.4871 14.6388 23.5616 14.8072 23.5678 14.9848C23.5678 15.0753 23.5497 15.1649 23.5146 15.2484C23.4794 15.3318 23.4279 15.4075 23.363 15.4709C23.2982 15.5344 23.2213 15.5843 23.1368 15.6178C23.0523 15.6513 22.962 15.6677 22.8711 15.6661C22.7828 15.6645 22.6957 15.6457 22.6147 15.6106C22.5338 15.5755 22.4606 15.5248 22.3993 15.4616C22.338 15.3983 22.2898 15.3236 22.2575 15.2418C22.2252 15.16 22.2094 15.0727 22.2111 14.9848Z" fill="white"/>
<path d="M10.598 2.7943C10.5092 2.79436 10.4214 2.7766 10.3396 2.74207C10.2579 2.70754 10.184 2.65696 10.1224 2.59335C10.0608 2.52975 10.0127 2.45442 9.981 2.37188C9.94931 2.28935 9.93466 2.20129 9.93795 2.11299C9.94109 1.9365 10.0129 1.76811 10.1383 1.64329C10.2637 1.51847 10.4329 1.44697 10.6102 1.44385C10.7017 1.44543 10.792 1.46494 10.8759 1.50126C10.9599 1.53758 11.0358 1.59001 11.0993 1.65553C11.1629 1.72106 11.2129 1.79841 11.2464 1.88317C11.2799 1.96792 11.2963 2.05842 11.2947 2.14949C11.2916 2.23738 11.271 2.32379 11.2343 2.40378C11.1976 2.48377 11.1454 2.55577 11.0807 2.61565C11.0159 2.67554 10.94 2.72214 10.8572 2.7528C10.7744 2.78345 10.6863 2.79755 10.598 2.7943Z" fill="white"/>
<path d="M3.53266 17.4303C3.35317 17.4336 3.17956 17.3666 3.04924 17.2437C2.91892 17.1208 2.84232 16.9519 2.83594 16.7733C2.83594 16.5894 2.90934 16.413 3.04 16.2829C3.17066 16.1529 3.34787 16.0798 3.53266 16.0798C3.71207 16.083 3.88305 16.1562 4.00878 16.2836C4.13452 16.4111 4.20496 16.5825 4.20493 16.7611C4.20493 16.9386 4.1341 17.1088 4.00802 17.2343C3.88195 17.3598 3.71095 17.4303 3.53266 17.4303Z" fill="white"/>
</svg>
