<svg width="40" height="40" viewBox="0 0 40 40" fill="none" xmlns="http://www.w3.org/2000/svg">
<g clip-path="url(#clip0_1423_5878)">
<path d="M33.1451 13.2151C31.1894 7.98364 25.2204 6.40204 21.1053 9.44359C20.27 10.0519 19.6996 10.0113 18.8032 9.38276C17.9226 8.72643 16.9072 8.27164 15.8297 8.05082C14.7521 7.83001 13.6389 7.84861 12.5694 8.10531C8.84129 8.97722 6.27441 12.3838 6.27441 16.9258C6.29413 17.9703 6.52427 19.0002 6.95118 19.9546C7.3781 20.9089 7.99312 21.7683 8.7598 22.4817C10.0229 23.7186 10.5729 25.1177 10.5729 26.8616C10.5729 29.964 11.836 32.5594 14.0769 34.6885C14.6881 35.2563 15.3807 35.5199 16.1752 35.1549C16.9697 34.7899 17.1938 34.141 17.2549 33.3097C17.3772 31.6064 17.5198 29.9031 17.7846 28.2404C17.9383 27.0738 18.3715 25.9611 19.0477 24.9961C19.6996 24.0633 20.3311 24.0431 20.9627 24.9961C21.3155 25.5736 21.609 26.185 21.8387 26.821C22.572 28.9096 22.7554 31.0995 22.7554 33.3097C22.7554 34.1613 23.0406 34.8102 23.8351 35.1549C24.6296 35.4996 25.3223 35.2563 25.9334 34.6885C28.2558 32.4986 29.4578 29.822 29.4578 26.6385C29.4403 25.8953 29.5779 25.1565 29.8619 24.469C30.1459 23.7814 30.5702 23.1599 31.1079 22.6439C33.7767 19.9471 34.4489 16.723 33.1451 13.2151ZM14.2603 12.3027C12.3453 12.4446 11.0618 13.722 10.8785 15.6484C10.8581 16.0539 10.7563 16.4392 10.3081 16.5C10.0228 16.5089 9.74522 16.4071 9.53394 16.2161C9.39134 16.0742 9.39134 15.77 9.33022 15.5267C9.4932 13.0124 11.673 10.863 14.1788 10.8224C14.7696 10.8022 15.0955 11.0455 15.1159 11.5119C15.1363 11.9782 14.8307 12.2621 14.2603 12.3027Z" fill="#100E10"/>
<path d="M39.4236 34.3438C39.0162 34.2424 38.5884 34.1613 38.1809 34.0396C37.7441 33.9302 37.3442 33.7074 37.0221 33.3939C36.7 33.0804 36.4672 32.6875 36.3474 32.2552C36.2252 31.8294 36.1437 31.4036 36.0215 30.9778C35.9922 30.8005 35.9001 30.6396 35.7618 30.5243C35.6235 30.4089 35.4482 30.3468 35.2677 30.3492C35.095 30.3474 34.9275 30.4081 34.7964 30.52C34.6652 30.6319 34.5794 30.7873 34.5547 30.9575L34.2491 32.1538C34.1405 32.6036 33.9104 33.0151 33.5836 33.3439C33.2568 33.6728 32.8459 33.9063 32.3953 34.0193C31.9878 34.141 31.5396 34.1815 31.1526 34.364C30.8788 34.5157 30.6691 34.7605 30.5618 35.0535C30.4599 35.4387 30.7655 35.7226 31.1526 35.824L32.2934 36.0876C32.7763 36.1977 33.2173 36.4435 33.564 36.7957C33.9107 37.148 34.1485 37.5919 34.2491 38.0747C34.3266 38.4747 34.4356 38.8679 34.5751 39.2508C34.6973 39.4941 34.9621 39.6766 35.2881 40.0011C35.5937 39.6766 35.8585 39.4739 35.9807 39.2103C36.116 38.8414 36.2182 38.4615 36.2863 38.0747C36.398 37.5782 36.6517 37.1244 37.0168 36.7682C37.382 36.4119 37.8429 36.1685 38.3439 36.0673L39.4236 35.8037C39.5887 35.7647 39.7357 35.6714 39.8409 35.539C39.9461 35.4065 40.0033 35.2426 40.0033 35.0737C40.0033 34.9049 39.9461 34.741 39.8409 34.6085C39.7357 34.476 39.5887 34.3828 39.4236 34.3438ZM35.2677 36.1687L34.1269 35.0737L35.3085 33.9585L36.3882 35.0332L35.2677 36.1687Z" fill="#100E10"/>
<path d="M8.90361 3.94735L7.76277 3.66347C7.27767 3.56332 6.83167 3.32664 6.47776 2.98157C6.12385 2.6365 5.87692 2.19755 5.76631 1.71688C5.68881 1.31695 5.57983 0.923718 5.44036 0.540809C5.37277 0.405526 5.2833 0.282221 5.17552 0.175823C5.11549 0.118276 5.0446 0.0731262 4.96695 0.0429775C4.8893 0.0128288 4.80642 -0.00172268 4.7231 0.000162288C4.63977 0.00204726 4.55764 0.0203309 4.48145 0.0539598C4.40525 0.0875886 4.3365 0.135897 4.27915 0.1961C4.17317 0.304009 4.08391 0.42702 4.01432 0.561087C3.87906 0.943754 3.77683 1.3372 3.70874 1.73715C3.59925 2.1974 3.36453 2.61874 3.03032 2.95496C2.69612 3.29118 2.27534 3.5293 1.81414 3.6432L0.673302 3.92708C0.265861 4.02846 -0.0193465 4.25151 0.0010255 4.6976C0.0213975 5.1437 0.265861 5.32619 0.65293 5.42758L1.73265 5.69118C2.81237 5.95478 3.46427 6.6442 3.72911 7.69861L4.01432 8.83412C4.11618 9.19911 4.40138 9.46271 4.76808 9.3816C5.05533 9.28218 5.29503 9.07975 5.44036 8.81384C5.62371 8.44886 5.66445 8.00276 5.78668 7.59722C5.8908 7.13665 6.12411 6.71494 6.45949 6.38112C6.79487 6.04731 7.21855 5.81508 7.68128 5.71146C8.08873 5.58979 8.51654 5.56952 8.86286 5.38702C9.14296 5.23343 9.35409 4.9798 9.45365 4.67733C9.53514 4.33262 9.2703 4.04874 8.90361 3.94735ZM4.72734 5.79257L3.62725 4.6976L4.74771 3.58237L5.8478 4.6976L4.72734 5.79257Z" fill="#100E10"/>
<path d="M37.0168 24.9751C37.0168 24.6793 37.1348 24.3957 37.345 24.1865C37.5551 23.9774 37.8401 23.8599 38.1373 23.8599C38.4348 23.8649 38.719 23.9834 38.9313 24.1909C39.1435 24.3984 39.2677 24.6791 39.2781 24.9751C39.2781 25.1259 39.2479 25.2753 39.1893 25.4144C39.1307 25.5535 39.0449 25.6796 38.9368 25.7853C38.8287 25.891 38.7005 25.9742 38.5597 26.0301C38.4189 26.0859 38.2684 26.1133 38.1169 26.1106C37.9697 26.108 37.8245 26.0765 37.6896 26.018C37.5547 25.9595 37.4327 25.8751 37.3305 25.7697C37.2283 25.6642 37.1481 25.5398 37.0942 25.4035C37.0404 25.2671 37.0141 25.1216 37.0168 24.9751Z" fill="#100E10"/>
<path d="M17.6633 4.65798C17.5154 4.65808 17.3689 4.62847 17.2327 4.57093C17.0965 4.51338 16.9734 4.42908 16.8707 4.32307C16.768 4.21706 16.6878 4.09151 16.635 3.95395C16.5822 3.81639 16.5578 3.66963 16.5633 3.52246C16.5685 3.22831 16.6882 2.94766 16.8972 2.73963C17.1062 2.5316 17.3882 2.41243 17.6837 2.40723C17.8362 2.40987 17.9867 2.44238 18.1266 2.50292C18.2664 2.56345 18.393 2.65082 18.4989 2.76004C18.6048 2.86925 18.6881 2.99817 18.744 3.13942C18.7999 3.28068 18.8272 3.43151 18.8245 3.58329C18.8193 3.72978 18.7851 3.8738 18.7239 4.00711C18.6626 4.14043 18.5756 4.26042 18.4678 4.36023C18.3599 4.46005 18.2334 4.53772 18.0953 4.58881C17.9573 4.6399 17.8105 4.6634 17.6633 4.65798Z" fill="#100E10"/>
<path d="M5.88777 29.0501C5.58862 29.0556 5.29928 28.9439 5.08207 28.7391C4.86487 28.5343 4.7372 28.2527 4.72656 27.9551C4.72656 27.6486 4.8489 27.3546 5.06667 27.1378C5.28444 26.9211 5.5798 26.7993 5.88777 26.7993C6.18679 26.8046 6.47176 26.9266 6.68132 27.139C6.89088 27.3514 7.00828 27.6372 7.00823 27.9348C7.00823 28.2306 6.89018 28.5143 6.68005 28.7234C6.46993 28.9326 6.18493 29.0501 5.88777 29.0501Z" fill="#100E10"/>
</g>
<defs>
<clipPath id="clip0_1423_5878">
<rect width="40" height="40" fill="white"/>
</clipPath>
</defs>
</svg>
