<svg width="71" height="5" viewBox="0 0 71 5" fill="none" xmlns="http://www.w3.org/2000/svg">
<path fill-rule="evenodd" clip-rule="evenodd" d="M1.83404 1.84266C3.33023 2.13132 7.25032 2.09079 17.8917 1.96969C34.5086 1.77867 47.7011 1.93115 51.3738 2.37473C51.6655 2.41707 28.3789 3.09099 25.9832 2.87719C22.2483 2.52751 4.44579 3.12304 0.869412 3.63924C-0.147346 3.77779 0.241144 4.20631 0.906458 4.28982C1.94558 4.42999 4.72837 4.37471 12.3585 4.23464C17.7242 4.14243 60.4204 3.88869 65.0956 4.45747C67.7202 4.77651 69.3167 5.07924 70.0431 4.99134C70.6515 4.92064 70.6578 4.73452 70.1227 4.23058C69.7629 3.89467 70.16 3.68746 70.4133 3.59083C70.802 3.43024 70.6304 2.90561 70.133 2.49415C69.4605 1.93017 68.3148 1.96205 68.8691 2.52772C68.9892 2.65002 69.0211 2.95962 68.6018 2.9036C67.3803 2.73503 58.7485 1.58721 56.4079 1.40363C31.4165 -0.595524 7.0864 1.47303 1.92106 0.973271C0.0897593 0.782413 0.939966 1.66941 1.83404 1.84266Z" fill="#4E4E4E"/>
</svg>
