<svg width="60" height="60" viewBox="0 0 60 60" fill="none" xmlns="http://www.w3.org/2000/svg">
<rect width="60" height="60" rx="30" fill="#161616"/>
<path d="M25.8497 20.3872C27.6969 17.0735 28.6205 15.4167 30.0013 15.4167C31.3821 15.4167 32.3057 17.0735 34.1529 20.3872L34.6308 21.2445C35.1557 22.1862 35.4182 22.657 35.8274 22.9677C36.2367 23.2783 36.7463 23.3936 37.7656 23.6243L38.6936 23.8342C42.2807 24.6458 44.0742 25.0516 44.5009 26.4238C44.9276 27.796 43.7049 29.2257 41.2595 32.0853L40.6268 32.8251C39.9319 33.6377 39.5845 34.044 39.4282 34.5467C39.2719 35.0493 39.3244 35.5914 39.4294 36.6756L39.5251 37.6627C39.8948 41.478 40.0797 43.3856 38.9625 44.2337C37.8454 45.0817 36.1661 44.3085 32.8076 42.7621L31.9387 42.3621C30.9843 41.9226 30.5071 41.7029 30.0013 41.7029C29.4955 41.7029 29.0183 41.9226 28.0639 42.3621L27.195 42.7621C23.8365 44.3085 22.1572 45.0817 21.0401 44.2337C19.9229 43.3856 20.1078 41.478 20.4775 37.6627L20.5732 36.6756C20.6782 35.5914 20.7307 35.0493 20.5744 34.5467C20.4181 34.044 20.0707 33.6377 19.3758 32.8251L18.7431 32.0853C16.2977 29.2257 15.075 27.796 15.5017 26.4238C15.9284 25.0516 17.7219 24.6458 21.309 23.8342L22.237 23.6243C23.2563 23.3936 23.766 23.2783 24.1752 22.9677C24.5844 22.657 24.8469 22.1862 25.3718 21.2445L25.8497 20.3872Z" fill="white"/>
</svg>
