<svg width="16" height="17" viewBox="0 0 16 17" fill="none" xmlns="http://www.w3.org/2000/svg">
<path d="M8.02414 2.18043C6.82753 2.18021 5.65269 2.49854 4.62174 3.10235C3.59073 3.70619 2.74126 4.57352 2.16172 5.61419C1.58217 6.65487 1.29372 7.83086 1.3264 9.0199C1.35907 10.2089 1.71165 11.3674 2.34743 12.375C2.34746 12.3751 2.34749 12.3751 2.34752 12.3752L2.48821 12.6011L1.82723 15.0016L1.79274 15.1268L1.91844 15.0941L4.39803 14.4481L4.61438 14.5664C5.65009 15.1768 6.83241 15.4979 8.0365 15.4958M8.02414 2.18043C8.90412 2.17581 9.7761 2.34674 10.5884 2.6831C11.4006 3.01941 12.1367 3.51427 12.7531 4.1384C13.3796 4.75319 13.8775 5.48512 14.2182 6.29204L14.2185 6.29269C14.5522 7.1045 14.7237 7.97314 14.7234 8.85011C14.725 9.72335 14.5531 10.5883 14.2176 11.3954C13.8821 12.2024 13.3895 12.9357 12.7682 13.5531C12.1469 14.1705 11.4091 14.6599 10.5971 14.9933C9.78517 15.3266 8.91499 15.4974 8.0365 15.4958M8.02414 2.18043C8.02407 2.18043 8.024 2.18043 8.02393 2.18043L8.02433 2.25543L8.02434 2.18043C8.02427 2.18043 8.02421 2.18043 8.02414 2.18043ZM8.0365 15.4958C8.03645 15.4958 8.03641 15.4958 8.03637 15.4958L8.0365 15.4208L8.03663 15.4958C8.03659 15.4958 8.03654 15.4958 8.0365 15.4958ZM11.6333 10.5638L11.633 10.5637L10.2862 9.92462C10.187 9.89388 10.1254 9.87676 10.0733 9.88226C10.0302 9.88681 9.98367 9.90875 9.92466 9.99404C9.82154 10.1431 9.5704 10.4392 9.40842 10.6302C9.35633 10.6916 9.31346 10.7422 9.2877 10.7735C9.2256 10.8489 9.15206 10.9028 9.0568 10.9151C8.96546 10.927 8.86785 10.8987 8.75998 10.8424C8.16969 10.6048 7.62422 10.2694 7.14685 9.85043L7.1454 9.84916L7.14541 9.84914C6.7041 9.44119 6.32602 8.97051 6.02349 8.45242L6.02298 8.45155L6.02299 8.45155C5.96038 8.34094 5.94807 8.24336 5.97741 8.15378C6.00478 8.07026 6.06543 8.00488 6.11996 7.95065M11.6333 10.5638L5.58902 5.17166M11.6333 10.5638C11.6428 10.5683 11.652 10.5726 11.661 10.5768C11.7519 10.6192 11.8191 10.6506 11.8714 10.6805C11.9279 10.7128 11.9602 10.7396 11.9817 10.7696L11.9817 10.7696C11.9818 10.7698 11.9853 10.7754 11.9893 10.7907C11.9931 10.8054 11.9965 10.8254 11.9987 10.8509C12.0031 10.9018 12.0026 10.9694 11.9953 11.0503C11.9806 11.2119 11.9393 11.4208 11.8621 11.6452C11.7916 11.8499 11.57 12.0591 11.3051 12.2281C11.0424 12.3957 10.7569 12.5114 10.5817 12.5394L10.581 12.5395C10.1738 12.6086 9.75585 12.5804 9.36176 12.4572L9.36177 12.4572L9.35999 12.4567C8.97662 12.3472 8.60151 12.2109 8.23747 12.0488L8.23661 12.0485C6.36846 11.2447 5.10101 9.43145 4.88475 9.12205C4.8724 9.10439 4.86348 9.09163 4.85807 9.08424C4.85508 9.08015 4.85151 9.07531 4.8474 9.06974C4.78475 8.98474 4.59702 8.73008 4.41983 8.38489C4.23045 8.01596 4.05672 7.55042 4.05673 7.08354L4.05671 7.08251C4.0526 6.78405 4.11 6.4879 4.22539 6.21228C4.34078 5.93666 4.51173 5.6874 4.72775 5.47985L4.72802 5.48014L4.73302 5.47424C4.79203 5.40455 4.86537 5.34818 4.94816 5.30891C5.03073 5.26975 5.12078 5.24852 5.2123 5.24666M11.6333 10.5638L5.21155 5.17166M6.11996 7.95065C6.12018 7.95043 6.1204 7.95021 6.12063 7.94999L6.1735 8.00319L6.11938 7.95126C6.11957 7.95106 6.11976 7.95085 6.11996 7.95065ZM6.11996 7.95065C6.22128 7.84502 6.3169 7.73414 6.40642 7.61847L6.40874 7.61546L6.40882 7.61553C6.48858 7.52258 6.5544 7.41869 6.60425 7.30707L6.60482 7.30581L6.60483 7.30581C6.62573 7.26125 6.63572 7.21244 6.63401 7.16335C6.63231 7.11426 6.61896 7.06624 6.59502 7.0232L6.66056 6.98674L6.59554 7.02413C6.58056 6.99807 6.54407 6.91534 6.49802 6.80794C6.4507 6.69758 6.39046 6.55438 6.32653 6.40159C6.28785 6.30915 6.24782 6.21322 6.20844 6.11885C6.11747 5.90084 6.02996 5.69114 5.97058 5.55202C5.8884 5.35954 5.81589 5.29448 5.76373 5.2696C5.73725 5.25697 5.711 5.25219 5.68191 5.25028C5.66824 5.24939 5.65487 5.24916 5.63981 5.2489L5.63505 5.24882C5.61999 5.24856 5.60284 5.2482 5.58551 5.24666M5.58551 5.24666H5.58902V5.17166M5.58551 5.24666C5.58421 5.24654 5.58291 5.24642 5.58161 5.24629L5.58902 5.17166M5.58551 5.24666H5.2123M5.58902 5.17166H5.21155M5.2123 5.24666C5.21253 5.24665 5.21276 5.24665 5.21299 5.24665L5.21155 5.17166M5.2123 5.24666H5.21155V5.17166M13.621 3.30047L13.6214 3.30091C14.3551 4.02894 14.9363 4.89413 15.3317 5.84654C15.727 6.79895 15.9287 7.81972 15.9249 8.84995V8.84999C15.9207 10.2094 15.5618 11.5446 14.8832 12.7251C14.2047 13.9056 13.2297 14.8911 12.0535 15.5855C10.8772 16.2799 9.53975 16.6593 8.17179 16.6867C6.80383 16.7142 5.4521 16.3886 4.24857 15.742L4.22262 15.728L4.19411 15.7355L0.106411 16.8038L1.1926 12.8147L1.20084 12.7845L1.18511 12.7573C0.360012 11.3357 0.00398632 9.69298 0.167027 8.05995C0.330067 6.42693 1.00399 4.88567 2.09413 3.65286C3.18428 2.42004 4.63586 1.55764 6.24484 1.187C7.85383 0.816352 9.53925 0.95611 11.0642 1.58661L11.0642 1.58662C12.023 1.98262 12.8924 2.56536 13.621 3.30047Z" fill="white" stroke="black" stroke-width="0.15"/>
</svg>
