<svg width="38" height="38" viewBox="0 0 38 38" fill="none" xmlns="http://www.w3.org/2000/svg">
<rect width="38" height="38" rx="19" transform="matrix(-1 0 0 1 38 0)" fill="#2D2D2D"/>
<path d="M18.9998 28.8067C17.0602 28.8067 15.1641 28.2315 13.5514 27.1539C11.9386 26.0763 10.6817 24.5447 9.93941 22.7527C9.19715 20.9607 9.00294 18.9889 9.38134 17.0865C9.75974 15.1842 10.6938 13.4368 12.0653 12.0653C13.4368 10.6937 15.1842 9.75971 17.0866 9.38131C18.9889 9.00291 20.9608 9.19712 22.7527 9.93938C24.5447 10.6816 26.0764 11.9386 27.154 13.5514C28.2315 15.1641 28.8067 17.0602 28.8067 18.9998C28.8019 21.5993 27.7672 24.0909 25.9291 25.929C24.0909 27.7671 21.5993 28.8019 18.9998 28.8067ZM18.9998 10.2323C17.2658 10.2323 15.5707 10.7465 14.1289 11.7099C12.6871 12.6733 11.5633 14.0426 10.8997 15.6446C10.2361 17.2467 10.0625 19.0095 10.4008 20.7102C10.7391 22.4109 11.5741 23.9732 12.8003 25.1993C14.0264 26.4255 15.5886 27.2605 17.2894 27.5988C18.9901 27.9371 20.7529 27.7634 22.355 27.0999C23.957 26.4363 25.3263 25.3125 26.2897 23.8707C27.2531 22.4289 27.7673 20.7338 27.7673 18.9998C27.7649 16.6752 26.8404 14.4466 25.1967 12.8029C23.553 11.1592 21.3244 10.2347 18.9998 10.2323Z" fill="#B9B9B9"/>
<path d="M14.5711 18.8377C14.3723 17.3554 13.5407 14.2371 15.2852 13.9207C17.0296 13.6044 17.0025 14.698 18.7922 14.698C20.5818 14.698 20.636 13.8123 22.0009 13.8665C23.3657 13.9207 23.5646 15.4934 23.2572 17.5271C22.9499 19.5608 22.742 23.6192 21.7659 24.0078C20.7897 24.3965 20.0666 23.2124 19.9672 21.5583C19.8678 19.9043 19.226 19.606 18.5029 19.5518C17.7798 19.4975 17.3731 21.3595 17.2646 22.8509C17.1562 24.3422 15.6467 24.7038 15.3123 23.4655C14.9779 22.2272 14.77 20.4285 14.5711 18.8377Z" fill="#B9B9B9"/>
<path d="M29.286 18.2861H27.2975C26.9031 18.2861 26.5834 18.6054 26.5834 18.9993C26.5834 19.3931 26.9031 19.7124 27.2975 19.7124H29.286C29.6803 19.7124 30 19.3931 30 18.9993C30 18.6054 29.6803 18.2861 29.286 18.2861Z" fill="#B9B9B9"/>
<path d="M10.7025 18.2861H8.71402C8.31966 18.2861 7.99997 18.6054 7.99997 18.9993C7.99997 19.3931 8.31966 19.7124 8.71402 19.7124H10.7025C11.0969 19.7124 11.4166 19.3931 11.4166 18.9993C11.4166 18.6054 11.0969 18.2861 10.7025 18.2861Z" fill="#B9B9B9"/>
<path d="M19.7138 29.286V27.2975C19.7138 26.9032 19.3945 26.5835 19.0006 26.5835C18.6068 26.5835 18.2875 26.9032 18.2875 27.2975V29.286C18.2875 29.6804 18.6068 30.0001 19.0006 30.0001C19.3945 30.0001 19.7138 29.6804 19.7138 29.286Z" fill="#B9B9B9"/>
<path d="M19.7138 10.7025V8.71405C19.7138 8.31969 19.3945 8 19.0006 8C18.6068 8 18.2875 8.31969 18.2875 8.71405V10.7025C18.2875 11.0969 18.6068 11.4166 19.0006 11.4166C19.3945 11.4166 19.7138 11.0969 19.7138 10.7025Z" fill="#B9B9B9"/>
</svg>
