<svg width="38" height="38" viewBox="0 0 38 38" fill="none" xmlns="http://www.w3.org/2000/svg">
<rect width="38" height="38" rx="19" transform="matrix(-1 0 0 1 38 0)" fill="white"/>
<g clip-path="url(#clip0_116_4422)">
<g clip-path="url(#clip1_116_4422)">
<path d="M25.3114 10.9611C25.0167 10.9616 24.7236 11.0159 24.4413 11.1225H24.3911C22.9687 11.3119 22.6285 12.7639 22.2659 14.3072L22.2492 14.3563C22.0651 15.156 21.8699 15.9837 21.5073 16.6221C20.8993 17.6953 19.9845 18.3126 18.9861 18.3126C17.9876 18.3126 17.0728 17.6953 16.4704 16.6221C16.119 15.9907 15.8736 15.177 15.6449 14.3984C15.2154 12.9533 14.7691 11.4662 13.6424 11.1575H13.6201C13.3126 11.027 12.9907 10.9584 12.6663 10.9541C11.9858 10.9541 11.4614 11.2838 11.1044 11.9362C10.7475 12.5886 10.6638 13.255 10.82 13.9284C10.926 14.4124 11.1602 14.8613 11.428 15.0928L11.4837 15.149C11.4934 15.158 11.5014 15.1696 11.5072 15.1829C11.513 15.1963 11.5164 15.211 11.5172 15.2261V15.3173C11.7459 19.5402 12.9396 21.8902 13.3022 22.5075L13.3133 22.5285L13.3245 22.5566L13.3356 22.5847C13.4026 22.8652 13.6759 23.8263 14.3843 24.7943C15.0927 25.7624 16.5374 27.0461 18.9638 27.0601H19.0976C21.485 27.025 22.8683 25.8115 23.6046 24.7943C24.3409 23.7772 24.6086 22.7811 24.6533 22.5917L24.6644 22.5566C24.67 22.5496 24.67 22.5356 24.6756 22.5285L24.6923 22.5005C25.0493 21.8902 26.243 19.5613 26.4717 15.3173V15.2261C26.4716 15.2108 26.4747 15.1956 26.4805 15.1821C26.4864 15.1686 26.4948 15.1572 26.5051 15.149L26.5609 15.0999C26.8342 14.8543 27.0685 14.4054 27.1745 13.9284C27.3251 13.262 27.2247 12.5535 26.8844 11.9362C26.5442 11.3189 25.9975 10.9611 25.3114 10.9611ZM26.9737 13.8372C26.8454 14.4054 26.5553 14.8193 26.3322 14.9455C26.313 14.9551 26.2965 14.9714 26.2846 14.9926C26.2727 15.0138 26.266 15.0389 26.2653 15.0648C26.2653 15.0999 26.1035 19.6735 24.4859 22.3882C24.4806 22.3911 24.4761 22.3961 24.4731 22.4024C24.4701 22.4087 24.4687 22.416 24.4692 22.4233V22.4373C24.2566 23.2546 23.9022 24.0021 23.4317 24.626C22.383 26.064 20.8937 26.7935 19.0028 26.7935C17.1119 26.7935 15.6282 26.071 14.5739 24.647C14.1066 24.0229 13.7526 23.2785 13.5364 22.4654V22.4514L13.5197 22.4023H13.5141C12.0192 19.898 11.7626 15.8785 11.7292 15.0999V15.0858C11.7276 15.0593 11.7206 15.0338 11.7089 15.0116C11.6972 14.9895 11.6811 14.9716 11.6622 14.9596C11.4391 14.8403 11.1491 14.4194 11.0208 13.8582C10.926 13.4444 10.8925 12.799 11.2774 12.0905C11.5897 11.5153 12.075 11.2136 12.6663 11.2136C12.9172 11.2162 13.1667 11.261 13.4081 11.3469L13.4472 11.361C13.4583 11.361 13.4695 11.375 13.4806 11.389L13.5085 11.4241C13.8153 11.8029 13.9603 12.2378 13.9436 12.7148C13.9213 13.4654 13.7484 13.8582 13.5699 14.1038C14.005 14.2651 14.7859 14.6509 14.7245 15.9136C14.6743 16.8816 14.4122 17.2464 14.2671 17.4428H14.256C14.6353 18.018 14.9978 18.8738 14.613 19.7156C14.6 19.7356 14.5922 19.76 14.5907 19.7857C14.6438 19.8428 14.7018 19.8922 14.7636 19.9331H14.7803C14.9476 20.0453 15.1708 20.1996 15.2433 20.5153C15.2935 20.7187 15.2656 20.9432 15.154 21.1887C15.0425 21.4342 15.0871 21.5745 15.3214 21.82C15.5556 22.0656 15.8234 22.3321 15.8234 22.8933C15.8234 23.707 17.1007 24.5698 18.9972 24.5698C20.2355 24.5698 20.9941 24.2401 21.418 23.9666C21.842 23.693 22.1766 23.2511 22.1766 22.8933C22.1766 22.3391 22.4611 22.0445 22.6675 21.8271L22.6787 21.813C22.9129 21.5675 22.9854 21.4974 22.8516 21.1817C22.7177 20.866 22.7121 20.7117 22.7623 20.5083C22.8348 20.1926 23.058 20.0453 23.2253 19.9331L23.242 19.919C23.2978 19.884 23.3982 19.8138 23.4149 19.7717C23.4109 19.7468 23.4034 19.7231 23.3926 19.7016C23.0078 18.8668 23.3703 18.011 23.7496 17.4358H23.744C23.6102 17.2604 23.3369 16.8886 23.2811 15.8995C23.2197 14.6369 24.0006 14.2581 24.4357 14.0897C24.2572 13.8442 24.0843 13.4584 24.062 12.7008C24.0453 12.2168 24.1959 11.7818 24.5026 11.403L24.5305 11.368L24.564 11.3399L24.603 11.3259C24.837 11.2417 25.0792 11.1992 25.3226 11.1996C25.9194 11.1996 26.4047 11.5013 26.7171 12.0695C27.102 12.7709 27.0685 13.4163 26.9737 13.8372Z" fill="#161616"/>
<path d="M27.5147 11.396C27.3271 11.0475 27.0858 10.75 26.8051 10.521C26.5243 10.2921 26.2099 10.1364 25.8804 10.0631C25.6983 10.0206 25.5134 9.9995 25.3282 10C24.9768 10.0054 24.6277 10.0714 24.2907 10.1964C22.4053 10.47 21.9591 12.364 21.5631 14.0405L21.5519 14.0896V14.1037C21.3734 14.8543 21.2005 15.5698 20.916 16.0818C20.4475 16.9026 19.7558 17.3726 19.0084 17.3726C18.2609 17.3726 17.5581 16.9026 17.1007 16.0818C16.8107 15.5628 16.5987 14.8613 16.3756 14.1177L16.3589 14.0686V14.0476C15.8903 12.4692 15.3493 10.6734 13.8488 10.2455C13.4701 10.0924 13.0752 10.012 12.6774 10.007H12.6663C12.5055 10.0062 12.3451 10.0226 12.1866 10.0561C11.8445 10.1186 11.5166 10.27 11.2237 10.5007C10.9308 10.7314 10.6793 11.0363 10.4853 11.396C10.0223 12.2447 9.88287 13.2338 10.0948 14.1738C10.2165 14.7375 10.4574 15.249 10.7921 15.6539C10.8622 16.6369 10.989 17.6122 11.1714 18.5721C11.5005 20.3469 12.0025 21.827 12.6551 22.9704C12.9132 23.8846 13.3176 24.7226 13.8432 25.4326C14.6799 26.583 16.2417 27.9649 18.908 28H19.014C21.7304 27.993 23.309 26.6041 24.1568 25.4326C24.6823 24.7251 25.0867 23.8895 25.3449 22.9774C26.7227 20.5503 27.102 17.1481 27.2079 15.6539C27.5433 15.2525 27.7845 14.7429 27.9052 14.1808C28.1171 13.2198 27.9777 12.2377 27.5147 11.396ZM27.6374 14.0826C27.5195 14.6242 27.277 15.1099 26.9402 15.4786C26.851 16.9096 26.494 20.3819 25.0995 22.8091C24.8507 23.6912 24.4617 24.5003 23.956 25.1871C23.1416 26.3094 21.6189 27.6423 19.0084 27.6423H18.9136C16.3533 27.6072 14.8528 26.2884 14.0496 25.1871C13.5419 24.4996 13.1526 23.6876 12.9061 22.802C12.2702 21.7007 11.7738 20.2486 11.4447 18.4879C11.2546 17.4991 11.1278 16.4928 11.0654 15.4786C10.7248 15.1111 10.4815 14.6217 10.3682 14.0756C10.1785 13.2338 10.3012 12.35 10.7196 11.5854C10.8918 11.266 11.1152 10.9955 11.3756 10.7913C11.6359 10.5872 11.9274 10.4538 12.2312 10.3999C12.3789 10.3716 12.528 10.3576 12.6774 10.3578C13.0488 10.3627 13.4174 10.4384 13.7707 10.5822C15.1429 10.9681 15.6281 12.6095 16.1023 14.1949L16.1134 14.2299C16.3421 14.9946 16.5597 15.7241 16.872 16.2853C17.3852 17.1972 18.1661 17.7233 19.0084 17.7233C19.8506 17.7233 20.626 17.1972 21.1447 16.2853C21.4627 15.7101 21.6412 14.9525 21.8308 14.1528V14.1387C22.2213 12.4903 22.6285 10.7787 24.3465 10.5401C24.6672 10.4209 24.9993 10.3572 25.3338 10.3507C25.502 10.352 25.6699 10.3708 25.8358 10.4069C26.1283 10.4724 26.4074 10.611 26.6565 10.8147C26.9056 11.0183 27.1197 11.2828 27.286 11.5924C27.7044 12.35 27.8271 13.2338 27.6374 14.0826Z" fill="#161616"/>
<path d="M25.3282 11.8029C25.1476 11.8024 24.9676 11.8307 24.7927 11.8871C24.7071 11.9915 24.6396 12.1171 24.5945 12.256C24.5494 12.3948 24.5276 12.5439 24.5305 12.6938C24.5528 13.4724 24.7592 13.6969 24.8875 13.8302C25.0158 13.9635 25.066 14.0196 25.066 14.216C25.066 14.4124 24.8652 14.5597 24.6644 14.6299C24.1791 14.8053 23.705 15.0438 23.7496 15.8785C23.7942 16.7133 23.9616 16.8816 24.0787 17.043H24.0843C24.1847 17.1763 24.3688 17.4288 24.1122 17.8076C23.6938 18.4319 23.5879 18.972 23.7887 19.414C23.8723 19.5964 23.9002 19.7717 23.8612 19.9401C23.8054 20.2137 23.6046 20.347 23.4428 20.4522H23.4317C23.3368 20.5223 23.2197 20.5995 23.203 20.6696C23.1862 20.7398 23.1862 20.7468 23.2532 20.9011C23.5767 21.6377 23.2141 22.0165 22.9743 22.262H22.9687C22.7623 22.4724 22.6396 22.6127 22.6396 22.8863C22.6396 23.9876 21.3567 25.1521 18.9861 25.1521C16.6154 25.1521 15.3437 23.9876 15.3437 22.8863C15.3437 22.6127 15.1986 22.4584 15.0201 22.269H15.0146C14.7691 22.0235 14.4066 21.6447 14.7301 20.9011C14.797 20.7538 14.7914 20.6837 14.7859 20.6696C14.7145 20.5863 14.6359 20.5133 14.5516 20.4522H14.546C14.3843 20.347 14.1835 20.2137 14.1221 19.9401C14.106 19.8507 14.1041 19.7582 14.1165 19.6679C14.129 19.5776 14.1555 19.4913 14.1946 19.414C14.3954 18.972 14.2894 18.4319 13.8767 17.8076C13.6201 17.4218 13.8042 17.1763 13.9046 17.043C14.005 16.9097 14.2058 16.6361 14.2392 15.8715C14.2727 15.1069 13.8097 14.7982 13.3244 14.6229C13.1348 14.5597 12.9228 14.4826 12.9228 14.209C12.9228 13.9354 13.0232 13.9074 13.1013 13.8232C13.1794 13.739 13.436 13.4654 13.4583 12.6868C13.4585 12.5384 13.4355 12.3913 13.3905 12.2541C13.3455 12.1169 13.2795 11.9922 13.1962 11.8871C13.0233 11.8288 12.8452 11.7982 12.6663 11.7959C12.2312 11.7959 11.8909 12.0063 11.6622 12.4202C11.4335 12.8341 11.4056 13.3883 11.4726 13.6899C11.5618 14.1108 11.7738 14.3703 11.8519 14.4124C11.9494 14.4679 12.0328 14.5563 12.0928 14.6677C12.1529 14.7791 12.1872 14.9093 12.1921 15.0438C12.1921 15.0929 12.3427 19.4561 13.8822 22.0375C13.9271 22.1128 13.9594 22.1987 13.9771 22.2901V22.3041C13.9826 22.3392 14.2113 23.3072 14.903 24.2402C15.8736 25.5449 17.2457 26.2043 18.9916 26.2043C20.7375 26.2043 22.1209 25.5449 23.0803 24.2402C23.8054 23.2721 24.0118 22.3041 24.0118 22.2971C24.0278 22.2015 24.0623 22.1124 24.1122 22.0375C25.6517 19.4561 25.7967 15.0929 25.8023 15.0508C25.8042 14.9145 25.8373 14.7818 25.8976 14.6685C25.958 14.5553 26.043 14.4664 26.1425 14.4124C26.2151 14.3703 26.427 14.1108 26.5218 13.6899C26.5888 13.3883 26.6111 12.9253 26.3266 12.4202C26.0421 11.9152 25.7688 11.8029 25.3282 11.8029Z" fill="#161616"/>
</g>
</g>
<defs>
<clipPath id="clip0_116_4422">
<rect width="18" height="18" fill="white" transform="matrix(-1 0 0 1 28 10)"/>
</clipPath>
<clipPath id="clip1_116_4422">
<rect width="18" height="18" fill="white" transform="translate(10 10)"/>
</clipPath>
</defs>
</svg>
