<svg width="60" height="60" viewBox="0 0 60 60" fill="none" xmlns="http://www.w3.org/2000/svg">
<rect width="60" height="60" rx="30" fill="white"/>
<path d="M30 50.0596C26.0326 50.0596 22.1543 48.8831 18.8555 46.6789C15.5567 44.4748 12.9856 41.3419 11.4674 37.6765C9.94912 34.0111 9.55187 29.9778 10.3259 26.0866C11.0999 22.1954 13.0104 18.6211 15.8158 15.8158C18.6211 13.0104 22.1954 11.0999 26.0866 10.3259C29.9778 9.55187 34.0111 9.94912 37.6765 11.4674C41.3419 12.9856 44.4748 15.5567 46.6789 18.8555C48.8831 22.1543 50.0596 26.0326 50.0596 30C50.0498 35.3171 47.9333 40.4137 44.1735 44.1735C40.4137 47.9333 35.3171 50.0498 30 50.0596ZM30 12.0666C26.4531 12.0666 22.9859 13.1183 20.0367 15.0889C17.0876 17.0595 14.789 19.8603 13.4317 23.1372C12.0743 26.4141 11.7192 30.0199 12.4112 33.4987C13.1031 36.9774 14.8111 40.1728 17.3192 42.6809C19.8272 45.1889 23.0226 46.8969 26.5014 47.5889C29.9801 48.2808 33.5859 47.9257 36.8628 46.5684C40.1398 45.211 42.9406 42.9124 44.9111 39.9633C46.8817 37.0142 47.9335 33.5469 47.9335 30C47.9286 25.2453 46.0376 20.6867 42.6755 17.3246C39.3134 13.9624 34.7548 12.0715 30 12.0666Z" fill="#161616"/>
<path d="M20.941 29.6672C20.5342 26.6351 18.8333 20.2567 22.4015 19.6097C25.9697 18.9626 25.9143 21.1996 29.5749 21.1996C33.2356 21.1996 33.3465 19.3878 36.1382 19.4987C38.9299 19.6097 39.3366 22.8266 38.708 26.9864C38.0794 31.1462 37.6542 39.4474 35.6575 40.2424C33.6608 41.0374 32.1817 38.6154 31.9784 35.2321C31.775 31.8488 30.4624 31.2387 28.9833 31.1277C27.5043 31.0168 26.6723 34.8254 26.4504 37.8759C26.2286 40.9264 23.1411 41.666 22.457 39.1331C21.7729 36.6002 21.3477 32.9211 20.941 29.6672Z" fill="#161616"/>
<path d="M51.0395 28.5394H46.9722C46.1655 28.5394 45.5116 29.1925 45.5116 29.9981C45.5116 30.8038 46.1655 31.4568 46.9722 31.4568H51.0395C51.8462 31.4568 52.5001 30.8038 52.5001 29.9981C52.5001 29.1925 51.8462 28.5394 51.0395 28.5394Z" fill="#161616"/>
<path d="M13.0279 28.5394H8.96056C8.15391 28.5394 7.5 29.1925 7.5 29.9981C7.5 30.8038 8.15391 31.4568 8.96056 31.4568H13.0279C13.8346 31.4568 14.4885 30.8038 14.4885 29.9981C14.4885 29.1925 13.8346 28.5394 13.0279 28.5394Z" fill="#161616"/>
<path d="M31.4604 51.0394V46.972C31.4604 46.1654 30.8074 45.5115 30.0017 45.5115C29.1961 45.5115 28.543 46.1654 28.543 46.972V51.0394C28.543 51.8461 29.1961 52.5 30.0017 52.5C30.8074 52.5 31.4604 51.8461 31.4604 51.0394Z" fill="#161616"/>
<path d="M31.4604 13.0279V8.96056C31.4604 8.15391 30.8074 7.5 30.0017 7.5C29.1961 7.5 28.543 8.15391 28.543 8.96056V13.0279C28.543 13.8346 29.1961 14.4885 30.0017 14.4885C30.8074 14.4885 31.4604 13.8346 31.4604 13.0279Z" fill="#161616"/>
</svg>
