<svg width="24" height="24" viewBox="0 0 24 24" fill="none" xmlns="http://www.w3.org/2000/svg">
<path d="M19.0488 4.90957C18.132 3.9835 17.04 3.24924 15.8365 2.74962C14.6329 2.25001 13.3419 1.99503 12.0388 1.99957C6.57883 1.99957 2.12883 6.44957 2.12883 11.9096C2.12883 13.6596 2.58883 15.3596 3.44883 16.8596L2.04883 21.9996L7.29883 20.6196C8.74883 21.4096 10.3788 21.8296 12.0388 21.8296C17.4988 21.8296 21.9488 17.3796 21.9488 11.9196C21.9488 9.26957 20.9188 6.77957 19.0488 4.90957ZM12.0388 20.1496C10.5588 20.1496 9.10883 19.7496 7.83883 18.9996L7.53883 18.8196L4.41883 19.6396L5.24883 16.5996L5.04883 16.2896C4.22657 14.9765 3.78997 13.4588 3.78883 11.9096C3.78883 7.36957 7.48883 3.66957 12.0288 3.66957C14.2288 3.66957 16.2988 4.52957 17.8488 6.08957C18.6163 6.85353 19.2245 7.76223 19.6382 8.763C20.0519 9.76376 20.2629 10.8367 20.2588 11.9196C20.2788 16.4596 16.5788 20.1496 12.0388 20.1496ZM16.5588 13.9896C16.3088 13.8696 15.0888 13.2696 14.8688 13.1796C14.6388 13.0996 14.4788 13.0596 14.3088 13.2996C14.1388 13.5496 13.6688 14.1096 13.5288 14.2696C13.3888 14.4396 13.2388 14.4596 12.9888 14.3296C12.7388 14.2096 11.9388 13.9396 10.9988 13.0996C10.2588 12.4396 9.76883 11.6296 9.61883 11.3796C9.47883 11.1296 9.59883 10.9996 9.72883 10.8696C9.83883 10.7596 9.97883 10.5796 10.0988 10.4396C10.2188 10.2996 10.2688 10.1896 10.3488 10.0296C10.4288 9.85957 10.3888 9.71957 10.3288 9.59957C10.2688 9.47957 9.76883 8.25957 9.56883 7.75957C9.36883 7.27957 9.15883 7.33957 9.00883 7.32957H8.52883C8.35883 7.32957 8.09883 7.38957 7.86883 7.63957C7.64883 7.88957 7.00883 8.48957 7.00883 9.70957C7.00883 10.9296 7.89883 12.1096 8.01883 12.2696C8.13883 12.4396 9.76883 14.9396 12.2488 16.0096C12.8388 16.2696 13.2988 16.4196 13.6588 16.5296C14.2488 16.7196 14.7888 16.6896 15.2188 16.6296C15.6988 16.5596 16.6888 16.0296 16.8888 15.4496C17.0988 14.8696 17.0988 14.3796 17.0288 14.2696C16.9588 14.1596 16.8088 14.1096 16.5588 13.9896Z" fill="#100E10"/>
</svg>
