<svg width="38" height="38" viewBox="0 0 38 38" fill="none" xmlns="http://www.w3.org/2000/svg">
<rect width="38" height="38" rx="19" transform="matrix(-1 0 0 1 38 0)" fill="#2D2D2D"/>
<g clip-path="url(#clip0_617_13224)">
<path d="M24.8895 15.0722C24.76 13.9234 24.0966 13.1953 23.0288 13.0174C22.8359 12.9898 22.6412 12.9763 22.4463 12.9769H21.8072C21.6524 12.9935 21.5088 13.0653 21.4027 13.1792C21.1639 13.4536 20.861 13.6648 20.5209 13.794C20.0689 13.9655 19.5886 14.0506 19.1052 14.0448C18.8183 14.0487 18.5315 14.0297 18.2477 13.9881C17.6247 13.8911 17.1555 13.6807 16.8238 13.3571C16.4921 13.0335 16.0796 12.9526 15.7479 12.9526H15.3191C14.1137 13.0335 13.3533 13.705 13.1348 14.8942C13.0487 15.4054 13.0459 15.9273 13.1268 16.4394C13.2562 17.4183 13.5393 18.4295 14.0328 19.6025C14.2029 20.0065 14.283 20.4427 14.2674 20.8807V22.5634C14.2674 23.0326 14.2674 24.0115 14.316 24.6587C14.3807 25.5567 14.502 26.2281 14.7205 26.8349C14.8176 27.1773 15.0048 27.4874 15.2625 27.7329C15.4292 27.897 15.6516 27.9923 15.8854 27.9998C16.0715 27.9998 16.3384 27.927 16.573 27.5953C16.7063 27.4077 16.8151 27.2038 16.8966 26.9886C17.2041 26.212 17.3497 25.403 17.4548 24.6425C17.5357 24.0762 17.6652 23.4129 17.9888 22.798C18.1668 22.4583 18.3528 22.2479 18.5874 22.0942C18.7121 22.0102 18.8578 21.9625 19.0081 21.9567C19.1448 21.9615 19.2771 22.0065 19.3883 22.0861C19.5702 22.2181 19.7287 22.3794 19.8575 22.5634C20.1326 22.9356 20.3106 23.3967 20.4319 24.0196C20.4966 24.3108 20.5452 24.6021 20.5937 24.8933C20.6423 25.1845 20.7312 25.6538 20.8121 26.034C20.9254 26.5598 21.071 27.1099 21.4189 27.5872C21.6616 27.927 21.9286 27.9998 22.1146 27.9998C22.3558 27.9896 22.5841 27.8885 22.7537 27.7167C23.045 27.4497 23.1906 27.1018 23.2877 26.8268C23.5465 26.0663 23.6841 25.2088 23.7245 24.1248C23.7488 23.1783 23.7407 22.2236 23.7326 21.2933V20.9293C23.7297 20.4671 23.8148 20.0086 23.9834 19.5783C24.2028 19.0438 24.3945 18.4983 24.5578 17.9441C24.7762 17.1756 25.0189 16.1481 24.8895 15.0722ZM16.387 13.9234C17.0989 14.4816 17.9645 14.7567 19.0324 14.7567C19.7443 14.7567 20.7717 14.6758 21.6211 13.9639C21.6227 14.0273 21.6097 14.0901 21.583 14.1477C21.5564 14.2052 21.5168 14.2558 21.4674 14.2956C21.2665 14.4941 21.0342 14.6581 20.7798 14.781C20.2863 15.0075 19.72 15.1207 19.0486 15.1207H18.7088C18.013 15.0803 17.471 14.9427 17.0099 14.6839C16.8255 14.5787 16.6589 14.4449 16.5164 14.2875C16.4662 14.2424 16.428 14.1855 16.4054 14.1219C16.3828 14.0583 16.3765 13.9901 16.387 13.9234Z" fill="#B9B9B9"/>
<path d="M22.2441 11.1731C22.1065 11.5048 21.8558 11.7798 21.4755 12.0144C20.9497 12.338 20.3429 12.5241 19.5582 12.5969L19.356 12.6131V12.8153H19.4935C19.5348 12.8124 19.5763 12.8181 19.6152 12.832C19.6542 12.8459 19.6899 12.8678 19.72 12.8962C19.7682 12.9631 19.7948 13.0431 19.7962 13.1255C19.7977 13.2079 19.7739 13.2888 19.7281 13.3573C19.5907 13.5109 19.4449 13.6568 19.2913 13.7942L19.2427 13.8427C19.1779 13.907 19.0912 13.9445 19 13.9479C18.951 13.9457 18.9029 13.9339 18.8585 13.9131C18.814 13.8922 18.7742 13.8628 18.7411 13.8265L18.3043 13.3978C18.1344 13.236 18.1263 13.0337 18.28 12.88C18.3111 12.8468 18.3487 12.8203 18.3904 12.8022C18.4322 12.7841 18.4772 12.7748 18.5227 12.7749C18.5644 12.7751 18.6056 12.7833 18.6441 12.7991V12.6212L18.4499 12.5969C18.2072 12.5645 17.9564 12.5322 17.7137 12.4755C17.107 12.3542 16.6216 12.1358 16.2333 11.8041C15.9746 11.6057 15.7896 11.3267 15.7074 11.0113C15.6104 10.5906 15.7641 10.3236 16.1524 10.2185C16.4732 10.1339 16.8007 10.0771 17.1313 10.0486C17.6086 10.0162 18.0859 10 18.5551 10C19.582 9.99817 20.6073 10.0793 21.6211 10.2427L21.7668 10.2751H21.7829C21.9771 10.3236 22.1874 10.3964 22.2845 10.5825C22.3816 10.7686 22.3169 10.987 22.2441 11.1731Z" fill="#B9B9B9"/>
</g>
<defs>
<clipPath id="clip0_617_13224">
<rect width="11.8598" height="18" fill="white" transform="translate(13.0701 10)"/>
</clipPath>
</defs>
</svg>
