<svg width="60" height="60" viewBox="0 0 60 60" fill="none" xmlns="http://www.w3.org/2000/svg">
<rect width="60" height="60" rx="30" fill="white"/>
<g clip-path="url(#clip0_617_7481)">
<path d="M42.6388 21.6446C42.3799 19.3471 41.0532 17.8909 38.9174 17.535C38.5316 17.4798 38.1422 17.4528 37.7525 17.4541H36.4743C36.1647 17.4872 35.8775 17.6308 35.6653 17.8586C35.1877 18.4074 34.5819 18.8298 33.9017 19.0882C32.9976 19.4313 32.0371 19.6015 31.0702 19.5898C30.4964 19.5976 29.923 19.5597 29.3552 19.4765C28.1093 19.2824 27.1709 18.8617 26.5075 18.2145C25.8442 17.5673 25.019 17.4055 24.3556 17.4055H23.4981C21.0873 17.5673 19.5664 18.9102 19.1296 21.2887C18.9572 22.3111 18.9517 23.3548 19.1134 24.379C19.3723 26.3368 19.9385 28.3592 20.9255 30.7053C21.2657 31.5132 21.4258 32.3856 21.3947 33.2617V36.6271C21.3947 37.5655 21.3947 39.5233 21.4918 40.8177C21.6212 42.6136 21.8639 43.9565 22.3008 45.17C22.495 45.8548 22.8694 46.475 23.3848 46.966C23.7182 47.2943 24.163 47.4849 24.6307 47.4999C25.0028 47.4999 25.5367 47.3543 26.006 46.6909C26.2725 46.3156 26.49 45.9078 26.6532 45.4774C27.268 43.9242 27.5592 42.3062 27.7696 40.7853C27.9314 39.6527 28.1902 38.326 28.8374 37.0963C29.1934 36.4168 29.5655 35.9961 30.0347 35.6887C30.2842 35.5206 30.5755 35.4253 30.8761 35.4136C31.1495 35.4233 31.414 35.5133 31.6365 35.6725C32.0002 35.9364 32.3173 36.259 32.5749 36.6271C33.1251 37.3714 33.481 38.2936 33.7237 39.5394C33.8532 40.1219 33.9502 40.7044 34.0473 41.2869C34.1444 41.8693 34.3224 42.8078 34.4842 43.5682C34.7107 44.6199 35.0019 45.7201 35.6976 46.6747C36.183 47.3543 36.717 47.4999 37.0891 47.4999C37.5714 47.4795 38.0282 47.2772 38.3673 46.9336C38.9498 46.3997 39.241 45.7039 39.4352 45.1538C39.9529 43.6329 40.228 41.9179 40.3089 39.7498C40.3574 37.8568 40.3412 35.9475 40.3251 34.0869V33.3588C40.3192 32.4344 40.4894 31.5174 40.8266 30.6568C41.2655 29.5878 41.6489 28.4969 41.9754 27.3884C42.4123 25.8514 42.8976 23.7965 42.6388 21.6446ZM25.6338 19.3471C27.0576 20.4635 28.7889 21.0136 30.9246 21.0136C32.3484 21.0136 34.4033 20.8518 36.1021 19.428C36.1053 19.5547 36.0792 19.6805 36.0259 19.7956C35.9726 19.9106 35.8935 20.0118 35.7947 20.0914C35.3929 20.4885 34.9282 20.8165 34.4194 21.0621C33.4325 21.5152 32.2999 21.7417 30.957 21.7417H30.2774C28.886 21.6608 27.8019 21.3857 26.8797 20.868C26.5108 20.6576 26.1777 20.39 25.8927 20.0752C25.7922 19.985 25.7159 19.8712 25.6707 19.744C25.6255 19.6169 25.6128 19.4804 25.6338 19.3471Z" fill="#161616"/>
<path d="M37.3479 13.846C37.0728 14.5094 36.5713 15.0595 35.8108 15.5287C34.7591 16.1759 33.5456 16.548 31.9762 16.6936L31.5717 16.726V17.1305H31.8468C31.9294 17.1247 32.0123 17.136 32.0902 17.1639C32.1682 17.1917 32.2396 17.2355 32.2998 17.2923C32.3961 17.4261 32.4493 17.5861 32.4522 17.7509C32.4551 17.9157 32.4076 18.0775 32.316 18.2145C32.0411 18.5217 31.7495 18.8134 31.4423 19.0883L31.3452 19.1853C31.2155 19.3138 31.0422 19.3889 30.8598 19.3957C30.7618 19.3913 30.6655 19.3677 30.5767 19.326C30.4878 19.2844 30.4081 19.2256 30.342 19.153L29.4683 18.2954C29.1286 17.9719 29.1124 17.5674 29.4198 17.2599C29.4819 17.1935 29.5571 17.1405 29.6406 17.1043C29.7241 17.0681 29.8142 17.0495 29.9052 17.0496C29.9885 17.05 30.0709 17.0665 30.1479 17.0981V16.7422L29.7596 16.6936C29.2742 16.6289 28.7726 16.5642 28.2872 16.451C27.0737 16.2083 26.1029 15.7714 25.3263 15.108C24.809 14.7113 24.4389 14.1533 24.2746 13.5224C24.0805 12.6811 24.3879 12.1471 25.1645 11.9368C25.8062 11.7677 26.4612 11.654 27.1223 11.597C28.0769 11.5323 29.0315 11.4999 29.9699 11.4999C32.0237 11.4962 34.0744 11.6585 36.102 11.9853L36.3933 12.0501H36.4256C36.8139 12.1471 37.2346 12.2927 37.4288 12.6649C37.6229 13.037 37.4935 13.4739 37.3479 13.846Z" fill="#161616"/>
</g>
<defs>
<clipPath id="clip0_617_7481">
<rect width="23.7196" height="36" fill="white" transform="translate(19 11.5)"/>
</clipPath>
</defs>
</svg>
