<svg width="38" height="38" viewBox="0 0 38 38" fill="none" xmlns="http://www.w3.org/2000/svg">
<rect x="-0.40625" y="0.40625" width="37.1875" height="37.1875" rx="18.5938" transform="matrix(-1 0 0 1 37.1875 0)" fill="white"/>
<rect x="-0.40625" y="0.40625" width="37.1875" height="37.1875" rx="18.5938" transform="matrix(-1 0 0 1 37.1875 0)" stroke="#5C5C5C" stroke-width="0.8125"/>
<g clip-path="url(#clip0_116_4603)">
<path d="M16.9775 14.8576C17.4452 15.1051 17.9949 15.2366 18.7005 15.2675H19.0533C19.7261 15.2675 20.3005 15.167 20.801 14.9427C21.0573 14.8258 21.2926 14.6718 21.4984 14.4863C21.5476 14.4475 21.587 14.399 21.614 14.3441C21.6409 14.2893 21.6547 14.2296 21.6543 14.1691C20.7928 14.8421 19.7507 14.9272 19.0287 14.9272C17.9457 14.9349 17.0677 14.6719 16.3457 14.1382C16.3378 14.2006 16.3456 14.264 16.3684 14.3231C16.3912 14.3822 16.4284 14.4354 16.477 14.4785C16.6228 14.6277 16.7915 14.7555 16.9775 14.8576Z" fill="#161616"/>
<path d="M20.9241 11.8408C21.1628 11.7236 21.3747 11.5632 21.5477 11.3689L21.6215 11.2916L21.4984 11.2683C20.8338 11.1987 20.1528 11.1446 19.4964 11.0827C19.2749 11.0595 18.4216 11.0518 18.3642 11.0518H18.1672L17.9129 11.0672C17.437 11.0982 16.9365 11.1368 16.4524 11.191C16.418 11.1905 16.384 11.1985 16.3539 11.2142L16.4114 11.3302C16.5427 11.5546 16.7642 11.7247 17.0924 11.8562C17.6976 12.098 18.3469 12.2267 19.0041 12.2353C19.6659 12.228 20.3192 12.0938 20.9241 11.8408Z" fill="#161616"/>
<path d="M22.9179 13.922C22.7385 13.8976 22.5576 13.8847 22.3763 13.8833H22.3189C22.4338 14.3629 22.2779 14.7729 21.8594 15.1132C21.638 15.2903 21.3924 15.4386 21.1292 15.5541C20.5056 15.8249 19.8246 15.9486 19.0533 15.9486C18.881 15.9486 18.7087 15.9486 18.5282 15.9332C17.6667 15.8713 16.9939 15.6779 16.4195 15.3298C15.8452 14.9817 15.5744 14.5253 15.6811 13.8833H15.6319C15.4702 13.8831 15.3086 13.8909 15.1478 13.9065C14.4093 13.9916 13.9499 14.3784 13.7776 15.0591C13.6819 15.4891 13.6681 15.9317 13.7365 16.3663C13.8514 17.2714 14.1304 18.1996 14.6145 19.298C14.8305 19.7848 14.9313 20.3101 14.9098 20.8373C14.8606 21.8506 14.8278 23.1888 14.9673 24.5193C15.0411 25.1536 15.1232 25.7724 15.3693 26.3526C15.4416 26.5225 15.5443 26.6795 15.6729 26.8167C15.7549 26.9095 15.8042 26.925 15.8206 26.925C15.8839 26.8949 15.9377 26.8495 15.9765 26.7935C16.0576 26.6818 16.1264 26.5626 16.1816 26.4377L16.2062 26.3603C16.3293 26.0277 16.4278 25.6951 16.518 25.3547C16.6083 25.0144 16.6411 24.7514 16.6903 24.4574C16.7395 24.1635 16.8134 23.7845 16.8954 23.4518C17.0841 22.6551 17.3877 22.075 17.8636 21.6263C18.2 21.3169 18.5857 21.1467 18.9877 21.1467C19.3897 21.1467 19.7508 21.3014 20.079 21.5799C20.2025 21.699 20.3176 21.8256 20.4236 21.9589C20.76 22.4076 20.9979 22.9413 21.1374 23.6143C21.203 23.916 21.2605 24.2254 21.3179 24.5271C21.3753 24.8287 21.441 25.1923 21.5148 25.5172C21.5887 25.8421 21.7363 26.399 22.0071 26.7858C22.0728 26.8708 22.1302 26.925 22.1794 26.925C22.2286 26.925 22.2697 26.8863 22.3271 26.8167C22.4675 26.6447 22.5808 26.4545 22.6635 26.252C22.9179 25.6023 22.9917 24.937 23.0573 24.1326C23.164 22.9491 23.123 21.7656 23.082 20.8605C23.0577 20.3338 23.1557 19.8085 23.3691 19.3212C23.5825 18.8339 23.763 18.3388 23.9189 17.8515C24.2307 16.8769 24.3455 16.1265 24.2799 15.3994C24.1978 14.5408 23.7548 14.0535 22.9179 13.922Z" fill="#161616"/>
<path d="M25.3793 15.2136C25.2234 13.9527 24.4029 13.1096 23.1475 12.9162C22.9551 12.8854 22.7602 12.8699 22.565 12.8698H21.8101C21.5465 12.889 21.3017 13.0058 21.1291 13.1947C20.9291 13.4045 20.6787 13.5663 20.3989 13.6665C20.2979 13.7056 20.1936 13.7366 20.0871 13.7593C20.1454 13.6715 20.1842 13.5734 20.2011 13.4711C20.218 13.3687 20.2127 13.2641 20.1856 13.1637C20.729 13.0769 21.2515 12.8987 21.7281 12.6377C22.1794 12.367 22.4829 12.0498 22.6635 11.6476V11.6321C22.7291 11.462 22.8686 11.1061 22.6799 10.7581C22.4912 10.41 22.0891 10.3094 21.9168 10.263H21.843L21.7363 10.2321H21.7199C20.6689 10.0812 19.6076 10.0036 18.5446 10C18.0605 10 17.56 10.0155 17.0759 10.0464C16.7115 10.066 16.3508 10.1257 16.001 10.2243C15.3939 10.379 15.1067 10.8431 15.2544 11.431C15.3576 11.8214 15.5976 12.1676 15.9354 12.4134C16.3867 12.7615 16.9282 12.9936 17.6092 13.1328L17.7815 13.1637C17.7504 13.2574 17.7409 13.3562 17.7537 13.4536C17.7664 13.551 17.8011 13.6447 17.8554 13.7284C17.5623 13.6577 17.2937 13.5164 17.0759 13.3184C16.6 12.8853 16.0913 12.8311 15.6975 12.8311H15.2298C13.8267 12.9239 12.9078 13.6897 12.6452 15.0047H12.637C12.5515 15.5274 12.5487 16.0592 12.6288 16.5827C12.7601 17.5496 13.0637 18.5398 13.5806 19.7155C13.7293 20.0536 13.8019 20.4171 13.7939 20.783C13.7857 21.1079 13.7857 21.4482 13.7857 21.7808V22.3919C13.7857 22.8483 13.7857 23.7997 13.8349 24.434C13.9006 25.3236 14.0319 25.9966 14.2698 26.6154C14.3765 26.9171 14.557 27.3116 14.918 27.621C15.1626 27.8396 15.4837 27.9662 15.8205 27.9768H15.8369C16.0402 27.9734 16.2395 27.9237 16.4181 27.8322C16.5966 27.7406 16.7491 27.6098 16.8626 27.4508C17.0217 27.2474 17.1489 27.0233 17.24 26.7856C17.5846 25.9811 17.7323 25.1612 17.8307 24.465C17.9128 23.9622 18.0277 23.3666 18.3312 22.8251C18.4789 22.5621 18.6184 22.3997 18.7907 22.2991H18.8153C18.8687 22.2584 18.9354 22.2365 19.0041 22.2372C19.0571 22.2383 19.1086 22.2544 19.1517 22.2836C19.2989 22.3915 19.4312 22.5162 19.5456 22.6549C19.7671 22.9489 19.9312 23.3511 20.0543 23.9003C20.0871 24.0782 20.1117 24.2252 20.1527 24.4108C20.1938 24.5965 20.1856 24.6119 20.202 24.7202C20.284 25.1379 20.3579 25.5015 20.4317 25.8187C20.5548 26.3679 20.7271 26.9403 21.1127 27.4585C21.4984 27.9768 21.8758 28.0077 22.163 28.0077H22.1794C22.5226 27.9935 22.8477 27.8582 23.0901 27.6287C23.4429 27.327 23.6152 26.9403 23.7301 26.6309C24.0173 25.8341 24.165 24.9832 24.1978 23.9312C24.2224 23.0107 24.2142 22.0593 24.206 21.2162V20.8603C24.1932 20.4715 24.2659 20.0844 24.4193 19.7232C24.6491 19.1972 24.846 18.6558 25.0183 18.1143C25.2808 17.2634 25.527 16.3429 25.3793 15.2136ZM17.6913 12.7538C17.0759 12.63 16.5918 12.4211 16.1898 12.1117C15.9273 11.9189 15.7398 11.6496 15.6564 11.3459C15.558 10.9514 15.7139 10.6962 16.1077 10.5956C16.432 10.5103 16.7646 10.4559 17.1005 10.4332C17.5846 10.4022 18.0687 10.3868 18.5446 10.3868C19.5884 10.3881 20.6306 10.4631 21.6625 10.6111L21.8019 10.642H21.8183C22.0153 10.6884 22.2286 10.7581 22.3271 10.936C22.4255 11.1139 22.3599 11.315 22.286 11.5006C22.1465 11.8178 21.9004 12.0808 21.5148 12.3051C20.9732 12.6068 20.3579 12.7847 19.562 12.8621L19.3569 12.8775V13.0709L19.4964 13.0554C19.5804 13.0539 19.6621 13.0815 19.7261 13.1328C19.7739 13.1972 19.8002 13.2735 19.8016 13.3521C19.8031 13.4306 19.7797 13.5078 19.7343 13.5737C19.595 13.7231 19.4471 13.8651 19.2912 13.9991L19.242 14.0456C19.2091 14.0784 19.1694 14.1044 19.1253 14.1219C19.0812 14.1394 19.0337 14.1481 18.9858 14.1474C18.938 14.1467 18.8908 14.1365 18.8473 14.1177C18.8038 14.0988 18.765 14.0716 18.7333 14.0378L18.2902 13.6201C18.2202 13.5656 18.1752 13.4878 18.1645 13.4028C18.1538 13.3178 18.1782 13.2322 18.2328 13.1637C18.241 13.156 18.2492 13.1405 18.2656 13.1328C18.2949 13.098 18.3324 13.07 18.3751 13.0512C18.4178 13.0324 18.4646 13.0233 18.5118 13.0245C18.554 13.0247 18.5958 13.0326 18.6348 13.0477V12.893L18.4379 12.8698C18.1918 12.8388 17.9374 12.8002 17.6913 12.7538ZM24.6244 17.9983C24.4598 18.531 24.2654 19.0552 24.0419 19.5685C23.8663 19.9786 23.7825 20.4184 23.7957 20.8603V21.2084C23.8039 22.0902 23.8121 23.0107 23.7875 23.9158C23.7547 24.9446 23.607 25.7645 23.3445 26.4994C23.246 26.7624 23.0983 27.095 22.8111 27.3425C22.6382 27.5055 22.4072 27.602 22.163 27.6132C21.9742 27.6132 21.6953 27.5514 21.4491 27.2265C21.1045 26.7701 20.9486 26.2364 20.8338 25.7336C20.7517 25.3777 20.6779 25.0064 20.6122 24.6506C20.5466 24.2948 20.5138 24.0859 20.4563 23.8152C20.325 23.2196 20.1445 22.7709 19.8738 22.4151C19.7341 22.2487 19.5744 22.0981 19.3979 21.9665C19.2832 21.888 19.1457 21.8448 19.0041 21.8427C18.8505 21.8422 18.7009 21.8883 18.5774 21.9742C18.3395 22.1135 18.1507 22.3223 17.9702 22.6394C17.642 23.2351 17.5108 23.8694 17.4287 24.4108C17.322 25.1379 17.1744 25.9037 16.8626 26.6463C16.7796 26.852 16.6693 27.0469 16.5344 27.2265C16.2964 27.5281 16.0257 27.59 15.8369 27.59C15.6011 27.5842 15.3759 27.496 15.2052 27.3425C14.9098 27.0872 14.7621 26.7701 14.6554 26.4839C14.4339 25.896 14.3108 25.2617 14.2452 24.4031C14.196 23.7843 14.196 22.8483 14.196 22.3919V21.7808C14.196 21.456 14.196 21.1156 14.2042 20.7907C14.2131 20.3716 14.1292 19.9554 13.958 19.5685C13.4657 18.4392 13.1703 17.48 13.0391 16.5363C12.9597 16.0517 12.9625 15.5582 13.0473 15.0743C13.277 13.9373 14.0401 13.2952 15.2626 13.2179H15.6975C16.0339 13.2179 16.4277 13.2643 16.7887 13.5969C17.1497 13.9295 17.601 14.1074 18.241 14.208C18.5262 14.2481 18.8141 14.2688 19.1025 14.2699C19.5955 14.2751 20.0852 14.1938 20.5466 14.0301C20.889 13.9058 21.1954 13.707 21.4409 13.4499C21.4896 13.3927 21.5506 13.3459 21.6199 13.3126C21.6892 13.2792 21.7652 13.2601 21.843 13.2566H22.4912C22.689 13.2502 22.8869 13.2631 23.0819 13.2952C24.165 13.4654 24.8378 14.1616 24.9773 15.26C25.1167 16.3584 24.8542 17.2634 24.6244 17.9983Z" fill="#161616"/>
</g>
<defs>
<clipPath id="clip0_116_4603">
<rect width="12.8571" height="18" fill="white" transform="translate(12.5714 10)"/>
</clipPath>
</defs>
</svg>
