<svg width="60" height="60" viewBox="0 0 60 60" fill="none" xmlns="http://www.w3.org/2000/svg">
<rect width="60" height="60" rx="30" fill="#353434"/>
<g clip-path="url(#clip0_617_7710)">
<path d="M42.6386 21.6446C42.3798 19.3471 41.053 17.8909 38.9173 17.535C38.5315 17.4798 38.1421 17.4528 37.7524 17.4541H36.4742C36.1646 17.4872 35.8774 17.6308 35.6652 17.8586C35.1875 18.4074 34.5817 18.8298 33.9016 19.0882C32.9975 19.4313 32.037 19.6015 31.0701 19.5898C30.4963 19.5976 29.9228 19.5597 29.3551 19.4765C28.1092 19.2824 27.1708 18.8617 26.5074 18.2145C25.844 17.5673 25.0189 17.4055 24.3555 17.4055H23.498C21.0872 17.5673 19.5663 18.9102 19.1294 21.2887C18.9571 22.3111 18.9516 23.3548 19.1133 24.379C19.3721 26.3368 19.9384 28.3592 20.9254 30.7053C21.2656 31.5132 21.4257 32.3856 21.3946 33.2617V36.6271C21.3946 37.5655 21.3946 39.5233 21.4917 40.8177C21.6211 42.6136 21.8638 43.9565 22.3007 45.17C22.4949 45.8548 22.8693 46.475 23.3847 46.966C23.7181 47.2943 24.1629 47.4849 24.6306 47.4999C25.0027 47.4999 25.5366 47.3543 26.0058 46.6909C26.2724 46.3156 26.4899 45.9078 26.653 45.4774C27.2679 43.9242 27.5591 42.3062 27.7694 40.7853C27.9312 39.6527 28.1901 38.326 28.8373 37.0963C29.1933 36.4168 29.5654 35.9961 30.0346 35.6887C30.284 35.5206 30.5754 35.4253 30.8759 35.4136C31.1494 35.4233 31.4139 35.5133 31.6364 35.6725C32.0001 35.9364 32.3172 36.259 32.5748 36.6271C33.1249 37.3714 33.4809 38.2936 33.7236 39.5394C33.853 40.1219 33.9501 40.7044 34.0472 41.2869C34.1443 41.8693 34.3222 42.8078 34.484 43.5682C34.7106 44.6199 35.0018 45.7201 35.6975 46.6747C36.1829 47.3543 36.7168 47.4999 37.089 47.4999C37.5713 47.4795 38.028 47.2772 38.3672 46.9336C38.9497 46.3997 39.2409 45.7039 39.4351 45.1538C39.9528 43.6329 40.2279 41.9179 40.3088 39.7498C40.3573 37.8568 40.3411 35.9475 40.3249 34.0869V33.3588C40.3191 32.4344 40.4893 31.5174 40.8265 30.6568C41.2654 29.5878 41.6488 28.4969 41.9753 27.3884C42.4121 25.8514 42.8975 23.7965 42.6386 21.6446ZM25.6337 19.3471C27.0575 20.4635 28.7888 21.0136 30.9245 21.0136C32.3483 21.0136 34.4031 20.8518 36.102 19.428C36.1052 19.5547 36.0791 19.6805 36.0258 19.7956C35.9725 19.9106 35.8934 20.0118 35.7946 20.0914C35.3928 20.4885 34.9281 20.8165 34.4193 21.0621C33.4324 21.5152 32.2998 21.7417 30.9568 21.7417H30.2773C28.8858 21.6608 27.8018 21.3857 26.8795 20.868C26.5107 20.6576 26.1775 20.39 25.8926 20.0752C25.7921 19.985 25.7158 19.8712 25.6706 19.744C25.6254 19.6169 25.6127 19.4804 25.6337 19.3471Z" fill="white"/>
<path d="M37.3479 13.846C37.0728 14.5094 36.5712 15.0595 35.8108 15.5287C34.7591 16.1759 33.5456 16.548 31.9762 16.6936L31.5717 16.726V17.1305H31.8467C31.9293 17.1247 32.0122 17.136 32.0902 17.1639C32.1682 17.1917 32.2395 17.2355 32.2998 17.2923C32.3961 17.4261 32.4493 17.5861 32.4522 17.7509C32.4551 17.9157 32.4075 18.0775 32.3159 18.2145C32.0411 18.5217 31.7494 18.8134 31.4422 19.0883L31.3452 19.1853C31.2155 19.3138 31.0422 19.3889 30.8598 19.3957C30.7617 19.3913 30.6655 19.3677 30.5766 19.326C30.4878 19.2844 30.408 19.2256 30.342 19.153L29.4683 18.2954C29.1285 17.9719 29.1123 17.5674 29.4198 17.2599C29.4819 17.1935 29.5571 17.1405 29.6406 17.1043C29.7241 17.0681 29.8141 17.0495 29.9052 17.0496C29.9884 17.05 30.0708 17.0665 30.1479 17.0981V16.7422L29.7595 16.6936C29.2741 16.6289 28.7726 16.5642 28.2872 16.451C27.0737 16.2083 26.1029 15.7714 25.3263 15.108C24.809 14.7113 24.4389 14.1533 24.2746 13.5224C24.0804 12.6811 24.3879 12.1471 25.1645 11.9368C25.8061 11.7677 26.4611 11.654 27.1222 11.597C28.0768 11.5323 29.0314 11.4999 29.9699 11.4999C32.0237 11.4962 34.0744 11.6585 36.102 11.9853L36.3932 12.0501H36.4256C36.8139 12.1471 37.2346 12.2927 37.4288 12.6649C37.6229 13.037 37.4935 13.4739 37.3479 13.846Z" fill="white"/>
</g>
<defs>
<clipPath id="clip0_617_7710">
<rect width="23.7196" height="36" fill="white" transform="translate(19 11.5)"/>
</clipPath>
</defs>
</svg>
