<svg width="162" height="157" viewBox="0 0 162 157" fill="none" xmlns="http://www.w3.org/2000/svg">
<rect x="3" y="1" width="155" height="155" rx="77.5" stroke="white" stroke-width="2"/>
<path d="M9.51554 88.3548C9.47168 88.1311 9.51129 87.9276 9.63436 87.7445C9.75744 87.5614 9.93085 87.448 10.1546 87.4041L20.8765 85.3022C21.1003 85.2584 21.3037 85.298 21.4868 85.421C21.6816 85.5418 21.801 85.7141 21.8449 85.9378L22.5409 89.4882C22.804 90.8307 22.7265 92.0259 22.3083 93.0739C21.9042 94.1314 21.2773 94.988 20.4276 95.6437C19.5778 96.2995 18.6348 96.7289 17.5986 96.932C16.5623 97.1352 15.527 97.0936 14.4925 96.8072C13.4581 96.5209 12.5483 95.9655 11.7631 95.1412C10.9919 94.3263 10.4747 93.2477 10.2116 91.9052L9.51554 88.3548ZM11.6749 91.4166C11.8642 92.3822 12.2247 93.192 12.7564 93.8459C13.2999 94.4975 13.9583 94.9554 14.7316 95.2196C15.5166 95.4815 16.3684 95.5224 17.2869 95.3423C18.2054 95.1622 18.9728 94.8039 19.5891 94.2673C20.2172 93.7284 20.654 93.0559 20.8994 92.2496C21.1567 91.441 21.1907 90.5539 21.0014 89.5883L20.5027 87.0447L11.1763 88.873L11.6749 91.4166Z" fill="white"/>
<path d="M14.2566 108.476C13.633 107.151 13.5193 105.938 13.9157 104.836C14.328 103.74 15.2181 102.87 16.5861 102.226C17.3569 101.863 18.1345 101.669 18.9188 101.645C19.7031 101.62 20.4341 101.806 21.1119 102.204C21.7896 102.601 22.3304 103.228 22.7343 104.086C23.1126 104.889 23.2498 105.673 23.1458 106.439C23.0528 107.199 22.763 107.879 22.2764 108.479C21.8007 109.075 21.1938 109.546 20.4555 109.894C20.2492 109.991 20.0423 110.002 19.8347 109.928C19.6322 109.864 19.4773 109.718 19.37 109.49L16.7704 103.969C16.0514 104.414 15.5926 104.975 15.3941 105.652C15.1957 106.329 15.2983 107.096 15.7022 107.954C15.9169 108.41 16.1469 108.786 16.3923 109.082C16.6427 109.388 16.926 109.666 17.2422 109.915C17.3266 109.981 17.3943 110.069 17.4454 110.177C17.5272 110.351 17.5391 110.531 17.481 110.718C17.4229 110.904 17.3016 111.041 17.117 111.128C16.8782 111.24 16.6109 111.194 16.3151 110.988C15.8769 110.677 15.5009 110.343 15.1873 109.987C14.8736 109.631 14.5634 109.127 14.2566 108.476ZM20.2376 108.206C20.7543 107.923 21.1329 107.572 21.3736 107.154C21.6194 106.746 21.7394 106.325 21.7336 105.89C21.7386 105.45 21.6542 105.045 21.4803 104.676C21.3065 104.307 21.0484 103.984 20.706 103.708C20.3745 103.426 19.9733 103.25 19.5026 103.18C19.0319 103.11 18.5228 103.184 17.9755 103.402L20.2376 108.206Z" fill="white"/>
<path d="M20.9171 117.184C20.7769 117.004 20.7204 116.805 20.7476 116.586C20.7747 116.367 20.8782 116.187 21.058 116.047L27.1487 111.3C27.3285 111.16 27.5279 111.104 27.7469 111.131C27.9753 111.151 28.1596 111.25 28.2997 111.43C28.4399 111.61 28.4916 111.813 28.455 112.039C28.4353 112.268 28.3355 112.452 28.1556 112.592L27.5735 113.046C28.2514 113.096 28.8709 113.237 29.4321 113.469C29.9933 113.701 30.4952 114.101 30.9378 114.669C31.3435 115.189 31.5708 115.735 31.6198 116.305C31.6762 116.885 31.5688 117.44 31.2978 117.971C31.0342 118.511 30.6468 118.98 30.1357 119.379L26.1037 122.521C25.9238 122.661 25.7207 122.713 25.4944 122.677C25.2755 122.649 25.0959 122.546 24.9558 122.366C24.8156 122.186 24.7591 121.987 24.7863 121.768C24.8134 121.549 24.9169 121.369 25.0967 121.229L28.9868 118.197C30.1416 117.298 30.3132 116.327 29.5018 115.286C29.1329 114.813 28.6779 114.483 28.1368 114.296C27.603 114.118 26.9988 114.026 26.3242 114.02L22.0649 117.339C21.8851 117.479 21.682 117.531 21.4557 117.494C21.2368 117.467 21.0572 117.364 20.9171 117.184Z" fill="white"/>
<path d="M33.5228 130.716C32.2039 129.563 32.0659 128.39 33.1086 127.198L36.7818 122.997L35.8198 122.156C35.7475 122.093 35.7041 122.015 35.6894 121.922C35.6916 121.829 35.7243 121.746 35.7875 121.673C35.8665 121.583 35.9743 121.542 36.1109 121.55L39.5296 121.359C39.682 121.349 39.7943 121.375 39.8666 121.439C39.9388 121.502 39.9739 121.58 39.9716 121.674C39.9784 121.775 39.9502 121.862 39.887 121.935L38.9391 123.019L40.4702 124.358C40.6238 124.492 40.7068 124.652 40.7193 124.838C40.7318 125.025 40.6709 125.195 40.5366 125.348C40.4102 125.493 40.2499 125.576 40.0557 125.597C39.8695 125.61 39.6996 125.549 39.546 125.415L38.0149 124.076L34.4364 128.168C34.1283 128.52 34.0122 128.817 34.0879 129.058C34.1805 129.299 34.3533 129.53 34.6062 129.751C34.7869 129.909 34.9912 130.04 35.2193 130.143C35.2633 130.166 35.3074 130.189 35.3514 130.211C35.4045 130.242 35.4626 130.284 35.5258 130.34C35.6523 130.45 35.7218 130.599 35.7342 130.785C35.7546 130.962 35.7056 131.119 35.5871 131.254C35.4054 131.462 35.1633 131.529 34.8607 131.456C34.3662 131.31 33.9202 131.064 33.5228 130.716Z" fill="white"/>
<path d="M43.9686 135.099C43.5147 134.83 43.147 134.485 42.8654 134.067C42.5942 133.654 42.4493 133.205 42.4309 132.719C42.4186 132.223 42.5505 131.743 42.8264 131.279C43.2803 130.516 43.9412 130.085 44.8093 129.987C45.6877 129.895 46.7096 130.195 47.8752 130.888L49.7473 132.001L49.8209 131.878C50.2257 131.197 50.3468 130.606 50.1842 130.104C50.032 129.609 49.6 129.15 48.8883 128.727C48.4964 128.494 48.1273 128.316 47.781 128.194C47.4451 128.078 47.0547 127.971 46.6098 127.874C46.515 127.846 46.4418 127.816 46.3902 127.786C46.2355 127.694 46.1352 127.557 46.0891 127.376C46.0431 127.196 46.0692 127.023 46.1673 126.857C46.3329 126.579 46.5835 126.463 46.9191 126.509C48.0167 126.659 49.0193 127.003 49.927 127.543C50.6387 127.966 51.1511 128.466 51.4641 129.043C51.7875 129.627 51.9247 130.218 51.8757 130.817C51.8431 131.412 51.6673 131.977 51.3484 132.514L48.7452 136.892C48.6287 137.088 48.4583 137.21 48.2342 137.259C48.0204 137.313 47.8155 137.282 47.6195 137.165C47.4235 137.049 47.2984 136.884 47.244 136.67C47.1896 136.456 47.2207 136.251 47.3372 136.055L47.5764 135.653C46.347 135.983 45.1444 135.798 43.9686 135.099ZM45.2305 134.174C45.6844 134.444 46.1871 134.597 46.7388 134.631C47.2966 134.656 47.8181 134.589 48.3031 134.431L49.0758 133.131L47.3894 132.128C45.8318 131.202 44.8109 131.147 44.3264 131.962C44.1056 132.333 44.0515 132.706 44.1642 133.08C44.2871 133.46 44.6426 133.825 45.2305 134.174Z" fill="white"/>
<path d="M56.656 141.73C56.444 141.646 56.2942 141.503 56.2067 141.3C56.1191 141.098 56.1174 140.891 56.2014 140.679L60.5052 129.818C60.5892 129.607 60.7324 129.457 60.9349 129.369C61.1419 129.271 61.3513 129.263 61.5633 129.347C61.7864 129.436 61.9417 129.581 62.0293 129.784C62.1168 129.986 62.1164 130.199 62.028 130.422L57.7241 141.282C57.6401 141.494 57.4913 141.642 57.2777 141.725C57.0752 141.812 56.8679 141.814 56.656 141.73Z" fill="white"/>
<path d="M82.2457 146.373C80.9885 146.289 79.9051 145.941 78.9957 145.327C78.0863 144.714 77.4062 143.905 76.9556 142.901C76.505 141.897 76.3093 140.766 76.3687 139.507C76.4759 138.251 76.8191 137.156 77.3982 136.22C77.9774 135.284 78.7581 134.572 79.7405 134.084C80.723 133.596 81.8428 133.394 83.1 133.477C84.3573 133.56 85.4346 133.908 86.3321 134.521C87.2415 135.134 87.9212 135.949 88.371 136.965C88.8336 137.97 89.0356 139.095 88.9771 140.342C88.8706 141.586 88.5214 142.681 87.9296 143.628C87.3504 144.564 86.5697 145.276 85.5872 145.764C84.6168 146.253 83.503 146.456 82.2457 146.373ZM82.3469 144.846C83.3048 144.909 84.1512 144.749 84.8862 144.365C85.6212 143.98 86.1989 143.429 86.6193 142.712C87.0396 141.994 87.2808 141.168 87.3426 140.234C87.4045 139.3 87.2744 138.45 86.9524 137.683C86.6304 136.916 86.1305 136.293 85.4526 135.815C84.7747 135.338 83.9568 135.067 82.9989 135.003C82.029 134.939 81.1766 135.099 80.4416 135.484C79.7185 135.869 79.1468 136.42 78.7265 137.138C78.3061 137.856 78.065 138.681 78.0031 139.615C77.9412 140.549 78.0713 141.4 78.3933 142.167C78.7153 142.934 79.2093 143.556 79.8752 144.033C80.5531 144.511 81.377 144.782 82.3469 144.846Z" fill="white"/>
<path d="M97.1502 149.328C96.9268 149.373 96.7219 149.33 96.5354 149.196C96.3512 149.075 96.2363 148.902 96.1906 148.679L93.8119 137.058C93.7662 136.835 93.8041 136.631 93.9257 136.447C94.0472 136.263 94.2197 136.148 94.4431 136.102C94.6664 136.056 94.8702 136.094 95.0543 136.216C95.2501 136.335 95.3709 136.506 95.4167 136.729L95.5105 137.188C96.1858 136.119 97.0996 135.466 98.2517 135.231C98.9806 135.081 99.7068 135.129 100.43 135.373C101.163 135.602 101.803 136.035 102.35 136.67C102.905 137.291 103.281 138.078 103.476 139.03C103.671 139.982 103.636 140.859 103.371 141.661C103.116 142.448 102.697 143.097 102.116 143.608C101.544 144.105 100.894 144.428 100.165 144.577C99.0126 144.813 97.916 144.572 96.8749 143.854L97.7953 148.351C97.8435 148.586 97.8068 148.795 97.6852 148.979C97.5637 149.164 97.3853 149.28 97.1502 149.328ZM99.6287 143.125C100.499 142.947 101.142 142.527 101.557 141.866C101.973 141.206 102.078 140.37 101.871 139.359C101.664 138.348 101.239 137.62 100.597 137.176C99.9552 136.731 99.1992 136.598 98.3292 136.776C97.7884 136.887 97.3023 137.115 96.8708 137.461C96.4487 137.792 96.0963 138.195 95.8137 138.669L96.5717 142.372C97.018 142.698 97.5015 142.935 98.0223 143.086C98.5524 143.223 99.0879 143.235 99.6287 143.125Z" fill="white"/>
<path d="M112.19 139.471C111.591 139.749 111.003 139.851 110.425 139.775C109.858 139.694 109.342 139.465 108.875 139.086C108.419 138.703 108.054 138.217 107.781 137.629L105.627 132.993C105.531 132.787 105.521 132.58 105.597 132.372C105.683 132.16 105.83 132.006 106.037 131.91C106.243 131.814 106.45 131.804 106.658 131.879C106.865 131.955 107.017 132.096 107.113 132.303L109.191 136.776C109.807 138.104 110.714 138.489 111.912 137.933C112.456 137.68 112.874 137.314 113.167 136.834C113.471 136.349 113.702 135.778 113.861 135.122L111.585 130.225C111.489 130.018 111.479 129.811 111.555 129.604C111.642 129.392 111.788 129.238 111.995 129.142C112.202 129.046 112.409 129.035 112.616 129.111C112.823 129.187 112.975 129.328 113.071 129.535L116.325 136.538C116.421 136.745 116.433 136.957 116.363 137.175C116.287 137.382 116.146 137.534 115.939 137.63C115.732 137.726 115.52 137.739 115.302 137.668C115.089 137.582 114.935 137.435 114.839 137.228L114.528 136.559C114.327 137.208 114.05 137.78 113.698 138.274C113.345 138.769 112.842 139.168 112.19 139.471Z" fill="white"/>
<path d="M121.41 135.288C121.222 135.417 121.02 135.461 120.803 135.421C120.586 135.381 120.413 135.267 120.284 135.079L113.667 125.451C113.538 125.263 113.494 125.061 113.534 124.844C113.567 124.617 113.678 124.439 113.866 124.31C114.064 124.174 114.271 124.126 114.488 124.167C114.705 124.207 114.881 124.326 115.017 124.524L121.634 134.151C121.763 134.339 121.802 134.545 121.752 134.769C121.712 134.986 121.598 135.159 121.41 135.288Z" fill="white"/>
<path d="M130.144 127.002C129.085 128.013 127.97 128.504 126.799 128.477C125.629 128.432 124.522 127.863 123.478 126.769C122.89 126.153 122.461 125.477 122.189 124.74C121.918 124.004 121.863 123.252 122.026 122.483C122.188 121.714 122.612 121.003 123.298 120.348C123.941 119.735 124.641 119.357 125.4 119.214C126.15 119.062 126.887 119.121 127.611 119.393C128.326 119.656 128.966 120.083 129.529 120.673C129.686 120.838 129.762 121.031 129.757 121.251C129.761 121.463 129.671 121.657 129.489 121.831L125.074 126.043C125.724 126.584 126.401 126.842 127.106 126.816C127.811 126.79 128.506 126.45 129.192 125.796C129.557 125.448 129.841 125.111 130.044 124.784C130.255 124.45 130.429 124.093 130.565 123.715C130.601 123.614 130.663 123.522 130.75 123.439C130.889 123.306 131.056 123.238 131.251 123.234C131.446 123.23 131.615 123.302 131.755 123.45C131.938 123.641 131.978 123.909 131.877 124.255C131.72 124.769 131.523 125.231 131.284 125.641C131.045 126.051 130.665 126.505 130.144 127.002ZM127.996 121.414C127.564 121.013 127.112 120.765 126.639 120.669C126.175 120.564 125.737 120.584 125.326 120.727C124.907 120.862 124.55 121.07 124.255 121.351C123.96 121.633 123.735 121.98 123.581 122.392C123.419 122.796 123.379 123.232 123.461 123.701C123.544 124.169 123.775 124.629 124.155 125.079L127.996 121.414Z" fill="white"/>
<path d="M137.289 118.668C137.162 118.858 136.991 118.974 136.775 119.018C136.559 119.061 136.356 119.02 136.166 118.894L129.736 114.617C129.546 114.491 129.429 114.32 129.386 114.103C129.332 113.88 129.369 113.674 129.495 113.484C129.621 113.294 129.798 113.181 130.024 113.144C130.247 113.091 130.453 113.127 130.643 113.253L131.258 113.662C131.09 113.003 131.028 112.371 131.071 111.765C131.113 111.159 131.334 110.557 131.733 109.957C132.098 109.408 132.544 109.019 133.069 108.793C133.602 108.556 134.162 108.482 134.751 108.571C135.347 108.65 135.915 108.869 136.455 109.228L140.711 112.059C140.901 112.185 141.014 112.362 141.051 112.588C141.095 112.804 141.053 113.007 140.927 113.197C140.801 113.387 140.63 113.504 140.413 113.547C140.197 113.591 139.994 113.549 139.804 113.423L135.697 110.692C134.478 109.881 133.503 110.025 132.772 111.124C132.44 111.624 132.271 112.16 132.265 112.732C132.266 113.295 132.369 113.897 132.576 114.539L137.073 117.53C137.263 117.656 137.376 117.832 137.413 118.058C137.456 118.275 137.415 118.478 137.289 118.668Z" fill="white"/>
<path d="M146.114 104.226C145.801 105.032 145.333 105.706 144.71 106.249C144.087 106.792 143.359 107.14 142.527 107.294C141.7 107.435 140.833 107.33 139.927 106.978C139.021 106.626 138.311 106.118 137.796 105.455C137.286 104.78 136.984 104.032 136.891 103.211C136.799 102.39 136.909 101.576 137.222 100.771C137.452 100.178 137.728 99.6995 138.05 99.3353C138.365 98.9556 138.711 98.6268 139.09 98.349C139.322 98.1818 139.561 98.146 139.807 98.2416C139.975 98.3068 140.106 98.4348 140.199 98.6255C140.285 98.8007 140.296 98.9722 140.231 99.14C140.183 99.263 140.101 99.373 139.986 99.47C139.653 99.7652 139.395 100.032 139.212 100.27C139.023 100.492 138.852 100.799 138.7 101.191C138.326 102.153 138.312 103.016 138.659 103.782C138.994 104.543 139.614 105.099 140.52 105.451C141.426 105.804 142.265 105.814 143.038 105.483C143.799 105.148 144.366 104.5 144.74 103.538C144.892 103.146 144.979 102.807 145.001 102.519C145.015 102.216 144.999 101.843 144.953 101.4C144.933 101.251 144.948 101.115 144.995 100.992C145.061 100.824 145.19 100.707 145.383 100.64C145.569 100.558 145.747 100.55 145.914 100.615C146.16 100.71 146.313 100.898 146.371 101.179C146.463 101.639 146.502 102.118 146.489 102.615C146.469 103.096 146.344 103.633 146.114 104.226Z" fill="white"/>
<path d="M150.598 92.4947C150.362 93.9396 149.769 95.004 148.818 95.6879C147.858 96.358 146.631 96.5713 145.139 96.3279C144.298 96.1907 143.548 95.9102 142.887 95.4864C142.227 95.0625 141.73 94.4951 141.396 93.784C141.062 93.073 140.971 92.2497 141.124 91.314C141.267 90.4376 141.598 89.7135 142.117 89.1415C142.624 88.5677 143.248 88.171 143.989 87.9514C144.718 87.7299 145.485 87.6848 146.291 87.8162C146.516 87.8529 146.693 87.9608 146.821 88.1399C146.952 88.3071 146.997 88.5151 146.957 88.7638L145.974 94.7862C146.819 94.8267 147.514 94.6241 148.061 94.1783C148.608 93.7325 148.958 93.0419 149.111 92.1062C149.192 91.6088 149.215 91.1688 149.18 90.7862C149.147 90.3917 149.071 90.0024 148.951 89.6181C148.919 89.5156 148.913 89.4051 148.932 89.2867C148.963 89.0972 149.055 88.942 149.209 88.8212C149.362 88.7003 149.54 88.6563 149.741 88.6891C150.002 88.7316 150.196 88.9213 150.323 89.2582C150.508 89.7626 150.629 90.2505 150.686 90.7218C150.743 91.1931 150.713 91.7841 150.598 92.4947ZM145.515 89.331C144.928 89.2719 144.418 89.3467 143.982 89.5553C143.549 89.7521 143.212 90.0314 142.97 90.3933C142.717 90.7532 142.558 91.1345 142.492 91.5372C142.426 91.9399 142.456 92.3521 142.582 92.7738C142.696 93.1936 142.927 93.5657 143.275 93.89C143.624 94.2143 144.085 94.4416 144.66 94.5718L145.515 89.331Z" fill="white"/>
<path d="M19.0388 71.454C18.9753 71.6729 18.8468 71.8356 18.6535 71.9419C18.4602 72.0483 18.2541 72.0697 18.0352 72.0061L7.54204 68.9611C7.32307 68.8976 7.16042 68.7692 7.05408 68.5759C6.93621 68.3792 6.90904 68.1714 6.97259 67.9525L7.9809 64.4778C8.36216 63.164 8.97876 62.1372 9.83071 61.3973C10.6745 60.6425 11.6242 60.1684 12.68 59.975C13.7357 59.7816 14.7707 59.832 15.7848 60.1263C16.799 60.4206 17.7002 60.932 18.4884 61.6605C19.2766 62.3891 19.8308 63.2996 20.151 64.3921C20.463 65.4698 20.4284 66.6655 20.0471 67.9793L19.0388 71.454ZM18.5226 67.7431C18.7968 66.798 18.8474 65.9131 18.6745 65.0882C18.49 64.26 18.1146 63.5513 17.5484 62.9621C16.9706 62.3696 16.2323 61.943 15.3333 61.6821C14.4344 61.4213 13.5881 61.3881 12.7945 61.5826C11.9893 61.7738 11.2929 62.1715 10.7052 62.7756C10.106 63.3764 9.66934 64.1493 9.3951 65.0944L8.67273 67.5837L17.8002 70.2324L18.5226 67.7431Z" fill="white"/>
<path d="M25.0668 53.0581C24.3482 54.3336 23.425 55.1289 22.2972 55.4439C21.1649 55.7426 19.94 55.5208 18.6227 54.7787C17.8803 54.3605 17.2721 53.8388 16.7979 53.2136C16.3238 52.5884 16.0523 51.8845 15.9835 51.102C15.9147 50.3195 16.1129 49.5153 16.5782 48.6893C17.0141 47.9157 17.574 47.3496 18.258 46.9912C18.9315 46.6268 19.6539 46.4691 20.4252 46.518C21.1861 46.561 21.922 46.7827 22.6329 47.1832C22.8316 47.2951 22.9606 47.4573 23.0199 47.6698C23.0852 47.8718 23.056 48.0826 22.9323 48.3022L19.9373 53.6186C20.7163 53.9473 21.4392 53.9964 22.1061 53.7661C22.773 53.5358 23.3391 53.0076 23.8044 52.1817C24.0518 51.7426 24.225 51.3374 24.3239 50.9662C24.4287 50.5845 24.4911 50.1926 24.5109 49.7906C24.5162 49.6834 24.5483 49.5776 24.6072 49.473C24.7015 49.3057 24.8414 49.1917 25.0271 49.1311C25.2128 49.0704 25.3945 49.0901 25.5723 49.1903C25.8023 49.3198 25.9191 49.5647 25.9228 49.9249C25.9231 50.4622 25.8689 50.9619 25.7601 51.424C25.6513 51.8861 25.4202 52.4308 25.0668 53.0581ZM21.383 48.3384C20.8531 48.0812 20.3478 47.9756 19.8673 48.0217C19.3927 48.0574 18.9798 48.2036 18.6287 48.4602C18.267 48.711 17.9861 49.0141 17.7858 49.3696C17.5856 49.7251 17.4719 50.1225 17.4448 50.5617C17.4073 50.9951 17.4962 51.424 17.7117 51.8483C17.9271 52.2727 18.2821 52.6449 18.7768 52.9648L21.383 48.3384Z" fill="white"/>
<path d="M30.8164 42.907C30.666 43.0783 30.4807 43.1711 30.2605 43.1853C30.0404 43.1996 29.8446 43.1315 29.6733 42.9811L23.8713 37.8855C23.6999 37.735 23.6072 37.5497 23.5929 37.3296C23.5696 37.1015 23.6332 36.9018 23.7836 36.7305C23.9341 36.5592 24.1239 36.4703 24.3531 36.464C24.5811 36.4407 24.7808 36.5043 24.9521 36.6547L25.5067 37.1417C25.4289 36.4665 25.4515 35.8316 25.5745 35.2369C25.6975 34.6422 25.9966 34.0744 26.4717 33.5334C26.9072 33.0375 27.4005 32.7121 27.9517 32.5573C28.5108 32.3936 29.0764 32.3952 29.6484 32.5622C30.2283 32.7201 30.7618 33.0129 31.2486 33.4405L35.0896 36.8138C35.261 36.9643 35.3498 37.1541 35.3561 37.3833C35.3704 37.6034 35.3023 37.7992 35.1519 37.9705C35.0014 38.1418 34.8161 38.2346 34.596 38.2489C34.3758 38.2631 34.1801 38.195 34.0088 38.0446L30.303 34.79C29.203 33.824 28.2175 33.8368 27.3464 34.8287C26.9505 35.2795 26.7114 35.7882 26.6291 36.3547C26.5547 36.9122 26.5772 37.523 26.6968 38.187L30.7542 41.7503C30.9255 41.9008 31.0144 42.0906 31.0207 42.3198C31.035 42.5399 30.9669 42.7357 30.8164 42.907Z" fill="white"/>
<path d="M42.6144 32.4796C41.2435 33.5705 40.0649 33.4963 39.0785 32.2569L35.6039 27.8907L34.6039 28.6865C34.5288 28.7463 34.4444 28.7752 34.3507 28.773C34.2589 28.7541 34.1831 28.707 34.1233 28.6319C34.0486 28.538 34.0274 28.4246 34.0596 28.2916L34.4843 24.894C34.5015 24.7423 34.5477 24.6365 34.6228 24.5767C34.698 24.5169 34.7814 24.4965 34.8732 24.5155C34.9744 24.527 35.0548 24.5703 35.1146 24.6454L36.0113 25.7722L37.6028 24.5056C37.7625 24.3786 37.935 24.3256 38.1205 24.3467C38.306 24.3678 38.4622 24.4582 38.5893 24.6178C38.7088 24.768 38.7618 24.9406 38.7482 25.1354C38.7271 25.3209 38.6367 25.4772 38.4771 25.6042L36.8856 26.8708L40.2705 31.1242C40.562 31.4904 40.8333 31.6579 41.0845 31.6267C41.3376 31.5786 41.5956 31.45 41.8585 31.2407C42.0463 31.0913 42.2117 30.9137 42.3547 30.7079C42.3847 30.6686 42.4148 30.6293 42.4449 30.5901C42.4844 30.5433 42.537 30.4938 42.6027 30.4415C42.7342 30.3369 42.8926 30.2951 43.0781 30.3162C43.2561 30.3279 43.4012 30.4042 43.5133 30.545C43.6851 30.761 43.7079 31.0112 43.5816 31.2957C43.3499 31.7562 43.0275 32.1508 42.6144 32.4796Z" fill="white"/>
<path d="M51.3049 26.5534C50.842 26.8073 50.3587 26.9493 49.855 26.9793C49.3619 27.0034 48.9014 26.9002 48.4737 26.6695C48.0403 26.4282 47.6937 26.0709 47.4339 25.5975C47.0068 24.8189 46.9714 24.0308 47.3276 23.2331C47.6943 22.4297 48.4721 21.7018 49.661 21.0496L51.5705 20.002L51.5012 19.8757C51.1203 19.1814 50.6725 18.7769 50.1579 18.6623C49.6539 18.5419 49.0389 18.6808 48.313 19.0791C47.9132 19.2984 47.5728 19.5262 47.2918 19.7625C47.0213 19.993 46.7314 20.2753 46.4219 20.6093C46.3493 20.6765 46.2867 20.7246 46.234 20.7534C46.0762 20.84 45.9077 20.8572 45.7285 20.8049C45.5493 20.7527 45.4135 20.6424 45.3212 20.4741C45.1653 20.19 45.1924 19.9151 45.4025 19.6493C46.0889 18.78 46.8951 18.0913 47.8209 17.5834C48.5468 17.1851 49.2378 16.9976 49.8939 17.0209C50.5605 17.0384 51.1394 17.2204 51.6306 17.5669C52.1265 17.897 52.5246 18.3356 52.8247 18.8827L55.2749 23.3487C55.3846 23.5486 55.4033 23.7574 55.331 23.9749C55.2693 24.1867 55.1385 24.3475 54.9386 24.4571C54.7387 24.5668 54.5329 24.5908 54.3211 24.5291C54.1093 24.4673 53.9485 24.3365 53.8389 24.1366L53.6137 23.7263C53.2739 24.953 52.5043 25.8954 51.3049 26.5534ZM51.1488 24.9965C51.6118 24.7425 51.9983 24.3868 52.3084 23.9292C52.6128 23.4611 52.8199 22.9779 52.9298 22.4796L52.2025 21.154L50.4824 22.0977C48.8938 22.9693 48.3274 23.8206 48.7834 24.6518C48.9912 25.0305 49.2848 25.2663 49.6643 25.3593C50.0543 25.4464 50.5492 25.3255 51.1488 24.9965Z" fill="white"/>
<path d="M62.2176 22.7312C62.0037 22.81 61.7966 22.8032 61.5963 22.7107C61.3959 22.6183 61.2564 22.4651 61.1776 22.2511L57.1393 11.2893C57.0605 11.0754 57.0674 10.8682 57.1598 10.6679C57.2481 10.4563 57.3992 10.3112 57.6132 10.2323C57.8384 10.1494 58.0512 10.1541 58.2515 10.2466C58.4518 10.339 58.5934 10.4979 58.6764 10.7231L62.7146 21.6849C62.7934 21.8989 62.781 22.1081 62.6772 22.3125C62.5848 22.5128 62.4316 22.6524 62.2176 22.7312Z" fill="white"/>
<path d="M83.8316 18.6229C82.574 18.7008 81.4551 18.4936 80.4747 18.0013C79.4944 17.509 78.7167 16.7937 78.1416 15.8555C77.5664 14.9173 77.2279 13.8201 77.1261 12.564C77.0721 11.3049 77.2725 10.1744 77.7274 9.17231C78.1823 8.17025 78.8658 7.36444 79.7779 6.75487C80.6899 6.1453 81.7747 5.80155 83.0323 5.72363C84.2899 5.6457 85.4029 5.85327 86.3712 6.34633C87.3515 6.83864 88.1296 7.5599 88.7055 8.51011C89.2926 9.44759 89.6367 10.5384 89.7379 11.7825C89.7911 13.0296 89.5846 14.1606 89.1185 15.1753C88.6636 16.1774 87.9801 16.9832 87.0681 17.5928C86.168 18.2016 85.0892 18.545 83.8316 18.6229ZM83.737 17.0958C84.6951 17.0364 85.5142 16.7693 86.1941 16.2943C86.874 15.8194 87.3766 15.1991 87.7019 14.4335C88.0272 13.6679 88.1609 12.818 88.103 11.8838C88.0451 10.9496 87.8075 10.1227 87.3902 9.40316C86.9729 8.68359 86.3976 8.13011 85.6642 7.74272C84.9309 7.35534 84.0851 7.19133 83.1269 7.2507C82.1568 7.31081 81.3318 7.57835 80.6518 8.05331C79.9839 8.52752 79.4873 9.14742 79.162 9.913C78.8367 10.6786 78.703 11.5285 78.7609 12.4627C78.8188 13.3969 79.0564 14.2238 79.4737 14.9434C79.891 15.6629 80.4603 16.2168 81.1817 16.6049C81.9151 16.9923 82.7668 17.1559 83.737 17.0958Z" fill="white"/>
<path d="M93.8445 22.4204C93.6206 22.3776 93.4478 22.2591 93.3261 22.0648C93.2022 21.8823 93.1616 21.679 93.2044 21.4551L95.4315 9.80404C95.4743 9.58009 95.587 9.40615 95.7695 9.28221C95.952 9.15828 96.1552 9.11771 96.3792 9.16052C96.6031 9.20333 96.7771 9.31599 96.901 9.4985C97.0367 9.68327 97.0832 9.88763 97.0404 10.1116L96.9525 10.5713C97.9842 9.83994 99.0775 9.58468 100.233 9.80548C100.963 9.94516 101.617 10.2655 102.193 10.7666C102.783 11.2582 103.21 11.9018 103.473 12.6973C103.751 13.4834 103.798 14.3538 103.616 15.3085C103.433 16.2632 103.067 17.0606 102.517 17.7008C101.981 18.3313 101.347 18.7721 100.615 19.0231C99.8967 19.2646 99.1722 19.3155 98.4415 19.1758C97.2864 18.955 96.3642 18.3145 95.675 17.2543L94.8133 21.7626C94.7682 21.9984 94.6544 22.1782 94.4719 22.3021C94.2894 22.4261 94.0803 22.4655 93.8445 22.4204ZM98.4989 17.6291C99.3711 17.7958 100.125 17.6529 100.762 17.2003C101.398 16.7477 101.813 16.0146 102.007 15.001C102.2 13.9873 102.085 13.1528 101.661 12.4975C101.236 11.8421 100.588 11.4311 99.7155 11.2643C99.1733 11.1607 98.637 11.1864 98.1064 11.3416C97.5899 11.4872 97.1106 11.7255 96.6686 12.0564L95.9589 15.7691C96.2477 16.2397 96.6042 16.6438 97.0283 16.9815C97.4665 17.3096 97.9567 17.5255 98.4989 17.6291Z" fill="white"/>
<path d="M107.831 22.4596C107.225 22.1984 106.758 21.8272 106.429 21.346C106.112 20.8695 105.939 20.331 105.91 19.7306C105.892 19.135 106.012 18.5396 106.268 17.9445L108.291 13.2498C108.381 13.0405 108.529 12.895 108.734 12.8135C108.95 12.7367 109.163 12.7434 109.372 12.8336C109.582 12.9239 109.727 13.0715 109.809 13.2765C109.89 13.4815 109.886 13.6887 109.795 13.8981L107.844 18.4274C107.264 19.7719 107.581 20.7053 108.793 21.2277C109.344 21.4652 109.896 21.5332 110.45 21.4319C111.014 21.3353 111.593 21.1277 112.188 20.809L114.325 15.8498C114.415 15.6404 114.563 15.495 114.768 15.4134C114.984 15.3366 115.196 15.3434 115.406 15.4336C115.615 15.5238 115.761 15.6714 115.842 15.8764C115.924 16.0814 115.919 16.2886 115.829 16.498L112.773 23.5896C112.683 23.799 112.533 23.95 112.323 24.0425C112.118 24.1241 111.911 24.1197 111.702 24.0295C111.492 23.9393 111.341 23.7893 111.249 23.5795C111.172 23.3635 111.179 23.1508 111.269 22.9414L111.561 22.2637C110.943 22.5461 110.332 22.7206 109.728 22.7871C109.125 22.8537 108.492 22.7445 107.831 22.4596Z" fill="white"/>
<path d="M115.557 29.1002C115.364 28.9785 115.243 28.81 115.194 28.5948C115.146 28.3796 115.182 28.1756 115.304 27.9828L121.542 18.1055C121.663 17.9127 121.832 17.792 122.047 17.7434C122.269 17.6846 122.476 17.7161 122.669 17.8379C122.872 17.966 122.997 18.1377 123.046 18.3529C123.095 18.5681 123.055 18.7771 122.927 18.9801L116.689 28.8574C116.567 29.0502 116.394 29.1677 116.169 29.2099C115.953 29.2585 115.749 29.2219 115.557 29.1002Z" fill="white"/>
<path d="M122.79 33.9549C121.682 32.9975 121.086 31.9349 121.001 30.767C120.933 29.5979 121.393 28.4413 122.382 27.2975C122.939 26.6529 123.571 26.1603 124.278 25.8196C124.985 25.4789 125.729 25.3525 126.509 25.4403C127.29 25.5282 128.039 25.8821 128.756 26.502C129.428 27.0827 129.872 27.7438 130.087 28.4853C130.311 29.2177 130.322 29.9571 130.121 30.7034C129.928 31.4406 129.565 32.1178 129.031 32.7352C128.882 32.9077 128.697 33.0019 128.477 33.0179C128.266 33.0418 128.065 32.9713 127.875 32.8065L123.258 28.8162C122.782 29.5144 122.59 30.2132 122.683 30.9126C122.777 31.6119 123.182 32.2716 123.899 32.8915C124.281 33.2211 124.643 33.4712 124.988 33.6419C125.341 33.8203 125.713 33.9592 126.103 34.0584C126.207 34.0849 126.304 34.1374 126.395 34.2158C126.54 34.3414 126.624 34.5012 126.647 34.6952C126.669 34.8893 126.614 35.0634 126.481 35.2178C126.308 35.4175 126.045 35.4834 125.691 35.4156C125.164 35.3093 124.685 35.1569 124.254 34.9586C123.823 34.7603 123.335 34.4257 122.79 33.9549ZM128.147 31.2809C128.504 30.8125 128.708 30.3383 128.758 29.8582C128.817 29.3859 128.756 28.9523 128.574 28.5571C128.4 28.1529 128.158 27.8174 127.85 27.5506C127.541 27.2838 127.174 27.0935 126.749 26.9798C126.332 26.857 125.894 26.8591 125.435 26.9861C124.976 27.113 124.541 27.3871 124.129 27.8084L128.147 31.2809Z" fill="white"/>
<path d="M128.519 41.7569C128.381 41.5755 128.327 41.3754 128.357 41.1568C128.386 40.9382 128.492 40.7599 128.673 40.6218L134.819 35.9463C135 35.8082 135.2 35.754 135.419 35.7837C135.647 35.8062 135.83 35.9081 135.968 36.0896C136.106 36.271 136.156 36.4747 136.116 36.7006C136.094 36.9287 135.992 37.1118 135.811 37.2499L135.223 37.6967C135.901 37.7545 136.518 37.9026 137.077 38.1412C137.635 38.3798 138.132 38.7856 138.568 39.3586C138.968 39.8838 139.189 40.4319 139.231 41.0029C139.281 41.5833 139.167 42.1373 138.89 42.6648C138.62 43.2019 138.227 43.6666 137.712 44.059L133.643 47.1542C133.462 47.2923 133.258 47.3417 133.032 47.3024C132.814 47.2727 132.635 47.1672 132.497 46.9857C132.359 46.8042 132.305 46.6042 132.335 46.3856C132.364 46.167 132.47 45.9887 132.651 45.8506L136.576 42.8644C137.742 41.9779 137.925 41.0094 137.125 39.9589C136.762 39.4814 136.311 39.1461 135.772 38.953C135.24 38.7694 134.637 38.6704 133.963 38.6558L129.665 41.9255C129.484 42.0635 129.28 42.1129 129.054 42.0737C128.835 42.044 128.657 41.9384 128.519 41.7569Z" fill="white"/>
<path d="M136.774 58.1966C136.399 57.4179 136.227 56.6155 136.256 55.7894C136.285 54.9633 136.527 54.1942 136.984 53.4821C137.446 52.7808 138.115 52.2196 138.991 51.7986C139.867 51.3775 140.723 51.2056 141.559 51.2831C142.4 51.3713 143.152 51.6621 143.816 52.1555C144.479 52.6489 144.998 53.285 145.372 54.0637C145.647 54.6369 145.808 55.1654 145.854 55.6492C145.916 56.1385 145.92 56.6163 145.864 57.0824C145.828 57.3662 145.69 57.5654 145.452 57.6797C145.29 57.7577 145.107 57.7656 144.904 57.7034C144.718 57.6468 144.585 57.5374 144.507 57.3752C144.45 57.2562 144.425 57.1216 144.433 56.9715C144.445 56.5262 144.427 56.1556 144.378 55.8596C144.345 55.5693 144.237 55.2348 144.055 54.8563C143.608 53.9262 142.987 53.3261 142.191 53.0561C141.407 52.7808 140.576 52.8538 139.7 53.2749C138.824 53.696 138.243 54.3014 137.957 55.0913C137.682 55.876 137.768 56.7334 138.215 57.6636C138.397 58.0421 138.585 58.3376 138.781 58.5499C138.992 58.7679 139.275 59.0112 139.631 59.2797C139.753 59.3675 139.842 59.4708 139.9 59.5898C139.978 59.752 139.975 59.9264 139.892 60.113C139.824 60.3052 139.709 60.4402 139.547 60.5182C139.309 60.6326 139.068 60.6154 138.823 60.4667C138.425 60.2189 138.048 59.9206 137.694 59.5715C137.356 59.2281 137.049 58.7698 136.774 58.1966Z" fill="white"/>
<path d="M141.211 71.019C140.845 69.6015 140.96 68.3884 141.554 67.3797C142.164 66.3796 143.2 65.6907 144.664 65.3128C145.489 65.0998 146.289 65.0544 147.065 65.1766C147.84 65.2987 148.523 65.618 149.115 66.1345C149.707 66.651 150.121 67.3681 150.358 68.2861C150.58 69.1459 150.569 69.942 150.324 70.6744C150.091 71.4038 149.679 72.0181 149.09 72.5174C148.511 73.0137 147.827 73.3638 147.037 73.5678C146.816 73.6248 146.611 73.5972 146.421 73.4852C146.234 73.3847 146.109 73.2125 146.046 72.9685L144.521 67.0602C143.731 67.3631 143.176 67.8286 142.855 68.4568C142.534 69.0851 142.491 69.8581 142.728 70.776C142.854 71.264 143.01 71.6761 143.196 72.0123C143.385 72.3602 143.612 72.6859 143.876 72.9894C143.947 73.0704 143.997 73.169 144.027 73.2852C144.075 73.4711 144.053 73.6502 143.961 73.8227C143.869 73.9951 143.724 74.1068 143.527 74.1578C143.271 74.2238 143.017 74.1282 142.765 73.8711C142.393 73.4839 142.085 73.0861 141.844 72.6775C141.602 72.269 141.391 71.7161 141.211 71.019ZM147.137 71.8687C147.698 71.6869 148.135 71.4129 148.45 71.0467C148.767 70.6921 148.963 70.3006 149.039 69.8722C149.126 69.4407 149.118 69.0275 149.016 68.6325C148.914 68.2374 148.721 67.8722 148.436 67.5367C148.163 67.1983 147.801 66.9507 147.352 66.7941C146.903 66.6374 146.389 66.6152 145.81 66.7273L147.137 71.8687Z" fill="white"/>
<path d="M13.3329 80.022C12.5949 80.022 12.0009 79.428 12.0009 78.708C12.0009 77.952 12.5949 77.376 13.3329 77.376C14.0889 77.376 14.6469 77.952 14.6469 78.708C14.6469 79.428 14.0889 80.022 13.3329 80.022Z" fill="white"/>
<path d="M148.333 82.022C147.595 82.022 147.001 81.428 147.001 80.708C147.001 79.952 147.595 79.376 148.333 79.376C149.089 79.376 149.647 79.952 149.647 80.708C149.647 81.428 149.089 82.022 148.333 82.022Z" fill="white"/>
</svg>
