<svg width="60" height="60" viewBox="0 0 60 60" fill="none" xmlns="http://www.w3.org/2000/svg">
<path fill-rule="evenodd" clip-rule="evenodd" d="M30 60C46.5685 60 60 46.5685 60 30C60 13.4315 46.5685 0 30 0C13.4315 0 0 13.4315 0 30C0 46.5685 13.4315 60 30 60ZM33.0783 21.8249C32.3665 21.3251 31.5604 20.808 30.7258 20.3005C27.5086 18.3441 25.9 17.3659 24.4572 18.4489C23.0145 19.532 22.8834 21.7992 22.6211 26.3337C22.547 27.616 22.5 28.8732 22.5 30.0001C22.5 31.1271 22.547 32.3842 22.6211 33.6666C22.8834 38.2011 23.0145 40.4683 24.4572 41.5513C25.9 42.6344 27.5086 41.6562 30.7258 39.6998C31.5604 39.1922 32.3665 38.6752 33.0783 38.1754C33.8897 37.6056 34.7726 36.9219 35.6628 36.1957C38.8876 33.5651 40.5 32.2498 40.5 30.0001C40.5 27.7505 38.8876 26.4352 35.6628 23.8045C34.7726 23.0784 33.8897 22.3946 33.0783 21.8249Z" fill="#D0D0D0"/>
</svg>
