<svg width="31" height="24" viewBox="0 0 31 24" fill="none" xmlns="http://www.w3.org/2000/svg">
<path d="M29.3453 4.57348L14.6013 0.622831C14.209 0.524993 13.794 0.585143 13.4456 0.790328C13.0972 0.995512 12.8434 1.32931 12.7388 1.71984C12.6341 2.11036 12.687 2.52636 12.8861 2.87823C13.0852 3.23011 13.4146 3.48971 13.8032 3.60112L24.9518 6.58838L1.46864 20.1464C1.11449 20.3509 0.856066 20.6876 0.750224 21.0827C0.644383 21.4777 0.699791 21.8985 0.904262 22.2527C1.10873 22.6068 1.44551 22.8653 1.84052 22.9711C2.23553 23.0769 2.6564 23.0215 3.01055 22.8171L26.4937 9.25904L23.5065 20.4076C23.4501 20.6044 23.4334 20.8105 23.4575 21.0138C23.4815 21.2172 23.5459 21.4137 23.6467 21.5919C23.7475 21.77 23.8828 21.9264 24.0447 22.0517C24.2066 22.1771 24.3918 22.2689 24.5896 22.3219C24.7874 22.3749 24.9937 22.388 25.1966 22.3604C25.3995 22.3328 25.5948 22.265 25.7712 22.1611C25.9476 22.0572 26.1016 21.9192 26.2241 21.7552C26.3466 21.5911 26.4352 21.4043 26.4848 21.2057L30.4354 6.46164C30.5412 6.06669 30.4857 5.64592 30.2813 5.29183C30.0769 4.93775 29.7402 4.67936 29.3453 4.57348Z" fill="black"/>
</svg>
