<svg width="172" height="64" viewBox="0 0 172 64" fill="none" xmlns="http://www.w3.org/2000/svg">
<g clip-path="url(#clip0_1_1530)">
<path d="M73.6068 35.4862C73.6068 43.6321 67.2344 49.6346 59.4137 49.6346C51.5931 49.6346 45.2207 43.6321 45.2207 35.4862C45.2207 27.283 51.5931 21.3379 59.4137 21.3379C67.2344 21.3379 73.6068 27.283 73.6068 35.4862ZM67.3936 35.4862C67.3936 30.3958 63.7003 26.9131 59.4137 26.9131C55.1272 26.9131 51.4339 30.3961 51.4339 35.4862C51.4339 40.5256 55.1272 44.0594 59.4137 44.0594C63.7003 44.0597 67.3936 40.5193 67.3936 35.4862Z" fill="black"/>
<path d="M104.224 35.4862C104.224 43.6321 97.8515 49.6346 90.0309 49.6346C82.2103 49.6346 75.8379 43.6321 75.8379 35.4862C75.8379 27.2894 82.2103 21.3379 90.0309 21.3379C97.8512 21.3379 104.224 27.283 104.224 35.4862ZM98.0108 35.4862C98.0108 30.3958 94.3175 26.9131 90.0309 26.9131C85.7444 26.9131 82.0511 30.3961 82.0511 35.4862C82.0511 40.5256 85.7444 44.0594 90.0309 44.0594C94.3175 44.0597 98.0108 40.5193 98.0108 35.4862Z" fill="black"/>
<path d="M133.568 22.1929V47.5934C133.568 58.0421 127.406 62.3095 120.122 62.3095C113.265 62.3095 109.137 57.7229 107.581 53.9722L112.99 51.7204C113.953 54.0233 116.313 56.7407 120.115 56.7407C124.778 56.7407 127.668 53.8637 127.668 48.448V46.4133H127.451C126.06 48.1292 123.381 49.6282 120 49.6282C112.926 49.6282 106.445 43.4661 106.445 35.5373C106.445 27.5511 112.926 21.3379 120 21.3379C123.375 21.3379 126.054 22.8368 127.451 24.5017H127.668V22.1989H133.568V22.1929ZM128.108 35.5373C128.108 30.5553 124.784 26.9131 120.555 26.9131C116.269 26.9131 112.677 30.5553 112.677 35.5373C112.677 40.4682 116.268 44.0594 120.555 44.0594C124.784 44.0597 128.108 40.4682 128.108 35.5373Z" fill="black"/>
<path d="M143.294 7.3042V48.767H137.234V7.3042H143.294Z" fill="black"/>
<path d="M166.91 40.143L171.732 43.358C170.176 45.6608 166.425 49.6282 159.944 49.6282C151.907 49.6282 145.904 43.4151 145.904 35.4799C145.904 27.066 151.958 21.3315 159.249 21.3315C166.591 21.3315 170.182 27.1745 171.356 30.332L172 31.9394L153.087 39.7728C154.535 42.6115 156.787 44.0594 159.944 44.0594C163.108 44.0597 165.302 42.503 166.91 40.143ZM152.066 35.0526L164.709 29.8029C164.014 28.0358 161.922 26.805 159.46 26.805C156.302 26.8046 151.907 29.5922 152.066 35.0526Z" fill="black"/>
<path d="M22.2814 31.8055V25.803H42.5089C42.7067 26.8491 42.8085 28.0867 42.8085 29.4261C42.8085 33.9297 41.5773 39.4982 37.6099 43.4659C33.7506 47.4848 28.8197 49.628 22.2878 49.628C10.1806 49.628 0 39.7663 0 27.6594C0 15.5526 10.1806 5.69043 22.2878 5.69043C28.9857 5.69043 33.757 8.31847 37.3418 11.744L33.1063 15.9795C30.5357 13.5682 27.0527 11.693 22.2814 11.693C13.4402 11.693 6.52559 18.8182 6.52559 27.6594C6.52559 36.5006 13.4402 43.6258 22.2814 43.6258C28.0158 43.6258 31.2818 41.323 33.3744 39.2308C35.0712 37.534 36.1875 35.1102 36.6276 31.7995L22.2814 31.8055Z" fill="black"/>
</g>
<defs>
<clipPath id="clip0_1_1530">
<rect width="172" height="64" fill="white"/>
</clipPath>
</defs>
</svg>
