<svg width="24" height="24" viewBox="0 0 24 24" fill="none" xmlns="http://www.w3.org/2000/svg">
<path d="M20.7636 7.21115C20.7758 8.44077 20.5439 9.79335 20.1899 11.1152C19.8065 12.5042 19.5725 13.9516 19.4942 15.4189C19.4191 17.1346 18.9053 18.7737 18.0295 20.0914C17.7536 20.5337 17.398 20.8868 16.992 21.1212C16.2841 21.5209 15.6738 21.1981 15.4297 20.2759C15.271 19.6918 15.2832 19.0924 15.3442 18.4775C15.4052 17.8627 15.4541 17.4477 15.393 16.9405C15.3686 16.7253 15.3564 16.4948 15.1611 16.4179C14.9658 16.3411 14.8438 16.5255 14.7339 16.6792C14.2823 17.3248 14.1114 18.1087 14.0626 18.9387C14.0138 19.7686 14.1114 20.5525 14.2335 21.3518C14.3142 21.7533 14.3471 22.1677 14.3311 22.5814C14.2579 23.4882 13.7331 24.0569 13.0129 23.9955C12.2928 23.934 11.4628 23.396 10.8891 22.6275C9.5953 20.8907 8.92398 18.8464 8.97281 16.4487C8.99304 15.8216 8.96442 15.1935 8.88737 14.5735C8.81793 14.0405 8.65076 13.5353 8.39914 13.098C7.55694 11.6532 6.75136 10.193 6.17769 8.54836C5.7749 7.36485 5.45755 6.13523 5.59181 4.82876C5.92137 1.77008 7.61797 -0.289534 10.291 0.0332414C11.5492 0.210742 12.7464 0.81059 13.7575 1.77008C13.8143 1.84161 13.8888 1.88666 13.9686 1.89783C14.0485 1.90901 14.129 1.88563 14.1969 1.83156C14.958 1.34623 15.7874 1.05378 16.638 0.970825C18.5055 0.817123 19.8726 2.016 20.4462 4.27543C20.6781 5.1669 20.7636 6.08912 20.7636 7.21115Z" fill="black"/>
<path d="M9.60728 22.6584C8.57842 22.5072 7.57634 22.1437 6.64128 21.5825C5.86011 21.0906 5.16438 20.4758 4.63953 19.5843C3.63866 17.8936 3.57763 16.0645 4.21233 14.1586C4.60292 12.9751 5.22541 11.9914 5.93335 11.0692C6.0554 10.9155 6.11643 10.9616 6.18967 11.1307C6.62907 12.0529 7.12951 12.929 7.62995 13.8051C7.91068 14.2816 7.98391 14.8503 8.00833 15.419C8.03274 15.9877 8.02053 16.5718 8.03274 17.1558C8.08156 19.0617 8.5942 20.7678 9.47302 22.3202C9.54357 22.4135 9.59033 22.5313 9.60728 22.6584Z" fill="black"/>
<path d="M19.1992 20.1988C19.6118 19.3367 19.9358 18.4123 20.1635 17.4475C20.3549 16.6279 20.4616 15.7807 20.4808 14.9268C20.493 13.6818 20.8226 12.5136 21.1155 11.3455C21.4085 10.1774 21.6282 9.10145 21.6892 7.91794C21.7014 7.64127 21.7868 7.68738 21.9211 7.81034C23.9106 9.42422 24.5331 12.1909 23.5201 14.896C22.9342 16.4792 22.0065 17.7395 20.9202 18.8154C20.3853 19.3489 19.8087 19.8124 19.1992 20.1988Z" fill="black"/>
<path d="M4.26087 9.17905C3.60176 9.17905 3.17456 9.71701 3.16235 10.547V10.8544C3.15015 10.9927 3.08912 11.085 2.97927 11.0696C2.93718 11.0696 2.89682 11.0485 2.86707 11.0111C2.83731 10.9736 2.82059 10.9228 2.82059 10.8698C2.81448 10.7316 2.81448 10.593 2.82059 10.4548C2.819 10.2852 2.7909 10.1177 2.73789 9.96185C2.68489 9.80598 2.60802 9.66478 2.51168 9.54631C2.41534 9.42785 2.30141 9.33444 2.1764 9.27142C2.05139 9.20841 1.91775 9.17702 1.7831 9.17905H1.47796C1.45445 9.17913 1.43119 9.17309 1.40962 9.16133C1.38805 9.14957 1.36864 9.13233 1.3526 9.11069C1.33656 9.08905 1.32424 9.06348 1.31641 9.03557C1.30857 9.00766 1.3054 8.97802 1.30708 8.9485C1.30697 8.89399 1.32329 8.84147 1.35274 8.80153C1.38219 8.76159 1.42258 8.73721 1.46575 8.73331H1.72207C2.39339 8.73331 2.80839 8.21072 2.82059 7.34999V7.15018C2.82059 6.99648 2.8328 6.84277 3.00368 6.84277C3.17456 6.84277 3.16235 6.99648 3.16235 7.13481V7.51906C3.1749 7.84664 3.28715 8.15555 3.4758 8.38165C3.66445 8.60776 3.91499 8.73369 4.17543 8.73331H4.44396C4.56602 8.73331 4.67587 8.79479 4.66366 8.96387C4.65146 9.13294 4.56602 9.17905 4.45616 9.17905H4.26087Z" fill="black"/>
<path d="M1.17247 6.39661C1.14748 6.39327 1.12415 6.37925 1.10638 6.35687C1.08861 6.33449 1.07748 6.30512 1.07482 6.27365C1.06475 6.21304 1.06065 6.15109 1.06262 6.08921C1.05041 5.39755 0.794091 5.07477 0.257037 5.0594C0.159391 5.0594 0.0129215 5.10551 0.000715704 4.92107C-0.0114901 4.73663 0.134979 4.752 0.244831 4.73663C0.806296 4.70589 1.03821 4.39848 1.06262 3.66071C1.07482 3.55312 1.05041 3.39941 1.18468 3.39941C1.31894 3.39941 1.31894 3.55312 1.31894 3.67608C1.34335 4.42922 1.56305 4.69051 2.17334 4.73663C2.25878 4.752 2.38084 4.73663 2.38084 4.9057C2.38084 5.07477 2.25878 5.0594 2.17334 5.0594C1.53864 5.10551 1.37997 5.3207 1.31894 6.15069C1.30673 6.27365 1.29453 6.38124 1.17247 6.39661Z" fill="black"/>
</svg>
