<svg width="60" height="31" viewBox="0 0 60 31" fill="none" xmlns="http://www.w3.org/2000/svg">
<path d="M0.344727 0.0772094H11.843C13.8647 0.074663 15.867 0.471699 17.7356 1.24561C19.6041 2.01953 21.3021 3.15513 22.7326 4.5875C24.163 6.01986 25.2978 7.72089 26.0721 9.5933C26.8463 11.4657 27.2449 13.4728 27.2449 15.4997C27.2449 19.59 25.6242 23.5128 22.7394 26.4051C19.8546 29.2973 15.942 30.9222 11.8623 30.9222H0.344727V0.0772094Z" fill="#222222"/>
<path d="M44.5401 31C53.0784 31 60 24.0604 60 15.5C60 6.93959 53.0784 0 44.5401 0C36.0019 0 29.0803 6.93959 29.0803 15.5C29.0803 24.0604 36.0019 31 44.5401 31Z" fill="#222222"/>
</svg>
