<svg width="446" height="251" viewBox="0 0 446 251" fill="none" xmlns="http://www.w3.org/2000/svg">
<circle cx="320.014" cy="125.562" r="124.5" fill="#100E10" stroke="#605E60"/>
<circle cx="255.014" cy="125.562" r="124.5" fill="#100E10" stroke="#605E60"/>
<circle cx="190.014" cy="125.562" r="124.5" fill="#100E10" stroke="#605E60"/>
<circle cx="125.014" cy="125.562" r="124.5" fill="#100E10" stroke="#605E60"/>
<path d="M78.9797 99.8505C81.3017 99.8505 83.1557 101.632 83.1557 104.26C83.1557 106.582 81.3197 108.743 78.3857 108.743C75.4157 108.743 73.6337 106.69 73.6337 104.548H76.3517C76.4237 105.34 77.2157 106.024 78.3497 106.024C79.4837 106.024 80.4197 105.304 80.4197 104.116C80.4197 102.964 79.5557 102.244 78.3497 102.244C77.5577 102.244 76.7297 102.64 76.4057 103.36H73.7417L74.8937 95.7825H82.2557V98.3385H77.1797L76.8917 100.21C77.5037 99.9765 78.2057 99.8505 78.9797 99.8505ZM91.2998 95.6025C93.8558 95.6025 96.3758 97.1685 96.3758 100.354V103.99C96.3758 107.158 93.8558 108.743 91.2998 108.743C88.7438 108.743 86.2238 107.158 86.2238 103.99V100.354C86.2238 97.1685 88.7438 95.6025 91.2998 95.6025ZM91.2998 106.168C92.5418 106.168 93.6398 105.394 93.6398 103.99V100.354C93.6398 98.9505 92.5418 98.1585 91.2998 98.1585C90.0398 98.1585 88.9418 98.9505 88.9418 100.354V103.99C88.9418 105.394 90.0398 106.168 91.2998 106.168ZM103.49 95.6025C106.046 95.6025 108.566 97.1685 108.566 100.354V103.99C108.566 107.158 106.046 108.743 103.49 108.743C100.934 108.743 98.4139 107.158 98.4139 103.99V100.354C98.4139 97.1685 100.934 95.6025 103.49 95.6025ZM103.49 106.168C104.732 106.168 105.83 105.394 105.83 103.99V100.354C105.83 98.9505 104.732 98.1585 103.49 98.1585C102.23 98.1585 101.132 98.9505 101.132 100.354V103.99C101.132 105.394 102.23 106.168 103.49 106.168ZM119.584 102.19V104.764H116.974V107.375H114.4V104.764H111.826V102.19H114.4V99.6165H116.974V102.19H119.584ZM83.7677 123.562C83.4617 123.184 82.2917 122.158 80.3837 122.158C78.2057 122.158 76.3517 123.742 76.3517 126.172C76.3517 128.602 78.2057 130.168 80.3837 130.168C82.2917 130.168 83.4617 129.16 83.7677 128.782V131.5C83.3357 131.878 82.0937 132.743 80.0417 132.743C76.4777 132.743 73.6337 129.917 73.6337 126.172C73.6337 122.428 76.4777 119.602 80.0417 119.602C82.0937 119.602 83.3357 120.466 83.7677 120.844V123.562ZM91.8133 132.743C88.1592 132.743 85.2612 129.808 85.2612 126.172C85.2612 122.518 88.1592 119.602 91.8133 119.602C95.4492 119.602 98.3473 122.518 98.3473 126.172C98.3473 129.808 95.4492 132.743 91.8133 132.743ZM91.8133 130.168C94.0633 130.168 95.6292 128.35 95.6292 126.172C95.6292 123.976 94.0633 122.158 91.8133 122.158C89.5452 122.158 87.9792 123.976 87.9792 126.172C87.9792 128.35 89.5452 130.168 91.8133 130.168ZM111.687 119.782H114.405V132.562H111.687V124.642L108.069 130.366H107.043L103.425 124.642V132.562H100.707V119.782H103.425L107.547 126.208L111.687 119.782ZM121.421 119.782C123.905 119.782 126.173 121.438 126.173 124.264C126.173 127.072 123.905 128.728 121.421 128.728H119.225V132.562H116.489V119.782H121.421ZM121.421 126.172C122.591 126.172 123.455 125.488 123.455 124.264C123.455 123.04 122.591 122.338 121.421 122.338H119.225V126.172H121.421ZM130.807 129.988H136.027V132.562H128.089V119.782H130.807V129.988ZM144.998 122.338H140.318V124.822H144.026V127.396H140.318V129.988H144.998V132.562H137.582V119.782H144.998V122.338ZM155.247 119.782V122.338H152.295V132.562H149.577V122.338H146.643V119.782H155.247ZM164.175 122.338H159.495V124.822H163.203V127.396H159.495V129.988H164.175V132.562H156.759V119.782H164.175V122.338ZM170.551 119.782C174.187 119.782 176.761 122.59 176.761 126.172C176.761 129.754 174.187 132.562 170.551 132.562H165.943V119.782H170.551ZM170.551 129.988C172.441 129.988 174.043 128.764 174.043 126.172C174.043 123.58 172.441 122.338 170.551 122.338H168.679V129.988H170.551ZM81.4457 143.782H84.1637V156.562H81.4457V151.558H76.0277V156.562H73.2917V143.782H76.0277V148.984H81.4457V143.782ZM95.0423 156.562L94.1063 154.006H89.2823L88.3643 156.562H85.5383L90.1463 143.782H93.2423L97.8503 156.562H95.0423ZM90.2003 151.432H93.1883L91.6943 147.292L90.2003 151.432ZM104.01 143.782C106.494 143.782 108.762 145.438 108.762 148.264C108.762 151.072 106.494 152.728 104.01 152.728H101.814V156.562H99.0781V143.782H104.01ZM104.01 150.172C105.18 150.172 106.044 149.488 106.044 148.264C106.044 147.04 105.18 146.338 104.01 146.338H101.814V150.172H104.01ZM115.269 143.782C117.753 143.782 120.021 145.438 120.021 148.264C120.021 151.072 117.753 152.728 115.269 152.728H113.073V156.562H110.337V143.782H115.269ZM115.269 150.172C116.439 150.172 117.303 149.488 117.303 148.264C117.303 147.04 116.439 146.338 115.269 146.338H113.073V150.172H115.269ZM129.193 143.782H132.271L127.483 151.576V156.562H124.765V151.576L119.995 143.782H123.073L126.133 148.768L129.193 143.782ZM139.656 152.458H142.374C142.392 153.628 143.184 154.168 144.138 154.168C145.092 154.168 145.56 153.7 145.56 153.16C145.56 152.386 144.768 152.026 143.382 151.216C140.556 149.542 139.926 148.534 139.926 146.968C139.926 144.97 141.618 143.602 143.814 143.602C146.298 143.602 147.882 145.456 147.9 147.814H145.182C145.164 146.734 144.606 146.158 143.814 146.158C143.166 146.158 142.644 146.518 142.644 147.094C142.644 147.796 143.148 148.102 144.39 148.804C146.946 150.244 148.296 151.342 148.296 153.268C148.296 155.518 146.352 156.743 144.138 156.743C141.168 156.743 139.674 154.546 139.656 152.458ZM161.211 143.782H163.929V156.562H161.211V148.642L157.593 154.366H156.567L152.949 148.642V156.562H150.231V143.782H152.949L157.071 150.208L161.211 143.782ZM166.175 156.562V143.782H168.893V156.562H166.175ZM173.723 153.988H178.943V156.562H171.005V143.782H173.723V153.988ZM187.913 146.338H183.233V148.822H186.941V151.396H183.233V153.988H187.913V156.562H180.497V143.782H187.913V146.338Z" fill="white"/>
</svg>
